<svg width="24" height="24" viewBox="0 0 24 24" fill="none" xmlns="http://www.w3.org/2000/svg">
<path fill-rule="evenodd" clip-rule="evenodd" d="M9.81997 3.4798C9.21798 3.4798 8.72997 3.96781 8.72997 4.5698V5.6598H15.27V4.5698C15.27 3.96781 14.782 3.4798 14.18 3.4798H9.81997ZM17.45 5.6598V4.5698C17.45 2.76383 15.9859 1.2998 14.18 1.2998H9.81997C8.014 1.2998 6.54998 2.76383 6.54998 4.5698V5.6598H4.36998C2.564 5.6598 1.09998 7.12383 1.09998 8.9298V18.7398C1.09998 20.5458 2.564 22.0098 4.36998 22.0098H19.63C21.4359 22.0098 22.9 20.5458 22.9 18.7398V8.9298C22.9 7.12383 21.4359 5.6598 19.63 5.6598H17.45Z" fill="#121212"/>
</svg>
