<svg width="21" height="20" viewBox="0 0 21 20" fill="none" xmlns="http://www.w3.org/2000/svg">
<path fill-rule="evenodd" clip-rule="evenodd" d="M7.63368 2.06348C8.07085 2.06348 8.42525 2.41788 8.42525 2.85506V3.64663H13.1747V2.85506C13.1747 2.41788 13.5291 2.06348 13.9663 2.06348C14.4035 2.06348 14.7579 2.41788 14.7579 2.85506V3.64663H16.341C17.2154 3.64663 17.9242 4.35544 17.9242 5.22979V15.5203C17.9242 16.3947 17.2154 17.1035 16.341 17.1035H5.25894C4.38459 17.1035 3.67578 16.3947 3.67578 15.5203V5.22979C3.67578 4.35544 4.38459 3.64663 5.25894 3.64663H6.8421V2.85506C6.8421 2.41788 7.1965 2.06348 7.63368 2.06348ZM6.8421 7.60453C6.8421 7.16735 7.1965 6.81295 7.63368 6.81295H13.9663C14.4035 6.81295 14.7579 7.16735 14.7579 7.60453C14.7579 8.04171 14.4035 8.39611 13.9663 8.39611H7.63368C7.1965 8.39611 6.8421 8.04171 6.8421 7.60453Z" fill="#121212"/>
</svg>
