<svg width="25" height="24" viewBox="0 0 25 24" fill="none" xmlns="http://www.w3.org/2000/svg">
<path fill-rule="evenodd" clip-rule="evenodd" d="M12.8 2C7.27714 2 2.79999 6.47715 2.79999 12C2.79999 17.5228 7.27714 22 12.8 22C18.3228 22 22.8 17.5228 22.8 12C22.8 6.47715 18.3228 2 12.8 2ZM16.3805 9.97493C16.6428 9.65434 16.5955 9.18183 16.2749 8.91953C15.9543 8.65724 15.4818 8.70449 15.2195 9.02507L11.2443 13.8837L9.83032 12.4697C9.53742 12.1768 9.06255 12.1768 8.76966 12.4697C8.47676 12.7626 8.47676 13.2374 8.76966 13.5303L10.7697 15.5303C10.9195 15.6802 11.1257 15.7596 11.3373 15.7491C11.549 15.7385 11.7463 15.6389 11.8805 15.4749L16.3805 9.97493Z" fill="#121212"/>
</svg>
