<svg width="25" height="24" viewBox="0 0 25 24" fill="none" xmlns="http://www.w3.org/2000/svg">
<path fill-rule="evenodd" clip-rule="evenodd" d="M12.6 2H7.59998C5.94312 2 4.59998 3.34315 4.59998 5V19C4.59998 20.6569 5.94312 22 7.59998 22H17.6C19.2568 22 20.6 20.6569 20.6 19V10H15.6C13.9431 10 12.6 8.65685 12.6 7V2ZM8.59998 14C8.59998 13.4477 9.04769 13 9.59998 13H12.6C13.1523 13 13.6 13.4477 13.6 14C13.6 14.5523 13.1523 15 12.6 15H9.59998C9.04769 15 8.59998 14.5523 8.59998 14ZM9.59998 17C9.04769 17 8.59998 17.4477 8.59998 18C8.59998 18.5523 9.04769 19 9.59998 19H16.1C16.6523 19 17.1 18.5523 17.1 18C17.1 17.4477 16.6523 17 16.1 17H9.59998Z" fill="#121212"/>
<path d="M20.0142 8L14.6 2.58579V7C14.6 7.55228 15.0477 8 15.6 8H20.0142Z" fill="#121212"/>
</svg>
