<svg width="25" height="24" viewBox="0 0 25 24" fill="none" xmlns="http://www.w3.org/2000/svg">
<path d="M3.63031 5.53009C3.33742 5.23719 3.33742 4.76232 3.63031 4.46943C3.92321 4.17653 4.39808 4.17653 4.69097 4.46943L20.2473 20.0258C20.5402 20.3187 20.5402 20.7935 20.2473 21.0864C19.9544 21.3793 19.4796 21.3793 19.1867 21.0864L3.63031 5.53009Z" fill="#121212"/>
<path fill-rule="evenodd" clip-rule="evenodd" d="M11.8538 1.56915C12.677 0.334303 14.6018 0.917078 14.6018 2.4012V7.99981H20.1676C21.3656 7.99981 22.0802 9.33504 21.4157 10.3319L17.8708 15.6492L8.62854 6.40699L11.8538 1.56915ZM7.78001 7.67978L3.78802 13.6678C3.12347 14.6646 3.83806 15.9998 5.0361 15.9998H10.6018V21.5984C10.6018 23.0825 12.5267 23.6653 13.3499 22.4305L17.0222 16.922L7.78001 7.67978Z" fill="#121212"/>
</svg>
