<svg width="25" height="24" viewBox="0 0 25 24" fill="none" xmlns="http://www.w3.org/2000/svg">
<g clip-path="url(#clip0_145_1236)">
<path fill-rule="evenodd" clip-rule="evenodd" d="M1.5 5.53832C1.5 3.85545 2.86424 2.49121 4.54711 2.49121H21.0529C22.7358 2.49121 24.1 3.85545 24.1 5.53832V18.4691C24.1 20.152 22.7358 21.5162 21.0529 21.5162H4.54711C2.86424 21.5162 1.5 20.152 1.5 18.4691V5.53832ZM15.1542 10.2367C15.1542 9.45656 15.7866 8.82416 16.5667 8.82416C17.3468 8.82416 17.9792 9.45656 17.9792 10.2367C17.9792 11.0168 17.3468 11.6492 16.5667 11.6492C15.7866 11.6492 15.1542 11.0168 15.1542 10.2367ZM18.1809 13.667C18.9881 13.667 18.9881 13.6654 18.9881 13.6654L18.9881 13.6638L18.9881 13.6605L18.988 13.6536L18.9876 13.6387C18.9873 13.6282 18.9867 13.6167 18.9859 13.6043C18.9843 13.5794 18.9814 13.5505 18.9768 13.5182C18.9676 13.4537 18.951 13.3744 18.9215 13.2857C18.8613 13.1053 18.7494 12.8922 18.5499 12.6927C18.1434 12.2862 17.4982 12.0527 16.5667 12.0527C15.6351 12.0527 14.99 12.2862 14.5834 12.6927C14.3839 12.8922 14.272 13.1053 14.2119 13.2857C14.1823 13.3744 14.1657 13.4537 14.1565 13.5182C14.1519 13.5505 14.1491 13.5794 14.1474 13.6043C14.1466 13.6167 14.146 13.6282 14.1457 13.6387L14.1453 13.6536L14.1453 13.6605L14.1452 13.6638L14.1452 13.6654C14.1452 13.6654 14.1452 13.667 14.9524 13.667H14.1452V14.4742H18.9881V13.667H18.1809ZM6.42388 9.21052C5.99837 9.21052 5.65342 9.55547 5.65342 9.98098C5.65342 10.4065 5.99837 10.7514 6.42388 10.7514H11.5464C11.9719 10.7514 12.3168 10.4065 12.3168 9.98098C12.3168 9.55547 11.9719 9.21052 11.5464 9.21052H6.42388ZM6.42388 12.6255C5.99837 12.6255 5.65342 12.9705 5.65342 13.396C5.65342 13.8215 5.99837 14.1664 6.42388 14.1664H9.29247C9.71798 14.1664 10.0629 13.8215 10.0629 13.396C10.0629 12.9705 9.71798 12.6255 9.29247 12.6255H6.42388Z" fill="#121212"/>
</g>
<defs>
<clipPath id="clip0_145_1236">
<rect width="24" height="24" fill="white" transform="translate(0.799988)"/>
</clipPath>
</defs>
</svg>
