<svg width="25" height="24" viewBox="0 0 25 24" fill="none" xmlns="http://www.w3.org/2000/svg">
<path d="M20.25 3H4.94998C4.59193 3 4.24856 3.14223 3.99538 3.39541C3.74221 3.64858 3.59998 3.99196 3.59998 4.35V19.65C3.59998 20.008 3.74221 20.3514 3.99538 20.6046C4.24856 20.8578 4.59193 21 4.94998 21H20.25C20.608 21 20.9514 20.8578 21.2046 20.6046C21.4577 20.3514 21.6 20.008 21.6 19.65V4.35C21.6 3.99196 21.4577 3.64858 21.2046 3.39541C20.9514 3.14223 20.608 3 20.25 3ZM8.99998 18.3H6.29998V10.2H8.99998V18.3ZM7.64998 8.625C7.34054 8.61616 7.04057 8.51632 6.78755 8.33797C6.53453 8.15962 6.33968 7.91066 6.22734 7.6222C6.115 7.33374 6.09016 7.01857 6.15592 6.71607C6.22168 6.41358 6.37512 6.13716 6.59708 5.92138C6.81903 5.70559 7.09965 5.55999 7.40388 5.50278C7.70811 5.44556 8.02246 5.47927 8.30764 5.59969C8.59282 5.7201 8.83619 5.92189 9.00735 6.17983C9.1785 6.43778 9.26985 6.74044 9.26998 7.05C9.26287 7.47331 9.08848 7.8766 8.78492 8.17173C8.48136 8.46685 8.07332 8.62982 7.64998 8.625ZM18.9 18.3H16.2V14.034C16.2 12.756 15.66 12.297 14.958 12.297C14.7522 12.3107 14.5511 12.3649 14.3663 12.4566C14.1815 12.5482 14.0166 12.6755 13.8811 12.831C13.7456 12.9866 13.6422 13.1674 13.5768 13.363C13.5114 13.5586 13.4853 13.7652 13.5 13.971C13.4955 14.0129 13.4955 14.0551 13.5 14.097V18.3H10.8V10.2H13.41V11.37C13.6733 10.9695 14.035 10.6433 14.4604 10.4227C14.8859 10.2021 15.3609 10.0944 15.84 10.11C17.235 10.11 18.864 10.884 18.864 13.404L18.9 18.3Z" fill="#121212"/>
</svg>
