<svg width="25" height="24" viewBox="0 0 25 24" fill="none" xmlns="http://www.w3.org/2000/svg">
<path fill-rule="evenodd" clip-rule="evenodd" d="M4.3999 5C4.3999 3.34315 5.74305 2 7.3999 2H17.3999C19.0568 2 20.3999 3.34315 20.3999 5V12.7639C19.8691 12.2889 19.1683 12 18.3999 12C16.743 12 15.3999 13.3431 15.3999 15C13.743 15 12.3999 16.3431 12.3999 18C12.3999 19.6569 13.743 21 15.3999 21C15.3999 21.3506 15.4601 21.6872 15.5706 22H7.3999C5.74305 22 4.3999 20.6569 4.3999 19V5ZM8.3999 5C7.84762 5 7.3999 5.44772 7.3999 6C7.3999 6.55228 7.84762 7 8.3999 7H14.3999C14.9522 7 15.3999 6.55228 15.3999 6C15.3999 5.44772 14.9522 5 14.3999 5H8.3999ZM8.3999 9C7.84762 9 7.3999 9.44772 7.3999 10C7.3999 10.5523 7.84762 11 8.3999 11H10.3999C10.9522 11 11.3999 10.5523 11.3999 10C11.3999 9.44772 10.9522 9 10.3999 9H8.3999Z" fill="#121212"/>
<path fill-rule="evenodd" clip-rule="evenodd" d="M18.3999 21.9C18.897 21.9 19.2999 21.4971 19.2999 21V18.1728L19.7635 18.6364C20.115 18.9879 20.6848 18.9879 21.0363 18.6364C21.3878 18.2849 21.3878 17.7151 21.0363 17.3636L19.0363 15.3636C18.6848 15.0121 18.115 15.0121 17.7635 15.3636L15.7635 17.3636C15.412 17.7151 15.412 18.2849 15.7635 18.6364C16.115 18.9879 16.6848 18.9879 17.0363 18.6364L17.4999 18.1728V21C17.4999 21.4971 17.9028 21.9 18.3999 21.9Z" fill="#121212"/>
</svg>
