<svg width="24" height="24" viewBox="0 0 24 24" fill="none" xmlns="http://www.w3.org/2000/svg">
<path fill-rule="evenodd" clip-rule="evenodd" d="M4 4.75C4 3.23122 5.23122 2 6.75 2H17.25C18.7688 2 20 3.23122 20 4.75V21.25C20 21.544 19.8283 21.8108 19.5607 21.9326C19.2931 22.0544 18.9791 22.0086 18.7574 21.8156L16.6924 20.017L14.8539 21.7899C14.5634 22.07 14.1033 22.07 13.8127 21.7899L12 20.0419L10.1873 21.7899C9.89674 22.07 9.4366 22.07 9.14606 21.7899L7.30756 20.017L5.24259 21.8156C5.02091 22.0086 4.70687 22.0544 4.43931 21.9326C4.17175 21.8108 4 21.544 4 21.25V4.75ZM15.1553 8.44702C15.4482 8.15412 15.4482 7.67925 15.1553 7.38636C14.8624 7.09346 14.3876 7.09346 14.0947 7.38636L11.4583 10.0227L10.4053 8.96968C10.1124 8.67679 9.63756 8.67679 9.34467 8.96968C9.05178 9.26258 9.05178 9.73745 9.34467 10.0303L10.928 11.6137C11.0687 11.7543 11.2594 11.8334 11.4583 11.8334C11.6572 11.8334 11.848 11.7543 11.9887 11.6137L15.1553 8.44702ZM8.75 14C8.33579 14 8 14.3358 8 14.75C8 15.1642 8.33579 15.5 8.75 15.5H15.25C15.6642 15.5 16 15.1642 16 14.75C16 14.3358 15.6642 14 15.25 14H8.75Z" fill="#121212"/>
</svg>
