<svg width="25" height="24" viewBox="0 0 25 24" fill="none" xmlns="http://www.w3.org/2000/svg">
<path d="M19.8996 6C19.8996 5.39249 19.4075 4.90039 18.8 4.90039H6.80002C6.19251 4.90039 5.70041 5.39249 5.70041 6V18L5.70529 18.1123C5.76153 18.6671 6.2304 19.0996 6.80002 19.0996H18.8C19.4075 19.0996 19.8996 18.6075 19.8996 18V6ZM21.7004 18C21.7004 19.6016 20.4016 20.9004 18.8 20.9004H6.80002C5.2485 20.9004 3.98129 19.6816 3.90353 18.1494L3.89963 18V6C3.89963 4.39837 5.19839 3.09961 6.80002 3.09961H18.8C20.4016 3.09961 21.7004 4.39837 21.7004 6V18Z" fill="#121212"/>
<path d="M8.89963 19V5C8.89963 4.50294 9.30296 4.09961 9.80002 4.09961C10.2971 4.09961 10.7004 4.50294 10.7004 5V19C10.7004 19.4971 10.2971 19.9004 9.80002 19.9004C9.30296 19.9004 8.89963 19.4971 8.89963 19Z" fill="#121212"/>
<path d="M4.80002 4.5H9.80002V19.5H4.80002V4.5Z" fill="#121212"/>
</svg>
