<svg width="21" height="20" viewBox="0 0 21 20" fill="none" xmlns="http://www.w3.org/2000/svg">
<path fill-rule="evenodd" clip-rule="evenodd" d="M10.6 18.0005C15.0183 18.0005 18.6 14.4188 18.6 10.0005C18.6 5.58221 15.0183 2.00049 10.6 2.00049C6.18176 2.00049 2.60004 5.58221 2.60004 10.0005C2.60004 14.4188 6.18176 18.0005 10.6 18.0005ZM11.4 6.80049C11.4 6.35866 11.0419 6.00049 10.6 6.00049C10.1582 6.00049 9.80004 6.35866 9.80004 6.80049V10.0005C9.80004 10.2127 9.88432 10.4161 10.0344 10.5662L12.0344 12.5662C12.3468 12.8786 12.8533 12.8786 13.1657 12.5662C13.4781 12.2538 13.4781 11.7472 13.1657 11.4348L11.4 9.66912V6.80049Z" fill="#121212"/>
</svg>
