<svg width="20" height="20" viewBox="0 0 20 20" fill="none" xmlns="http://www.w3.org/2000/svg">
<path fill-rule="evenodd" clip-rule="evenodd" d="M10 2C7.7909 2 6.00004 3.79086 6.00004 6V7.6C4.67455 7.6 3.60004 8.67452 3.60004 10V15.6C3.60004 16.9255 4.67455 18 6.00004 18H14C15.3255 18 16.4 16.9255 16.4 15.6V10C16.4 8.67452 15.3255 7.6 14 7.6H7.60004V6C7.60004 4.67452 8.67455 3.6 10 3.6C11.1172 3.6 12.058 4.3641 12.3245 5.39941C12.4346 5.82729 12.8707 6.08488 13.2986 5.97475C13.7265 5.86462 13.9841 5.42848 13.874 5.00059C13.43 3.27554 11.865 2 10 2ZM10 10.8C10.4419 10.8 10.8 11.1582 10.8 11.6V14C10.8 14.4418 10.4419 14.8 10 14.8C9.55821 14.8 9.20004 14.4418 9.20004 14V11.6C9.20004 11.1582 9.55821 10.8 10 10.8Z" fill="#121212"/>
</svg>
