<svg width="25" height="24" viewBox="0 0 25 24" fill="none" xmlns="http://www.w3.org/2000/svg">
<path fill-rule="evenodd" clip-rule="evenodd" d="M12.3999 22.4001C18.1436 22.4001 22.7999 17.7439 22.7999 12.0001C22.7999 6.25634 18.1436 1.6001 12.3999 1.6001C6.65612 1.6001 1.99988 6.25634 1.99988 12.0001C1.99988 17.7439 6.65612 22.4001 12.3999 22.4001ZM15.5199 9.9201C15.5199 11.6432 14.123 13.0401 12.3999 13.0401C10.6767 13.0401 9.27988 11.6432 9.27988 9.9201C9.27988 8.19697 10.6767 6.8001 12.3999 6.8001C14.123 6.8001 15.5199 8.19697 15.5199 9.9201ZM12.4001 20.3201C10.0722 20.3201 7.96754 19.364 6.45746 17.8231C7.84246 16.1653 9.90898 15.1201 12.4001 15.1201C14.8912 15.1201 16.9577 16.1653 18.3427 17.8231C16.8326 19.364 14.728 20.3201 12.4001 20.3201Z" fill="#121212"/>
</svg>
