<svg width="25" height="24" viewBox="0 0 25 24" fill="none" xmlns="http://www.w3.org/2000/svg">
<path fill-rule="evenodd" clip-rule="evenodd" d="M6.2444 1.6001C4.01071 1.6001 2.19995 3.41086 2.19995 5.64454V17.7779C2.19995 20.3307 4.26939 22.4001 6.82217 22.4001H19.5333C21.4479 22.4001 23 20.848 23 18.9334V10.8445C23 8.92995 21.4479 7.37788 19.5333 7.37788H18.3777V4.38703C18.3777 2.84785 17.13 1.6001 15.5908 1.6001H6.2444ZM16.0666 7.37788V4.38703C16.0666 4.12424 15.8536 3.91121 15.5908 3.91121H6.2444C5.2871 3.91121 4.51106 4.68725 4.51106 5.64454C4.51106 6.60184 5.2871 7.37788 6.2444 7.37788H16.0666ZM16.6444 16.3334C17.4421 16.3334 18.0888 15.6867 18.0888 14.889C18.0888 14.0912 17.4421 13.4445 16.6444 13.4445C15.8467 13.4445 15.2 14.0912 15.2 14.889C15.2 15.6867 15.8467 16.3334 16.6444 16.3334Z" fill="#121212"/>
</svg>
