<svg width="25" height="24" viewBox="0 0 25 24" fill="none" xmlns="http://www.w3.org/2000/svg">
<path fill-rule="evenodd" clip-rule="evenodd" d="M10.6767 2.95862C11.45 1.644 13.3512 1.644 14.1245 2.95862L22.3761 16.9863C23.1603 18.3196 22.199 20.0003 20.6522 20.0003H4.14903C2.6022 20.0003 1.64089 18.3196 2.42516 16.9863L10.6767 2.95862ZM12.3999 9.00024C12.9522 9.00024 13.3999 9.44796 13.3999 10.0002V12.0002C13.3999 12.5525 12.9522 13.0002 12.3999 13.0002C11.8476 13.0002 11.3999 12.5525 11.3999 12.0002V10.0002C11.3999 9.44796 11.8476 9.00024 12.3999 9.00024ZM11.1499 15.0002C11.1499 14.3099 11.7095 13.7502 12.3999 13.7502C13.0903 13.7502 13.6499 14.3099 13.6499 15.0002C13.6499 15.6906 13.0903 16.2502 12.3999 16.2502C11.7095 16.2502 11.1499 15.6906 11.1499 15.0002Z" fill="#121212"/>
</svg>
