<svg width="25" height="24" viewBox="0 0 25 24" fill="none" xmlns="http://www.w3.org/2000/svg">
<path fill-rule="evenodd" clip-rule="evenodd" d="M21.0043 4.00776C21.9083 4.28763 22.6189 5.10925 22.8609 6.15475C23.2982 8.04786 23.3 12 23.3 12C23.3 12 23.3 15.9522 22.8609 17.8453C22.6189 18.8908 21.9083 19.7124 21.0043 19.9922C19.3673 20.5 12.8 20.5 12.8 20.5C12.8 20.5 6.23273 20.5 4.59567 19.9922C3.69158 19.7124 2.98109 18.8908 2.73907 17.8453C2.29999 15.9522 2.29999 12 2.29999 12C2.29999 12 2.29999 8.04786 2.73907 6.15475C2.98109 5.10925 3.69158 4.28763 4.59567 4.00776C6.23273 3.5 12.8 3.5 12.8 3.5C12.8 3.5 19.3673 3.5 21.0043 4.00776ZM16.3134 12.0003L10.5978 15.2999V8.70065L16.3134 12.0003Z" fill="#121212"/>
</svg>
