<svg preserveAspectRatio="none" width="100%" height="100%" overflow="visible" style="display: block;" viewBox="0 0 28.75 27.25" fill="none" xmlns="http://www.w3.org/2000/svg">
<g id="Group">
<path id="Union" d="M23.374 0.152344H23.375V0H24.625V0.00292969C26.8929 0.0704753 28.75 1.96747 28.75 4.25V7.25C28.75 9.18303 27.1829 10.75 25.25 10.75H22.75V23.0029C22.75 25.307 20.9134 27.1814 18.625 27.2461V27.25H4.2998C3.1596 27.25 2.06523 26.7974 1.25879 25.9912C0.452135 25.1847 0 24.0907 0 22.9512V21.5C0 19.5665 1.56852 18 3.50098 18H4.5V4.24414C4.50012 3.11797 4.94841 2.03851 5.74707 1.24219L5.74609 1.24121C6.54391 0.444558 7.6256 0 8.75098 0H23.374V0.152344ZM3.50098 20.5C2.94814 20.5 2.5 20.9483 2.5 21.5V22.9512C2.5 23.4281 2.68936 23.8856 3.02637 24.2227C3.36388 24.5601 3.82235 24.75 4.2998 24.75H14.626C14.385 24.217 14.25 23.6257 14.25 23.0029V21.5C14.25 20.9482 13.8017 20.5 13.249 20.5H3.50098ZM8.75098 2.5C8.28466 2.5 7.83946 2.68439 7.5127 3.01074L7.51172 3.01172C7.1841 3.33831 7.00012 3.78122 7 4.24414V18H13.249C15.1815 18 16.75 19.5666 16.75 21.5V23.0029C16.75 23.9671 17.5329 24.75 18.4971 24.75H18.5029C19.4671 24.75 20.25 23.9671 20.25 23.0029V4.25C20.25 3.64043 20.3818 3.04483 20.6279 2.5H8.75098ZM14 10.5C14.6904 10.5 15.25 11.0596 15.25 11.75C15.25 12.4404 14.6904 13 14 13H11.75C11.0596 13 10.5 12.4404 10.5 11.75C10.5 11.0596 11.0596 10.5 11.75 10.5H14ZM15.5 6C16.1904 6 16.75 6.55964 16.75 7.25C16.75 7.94036 16.1904 8.5 15.5 8.5H11.75C11.0596 8.5 10.5 7.94036 10.5 7.25C10.5 6.55964 11.0596 6 11.75 6H15.5ZM24.5 2.5C24.0359 2.5 23.5907 2.68463 23.2627 3.0127C22.9345 3.34107 22.75 3.78603 22.75 4.25V8.25H25.25C25.8023 8.25 26.25 7.80226 26.25 7.25V4.25C26.25 3.30638 25.4436 2.5 24.5 2.5Z" fill="url(#paint0_linear_0_121)"/>
</g>
<defs>
<linearGradient id="paint0_linear_0_121" x1="6.26533" y1="0.122775" x2="19.9177" y2="27.25" gradientUnits="userSpaceOnUse">
<stop stop-color="#0058D2"/>
<stop offset="1" stop-color="#5690FF"/>
</linearGradient>
</defs>
</svg>
