<svg preserveAspectRatio="none" width="100%" height="100%" overflow="visible" style="display: block;" viewBox="0 0 51.9999 52" fill="none" xmlns="http://www.w3.org/2000/svg">
<path id="Vector" d="M26.0146 0.5C31.7249 0.5 36.1094 0.501121 39.5869 1.01367C43.0471 1.52369 45.5485 2.53283 47.5225 4.50684C49.4811 6.46561 50.4826 8.96586 50.9893 12.4307C51.4983 15.9122 51.5 20.3044 51.5 26.0146C51.5 31.7248 51.4983 36.1172 50.9893 39.5986C50.4826 43.0633 49.4812 45.5637 47.5225 47.5225C45.5636 49.4813 43.0626 50.4826 39.5977 50.9893C36.1163 51.4982 31.7245 51.5 26.0146 51.5C20.3044 51.5 15.9119 51.4983 12.4268 50.9893C8.95835 50.4826 6.44915 49.4804 4.47559 47.5205C2.51814 45.5621 1.51723 43.0622 1.01074 39.5986C0.501693 36.1172 0.5 31.7248 0.5 26.0146C0.5 20.3044 0.501673 15.9119 1.01074 12.4268C1.51716 8.95993 2.51847 6.45264 4.47656 4.47949C6.45013 2.51963 8.95835 1.51739 12.4268 1.01074C15.9119 0.501672 20.3044 0.5 26.0146 0.5Z" fill="var(--fill-0, #1B449C)" stroke="var(--stroke-0, #1B449C)"/>
</svg>
