<svg width="17" height="16" viewBox="0 0 17 16" fill="none" xmlns="http://www.w3.org/2000/svg">
<path d="M6.79999 2.00016C6.79999 1.63197 6.50151 1.3335 6.13332 1.3335C5.76513 1.3335 5.46665 1.63197 5.46665 2.00016V2.66683H4.13332C3.39694 2.66683 2.79999 3.26378 2.79999 4.00016V12.6668C2.79999 13.4032 3.39694 14.0002 4.13332 14.0002H8.13332C8.50151 14.0002 8.79999 13.7017 8.79999 13.3335C8.79999 12.9653 8.50151 12.6668 8.13332 12.6668H4.13332V6.66683H13.4667V7.3335C13.4667 7.70169 13.7651 8.00016 14.1333 8.00016C14.5015 8.00016 14.8 7.70169 14.8 7.3335V4.00016C14.8 3.26378 14.203 2.66683 13.4667 2.66683H12.1333V2.00016C12.1333 1.63197 11.8348 1.3335 11.4667 1.3335C11.0985 1.3335 10.8 1.63197 10.8 2.00016V2.66683H6.79999V2.00016Z" fill="#121212"/>
<path d="M10.9952 10.1955C10.7349 10.4558 10.7349 10.8779 10.9953 11.1383L11.8573 12.0002L10.9953 12.8621C10.7349 13.1224 10.7349 13.5445 10.9952 13.8049C11.2556 14.0652 11.6777 14.0653 11.938 13.8049L12.8001 12.943L13.6619 13.8049C13.9222 14.0652 14.3443 14.0653 14.6047 13.8049C14.8651 13.5446 14.8651 13.1225 14.6048 12.8621L13.7429 12.0002L14.6048 11.1382C14.8651 10.8778 14.8651 10.4557 14.6047 10.1954C14.3443 9.93506 13.9222 9.93509 13.6619 10.1955L12.8001 11.0574L11.938 10.1954C11.6777 9.93506 11.2556 9.93509 10.9952 10.1955Z" fill="#121212"/>
</svg>
