<svg width="17" height="16" viewBox="0 0 17 16" fill="none" xmlns="http://www.w3.org/2000/svg">
<path fill-rule="evenodd" clip-rule="evenodd" d="M5.93331 1.3335C6.3015 1.3335 6.59998 1.63197 6.59998 2.00016V2.66683H10.6V2.00016C10.6 1.63197 10.8985 1.3335 11.2666 1.3335C11.6348 1.3335 11.9333 1.63197 11.9333 2.00016V2.66683H13.2666C14.003 2.66683 14.6 3.26378 14.6 4.00016V12.6668C14.6 13.4032 14.003 14.0002 13.2666 14.0002H3.93331C3.19693 14.0002 2.59998 13.4032 2.59998 12.6668V4.00016C2.59998 3.26378 3.19693 2.66683 3.93331 2.66683H5.26664V2.00016C5.26664 1.63197 5.56512 1.3335 5.93331 1.3335ZM5.26664 6.00016C5.26664 5.63197 5.56512 5.3335 5.93331 5.3335H11.2666C11.6348 5.3335 11.9333 5.63197 11.9333 6.00016C11.9333 6.36835 11.6348 6.66683 11.2666 6.66683H5.93331C5.56512 6.66683 5.26664 6.36835 5.26664 6.00016Z" fill="#121212"/>
</svg>
