<svg width="17" height="16" viewBox="0 0 17 16" fill="none" xmlns="http://www.w3.org/2000/svg">
<path fill-rule="evenodd" clip-rule="evenodd" d="M8.79997 1.33301C5.11807 1.33301 2.1333 4.31778 2.1333 7.99967C2.1333 11.6816 5.11807 14.6663 8.79997 14.6663C12.4819 14.6663 15.4666 11.6816 15.4666 7.99967C15.4666 4.31778 12.4819 1.33301 8.79997 1.33301ZM11.1869 6.64963C11.3618 6.4359 11.3303 6.12089 11.1166 5.94603C10.9029 5.77116 10.5879 5.80267 10.413 6.01639L7.76285 9.25545L6.82019 8.31279C6.62493 8.11753 6.30834 8.11753 6.11308 8.31279C5.91782 8.50805 5.91782 8.82463 6.11308 9.01989L7.44641 10.3532C7.5463 10.4531 7.68378 10.5061 7.82487 10.4991C7.96596 10.492 8.09749 10.4256 8.18695 10.3163L11.1869 6.64963Z" fill="#121212"/>
</svg>
