<svg width="16" height="16" viewBox="0 0 16 16" fill="none" xmlns="http://www.w3.org/2000/svg">
<path fill-rule="evenodd" clip-rule="evenodd" d="M8.00001 1.33301C4.31811 1.33301 1.33334 4.31778 1.33334 7.99967C1.33334 11.6816 4.31811 14.6663 8.00001 14.6663C11.6819 14.6663 14.6667 11.6816 14.6667 7.99967C14.6667 4.31778 11.6819 1.33301 8.00001 1.33301ZM6.66668 7.33301C6.66668 6.96482 6.96515 6.66634 7.33334 6.66634H8.00001C8.3682 6.66634 8.66668 6.96482 8.66668 7.33301V10.6663C8.66668 11.0345 8.3682 11.333 8.00001 11.333C7.63182 11.333 7.33334 11.0345 7.33334 10.6663V7.99967C6.96515 7.99967 6.66668 7.7012 6.66668 7.33301ZM8.00001 4.66634C7.63182 4.66634 7.33334 4.96482 7.33334 5.33301C7.33334 5.7012 7.63182 5.99967 8.00001 5.99967C8.3682 5.99967 8.66668 5.7012 8.66668 5.33301C8.66668 4.96482 8.3682 4.66634 8.00001 4.66634Z" fill="#121212"/>
</svg>
