<svg width="17" height="16" viewBox="0 0 17 16" fill="none" xmlns="http://www.w3.org/2000/svg">
<path fill-rule="evenodd" clip-rule="evenodd" d="M8.59995 14.6665C4.91806 14.6665 1.93329 11.6817 1.93329 7.99984C1.93329 4.31794 4.91806 1.33317 8.59995 1.33317C12.2819 1.33317 15.2666 4.31794 15.2666 7.99984C15.2666 11.6817 12.2819 14.6665 8.59995 14.6665ZM7.93329 8.6665C7.93329 8.66652 7.93329 8.6665 7.93329 8.6665C7.93329 9.03317 8.26662 9.33317 8.59995 9.33317C8.93329 9.33317 9.26662 9.03469 9.26662 8.6665V5.33317C9.26662 4.96498 8.96814 4.6665 8.59995 4.6665C8.23176 4.6665 7.93329 4.96498 7.93329 5.33317C7.93329 6.44428 7.93329 8.6665 7.93329 8.6665ZM8.59995 11.3332C8.23176 11.3332 7.93329 11.0347 7.93329 10.6665C7.93329 10.2983 8.23176 9.99984 8.59995 9.99984C8.96814 9.99984 9.26662 10.2983 9.26662 10.6665C9.26662 11.0347 8.96814 11.3332 8.59995 11.3332Z" fill="#121212"/>
</svg>
