<svg width="16" height="16" viewBox="0 0 16 16" fill="none" xmlns="http://www.w3.org/2000/svg">
<path fill-rule="evenodd" clip-rule="evenodd" d="M5.41735 3.3335C5.71337 2.18334 6.75744 1.3335 8 1.3335C9.24256 1.3335 10.2866 2.18334 10.5827 3.3335H13.3333C13.7015 3.3335 14 3.63197 14 4.00016C14 4.36835 13.7015 4.66683 13.3333 4.66683H12.6667V13.3335C12.6667 14.0699 12.0697 14.6668 11.3333 14.6668H4.66667C3.93029 14.6668 3.33333 14.0699 3.33333 13.3335V4.66683H2.66667C2.29848 4.66683 2 4.36835 2 4.00016C2 3.63197 2.29848 3.3335 2.66667 3.3335H5.41735ZM6.84504 3.3335C7.07558 2.93496 7.50648 2.66683 8 2.66683C8.49352 2.66683 8.92442 2.93496 9.15496 3.3335H6.84504ZM6.66667 6.66683C7.03486 6.66683 7.33333 6.96531 7.33333 7.3335V10.6668C7.33333 11.035 7.03486 11.3335 6.66667 11.3335C6.29848 11.3335 6 11.035 6 10.6668V7.3335C6 6.96531 6.29848 6.66683 6.66667 6.66683ZM9.33333 6.66683C9.70152 6.66683 10 6.96531 10 7.3335V10.6668C10 11.035 9.70152 11.3335 9.33333 11.3335C8.96514 11.3335 8.66667 11.035 8.66667 10.6668V7.3335C8.66667 6.96531 8.96514 6.66683 9.33333 6.66683Z" fill="#121212"/>
</svg>
