<svg width="17" height="16" viewBox="0 0 17 16" fill="none" xmlns="http://www.w3.org/2000/svg">
<g clip-path="url(#clip0_145_1460)">
<path d="M6.13331 2C4.66055 2 3.46664 3.19391 3.46664 4.66667C3.46664 6.13943 4.66055 7.33333 6.13331 7.33333C7.60607 7.33333 8.79998 6.13943 8.79998 4.66667C8.79998 3.19391 7.60607 2 6.13331 2Z" fill="#121212"/>
<path d="M12.1333 2.66667C10.8446 2.66667 9.79998 3.71134 9.79998 5C9.79998 6.28866 10.8446 7.33333 12.1333 7.33333C13.422 7.33333 14.4666 6.28866 14.4666 5C14.4666 3.71134 13.422 2.66667 12.1333 2.66667Z" fill="#121212"/>
<path d="M6.13322 8C8.25233 8 10.2265 9.60907 10.7076 12.511C10.8448 13.3382 10.1752 14 9.41791 14H2.84854C2.09129 14 1.42168 13.3382 1.55882 12.511C2.03992 9.60907 4.01412 8 6.13322 8Z" fill="#121212"/>
<path d="M10.2626 8.51435C11.1388 9.46887 11.7684 10.7571 12.023 12.2929C12.0842 12.6619 12.0685 13.0116 11.9916 13.3333H14.8463C15.5995 13.3333 16.2819 12.6712 16.1283 11.8337C15.678 9.37754 13.9738 8 12.1331 8C11.4751 8 10.8346 8.176 10.2626 8.51435Z" fill="#121212"/>
</g>
<defs>
<clipPath id="clip0_145_1460">
<rect width="16" height="16" fill="white" transform="translate(0.799988)"/>
</clipPath>
</defs>
</svg>
