<svg width="16" height="16" viewBox="0 0 16 16" fill="none" xmlns="http://www.w3.org/2000/svg">
<path fill-rule="evenodd" clip-rule="evenodd" d="M2.19997 6.56465C2.19997 3.3614 4.79672 0.764648 7.99997 0.764648C11.2032 0.764648 13.8 3.3614 13.8 6.56465C13.8 8.35841 13.0067 10.0148 12.0822 11.3453C11.1521 12.6839 10.0415 13.7611 9.29929 14.4119C8.54982 15.069 7.45011 15.069 6.70064 14.4119C5.95842 13.7611 4.8478 12.6839 3.91775 11.3453C2.99322 10.0148 2.19997 8.35841 2.19997 6.56465ZM7.99837 8.37715C8.99939 8.37715 9.81087 7.56566 9.81087 6.56465C9.81087 5.56363 8.99939 4.75215 7.99837 4.75215C6.99736 4.75215 6.18587 5.56363 6.18587 6.56465C6.18587 7.56566 6.99736 8.37715 7.99837 8.37715Z" fill="#121212"/>
</svg>
