<svg width="17" height="16" viewBox="0 0 17 16" fill="none" xmlns="http://www.w3.org/2000/svg">
<path fill-rule="evenodd" clip-rule="evenodd" d="M8.39994 14.6668C12.0818 14.6668 15.0666 11.6821 15.0666 8.00016C15.0666 4.31826 12.0818 1.3335 8.39994 1.3335C4.71804 1.3335 1.73328 4.31826 1.73328 8.00016C1.73328 11.6821 4.71804 14.6668 8.39994 14.6668ZM9.06661 5.3335C9.06661 4.96531 8.76813 4.66683 8.39994 4.66683C8.03175 4.66683 7.73328 4.96531 7.73328 5.3335V8.00016C7.73328 8.17697 7.80351 8.34654 7.92854 8.47157L9.59521 10.1382C9.85555 10.3986 10.2777 10.3986 10.538 10.1382C10.7984 9.87788 10.7984 9.45577 10.538 9.19543L9.06661 7.72402V5.3335Z" fill="#121212"/>
</svg>
