<svg width="17" height="16" viewBox="0 0 17 16" fill="none" xmlns="http://www.w3.org/2000/svg">
<path fill-rule="evenodd" clip-rule="evenodd" d="M7.25113 1.97225C7.76667 1.09584 9.03409 1.09584 9.54962 1.97225L15.0507 11.324C15.5735 12.2129 14.9327 13.3334 13.9014 13.3334H2.89932C1.8681 13.3334 1.22723 12.2129 1.75008 11.324L7.25113 1.97225ZM8.3999 6C8.76809 6 9.06657 6.29848 9.06657 6.66667V8C9.06657 8.36819 8.76809 8.66667 8.3999 8.66667C8.03171 8.66667 7.73324 8.36819 7.73324 8V6.66667C7.73324 6.29848 8.03171 6 8.3999 6ZM7.56657 10C7.56657 9.53976 7.93966 9.16667 8.3999 9.16667C8.86014 9.16667 9.23324 9.53976 9.23324 10C9.23324 10.4602 8.86014 10.8333 8.3999 10.8333C7.93966 10.8333 7.56657 10.4602 7.56657 10Z" fill="#121212"/>
</svg>
