<svg width="16" height="16" viewBox="0 0 16 16" fill="none" xmlns="http://www.w3.org/2000/svg">
<path fill-rule="evenodd" clip-rule="evenodd" d="M6.66667 2.75C6.3445 2.75 6.08333 3.01117 6.08333 3.33333V3.91667H9.91667V3.33333C9.91667 3.01117 9.6555 2.75 9.33333 2.75H6.66667ZM11.4167 3.91667V3.33333C11.4167 2.18274 10.4839 1.25 9.33333 1.25H6.66667C5.51607 1.25 4.58333 2.18274 4.58333 3.33333V3.91667H3.33333C2.18274 3.91667 1.25 4.84941 1.25 6V12C1.25 13.1506 2.18274 14.0833 3.33333 14.0833H12.6667C13.8173 14.0833 14.75 13.1506 14.75 12V6C14.75 4.84941 13.8173 3.91667 12.6667 3.91667H11.4167ZM3.33333 5.41667C3.01117 5.41667 2.75 5.67783 2.75 6V12C2.75 12.3222 3.01117 12.5833 3.33333 12.5833H12.6667C12.9888 12.5833 13.25 12.3222 13.25 12V6C13.25 5.67783 12.9888 5.41667 12.6667 5.41667H3.33333Z" fill="#121212"/>
</svg>
