<svg width="17" height="16" viewBox="0 0 17 16" fill="none" xmlns="http://www.w3.org/2000/svg">
<path fill-rule="evenodd" clip-rule="evenodd" d="M6.04996 1.07275C6.46417 1.07275 6.79996 1.40854 6.79996 1.82275V2.44775H10.8V1.82275C10.8 1.40854 11.1357 1.07275 11.55 1.07275C11.9642 1.07275 12.3 1.40854 12.3 1.82275V2.44775H12.925C14.0986 2.44775 15.05 3.39915 15.05 4.57275V12.1353C15.05 13.3089 14.0986 14.2603 12.925 14.2603H4.67496C3.50135 14.2603 2.54996 13.3089 2.54996 12.1353V4.57275C2.54996 3.39915 3.50135 2.44775 4.67496 2.44775H5.29996V1.82275C5.29996 1.40854 5.63574 1.07275 6.04996 1.07275ZM4.67496 3.94775C4.32978 3.94775 4.04996 4.22758 4.04996 4.57275V5.88525H13.55V4.57275C13.55 4.22758 13.2701 3.94775 12.925 3.94775H4.67496ZM13.55 7.38525H4.04996V12.1353C4.04996 12.4804 4.32978 12.7603 4.67496 12.7603H12.925C13.2701 12.7603 13.55 12.4804 13.55 12.1353V7.38525Z" fill="#121212"/>
</svg>
