<svg width="17" height="16" viewBox="0 0 17 16" fill="none" xmlns="http://www.w3.org/2000/svg">
<path fill-rule="evenodd" clip-rule="evenodd" d="M8.3999 13.25C5.50041 13.25 3.1499 10.8995 3.1499 8C3.1499 5.1005 5.50041 2.75 8.3999 2.75C11.2994 2.75 13.6499 5.1005 13.6499 8C13.6499 10.8995 11.2994 13.25 8.3999 13.25ZM1.6499 8C1.6499 11.7279 4.67198 14.75 8.3999 14.75C12.1278 14.75 15.1499 11.7279 15.1499 8C15.1499 4.27208 12.1278 1.25 8.3999 1.25C4.67198 1.25 1.6499 4.27208 1.6499 8ZM8.3999 9.41667C8.81412 9.41667 9.1499 9.08088 9.1499 8.66667V5.33333C9.1499 4.91912 8.81412 4.58333 8.3999 4.58333C7.98569 4.58333 7.6499 4.91912 7.6499 5.33333V8.66667C7.6499 9.08 8.00928 9.41667 8.3999 9.41667Z" fill="#121212"/>
<path d="M9.14996 10.67C9.14996 11.0842 8.81418 11.42 8.39996 11.42C7.98575 11.42 7.64996 11.0842 7.64996 10.67C7.64996 10.2558 7.98575 9.92 8.39996 9.92C8.81418 9.92 9.14996 10.2558 9.14996 10.67Z" fill="#121212"/>
</svg>
