<svg width="17" height="16" viewBox="0 0 17 16" fill="none" xmlns="http://www.w3.org/2000/svg">
<path fill-rule="evenodd" clip-rule="evenodd" d="M3.40296 2.80317C3.69585 2.51027 4.17073 2.51027 4.46362 2.80317L8.59996 6.9395L12.7363 2.80317C13.0292 2.51027 13.5041 2.51027 13.797 2.80317C14.0898 3.09606 14.0898 3.57093 13.797 3.86383L9.66062 8.00016L13.797 12.1365C14.0898 12.4294 14.0898 12.9043 13.797 13.1972C13.5041 13.4901 13.0292 13.4901 12.7363 13.1972L8.59996 9.06082L4.46362 13.1972C4.17073 13.4901 3.69585 13.4901 3.40296 13.1972C3.11007 12.9043 3.11007 12.4294 3.40296 12.1365L7.5393 8.00016L3.40296 3.86383C3.11007 3.57093 3.11007 3.09606 3.40296 2.80317Z" fill="#121212"/>
</svg>
