<svg width="17" height="16" viewBox="0 0 17 16" fill="none" xmlns="http://www.w3.org/2000/svg">
<path fill-rule="evenodd" clip-rule="evenodd" d="M4.46967 4.06977C4.76256 3.77687 5.23744 3.77687 5.53033 4.06977L8.4 6.93944L11.2697 4.06977C11.5626 3.77687 12.0374 3.77687 12.3303 4.06977C12.6232 4.36266 12.6232 4.83753 12.3303 5.13043L9.46066 8.0001L12.3303 10.8698C12.6232 11.1627 12.6232 11.6375 12.3303 11.9304C12.0374 12.2233 11.5626 12.2233 11.2697 11.9304L8.4 9.06076L5.53033 11.9304C5.23744 12.2233 4.76256 12.2233 4.46967 11.9304C4.17678 11.6375 4.17678 11.1627 4.46967 10.8698L7.33934 8.0001L4.46967 5.13043C4.17678 4.83753 4.17678 4.36266 4.46967 4.06977Z" fill="#121212"/>
</svg>
