<svg width="17" height="16" viewBox="0 0 17 16" fill="none" xmlns="http://www.w3.org/2000/svg">
<path fill-rule="evenodd" clip-rule="evenodd" d="M5.95351 3.25H3.26666C2.85245 3.25 2.51666 3.58579 2.51666 4C2.51666 4.41421 2.85245 4.75 3.26666 4.75H3.85V13.3333C3.85 14.1157 4.48426 14.75 5.26666 14.75H11.9333C12.7157 14.75 13.35 14.1157 13.35 13.3333V4.75H13.9333C14.3475 4.75 14.6833 4.41421 14.6833 4C14.6833 3.58579 14.3475 3.25 13.9333 3.25H11.2465C10.92 2.09575 9.85877 1.25 8.6 1.25C7.34122 1.25 6.27998 2.09575 5.95351 3.25ZM7.5999 3.25H9.60009C9.37204 2.94639 9.00895 2.75 8.6 2.75C8.19104 2.75 7.82796 2.94639 7.5999 3.25ZM5.35 4.75V13.25H11.85V4.75H5.35ZM7.26666 6.58333C7.68088 6.58333 8.01666 6.91912 8.01666 7.33333V10.6667C8.01666 11.0809 7.68088 11.4167 7.26666 11.4167C6.85245 11.4167 6.51666 11.0809 6.51666 10.6667V7.33333C6.51666 6.91912 6.85245 6.58333 7.26666 6.58333ZM9.93333 6.58333C10.3475 6.58333 10.6833 6.91912 10.6833 7.33333V10.6667C10.6833 11.0809 10.3475 11.4167 9.93333 11.4167C9.51912 11.4167 9.18333 11.0809 9.18333 10.6667V7.33333C9.18333 6.91912 9.51912 6.58333 9.93333 6.58333Z" fill="#121212"/>
</svg>
