<svg width="17" height="16" viewBox="0 0 17 16" fill="none" xmlns="http://www.w3.org/2000/svg">
<path fill-rule="evenodd" clip-rule="evenodd" d="M5.73328 3.4165C5.04292 3.4165 4.48328 3.97615 4.48328 4.6665C4.48328 5.35686 5.04292 5.9165 5.73328 5.9165C6.42363 5.9165 6.98328 5.35686 6.98328 4.6665C6.98328 3.97615 6.42363 3.4165 5.73328 3.4165ZM2.98328 4.6665C2.98328 3.14772 4.21449 1.9165 5.73328 1.9165C7.25206 1.9165 8.48328 3.14772 8.48328 4.6665C8.48328 6.18529 7.25206 7.4165 5.73328 7.4165C4.21449 7.4165 2.98328 6.18529 2.98328 4.6665ZM11.7333 4.08317C11.227 4.08317 10.8166 4.49358 10.8166 4.99984C10.8166 5.5061 11.227 5.9165 11.7333 5.9165C12.2395 5.9165 12.6499 5.5061 12.6499 4.99984C12.6499 4.49358 12.2395 4.08317 11.7333 4.08317ZM9.31661 4.99984C9.31661 3.66515 10.3986 2.58317 11.7333 2.58317C13.068 2.58317 14.1499 3.66515 14.1499 4.99984C14.1499 6.33453 13.068 7.4165 11.7333 7.4165C10.3986 7.4165 9.31661 6.33453 9.31661 4.99984ZM14.3022 11.9165C13.8566 9.87681 12.3858 9.20744 11.2358 9.47367C10.8322 9.5671 10.4294 9.3157 10.3359 8.91216C10.2425 8.50862 10.4939 8.10575 10.8975 8.01233C13.0449 7.51517 15.2861 8.94218 15.8127 11.8211C15.977 12.7191 15.2434 13.4165 14.4483 13.4165H12.3999C11.9857 13.4165 11.6499 13.0807 11.6499 12.6665C11.6499 12.2523 11.9857 11.9165 12.3999 11.9165H14.3022ZM2.58495 12.5832H8.8816C8.45487 10.3615 7.01628 9.4165 5.73328 9.4165C4.45028 9.4165 3.01168 10.3615 2.58495 12.5832ZM5.73328 7.9165C7.89979 7.9165 9.90327 9.56199 10.3899 12.4972C10.5363 13.3801 9.82154 14.0832 9.01796 14.0832H2.44859C1.64502 14.0832 0.930284 13.3801 1.07666 12.4972C1.56328 9.56199 3.56677 7.9165 5.73328 7.9165Z" fill="#121212"/>
</svg>
