<svg width="17" height="16" viewBox="0 0 17 16" fill="none" xmlns="http://www.w3.org/2000/svg">
<path fill-rule="evenodd" clip-rule="evenodd" d="M7.24797 2.27575C7.94185 1.79871 8.85797 1.79871 9.55185 2.27575L13.5519 5.02575C14.1036 5.40508 14.4332 6.03173 14.4332 6.7013V11.9999C14.4332 13.1229 13.5229 14.0333 12.3999 14.0333H10.0666C9.67998 14.0333 9.36658 13.7199 9.36658 13.3333V10.9999C9.36658 10.4661 8.93379 10.0333 8.39991 10.0333C7.86603 10.0333 7.43324 10.4661 7.43324 10.9999V13.3333C7.43324 13.7199 7.11984 14.0333 6.73324 14.0333H4.39991C3.27693 14.0333 2.36658 13.1229 2.36658 11.9999V6.7013C2.36658 6.03173 2.69621 5.40508 3.24797 5.02575L3.64454 5.60258L3.24797 5.02575L7.24797 2.27575ZM8.75871 3.42941C8.54259 3.28082 8.25724 3.28082 8.04111 3.42941L4.04111 6.17941C3.86925 6.29756 3.76658 6.49275 3.76658 6.7013V11.9999C3.76658 12.3497 4.05013 12.6333 4.39991 12.6333H6.03324V10.9999C6.03324 9.69285 7.09284 8.63326 8.39991 8.63326C9.70698 8.63326 10.7666 9.69285 10.7666 10.9999V12.6333H12.3999C12.7497 12.6333 13.0332 12.3497 13.0332 11.9999V6.7013C13.0332 6.49275 12.9306 6.29756 12.7587 6.17941L8.75871 3.42941Z" fill="#121212"/>
</svg>
