<svg width="16" height="16" viewBox="0 0 16 16" fill="none" xmlns="http://www.w3.org/2000/svg">
<path fill-rule="evenodd" clip-rule="evenodd" d="M6.10314 3.04248C5.29522 3.04248 4.64027 3.69743 4.64027 4.50535C4.64027 5.31327 5.29522 5.96821 6.10314 5.96821C6.91106 5.96821 7.566 5.31327 7.566 4.50535C7.566 3.69743 6.91106 3.04248 6.10314 3.04248ZM3.14027 4.50535C3.14027 2.869 4.46679 1.54248 6.10314 1.54248C7.73948 1.54248 9.066 2.869 9.066 4.50535C9.066 6.14169 7.73948 7.46821 6.10314 7.46821C4.46679 7.46821 3.14027 6.14169 3.14027 4.50535ZM9.14662 2.29248C9.14662 1.87827 9.48241 1.54248 9.89662 1.54248C11.533 1.54248 12.8595 2.869 12.8595 4.50535C12.8595 6.14169 11.533 7.46821 9.89662 7.46821C9.48241 7.46821 9.14662 7.13243 9.14662 6.71821C9.14662 6.304 9.48241 5.96821 9.89662 5.96821C10.7045 5.96821 11.3595 5.31327 11.3595 4.50535C11.3595 3.69743 10.7045 3.04248 9.89662 3.04248C9.48241 3.04248 9.14662 2.70669 9.14662 2.29248ZM6.10314 9.36496C4.07898 9.36496 2.45644 10.5441 1.95876 12.0352C1.9468 12.0711 1.94963 12.09 1.95196 12.0999C1.955 12.1128 1.96399 12.1358 1.9902 12.1649C2.04707 12.2278 2.16213 12.2907 2.30965 12.2907H9.89662C10.0441 12.2907 10.1592 12.2278 10.2161 12.1649C10.2423 12.1358 10.2513 12.1128 10.2543 12.0999C10.2566 12.09 10.2595 12.0711 10.2475 12.0352C9.74984 10.5441 8.12729 9.36496 6.10314 9.36496ZM0.535916 11.5603C1.26596 9.37303 3.5267 7.86496 6.10314 7.86496C8.67957 7.86496 10.9403 9.37303 11.6704 11.5603C11.8753 12.1745 11.697 12.7632 11.3291 13.1704C10.9741 13.5633 10.4475 13.7907 9.89662 13.7907H2.30965C1.75881 13.7907 1.23217 13.5633 0.877192 13.1704C0.50927 12.7632 0.330944 12.1745 0.535916 11.5603ZM11.0864 8.68624C11.2247 8.29579 11.6533 8.09138 12.0438 8.22967C13.6552 8.80041 14.9465 10.0103 15.4639 11.5604C15.6688 12.1746 15.4905 12.7633 15.1225 13.1705C14.7675 13.5634 14.2409 13.7907 13.6901 13.7907H13.374C12.9598 13.7907 12.624 13.4549 12.624 13.0407C12.624 12.6265 12.9598 12.2907 13.374 12.2907H13.6901C13.8377 12.2907 13.9527 12.2278 14.0096 12.1648C14.0358 12.1358 14.0448 12.1129 14.0478 12.1C14.0502 12.09 14.053 12.0711 14.041 12.0353C13.6887 10.9795 12.7776 10.0809 11.543 9.6436C11.1525 9.50531 10.9481 9.07668 11.0864 8.68624Z" fill="#121212"/>
</svg>
