<svg width="16" height="16" viewBox="0 0 16 16" fill="none" xmlns="http://www.w3.org/2000/svg">
<path fill-rule="evenodd" clip-rule="evenodd" d="M8.00001 2.75C6.75736 2.75 5.75001 3.75736 5.75001 5C5.75001 6.24264 6.75736 7.25 8.00001 7.25C9.24265 7.25 10.25 6.24264 10.25 5C10.25 3.75736 9.24265 2.75 8.00001 2.75ZM4.25001 5C4.25001 2.92893 5.92894 1.25 8.00001 1.25C10.0711 1.25 11.75 2.92893 11.75 5C11.75 7.07107 10.0711 8.75 8.00001 8.75C5.92894 8.75 4.25001 7.07107 4.25001 5ZM5.33334 10.75C4.27479 10.75 3.41667 11.6081 3.41667 12.6667V13.3333C3.41667 13.7475 3.08089 14.0833 2.66667 14.0833C2.25246 14.0833 1.91667 13.7475 1.91667 13.3333V12.6667C1.91667 10.7797 3.44637 9.25 5.33334 9.25H10.6667C12.5536 9.25 14.0833 10.7797 14.0833 12.6667V13.3333C14.0833 13.7475 13.7476 14.0833 13.3333 14.0833C12.9191 14.0833 12.5833 13.7475 12.5833 13.3333V12.6667C12.5833 11.6081 11.7252 10.75 10.6667 10.75H5.33334Z" fill="#121212"/>
</svg>
