<svg width="17" height="16" viewBox="0 0 17 16" fill="none" xmlns="http://www.w3.org/2000/svg">
<path fill-rule="evenodd" clip-rule="evenodd" d="M8.59998 1.25C9.01419 1.25 9.34998 1.58579 9.34998 2V7.25H14.6C15.0142 7.25 15.35 7.58579 15.35 8C15.35 8.41421 15.0142 8.75 14.6 8.75H9.34998V14C9.34998 14.4142 9.01419 14.75 8.59998 14.75C8.18576 14.75 7.84998 14.4142 7.84998 14V8.75H2.59998C2.18576 8.75 1.84998 8.41421 1.84998 8C1.84998 7.58579 2.18576 7.25 2.59998 7.25H7.84998V2C7.84998 1.58579 8.18576 1.25 8.59998 1.25Z" fill="#121212"/>
</svg>
