<svg width="17" height="16" viewBox="0 0 17 16" fill="none" xmlns="http://www.w3.org/2000/svg">
<g clip-path="url(#clip0_145_1161)">
<path fill-rule="evenodd" clip-rule="evenodd" d="M1.38 2.99674C1.38 1.66206 2.46198 0.580078 3.79667 0.580078H5.46334C6.79803 0.580078 7.88001 1.66206 7.88001 2.99674V4.66341C7.88001 5.9981 6.79803 7.08008 5.46334 7.08008H3.79667C2.46198 7.08008 1.38 5.9981 1.38 4.66341V2.99674ZM3.79667 2.08008C3.29041 2.08008 2.88 2.49048 2.88 2.99674V4.66341C2.88 5.16967 3.29041 5.58008 3.79667 5.58008H5.46334C5.9696 5.58008 6.38 5.16967 6.38 4.66341V2.99674C6.38 2.49048 5.9696 2.08008 5.46334 2.08008H3.79667ZM9.71334 2.99674C9.71334 1.66206 10.7953 0.580078 12.13 0.580078H13.7967C15.1314 0.580078 16.2133 1.66206 16.2133 2.99674V4.66341C16.2133 5.9981 15.1314 7.08008 13.7967 7.08008H12.13C10.7953 7.08008 9.71334 5.9981 9.71334 4.66341V2.99674ZM12.13 2.08008C11.6237 2.08008 11.2133 2.49048 11.2133 2.99674V4.66341C11.2133 5.16967 11.6237 5.58008 12.13 5.58008H13.7967C14.3029 5.58008 14.7133 5.16967 14.7133 4.66341V2.99674C14.7133 2.49048 14.3029 2.08008 13.7967 2.08008H12.13ZM1.38 11.3301C1.38 9.99539 2.46198 8.91341 3.79667 8.91341H5.46334C6.79803 8.91341 7.88001 9.99539 7.88001 11.3301V12.9967C7.88001 14.3314 6.79803 15.4134 5.46334 15.4134H3.79667C2.46198 15.4134 1.38 14.3314 1.38 12.9967V11.3301ZM3.79667 10.4134C3.29041 10.4134 2.88 10.8238 2.88 11.3301V12.9967C2.88 13.503 3.29041 13.9134 3.79667 13.9134H5.46334C5.9696 13.9134 6.38 13.503 6.38 12.9967V11.3301C6.38 10.8238 5.9696 10.4134 5.46334 10.4134H3.79667ZM10.4633 8.91341C10.8776 8.91341 11.2133 9.2492 11.2133 9.66341V10.5801H12.13C12.5442 10.5801 12.88 10.9159 12.88 11.3301C12.88 11.7443 12.5442 12.0801 12.13 12.0801H10.4633C10.0491 12.0801 9.71334 11.7443 9.71334 11.3301V9.66341C9.71334 9.2492 10.0491 8.91341 10.4633 8.91341ZM13.0467 9.66341C13.0467 9.2492 13.3825 8.91341 13.7967 8.91341H15.4633C15.8776 8.91341 16.2133 9.2492 16.2133 9.66341C16.2133 10.0776 15.8776 10.4134 15.4633 10.4134H13.7967C13.3825 10.4134 13.0467 10.0776 13.0467 9.66341ZM13.0467 12.9967C13.0467 12.5825 13.3825 12.2467 13.7967 12.2467H15.4633C15.8776 12.2467 16.2133 12.5825 16.2133 12.9967C16.2133 13.411 15.8776 13.7467 15.4633 13.7467H14.5467V14.6634C14.5467 15.0776 14.2109 15.4134 13.7967 15.4134C13.3825 15.4134 13.0467 15.0776 13.0467 14.6634V12.9967ZM10.4633 13.9051C10.8776 13.9051 11.2133 14.2409 11.2133 14.6551V14.6634C11.2133 15.0776 10.8776 15.4134 10.4633 15.4134C10.0491 15.4134 9.71334 15.0776 9.71334 14.6634V14.6551C9.71334 14.2409 10.0491 13.9051 10.4633 13.9051Z" fill="#121212"/>
</g>
<defs>
<clipPath id="clip0_145_1161">
<rect width="16" height="16" fill="white" transform="translate(0.799988)"/>
</clipPath>
</defs>
</svg>
