<svg width="17" height="16" viewBox="0 0 17 16" fill="none" xmlns="http://www.w3.org/2000/svg">
<path fill-rule="evenodd" clip-rule="evenodd" d="M9.82266 13.9305C9.52977 13.6376 9.52977 13.1628 9.82266 12.8699L13.2731 9.41947C13.5659 9.12658 14.0408 9.12658 14.3337 9.41947C14.6266 9.71236 14.6266 10.1872 14.3337 10.4801L10.8833 13.9305C10.5904 14.2234 10.1156 14.2234 9.82266 13.9305Z" fill="#121212"/>
<path fill-rule="evenodd" clip-rule="evenodd" d="M6.06965 13.9305C5.77675 13.6376 5.77675 13.1628 6.06965 12.8699L13.2696 5.66987C13.5625 5.37697 14.0374 5.37697 14.3303 5.66987C14.6232 5.96276 14.6232 6.43763 14.3303 6.73053L7.13031 13.9305C6.83741 14.2234 6.36254 14.2234 6.06965 13.9305Z" fill="#121212"/>
</svg>
