<svg width="17" height="16" viewBox="0 0 17 16" fill="none" xmlns="http://www.w3.org/2000/svg">
<path fill-rule="evenodd" clip-rule="evenodd" d="M8.13331 3.4165C5.9702 3.4165 4.21664 5.17006 4.21664 7.33317C4.21664 9.49629 5.9702 11.2498 8.13331 11.2498C10.2964 11.2498 12.05 9.49629 12.05 7.33317C12.05 5.17006 10.2964 3.4165 8.13331 3.4165ZM2.71664 7.33317C2.71664 4.34163 5.14177 1.9165 8.13331 1.9165C11.1249 1.9165 13.55 4.34163 13.55 7.33317C13.55 8.55849 13.1431 9.68878 12.4571 10.5963L14.6636 12.8028C14.9565 13.0957 14.9565 13.5706 14.6636 13.8635C14.3707 14.1564 13.8959 14.1564 13.603 13.8635L11.3965 11.657C10.4889 12.343 9.35863 12.7498 8.13331 12.7498C5.14177 12.7498 2.71664 10.3247 2.71664 7.33317Z" fill="#121212"/>
</svg>
