<svg width="17" height="16" viewBox="0 0 17 16" fill="none" xmlns="http://www.w3.org/2000/svg">
<path fill-rule="evenodd" clip-rule="evenodd" d="M8.59998 2.75C5.70048 2.75 3.34998 5.10051 3.34998 8C3.34998 10.8995 5.70048 13.25 8.59998 13.25C11.4995 13.25 13.85 10.8995 13.85 8C13.85 5.10051 11.4995 2.75 8.59998 2.75ZM1.84998 8C1.84998 4.27208 4.87205 1.25 8.59998 1.25C12.3279 1.25 15.35 4.27208 15.35 8C15.35 11.7279 12.3279 14.75 8.59998 14.75C4.87205 14.75 1.84998 11.7279 1.84998 8ZM8.59998 4.58333C9.01419 4.58333 9.34998 4.91912 9.34998 5.33333V7.68934L10.797 9.13634C11.0899 9.42923 11.0899 9.9041 10.797 10.197C10.5041 10.4899 10.0292 10.4899 9.73631 10.197L8.06965 8.53033C7.92899 8.38968 7.84998 8.19891 7.84998 8V5.33333C7.84998 4.91912 8.18576 4.58333 8.59998 4.58333Z" fill="#121212"/>
</svg>
