<svg width="25" height="24" viewBox="0 0 25 24" fill="none" xmlns="http://www.w3.org/2000/svg">
<path fill-rule="evenodd" clip-rule="evenodd" d="M12.6 22C7.07713 22 2.59998 17.5228 2.59998 12C2.59998 6.47715 7.07713 2 12.6 2C18.1228 2 22.6 6.47715 22.6 12C22.6 17.5228 18.1228 22 12.6 22ZM11.6 13C11.6 13 11.6 13 11.6 13C11.6 13.55 12.1 14 12.6 14C13.1 14 13.6 13.5523 13.6 13V8C13.6 7.44772 13.1523 7 12.6 7C12.0477 7 11.6 7.44772 11.6 8C11.6 9.66667 11.6 13 11.6 13ZM12.6 17C12.0477 17 11.6 16.5523 11.6 16C11.6 15.4477 12.0477 15 12.6 15C13.1523 15 13.6 15.4477 13.6 16C13.6 16.5523 13.1523 17 12.6 17Z" fill="#121212"/>
</svg>
