<svg width="25" height="24" viewBox="0 0 25 24" fill="none" xmlns="http://www.w3.org/2000/svg">
<path fill-rule="evenodd" clip-rule="evenodd" d="M7.3999 2C5.74305 2 4.3999 3.34315 4.3999 5V19C4.3999 20.6569 5.74305 22 7.3999 22H12.6321C12.1643 21.1025 11.8999 20.0821 11.8999 19C11.8999 15.4101 14.8101 12.5 18.3999 12.5C19.0977 12.5 19.7698 12.61 20.3999 12.8135V5C20.3999 3.34315 19.0568 2 17.3999 2H7.3999ZM8.3999 7C8.3999 6.44772 8.84762 6 9.3999 6H15.3999C15.9522 6 16.3999 6.44772 16.3999 7C16.3999 7.55228 15.9522 8 15.3999 8H9.3999C8.84762 8 8.3999 7.55228 8.3999 7ZM8.3999 11C8.3999 10.4477 8.84762 10 9.3999 10H13.3999C13.9522 10 14.3999 10.4477 14.3999 11C14.3999 11.5523 13.9522 12 13.3999 12H9.3999C8.84762 12 8.3999 11.5523 8.3999 11Z" fill="#121212"/>
<path fill-rule="evenodd" clip-rule="evenodd" d="M18.3999 14C15.6385 14 13.3999 16.2386 13.3999 19C13.3999 21.7614 15.6385 24 18.3999 24C21.1613 24 23.3999 21.7614 23.3999 19C23.3999 16.2386 21.1613 14 18.3999 14ZM17.3999 18.5C17.3999 18.2239 17.6238 18 17.8999 18H18.3999C18.676 18 18.8999 18.2239 18.8999 18.5V21C18.8999 21.2761 18.676 21.5 18.3999 21.5C18.1238 21.5 17.8999 21.2761 17.8999 21V19C17.6238 19 17.3999 18.7761 17.3999 18.5ZM18.3999 16.5C18.1238 16.5 17.8999 16.7239 17.8999 17C17.8999 17.2761 18.1238 17.5 18.3999 17.5C18.676 17.5 18.8999 17.2761 18.8999 17C18.8999 16.7239 18.676 16.5 18.3999 16.5Z" fill="#121212"/>
</svg>
