<svg width="24" height="24" viewBox="0 0 24 24" fill="none" xmlns="http://www.w3.org/2000/svg">
<path d="M8.20333 3.4502C6.10464 3.4502 4.40333 5.15151 4.40333 7.2502C4.40333 9.34888 6.10464 11.0502 8.20333 11.0502C10.302 11.0502 12.0033 9.34888 12.0033 7.2502C12.0033 5.15151 10.302 3.4502 8.20333 3.4502Z" fill="#121212"/>
<path d="M16.7533 4.4002C14.917 4.4002 13.4283 5.88885 13.4283 7.7252C13.4283 9.56154 14.917 11.0502 16.7533 11.0502C18.5897 11.0502 20.0783 9.56154 20.0783 7.7252C20.0783 5.88885 18.5897 4.4002 16.7533 4.4002Z" fill="#121212"/>
<path d="M8.2032 12.0002C11.2229 12.0002 14.0362 14.2931 14.7217 18.4283C14.9172 19.6071 13.963 20.5502 12.8839 20.5502H3.52252C2.44344 20.5502 1.48925 19.6071 1.68467 18.4283C2.37024 14.2931 5.18347 12.0002 8.2032 12.0002Z" fill="#121212"/>
<path d="M14.0876 12.7331C15.3362 14.0933 16.2333 15.929 16.5962 18.1176C16.6834 18.6435 16.661 19.1417 16.5514 19.6002H20.6194C21.6926 19.6002 22.665 18.6566 22.4462 17.4633C21.8046 13.9632 19.376 12.0002 16.753 12.0002C15.8154 12.0002 14.9027 12.251 14.0876 12.7331Z" fill="#121212"/>
</svg>
