<svg width="24" height="24" viewBox="0 0 24 24" fill="none" xmlns="http://www.w3.org/2000/svg">
<path fill-rule="evenodd" clip-rule="evenodd" d="M9.91902 1.05865C11.1314 0.0735492 12.8685 0.0735501 14.0809 1.05865L20.6809 6.42115C21.4522 7.04778 21.9 7.9886 21.9 8.98232V18.6602C21.9 20.4827 20.4225 21.9602 18.6 21.9602H5.39998C3.57744 21.9602 2.09998 20.4827 2.09998 18.6602V8.98232C2.09998 7.9886 2.54778 7.04778 3.31902 6.42115L9.91902 1.05865ZM7.59998 15.3602C6.99246 15.3602 6.49998 15.8526 6.49998 16.4602C6.49998 17.0677 6.99246 17.5602 7.59998 17.5602H16.4C17.0075 17.5602 17.5 17.0677 17.5 16.4602C17.5 15.8526 17.0075 15.3602 16.4 15.3602H7.59998Z" fill="#121212"/>
</svg>
