<svg width="25" height="24" viewBox="0 0 25 24" fill="none" xmlns="http://www.w3.org/2000/svg">
<path d="M12.3999 4.21173C14.9364 4.21173 15.2369 4.22123 16.2388 4.267C16.841 4.27427 17.4376 4.38499 18.0023 4.59432C18.415 4.74662 18.7883 4.9895 19.0948 5.30509C19.4104 5.61156 19.6533 5.98488 19.8056 6.39759C20.0149 6.96235 20.1256 7.55888 20.1329 8.16114C20.1787 9.16295 20.1882 9.4635 20.1882 12C20.1882 14.5365 20.1787 14.837 20.1329 15.8389C20.1256 16.4411 20.0149 17.0377 19.8056 17.6024C19.6475 18.0122 19.4054 18.3844 19.0948 18.6949C18.7843 19.0055 18.4121 19.2476 18.0023 19.4057C17.4376 19.615 16.841 19.7257 16.2388 19.733C15.2369 19.7788 14.9364 19.7883 12.3999 19.7883C9.8634 19.7883 9.56286 19.7788 8.56104 19.733C7.95849 19.7258 7.36166 19.6151 6.79663 19.4057C6.38423 19.2533 6.01122 19.0104 5.70499 18.6949C5.3894 18.3884 5.14652 18.0151 4.99422 17.6024C4.78489 17.0377 4.67418 16.4411 4.6669 15.8389C4.62113 14.837 4.61163 14.5365 4.61163 12C4.61163 9.4635 4.62113 9.16295 4.6669 8.16114C4.67418 7.55888 4.78489 6.96235 4.99422 6.39759C5.14652 5.98488 5.3894 5.61156 5.70499 5.30509C6.01147 4.9895 6.38479 4.74662 6.79749 4.59432C7.36225 4.38499 7.95878 4.27427 8.56104 4.267C9.56286 4.22123 9.8634 4.21173 12.3999 4.21173ZM12.3999 2.5C9.82022 2.5 9.49636 2.51123 8.48331 2.557C7.69526 2.57272 6.91557 2.72194 6.1774 2.99832C5.5432 3.2371 4.96876 3.61141 4.49418 4.09514C4.01087 4.56956 3.63686 5.14369 3.39822 5.7775C3.12214 6.51572 2.97321 7.2954 2.95777 8.08341C2.91027 9.09645 2.8999 9.42032 2.8999 12C2.8999 14.5797 2.91113 14.9035 2.9569 15.9166C2.97262 16.7046 3.12184 17.4843 3.39822 18.2225C3.637 18.8567 4.01131 19.4311 4.49504 19.9057C4.96946 20.389 5.54359 20.763 6.1774 21.0017C6.91562 21.2778 7.69531 21.4267 8.48331 21.4421C9.49636 21.4896 9.82022 21.5 12.3999 21.5C14.9796 21.5 15.3034 21.4888 16.3165 21.443C17.1045 21.4273 17.8842 21.2781 18.6224 21.0017C19.2537 20.7576 19.827 20.3843 20.3056 19.9057C20.7842 19.4271 21.1575 18.8538 21.4016 18.2225C21.6777 17.4843 21.8266 16.7046 21.842 15.9166C21.8895 14.9035 21.8999 14.5797 21.8999 12C21.8999 9.42032 21.8887 9.09645 21.8429 8.08341C21.8272 7.29535 21.678 6.51567 21.4016 5.7775C21.1628 5.1433 20.7885 4.56886 20.3048 4.09427C19.8303 3.61096 19.2562 3.23695 18.6224 2.99832C17.8842 2.72224 17.1045 2.57331 16.3165 2.55786C15.3034 2.51036 14.9796 2.5 12.3999 2.5ZM12.3999 7.12132C11.435 7.12132 10.4917 7.40745 9.68945 7.94352C8.88716 8.4796 8.26184 9.24155 7.89259 10.133C7.52333 11.0245 7.42672 12.0054 7.61496 12.9518C7.80321 13.8982 8.26786 14.7675 8.95015 15.4497C9.63245 16.132 10.5017 16.5967 11.4481 16.7849C12.3945 16.9732 13.3754 16.8766 14.2669 16.5073C15.1584 16.1381 15.9203 15.5127 16.4564 14.7105C16.9925 13.9082 17.2786 12.9649 17.2786 12C17.2786 10.7061 16.7646 9.46518 15.8497 8.55025C14.9347 7.63532 13.6938 7.12132 12.3999 7.12132ZM12.3999 15.167C11.7735 15.167 11.1612 14.9812 10.6404 14.6332C10.1196 14.2852 9.71372 13.7906 9.47402 13.2119C9.23432 12.6333 9.1716 11.9965 9.2938 11.3822C9.416 10.7678 9.71762 10.2035 10.1605 9.76063C10.6034 9.31772 11.1677 9.0161 11.7821 8.8939C12.3964 8.7717 13.0332 8.83442 13.6118 9.07412C14.1905 9.31382 14.6851 9.71973 15.0331 10.2405C15.3811 10.7613 15.5669 11.3736 15.5669 12C15.5669 12.8399 15.2332 13.6455 14.6393 14.2394C14.0454 14.8333 13.2398 15.167 12.3999 15.167ZM17.4712 5.78873C17.2457 5.78873 17.0253 5.85559 16.8378 5.98085C16.6504 6.10612 16.5042 6.28416 16.418 6.49247C16.3317 6.70078 16.3091 6.92999 16.3531 7.15113C16.3971 7.37227 16.5056 7.5754 16.6651 7.73483C16.8245 7.89426 17.0276 8.00284 17.2488 8.04682C17.4699 8.09081 17.6991 8.06823 17.9074 7.98195C18.1157 7.89567 18.2938 7.74955 18.4191 7.56208C18.5443 7.37461 18.6112 7.1542 18.6112 6.92873C18.6112 6.62638 18.4911 6.33642 18.2773 6.12263C18.0635 5.90883 17.7735 5.78873 17.4712 5.78873Z" fill="#121212"/>
</svg>
