<svg width="25" height="24" viewBox="0 0 25 24" fill="none" xmlns="http://www.w3.org/2000/svg">
<path fill-rule="evenodd" clip-rule="evenodd" d="M4.79999 10C4.79999 5.58172 8.38171 2 12.8 2C17.2183 2 20.8 5.58172 20.8 10C20.8 12.4742 19.7059 14.7588 18.4306 16.5941C17.1478 18.4403 15.6159 19.9262 14.5922 20.8238C13.5584 21.7302 12.0416 21.7302 11.0078 20.8238C9.98406 19.9262 8.45217 18.4403 7.16934 16.5941C5.89412 14.7588 4.79999 12.4742 4.79999 10ZM12.7978 12.5C14.1785 12.5 15.2978 11.3807 15.2978 10C15.2978 8.61929 14.1785 7.5 12.7978 7.5C11.4171 7.5 10.2978 8.61929 10.2978 10C10.2978 11.3807 11.4171 12.5 12.7978 12.5Z" fill="#121212"/>
</svg>
