<svg width="24" height="24" viewBox="0 0 24 24" fill="none" xmlns="http://www.w3.org/2000/svg">
<path fill-rule="evenodd" clip-rule="evenodd" d="M4 5C4 3.34315 5.34315 2 7 2H17C18.6569 2 20 3.34315 20 5V12.7639C19.4692 12.2889 18.7684 12 18 12C16.3431 12 15 13.3431 15 15C13.3431 15 12 16.3431 12 18C12 19.6569 13.3431 21 15 21C15 21.3506 15.0602 21.6872 15.1707 22H7C5.34315 22 4 20.6569 4 19V5ZM8 5C7.44772 5 7 5.44772 7 6C7 6.55228 7.44772 7 8 7H14C14.5523 7 15 6.55228 15 6C15 5.44772 14.5523 5 14 5H8ZM8 9C7.44772 9 7 9.44772 7 10C7 10.5523 7.44772 11 8 11H10C10.5523 11 11 10.5523 11 10C11 9.44772 10.5523 9 10 9H8Z" fill="#121212"/>
<path fill-rule="evenodd" clip-rule="evenodd" d="M18 14.1C18.4971 14.1 18.9 14.5029 18.9 15V17.8272L19.3636 17.3636C19.7151 17.0121 20.2849 17.0121 20.6364 17.3636C20.9879 17.7151 20.9879 18.2849 20.6364 18.6364L18.6364 20.6364C18.2849 20.9879 17.7151 20.9879 17.3636 20.6364L15.3636 18.6364C15.0121 18.2849 15.0121 17.7151 15.3636 17.3636C15.7151 17.0121 16.2849 17.0121 16.6364 17.3636L17.1 17.8272V15C17.1 14.5029 17.5029 14.1 18 14.1Z" fill="#121212"/>
</svg>
