<svg width="25" height="24" viewBox="0 0 25 24" fill="none" xmlns="http://www.w3.org/2000/svg">
<path d="M5.53662 3C4.5932 3 3.77163 3.76598 3.81744 4.76901C3.94152 7.48588 4.71632 10.1597 6.08536 12.5194C7.57406 15.0853 9.7144 17.2256 12.2803 18.7143C14.662 20.0961 17.302 20.8246 20.0094 20.9719C21.0175 21.0267 21.7997 20.2049 21.7997 19.25V15.7482C21.7997 14.9719 21.2883 14.2884 20.5435 14.0693L17.5942 13.2019C16.9675 13.0176 16.2903 13.1976 15.8379 13.6689L14.9605 14.5828C14.8777 14.6691 14.7749 14.6689 14.7156 14.6348C12.8242 13.5503 11.2494 11.9755 10.1649 10.0841C10.1308 10.0248 10.1306 9.92199 10.2169 9.83917L11.1308 8.96176C11.6021 8.50939 11.7821 7.83222 11.5978 7.20555L10.7304 4.25621C10.5113 3.51144 9.82778 3 9.05146 3H5.53662Z" fill="#121212"/>
</svg>
