<svg width="21" height="20" viewBox="0 0 21 20" fill="none" xmlns="http://www.w3.org/2000/svg">
<path fill-rule="evenodd" clip-rule="evenodd" d="M9.66366 4.46967C9.95655 4.76256 9.95655 5.23744 9.66366 5.53033L5.944 9.24998H17.4667C17.8809 9.24998 18.2167 9.58577 18.2167 9.99998C18.2167 10.4142 17.8809 10.75 17.4667 10.75H5.94399L9.66366 14.4697C9.95655 14.7626 9.95655 15.2374 9.66366 15.5303C9.37077 15.8232 8.89589 15.8232 8.603 15.5303L3.603 10.5303C3.46235 10.3897 3.38333 10.1989 3.38333 9.99998C3.38333 9.80107 3.46235 9.61031 3.603 9.46965L8.603 4.46967C8.8959 4.17678 9.37077 4.17678 9.66366 4.46967Z" fill="#121212"/>
</svg>
