<svg width="20" height="20" viewBox="0 0 20 20" fill="none" xmlns="http://www.w3.org/2000/svg">
<path fill-rule="evenodd" clip-rule="evenodd" d="M7.69444 6.11111C7.69444 3.97868 9.42312 2.25 11.5556 2.25C13.688 2.25 15.4167 3.97868 15.4167 6.11111V12.3333C15.4167 15.3249 12.9915 17.75 9.99999 17.75C7.00845 17.75 4.58333 15.3249 4.58333 12.3333V9.22222C4.58333 8.80801 4.91911 8.47222 5.33333 8.47222C5.74754 8.47222 6.08333 8.80801 6.08333 9.22222V12.3333C6.08333 14.4964 7.83688 16.25 9.99999 16.25C12.1631 16.25 13.9167 14.4964 13.9167 12.3333V6.11111C13.9167 4.80711 12.8596 3.75 11.5556 3.75C10.2515 3.75 9.19444 4.80711 9.19444 6.11111V12.3333C9.19444 12.7782 9.5551 13.1389 9.99999 13.1389C10.4449 13.1389 10.8056 12.7782 10.8056 12.3333V6.11111C10.8056 5.6969 11.1413 5.36111 11.5556 5.36111C11.9698 5.36111 12.3056 5.6969 12.3056 6.11111V12.3333C12.3056 13.6067 11.2733 14.6389 9.99999 14.6389C8.72667 14.6389 7.69444 13.6067 7.69444 12.3333V6.11111Z" fill="#121212"/>
</svg>
