<svg width="21" height="20" viewBox="0 0 21 20" fill="none" xmlns="http://www.w3.org/2000/svg">
<path d="M2.54965 14.1668V12.5002C2.54965 12.0859 2.88576 11.7498 3.29998 11.7498C3.71419 11.7498 4.0503 12.0859 4.0503 12.5002V14.1668C4.0503 14.6731 4.46038 15.0832 4.96664 15.0832H6.63331L6.70981 15.0872C7.08809 15.1256 7.38364 15.4451 7.38364 15.8335C7.38364 16.2219 7.08809 16.5414 6.70981 16.5798L6.63331 16.5838H4.96664C3.63196 16.5838 2.54965 15.5015 2.54965 14.1668ZM17.5497 14.1668V12.5002C17.5497 12.0859 17.8858 11.7498 18.3 11.7498C18.7142 11.7498 19.0503 12.0859 19.0503 12.5002V14.1668C19.0503 15.5015 17.968 16.5838 16.6333 16.5838H14.9666C14.5524 16.5838 14.2163 16.2477 14.2163 15.8335C14.2163 15.4193 14.5524 15.0832 14.9666 15.0832H16.6333C17.1396 15.0832 17.5497 14.6731 17.5497 14.1668ZM6.71632 11.6668V8.3335C6.71632 7.91928 7.05243 7.58317 7.46664 7.58317C7.88086 7.58317 8.21697 7.91928 8.21697 8.3335V11.6668C8.21697 12.081 7.88086 12.4172 7.46664 12.4172C7.05243 12.4172 6.71632 12.081 6.71632 11.6668ZM13.383 11.6668V8.3335C13.383 7.91928 13.7191 7.58317 14.1333 7.58317C14.5475 7.58317 14.8836 7.91928 14.8836 8.3335V11.6668C14.8836 12.081 14.5475 12.4172 14.1333 12.4172C13.7191 12.4172 13.383 12.081 13.383 11.6668ZM10.0497 10.0002V8.3335C10.0497 7.91928 10.3858 7.58317 10.8 7.58317C11.2142 7.58317 11.5503 7.91928 11.5503 8.3335V10.0002C11.5503 10.4144 11.2142 10.7505 10.8 10.7505C10.3858 10.7505 10.0497 10.4144 10.0497 10.0002ZM2.54965 7.50016V5.8335C2.54965 4.49881 3.63196 3.4165 4.96664 3.4165H6.63331C7.04752 3.4165 7.38364 3.75262 7.38364 4.16683C7.38364 4.58104 7.04752 4.91715 6.63331 4.91715H4.96664C4.46038 4.91715 4.0503 5.32724 4.0503 5.8335V7.50016C4.0503 7.91438 3.71419 8.25049 3.29998 8.25049C2.88576 8.25049 2.54965 7.91438 2.54965 7.50016ZM17.5497 7.50016V5.8335C17.5497 5.32724 17.1396 4.91715 16.6333 4.91715H14.9666C14.5524 4.91715 14.2163 4.58104 14.2163 4.16683C14.2163 3.75262 14.5524 3.4165 14.9666 3.4165H16.6333C17.968 3.4165 19.0503 4.49881 19.0503 5.8335V7.50016C19.0503 7.91438 18.7142 8.25049 18.3 8.25049C17.8858 8.25049 17.5497 7.91438 17.5497 7.50016Z" fill="#121212"/>
</svg>
