<svg width="20" height="20" viewBox="0 0 20 20" fill="none" xmlns="http://www.w3.org/2000/svg">
<path fill-rule="evenodd" clip-rule="evenodd" d="M15.0018 4.0835L5.00184 4.08351C4.49558 4.08351 4.08517 4.49392 4.08517 5.00018V13.3633C4.08517 13.8696 4.49558 14.28 5.00184 14.28H7.20986C7.58183 14.28 7.94193 14.4109 8.227 14.6499L10.0011 16.137L11.8032 14.644C12.0872 14.4087 12.4444 14.28 12.8133 14.28L15.0018 14.28C15.5081 14.28 15.9185 13.8695 15.9185 13.3633V5.00016C15.9185 4.4939 15.5081 4.0835 15.0018 4.0835ZM5.00184 2.58351L15.0018 2.5835C16.3365 2.58349 17.4185 3.66547 17.4185 5.00016V13.3633C17.4185 14.698 16.3365 15.78 15.0019 15.78L12.8133 15.78C12.7939 15.78 12.7751 15.7867 12.7601 15.7991L10.4768 17.6908C10.198 17.9218 9.79395 17.9207 9.51648 17.6881L7.26339 15.7994C7.24839 15.7869 7.22943 15.78 7.20986 15.78H5.00184C3.66715 15.78 2.58517 14.698 2.58517 13.3633V5.00018C2.58517 3.6655 3.66715 2.58352 5.00184 2.58351Z" fill="#121212"/>
<path fill-rule="evenodd" clip-rule="evenodd" d="M10.0279 6.94513C9.78173 6.94513 9.56597 7.07816 9.44977 7.27903C9.28846 7.5579 8.93161 7.6532 8.65274 7.49188C8.37388 7.33056 8.27858 6.97372 8.4399 6.69485C8.75606 6.1483 9.34843 5.77846 10.0279 5.77846C11.0406 5.77846 11.8615 6.59941 11.8615 7.61209C11.8615 8.02507 11.7509 8.35872 11.5452 8.62621C11.3545 8.87404 11.1107 9.02297 10.9558 9.11705C10.7705 9.22959 10.7027 9.2716 10.6557 9.32348L10.6546 9.32466C10.6384 9.34258 10.6112 9.3725 10.6112 9.48755C10.6112 9.80971 10.35 10.0709 10.0279 10.0709C9.7057 10.0709 9.44453 9.80971 9.44453 9.48755C9.44453 9.09277 9.57243 8.78178 9.79074 8.54059C9.96004 8.35354 10.1761 8.2242 10.3101 8.14398C10.3245 8.13537 10.3379 8.12732 10.3502 8.11983C10.5079 8.0241 10.5767 7.97179 10.6204 7.91487C10.6491 7.87759 10.6948 7.80298 10.6948 7.61209C10.6948 7.24374 10.3962 6.94513 10.0279 6.94513Z" fill="#121212"/>
<path fill-rule="evenodd" clip-rule="evenodd" d="M9.20834 11.6252C9.20834 11.2109 9.54413 10.8752 9.95834 10.8752C10.3726 10.8752 10.7083 11.2109 10.7083 11.6252C10.7083 12.0394 10.3726 12.3752 9.95834 12.3752C9.54413 12.3752 9.20834 12.0394 9.20834 11.6252Z" fill="#121212"/>
</svg>
