<svg width="21" height="20" viewBox="0 0 21 20" fill="none" xmlns="http://www.w3.org/2000/svg">
<path fill-rule="evenodd" clip-rule="evenodd" d="M5.39994 4.9165C4.89368 4.9165 4.48328 5.32691 4.48328 5.83317C4.48328 6.33943 4.89368 6.74984 5.39994 6.74984C5.9062 6.74984 6.31661 6.33943 6.31661 5.83317C6.31661 5.32691 5.9062 4.9165 5.39994 4.9165ZM2.98328 5.83317C2.98328 4.49848 4.06526 3.4165 5.39994 3.4165C6.73463 3.4165 7.81661 4.49848 7.81661 5.83317C7.81661 7.16786 6.73463 8.24984 5.39994 8.24984C4.06526 8.24984 2.98328 7.16786 2.98328 5.83317ZM10.4833 5.83317C10.4833 5.41896 10.8191 5.08317 11.2333 5.08317H17.0666C17.4808 5.08317 17.8166 5.41896 17.8166 5.83317C17.8166 6.24738 17.4808 6.58317 17.0666 6.58317H11.2333C10.8191 6.58317 10.4833 6.24738 10.4833 5.83317ZM5.39994 13.2498C4.89368 13.2498 4.48328 13.6602 4.48328 14.1665C4.48328 14.6728 4.89368 15.0832 5.39994 15.0832C5.9062 15.0832 6.31661 14.6728 6.31661 14.1665C6.31661 13.6602 5.9062 13.2498 5.39994 13.2498ZM2.98328 14.1665C2.98328 12.8318 4.06526 11.7498 5.39994 11.7498C6.73463 11.7498 7.81661 12.8318 7.81661 14.1665C7.81661 15.5012 6.73463 16.5832 5.39994 16.5832C4.06526 16.5832 2.98328 15.5012 2.98328 14.1665ZM10.4833 14.1665C10.4833 13.7523 10.8191 13.4165 11.2333 13.4165H17.0666C17.4808 13.4165 17.8166 13.7523 17.8166 14.1665C17.8166 14.5807 17.4808 14.9165 17.0666 14.9165H11.2333C10.8191 14.9165 10.4833 14.5807 10.4833 14.1665Z" fill="#121212"/>
</svg>
