<svg width="21" height="20" viewBox="0 0 21 20" fill="none" xmlns="http://www.w3.org/2000/svg">
<path fill-rule="evenodd" clip-rule="evenodd" d="M9.13332 3.25C8.62706 3.25 8.21665 3.66041 8.21665 4.16667V5.08333H13.3833V4.16667C13.3833 3.66041 12.9729 3.25 12.4667 3.25H9.13332ZM14.8833 5.08333V4.16667C14.8833 2.83198 13.8013 1.75 12.4667 1.75H9.13332C7.79863 1.75 6.71665 2.83198 6.71665 4.16667V5.08333H4.96665C3.63197 5.08333 2.54999 6.16531 2.54999 7.5V15C2.54999 16.3347 3.63197 17.4167 4.96665 17.4167H16.6333C17.968 17.4167 19.05 16.3347 19.05 15V7.5C19.05 6.16531 17.968 5.08333 16.6333 5.08333H14.8833ZM4.96665 6.58333C4.46039 6.58333 4.04999 6.99374 4.04999 7.5V15C4.04999 15.5063 4.46039 15.9167 4.96665 15.9167H16.6333C17.1396 15.9167 17.55 15.5063 17.55 15V7.5C17.55 6.99374 17.1396 6.58333 16.6333 6.58333H4.96665Z" fill="#121212"/>
</svg>
