<svg width="21" height="20" viewBox="0 0 21 20" fill="none" xmlns="http://www.w3.org/2000/svg">
<path fill-rule="evenodd" clip-rule="evenodd" d="M3.73328 4.08341C3.73328 2.74873 4.81526 1.66675 6.14994 1.66675H14.4833C15.818 1.66675 16.8999 2.74873 16.8999 4.08341V15.7501C16.8999 17.0848 15.818 18.1667 14.4833 18.1667H6.14994C4.81525 18.1667 3.73328 17.0848 3.73328 15.7501V4.08341ZM6.14994 3.16675C5.64368 3.16675 5.23328 3.57715 5.23328 4.08341V5.83342H15.3999V4.08341C15.3999 3.57715 14.9895 3.16675 14.4833 3.16675H6.14994ZM15.3999 7.33342H5.23328V15.7501C5.23328 16.2563 5.64368 16.6667 6.14994 16.6667H14.4833C14.9895 16.6667 15.3999 16.2563 15.3999 15.7501V7.33342Z" fill="#121212"/>
<path d="M8.94161 10.2084C8.94161 10.4385 8.75506 10.6251 8.52494 10.6251C8.29482 10.6251 8.10828 10.4385 8.10828 10.2084C8.10828 9.9783 8.29482 9.79175 8.52494 9.79175C8.75506 9.79175 8.94161 9.9783 8.94161 10.2084Z" fill="#121212"/>
<path d="M8.94161 13.9584C8.94161 14.1885 8.75506 14.3751 8.52494 14.3751C8.29482 14.3751 8.10828 14.1885 8.10828 13.9584C8.10828 13.7283 8.29482 13.5417 8.52494 13.5417C8.75506 13.5417 8.94161 13.7283 8.94161 13.9584Z" fill="#121212"/>
<path d="M12.6916 10.2084C12.6916 10.4385 12.5051 10.6251 12.2749 10.6251C12.0448 10.6251 11.8583 10.4385 11.8583 10.2084C11.8583 9.9783 12.0448 9.79175 12.2749 9.79175C12.5051 9.79175 12.6916 9.9783 12.6916 10.2084Z" fill="#121212"/>
<path d="M12.6916 13.9584C12.6916 14.1885 12.5051 14.3751 12.2749 14.3751C12.0448 14.3751 11.8583 14.1885 11.8583 13.9584C11.8583 13.7283 12.0448 13.5417 12.2749 13.5417C12.5051 13.5417 12.6916 13.7283 12.6916 13.9584Z" fill="#121212"/>
<path fill-rule="evenodd" clip-rule="evenodd" d="M9.56661 10.2084C9.56661 10.7837 9.10024 11.2501 8.52494 11.2501C7.94965 11.2501 7.48328 10.7837 7.48328 10.2084C7.48328 9.63312 7.94965 9.16675 8.52494 9.16675C9.10024 9.16675 9.56661 9.63312 9.56661 10.2084ZM9.56661 13.9584C9.56661 14.5337 9.10024 15.0001 8.52494 15.0001C7.94965 15.0001 7.48328 14.5337 7.48328 13.9584C7.48328 13.3831 7.94965 12.9167 8.52494 12.9167C9.10024 12.9167 9.56661 13.3831 9.56661 13.9584ZM13.3166 10.2084C13.3166 10.7837 12.8502 11.2501 12.2749 11.2501C11.6996 11.2501 11.2333 10.7837 11.2333 10.2084C11.2333 9.63312 11.6996 9.16675 12.2749 9.16675C12.8502 9.16675 13.3166 9.63312 13.3166 10.2084ZM13.3166 13.9584C13.3166 14.5337 12.8502 15.0001 12.2749 15.0001C11.6996 15.0001 11.2333 14.5337 11.2333 13.9584C11.2333 13.3831 11.6996 12.9167 12.2749 12.9167C12.8502 12.9167 13.3166 13.3831 13.3166 13.9584ZM8.52494 10.6251C8.75506 10.6251 8.94161 10.4385 8.94161 10.2084C8.94161 9.9783 8.75506 9.79175 8.52494 9.79175C8.29482 9.79175 8.10828 9.9783 8.10828 10.2084C8.10828 10.4385 8.29482 10.6251 8.52494 10.6251ZM8.52494 14.3751C8.75506 14.3751 8.94161 14.1885 8.94161 13.9584C8.94161 13.7283 8.75506 13.5417 8.52494 13.5417C8.29482 13.5417 8.10828 13.7283 8.10828 13.9584C8.10828 14.1885 8.29482 14.3751 8.52494 14.3751ZM12.6916 10.2084C12.6916 10.4385 12.5051 10.6251 12.2749 10.6251C12.0448 10.6251 11.8583 10.4385 11.8583 10.2084C11.8583 9.9783 12.0448 9.79175 12.2749 9.79175C12.5051 9.79175 12.6916 9.9783 12.6916 10.2084ZM12.2749 14.3751C12.5051 14.3751 12.6916 14.1885 12.6916 13.9584C12.6916 13.7283 12.5051 13.5417 12.2749 13.5417C12.0448 13.5417 11.8583 13.7283 11.8583 13.9584C11.8583 14.1885 12.0448 14.3751 12.2749 14.3751Z" fill="#121212"/>
</svg>
