<svg width="21" height="20" viewBox="0 0 21 20" fill="none" xmlns="http://www.w3.org/2000/svg">
<path fill-rule="evenodd" clip-rule="evenodd" d="M7.46663 1.75C7.88085 1.75 8.21663 2.08579 8.21663 2.5V3.41667H13.3833V2.5C13.3833 2.08579 13.7191 1.75 14.1333 1.75C14.5475 1.75 14.8833 2.08579 14.8833 2.5V3.41667H15.8C17.1347 3.41667 18.2166 4.49865 18.2166 5.83333V9.16667C18.2166 9.58088 17.8808 9.91667 17.4666 9.91667C17.0524 9.91667 16.7166 9.58088 16.7166 9.16667V8.25H4.8833V15C4.8833 15.5063 5.29371 15.9167 5.79997 15.9167H9.96663C10.3808 15.9167 10.7166 16.2525 10.7166 16.6667C10.7166 17.0809 10.3808 17.4167 9.96663 17.4167H5.79997C4.46528 17.4167 3.3833 16.3347 3.3833 15V5.83333C3.3833 4.49865 4.46528 3.41667 5.79997 3.41667H6.71663V2.5C6.71663 2.08579 7.05242 1.75 7.46663 1.75ZM5.79997 4.91667C5.29371 4.91667 4.8833 5.32707 4.8833 5.83333V6.75H16.7166V5.83333C16.7166 5.32707 16.3062 4.91667 15.8 4.91667H5.79997ZM13.603 13.8637C13.3101 13.5708 13.3101 13.0959 13.6029 12.803C13.8958 12.5101 14.3707 12.5101 14.6636 12.803L15.8001 13.9393L16.9363 12.803C17.2292 12.5101 17.704 12.5101 17.9969 12.803C18.2898 13.0958 18.2899 13.5707 17.997 13.8636L16.8608 15L17.997 16.1364C18.2899 16.4293 18.2898 16.9042 17.9969 17.197C17.704 17.4899 17.2291 17.4899 16.9363 17.197L15.8001 16.0607L14.6636 17.197C14.3707 17.4899 13.8958 17.4899 13.6029 17.197C13.3101 16.9041 13.3101 16.4292 13.603 16.1363L14.7394 15L13.603 13.8637Z" fill="#121212"/>
</svg>
