<svg width="21" height="20" viewBox="0 0 21 20" fill="none" xmlns="http://www.w3.org/2000/svg">
<path fill-rule="evenodd" clip-rule="evenodd" d="M7.26662 1.75C7.68084 1.75 8.01662 2.08579 8.01662 2.5V3.41667H13.1833V2.5C13.1833 2.08579 13.5191 1.75 13.9333 1.75C14.3475 1.75 14.6833 2.08579 14.6833 2.5V3.41667H15.6C16.9346 3.41667 18.0166 4.49865 18.0166 5.83333V15C18.0166 16.3347 16.9346 17.4167 15.6 17.4167H5.59996C4.26527 17.4167 3.18329 16.3347 3.18329 15V5.83333C3.18329 4.49865 4.26527 3.41667 5.59996 3.41667H6.51662V2.5C6.51662 2.08579 6.85241 1.75 7.26662 1.75ZM5.59996 4.91667C5.09369 4.91667 4.68329 5.32707 4.68329 5.83333V7.58333H16.5166V5.83333C16.5166 5.32707 16.1062 4.91667 15.6 4.91667H5.59996ZM16.5166 9.08333H4.68329V15C4.68329 15.5063 5.09369 15.9167 5.59996 15.9167H15.6C16.1062 15.9167 16.5166 15.5063 16.5166 15V9.08333Z" fill="#121212"/>
</svg>
