<svg width="21" height="20" viewBox="0 0 21 20" fill="none" xmlns="http://www.w3.org/2000/svg">
<path fill-rule="evenodd" clip-rule="evenodd" d="M7.26662 1.75C7.68084 1.75 8.01662 2.08579 8.01662 2.5V3.41667H13.1833V2.5C13.1833 2.08579 13.5191 1.75 13.9333 1.75C14.3475 1.75 14.6833 2.08579 14.6833 2.5V3.41667H15.6C16.9346 3.41667 18.0166 4.49865 18.0166 5.83333V8.33333C18.0166 8.74755 17.6808 9.08333 17.2666 9.08333C16.8524 9.08333 16.5166 8.74755 16.5166 8.33333V8.25H4.68329V15C4.68329 15.5063 5.09369 15.9167 5.59996 15.9167H9.76662C10.1808 15.9167 10.5166 16.2525 10.5166 16.6667C10.5166 17.0809 10.1808 17.4167 9.76662 17.4167H5.59996C4.26527 17.4167 3.18329 16.3347 3.18329 15V5.83333C3.18329 4.49865 4.26527 3.41667 5.59996 3.41667H6.51662V2.5C6.51662 2.08579 6.85241 1.75 7.26662 1.75ZM5.59996 4.91667C5.09369 4.91667 4.68329 5.32707 4.68329 5.83333V6.75H16.5166V5.83333C16.5166 5.32707 16.1062 4.91667 15.6 4.91667H5.59996ZM16.9636 13.0303L14.1184 15.8755C13.9465 16.0474 13.85 16.2806 13.85 16.5237V16.75H14.0763C14.3194 16.75 14.5525 16.6534 14.7244 16.4815L17.5696 13.6363C17.737 13.469 17.737 13.1977 17.5696 13.0303C17.4023 12.863 17.131 12.863 16.9636 13.0303ZM15.903 11.9697C16.6561 11.2165 17.8772 11.2165 18.6303 11.9697C19.3834 12.7228 19.3834 13.9439 18.6303 14.697L15.7851 17.5422C15.3319 17.9954 14.7172 18.25 14.0763 18.25H13.1C12.6857 18.25 12.35 17.9142 12.35 17.5V16.5237C12.35 15.8827 12.6046 15.2681 13.0578 14.8148L15.903 11.9697Z" fill="#121212"/>
</svg>
