<svg width="21" height="20" viewBox="0 0 21 20" fill="none" xmlns="http://www.w3.org/2000/svg">
<path fill-rule="evenodd" clip-rule="evenodd" d="M7.26662 1.75C7.68084 1.75 8.01662 2.08579 8.01662 2.5V3.41667H13.1833V2.5C13.1833 2.08579 13.5191 1.75 13.9333 1.75C14.3475 1.75 14.6833 2.08579 14.6833 2.5V3.41667H15.6C16.9346 3.41667 18.0166 4.49865 18.0166 5.83333V9.16667C18.0166 9.58088 17.6808 9.91667 17.2666 9.91667C16.8524 9.91667 16.5166 9.58088 16.5166 9.16667V8.25H4.68329V15C4.68329 15.5063 5.09369 15.9167 5.59996 15.9167H9.76662C10.1808 15.9167 10.5166 16.2525 10.5166 16.6667C10.5166 17.0809 10.1808 17.4167 9.76662 17.4167H5.59996C4.26527 17.4167 3.18329 16.3347 3.18329 15V5.83333C3.18329 4.49865 4.26527 3.41667 5.59996 3.41667H6.51662V2.5C6.51662 2.08579 6.85241 1.75 7.26662 1.75ZM5.59996 4.91667C5.09369 4.91667 4.68329 5.32707 4.68329 5.83333V6.75H16.5166V5.83333C16.5166 5.32707 16.1062 4.91667 15.6 4.91667H5.59996ZM15.6 11.75C16.0142 11.75 16.35 12.0858 16.35 12.5V14.25H18.1C18.5142 14.25 18.85 14.5858 18.85 15C18.85 15.4142 18.5142 15.75 18.1 15.75H16.35V17.5C16.35 17.9142 16.0142 18.25 15.6 18.25C15.1857 18.25 14.85 17.9142 14.85 17.5V15.75H13.1C12.6857 15.75 12.35 15.4142 12.35 15C12.35 14.5858 12.6857 14.25 13.1 14.25H14.85V12.5C14.85 12.0858 15.1857 11.75 15.6 11.75Z" fill="#121212"/>
</svg>
