<svg width="21" height="20" viewBox="0 0 21 20" fill="none" xmlns="http://www.w3.org/2000/svg">
<path fill-rule="evenodd" clip-rule="evenodd" d="M8.51662 2.5835C8.93084 2.5835 9.26662 2.91928 9.26662 3.3335V10.0002C9.26662 10.4144 8.93084 10.7502 8.51662 10.7502C8.10241 10.7502 7.76662 10.4144 7.76662 10.0002V3.3335C7.76662 2.91928 8.10241 2.5835 8.51662 2.5835ZM3.93329 5.91683C4.3475 5.91683 4.68329 6.25262 4.68329 6.66683V13.3335C4.68329 13.7477 4.3475 14.0835 3.93329 14.0835C3.51907 14.0835 3.18329 13.7477 3.18329 13.3335V6.66683C3.18329 6.25262 3.51907 5.91683 3.93329 5.91683ZM17.2666 5.91683C17.6808 5.91683 18.0166 6.25262 18.0166 6.66683V13.3335C18.0166 13.7477 17.6808 14.0835 17.2666 14.0835C16.8524 14.0835 16.5166 13.7477 16.5166 13.3335V6.66683C16.5166 6.25262 16.8524 5.91683 17.2666 5.91683ZM12.6833 9.25016C13.0975 9.25016 13.4333 9.58595 13.4333 10.0002V16.6668C13.4333 17.081 13.0975 17.4168 12.6833 17.4168C12.2691 17.4168 11.9333 17.081 11.9333 16.6668V10.0002C11.9333 9.58595 12.2691 9.25016 12.6833 9.25016Z" fill="#121212"/>
</svg>
