<svg width="20" height="20" viewBox="0 0 20 20" fill="none" xmlns="http://www.w3.org/2000/svg">
<path fill-rule="evenodd" clip-rule="evenodd" d="M2.58336 5.00016C2.58336 3.66547 3.66534 2.5835 5.00003 2.5835H15C16.3347 2.5835 17.4167 3.66547 17.4167 5.00016V8.3335C17.4167 8.74771 17.0809 9.0835 16.6667 9.0835C16.2525 9.0835 15.9167 8.74771 15.9167 8.3335V5.00016C15.9167 4.4939 15.5063 4.0835 15 4.0835H5.00003C4.49376 4.0835 4.08336 4.4939 4.08336 5.00016V15.0002C4.08336 15.5064 4.49376 15.9168 5.00003 15.9168H8.33336C8.74757 15.9168 9.08336 16.2526 9.08336 16.6668C9.08336 17.081 8.74757 17.4168 8.33336 17.4168H5.00003C3.66534 17.4168 2.58336 16.3349 2.58336 15.0002V5.00016ZM9.23301 5.86038C9.56438 6.10891 9.63154 6.57901 9.38301 6.91038L7.82332 8.98997C7.58449 9.30841 7.13849 9.38481 6.80729 9.16401L5.86979 8.53901C5.52515 8.30924 5.43202 7.84359 5.66178 7.49894C5.89155 7.1543 6.3572 7.06117 6.70185 7.29093L7.04901 7.52238L8.18301 6.01038C8.43154 5.67901 8.90164 5.61185 9.23301 5.86038ZM10.965 7.50018C10.965 7.08596 11.3008 6.75018 11.715 6.75018H13.3816C13.7959 6.75018 14.1316 7.08596 14.1316 7.50018C14.1316 7.91439 13.7959 8.25018 13.3816 8.25018H11.715C11.3008 8.25018 10.965 7.91439 10.965 7.50018ZM9.23301 10.8613C9.56438 11.1098 9.63154 11.5799 9.38301 11.9113L7.82332 13.9909C7.58449 14.3094 7.13849 14.3857 6.80729 14.1649L5.86979 13.5399C5.52515 13.3102 5.43202 12.8445 5.66178 12.4999C5.89155 12.1552 6.3572 12.0621 6.70185 12.2919L7.04901 12.5233L8.18301 11.0113C8.43154 10.6799 8.90164 10.6128 9.23301 10.8613ZM15.4041 12.9294C14.7207 12.2459 13.6127 12.2459 12.9293 12.9294C12.2458 13.6128 12.2458 14.7208 12.9293 15.4042C13.6127 16.0877 14.7207 16.0877 15.4041 15.4042C16.0875 14.7208 16.0875 13.6128 15.4041 12.9294ZM11.8686 11.8687C13.1378 10.5995 15.1956 10.5995 16.4648 11.8687C17.5515 12.9554 17.7077 14.6201 16.9336 15.8731L18.0304 16.9698C18.3232 17.2627 18.3232 17.7376 18.0304 18.0305C17.7375 18.3234 17.2626 18.3234 16.9697 18.0305L15.873 16.9337C14.62 17.7078 12.9553 17.5516 11.8686 16.4649C10.5994 15.1957 10.5994 13.1379 11.8686 11.8687Z" fill="#121212"/>
</svg>
