<svg width="21" height="20" viewBox="0 0 21 20" fill="none" xmlns="http://www.w3.org/2000/svg">
<path d="M13.2027 11.9694C13.4956 11.6765 13.971 11.6765 14.2639 11.9694C14.5567 12.2623 14.5568 12.7377 14.2639 13.0306L11.5198 15.7739C10.9401 16.3536 10.0225 16.3902 9.40063 15.883L9.28019 15.7739L6.53604 13.0306L6.48478 12.9736C6.24435 12.6791 6.26145 12.2441 6.53604 11.9694C6.81069 11.6948 7.24569 11.6777 7.54028 11.9181L7.59724 11.9694L10.3414 14.7136L10.3682 14.7323C10.3983 14.7446 10.4341 14.7379 10.4586 14.7136L13.2027 11.9694ZM9.40063 4.11704C10.0225 3.6097 10.94 3.64555 11.5198 4.22527L14.2639 6.96942L14.3152 7.02638C14.5555 7.32096 14.5385 7.75601 14.2639 8.03061C13.9893 8.30516 13.5542 8.32219 13.2597 8.08188L13.2027 8.03061L10.4586 5.28647C10.4341 5.26198 10.3984 5.25539 10.3682 5.26776L10.3414 5.28647L7.59724 8.03061C7.30437 8.32342 6.82892 8.32342 6.53604 8.03061C6.24317 7.73774 6.24321 7.26231 6.53604 6.96942L9.28019 4.22527L9.40063 4.11704Z" fill="#121212"/>
</svg>
