<svg width="21" height="20" viewBox="0 0 21 20" fill="none" xmlns="http://www.w3.org/2000/svg">
<g clip-path="url(#clip0_145_1018)">
<path fill-rule="evenodd" clip-rule="evenodd" d="M10.8 2.25C6.51978 2.25 3.04999 5.71979 3.04999 10C3.04999 14.2802 6.51978 17.75 10.8 17.75C15.0802 17.75 18.55 14.2802 18.55 10C18.55 5.71979 15.0802 2.25 10.8 2.25ZM1.54999 10C1.54999 4.89137 5.69135 0.75 10.8 0.75C15.9086 0.75 20.05 4.89137 20.05 10C20.05 15.1086 15.9086 19.25 10.8 19.25C5.69135 19.25 1.54999 15.1086 1.54999 10ZM10.8 5.47222C11.2142 5.47222 11.55 5.80801 11.55 6.22222V9.13378L12.1585 8.52523C12.4514 8.23233 12.9263 8.23233 13.2192 8.52523C13.5121 8.81812 13.5121 9.29299 13.2192 9.58589L11.3303 11.4748C11.0374 11.7677 10.5625 11.7677 10.2697 11.4748L8.38077 9.58589C8.08788 9.29299 8.08788 8.81812 8.38077 8.52523C8.67366 8.23233 9.14854 8.23233 9.44143 8.52523L10.05 9.13378V6.22222C10.05 5.80801 10.3858 5.47222 10.8 5.47222ZM7.21665 13.7778C7.21665 13.3636 7.55244 13.0278 7.96665 13.0278H13.6333C14.0475 13.0278 14.3833 13.3636 14.3833 13.7778C14.3833 14.192 14.0475 14.5278 13.6333 14.5278H7.96665C7.55244 14.5278 7.21665 14.192 7.21665 13.7778Z" fill="#121212"/>
</g>
<defs>
<clipPath id="clip0_145_1018">
<rect width="20" height="20" fill="white" transform="translate(0.799988)"/>
</clipPath>
</defs>
</svg>
