<svg width="20" height="20" viewBox="0 0 20 20" fill="none" xmlns="http://www.w3.org/2000/svg">
<path fill-rule="evenodd" clip-rule="evenodd" d="M4.16635 4.16637C5.71353 2.61919 7.81195 1.75 9.99998 1.75C12.188 1.75 14.2864 2.61919 15.8336 4.16637C17.3808 5.71354 18.25 7.81196 18.25 10C18.25 11.0834 18.0366 12.1562 17.622 13.1571C17.2074 14.1581 16.5997 15.0675 15.8336 15.8336C15.0675 16.5997 14.1581 17.2074 13.1571 17.622C12.1562 18.0366 11.0834 18.25 9.99998 18.25C8.91658 18.25 7.84378 18.0366 6.84285 17.622C5.84191 17.2074 4.93244 16.5997 4.16635 15.8336C3.40027 15.0675 2.79258 14.1581 2.37798 13.1571C1.96338 12.1562 1.74998 11.0834 1.74998 10C1.74998 7.81196 2.61918 5.71354 4.16635 4.16637ZM9.99998 3.25C8.20977 3.25 6.49288 3.96116 5.22701 5.22703C3.96114 6.4929 3.24998 8.20979 3.24998 10C3.24998 10.8864 3.42458 11.7642 3.7638 12.5831C4.10302 13.4021 4.60022 14.1462 5.22701 14.773C5.85381 15.3998 6.59792 15.897 7.41687 16.2362C8.23582 16.5754 9.11356 16.75 9.99998 16.75C10.8864 16.75 11.7642 16.5754 12.5831 16.2362C13.402 15.897 14.1462 15.3998 14.773 14.773C15.3998 14.1462 15.897 13.4021 16.2362 12.5831C16.5754 11.7642 16.75 10.8864 16.75 10C16.75 8.20979 16.0388 6.4929 14.773 5.22703C13.5071 3.96116 11.7902 3.25 9.99998 3.25Z" fill="#121212"/>
<path fill-rule="evenodd" clip-rule="evenodd" d="M9.99999 5.91667C10.4142 5.91667 10.75 6.25245 10.75 6.66667V10C10.75 10.4142 10.4142 10.75 9.99999 10.75C9.58577 10.75 9.24999 10.4142 9.24999 10V6.66667C9.24999 6.25245 9.58577 5.91667 9.99999 5.91667Z" fill="#121212"/>
<path fill-rule="evenodd" clip-rule="evenodd" d="M9.16665 13.3333C9.16665 12.8731 9.53975 12.5 9.99998 12.5H10.0083C10.4686 12.5 10.8417 12.8731 10.8417 13.3333C10.8417 13.7936 10.4686 14.1667 10.0083 14.1667H9.99998C9.53975 14.1667 9.16665 13.7936 9.16665 13.3333Z" fill="#121212"/>
</svg>
