<svg width="20" height="20" viewBox="0 0 20 20" fill="none" xmlns="http://www.w3.org/2000/svg">
<path fill-rule="evenodd" clip-rule="evenodd" d="M10 3.25C6.27208 3.25 3.25 6.27208 3.25 10C3.25 13.7279 6.27208 16.75 10 16.75C13.7279 16.75 16.75 13.7279 16.75 10C16.75 6.27208 13.7279 3.25 10 3.25ZM1.75 10C1.75 5.44365 5.44365 1.75 10 1.75C14.5563 1.75 18.25 5.44365 18.25 10C18.25 14.5563 14.5563 18.25 10 18.25C5.44365 18.25 1.75 14.5563 1.75 10ZM8.41667 9.16667C8.41667 8.75245 8.75245 8.41667 9.16667 8.41667H10C10.4142 8.41667 10.75 8.75245 10.75 9.16667V13.3333C10.75 13.7475 10.4142 14.0833 10 14.0833C9.58579 14.0833 9.25 13.7475 9.25 13.3333V9.91667H9.16667C8.75245 9.91667 8.41667 9.58088 8.41667 9.16667Z" fill="#121212"/>
<path d="M9.58333 6.66667C9.58333 6.43655 9.76988 6.25 10 6.25C10.2301 6.25 10.4167 6.43655 10.4167 6.66667C10.4167 6.89679 10.2301 7.08333 10 7.08333C9.76988 7.08333 9.58333 6.89679 9.58333 6.66667Z" fill="#121212"/>
<path fill-rule="evenodd" clip-rule="evenodd" d="M10 7.5C9.53976 7.5 9.16667 7.1269 9.16667 6.66667C9.16667 6.20643 9.53976 5.83333 10 5.83333C10.4602 5.83333 10.8333 6.20643 10.8333 6.66667C10.8333 7.1269 10.4602 7.5 10 7.5ZM10 6.25C9.76988 6.25 9.58333 6.43655 9.58333 6.66667C9.58333 6.89679 9.76988 7.08333 10 7.08333C10.2301 7.08333 10.4167 6.89679 10.4167 6.66667C10.4167 6.43655 10.2301 6.25 10 6.25Z" fill="#121212"/>
</svg>
