<svg width="21" height="20" viewBox="0 0 21 20" fill="none" xmlns="http://www.w3.org/2000/svg">
<path fill-rule="evenodd" clip-rule="evenodd" d="M10.8 3.25C7.07204 3.25 4.04996 6.27208 4.04996 10C4.04996 13.7279 7.07204 16.75 10.8 16.75C14.5279 16.75 17.55 13.7279 17.55 10C17.55 6.27208 14.5279 3.25 10.8 3.25ZM2.54996 10C2.54996 5.44365 6.24361 1.75 10.8 1.75C15.3563 1.75 19.05 5.44365 19.05 10C19.05 14.5563 15.3563 18.25 10.8 18.25C6.24361 18.25 2.54996 14.5563 2.54996 10ZM10.8 5.91667C11.2142 5.91667 11.55 6.25245 11.55 6.66667V9.68934L13.4136 11.553C13.7065 11.8459 13.7065 12.3208 13.4136 12.6137C13.1207 12.9066 12.6459 12.9066 12.353 12.6137L10.2696 10.5303C10.129 10.3897 10.05 10.1989 10.05 10V6.66667C10.05 6.25245 10.3857 5.91667 10.8 5.91667Z" fill="#121212"/>
</svg>
