<svg width="21" height="20" viewBox="0 0 21 20" fill="none" xmlns="http://www.w3.org/2000/svg">
<path fill-rule="evenodd" clip-rule="evenodd" d="M5.32469 6.87597C6.20962 4.84118 8.2376 3.41699 10.5999 3.41699C13.5425 3.41699 15.9689 5.62738 16.3091 8.47836C18.2262 8.81408 19.6833 10.487 19.6833 12.5003C19.6833 14.7555 17.8551 16.5837 15.5999 16.5837H13.9333C13.5191 16.5837 13.1833 16.2479 13.1833 15.8337C13.1833 15.4194 13.5191 15.0837 13.9333 15.0837H15.5999C17.0267 15.0837 18.1833 13.9271 18.1833 12.5003C18.1833 11.0736 17.0267 9.91699 15.5999 9.91699C15.1857 9.91699 14.8499 9.58121 14.8499 9.16699C14.8499 6.81978 12.9471 4.91699 10.5999 4.91699C8.73871 4.91699 7.15509 6.11386 6.58045 7.78215C6.48811 8.05021 6.25251 8.24329 5.97153 8.28117C4.30321 8.50608 3.0166 9.9369 3.0166 11.667C3.0166 13.554 4.5463 15.0837 6.43327 15.0837H7.2666C7.68082 15.0837 8.0166 15.4194 8.0166 15.8337C8.0166 16.2479 7.68082 16.5837 7.2666 16.5837H6.43327C3.71787 16.5837 1.5166 14.3824 1.5166 11.667C1.5166 9.33252 3.14296 7.379 5.32469 6.87597ZM7.98627 11.5533L10.0696 9.47C10.3625 9.1771 10.8374 9.1771 11.1303 9.47L13.2136 11.5533C13.5065 11.8462 13.5065 12.3211 13.2136 12.614C12.9207 12.9069 12.4458 12.9069 12.1529 12.614L11.3499 11.811V15.8337C11.3499 16.2479 11.0141 16.5837 10.5999 16.5837C10.1857 16.5837 9.84993 16.2479 9.84993 15.8337V11.811L9.04693 12.614C8.75404 12.9069 8.27916 12.9069 7.98627 12.614C7.69338 12.3211 7.69338 11.8462 7.98627 11.5533Z" fill="#121212"/>
</svg>
