<svg width="21" height="20" viewBox="0 0 21 20" fill="none" xmlns="http://www.w3.org/2000/svg">
<path fill-rule="evenodd" clip-rule="evenodd" d="M9.90379 2.5835H14.6295C15.071 2.58348 15.447 2.58347 15.7557 2.6087C16.08 2.63519 16.3955 2.69322 16.6971 2.8469C17.1518 3.07859 17.5215 3.4483 17.7532 3.90302C17.9069 4.20463 17.9649 4.52013 17.9914 4.84443C18.0166 5.15312 18.0166 5.52909 18.0166 5.97064V10.6964C18.0166 11.1379 18.0166 11.5139 17.9914 11.8226C17.9649 12.1469 17.9069 12.4624 17.7532 12.764C17.5215 13.2187 17.1518 13.5884 16.6971 13.8201C16.3955 13.9738 16.08 14.0318 15.7557 14.0583C15.4596 14.0825 15.1016 14.0835 14.6833 14.0835C14.6833 14.5019 14.6823 14.8598 14.6581 15.1559C14.6316 15.4802 14.5736 15.7957 14.4199 16.0973C14.1882 16.552 13.8185 16.9217 13.3638 17.1534C13.0622 17.3071 12.7467 17.3651 12.4224 17.3916C12.1137 17.4169 11.7377 17.4168 11.2961 17.4168H6.57044C6.12889 17.4168 5.75291 17.4169 5.44422 17.3916C5.11992 17.3651 4.80442 17.3071 4.50281 17.1534C4.04809 16.9217 3.67838 16.552 3.44669 16.0973C3.29301 15.7957 3.23498 15.4802 3.20849 15.1559C3.18327 14.8472 3.18328 14.4712 3.18329 14.0297V9.30399C3.18328 8.86244 3.18327 8.48645 3.20849 8.17776C3.23498 7.85346 3.29301 7.53796 3.44669 7.23635C3.67838 6.78163 4.04809 6.41193 4.50281 6.18023C4.80442 6.02655 5.11992 5.96852 5.44422 5.94203C5.74029 5.91784 6.09826 5.91686 6.51662 5.91683C6.51665 5.49847 6.51763 5.1405 6.54182 4.84443C6.56832 4.52013 6.62635 4.20463 6.78002 3.90302C7.01172 3.4483 7.38142 3.07859 7.83615 2.8469C8.13776 2.69322 8.45325 2.63519 8.77755 2.6087C9.08625 2.58347 9.46223 2.58348 9.90379 2.5835ZM6.59996 7.41683C6.12087 7.41683 5.80666 7.41741 5.56637 7.43705C5.33483 7.45596 5.23871 7.48876 5.1838 7.51674C5.01132 7.60462 4.87108 7.74486 4.7832 7.91734C4.75522 7.97225 4.72242 8.06837 4.70351 8.29991C4.68387 8.5402 4.68329 8.85441 4.68329 9.3335V14.0002C4.68329 14.4792 4.68387 14.7935 4.70351 15.0338C4.72242 15.2653 4.75522 15.3614 4.7832 15.4163C4.87108 15.5888 5.01132 15.729 5.1838 15.8169C5.23871 15.8449 5.33483 15.8777 5.56637 15.8966C5.80666 15.9162 6.12087 15.9168 6.59996 15.9168H11.2666C11.7457 15.9168 12.0599 15.9162 12.3002 15.8966C12.5318 15.8777 12.6279 15.8449 12.6828 15.8169C12.8553 15.729 12.9955 15.5888 13.0834 15.4163C13.1114 15.3614 13.1442 15.2653 13.1631 15.0338C13.1827 14.7935 13.1833 14.4792 13.1833 14.0002V9.3335C13.1833 8.85441 13.1827 8.5402 13.1631 8.29991C13.1442 8.06837 13.1114 7.97225 13.0834 7.91734C12.9955 7.74486 12.8553 7.60462 12.6828 7.51674C12.6279 7.48876 12.5318 7.45596 12.3002 7.43705C12.0599 7.41741 11.7457 7.41683 11.2666 7.41683H6.59996ZM14.6833 12.5835V9.30402C14.6833 8.86245 14.6833 8.48646 14.6581 8.17776C14.6316 7.85346 14.5736 7.53796 14.4199 7.23635C14.1882 6.78163 13.8185 6.41193 13.3638 6.18023C13.0622 6.02655 12.7467 5.96852 12.4224 5.94203C12.1137 5.91681 11.7377 5.91682 11.2961 5.91683L8.01663 5.91683C8.01676 5.48415 8.01837 5.19265 8.03684 4.96657C8.05576 4.73503 8.08856 4.63891 8.11653 4.58401C8.20442 4.41152 8.34465 4.27129 8.51713 4.18341C8.57204 4.15543 8.66816 4.12263 8.8997 4.10371C9.14 4.08408 9.4542 4.0835 9.93329 4.0835H14.6C15.079 4.0835 15.3933 4.08408 15.6335 4.10371C15.8651 4.12263 15.9612 4.15543 16.0161 4.18341C16.1886 4.27129 16.3288 4.41152 16.4167 4.58401C16.4447 4.63891 16.4775 4.73503 16.4964 4.96657C16.516 5.20687 16.5166 5.52108 16.5166 6.00016V10.6668C16.5166 11.1459 16.516 11.4601 16.4964 11.7004C16.4775 11.932 16.4447 12.0281 16.4167 12.083C16.3288 12.2555 16.1886 12.3957 16.0161 12.4836C15.9612 12.5116 15.8651 12.5444 15.6335 12.5633C15.4075 12.5818 15.116 12.5834 14.6833 12.5835Z" fill="#121212"/>
</svg>
