<svg width="21" height="20" viewBox="0 0 21 20" fill="none" xmlns="http://www.w3.org/2000/svg">
<path fill-rule="evenodd" clip-rule="evenodd" d="M4.96662 4.91699C4.46036 4.91699 4.04996 5.3274 4.04996 5.83366V7.58366H17.55V5.83345C17.55 5.32731 17.1397 4.91699 16.6333 4.91699H4.96662ZM17.55 9.08366H4.04996V14.167C4.04996 14.6733 4.46036 15.0837 4.96662 15.0837H16.6333C17.1396 15.0837 17.55 14.6733 17.55 14.167V9.08366ZM2.54996 5.83366C2.54996 4.49897 3.63194 3.41699 4.96662 3.41699H16.6333C17.9679 3.41699 19.05 4.49864 19.05 5.83345V14.167C19.05 15.5017 17.968 16.5837 16.6333 16.5837H4.96662C3.63194 16.5837 2.54996 15.5017 2.54996 14.167V5.83366ZM5.88329 11.667C5.88329 11.2528 6.21908 10.917 6.63329 10.917H9.13329C9.5475 10.917 9.88329 11.2528 9.88329 11.667C9.88329 12.0812 9.5475 12.417 9.13329 12.417H6.63329C6.21908 12.417 5.88329 12.0812 5.88329 11.667Z" fill="#121212"/>
</svg>
