<svg width="21" height="20" viewBox="0 0 21 20" fill="none" xmlns="http://www.w3.org/2000/svg">
<path fill-rule="evenodd" clip-rule="evenodd" d="M4.23633 3.63642C4.52923 3.34352 5.0041 3.34352 5.29699 3.63642L10.6 8.93942L15.903 3.63642C16.1959 3.34352 16.6708 3.34352 16.9637 3.63642C17.2566 3.92931 17.2566 4.40418 16.9637 4.69708L11.6607 10.0001L16.9637 15.3031C17.2566 15.596 17.2566 16.0709 16.9637 16.3637C16.6708 16.6566 16.1959 16.6566 15.903 16.3637L10.6 11.0607L5.29699 16.3637C5.0041 16.6566 4.52923 16.6566 4.23633 16.3637C3.94344 16.0709 3.94344 15.596 4.23633 15.3031L9.53934 10.0001L4.23633 4.69708C3.94344 4.40418 3.94344 3.92931 4.23633 3.63642Z" fill="#121212"/>
</svg>
