<svg width="21" height="20" viewBox="0 0 21 20" fill="none" xmlns="http://www.w3.org/2000/svg">
<path fill-rule="evenodd" clip-rule="evenodd" d="M7.23691 4.25H3.73328C3.31906 4.25 2.98328 4.58579 2.98328 5C2.98328 5.41421 3.31906 5.75 3.73328 5.75H4.64994V15.8333C4.64994 17.168 5.73192 18.25 7.06661 18.25H13.7333C15.068 18.25 16.1499 17.168 16.1499 15.8333V5.75H17.0666C17.4808 5.75 17.8166 5.41421 17.8166 5C17.8166 4.58579 17.4808 4.25 17.0666 4.25H13.563C13.2244 2.81665 11.9367 1.75 10.3999 1.75C8.86315 1.75 7.57549 2.81665 7.23691 4.25ZM8.81835 4.25H11.9815C11.7007 3.65876 11.098 3.25 10.3999 3.25C9.70184 3.25 9.09922 3.65876 8.81835 4.25ZM6.14994 5.75V15.8333C6.14994 16.3396 6.56035 16.75 7.06661 16.75H13.7333C14.2395 16.75 14.6499 16.3396 14.6499 15.8333V5.75H6.14994ZM8.73328 8.41667C9.14749 8.41667 9.48328 8.75245 9.48328 9.16667V13.3333C9.48328 13.7475 9.14749 14.0833 8.73328 14.0833C8.31906 14.0833 7.98328 13.7475 7.98328 13.3333V9.16667C7.98328 8.75245 8.31906 8.41667 8.73328 8.41667ZM12.0666 8.41667C12.4808 8.41667 12.8166 8.75245 12.8166 9.16667V13.3333C12.8166 13.7475 12.4808 14.0833 12.0666 14.0833C11.6524 14.0833 11.3166 13.7475 11.3166 13.3333V9.16667C11.3166 8.75245 11.6524 8.41667 12.0666 8.41667Z" fill="#121212"/>
</svg>
