<svg width="21" height="20" viewBox="0 0 21 20" fill="none" xmlns="http://www.w3.org/2000/svg">
<path fill-rule="evenodd" clip-rule="evenodd" d="M15.9308 2.48057C17.1547 2.09181 18.3079 3.24506 17.9192 4.46894L13.6542 17.8958C13.1736 19.4087 11.0137 19.3521 10.6131 17.8161L8.96413 11.4952C8.95652 11.466 8.93372 11.4432 8.90453 11.4356L2.5836 9.78667C1.04768 9.38599 0.991074 7.22613 2.50392 6.74558L15.9308 2.48057ZM16.43 3.90701C16.4212 3.9047 16.4079 3.90287 16.3849 3.91018L2.95803 8.17519C2.93732 8.18176 2.92706 8.18857 2.9228 8.19178C2.91834 8.19515 2.91536 8.19845 2.91279 8.20232C2.90695 8.21112 2.89925 8.2299 2.89996 8.25679C2.90066 8.28368 2.90933 8.30202 2.91563 8.31051C2.91839 8.31424 2.92154 8.31738 2.92618 8.32052C2.9306 8.3235 2.9412 8.32976 2.96223 8.33524L9.28316 9.98418C9.83777 10.1289 10.2709 10.562 10.4156 11.1166L12.0645 17.4375C12.07 17.4585 12.0762 17.4691 12.0792 17.4736C12.0824 17.4782 12.0855 17.4813 12.0892 17.4841C12.0977 17.4904 12.1161 17.4991 12.143 17.4998C12.1698 17.5005 12.1886 17.4928 12.1974 17.4869C12.2013 17.4844 12.2046 17.4814 12.208 17.4769C12.2112 17.4727 12.218 17.4624 12.2246 17.4417L16.4896 4.01483C16.4969 3.99183 16.495 3.9785 16.4927 3.96977C16.4897 3.95828 16.4823 3.94395 16.4691 3.93067C16.4558 3.9174 16.4415 3.91005 16.43 3.90701Z" fill="#121212"/>
</svg>
