<svg width="21" height="20" viewBox="0 0 21 20" fill="none" xmlns="http://www.w3.org/2000/svg">
<path d="M4.6497 15.8333C4.6497 15.7873 4.61271 15.7503 4.56669 15.7503C4.52067 15.7503 4.48368 15.7873 4.48368 15.8333C4.48368 15.8794 4.52067 15.9163 4.56669 15.9163C4.61271 15.9163 4.6497 15.8794 4.6497 15.8333ZM10.483 15.8333C10.483 15.7873 10.446 15.7503 10.4 15.7503C10.354 15.7503 10.317 15.7873 10.317 15.8333C10.317 15.8794 10.354 15.9163 10.4 15.9163C10.446 15.9163 10.483 15.8794 10.483 15.8333ZM16.3164 15.8333C16.3164 15.7873 16.2794 15.7503 16.2334 15.7503C16.1873 15.7503 16.1503 15.7873 16.1503 15.8333C16.1503 15.8794 16.1873 15.9163 16.2334 15.9163C16.2794 15.9163 16.3164 15.8794 16.3164 15.8333ZM4.6497 10C4.6497 9.95398 4.61271 9.91699 4.56669 9.91699C4.52067 9.91699 4.48368 9.95398 4.48368 10C4.48368 10.046 4.52067 10.083 4.56669 10.083C4.61271 10.083 4.6497 10.046 4.6497 10ZM10.483 10C10.483 9.95398 10.446 9.91699 10.4 9.91699C10.354 9.91699 10.317 9.95398 10.317 10C10.317 10.046 10.354 10.083 10.4 10.083C10.446 10.083 10.483 10.046 10.483 10ZM16.3164 10C16.3164 9.95398 16.2794 9.91699 16.2334 9.91699C16.1873 9.91699 16.1503 9.95398 16.1503 10C16.1503 10.046 16.1873 10.083 16.2334 10.083C16.2794 10.083 16.3164 10.046 16.3164 10ZM4.6497 4.16667C4.6497 4.12064 4.61271 4.08366 4.56669 4.08366C4.52067 4.08366 4.48368 4.12064 4.48368 4.16667C4.48368 4.21269 4.52067 4.24967 4.56669 4.24967C4.61271 4.24967 4.6497 4.21269 4.6497 4.16667ZM10.483 4.16667C10.483 4.12064 10.446 4.08366 10.4 4.08366C10.354 4.08366 10.317 4.12064 10.317 4.16667C10.317 4.21269 10.354 4.24967 10.4 4.24967C10.446 4.24967 10.483 4.21269 10.483 4.16667ZM16.3164 4.16667C16.3164 4.12064 16.2794 4.08366 16.2334 4.08366C16.1873 4.08366 16.1503 4.12064 16.1503 4.16667C16.1503 4.21269 16.1873 4.24967 16.2334 4.24967C16.2794 4.24967 16.3164 4.21269 16.3164 4.16667ZM6.15035 15.8333C6.15035 16.7078 5.44114 17.417 4.56669 17.417C3.69224 17.417 2.98303 16.7078 2.98303 15.8333C2.98303 14.9589 3.69224 14.2497 4.56669 14.2497C5.44114 14.2497 6.15035 14.9589 6.15035 15.8333ZM11.9837 15.8333C11.9837 16.7078 11.2745 17.417 10.4 17.417C9.52557 17.417 8.81637 16.7078 8.81637 15.8333C8.81637 14.9589 9.52557 14.2497 10.4 14.2497C11.2745 14.2497 11.9837 14.9589 11.9837 15.8333ZM17.817 15.8333C17.817 16.7078 17.1078 17.417 16.2334 17.417C15.3589 17.417 14.6497 16.7078 14.6497 15.8333C14.6497 14.9589 15.3589 14.2497 16.2334 14.2497C17.1078 14.2497 17.817 14.9589 17.817 15.8333ZM6.15035 10C6.15035 10.8745 5.44114 11.5837 4.56669 11.5837C3.69224 11.5837 2.98303 10.8745 2.98303 10C2.98303 9.12555 3.69224 8.41634 4.56669 8.41634C5.44114 8.41634 6.15035 9.12555 6.15035 10ZM11.9837 10C11.9837 10.8745 11.2745 11.5837 10.4 11.5837C9.52557 11.5837 8.81637 10.8745 8.81637 10C8.81637 9.12555 9.52557 8.41634 10.4 8.41634C11.2745 8.41634 11.9837 9.12555 11.9837 10ZM17.817 10C17.817 10.8745 17.1078 11.5837 16.2334 11.5837C15.3589 11.5837 14.6497 10.8745 14.6497 10C14.6497 9.12555 15.3589 8.41634 16.2334 8.41634C17.1078 8.41634 17.817 9.12555 17.817 10ZM6.15035 4.16667C6.15035 5.04112 5.44114 5.75033 4.56669 5.75033C3.69224 5.75033 2.98303 5.04112 2.98303 4.16667C2.98303 3.29222 3.69224 2.58301 4.56669 2.58301C5.44114 2.58301 6.15035 3.29222 6.15035 4.16667ZM11.9837 4.16667C11.9837 5.04112 11.2745 5.75033 10.4 5.75033C9.52557 5.75033 8.81637 5.04112 8.81637 4.16667C8.81637 3.29222 9.52557 2.58301 10.4 2.58301C11.2745 2.58301 11.9837 3.29222 11.9837 4.16667ZM17.817 4.16667C17.817 5.04112 17.1078 5.75033 16.2334 5.75033C15.3589 5.75033 14.6497 5.04112 14.6497 4.16667C14.6497 3.29222 15.3589 2.58301 16.2334 2.58301C17.1078 2.58301 17.817 3.29222 17.817 4.16667Z" fill="#121212"/>
</svg>
