<svg width="20" height="20" viewBox="0 0 20 20" fill="none" xmlns="http://www.w3.org/2000/svg">
<path fill-rule="evenodd" clip-rule="evenodd" d="M12.1977 3.30389C13.0873 2.41433 14.5296 2.41433 15.4191 3.30389L16.6961 4.58087C17.5857 5.47044 17.5857 6.91271 16.6961 7.80228L7.30509 17.1933C7.02117 17.4772 6.63609 17.6367 6.23457 17.6367H3.11328C2.69907 17.6367 2.36328 17.3009 2.36328 16.8867V13.7654C2.36328 13.3639 2.52278 12.9788 2.8067 12.6949L12.1977 3.30389ZM14.3585 4.36455C14.0547 4.06077 13.5622 4.06077 13.2584 4.36455L12.1953 5.42764L14.5724 7.8047L15.6354 6.74162C15.9392 6.43784 15.9392 5.94531 15.6354 5.64153L14.3585 4.36455ZM13.5117 8.86536L11.1346 6.4883L3.86736 13.7556C3.86475 13.7582 3.86328 13.7617 3.86328 13.7654V16.1367H6.23457C6.23827 16.1367 6.24182 16.1353 6.24443 16.1326L13.5117 8.86536Z" fill="#121212"/>
</svg>
