<svg width="21" height="20" viewBox="0 0 21 20" fill="none" xmlns="http://www.w3.org/2000/svg">
<path fill-rule="evenodd" clip-rule="evenodd" d="M6.63515 4.25H2.8999C2.48569 4.25 2.1499 4.58579 2.1499 5C2.1499 5.41421 2.48569 5.75 2.8999 5.75H3.8649L4.54784 15.9941C4.63247 17.2636 5.68687 18.25 6.95916 18.25H13.8406C15.1129 18.25 16.1673 17.2636 16.252 15.9941L16.9349 5.75H17.8999C18.3141 5.75 18.6499 5.41421 18.6499 5C18.6499 4.58579 18.3141 4.25 17.8999 4.25H14.1647C13.5463 2.78149 12.0943 1.75 10.3999 1.75C8.70551 1.75 7.25353 2.78149 6.63515 4.25ZM8.35833 4.25H12.4415C11.9687 3.64141 11.2295 3.25 10.3999 3.25C9.57029 3.25 8.83118 3.64141 8.35833 4.25ZM13.6113 5.75H5.36823L6.04452 15.8943C6.07662 16.3758 6.47657 16.75 6.95916 16.75H13.8406C14.3232 16.75 14.7232 16.3758 14.7553 15.8943L15.4316 5.75H13.6441C13.6332 5.75024 13.6222 5.75024 13.6113 5.75Z" fill="#121212"/>
<path fill-rule="evenodd" clip-rule="evenodd" d="M8.10184 8.53543C8.39474 8.24253 8.86961 8.24253 9.1625 8.53543L10.4 9.77287L11.6374 8.53545C11.9303 8.24255 12.4051 8.24255 12.698 8.53545C12.9909 8.82834 12.9909 9.30321 12.698 9.59611L11.4606 10.8335L12.698 12.071C12.9909 12.3639 12.9909 12.8387 12.698 13.1316C12.4051 13.4245 11.9303 13.4245 11.6374 13.1316L10.4 11.8942L9.1625 13.1316C8.86961 13.4245 8.39474 13.4245 8.10184 13.1316C7.80895 12.8387 7.80895 12.3639 8.10184 12.071L9.33929 10.8335L8.10184 9.59609C7.80895 9.30319 7.80895 8.82832 8.10184 8.53543Z" fill="#121212"/>
</svg>
