<svg width="20" height="20" viewBox="0 0 20 20" fill="none" xmlns="http://www.w3.org/2000/svg">
<path fill-rule="evenodd" clip-rule="evenodd" d="M4.92884 3.2085H15.0712C15.5127 3.20848 15.8887 3.20847 16.1974 3.2337C16.5217 3.26019 16.8372 3.31822 17.1388 3.4719C17.5935 3.70359 17.9632 4.07329 18.1949 4.52802C18.3486 4.82963 18.4066 5.14513 18.4331 5.46943C18.4584 5.77812 18.4584 6.1541 18.4583 6.59566V13.4047C18.4584 13.8462 18.4584 14.2222 18.4331 14.5309C18.4066 14.8552 18.3486 15.1707 18.1949 15.4723C17.9632 15.927 17.5935 16.2967 17.1388 16.5284C16.8372 16.6821 16.5217 16.7401 16.1974 16.7666C15.8887 16.7919 15.5127 16.7918 15.0712 16.7918H4.92883C4.48728 16.7918 4.11129 16.7919 3.8026 16.7666C3.4783 16.7401 3.16281 16.6821 2.8612 16.5284C2.40647 16.2967 2.03677 15.927 1.80507 15.4723C1.6514 15.1707 1.59337 14.8552 1.56687 14.5309C1.54165 14.2222 1.54166 13.8462 1.54167 13.4047V6.59566C1.54166 6.1541 1.54165 5.77812 1.56687 5.46943C1.59337 5.14513 1.6514 4.82963 1.80507 4.52802C2.03677 4.0733 2.40647 3.70359 2.8612 3.4719C3.16281 3.31822 3.4783 3.26019 3.8026 3.2337C4.1113 3.20847 4.48728 3.20848 4.92884 3.2085ZM3.74819 4.74934L9.41954 9.38953C9.75721 9.6658 10.2428 9.6658 10.5805 9.38953L16.2518 4.74934C16.2038 4.74153 16.1458 4.73448 16.0753 4.72871C15.835 4.70908 15.5208 4.7085 15.0417 4.7085H4.95834C4.47925 4.7085 4.16505 4.70908 3.92475 4.72871C3.85422 4.73448 3.79626 4.74153 3.74819 4.74934ZM16.9568 6.11066L11.5303 10.5505C10.6401 11.2788 9.3599 11.2788 8.46968 10.5505L3.04326 6.11066C3.04177 6.25842 3.04167 6.4278 3.04167 6.62516V13.3752C3.04167 13.8542 3.04226 14.1685 3.06189 14.4088C3.08081 14.6403 3.11361 14.7364 3.14158 14.7913C3.22947 14.9638 3.3697 15.104 3.54218 15.1919C3.59709 15.2199 3.69321 15.2527 3.92475 15.2716C4.16505 15.2912 4.47925 15.2918 4.95834 15.2918H15.0417C15.5208 15.2918 15.835 15.2912 16.0753 15.2716C16.3068 15.2527 16.4029 15.2199 16.4578 15.1919C16.6303 15.104 16.7705 14.9638 16.8584 14.7913C16.8864 14.7364 16.9192 14.6403 16.9381 14.4088C16.9578 14.1685 16.9583 13.8542 16.9583 13.3752V6.62516C16.9583 6.4278 16.9582 6.25842 16.9568 6.11066Z" fill="#121212"/>
</svg>
