<svg width="21" height="20" viewBox="0 0 21 20" fill="none" xmlns="http://www.w3.org/2000/svg">
<path fill-rule="evenodd" clip-rule="evenodd" d="M12.2666 4.0835C11.8524 4.0835 11.5166 3.74771 11.5166 3.3335C11.5166 2.91928 11.8524 2.5835 12.2666 2.5835H17.2666C17.6808 2.5835 18.0166 2.91928 18.0166 3.3335V8.3335C18.0166 8.74771 17.6808 9.0835 17.2666 9.0835C16.8524 9.0835 16.5166 8.74771 16.5166 8.3335V5.14416L10.297 11.3638C10.0041 11.6567 9.52919 11.6567 9.23629 11.3638C8.9434 11.0709 8.9434 10.5961 9.23629 10.3032L15.456 4.0835H12.2666ZM6.57046 4.25016L8.09996 4.25016C8.51417 4.25016 8.84996 4.58595 8.84996 5.00016C8.84996 5.41438 8.51417 5.75016 8.09996 5.75016H6.59996C6.12087 5.75016 5.80666 5.75075 5.56637 5.77038C5.33483 5.7893 5.23871 5.8221 5.1838 5.85007C5.01132 5.93796 4.87108 6.07819 4.7832 6.25067C4.75522 6.30558 4.72242 6.4017 4.70351 6.63324C4.68387 6.87353 4.68329 7.18774 4.68329 7.66683V14.0002C4.68329 14.4792 4.68387 14.7935 4.70351 15.0338C4.72242 15.2653 4.75522 15.3614 4.7832 15.4163C4.87108 15.5888 5.01132 15.729 5.1838 15.8169C5.23871 15.8449 5.33483 15.8777 5.56637 15.8966C5.80666 15.9162 6.12087 15.9168 6.59996 15.9168H12.9333C13.4124 15.9168 13.7266 15.9162 13.9669 15.8966C14.1984 15.8777 14.2945 15.8449 14.3494 15.8169C14.5219 15.729 14.6622 15.5888 14.75 15.4163C14.778 15.3614 14.8108 15.2653 14.8297 15.0338C14.8494 14.7935 14.85 14.4792 14.85 14.0002V12.5002C14.85 12.0859 15.1857 11.7502 15.6 11.7502C16.0142 11.7502 16.35 12.0859 16.35 12.5002V14.0297C16.35 14.4712 16.35 14.8472 16.3248 15.1559C16.2983 15.4802 16.2402 15.7957 16.0866 16.0973C15.8549 16.552 15.4852 16.9217 15.0304 17.1534C14.7288 17.3071 14.4133 17.3651 14.089 17.3916C13.7803 17.4169 13.4044 17.4168 12.9628 17.4168H6.57045C6.12889 17.4168 5.75291 17.4169 5.44422 17.3916C5.11992 17.3651 4.80442 17.3071 4.50281 17.1534C4.04809 16.9217 3.67838 16.552 3.44669 16.0973C3.29301 15.7957 3.23498 15.4802 3.20849 15.1559C3.18327 14.8472 3.18328 14.4712 3.18329 14.0297V7.63733C3.18328 7.19577 3.18327 6.81978 3.20849 6.51109C3.23498 6.18679 3.29301 5.8713 3.44669 5.56969C3.67838 5.11496 4.04809 4.74526 4.50281 4.51356C4.80442 4.35989 5.11992 4.30186 5.44422 4.27536C5.75291 4.25014 6.1289 4.25015 6.57046 4.25016Z" fill="#121212"/>
</svg>
