<svg width="21" height="20" viewBox="0 0 21 20" fill="none" xmlns="http://www.w3.org/2000/svg">
<path fill-rule="evenodd" clip-rule="evenodd" d="M10.5999 4.9165C7.95971 4.91652 5.23486 6.4289 3.32985 9.62909C3.19401 9.85728 3.19401 10.1425 3.32985 10.3707C5.23485 13.5709 7.9597 15.0832 10.5999 15.0832C13.2401 15.0832 15.965 13.5708 17.87 10.3706C18.0058 10.1424 18.0058 9.8572 17.87 9.629C15.965 6.42882 13.2401 4.91649 10.5999 4.9165ZM10.5999 3.4165C13.8586 3.41648 17.0327 5.29004 19.1589 8.86174C19.5762 9.56273 19.5762 10.4369 19.1589 11.1379C17.0327 14.7095 13.8587 16.5831 10.5999 16.5832C7.34119 16.5832 4.1671 14.7096 2.04093 11.1379C1.62364 10.437 1.62365 9.56281 2.04093 8.86182C4.16709 5.29013 7.34118 3.41653 10.5999 3.4165ZM10.5999 8.24984C9.63342 8.24984 8.84992 9.03334 8.84992 9.99984C8.84992 10.9663 9.63342 11.7498 10.5999 11.7498C11.5664 11.7498 12.3499 10.9663 12.3499 9.99984C12.3499 9.03334 11.5664 8.24984 10.5999 8.24984ZM7.34992 9.99984C7.34992 8.20491 8.80499 6.74984 10.5999 6.74984C12.3948 6.74984 13.8499 8.20491 13.8499 9.99984C13.8499 11.7948 12.3948 13.2498 10.5999 13.2498C8.80499 13.2498 7.34992 11.7948 7.34992 9.99984Z" fill="#121212"/>
</svg>
