<svg width="21" height="20" viewBox="0 0 21 20" fill="none" xmlns="http://www.w3.org/2000/svg">
<path fill-rule="evenodd" clip-rule="evenodd" d="M15.8018 4.0835L5.8018 4.08351C5.29554 4.08351 4.88513 4.49392 4.88513 5.00018V13.3633C4.88513 13.8696 5.29554 14.28 5.8018 14.28H8.00982C8.38179 14.28 8.74189 14.4109 9.02695 14.6499L10.8011 16.137L12.6031 14.644C12.8871 14.4087 13.2444 14.28 13.6132 14.28L15.8018 14.28C16.3081 14.28 16.7185 13.8696 16.7185 13.3633V5.00016C16.7185 4.4939 16.3081 4.0835 15.8018 4.0835ZM5.80179 2.58351L15.8018 2.5835C17.1365 2.58349 18.2185 3.66547 18.2185 5.00016V13.3633C18.2185 14.698 17.1365 15.78 15.8018 15.78L13.6132 15.78C13.5938 15.78 13.575 15.7867 13.5601 15.7991L11.2767 17.6908C10.9979 17.9218 10.5939 17.9207 10.3164 17.6881L8.06335 15.7994C8.04835 15.7869 8.02939 15.78 8.00982 15.78H5.8018C4.46711 15.78 3.38513 14.698 3.38513 13.3633V5.00018C3.38513 3.6655 4.46711 2.58352 5.80179 2.58351Z" fill="#121212"/>
<path d="M7.2583 9.79183C7.02818 9.79183 6.84163 9.60528 6.84163 9.37516C6.84163 9.14504 7.02818 8.95849 7.2583 8.95849C7.48842 8.95849 7.67497 9.14504 7.67497 9.37516C7.67497 9.60528 7.48842 9.79183 7.2583 9.79183Z" fill="#121212"/>
<path d="M10.8 9.79183C10.5698 9.79183 10.3833 9.60528 10.3833 9.37516C10.3833 9.14504 10.5698 8.95849 10.8 8.95849C11.0301 8.95849 11.2166 9.14504 11.2166 9.37516C11.2166 9.60528 11.0301 9.79183 10.8 9.79183Z" fill="#121212"/>
<path d="M14.3416 9.79183C14.1115 9.79183 13.925 9.60528 13.925 9.37516C13.925 9.14504 14.1115 8.95849 14.3416 8.95849C14.5718 8.95849 14.7583 9.14504 14.7583 9.37516C14.7583 9.60528 14.5718 9.79183 14.3416 9.79183Z" fill="#121212"/>
<path fill-rule="evenodd" clip-rule="evenodd" d="M7.2583 10.4168C6.683 10.4168 6.21663 9.95046 6.21663 9.37516C6.21663 8.79986 6.683 8.33349 7.2583 8.33349C7.8336 8.33349 8.29997 8.79986 8.29997 9.37516C8.29997 9.95046 7.8336 10.4168 7.2583 10.4168ZM10.8 10.4168C10.2247 10.4168 9.7583 9.95046 9.7583 9.37516C9.7583 8.79986 10.2247 8.33349 10.8 8.33349C11.3753 8.33349 11.8416 8.79986 11.8416 9.37516C11.8416 9.95046 11.3753 10.4168 10.8 10.4168ZM14.3416 10.4168C13.7663 10.4168 13.3 9.95046 13.3 9.37516C13.3 8.79986 13.7663 8.33349 14.3416 8.33349C14.9169 8.33349 15.3833 8.79986 15.3833 9.37516C15.3833 9.95046 14.9169 10.4168 14.3416 10.4168ZM7.2583 9.79183C7.02818 9.79183 6.84163 9.60528 6.84163 9.37516C6.84163 9.14504 7.02818 8.95849 7.2583 8.95849C7.48842 8.95849 7.67497 9.14504 7.67497 9.37516C7.67497 9.60528 7.48842 9.79183 7.2583 9.79183ZM10.8 9.79183C10.5698 9.79183 10.3833 9.60528 10.3833 9.37516C10.3833 9.14504 10.5698 8.95849 10.8 8.95849C11.0301 8.95849 11.2166 9.14504 11.2166 9.37516C11.2166 9.60528 11.0301 9.79183 10.8 9.79183ZM13.925 9.37516C13.925 9.60528 14.1115 9.79183 14.3416 9.79183C14.5718 9.79183 14.7583 9.60528 14.7583 9.37516C14.7583 9.14504 14.5718 8.95849 14.3416 8.95849C14.1115 8.95849 13.925 9.14504 13.925 9.37516Z" fill="#121212"/>
</svg>
