<svg width="20" height="20" viewBox="0 0 20 20" fill="none" xmlns="http://www.w3.org/2000/svg">
<path fill-rule="evenodd" clip-rule="evenodd" d="M11.0036 5.08325C11.342 3.64959 12.6294 2.58325 14.1667 2.58325C15.9622 2.58325 17.4167 4.03779 17.4167 5.83325C17.4167 7.62872 15.9622 9.08325 14.1667 9.08325C12.6294 9.08325 11.342 8.01691 11.0036 6.58325H3.33336C2.91915 6.58325 2.58336 6.24747 2.58336 5.83325C2.58336 5.41904 2.91915 5.08325 3.33336 5.08325H11.0036ZM14.1667 4.08325C13.1997 4.08325 12.4167 4.86622 12.4167 5.83325C12.4167 6.80029 13.1997 7.58325 14.1667 7.58325C15.1337 7.58325 15.9167 6.80029 15.9167 5.83325C15.9167 4.86622 15.1337 4.08325 14.1667 4.08325ZM4.33692 13.4166C4.67534 11.9829 5.96271 10.9166 7.50003 10.9166C9.03734 10.9166 10.3247 11.9829 10.6631 13.4166H16.6667C17.0809 13.4166 17.4167 13.7524 17.4167 14.1666C17.4167 14.5808 17.0809 14.9166 16.6667 14.9166H10.6631C10.3247 16.3502 9.03734 17.4166 7.50003 17.4166C5.96271 17.4166 4.67534 16.3502 4.33692 14.9166H3.33336C2.91915 14.9166 2.58336 14.5808 2.58336 14.1666C2.58336 13.7524 2.91915 13.4166 3.33336 13.4166H4.33692ZM7.50003 12.4166C6.53299 12.4166 5.75003 13.1995 5.75003 14.1666C5.75003 15.1336 6.53299 15.9166 7.50003 15.9166C8.46706 15.9166 9.25003 15.1336 9.25003 14.1666C9.25003 13.1995 8.46706 12.4166 7.50003 12.4166Z" fill="#121212"/>
</svg>
