<svg width="21" height="20" viewBox="0 0 21 20" fill="none" xmlns="http://www.w3.org/2000/svg">
<path fill-rule="evenodd" clip-rule="evenodd" d="M4.0246 9.25H6.66583C6.74439 7.39049 7.11293 5.69279 7.69102 4.3921C7.77511 4.20289 7.86461 4.01989 7.95954 3.84446C5.83206 4.80466 4.29152 6.8354 4.0246 9.25ZM10.7334 1.75C6.17705 1.75 2.4834 5.44365 2.4834 10C2.4834 14.5563 6.17705 18.25 10.7334 18.25C15.2897 18.25 18.9834 14.5563 18.9834 10C18.9834 5.44365 15.2897 1.75 10.7334 1.75ZM10.7334 3.25C10.5172 3.25 10.2548 3.34546 9.95295 3.63268C9.64728 3.92358 9.33788 4.37997 9.06174 5.0013C8.58058 6.08389 8.24502 7.56684 8.16728 9.25H13.2995C13.2218 7.56684 12.8862 6.08389 12.4051 5.0013C12.1289 4.37997 11.8195 3.92358 11.5138 3.63268C11.212 3.34546 10.9496 3.25 10.7334 3.25ZM14.801 9.25C14.7224 7.39049 14.3539 5.69279 13.7758 4.3921C13.6917 4.20289 13.6022 4.01989 13.5073 3.84446C15.6347 4.80466 17.1753 6.8354 17.4422 9.25H14.801ZM13.2995 10.75H8.16728C8.24502 12.4332 8.58058 13.9161 9.06173 14.9987C9.33788 15.62 9.64728 16.0764 9.95295 16.3673C10.2548 16.6545 10.5172 16.75 10.7334 16.75C10.9496 16.75 11.212 16.6545 11.5138 16.3673C11.8195 16.0764 12.1289 15.62 12.4051 14.9987C12.8862 13.9161 13.2218 12.4332 13.2995 10.75ZM13.5073 16.1555C13.6022 15.9801 13.6917 15.7971 13.7758 15.6079C14.3539 14.3072 14.7224 12.6095 14.801 10.75H17.4422C17.1753 13.1646 15.6347 15.1953 13.5073 16.1555ZM7.95954 16.1555C7.86461 15.9801 7.77511 15.7971 7.69102 15.6079C7.11293 14.3072 6.74439 12.6095 6.66583 10.75H4.0246C4.29152 13.1646 5.83206 15.1953 7.95954 16.1555Z" fill="#121212"/>
</svg>
