<svg width="21" height="20" viewBox="0 0 21 20" fill="none" xmlns="http://www.w3.org/2000/svg">
<path fill-rule="evenodd" clip-rule="evenodd" d="M7.46666 4.0835C6.50016 4.0835 5.71666 4.867 5.71666 5.8335C5.71666 6.79999 6.50016 7.5835 7.46666 7.5835C8.43316 7.5835 9.21666 6.79999 9.21666 5.8335C9.21666 4.867 8.43316 4.0835 7.46666 4.0835ZM4.21666 5.8335C4.21666 4.03857 5.67173 2.5835 7.46666 2.5835C9.26158 2.5835 10.7167 4.03857 10.7167 5.8335C10.7167 7.62842 9.26158 9.0835 7.46666 9.0835C5.67173 9.0835 4.21666 7.62842 4.21666 5.8335ZM14.9667 4.91683C14.2303 4.91683 13.6333 5.51378 13.6333 6.25016C13.6333 6.98654 14.2303 7.5835 14.9667 7.5835C15.703 7.5835 16.3 6.98654 16.3 6.25016C16.3 5.51378 15.703 4.91683 14.9667 4.91683ZM12.1333 6.25016C12.1333 4.68536 13.4018 3.41683 14.9667 3.41683C16.5315 3.41683 17.8 4.68536 17.8 6.25016C17.8 7.81497 16.5315 9.0835 14.9667 9.0835C13.4018 9.0835 12.1333 7.81497 12.1333 6.25016ZM18.4041 15.0701C17.8875 12.2701 15.8989 11.2902 14.3025 11.6598C13.8989 11.7532 13.4961 11.5018 13.4026 11.0983C13.3092 10.6947 13.5606 10.2919 13.9642 10.1984C16.5278 9.60493 19.2393 11.2997 19.8815 14.8105C20.0632 15.8035 19.2521 16.5835 18.3604 16.5835H15.7999C15.3857 16.5835 15.0499 16.2477 15.0499 15.8335C15.0499 15.4193 15.3857 15.0835 15.7999 15.0835H18.3604C18.3819 15.0835 18.3964 15.0762 18.4041 15.0701ZM3.31091 15.8963L3.31237 15.8981C3.32018 15.9068 3.3363 15.9168 3.3608 15.9168H11.5725C11.597 15.9168 11.6131 15.9068 11.6209 15.8981L11.6224 15.8964C11.1255 12.9026 9.2146 11.5835 7.46666 11.5835C5.71871 11.5835 3.80781 12.9026 3.31091 15.8963ZM7.46666 10.0835C10.0681 10.0835 12.5066 12.0584 13.1025 15.6525C13.2646 16.6308 12.4728 17.4168 11.5725 17.4168H3.3608C2.46056 17.4168 1.66867 16.6308 1.83086 15.6525C2.42672 12.0584 4.86518 10.0835 7.46666 10.0835Z" fill="#121212"/>
</svg>
