<svg width="21" height="20" viewBox="0 0 21 20" fill="none" xmlns="http://www.w3.org/2000/svg">
<path d="M14.6593 2.58983C15.0703 2.6412 15.3616 3.01548 15.3104 3.42642L14.9995 5.91666H17.0666C17.4808 5.91666 17.8169 6.25277 17.8169 6.66698C17.8169 7.08119 17.4808 7.41731 17.0666 7.41731H14.8115L14.1662 12.5833H17.0666C17.4808 12.5833 17.8169 12.9194 17.8169 13.3336C17.8169 13.7479 17.4808 14.084 17.0666 14.084H13.9782L13.6437 16.7598C13.5923 17.1707 13.2181 17.4621 12.8071 17.4108C12.3962 17.3594 12.1048 16.9851 12.1561 16.5742L12.467 14.084H7.31152L6.97705 16.7598C6.92568 17.1707 6.5514 17.4621 6.14046 17.4108C5.72951 17.3594 5.43816 16.9851 5.48942 16.5742L5.80029 14.084H3.73324C3.31902 14.084 2.98291 13.7479 2.98291 13.3336C2.98291 12.9194 3.31902 12.5833 3.73324 12.5833H5.98828L6.63363 7.41731H3.73324C3.31902 7.41731 2.98291 7.08119 2.98291 6.66698C2.98291 6.25277 3.31902 5.91666 3.73324 5.91666H6.82161L7.15609 3.24087C7.20746 2.82993 7.58174 2.53858 7.99268 2.58983C8.40362 2.6412 8.69497 3.01548 8.64372 3.42642L8.33284 5.91666H13.4883L13.8228 3.24087C13.8741 2.82993 14.2484 2.53858 14.6593 2.58983ZM7.49951 12.5833H12.6549L13.3003 7.41731H8.14486L7.49951 12.5833Z" fill="#121212"/>
</svg>
