<svg width="20" height="20" viewBox="0 0 20 20" fill="none" xmlns="http://www.w3.org/2000/svg">
<path fill-rule="evenodd" clip-rule="evenodd" d="M10 5.83366C10.3452 5.83366 10.625 6.11348 10.625 6.45866V9.74144L13.3586 12.475C13.6027 12.7191 13.6027 13.1149 13.3586 13.3589C13.1145 13.603 12.7188 13.603 12.4747 13.3589L9.55806 10.4423C9.44085 10.3251 9.375 10.1661 9.375 10.0003V6.45866C9.375 6.11348 9.65483 5.83366 10 5.83366Z" fill="#121212"/>
<path fill-rule="evenodd" clip-rule="evenodd" d="M2.29167 3.33366C2.63685 3.33366 2.91667 3.61348 2.91667 3.95866V6.66699H5.62501C5.97018 6.66699 6.25 6.94681 6.25 7.29199C6.25 7.63717 5.97018 7.91699 5.62501 7.91699H2.29167C1.94649 7.91699 1.66667 7.63717 1.66667 7.29199V3.95866C1.66667 3.61348 1.94649 3.33366 2.29167 3.33366Z" fill="#121212"/>
<path fill-rule="evenodd" clip-rule="evenodd" d="M9.98871 3.04199C7.10137 3.04199 4.62308 4.79492 3.56527 7.2949C3.40387 7.67637 2.96377 7.85476 2.5823 7.69335C2.20083 7.53194 2.02244 7.09185 2.18385 6.71038C3.46854 3.67417 6.47877 1.54199 9.98871 1.54199C14.6653 1.54199 18.4583 5.32788 18.4583 10.0003C18.4583 14.6728 14.6653 18.4587 9.98871 18.4587C6.3005 18.4587 3.16395 16.1046 2.00132 12.82C1.86311 12.4296 2.0676 12.001 2.45808 11.8628C2.84855 11.7245 3.27714 11.929 3.41535 12.3195C4.37221 15.0227 6.95457 16.9587 9.98871 16.9587C13.839 16.9587 16.9583 13.8423 16.9583 10.0003C16.9583 6.15838 13.839 3.04199 9.98871 3.04199Z" fill="#121212"/>
</svg>
