<svg width="21" height="20" viewBox="0 0 21 20" fill="none" xmlns="http://www.w3.org/2000/svg">
<path fill-rule="evenodd" clip-rule="evenodd" d="M2.9834 4.99992C2.9834 3.66523 4.06538 2.58325 5.40007 2.58325H15.4001C16.7348 2.58325 17.8167 3.66523 17.8167 4.99992V14.9999C17.8167 16.3346 16.7348 17.4166 15.4001 17.4166H5.40007C4.06538 17.4166 2.9834 16.3346 2.9834 14.9999V4.99992ZM5.40007 4.08325C4.8938 4.08325 4.4834 4.49366 4.4834 4.99992V11.5226L5.35789 10.6481C6.30166 9.70433 7.83181 9.70433 8.77557 10.6481L14.0441 15.9166H15.4001C15.9063 15.9166 16.3167 15.5062 16.3167 14.9999V4.99992C16.3167 4.49366 15.9063 4.08325 15.4001 4.08325H5.40007ZM11.9227 15.9166L7.71491 11.7088C7.35693 11.3508 6.77653 11.3508 6.41855 11.7088L4.4834 13.6439V14.9999C4.4834 15.5062 4.8938 15.9166 5.40007 15.9166H11.9227ZM12.4834 6.99992C11.9771 6.99992 11.5667 7.41032 11.5667 7.91659C11.5667 8.42285 11.9771 8.83325 12.4834 8.83325C12.9897 8.83325 13.4001 8.42285 13.4001 7.91659C13.4001 7.41032 12.9897 6.99992 12.4834 6.99992ZM10.0667 7.91659C10.0667 6.5819 11.1487 5.49992 12.4834 5.49992C13.8181 5.49992 14.9001 6.5819 14.9001 7.91659C14.9001 9.25127 13.8181 10.3333 12.4834 10.3333C11.1487 10.3333 10.0667 9.25127 10.0667 7.91659Z" fill="#121212"/>
</svg>
