<svg width="20" height="20" viewBox="0 0 20 20" fill="none" xmlns="http://www.w3.org/2000/svg">
<path d="M2.58301 15V5C2.58301 3.66531 3.66531 2.58301 5 2.58301H9.375L9.4515 2.58708C9.82978 2.62539 10.1253 2.94494 10.1253 3.33333C10.1253 3.72173 9.82978 4.04127 9.4515 4.07959L9.375 4.08366H5C4.49374 4.08366 4.08366 4.49374 4.08366 5V15L4.08773 15.0936C4.13459 15.5559 4.52532 15.9163 5 15.9163H9.375L9.4515 15.9204C9.82978 15.9587 10.1253 16.2783 10.1253 16.6667C10.1253 17.0551 9.82978 17.3746 9.4515 17.4129L9.375 17.417H5C3.70707 17.417 2.65106 16.4013 2.58626 15.1245L2.58301 15ZM12.3861 5.7194C12.6607 5.44477 13.0957 5.42775 13.3903 5.66813L13.4473 5.7194L17.1973 9.4694L17.2485 9.52637C17.4889 9.82095 17.4719 10.256 17.1973 10.5306L13.4473 14.2806C13.1544 14.5735 12.679 14.5735 12.3861 14.2806C12.0932 13.9877 12.0932 13.5123 12.3861 13.2194L14.8551 10.7503H7.29167C6.87746 10.7503 6.54135 10.4142 6.54134 10C6.54134 9.58579 6.87745 9.24967 7.29167 9.24967H14.8551L12.3861 6.7806L12.3348 6.72363C12.0944 6.42905 12.1114 5.99403 12.3861 5.7194Z" fill="#121212"/>
</svg>
