<svg width="20" height="20" viewBox="0 0 20 20" fill="none" xmlns="http://www.w3.org/2000/svg">
<path fill-rule="evenodd" clip-rule="evenodd" d="M9.99997 3.25C7.19253 3.25 4.91664 5.52589 4.91664 8.33333C4.91664 9.93771 5.63417 11.5234 6.60802 12.9249C7.57616 14.3182 8.74964 15.4606 9.55034 16.1627C9.81445 16.3942 10.1855 16.3942 10.4496 16.1627C11.2503 15.4606 12.4238 14.3182 13.3919 12.9249C14.3658 11.5234 15.0833 9.93771 15.0833 8.33333C15.0833 5.52589 12.8074 3.25 9.99997 3.25ZM3.41664 8.33333C3.41664 4.69746 6.3641 1.75 9.99997 1.75C13.6358 1.75 16.5833 4.69746 16.5833 8.33333C16.5833 10.3711 15.6818 12.2582 14.6237 13.7808C13.56 15.3117 12.2889 16.5449 11.4385 17.2905C10.6085 18.0183 9.39145 18.0183 8.56144 17.2905C7.71107 16.5449 6.43992 15.3117 5.3762 13.7808C4.3182 12.2582 3.41664 10.3711 3.41664 8.33333ZM9.99814 7C9.26176 7 8.66481 7.59695 8.66481 8.33333C8.66481 9.06971 9.26176 9.66667 9.99814 9.66667C10.7345 9.66667 11.3315 9.06971 11.3315 8.33333C11.3315 7.59695 10.7345 7 9.99814 7ZM7.16481 8.33333C7.16481 6.76853 8.43334 5.5 9.99814 5.5C11.563 5.5 12.8315 6.76853 12.8315 8.33333C12.8315 9.89814 11.563 11.1667 9.99814 11.1667C8.43334 11.1667 7.16481 9.89814 7.16481 8.33333Z" fill="#121212"/>
</svg>
