<svg width="21" height="20" viewBox="0 0 21 20" fill="none" xmlns="http://www.w3.org/2000/svg">
<path d="M18.1 14.2495L18.1765 14.2536C18.5548 14.2919 18.8503 14.6114 18.8503 14.9998C18.8503 15.3882 18.5548 15.7078 18.1765 15.7461L18.1 15.7502H3.1C2.68578 15.7502 2.34967 15.4141 2.34967 14.9998C2.34967 14.5856 2.68578 14.2495 3.1 14.2495H18.1ZM18.1 9.24951L18.1765 9.25358C18.5548 9.2919 18.8503 9.61144 18.8503 9.99984C18.8503 10.3882 18.5548 10.7078 18.1765 10.7461L18.1 10.7502H3.1C2.68578 10.7502 2.34967 10.4141 2.34967 9.99984C2.34967 9.58562 2.68578 9.24951 3.1 9.24951H18.1ZM18.1 4.24951L18.1765 4.25358C18.5548 4.2919 18.8503 4.61144 18.8503 4.99984C18.8503 5.38823 18.5548 5.70778 18.1765 5.74609L18.1 5.75016H3.1C2.68578 5.75016 2.34967 5.41405 2.34967 4.99984C2.34967 4.58562 2.68578 4.24951 3.1 4.24951H18.1Z" fill="#121212"/>
</svg>
