<svg width="21" height="20" viewBox="0 0 21 20" fill="none" xmlns="http://www.w3.org/2000/svg">
<path fill-rule="evenodd" clip-rule="evenodd" d="M10.3165 16.6667C10.3165 16.7127 10.3538 16.75 10.3999 16.75C10.4459 16.75 10.4832 16.7127 10.4832 16.6667C10.4832 16.6206 10.4459 16.5833 10.3999 16.5833C10.3538 16.5833 10.3165 16.6206 10.3165 16.6667ZM10.3999 18.25C9.52541 18.25 8.81653 17.5411 8.81653 16.6667C8.81653 15.7922 9.52541 15.0833 10.3999 15.0833C11.2743 15.0833 11.9832 15.7922 11.9832 16.6667C11.9832 17.5411 11.2743 18.25 10.3999 18.25ZM10.3165 10C10.3165 10.046 10.3538 10.0833 10.3999 10.0833C10.4459 10.0833 10.4832 10.046 10.4832 10C10.4832 9.95398 10.4459 9.91667 10.3999 9.91667C10.3538 9.91667 10.3165 9.95398 10.3165 10ZM10.3999 11.5833C9.52541 11.5833 8.81653 10.8745 8.81653 10C8.81653 9.12555 9.52541 8.41667 10.3999 8.41667C11.2743 8.41667 11.9832 9.12555 11.9832 10C11.9832 10.8745 11.2743 11.5833 10.3999 11.5833ZM10.3165 3.33333C10.3165 3.37936 10.3538 3.41667 10.3999 3.41667C10.4459 3.41667 10.4832 3.37936 10.4832 3.33333C10.4832 3.28731 10.4459 3.25 10.3999 3.25C10.3538 3.25 10.3165 3.28731 10.3165 3.33333ZM10.3999 4.91667C9.52541 4.91667 8.81653 4.20778 8.81653 3.33333C8.81653 2.45888 9.52541 1.75 10.3999 1.75C11.2743 1.75 11.9832 2.45888 11.9832 3.33333C11.9832 4.20778 11.2743 4.91667 10.3999 4.91667Z" fill="#121212"/>
</svg>
