<svg width="21" height="20" viewBox="0 0 21 20" fill="none" xmlns="http://www.w3.org/2000/svg">
<path fill-rule="evenodd" clip-rule="evenodd" d="M4.80125 7.45631C4.96107 4.25973 7.59942 1.75 10.8 1.75C14.0006 1.75 16.6389 4.25973 16.7988 7.45631L16.9483 10.4466C16.9546 10.5733 16.9872 10.6973 17.0439 10.8107L18.0663 12.8556C18.1652 13.0533 18.2167 13.2714 18.2167 13.4925C18.2167 14.279 17.579 14.9167 16.7925 14.9167H14.8146C14.4624 16.8136 12.799 18.25 10.8 18.25C8.80103 18.25 7.13755 16.8136 6.78539 14.9167H4.80751C4.02096 14.9167 3.38333 14.279 3.38333 13.4925C3.38333 13.2714 3.43481 13.0533 3.53369 12.8556L4.5561 10.8107C4.61283 10.6973 4.6454 10.5733 4.65173 10.4466L4.80125 7.45631ZM8.32722 14.9167C8.64859 15.9776 9.6341 16.75 10.8 16.75C11.9659 16.75 12.9514 15.9776 13.2728 14.9167H8.32722ZM10.8 3.25C8.39874 3.25 6.41929 5.13295 6.29937 7.53121L6.14986 10.5215C6.13316 10.8555 6.04731 11.1824 5.89774 11.4816L4.93019 13.4167H16.6698L15.7023 11.4816C15.5527 11.1824 15.4668 10.8555 15.4501 10.5215L15.3006 7.53122C15.1807 5.13295 13.2013 3.25 10.8 3.25Z" fill="#121212"/>
</svg>
