<svg width="21" height="20" viewBox="0 0 21 20" fill="none" xmlns="http://www.w3.org/2000/svg">
<path fill-rule="evenodd" clip-rule="evenodd" d="M4.0166 4.16667C4.0166 2.83198 5.09858 1.75 6.43327 1.75H14.7666C16.1013 1.75 17.1833 2.83198 17.1833 4.16667V15.8333C17.1833 17.168 16.1013 18.25 14.7666 18.25H6.43327C5.09858 18.25 4.0166 17.168 4.0166 15.8333V4.16667ZM6.43327 3.25C5.92701 3.25 5.5166 3.66041 5.5166 4.16667V15.8333C5.5166 16.3396 5.92701 16.75 6.43327 16.75H14.7666C15.2729 16.75 15.6833 16.3396 15.6833 15.8333V4.16667C15.6833 3.66041 15.2729 3.25 14.7666 3.25H6.43327ZM7.34993 5.83333C7.34993 5.41912 7.68572 5.08333 8.09994 5.08333H13.0999C13.5141 5.08333 13.8499 5.41912 13.8499 5.83333C13.8499 6.24755 13.5141 6.58333 13.0999 6.58333H8.09994C7.68572 6.58333 7.34993 6.24755 7.34993 5.83333ZM7.34993 9.16667C7.34993 8.75245 7.68572 8.41667 8.09994 8.41667H13.0999C13.5141 8.41667 13.8499 8.75245 13.8499 9.16667C13.8499 9.58088 13.5141 9.91667 13.0999 9.91667H8.09994C7.68572 9.91667 7.34993 9.58088 7.34993 9.16667ZM7.34993 12.5C7.34993 12.0858 7.68572 11.75 8.09994 11.75H9.7666C10.1808 11.75 10.5166 12.0858 10.5166 12.5C10.5166 12.9142 10.1808 13.25 9.7666 13.25H8.09994C7.68572 13.25 7.34993 12.9142 7.34993 12.5Z" fill="#121212"/>
</svg>
