<svg width="21" height="20" viewBox="0 0 21 20" fill="none" xmlns="http://www.w3.org/2000/svg">
<path fill-rule="evenodd" clip-rule="evenodd" d="M6.2332 3.25C5.72693 3.25 5.31653 3.6604 5.31653 4.16667V15.8333C5.31653 16.3396 5.72693 16.75 6.2332 16.75H10.3999C10.8141 16.75 11.1499 17.0858 11.1499 17.5C11.1499 17.9142 10.8141 18.25 10.3999 18.25H6.2332C4.89851 18.25 3.81653 17.168 3.81653 15.8333V4.16667C3.81653 2.83198 4.89851 1.75 6.2332 1.75H14.5665C15.9012 1.75 16.9832 2.83198 16.9832 4.16667V8.75C16.9832 9.16421 16.6474 9.5 16.2332 9.5C15.819 9.5 15.4832 9.16421 15.4832 8.75V4.16667C15.4832 3.66041 15.0728 3.25 14.5665 3.25H6.2332ZM7.14986 5.83333C7.14986 5.41912 7.48565 5.08333 7.89986 5.08333H12.8999C13.3141 5.08333 13.6499 5.41912 13.6499 5.83333C13.6499 6.24755 13.3141 6.58333 12.8999 6.58333H7.89986C7.48565 6.58333 7.14986 6.24755 7.14986 5.83333ZM7.14986 9.16667C7.14986 8.75245 7.48565 8.41667 7.89986 8.41667H9.56653C9.98074 8.41667 10.3165 8.75245 10.3165 9.16667C10.3165 9.58088 9.98074 9.91667 9.56653 9.91667H7.89986C7.48565 9.91667 7.14986 9.58088 7.14986 9.16667Z" fill="#121212"/>
<path fill-rule="evenodd" clip-rule="evenodd" d="M14.8999 17.8333C15.3141 17.8333 15.6499 17.4975 15.6499 17.0833V13.894L16.3695 14.6137C16.6624 14.9066 17.1373 14.9066 17.4302 14.6137C17.7231 14.3208 17.7231 13.8459 17.4302 13.553L15.4302 11.553C15.1373 11.2601 14.6624 11.2601 14.3695 11.553L12.3695 13.553C12.0766 13.8459 12.0766 14.3208 12.3695 14.6137C12.6624 14.9066 13.1373 14.9066 13.4302 14.6137L14.1499 13.894V17.0833C14.1499 17.4975 14.4856 17.8333 14.8999 17.8333Z" fill="#121212"/>
</svg>
