<svg width="21" height="20" viewBox="0 0 21 20" fill="none" xmlns="http://www.w3.org/2000/svg">
<path fill-rule="evenodd" clip-rule="evenodd" d="M6.43327 3.25C5.92701 3.25 5.5166 3.6604 5.5166 4.16667V15.8333C5.5166 16.3396 5.92701 16.75 6.43327 16.75H10.5999C11.0141 16.75 11.3499 17.0858 11.3499 17.5C11.3499 17.9142 11.0141 18.25 10.5999 18.25H6.43327C5.09858 18.25 4.0166 17.168 4.0166 15.8333V4.16667C4.0166 2.83198 5.09858 1.75 6.43327 1.75H14.7666C16.1013 1.75 17.1833 2.83198 17.1833 4.16667V8.75C17.1833 9.16421 16.8475 9.5 16.4333 9.5C16.0191 9.5 15.6833 9.16421 15.6833 8.75V4.16667C15.6833 3.66041 15.2729 3.25 14.7666 3.25H6.43327ZM7.34993 5.83333C7.34993 5.41912 7.68572 5.08333 8.09993 5.08333H13.0999C13.5141 5.08333 13.8499 5.41912 13.8499 5.83333C13.8499 6.24755 13.5141 6.58333 13.0999 6.58333H8.09993C7.68572 6.58333 7.34993 6.24755 7.34993 5.83333ZM7.34993 9.16667C7.34993 8.75245 7.68572 8.41667 8.09993 8.41667H9.7666C10.1808 8.41667 10.5166 8.75245 10.5166 9.16667C10.5166 9.58088 10.1808 9.91667 9.7666 9.91667H8.09993C7.68572 9.91667 7.34993 9.58088 7.34993 9.16667Z" fill="#121212"/>
<path fill-rule="evenodd" clip-rule="evenodd" d="M15.0999 11.3335C15.5141 11.3335 15.8499 11.6693 15.8499 12.0835V15.2728L16.5696 14.5532C16.8625 14.2603 17.3374 14.2603 17.6302 14.5532C17.9231 14.8461 17.9231 15.3209 17.6302 15.6138L16.6302 16.6138L15.6302 17.6138C15.3374 17.9067 14.8625 17.9067 14.5696 17.6138L12.5696 15.6138C12.2767 15.3209 12.2767 14.8461 12.5696 14.5532C12.8625 14.2603 13.3374 14.2603 13.6302 14.5532L14.3499 15.2728V12.0835C14.3499 11.6693 14.6857 11.3335 15.0999 11.3335Z" fill="#121212"/>
</svg>
