<svg width="20" height="20" viewBox="0 0 20 20" fill="none" xmlns="http://www.w3.org/2000/svg">
<path fill-rule="evenodd" clip-rule="evenodd" d="M9.99999 3.25C8.34314 3.25 6.99999 4.59315 6.99999 6.25C6.99999 7.90685 8.34314 9.25 9.99999 9.25C11.6568 9.25 13 7.90685 13 6.25C13 4.59315 11.6568 3.25 9.99999 3.25ZM5.49999 6.25C5.49999 3.76472 7.51471 1.75 9.99999 1.75C12.4853 1.75 14.5 3.76472 14.5 6.25C14.5 8.73528 12.4853 10.75 9.99999 10.75C7.51471 10.75 5.49999 8.73528 5.49999 6.25ZM6.66666 13.25C5.23993 13.25 4.08333 14.4066 4.08333 15.8333V16.6667C4.08333 17.0809 3.74754 17.4167 3.33333 17.4167C2.91911 17.4167 2.58333 17.0809 2.58333 16.6667V15.8333C2.58333 13.5782 4.4115 11.75 6.66666 11.75H13.3333C15.5885 11.75 17.4167 13.5782 17.4167 15.8333V16.6667C17.4167 17.0809 17.0809 17.4167 16.6667 17.4167C16.2524 17.4167 15.9167 17.0809 15.9167 16.6667V15.8333C15.9167 14.4066 14.7601 13.25 13.3333 13.25H6.66666Z" fill="#121212"/>
</svg>
