<svg width="21" height="20" viewBox="0 0 21 20" fill="none" xmlns="http://www.w3.org/2000/svg">
<path fill-rule="evenodd" clip-rule="evenodd" d="M5.80004 4.0835C5.26526 4.0835 4.93016 4.50069 4.98038 4.90423C5.68885 10.5973 10.2029 15.1114 15.896 15.8198C16.2995 15.87 16.7167 15.5349 16.7167 15.0002V13.9069C16.7167 13.5021 16.4512 13.1452 16.0634 13.0289L14.3946 12.5282C14.3653 12.5194 14.3334 12.5274 14.3117 12.5491L14.0949 12.766C13.3802 13.4807 12.2245 13.7249 11.2855 13.1314C9.82781 12.21 8.59023 10.9724 7.66881 9.5147C7.07529 8.57575 7.31955 7.42 8.03425 6.70529L8.25109 6.48846C8.27276 6.46678 8.28079 6.43495 8.27198 6.40559L7.77133 4.73676C7.65501 4.34902 7.29813 4.0835 6.89332 4.0835H5.80004ZM3.49186 5.08947C3.31474 3.66615 4.49387 2.5835 5.80004 2.5835H6.89332C7.96054 2.5835 8.90141 3.28353 9.20807 4.30574L9.70872 5.97456C9.87609 6.53248 9.72362 7.13724 9.31175 7.54912L9.09491 7.76595C8.80365 8.05722 8.77012 8.44963 8.93674 8.71323C9.73922 9.98275 10.8175 11.061 12.087 11.8635C12.3506 12.0301 12.743 11.9966 13.0342 11.7053L13.2511 11.4885C13.663 11.0766 14.2677 10.9241 14.8256 11.0915L16.4945 11.5921C17.5167 11.8988 18.2167 12.8397 18.2167 13.9069V15.0002C18.2167 16.3063 17.134 17.4855 15.7107 17.3083C9.33609 16.5151 4.28515 11.4641 3.49186 5.08947Z" fill="#121212"/>
</svg>
