<svg width="21" height="20" viewBox="0 0 21 20" fill="none" xmlns="http://www.w3.org/2000/svg">
<path fill-rule="evenodd" clip-rule="evenodd" d="M10.8 4.25C11.2142 4.25 11.55 4.58579 11.55 5V9.25H15.8C16.2142 9.25 16.55 9.58579 16.55 10C16.55 10.4142 16.2142 10.75 15.8 10.75H11.55V15C11.55 15.4142 11.2142 15.75 10.8 15.75C10.3858 15.75 10.05 15.4142 10.05 15V10.75H5.79999C5.38577 10.75 5.04999 10.4142 5.04999 10C5.04999 9.58579 5.38577 9.25 5.79999 9.25H10.05V5C10.05 4.58579 10.3858 4.25 10.8 4.25Z" fill="#121212"/>
</svg>
