<svg width="21" height="20" viewBox="0 0 21 20" fill="none" xmlns="http://www.w3.org/2000/svg">
<path fill-rule="evenodd" clip-rule="evenodd" d="M10.3951 2.15991C10.7992 2.15991 11.1269 2.48757 11.1269 2.89175V9.26307H17.4982C17.9024 9.26307 18.2301 9.59073 18.2301 9.99491C18.2301 10.3991 17.9024 10.7268 17.4982 10.7268H11.1269V17.0981C11.1269 17.5023 10.7992 17.8299 10.3951 17.8299C9.99087 17.8299 9.66322 17.5023 9.66322 17.0981V10.7268H3.2919C2.88771 10.7268 2.56006 10.3991 2.56006 9.99491C2.56006 9.59073 2.88771 9.26307 3.2919 9.26307H9.66322V2.89175C9.66322 2.48757 9.99087 2.15991 10.3951 2.15991Z" fill="#121212"/>
</svg>
