<svg width="21" height="20" viewBox="0 0 21 20" fill="none" xmlns="http://www.w3.org/2000/svg">
<path fill-rule="evenodd" clip-rule="evenodd" d="M2.34998 4.375C2.34998 2.92525 3.52523 1.75 4.97498 1.75H6.84998C8.29972 1.75 9.47498 2.92525 9.47498 4.375V6.25C9.47498 7.69975 8.29972 8.875 6.84998 8.875H4.97498C3.52523 8.875 2.34998 7.69975 2.34998 6.25V4.375ZM4.97498 3.25C4.35366 3.25 3.84998 3.75368 3.84998 4.375V6.25C3.84998 6.87132 4.35366 7.375 4.97498 7.375H6.84998C7.4713 7.375 7.97498 6.87132 7.97498 6.25V4.375C7.97498 3.75368 7.4713 3.25 6.84998 3.25H4.97498ZM11.725 4.375C11.725 2.92525 12.9002 1.75 14.35 1.75H16.225C17.6747 1.75 18.85 2.92525 18.85 4.375V6.25C18.85 7.69975 17.6747 8.875 16.225 8.875H14.35C12.9002 8.875 11.725 7.69975 11.725 6.25V4.375ZM14.35 3.25C13.7287 3.25 13.225 3.75368 13.225 4.375V6.25C13.225 6.87132 13.7287 7.375 14.35 7.375H16.225C16.8463 7.375 17.35 6.87132 17.35 6.25V4.375C17.35 3.75368 16.8463 3.25 16.225 3.25H14.35ZM2.34998 13.75C2.34998 12.3003 3.52523 11.125 4.97498 11.125H6.84998C8.29972 11.125 9.47498 12.3003 9.47498 13.75V15.625C9.47498 17.0747 8.29972 18.25 6.84998 18.25H4.97498C3.52523 18.25 2.34998 17.0747 2.34998 15.625V13.75ZM4.97498 12.625C4.35366 12.625 3.84998 13.1287 3.84998 13.75V15.625C3.84998 16.2463 4.35366 16.75 4.97498 16.75H6.84998C7.4713 16.75 7.97498 16.2463 7.97498 15.625V13.75C7.97498 13.1287 7.4713 12.625 6.84998 12.625H4.97498ZM12.475 11.125C12.8892 11.125 13.225 11.4608 13.225 11.875V13H14.35C14.7642 13 15.1 13.3358 15.1 13.75C15.1 14.1642 14.7642 14.5 14.35 14.5H12.475C12.0608 14.5 11.725 14.1642 11.725 13.75V11.875C11.725 11.4608 12.0608 11.125 12.475 11.125ZM15.475 11.875C15.475 11.4608 15.8108 11.125 16.225 11.125H18.1C18.5142 11.125 18.85 11.4608 18.85 11.875C18.85 12.2892 18.5142 12.625 18.1 12.625H16.225C15.8108 12.625 15.475 12.2892 15.475 11.875ZM15.475 15.625C15.475 15.2108 15.8108 14.875 16.225 14.875H18.1C18.5142 14.875 18.85 15.2108 18.85 15.625C18.85 16.0392 18.5142 16.375 18.1 16.375H16.975V17.5C16.975 17.9142 16.6392 18.25 16.225 18.25C15.8108 18.25 15.475 17.9142 15.475 17.5V15.625ZM12.475 16.7406C12.8892 16.7406 13.225 17.0764 13.225 17.4906V17.5C13.225 17.9142 12.8892 18.25 12.475 18.25C12.0608 18.25 11.725 17.9142 11.725 17.5V17.4906C11.725 17.0764 12.0608 16.7406 12.475 16.7406Z" fill="#121212"/>
</svg>
