<svg width="21" height="20" viewBox="0 0 21 20" fill="none" xmlns="http://www.w3.org/2000/svg">
<path fill-rule="evenodd" clip-rule="evenodd" d="M4.13333 3.95841C4.13333 2.69276 5.15935 1.66675 6.425 1.66675H15.175C16.4406 1.66675 17.4667 2.69276 17.4667 3.95841V17.7084C17.4667 17.9534 17.3235 18.1758 17.1006 18.2773C16.8776 18.3787 16.6159 18.3406 16.4312 18.1797L14.7104 16.6809L13.1783 18.1583C12.9362 18.3918 12.5527 18.3918 12.3106 18.1583L10.8 16.7017L9.28939 18.1583C9.04728 18.3918 8.66383 18.3918 8.42172 18.1583L6.88963 16.6809L5.16882 18.1797C4.98409 18.3406 4.72239 18.3787 4.49942 18.2773C4.27645 18.1758 4.13333 17.9534 4.13333 17.7084V3.95841ZM6.425 2.91675C5.8497 2.91675 5.38333 3.38312 5.38333 3.95841V16.3352L6.50062 15.3621C6.74503 15.1492 7.11163 15.1585 7.34494 15.3835L8.85555 16.8402L10.3662 15.3835C10.6083 15.15 10.9917 15.15 11.2338 15.3835L12.7444 16.8402L14.2551 15.3835C14.4884 15.1585 14.855 15.1492 15.0994 15.3621L16.2167 16.3352V3.95841C16.2167 3.38312 15.7503 2.91675 15.175 2.91675H6.425ZM13.4294 6.15538C13.6735 6.39946 13.6735 6.79518 13.4294 7.03926L10.7906 9.67815C10.6733 9.79536 10.5144 9.86121 10.3486 9.86121C10.1829 9.86121 10.0239 9.79536 9.90667 9.67815L8.58722 8.3587C8.34315 8.11462 8.34315 7.71889 8.58722 7.47482C8.8313 7.23074 9.22703 7.23074 9.47111 7.47482L10.3486 8.35232L12.5456 6.15538C12.7896 5.9113 13.1854 5.9113 13.4294 6.15538ZM7.46666 12.2917C7.46666 11.9466 7.74649 11.6667 8.09166 11.6667H13.5083C13.8535 11.6667 14.1333 11.9466 14.1333 12.2917C14.1333 12.6369 13.8535 12.9167 13.5083 12.9167H8.09166C7.74649 12.9167 7.46666 12.6369 7.46666 12.2917Z" fill="#121212"/>
</svg>
