<svg width="21" height="20" viewBox="0 0 21 20" fill="none" xmlns="http://www.w3.org/2000/svg">
<path d="M11.6333 12.5V10.5893C11.6333 10.218 12.0821 10.0321 12.3446 10.2946L14.672 12.622C14.9345 12.8845 14.7486 13.3333 14.3774 13.3333H12.4667C12.0064 13.3333 11.6333 12.9602 11.6333 12.5Z" fill="#121212"/>
<path d="M18.3 15.8333V17.7441C18.3 18.1153 17.8512 18.3012 17.5887 18.0387L15.2613 15.7113C14.9988 15.4488 15.1847 15 15.5559 15H17.4667C17.9269 15 18.3 15.3731 18.3 15.8333Z" fill="#121212"/>
<path fill-rule="evenodd" clip-rule="evenodd" d="M7.46663 1.75C7.88085 1.75 8.21663 2.08579 8.21663 2.5V3.41667H13.3833V2.5C13.3833 2.08579 13.7191 1.75 14.1333 1.75C14.5475 1.75 14.8833 2.08579 14.8833 2.5V3.41667H15.8C17.1347 3.41667 18.2166 4.49865 18.2166 5.83333V7.5C18.2166 7.91421 17.8808 8.25 17.4666 8.25H4.8833V15C4.8833 15.5063 5.29371 15.9167 5.79997 15.9167H9.1333C9.54751 15.9167 9.8833 16.2525 9.8833 16.6667C9.8833 17.0809 9.54751 17.4167 9.1333 17.4167H5.79997C4.46528 17.4167 3.3833 16.3347 3.3833 15V5.83333C3.3833 4.49865 4.46528 3.41667 5.79997 3.41667H6.71663V2.5C6.71663 2.08579 7.05242 1.75 7.46663 1.75ZM5.79997 4.91667C5.29371 4.91667 4.8833 5.32707 4.8833 5.83333V6.75H16.7166V5.83333C16.7166 5.32707 16.3062 4.91667 15.8 4.91667H5.79997ZM14.9666 11.8958C14.3244 11.8958 13.7316 12.1613 13.3115 12.5881C13.0209 12.8833 12.546 12.887 12.2509 12.5964C11.9557 12.3058 11.952 11.8309 12.2426 11.5357C12.935 10.8324 13.9089 10.3958 14.9666 10.3958C16.6895 10.3958 18.1407 11.5506 18.5921 13.1268C18.7061 13.525 18.4758 13.9403 18.0776 14.0543C17.6793 14.1684 17.2641 13.938 17.15 13.5398C16.878 12.5899 16.0024 11.8958 14.9666 11.8958ZM11.8557 14.279C12.2539 14.1649 12.6692 14.3953 12.7832 14.7935C13.0553 15.7434 13.9309 16.4375 14.9666 16.4375C15.5454 16.4375 16.084 16.222 16.4929 15.8664C16.8054 15.5946 17.2791 15.6275 17.551 15.9401C17.8228 16.2526 17.7898 16.7263 17.4773 16.9982C16.8054 17.5826 15.9201 17.9375 14.9666 17.9375C13.2438 17.9375 11.7926 16.7827 11.3412 15.2065C11.2272 14.8083 11.4575 14.393 11.8557 14.279Z" fill="#121212"/>
</svg>
