<svg width="21" height="20" viewBox="0 0 21 20" fill="none" xmlns="http://www.w3.org/2000/svg">
<path fill-rule="evenodd" clip-rule="evenodd" d="M12.3108 17.2803C12.0179 16.9874 12.0179 16.5126 12.3108 16.2197L16.6238 11.9067C16.9167 11.6138 17.3916 11.6138 17.6845 11.9067C17.9774 12.1996 17.9774 12.6744 17.6845 12.9673L13.3715 17.2803C13.0786 17.5732 12.6037 17.5732 12.3108 17.2803Z" fill="#121212"/>
<path fill-rule="evenodd" clip-rule="evenodd" d="M7.61957 17.2803C7.32668 16.9874 7.32668 16.5126 7.61957 16.2197L16.6196 7.21967C16.9125 6.92678 17.3873 6.92678 17.6802 7.21967C17.9731 7.51256 17.9731 7.98744 17.6802 8.28033L8.68023 17.2803C8.38734 17.5732 7.91247 17.5732 7.61957 17.2803Z" fill="#121212"/>
</svg>
