<svg width="21" height="20" viewBox="0 0 21 20" fill="none" xmlns="http://www.w3.org/2000/svg">
<path fill-rule="evenodd" clip-rule="evenodd" d="M3.18329 10.0002C3.18329 5.90405 6.50384 2.5835 10.6 2.5835C12.5469 2.5835 14.3512 3.33458 15.6932 4.56516V3.3335C15.6932 2.91928 16.0289 2.5835 16.4432 2.5835C16.8574 2.5835 17.1932 2.91928 17.1932 3.3335V6.04183C17.1932 6.80122 16.5775 7.41683 15.8182 7.41683H13.1098C12.6956 7.41683 12.3598 7.08104 12.3598 6.66683C12.3598 6.25262 12.6956 5.91683 13.1098 5.91683H14.9323C13.84 4.78843 12.2869 4.0835 10.6 4.0835C7.33227 4.0835 4.68329 6.73248 4.68329 10.0002C4.68329 10.4144 4.3475 10.7502 3.93329 10.7502C3.51908 10.7502 3.18329 10.4144 3.18329 10.0002ZM17.2666 9.25016C17.6808 9.25016 18.0166 9.58595 18.0166 10.0002C18.0166 14.0963 14.6961 17.4168 10.6 17.4168C8.65775 17.4168 6.85753 16.6694 5.51662 15.4442V16.6668C5.51662 17.081 5.18084 17.4168 4.76662 17.4168C4.35241 17.4168 4.01662 17.081 4.01662 16.6668V13.9585C4.01662 13.1991 4.63223 12.5835 5.39162 12.5835H7.89162C8.30584 12.5835 8.64162 12.9193 8.64162 13.3335C8.64162 13.7477 8.30584 14.0835 7.89162 14.0835H6.26757C7.35994 15.2119 8.91305 15.9168 10.6 15.9168C13.8676 15.9168 16.5166 13.2678 16.5166 10.0002C16.5166 9.58595 16.8524 9.25016 17.2666 9.25016Z" fill="#121212"/>
</svg>
