<svg width="21" height="20" viewBox="0 0 21 20" fill="none" xmlns="http://www.w3.org/2000/svg">
<path fill-rule="evenodd" clip-rule="evenodd" d="M4.56657 3.25C4.32345 3.25 4.0903 3.34658 3.91839 3.51849C3.74648 3.69039 3.6499 3.92355 3.6499 4.16667V5.83333C3.6499 6.24755 3.31412 6.58333 2.8999 6.58333C2.48569 6.58333 2.1499 6.24755 2.1499 5.83333V4.16667C2.1499 3.52573 2.40451 2.91104 2.85773 2.45783C3.31094 2.00461 3.92563 1.75 4.56657 1.75H6.23324C6.64745 1.75 6.98324 2.08579 6.98324 2.5C6.98324 2.91421 6.64745 3.25 6.23324 3.25H4.56657Z" fill="#121212"/>
<path fill-rule="evenodd" clip-rule="evenodd" d="M13.8166 2.5C13.8166 2.08579 14.1524 1.75 14.5666 1.75H16.2332C16.8742 1.75 17.4889 2.00461 17.9421 2.45783C18.3953 2.91104 18.6499 3.52573 18.6499 4.16667V5.83333C18.6499 6.24755 18.3141 6.58333 17.8999 6.58333C17.4857 6.58333 17.1499 6.24755 17.1499 5.83333V4.16667C17.1499 3.92355 17.0533 3.69039 16.8814 3.51849C16.7095 3.34658 16.4764 3.25 16.2332 3.25H14.5666C14.1524 3.25 13.8166 2.91421 13.8166 2.5Z" fill="#121212"/>
<path fill-rule="evenodd" clip-rule="evenodd" d="M17.8999 13.4167C18.3141 13.4167 18.6499 13.7525 18.6499 14.1667V15.8333C18.6499 16.4743 18.3953 17.089 17.9421 17.5422C17.4889 17.9954 16.8742 18.25 16.2332 18.25H14.5666C14.1524 18.25 13.8166 17.9142 13.8166 17.5C13.8166 17.0858 14.1524 16.75 14.5666 16.75H16.2332C16.4764 16.75 16.7095 16.6534 16.8814 16.4815C17.0533 16.3096 17.1499 16.0764 17.1499 15.8333V14.1667C17.1499 13.7525 17.4857 13.4167 17.8999 13.4167Z" fill="#121212"/>
<path fill-rule="evenodd" clip-rule="evenodd" d="M2.8999 13.4167C3.31412 13.4167 3.6499 13.7525 3.6499 14.1667V15.8333C3.6499 16.0764 3.74648 16.3096 3.91839 16.4815C4.0903 16.6534 4.32345 16.75 4.56657 16.75H6.23324C6.64745 16.75 6.98324 17.0858 6.98324 17.5C6.98324 17.9142 6.64745 18.25 6.23324 18.25H4.56657C3.92563 18.25 3.31094 17.9954 2.85773 17.5422C2.40451 17.089 2.1499 16.4743 2.1499 15.8333V14.1667C2.1499 13.7525 2.48569 13.4167 2.8999 13.4167Z" fill="#121212"/>
<path fill-rule="evenodd" clip-rule="evenodd" d="M5.48324 10C5.48324 9.58579 5.81902 9.25 6.23324 9.25H14.5666C14.9808 9.25 15.3166 9.58579 15.3166 10C15.3166 10.4142 14.9808 10.75 14.5666 10.75H6.23324C5.81902 10.75 5.48324 10.4142 5.48324 10Z" fill="#121212"/>
</svg>
