<svg width="21" height="20" viewBox="0 0 21 20" fill="none" xmlns="http://www.w3.org/2000/svg">
<path fill-rule="evenodd" clip-rule="evenodd" d="M9.76662 4.08325C6.95917 4.08325 4.68329 6.35914 4.68329 9.16658C4.68329 11.974 6.95917 14.2499 9.76662 14.2499C12.5741 14.2499 14.85 11.974 14.85 9.16658C14.85 6.35914 12.5741 4.08325 9.76662 4.08325ZM3.18329 9.16658C3.18329 5.53071 6.13075 2.58325 9.76662 2.58325C13.4025 2.58325 16.35 5.53071 16.35 9.16658C16.35 10.7143 15.8159 12.1373 14.9219 13.2612L17.7969 16.1362C18.0898 16.4291 18.0898 16.904 17.7969 17.1969C17.504 17.4898 17.0292 17.4898 16.7363 17.1969L13.8613 14.3219C12.7373 15.2158 11.3143 15.7499 9.76662 15.7499C6.13075 15.7499 3.18329 12.8025 3.18329 9.16658Z" fill="#121212"/>
</svg>
