<svg width="21" height="20" viewBox="0 0 21 20" fill="none" xmlns="http://www.w3.org/2000/svg">
<path fill-rule="evenodd" clip-rule="evenodd" d="M6.57045 2.5835L8.93329 2.5835C9.3475 2.5835 9.68329 2.91928 9.68329 3.3335V8.3335C9.68329 8.74771 9.3475 9.0835 8.93329 9.0835H3.93329C3.51908 9.0835 3.18329 8.74771 3.18329 8.3335L3.18329 5.97066C3.18328 5.5291 3.18327 5.15312 3.20849 4.84443C3.23498 4.52013 3.29301 4.20463 3.44669 3.90302C3.67838 3.4483 4.04809 3.07859 4.50281 2.8469C4.80442 2.69322 5.11992 2.63519 5.44422 2.6087C5.75291 2.58347 6.1289 2.58348 6.57045 2.5835ZM5.56637 4.10371C5.33483 4.12263 5.23871 4.15543 5.1838 4.18341C5.01132 4.27129 4.87108 4.41152 4.7832 4.58401C4.75522 4.63891 4.72242 4.73503 4.70351 4.96657C4.68387 5.20687 4.68329 5.52108 4.68329 6.00016V7.5835H8.18329V4.0835H6.59996C6.12087 4.0835 5.80666 4.08408 5.56637 4.10371ZM15.6335 4.10371C15.3933 4.08408 15.079 4.0835 14.6 4.0835H13.0166V7.5835H16.5166V6.00016C16.5166 5.52108 16.516 5.20687 16.4964 4.96657C16.4775 4.73503 16.4447 4.63891 16.4167 4.58401C16.3288 4.41152 16.1886 4.27129 16.0161 4.18341C15.9612 4.15543 15.8651 4.12263 15.6335 4.10371ZM15.7557 2.6087C16.08 2.63519 16.3955 2.69322 16.6971 2.8469C17.1518 3.07859 17.5215 3.4483 17.7532 3.90302C17.9069 4.20463 17.9649 4.52013 17.9914 4.84443C18.0166 5.15312 18.0166 5.5291 18.0166 5.97066V8.3335C18.0166 8.74771 17.6808 9.0835 17.2666 9.0835H12.2666C11.8524 9.0835 11.5166 8.74771 11.5166 8.3335V3.3335C11.5166 2.91928 11.8524 2.5835 12.2666 2.5835L14.6295 2.5835C15.071 2.58348 15.447 2.58347 15.7557 2.6087ZM3.18329 11.6668C3.18329 11.2526 3.51908 10.9168 3.93329 10.9168H8.93329C9.3475 10.9168 9.68329 11.2526 9.68329 11.6668V16.6668C9.68329 17.081 9.3475 17.4168 8.93329 17.4168H6.57045C6.12889 17.4168 5.75291 17.4169 5.44422 17.3916C5.11992 17.3651 4.80442 17.3071 4.50281 17.1534C4.04809 16.9217 3.67838 16.552 3.44669 16.0973C3.29301 15.7957 3.23498 15.4802 3.20849 15.1559C3.18327 14.8472 3.18328 14.4712 3.18329 14.0297L3.18329 11.6668ZM4.68329 12.4168V14.0002C4.68329 14.4792 4.68387 14.7935 4.70351 15.0338C4.72242 15.2653 4.75522 15.3614 4.7832 15.4163C4.87108 15.5888 5.01132 15.729 5.1838 15.8169C5.23871 15.8449 5.33483 15.8777 5.56637 15.8966C5.80666 15.9162 6.12087 15.9168 6.59996 15.9168H8.18329V12.4168H4.68329ZM11.5166 11.6668C11.5166 11.2526 11.8524 10.9168 12.2666 10.9168H17.2666C17.6808 10.9168 18.0166 11.2526 18.0166 11.6668V14.0297C18.0166 14.4712 18.0166 14.8472 17.9914 15.1559C17.9649 15.4802 17.9069 15.7957 17.7532 16.0973C17.5215 16.552 17.1518 16.9217 16.6971 17.1534C16.3955 17.3071 16.08 17.3651 15.7557 17.3916C15.447 17.4169 15.071 17.4168 14.6295 17.4168H12.2666C11.8524 17.4168 11.5166 17.081 11.5166 16.6668V11.6668ZM13.0166 12.4168V15.9168H14.6C15.079 15.9168 15.3933 15.9162 15.6335 15.8966C15.8651 15.8777 15.9612 15.8449 16.0161 15.8169C16.1886 15.729 16.3288 15.5888 16.4167 15.4163C16.4447 15.3614 16.4775 15.2653 16.4964 15.0338C16.516 14.7935 16.5166 14.4792 16.5166 14.0002V12.4168H13.0166Z" fill="#121212"/>
</svg>
