<svg width="21" height="20" viewBox="0 0 21 20" fill="none" xmlns="http://www.w3.org/2000/svg">
<path fill-rule="evenodd" clip-rule="evenodd" d="M10.8 3.25C10.5822 3.25 10.3788 3.35885 10.258 3.54006L9.79574 4.23341L9.21524 3.84641L9.79574 4.23341C9.24854 5.05421 8.25037 5.45058 7.28915 5.22876L6.71894 5.09717C6.48871 5.04404 6.24736 5.11326 6.08029 5.28033C5.91322 5.4474 5.844 5.68876 5.89713 5.91898L6.02871 6.48919C6.25053 7.45042 5.85417 8.44858 5.03336 8.99578L4.34002 9.45801C4.15881 9.57882 4.04996 9.78221 4.04996 10C4.04996 10.2178 4.1588 10.4212 4.34002 10.542L5.03337 11.0042C5.85417 11.5514 6.25053 12.5496 6.02871 13.5108L5.89713 14.081C5.844 14.3112 5.91322 14.5526 6.08029 14.7197C6.24736 14.8867 6.48871 14.956 6.71894 14.9028L7.28915 14.7712C8.25037 14.5494 9.24854 14.9458 9.79574 15.7666L10.258 16.4599C10.3788 16.6412 10.5822 16.75 10.8 16.75C11.0178 16.75 11.2211 16.6412 11.3419 16.4599L11.8042 15.7666C12.3514 14.9458 13.3495 14.5494 14.3108 14.7712L14.881 14.9028C15.1112 14.956 15.3526 14.8867 15.5196 14.7197C15.6867 14.5526 15.7559 14.3112 15.7028 14.081L15.5712 13.5108C15.3494 12.5496 15.7457 11.5514 16.5666 11.0042L17.2599 10.542C17.4411 10.4212 17.55 10.2178 17.55 10C17.55 9.78221 17.4411 9.57882 17.2599 9.45801L16.5666 8.99578C15.7457 8.44858 15.3494 7.45042 15.5712 6.48919L15.7028 5.91898C15.7559 5.68876 15.6867 5.4474 15.5196 5.28033C15.3526 5.11326 15.1112 5.04404 14.881 5.09717L14.3108 5.22876C13.3495 5.45058 12.3514 5.05421 11.8042 4.23341L11.3419 3.54006L11.9476 3.13631L11.3419 3.54006C11.2211 3.35885 11.0178 3.25 10.8 3.25ZM9.00989 2.70801C9.4089 2.1095 10.0806 1.75 10.8 1.75C11.5193 1.75 12.191 2.1095 12.59 2.70801L13.0522 3.40136C13.2534 3.70302 13.6202 3.84869 13.9735 3.76717L14.5437 3.63558C15.2779 3.46616 16.0475 3.68689 16.5803 4.21967C17.1131 4.75245 17.3338 5.5221 17.1644 6.25627L17.0328 6.82648C16.9513 7.17975 17.0969 7.5466 17.3986 7.74771L18.0919 8.20994C18.6905 8.60895 19.05 9.28068 19.05 10C19.05 10.7193 18.6905 11.3911 18.0919 11.7901L17.3986 12.2523C17.0969 12.4534 16.9513 12.8202 17.0328 13.1735L17.1644 13.7437C17.3338 14.4779 17.1131 15.2476 16.5803 15.7803C16.0475 16.3131 15.2779 16.5338 14.5437 16.3644L13.9735 16.2328C13.6202 16.1513 13.2534 16.297 13.0522 16.5986L12.59 17.292C12.191 17.8905 11.5193 18.25 10.8 18.25C10.0806 18.25 9.4089 17.8905 9.00989 17.292L8.54767 16.5986C8.34656 16.297 7.97971 16.1513 7.62644 16.2328L7.05622 16.3644C6.32206 16.5338 5.5524 16.3131 5.01963 15.7803C4.48685 15.2476 4.26612 14.4779 4.43554 13.7437L4.56713 13.1735C4.64865 12.8202 4.50298 12.4534 4.20131 12.2523L3.50797 11.7901C2.90946 11.3911 2.54996 10.7193 2.54996 10C2.54996 9.28068 2.90946 8.60895 3.50797 8.20994L4.20131 7.74771C4.50298 7.5466 4.64865 7.17975 4.56713 6.82648L4.43554 6.25627C4.26612 5.5221 4.48685 4.75245 5.01963 4.21967C5.5524 3.68689 6.32206 3.46616 7.05623 3.63558L7.62644 3.76717C7.97971 3.84869 8.34656 3.70302 8.54767 3.40136L9.1717 3.81738L8.54767 3.40136L9.00989 2.70801L9.54113 3.06217L9.00989 2.70801ZM7.54996 10C7.54996 8.20507 9.00503 6.75 10.8 6.75C12.5949 6.75 14.05 8.20507 14.05 10C14.05 11.7949 12.5949 13.25 10.8 13.25C9.00503 13.25 7.54996 11.7949 7.54996 10ZM10.8 8.25C9.83346 8.25 9.04996 9.0335 9.04996 10C9.04996 10.9665 9.83346 11.75 10.8 11.75C11.7665 11.75 12.55 10.9665 12.55 10C12.55 9.0335 11.7665 8.25 10.8 8.25Z" fill="#121212"/>
</svg>
