<svg width="21" height="20" viewBox="0 0 21 20" fill="none" xmlns="http://www.w3.org/2000/svg">
<path fill-rule="evenodd" clip-rule="evenodd" d="M9.81435 1.97696C10.3235 1.80195 10.8764 1.80195 11.3856 1.97696L16.3856 3.69571C17.3614 4.03116 18.0166 4.94922 18.0166 5.98112V9.92693C18.0166 12.2392 17.0716 13.9039 15.6989 15.2034C14.3967 16.4363 12.6887 17.3573 11.0828 18.2233C11.0405 18.2461 10.9982 18.2689 10.9561 18.2917C10.7338 18.4116 10.4661 18.4116 10.2439 18.2917C10.2017 18.2689 10.1595 18.2461 10.1171 18.2233C8.51119 17.3573 6.80318 16.4363 5.501 15.2034C4.1283 13.9039 3.18329 12.2392 3.18329 9.92693V5.98112C3.18329 4.94922 3.83849 4.03116 4.81435 3.69571L9.81435 1.97696ZM10.8979 3.39549C10.7048 3.32911 10.4951 3.32911 10.302 3.39549L5.30197 5.11424C4.93181 5.24148 4.68329 5.58971 4.68329 5.98112V9.92693C4.68329 11.7584 5.40494 13.0469 6.53225 14.1142C7.61364 15.138 9.04561 15.9389 10.6 16.7793C12.1543 15.9389 13.5863 15.138 14.6677 14.1142C15.795 13.0469 16.5166 11.7584 16.5166 9.92693V5.98112C16.5166 5.58971 16.2681 5.24148 15.8979 5.11424L10.8979 3.39549Z" fill="#121212"/>
</svg>
