<svg width="21" height="20" viewBox="0 0 21 20" fill="none" xmlns="http://www.w3.org/2000/svg">
<path d="M16.7163 5C16.7163 4.49374 16.3062 4.08366 15.8 4.08366H5.79999C5.29373 4.08366 4.88365 4.49374 4.88365 5V15L4.88772 15.0936C4.93458 15.5559 5.32531 15.9163 5.79999 15.9163H15.8C16.3062 15.9163 16.7163 15.5063 16.7163 15V5ZM18.217 15C18.217 16.3347 17.1347 17.417 15.8 17.417H5.79999C4.50706 17.417 3.45105 16.4013 3.38625 15.1245L3.383 15V5C3.383 3.66531 4.4653 2.58301 5.79999 2.58301H15.8C17.1347 2.58301 18.217 3.66531 18.217 5V15Z" fill="#121212"/>
<path d="M7.54966 15.8333V4.16667C7.54966 3.75245 7.88577 3.41634 8.29999 3.41634C8.7142 3.41634 9.05031 3.75245 9.05031 4.16667V15.8333C9.05031 16.2475 8.7142 16.5837 8.29999 16.5837C7.88577 16.5837 7.54966 16.2475 7.54966 15.8333Z" fill="#121212"/>
</svg>
