<svg width="20" height="20" viewBox="0 0 20 20" fill="none" xmlns="http://www.w3.org/2000/svg">
<path fill-rule="evenodd" clip-rule="evenodd" d="M10.0001 1.75C10.4143 1.75 10.7501 2.08579 10.7501 2.5V3.44444C13.8217 3.6728 16.4843 5.29188 17.9321 7.64525L17.2934 8.03825L17.9321 7.64525C18.3851 8.38151 18.2949 9.19509 17.8748 9.79575C17.468 10.3773 16.7663 10.75 15.9861 10.75H4.01397C3.23378 10.75 2.53211 10.3773 2.12535 9.79575C1.70519 9.19509 1.61498 8.38152 2.06796 7.64525C3.51582 5.29188 6.17841 3.6728 9.25005 3.44444V2.5C9.25005 2.08579 9.58584 1.75 10.0001 1.75ZM10.0001 4.91667C7.10628 4.91667 4.6217 6.35696 3.34553 8.43125C3.22964 8.61963 3.25023 8.78693 3.35449 8.93598C3.47215 9.10419 3.70853 9.25 4.01397 9.25H15.9861C16.2916 9.25 16.528 9.10419 16.6456 8.93598C16.7499 8.78692 16.7705 8.61963 16.6546 8.43125C15.3784 6.35696 12.8938 4.91667 10.0001 4.91667ZM10.0001 12.5833C10.4143 12.5833 10.7501 12.9191 10.7501 13.3333V15.8973C10.7501 17.1966 9.6967 18.25 8.39732 18.25C7.27581 18.25 6.31021 17.4584 6.09027 16.3587L5.93128 15.5638C5.85005 15.1576 6.11346 14.7625 6.51963 14.6812C6.9258 14.6 7.32092 14.8634 7.40216 15.2696L7.56114 16.0645C7.64086 16.4631 7.99083 16.75 8.39732 16.75C8.86827 16.75 9.25005 16.3682 9.25005 15.8973V13.3333C9.25005 12.9191 9.58584 12.5833 10.0001 12.5833Z" fill="#121212"/>
</svg>
