<svg width="20" height="20" viewBox="0 0 20 20" fill="none" xmlns="http://www.w3.org/2000/svg">
<path fill-rule="evenodd" clip-rule="evenodd" d="M10 2.58325C10.1989 2.58325 10.3897 2.66227 10.5303 2.80292L14.2804 6.55292C14.5732 6.84581 14.5732 7.32069 14.2804 7.61358C13.9875 7.90648 13.5126 7.90648 13.2197 7.61358L10.75 5.14391V12.7083C10.75 13.1225 10.4142 13.4583 10 13.4583C9.5858 13.4583 9.25002 13.1225 9.25002 12.7083V5.14392L6.78036 7.61358C6.48746 7.90648 6.01259 7.90648 5.7197 7.61358C5.4268 7.32069 5.4268 6.84582 5.71969 6.55292L9.46969 2.80292C9.61034 2.66227 9.8011 2.58325 10 2.58325ZM3.33336 9.87492C3.74757 9.87492 4.08336 10.2107 4.08336 10.6249V14.9999C4.08336 15.5062 4.49376 15.9166 5.00003 15.9166H15C15.5063 15.9166 15.9167 15.5062 15.9167 14.9999V10.6249C15.9167 10.2107 16.2525 9.87492 16.6667 9.87492C17.0809 9.87492 17.4167 10.2107 17.4167 10.6249V14.9999C17.4167 16.3346 16.3347 17.4166 15 17.4166H5.00003C3.66534 17.4166 2.58336 16.3346 2.58336 14.9999V10.6249C2.58336 10.2107 2.91915 9.87492 3.33336 9.87492Z" fill="#121212"/>
</svg>
