<svg width="21" height="20" viewBox="0 0 21 20" fill="none" xmlns="http://www.w3.org/2000/svg">
<path d="M18.3 3.4165L18.3765 3.42057C18.7548 3.45889 19.0503 3.77844 19.0503 4.16683V7.7085C19.0503 8.01517 18.863 8.29121 18.5783 8.40511C17.1239 8.98711 17.1239 11.0132 18.5783 11.5952L18.6808 11.6457C18.9072 11.779 19.0503 12.0236 19.0503 12.2918V15.8335C19.0503 16.2477 18.7142 16.5838 18.3 16.5838H3.29998C2.88576 16.5838 2.54965 16.2477 2.54965 15.8335V12.2918L2.5586 12.1787C2.59818 11.9188 2.77245 11.6949 3.02166 11.5952L3.15349 11.5366C4.43204 10.9091 4.43204 9.09125 3.15349 8.4637L3.02166 8.40511C2.73691 8.29121 2.54965 8.01517 2.54965 7.7085V4.16683L2.55372 4.09033C2.59204 3.71205 2.91159 3.4165 3.29998 3.4165H18.3ZM4.0503 7.243C6.13319 8.47023 6.13296 11.5291 4.0503 12.7565V15.0832H17.5497V12.7565C15.467 11.5291 15.4668 8.47023 17.5497 7.243V4.91715H4.0503V7.243ZM12.5497 12.925V12.9168C12.5497 12.5026 12.8858 12.1665 13.3 12.1665C13.7142 12.1665 14.0503 12.5026 14.0503 12.9168V12.925C14.0503 13.3392 13.7142 13.6753 13.3 13.6753C12.8858 13.6753 12.5497 13.3392 12.5497 12.925ZM12.5497 10.0083V10.0002C12.5497 9.58595 12.8858 9.24984 13.3 9.24984C13.7142 9.24984 14.0503 9.58595 14.0503 10.0002V10.0083C14.0503 10.4225 13.7142 10.7586 13.3 10.7586C12.8858 10.7586 12.5497 10.4225 12.5497 10.0083ZM12.5497 7.09163V7.0835C12.5497 6.66928 12.8858 6.33317 13.3 6.33317C13.7142 6.33317 14.0503 6.66928 14.0503 7.0835V7.09163C14.0503 7.50585 13.7142 7.84196 13.3 7.84196C12.8858 7.84196 12.5497 7.50585 12.5497 7.09163Z" fill="#121212"/>
</svg>
