<svg width="25" height="24" viewBox="0 0 25 24" fill="none" xmlns="http://www.w3.org/2000/svg">
<path fill-rule="evenodd" clip-rule="evenodd" d="M7.60001 17.9001C6.9925 17.9001 6.50001 18.3926 6.50001 19.0001V20.0001C6.50001 20.0553 6.54478 20.1001 6.60001 20.1001H18.6C18.6552 20.1001 18.7 20.0553 18.7 20.0001V19.0001C18.7 18.3926 18.2075 17.9001 17.6 17.9001H7.60001ZM4.70001 19.0001C4.70001 17.3985 5.99839 16.1001 7.60001 16.1001H17.6C19.2016 16.1001 20.5 17.3985 20.5 19.0001V20.0001C20.5 21.0494 19.6494 21.9001 18.6 21.9001H6.60001C5.55067 21.9001 4.70001 21.0494 4.70001 20.0001V19.0001Z" fill="#121212"/>
<path fill-rule="evenodd" clip-rule="evenodd" d="M12.6 7.9001C10.3356 7.9001 8.50001 9.73573 8.50001 12.0001V17.0001C8.50001 17.4972 8.09707 17.9001 7.60001 17.9001C7.10296 17.9001 6.70001 17.4972 6.70001 17.0001V12.0001C6.70001 8.74162 9.34153 6.1001 12.6 6.1001C15.8585 6.1001 18.5 8.74162 18.5 12.0001V17.0001C18.5 17.4972 18.0971 17.9001 17.6 17.9001C17.103 17.9001 16.7 17.4972 16.7 17.0001V12.0001C16.7 9.73573 14.8644 7.9001 12.6 7.9001Z" fill="#121212"/>
<path fill-rule="evenodd" clip-rule="evenodd" d="M12.6 1.1001C13.0971 1.1001 13.5 1.50304 13.5 2.0001V3.0001C13.5 3.49715 13.0971 3.9001 12.6 3.9001C12.103 3.9001 11.7 3.49715 11.7 3.0001V2.0001C11.7 1.50304 12.103 1.1001 12.6 1.1001ZM4.89257 4.29261C5.24404 3.94114 5.81389 3.94114 6.16536 4.29261L6.87247 4.99972C7.22394 5.35119 7.22394 5.92104 6.87247 6.27251C6.521 6.62398 5.95115 6.62398 5.59968 6.27251L4.89257 5.5654C4.5411 5.21393 4.5411 4.64408 4.89257 4.29261ZM20.3075 4.29263C20.6589 4.64411 20.6589 5.21395 20.3075 5.56543L19.6004 6.27253C19.2489 6.62401 18.679 6.624 18.3276 6.27253C17.9761 5.92106 17.9761 5.35121 18.3276 4.99974L19.0347 4.29263C19.3862 3.94116 19.956 3.94116 20.3075 4.29263ZM1.70001 12.0001C1.70001 11.503 2.10296 11.1001 2.60001 11.1001H3.60001C4.09707 11.1001 4.50001 11.503 4.50001 12.0001C4.50001 12.4972 4.09707 12.9001 3.60001 12.9001H2.60001C2.10296 12.9001 1.70001 12.4972 1.70001 12.0001ZM20.7 12.0001C20.7 11.503 21.103 11.1001 21.6 11.1001H22.6C23.0971 11.1001 23.5 11.503 23.5 12.0001C23.5 12.4972 23.0971 12.9001 22.6 12.9001H21.6C21.103 12.9001 20.7 12.4972 20.7 12.0001Z" fill="#121212"/>
<path fill-rule="evenodd" clip-rule="evenodd" d="M12.6 13.1001C13.0971 13.1001 13.5 13.503 13.5 14.0001V17.0001C13.5 17.4972 13.0971 17.9001 12.6 17.9001C12.103 17.9001 11.7 17.4972 11.7 17.0001V14.0001C11.7 13.503 12.103 13.1001 12.6 13.1001Z" fill="#121212"/>
</svg>
