<svg width="24" height="24" viewBox="0 0 24 24" fill="none" xmlns="http://www.w3.org/2000/svg">
<path fill-rule="evenodd" clip-rule="evenodd" d="M8.88874 12.3055C9.7139 11.4803 10.8331 11.0167 12 11.0167C13.167 11.0167 14.2861 11.4803 15.1113 12.3055C15.9364 13.1306 16.4 14.2498 16.4 15.4167C16.4 16.5837 15.9364 17.7029 15.1113 18.528C14.2861 19.3532 13.167 19.8167 12 19.8167C10.8331 19.8167 9.7139 19.3532 8.88874 18.528C8.06358 17.7029 7.60001 16.5837 7.60001 15.4167C7.60001 14.2498 8.06358 13.1306 8.88874 12.3055ZM12 12.8167C11.3104 12.8167 10.6491 13.0907 10.1615 13.5783C9.67393 14.0659 9.40001 14.7272 9.40001 15.4167C9.40001 16.1063 9.67393 16.7676 10.1615 17.2552C10.6491 17.7428 11.3104 18.0167 12 18.0167C12.6896 18.0167 13.3509 17.7428 13.8385 17.2552C14.3261 16.7676 14.6 16.1063 14.6 15.4167C14.6 14.7272 14.3261 14.0659 13.8385 13.5783C13.3509 13.0907 12.6896 12.8167 12 12.8167Z" fill="#121212"/>
<path fill-rule="evenodd" clip-rule="evenodd" d="M8.76675 6.3867C8.76675 5.88964 9.1697 5.4867 9.66675 5.4867H14.3334C14.8305 5.4867 15.2334 5.88964 15.2334 6.3867C15.2334 6.88376 14.8305 7.2867 14.3334 7.2867H9.66675C9.1697 7.2867 8.76675 6.88376 8.76675 6.3867Z" fill="#121212"/>
<path fill-rule="evenodd" clip-rule="evenodd" d="M9.66675 17.5167C10.1638 17.5167 10.5668 17.9196 10.5668 18.4167V21.6271L11.5976 21.1117C11.851 20.985 12.1492 20.985 12.4026 21.1117L13.4334 21.6271V18.4167C13.4334 17.9196 13.8364 17.5167 14.3334 17.5167C14.8305 17.5167 15.2334 17.9196 15.2334 18.4167V23.0834C15.2334 23.3953 15.0719 23.685 14.8066 23.849C14.5412 24.0129 14.2099 24.0278 13.9309 23.8884L12.0001 22.9229L10.0692 23.8884C9.79026 24.0278 9.45893 24.0129 9.1936 23.849C8.92826 23.685 8.76675 23.3953 8.76675 23.0834V18.4167C8.76675 17.9196 9.1697 17.5167 9.66675 17.5167Z" fill="#121212"/>
<path fill-rule="evenodd" clip-rule="evenodd" d="M7.33334 2.9167C6.9532 2.9167 6.58862 3.06771 6.31982 3.33651C6.05102 3.60531 5.90001 3.96989 5.90001 4.35003V18.35C5.90001 18.7302 6.05102 19.0947 6.31982 19.3636C6.58862 19.6324 6.9532 19.7834 7.33334 19.7834H9.66667C10.1637 19.7834 10.5667 20.1863 10.5667 20.6834C10.5667 21.1804 10.1637 21.5834 9.66667 21.5834H7.33334C6.47581 21.5834 5.65339 21.2427 5.04703 20.6363C4.44066 20.03 4.10001 19.2076 4.10001 18.35V4.35003C4.10001 3.4925 4.44066 2.67009 5.04703 2.06372C5.6534 1.45735 6.47581 1.1167 7.33334 1.1167H16.6667C17.5242 1.1167 18.3466 1.45735 18.953 2.06372C19.5594 2.67009 19.9 3.4925 19.9 4.35003V18.35C19.9 19.2076 19.5594 20.03 18.953 20.6363C18.3466 21.2427 17.5242 21.5834 16.6667 21.5834H14.3333C13.8363 21.5834 13.4333 21.1804 13.4333 20.6834C13.4333 20.1863 13.8363 19.7834 14.3333 19.7834H16.6667C17.0468 19.7834 17.4114 19.6324 17.6802 19.3636C17.949 19.0947 18.1 18.7302 18.1 18.35V4.35003C18.1 3.96989 17.949 3.60531 17.6802 3.33651C17.4114 3.06771 17.0468 2.9167 16.6667 2.9167H7.33334Z" fill="#121212"/>
</svg>
