<svg width="25" height="24" viewBox="0 0 25 24" fill="none" xmlns="http://www.w3.org/2000/svg">
<path fill-rule="evenodd" clip-rule="evenodd" d="M5.0427 5.56117C5.55903 4.65761 6.51993 4.09998 7.56061 4.09998H19.4C21.0016 4.09998 22.3 5.39835 22.3 6.99998V17C22.3 18.6016 21.0016 19.9 19.4 19.9H7.56061C6.51993 19.9 5.55903 19.3423 5.0427 18.4388L2.18556 13.4388C1.6761 12.5472 1.6761 11.4527 2.18556 10.5612L2.96698 11.0077L2.18556 10.5612L5.0427 5.56117ZM7.56061 5.89998C7.16587 5.89998 6.80139 6.11149 6.60554 6.45422L3.7484 11.4542C3.55516 11.7924 3.55516 12.2076 3.7484 12.5457L6.60554 17.5457C6.80139 17.8885 7.16587 18.1 7.56061 18.1H19.4C20.0075 18.1 20.5 17.6075 20.5 17V6.99998C20.5 6.39246 20.0075 5.89998 19.4 5.89998H7.56061ZM10.7636 9.36358C11.115 9.01211 11.6849 9.01211 12.0364 9.36358L13.4 10.7272L14.7636 9.36358C15.115 9.01211 15.6849 9.01211 16.0364 9.36358C16.3878 9.71505 16.3878 10.2849 16.0364 10.6364L14.6728 12L16.0364 13.3636C16.3878 13.7151 16.3878 14.2849 16.0364 14.6364C15.6849 14.9878 15.115 14.9878 14.7636 14.6364L13.4 13.2728L12.0364 14.6364C11.6849 14.9878 11.115 14.9878 10.7636 14.6364C10.4121 14.2849 10.4121 13.7151 10.7636 13.3636L12.1272 12L10.7636 10.6364C10.4121 10.2849 10.4121 9.71505 10.7636 9.36358Z" fill="#121212"/>
</svg>
