<svg width="25" height="24" viewBox="0 0 25 24" fill="none" xmlns="http://www.w3.org/2000/svg">
<path d="M2.69965 17V15C2.69965 14.5029 3.10298 14.0996 3.60004 14.0996C4.09709 14.0996 4.50043 14.5029 4.50043 15V17C4.50043 17.6075 4.99252 18.0996 5.60004 18.0996H7.60004L7.69183 18.1045C8.14578 18.1505 8.50043 18.5339 8.50043 19C8.50043 19.4661 8.14578 19.8495 7.69183 19.8955L7.60004 19.9004H5.60004C3.99841 19.9004 2.69965 18.6016 2.69965 17ZM20.6996 17V15C20.6996 14.5029 21.103 14.0996 21.6 14.0996C22.0971 14.0996 22.5004 14.5029 22.5004 15V17C22.5004 18.6016 21.2017 19.9004 19.6 19.9004H17.6C17.103 19.9004 16.6996 19.4971 16.6996 19C16.6996 18.5029 17.103 18.0996 17.6 18.0996H19.6C20.2076 18.0996 20.6996 17.6075 20.6996 17ZM7.69965 14V10C7.69965 9.50294 8.10298 9.09961 8.60004 9.09961C9.09709 9.09961 9.50043 9.50294 9.50043 10V14C9.50043 14.4971 9.09709 14.9004 8.60004 14.9004C8.10298 14.9004 7.69965 14.4971 7.69965 14ZM15.6996 14V10C15.6996 9.50294 16.103 9.09961 16.6 9.09961C17.0971 9.09961 17.5004 9.50294 17.5004 10V14C17.5004 14.4971 17.0971 14.9004 16.6 14.9004C16.103 14.9004 15.6996 14.4971 15.6996 14ZM11.6996 12V10C11.6996 9.50294 12.103 9.09961 12.6 9.09961C13.0971 9.09961 13.5004 9.50294 13.5004 10V12C13.5004 12.4971 13.0971 12.9004 12.6 12.9004C12.103 12.9004 11.6996 12.4971 11.6996 12ZM2.69965 9V7C2.69965 5.39837 3.99841 4.09961 5.60004 4.09961H7.60004C8.09709 4.09961 8.50043 4.50294 8.50043 5C8.50043 5.49706 8.09709 5.90039 7.60004 5.90039H5.60004C4.99252 5.90039 4.50043 6.39249 4.50043 7V9C4.50043 9.49706 4.09709 9.90039 3.60004 9.90039C3.10298 9.90039 2.69965 9.49706 2.69965 9ZM20.6996 9V7C20.6996 6.39249 20.2076 5.90039 19.6 5.90039H17.6C17.103 5.90039 16.6996 5.49706 16.6996 5C16.6996 4.50294 17.103 4.09961 17.6 4.09961H19.6C21.2017 4.09961 22.5004 5.39837 22.5004 7V9C22.5004 9.49706 22.0971 9.90039 21.6 9.90039C21.103 9.90039 20.6996 9.49706 20.6996 9Z" fill="#121212"/>
</svg>
