<svg width="25" height="24" viewBox="0 0 25 24" fill="none" xmlns="http://www.w3.org/2000/svg">
<path fill-rule="evenodd" clip-rule="evenodd" d="M7.80002 3.89998C7.19251 3.89998 6.70002 4.39246 6.70002 4.99998V19.9948C6.70002 20.0237 6.70694 20.0383 6.71276 20.0474C6.7204 20.0595 6.73398 20.0732 6.75393 20.0836C6.77388 20.0939 6.7929 20.0971 6.80715 20.0965C6.818 20.096 6.8339 20.0932 6.85753 20.0766L11.1324 17.072C12.133 16.3688 13.4671 16.3688 14.4676 17.072L18.7425 20.0766C18.7661 20.0932 18.782 20.096 18.7929 20.0965C18.8071 20.0971 18.8262 20.0939 18.8461 20.0836C18.8661 20.0732 18.8796 20.0595 18.8873 20.0474C18.8931 20.0383 18.9 20.0237 18.9 19.9948V4.99998C18.9 4.39246 18.4075 3.89998 17.8 3.89998H7.80002ZM4.90002 4.99998C4.90002 3.39835 6.1984 2.09998 7.80002 2.09998H17.8C19.4016 2.09998 20.7 3.39835 20.7 4.99998V19.9948C20.7 21.5336 18.9664 22.4341 17.7075 21.5493L13.4326 18.5446C13.0531 18.2779 12.547 18.2779 12.1675 18.5446L7.89258 21.5493C6.63363 22.4341 4.90002 21.5336 4.90002 19.9948V4.99998Z" fill="#121212"/>
</svg>
