<svg width="24" height="24" viewBox="0 0 24 24" fill="none" xmlns="http://www.w3.org/2000/svg">
<path fill-rule="evenodd" clip-rule="evenodd" d="M18.0022 4.89998L6.0022 4.9C5.39469 4.9 4.9022 5.39248 4.9022 6V16.0357C4.9022 16.6433 5.39469 17.1357 6.0022 17.1357H8.65182C9.09819 17.1357 9.53031 17.2929 9.87239 17.5796L12.0013 19.3642L14.1638 17.5726C14.5046 17.2903 14.9333 17.1357 15.3759 17.1357L18.0022 17.1357C18.6097 17.1357 19.1022 16.6432 19.1022 16.0357V5.99998C19.1022 5.39246 18.6097 4.89997 18.0022 4.89998ZM6.0022 3.1L18.0022 3.09998C19.6038 3.09997 20.9022 4.39835 20.9022 5.99998V16.0357C20.9022 17.6373 19.6038 18.9357 18.0022 18.9357L15.3759 18.9357C15.3526 18.9357 15.3301 18.9439 15.3121 18.9587L12.5721 21.2288C12.2375 21.506 11.7527 21.5046 11.4198 21.2255L8.71606 18.9591C8.69806 18.944 8.67532 18.9357 8.65182 18.9357H6.0022C4.40058 18.9357 3.1022 17.6374 3.1022 16.0357V6C3.1022 4.39837 4.40057 3.1 6.0022 3.1ZM9.96974 9.65741C9.81044 9.82733 9.64869 10.1377 9.64869 10.6675C9.64869 11.2833 10.1145 11.9547 10.8459 12.5589C11.1874 12.841 11.5386 13.0676 11.8148 13.221C11.8838 13.2593 11.9459 13.2919 12 13.3188C12.0541 13.2919 12.1162 13.2593 12.1853 13.221C12.4614 13.0676 12.8126 12.841 13.1541 12.5589C13.8855 11.9547 14.3513 11.2833 14.3513 10.6675C14.3513 10.1377 14.1896 9.82733 14.0303 9.65741C13.8667 9.48289 13.6551 9.39997 13.445 9.39997C13.1775 9.39997 12.9638 9.47973 12.8148 9.56102C12.7404 9.60159 12.6857 9.64075 12.6535 9.66594C12.6382 9.6779 12.6286 9.68621 12.6252 9.68931C12.2766 10.0261 11.7233 10.026 11.3748 9.68925C11.3717 9.6863 11.3687 9.68333 11.3657 9.68032L11.3674 9.68203L11.3705 9.68508L11.3747 9.68913C11.3758 9.69013 11.3763 9.69061 11.3763 9.6906C11.3763 9.6906 11.3759 9.69028 11.3753 9.68966C11.3751 9.68954 11.375 9.6894 11.3748 9.68925C11.3713 9.6861 11.3617 9.67782 11.3466 9.66594C11.3144 9.64075 11.2596 9.60159 11.1852 9.56102C11.0362 9.47973 10.8225 9.39997 10.555 9.39997C10.3449 9.39997 10.1334 9.48289 9.96974 9.65741ZM11.3657 9.68032C11.3656 9.68021 11.3655 9.6801 11.3653 9.67998L11.3656 9.68023L11.3657 9.68032ZM12 7.95562C12.3459 7.7746 12.8376 7.59997 13.445 7.59997C14.1381 7.59997 14.8297 7.87832 15.3434 8.42631C15.8615 8.9789 16.1513 9.75233 16.1513 10.6675C16.1513 12.1289 15.127 13.2639 14.3005 13.9466C13.863 14.3081 13.4182 14.5951 13.0594 14.7945C12.8802 14.8941 12.7136 14.9766 12.572 15.0373C12.5021 15.0672 12.4282 15.0962 12.3556 15.1195L12.3535 15.1201C12.3087 15.1345 12.1665 15.1801 12 15.1801C11.8336 15.1801 11.6913 15.1345 11.6465 15.1201L11.6445 15.1195C11.5718 15.0962 11.4979 15.0672 11.428 15.0373C11.2864 14.9766 11.1199 14.8941 10.9406 14.7945C10.5818 14.5951 10.1371 14.3081 9.69955 13.9466C8.87303 13.2639 7.84869 12.1289 7.84869 10.6675C7.84869 9.75233 8.13852 8.9789 8.65658 8.42631C9.17032 7.87832 9.86193 7.59997 10.555 7.59997C11.1625 7.59997 11.6541 7.7746 12 7.95562Z" fill="#121212"/>
</svg>
