<svg width="25" height="24" viewBox="0 0 25 24" fill="none" xmlns="http://www.w3.org/2000/svg">
<path fill-rule="evenodd" clip-rule="evenodd" d="M18.4022 4.89998L6.4022 4.9C5.79468 4.9 5.3022 5.39248 5.3022 6V16.0357C5.3022 16.6433 5.79468 17.1357 6.4022 17.1357H9.05182C9.49818 17.1357 9.9303 17.2929 10.2724 17.5796L12.4013 19.3642L14.5638 17.5726C14.9046 17.2903 15.3333 17.1357 15.7759 17.1357L18.4022 17.1357C19.0097 17.1357 19.5022 16.6432 19.5022 16.0357V5.99998C19.5022 5.39246 19.0097 4.89997 18.4022 4.89998ZM6.40219 3.1L18.4022 3.09998C20.0038 3.09997 21.3022 4.39835 21.3022 5.99998V16.0357C21.3022 17.6373 20.0038 18.9357 18.4022 18.9357L15.7759 18.9357C15.7526 18.9357 15.7301 18.9439 15.7121 18.9587L12.9721 21.2288C12.6375 21.506 12.1527 21.5046 11.8198 21.2255L9.11606 18.9591C9.09805 18.944 9.07531 18.9357 9.05182 18.9357H6.4022C4.80057 18.9357 3.5022 17.6374 3.5022 16.0357V6C3.5022 4.39837 4.80057 3.1 6.40219 3.1Z" fill="#121212"/>
<path fill-rule="evenodd" clip-rule="evenodd" d="M12.4334 8.33393C12.1381 8.33393 11.8792 8.49357 11.7397 8.73462C11.5461 9.06926 11.1179 9.18362 10.7833 8.99004C10.4486 8.79646 10.3343 8.36825 10.5279 8.03361C10.9073 7.37774 11.6181 6.93393 12.4334 6.93393C13.6487 6.93393 14.6338 7.91907 14.6338 9.13429C14.6338 9.62986 14.5011 10.0302 14.2542 10.3512C14.0254 10.6486 13.7328 10.8273 13.5469 10.9402C13.3245 11.0753 13.2432 11.1257 13.1868 11.188L13.1856 11.1894C13.166 11.2109 13.1334 11.2468 13.1334 11.3848C13.1334 11.7714 12.82 12.0848 12.4334 12.0848C12.0468 12.0848 11.7334 11.7714 11.7334 11.3848C11.7334 10.9111 11.8869 10.5379 12.1489 10.2485C12.352 10.024 12.6113 9.86882 12.7721 9.77255C12.7894 9.76222 12.8055 9.75257 12.8203 9.74358C13.0095 9.6287 13.092 9.56593 13.1445 9.49762C13.1789 9.45289 13.2338 9.36336 13.2338 9.13429C13.2338 8.69227 12.8755 8.33393 12.4334 8.33393Z" fill="#121212"/>
<path fill-rule="evenodd" clip-rule="evenodd" d="M11.45 13.95C11.45 13.4529 11.8529 13.05 12.35 13.05C12.8471 13.05 13.25 13.4529 13.25 13.95C13.25 14.447 12.8471 14.85 12.35 14.85C11.8529 14.85 11.45 14.447 11.45 13.95Z" fill="#121212"/>
</svg>
