<svg width="25" height="24" viewBox="0 0 25 24" fill="none" xmlns="http://www.w3.org/2000/svg">
<path fill-rule="evenodd" clip-rule="evenodd" d="M6.80002 5.9001C6.19251 5.9001 5.70002 6.39258 5.70002 7.0001C5.70002 7.60761 6.19251 8.1001 6.80002 8.1001C7.40754 8.1001 7.90002 7.60761 7.90002 7.0001C7.90002 6.39258 7.40754 5.9001 6.80002 5.9001ZM3.90002 7.0001C3.90002 5.39847 5.1984 4.1001 6.80002 4.1001C8.40165 4.1001 9.70002 5.39847 9.70002 7.0001C9.70002 8.60172 8.40165 9.9001 6.80002 9.9001C5.1984 9.9001 3.90002 8.60172 3.90002 7.0001ZM12.9 7.0001C12.9 6.50304 13.303 6.1001 13.8 6.1001H20.8C21.2971 6.1001 21.7 6.50304 21.7 7.0001C21.7 7.49715 21.2971 7.9001 20.8 7.9001H13.8C13.303 7.9001 12.9 7.49715 12.9 7.0001ZM6.80002 15.9001C6.19251 15.9001 5.70002 16.3926 5.70002 17.0001C5.70002 17.6076 6.19251 18.1001 6.80002 18.1001C7.40754 18.1001 7.90002 17.6076 7.90002 17.0001C7.90002 16.3926 7.40754 15.9001 6.80002 15.9001ZM3.90002 17.0001C3.90002 15.3985 5.1984 14.1001 6.80002 14.1001C8.40165 14.1001 9.70002 15.3985 9.70002 17.0001C9.70002 18.6017 8.40165 19.9001 6.80002 19.9001C5.1984 19.9001 3.90002 18.6017 3.90002 17.0001ZM12.9 17.0001C12.9 16.503 13.303 16.1001 13.8 16.1001H20.8C21.2971 16.1001 21.7 16.503 21.7 17.0001C21.7 17.4972 21.2971 17.9001 20.8 17.9001H13.8C13.303 17.9001 12.9 17.4972 12.9 17.0001Z" fill="#121212"/>
</svg>
