<svg width="24" height="24" viewBox="0 0 24 24" fill="none" xmlns="http://www.w3.org/2000/svg">
<path fill-rule="evenodd" clip-rule="evenodd" d="M9.77775 3.09999C9.04751 3.09999 8.45553 3.69197 8.45553 4.42221V5.74443H15.5444V4.42221C15.5444 3.69197 14.9524 3.09999 14.2222 3.09999H9.77775ZM17.3444 5.74443V4.42221C17.3444 2.69785 15.9466 1.29999 14.2222 1.29999H9.77775C8.0534 1.29999 6.65553 2.69785 6.65553 4.42221V5.74443H4.2222C2.49784 5.74443 1.09998 7.1423 1.09998 8.86665V18.8667C1.09998 20.591 2.49784 21.9889 4.2222 21.9889H19.7778C21.5021 21.9889 22.9 20.591 22.9 18.8667V8.86665C22.9 7.1423 21.5021 5.74443 19.7778 5.74443H17.3444ZM4.2222 7.54443C3.49195 7.54443 2.89998 8.13641 2.89998 8.86665V18.8667C2.89998 19.5969 3.49195 20.1889 4.2222 20.1889H19.7778C20.508 20.1889 21.1 19.5969 21.1 18.8667V8.86665C21.1 8.13641 20.508 7.54443 19.7778 7.54443H4.2222Z" fill="#121212"/>
</svg>
