<svg width="25" height="24" viewBox="0 0 25 24" fill="none" xmlns="http://www.w3.org/2000/svg">
<path fill-rule="evenodd" clip-rule="evenodd" d="M8.60001 2.1001C9.09707 2.1001 9.50001 2.50304 9.50001 3.0001V4.1001H15.7V3.0001C15.7 2.50304 16.103 2.1001 16.6 2.1001C17.0971 2.1001 17.5 2.50304 17.5 3.0001V4.1001H18.6C20.2016 4.1001 21.5 5.39847 21.5 7.0001V10.0001C21.5 10.4972 21.0971 10.9001 20.6 10.9001C20.103 10.9001 19.7 10.4972 19.7 10.0001V9.9001H5.50001V18.0001C5.50001 18.6076 5.9925 19.1001 6.60001 19.1001H11.6C12.0971 19.1001 12.5 19.503 12.5 20.0001C12.5 20.4972 12.0971 20.9001 11.6 20.9001H6.60001C4.99839 20.9001 3.70001 19.6017 3.70001 18.0001V7.0001C3.70001 5.39847 4.99839 4.1001 6.60001 4.1001H7.70001V3.0001C7.70001 2.50304 8.10296 2.1001 8.60001 2.1001ZM6.60001 5.9001C5.9925 5.9001 5.50001 6.39258 5.50001 7.0001V8.1001H19.7V7.0001C19.7 6.39258 19.2075 5.9001 18.6 5.9001H6.60001ZM20.2364 15.6365L16.8222 19.0507C16.6159 19.257 16.5 19.5368 16.5 19.8285V20.1001H16.7716C17.0633 20.1001 17.3431 19.9842 17.5494 19.7779L20.9636 16.3637C21.1644 16.1629 21.1644 15.8373 20.9636 15.6365C20.7628 15.4357 20.4372 15.4357 20.2364 15.6365ZM18.9636 14.3637C19.8674 13.4599 21.3327 13.4599 22.2364 14.3637C23.1402 15.2675 23.1402 16.7327 22.2364 17.6365L18.8222 21.0507C18.2783 21.5946 17.5407 21.9001 16.7716 21.9001H15.6C15.103 21.9001 14.7 21.4972 14.7 21.0001V19.8285C14.7 19.0594 15.0055 18.3218 15.5494 17.7779L18.9636 14.3637Z" fill="#121212"/>
</svg>
