<svg width="25" height="24" viewBox="0 0 25 24" fill="none" xmlns="http://www.w3.org/2000/svg">
<path fill-rule="evenodd" clip-rule="evenodd" d="M8.60001 2.09998C9.09707 2.09998 9.50001 2.50292 9.50001 2.99998V4.09998H15.7V2.99998C15.7 2.50292 16.103 2.09998 16.6 2.09998C17.0971 2.09998 17.5 2.50292 17.5 2.99998V4.09998H18.6C20.2016 4.09998 21.5 5.39835 21.5 6.99998V18C21.5 19.6016 20.2016 20.9 18.6 20.9H6.60001C4.99839 20.9 3.70001 19.6016 3.70001 18V6.99998C3.70001 5.39835 4.99839 4.09998 6.60001 4.09998H7.70001V2.99998C7.70001 2.50292 8.10296 2.09998 8.60001 2.09998ZM6.60001 5.89998C5.9925 5.89998 5.50001 6.39246 5.50001 6.99998V9.09998H19.7V6.99998C19.7 6.39246 19.2075 5.89998 18.6 5.89998H6.60001ZM19.7 10.9H5.50001V18C5.50001 18.6075 5.9925 19.1 6.60001 19.1H18.6C19.2075 19.1 19.7 18.6075 19.7 18V10.9Z" fill="#121212"/>
</svg>
