<svg width="25" height="24" viewBox="0 0 25 24" fill="none" xmlns="http://www.w3.org/2000/svg">
<path fill-rule="evenodd" clip-rule="evenodd" d="M5.4 5.89998C4.79249 5.89998 4.3 6.39246 4.3 6.99998V9.09998H20.5V6.99973C20.5 6.39236 20.0077 5.89998 19.4 5.89998H5.4ZM4.3 10.9H21.4C21.8971 10.9 22.3 10.497 22.3 9.99998V6.99973C22.3 5.39796 21.0015 4.09998 19.4 4.09998H5.4C3.79837 4.09998 2.5 5.39835 2.5 6.99998V17C2.5 18.6015 3.79812 19.9 5.39984 19.9H12.4C12.8971 19.9 13.3 19.497 13.3 19C13.3 18.5029 12.8971 18.1 12.4 18.1H5.39984C4.79242 18.1 4.3 17.6076 4.3 17V10.9Z" fill="#121212"/>
<path fill-rule="evenodd" clip-rule="evenodd" d="M19.0364 13.3636C19.3879 13.7151 19.3879 14.2849 19.0364 14.6364L18.5728 15.1H20.9C22.5016 15.1 23.8 16.3984 23.8 18V20C23.8 20.497 23.3971 20.9 22.9 20.9C22.4029 20.9 22 20.497 22 20V18C22 17.3925 21.5075 16.9 20.9 16.9H18.5728L19.0364 17.3636C19.3879 17.7151 19.3879 18.2849 19.0364 18.6364C18.6849 18.9878 18.1151 18.9878 17.7636 18.6364L15.7636 16.6364C15.4121 16.2849 15.4121 15.7151 15.7636 15.3636L17.7636 13.3636C18.1151 13.0121 18.6849 13.0121 19.0364 13.3636Z" fill="#121212"/>
</svg>
