<svg width="25" height="24" viewBox="0 0 25 24" fill="none" xmlns="http://www.w3.org/2000/svg">
<path fill-rule="evenodd" clip-rule="evenodd" d="M3.70001 6.0001C3.70001 4.39847 4.99839 3.1001 6.60001 3.1001H18.6C20.2016 3.1001 21.5 4.39847 21.5 6.0001V10.0001C21.5 10.4972 21.0971 10.9001 20.6 10.9001C20.103 10.9001 19.7 10.4972 19.7 10.0001V6.0001C19.7 5.39258 19.2075 4.9001 18.6 4.9001H6.60001C5.9925 4.9001 5.50001 5.39258 5.50001 6.0001V18.0001C5.50001 18.6076 5.9925 19.1001 6.60001 19.1001H10.6C11.0971 19.1001 11.5 19.503 11.5 20.0001C11.5 20.4972 11.0971 20.9001 10.6 20.9001H6.60001C4.99839 20.9001 3.70001 19.6017 3.70001 18.0001V6.0001ZM11.6796 7.03236C12.0772 7.33059 12.1578 7.89471 11.8596 8.29236L9.98797 10.7879C9.70137 11.17 9.16617 11.2617 8.76874 10.9967L7.64374 10.2467C7.23016 9.97099 7.1184 9.41221 7.39412 8.99864C7.66984 8.58506 8.22862 8.4733 8.6422 8.74902L9.0588 9.02676L10.4196 7.21236C10.7178 6.81471 11.282 6.73412 11.6796 7.03236ZM13.758 9.00011C13.758 8.50306 14.1609 8.10011 14.658 8.10011H16.658C17.155 8.10011 17.558 8.50306 17.558 9.00011C17.558 9.49717 17.155 9.90011 16.658 9.90011H14.658C14.1609 9.90011 13.758 9.49717 13.758 9.00011ZM11.6796 13.0335C12.0772 13.3317 12.1578 13.8958 11.8596 14.2935L9.98797 16.789C9.70137 17.1711 9.16617 17.2628 8.76874 16.9978L7.64374 16.2478C7.23016 15.9721 7.1184 15.4133 7.39412 14.9998C7.66984 14.5862 8.22862 14.4744 8.6422 14.7501L9.0588 15.0279L10.4196 13.2135C10.7178 12.8158 11.282 12.7353 11.6796 13.0335ZM19.0849 15.5151C18.2648 14.695 16.9352 14.695 16.1151 15.5151C15.295 16.3352 15.295 17.6649 16.1151 18.485C16.9352 19.3051 18.2648 19.3051 19.0849 18.485C19.905 17.6649 19.905 16.3352 19.0849 15.5151ZM14.8423 14.2423C16.3653 12.7193 18.8347 12.7193 20.3577 14.2423C21.6617 15.5464 21.8493 17.5441 20.9203 19.0476L22.2364 20.3637C22.5879 20.7151 22.5879 21.285 22.2364 21.6365C21.8849 21.9879 21.3151 21.9879 20.9636 21.6365L19.6475 20.3204C18.144 21.2493 16.1463 21.0618 14.8423 19.7578C13.3193 18.2347 13.3193 15.7654 14.8423 14.2423Z" fill="#121212"/>
</svg>
