<svg width="25" height="24" viewBox="0 0 25 24" fill="none" xmlns="http://www.w3.org/2000/svg">
<path d="M15.7633 14.3636C16.1148 14.0122 16.6853 14.0122 17.0368 14.3636C17.3882 14.7151 17.3882 15.2856 17.0368 15.6371L13.7438 18.9291C13.0482 19.6247 11.9471 19.6686 11.2008 19.0599L11.0563 18.9291L7.76332 15.6371L7.7018 15.5687C7.41329 15.2152 7.43381 14.6932 7.76332 14.3636C8.0929 14.0341 8.6149 14.0136 8.9684 14.3021L9.03676 14.3636L12.3297 17.6566L12.362 17.6791C12.3981 17.6938 12.441 17.6858 12.4704 17.6566L15.7633 14.3636ZM11.2008 4.94079C11.9471 4.33199 13.0481 4.375 13.7438 5.07067L17.0368 8.36364L17.0983 8.432C17.3867 8.7855 17.3663 9.30755 17.0368 9.63708C16.7072 9.96654 16.1852 9.98697 15.8317 9.6986L15.7633 9.63708L12.4704 6.34411C12.441 6.31472 12.3981 6.30681 12.362 6.32165L12.3297 6.34411L9.03676 9.63708C8.68531 9.98845 8.11477 9.98845 7.76332 9.63708C7.41188 9.28563 7.41193 8.71512 7.76332 8.36364L11.0563 5.07067L11.2008 4.94079Z" fill="#121212"/>
</svg>
