<svg width="25" height="24" viewBox="0 0 25 24" fill="none" xmlns="http://www.w3.org/2000/svg">
<path fill-rule="evenodd" clip-rule="evenodd" d="M8.59995 12.0001C8.59995 11.4478 9.04766 11.0001 9.59995 11.0001H9.60995C10.1622 11.0001 10.6099 11.4478 10.6099 12.0001C10.6099 12.5524 10.1622 13.0001 9.60995 13.0001H9.59995C9.04766 13.0001 8.59995 12.5524 8.59995 12.0001Z" fill="#121212"/>
<path fill-rule="evenodd" clip-rule="evenodd" d="M14.5999 12.0001C14.5999 11.4478 15.0477 11.0001 15.5999 11.0001H15.6099C16.1622 11.0001 16.6099 11.4478 16.6099 12.0001C16.6099 12.5524 16.1622 13.0001 15.6099 13.0001H15.5999C15.0477 13.0001 14.5999 12.5524 14.5999 12.0001Z" fill="#121212"/>
<path fill-rule="evenodd" clip-rule="evenodd" d="M9.82821 15.5371C10.0839 15.1108 10.6368 14.9726 11.063 15.2284C11.406 15.4342 11.9419 15.6001 12.5999 15.6001C13.258 15.6001 13.7939 15.4342 14.1369 15.2284C14.5631 14.9726 15.116 15.1108 15.3717 15.5371C15.6274 15.9633 15.4892 16.5161 15.063 16.7718C14.406 17.166 13.5419 17.4001 12.5999 17.4001C11.658 17.4001 10.7939 17.166 10.1369 16.7718C9.71068 16.5161 9.57247 15.9633 9.82821 15.5371Z" fill="#121212"/>
<path fill-rule="evenodd" clip-rule="evenodd" d="M12.5981 2.1001L12.5999 2.1001C13.7574 2.1001 14.8241 2.41744 15.6258 2.99472C16.4321 3.57524 16.9999 4.45035 16.9999 5.5001C16.9999 7.20569 15.869 8.9001 14.0999 8.9001C13.5628 8.9001 13.0124 8.76798 12.5668 8.4844C12.1155 8.19723 11.6999 7.69507 11.6999 7.0001C11.6999 6.50304 12.1029 6.1001 12.5999 6.1001C13.0772 6.1001 13.4677 6.47163 13.4981 6.94125C13.5063 6.94779 13.5177 6.95601 13.5331 6.9658C13.6375 7.03222 13.8371 7.1001 14.0999 7.1001C14.5309 7.1001 15.1999 6.59451 15.1999 5.5001C15.1999 5.14985 15.0178 4.77496 14.5741 4.45548C14.126 4.13287 13.443 3.90026 12.6008 3.9001C10.737 3.90408 8.93147 4.55073 7.48889 5.73103C6.04607 6.91152 5.0546 8.55355 4.68177 10.3801C4.62567 10.6549 4.44467 10.8878 4.19225 11.0101C4.00627 11.1002 3.84943 11.2408 3.73968 11.4159C3.62994 11.591 3.57173 11.7935 3.57173 12.0001C3.57173 12.2067 3.62994 12.4092 3.73968 12.5843C3.84943 12.7594 4.00627 12.9 4.19225 12.9901C4.44187 13.111 4.6218 13.3402 4.67995 13.6114C5.06849 15.4236 6.0667 17.0476 7.50803 18.2127C8.94936 19.3778 10.7466 20.0133 12.5999 20.0133C14.4533 20.0133 16.2505 19.3778 17.6919 18.2127C19.1332 17.0476 20.1314 15.4236 20.5199 13.6114C20.5781 13.3402 20.758 13.111 21.0076 12.9901C21.1936 12.9 21.3505 12.7594 21.4602 12.5843C21.57 12.4092 21.6282 12.2067 21.6282 12.0001C21.6282 11.7935 21.57 11.591 21.4602 11.4159C21.3505 11.2408 21.1936 11.1002 21.0076 11.0101C20.7524 10.8865 20.5704 10.6498 20.5164 10.3714C20.2676 9.08775 19.7118 7.88346 18.8964 6.86136C18.5864 6.47279 18.6501 5.90652 19.0387 5.59654C19.4273 5.28657 19.9935 5.35028 20.3035 5.73884C21.2149 6.88126 21.8609 8.20991 22.1973 9.62861C22.5114 9.84967 22.7797 10.1319 22.9854 10.4599C23.2747 10.9215 23.4282 11.4553 23.4282 12.0001C23.4282 12.5449 23.2747 13.0787 22.9854 13.5403C22.7778 13.8715 22.5062 14.1559 22.1883 14.3779C21.6594 16.4357 20.4812 18.2725 18.8234 19.6126C17.0618 21.0365 14.8651 21.8133 12.5999 21.8133C10.3348 21.8133 8.13812 21.0365 6.37649 19.6126C4.7187 18.2725 3.54053 16.4356 3.01164 14.3779C2.69366 14.1559 2.42212 13.8715 2.21451 13.5403C1.92518 13.0787 1.77173 12.5449 1.77173 12.0001C1.77173 11.4553 1.92518 10.9215 2.21451 10.4599C2.42114 10.1303 2.69109 9.84695 3.00713 9.62542C3.51947 7.55163 4.69018 5.69517 6.34906 4.3379C8.11251 2.89508 10.3197 2.1047 12.5981 2.1001Z" fill="#121212"/>
</svg>
