<svg width="24" height="24" viewBox="0 0 24 24" fill="none" xmlns="http://www.w3.org/2000/svg">
<path fill-rule="evenodd" clip-rule="evenodd" d="M4.99965 4.99974C6.85626 3.14313 9.37436 2.1001 12 2.1001C14.6256 2.1001 17.1438 3.14313 19.0004 4.99974C20.857 6.85635 21.9 9.37445 21.9 12.0001C21.9 13.3002 21.6439 14.5875 21.1464 15.7887C20.6489 16.9898 19.9197 18.0812 19.0004 19.0005C18.0811 19.9198 16.9897 20.649 15.7886 21.1465C14.5874 21.644 13.3001 21.9001 12 21.9001C10.6999 21.9001 9.41256 21.644 8.21144 21.1465C7.01032 20.649 5.91895 19.9198 4.99965 19.0005C4.08035 18.0812 3.35112 16.9898 2.8536 15.7887C2.35608 14.5875 2.10001 13.3002 2.10001 12.0001C2.10001 9.37445 3.14304 6.85635 4.99965 4.99974ZM12 3.9001C9.85175 3.9001 7.79149 4.75349 6.27244 6.27253C4.7534 7.79158 3.90001 9.85184 3.90001 12.0001C3.90001 13.0638 4.10952 14.1171 4.51658 15.0998C4.92364 16.0826 5.52029 16.9755 6.27244 17.7277C7.0246 18.4798 7.91753 19.0765 8.90027 19.4835C9.88301 19.8906 10.9363 20.1001 12 20.1001C13.0637 20.1001 14.117 19.8906 15.0997 19.4835C16.0825 19.0765 16.9754 18.4798 17.7276 17.7277C18.4797 16.9755 19.0764 16.0826 19.4834 15.0998C19.8905 14.1171 20.1 13.0638 20.1 12.0001C20.1 9.85184 19.2466 7.79158 17.7276 6.27253C16.2085 4.75349 14.1483 3.9001 12 3.9001Z" fill="#121212"/>
<path fill-rule="evenodd" clip-rule="evenodd" d="M12 7.1001C12.4971 7.1001 12.9 7.50304 12.9 8.0001V12.0001C12.9 12.4972 12.4971 12.9001 12 12.9001C11.503 12.9001 11.1 12.4972 11.1 12.0001V8.0001C11.1 7.50304 11.503 7.1001 12 7.1001Z" fill="#121212"/>
<path fill-rule="evenodd" clip-rule="evenodd" d="M11 16.0001C11 15.4478 11.4477 15.0001 12 15.0001H12.01C12.5623 15.0001 13.01 15.4478 13.01 16.0001C13.01 16.5524 12.5623 17.0001 12.01 17.0001H12C11.4477 17.0001 11 16.5524 11 16.0001Z" fill="#121212"/>
</svg>
