<svg width="25" height="24" viewBox="0 0 25 24" fill="none" xmlns="http://www.w3.org/2000/svg">
<path fill-rule="evenodd" clip-rule="evenodd" d="M6.46974 8.25087C7.53164 5.80913 9.96523 4.1001 12.8 4.1001C16.3311 4.1001 19.2427 6.75257 19.6511 10.1737C21.9516 10.5766 23.7 12.5842 23.7 15.0001C23.7 17.7063 21.5062 19.9001 18.8 19.9001H16.8C16.303 19.9001 15.9 19.4972 15.9 19.0001C15.9 18.503 16.303 18.1001 16.8 18.1001H18.8C20.5121 18.1001 21.9 16.7122 21.9 15.0001C21.9 13.288 20.5121 11.9001 18.8 11.9001C18.303 11.9001 17.9 11.4972 17.9 11.0001C17.9 8.18345 15.6167 5.9001 12.8 5.9001C10.5666 5.9001 8.66621 7.33634 7.97664 9.33829C7.86584 9.65996 7.58312 9.89166 7.24594 9.93711C5.24396 10.207 3.70002 11.924 3.70002 14.0001C3.70002 16.2645 5.53566 18.1001 7.80002 18.1001H8.80002C9.29708 18.1001 9.70002 18.503 9.70002 19.0001C9.70002 19.4972 9.29708 19.9001 8.80002 19.9001H7.80002C4.54154 19.9001 1.90002 17.2586 1.90002 14.0001C1.90002 11.1987 3.85166 8.8545 6.46974 8.25087ZM9.66363 13.8637L12.1636 11.3637C12.5151 11.0122 13.0849 11.0122 13.4364 11.3637L15.9364 13.8637C16.2879 14.2152 16.2879 14.785 15.9364 15.1365C15.5849 15.488 15.0151 15.488 14.6636 15.1365L13.7 14.1729V19.0001C13.7 19.4972 13.2971 19.9001 12.8 19.9001C12.303 19.9001 11.9 19.4972 11.9 19.0001V14.1729L10.9364 15.1365C10.5849 15.488 10.0151 15.488 9.66363 15.1365C9.31216 14.785 9.31216 14.2152 9.66363 13.8637Z" fill="#121212"/>
</svg>
