<svg width="25" height="24" viewBox="0 0 25 24" fill="none" xmlns="http://www.w3.org/2000/svg">
<path fill-rule="evenodd" clip-rule="evenodd" d="M10.7548 11.0737C11.99 10.4561 13.6336 10.1001 15.4 10.1001C17.1664 10.1001 18.81 10.4561 20.0452 11.0737C21.2267 11.6645 22.3 12.6471 22.3 14.0001C22.3 15.3531 21.2267 16.3357 20.0452 16.9265C18.81 17.5441 17.1664 17.9001 15.4 17.9001C13.6336 17.9001 11.99 17.5441 10.7548 16.9265C9.57326 16.3357 8.5 15.3531 8.5 14.0001C8.5 12.6471 9.57326 11.6645 10.7548 11.0737ZM11.5597 12.6837C10.5697 13.1787 10.3 13.6961 10.3 14.0001C10.3 14.3041 10.5697 14.8215 11.5597 15.3165C12.496 15.7846 13.8524 16.1001 15.4 16.1001C16.9476 16.1001 18.304 15.7846 19.2403 15.3165C20.2303 14.8215 20.5 14.3041 20.5 14.0001C20.5 13.6961 20.2303 13.1787 19.2403 12.6837C18.304 12.2156 16.9476 11.9001 15.4 11.9001C13.8524 11.9001 12.496 12.2156 11.5597 12.6837Z" fill="#121212"/>
<path fill-rule="evenodd" clip-rule="evenodd" d="M9.4 13.1001C9.89706 13.1001 10.3 13.503 10.3 14.0001V18.0001C10.3 18.3035 10.5696 18.8209 11.5598 19.3162C12.4961 19.7844 13.8525 20.1001 15.4 20.1001C16.9475 20.1001 18.3039 19.7844 19.2402 19.3162C20.2304 18.8209 20.5 18.3035 20.5 18.0001V14.0001C20.5 13.503 20.9029 13.1001 21.4 13.1001C21.8971 13.1001 22.3 13.503 22.3 14.0001V18.0001C22.3 19.3527 21.2266 20.3353 20.0453 20.926C18.8101 21.5438 17.1665 21.9001 15.4 21.9001C13.6335 21.9001 11.9899 21.5438 10.7547 20.926C9.57339 20.3353 8.5 19.3527 8.5 18.0001V14.0001C8.5 13.503 8.90294 13.1001 9.4 13.1001Z" fill="#121212"/>
<path fill-rule="evenodd" clip-rule="evenodd" d="M6.15029 2.53743C8.16943 1.95432 10.6306 1.95432 12.6497 2.53743C13.6624 2.82988 14.5411 3.26211 15.1851 3.8197C15.8287 4.37692 16.3 5.12089 16.3 6.0001C16.3 6.8793 15.8287 7.62327 15.1851 8.1805C14.5411 8.73809 13.6624 9.17031 12.6497 9.46276C10.6306 10.0459 8.16943 10.0459 6.15029 9.46276C5.13763 9.17031 4.25888 8.73809 3.61489 8.1805C2.97131 7.62327 2.5 6.8793 2.5 6.0001C2.5 5.12089 2.97131 4.37692 3.61489 3.8197C4.25888 3.26211 5.13763 2.82988 6.15029 2.53743ZM12.1503 4.26676C10.4574 3.77788 8.34257 3.77788 6.64971 4.26676C5.80637 4.51031 5.18512 4.84109 4.79311 5.1805C4.40069 5.52027 4.3 5.8073 4.3 6.0001C4.3 6.19289 4.40069 6.47992 4.79311 6.8197C5.18512 7.15911 5.80637 7.48988 6.64971 7.73343C8.34257 8.22232 10.4574 8.22232 12.1503 7.73343C12.9936 7.48988 13.6149 7.15911 14.0069 6.8197C14.3993 6.47992 14.5 6.19289 14.5 6.0001C14.5 5.8073 14.3993 5.52027 14.0069 5.1805C13.6149 4.84109 12.9936 4.51031 12.1503 4.26676Z" fill="#121212"/>
<path fill-rule="evenodd" clip-rule="evenodd" d="M3.4 5.1001C3.89706 5.1001 4.3 5.50304 4.3 6.0001V16.0001C4.3 16.1375 4.34297 16.2742 4.55037 16.4659C4.7857 16.6834 5.17534 16.9133 5.76788 17.1787C6.22152 17.3819 6.42455 17.9143 6.22138 18.368C6.0182 18.8216 5.48575 19.0247 5.03212 18.8215C4.39666 18.5369 3.7863 18.2108 3.32863 17.7878C2.84303 17.339 2.5 16.7507 2.5 16.0001V6.0001C2.5 5.50304 2.90294 5.1001 3.4 5.1001Z" fill="#121212"/>
<path fill-rule="evenodd" clip-rule="evenodd" d="M3.4 10.1001C3.89706 10.1001 4.3 10.503 4.3 11.0001C4.3 11.1375 4.34297 11.2742 4.55037 11.4659C4.7857 11.6834 5.17534 11.9133 5.76788 12.1787C6.22152 12.3819 6.42455 12.9143 6.22138 13.368C6.0182 13.8216 5.48575 14.0247 5.03212 13.8215C4.39666 13.5369 3.7863 13.2108 3.32863 12.7878C2.84303 12.339 2.5 11.7507 2.5 11.0001C2.5 10.503 2.90294 10.1001 3.4 10.1001Z" fill="#121212"/>
</svg>
