<svg width="25" height="24" viewBox="0 0 25 24" fill="none" xmlns="http://www.w3.org/2000/svg">
<path fill-rule="evenodd" clip-rule="evenodd" d="M4.90002 4.99998C4.90002 3.39835 6.1984 2.09998 7.80002 2.09998H18.8C19.8494 2.09998 20.7 2.95063 20.7 3.99998V18C20.7 18.497 20.2971 18.9 19.8 18.9H7.30002C6.96865 18.9 6.70002 19.1686 6.70002 19.5C6.70002 19.8313 6.96865 20.1 7.30002 20.1H19.8C20.2971 20.1 20.7 20.5029 20.7 21C20.7 21.497 20.2971 21.9 19.8 21.9H7.30002C5.97454 21.9 4.90002 20.8255 4.90002 19.5V4.99998ZM6.70002 17.1756C6.8918 17.1262 7.09284 17.1 7.30002 17.1H18.9V3.99998C18.9 3.94475 18.8553 3.89998 18.8 3.89998H7.80002C7.19251 3.89998 6.70002 4.39246 6.70002 4.99998V17.1756ZM11.15 8.74998C11.15 7.83871 11.8888 7.09998 12.8 7.09998C13.7113 7.09998 14.45 7.83871 14.45 8.74998C14.45 9.66125 13.7113 10.4 12.8 10.4C11.8888 10.4 11.15 9.66125 11.15 8.74998ZM11.6741 13.1939C11.674 13.1938 11.6746 13.1924 11.6761 13.1899C11.675 13.1927 11.6742 13.1939 11.6741 13.1939ZM13.9239 13.1899C13.9254 13.1924 13.926 13.1938 13.9259 13.1939C13.9258 13.194 13.9251 13.1927 13.9239 13.1899ZM10.7864 11.5963C11.2639 11.2848 11.9199 11.1 12.8 11.1C13.6801 11.1 14.3362 11.2848 14.8136 11.5963C15.3003 11.9137 15.5268 12.3143 15.6253 12.6026C15.8846 13.362 15.2337 13.9 14.6895 13.9H10.9105C10.3663 13.9 9.71546 13.362 9.97479 12.6026C10.0732 12.3143 10.2998 11.9137 10.7864 11.5963Z" fill="#121212"/>
</svg>
