<svg width="25" height="24" viewBox="0 0 25 24" fill="none" xmlns="http://www.w3.org/2000/svg">
<path fill-rule="evenodd" clip-rule="evenodd" d="M11.9646 3.09998H17.6354C18.1653 3.09996 18.6165 3.09995 18.9869 3.13021C19.3761 3.16201 19.7547 3.23164 20.1166 3.41606C20.6623 3.69409 21.1059 4.13773 21.3839 4.6834C21.5684 5.04534 21.638 5.42393 21.6698 5.81309C21.7001 6.18352 21.7 6.63469 21.7 7.16455V12.8354C21.7 13.3653 21.7001 13.8164 21.6698 14.1869C21.638 14.576 21.5684 14.9546 21.3839 15.3165C21.1059 15.8622 20.6623 16.3059 20.1166 16.5839C19.7547 16.7683 19.3761 16.8379 18.9869 16.8697C18.6316 16.8988 18.2021 16.8999 17.7 16.9C17.7 17.402 17.6988 17.8316 17.6698 18.1869C17.638 18.576 17.5684 18.9546 17.3839 19.3165C17.1059 19.8622 16.6623 20.3059 16.1166 20.5839C15.7547 20.7683 15.3761 20.8379 14.9869 20.8697C14.6165 20.9 14.1653 20.9 13.6354 20.9H7.9646C7.43474 20.9 6.98357 20.9 6.61314 20.8697C6.22398 20.8379 5.84539 20.7683 5.48345 20.5839C4.93778 20.3059 4.49414 19.8622 4.21611 19.3165C4.03169 18.9546 3.96206 18.576 3.93026 18.1869C3.9 17.8164 3.90001 17.3652 3.90003 16.8354V11.1646C3.90001 10.6347 3.9 10.1835 3.93026 9.81309C3.96206 9.42393 4.03169 9.04534 4.21611 8.6834C4.49414 8.13773 4.93778 7.69409 5.48345 7.41606C5.84539 7.23164 6.22398 7.16201 6.61314 7.13021C6.96843 7.10119 7.39799 7.10001 7.90003 7.09998C7.90006 6.59795 7.90124 6.16838 7.93026 5.81309C7.96206 5.42393 8.03169 5.04534 8.21611 4.6834C8.49414 4.13773 8.93778 3.69409 9.48345 3.41606C9.84539 3.23164 10.224 3.16201 10.6131 3.13021C10.9836 3.09995 11.4348 3.09996 11.9646 3.09998ZM8.00003 8.89998C7.42512 8.89998 7.04807 8.90068 6.75972 8.92424C6.48187 8.94694 6.36653 8.9863 6.30064 9.01987C6.09366 9.12533 5.92538 9.29361 5.81992 9.50059C5.78635 9.56648 5.74699 9.68182 5.72428 9.95967C5.70073 10.248 5.70003 10.6251 5.70003 11.2V16.8C5.70003 17.3749 5.70073 17.7519 5.72428 18.0403C5.74699 18.3181 5.78635 18.4335 5.81992 18.4994C5.92538 18.7063 6.09366 18.8746 6.30064 18.9801C6.36653 19.0137 6.48187 19.053 6.75972 19.0757C7.04807 19.0993 7.42512 19.1 8.00003 19.1H13.6C14.1749 19.1 14.552 19.0993 14.8403 19.0757C15.1182 19.053 15.2335 19.0137 15.2994 18.9801C15.5064 18.8746 15.6747 18.7063 15.7801 18.4994C15.8137 18.4335 15.8531 18.3181 15.8758 18.0403C15.8993 17.7519 15.9 17.3749 15.9 16.8V11.2C15.9 10.6251 15.8993 10.248 15.8758 9.95967C15.8531 9.68182 15.8137 9.56648 15.7801 9.50059C15.6747 9.29361 15.5064 9.12533 15.2994 9.01987C15.2335 8.9863 15.1182 8.94694 14.8403 8.92424C14.552 8.90068 14.1749 8.89998 13.6 8.89998H8.00003ZM17.7 15.1V11.1646C17.7 10.6347 17.7001 10.1835 17.6698 9.81309C17.638 9.42393 17.5684 9.04534 17.3839 8.6834C17.1059 8.13773 16.6623 7.69409 16.1166 7.41606C15.7547 7.23164 15.3761 7.16201 14.9869 7.13021C14.6165 7.09995 14.1653 7.09996 13.6354 7.09998L9.70004 7.09998C9.70019 6.58076 9.70212 6.23096 9.72428 5.95967C9.74699 5.68182 9.78634 5.56648 9.81992 5.50059C9.92538 5.29361 10.0937 5.12533 10.3006 5.01987C10.3665 4.9863 10.4819 4.94694 10.7597 4.92424C11.0481 4.90068 11.4251 4.89998 12 4.89998H17.6C18.1749 4.89998 18.552 4.90068 18.8403 4.92424C19.1182 4.94694 19.2335 4.9863 19.2994 5.01987C19.5064 5.12533 19.6747 5.29361 19.7801 5.50059C19.8137 5.56648 19.8531 5.68182 19.8758 5.95967C19.8993 6.24802 19.9 6.62507 19.9 7.19998V12.8C19.9 13.3749 19.8993 13.7519 19.8758 14.0403C19.8531 14.3181 19.8137 14.4335 19.7801 14.4994C19.6747 14.7063 19.5064 14.8746 19.2994 14.9801C19.2335 15.0137 19.1182 15.053 18.8403 15.0757C18.569 15.0979 18.2192 15.0998 17.7 15.1Z" fill="#121212"/>
</svg>
