<svg width="25" height="24" viewBox="0 0 25 24" fill="none" xmlns="http://www.w3.org/2000/svg">
<path fill-rule="evenodd" clip-rule="evenodd" d="M5.44189 4.84198C5.80452 4.47935 6.39246 4.47935 6.75509 4.84198L12.5985 10.6854L18.4419 4.84198C18.8045 4.47935 19.3925 4.47935 19.7551 4.84198C20.1177 5.20461 20.1177 5.79255 19.7551 6.15518L13.9117 11.9986L19.7551 17.842C20.1177 18.2046 20.1177 18.7925 19.7551 19.1552C19.3925 19.5178 18.8045 19.5178 18.4419 19.1552L12.5985 13.3118L6.75509 19.1552C6.39246 19.5178 5.80452 19.5178 5.44189 19.1552C5.07926 18.7925 5.07926 18.2046 5.44189 17.842L11.2853 11.9986L5.44189 6.15518C5.07926 5.79255 5.07926 5.20461 5.44189 4.84198Z" fill="#121212"/>
</svg>
