<svg width="25" height="24" viewBox="0 0 25 24" fill="none" xmlns="http://www.w3.org/2000/svg">
<path fill-rule="evenodd" clip-rule="evenodd" d="M7.61969 7.21967C7.91259 6.92678 8.38746 6.92678 8.68035 7.21967L12.4 10.9393L16.1197 7.21967C16.4126 6.92678 16.8875 6.92678 17.1804 7.21967C17.4732 7.51256 17.4732 7.98744 17.1804 8.28033L13.4607 12L17.1804 15.7197C17.4732 16.0126 17.4732 16.4874 17.1804 16.7803C16.8875 17.0732 16.4126 17.0732 16.1197 16.7803L12.4 13.0607L8.68035 16.7803C8.38746 17.0732 7.91259 17.0732 7.61969 16.7803C7.3268 16.4874 7.3268 16.0126 7.61969 15.7197L11.3394 12L7.61969 8.28033C7.3268 7.98744 7.3268 7.51256 7.61969 7.21967Z" fill="#121212"/>
</svg>
