<svg width="24" height="24" viewBox="0 0 24 24" fill="none" xmlns="http://www.w3.org/2000/svg">
<path fill-rule="evenodd" clip-rule="evenodd" d="M4.10001 4.99998C4.10001 3.39835 5.39838 2.09998 7.00001 2.09998H12.1716C12.9407 2.09998 13.6783 2.40551 14.2222 2.94937L13.8766 3.295L14.2222 2.94937L19.0506 7.77779C19.5945 8.32165 19.9 9.05928 19.9 9.8284V19C19.9 20.6016 18.6016 21.9 17 21.9H7.00001C5.39838 21.9 4.10001 20.6016 4.10001 19V4.99998ZM12.1 3.89998H7.00001C6.39249 3.89998 5.90001 4.39246 5.90001 4.99998V19C5.90001 19.6075 6.39249 20.1 7.00001 20.1H17C17.6075 20.1 18.1 19.6075 18.1 19V9.89998H15C13.3984 9.89998 12.1 8.6016 12.1 6.99998V3.89998ZM16.8272 8.09998H15C14.3925 8.09998 13.9 7.60749 13.9 6.99998V5.17277L16.8272 8.09998ZM8.10001 13C8.10001 12.5029 8.50295 12.1 9.00001 12.1H12C12.4971 12.1 12.9 12.5029 12.9 13C12.9 13.497 12.4971 13.9 12 13.9H9.00001C8.50295 13.9 8.10001 13.497 8.10001 13ZM8.10001 17C8.10001 16.5029 8.50295 16.1 9.00001 16.1H15.5C15.9971 16.1 16.4 16.5029 16.4 17C16.4 17.497 15.9971 17.9 15.5 17.9H9.00001C8.50295 17.9 8.10001 17.497 8.10001 17Z" fill="#121212"/>
</svg>
