<svg width="25" height="24" viewBox="0 0 25 24" fill="none" xmlns="http://www.w3.org/2000/svg">
<path d="M5.89963 19C5.89963 18.9448 5.85525 18.9004 5.80002 18.9004C5.74479 18.9004 5.70041 18.9448 5.70041 19C5.70041 19.0552 5.74479 19.0996 5.80002 19.0996C5.85525 19.0996 5.89963 19.0552 5.89963 19ZM12.8996 19C12.8996 18.9448 12.8552 18.9004 12.8 18.9004C12.7448 18.9004 12.7004 18.9448 12.7004 19C12.7004 19.0552 12.7448 19.0996 12.8 19.0996C12.8552 19.0996 12.8996 19.0552 12.8996 19ZM19.8996 19C19.8996 18.9448 19.8552 18.9004 19.8 18.9004C19.7448 18.9004 19.7004 18.9448 19.7004 19C19.7004 19.0552 19.7448 19.0996 19.8 19.0996C19.8552 19.0996 19.8996 19.0552 19.8996 19ZM5.89963 12C5.89963 11.9448 5.85525 11.9004 5.80002 11.9004C5.74479 11.9004 5.70041 11.9448 5.70041 12C5.70041 12.0552 5.74479 12.0996 5.80002 12.0996C5.85525 12.0996 5.89963 12.0552 5.89963 12ZM12.8996 12C12.8996 11.9448 12.8552 11.9004 12.8 11.9004C12.7448 11.9004 12.7004 11.9448 12.7004 12C12.7004 12.0552 12.7448 12.0996 12.8 12.0996C12.8552 12.0996 12.8996 12.0552 12.8996 12ZM19.8996 12C19.8996 11.9448 19.8552 11.9004 19.8 11.9004C19.7448 11.9004 19.7004 11.9448 19.7004 12C19.7004 12.0552 19.7448 12.0996 19.8 12.0996C19.8552 12.0996 19.8996 12.0552 19.8996 12ZM5.89963 5C5.89963 4.94477 5.85525 4.90039 5.80002 4.90039C5.74479 4.90039 5.70041 4.94477 5.70041 5C5.70041 5.05523 5.74479 5.09961 5.80002 5.09961C5.85525 5.09961 5.89963 5.05523 5.89963 5ZM12.8996 5C12.8996 4.94477 12.8552 4.90039 12.8 4.90039C12.7448 4.90039 12.7004 4.94477 12.7004 5C12.7004 5.05523 12.7448 5.09961 12.8 5.09961C12.8552 5.09961 12.8996 5.05523 12.8996 5ZM19.8996 5C19.8996 4.94477 19.8552 4.90039 19.8 4.90039C19.7448 4.90039 19.7004 4.94477 19.7004 5C19.7004 5.05523 19.7448 5.09961 19.8 5.09961C19.8552 5.09961 19.8996 5.05523 19.8996 5ZM7.70041 19C7.70041 20.0493 6.84936 20.9004 5.80002 20.9004C4.75068 20.9004 3.89963 20.0493 3.89963 19C3.89963 17.9507 4.75068 17.0996 5.80002 17.0996C6.84936 17.0996 7.70041 17.9507 7.70041 19ZM14.7004 19C14.7004 20.0493 13.8494 20.9004 12.8 20.9004C11.7507 20.9004 10.8996 20.0493 10.8996 19C10.8996 17.9507 11.7507 17.0996 12.8 17.0996C13.8494 17.0996 14.7004 17.9507 14.7004 19ZM21.7004 19C21.7004 20.0493 20.8494 20.9004 19.8 20.9004C18.7507 20.9004 17.8996 20.0493 17.8996 19C17.8996 17.9507 18.7507 17.0996 19.8 17.0996C20.8494 17.0996 21.7004 17.9507 21.7004 19ZM7.70041 12C7.70041 13.0493 6.84936 13.9004 5.80002 13.9004C4.75068 13.9004 3.89963 13.0493 3.89963 12C3.89963 10.9507 4.75068 10.0996 5.80002 10.0996C6.84936 10.0996 7.70041 10.9507 7.70041 12ZM14.7004 12C14.7004 13.0493 13.8494 13.9004 12.8 13.9004C11.7507 13.9004 10.8996 13.0493 10.8996 12C10.8996 10.9507 11.7507 10.0996 12.8 10.0996C13.8494 10.0996 14.7004 10.9507 14.7004 12ZM21.7004 12C21.7004 13.0493 20.8494 13.9004 19.8 13.9004C18.7507 13.9004 17.8996 13.0493 17.8996 12C17.8996 10.9507 18.7507 10.0996 19.8 10.0996C20.8494 10.0996 21.7004 10.9507 21.7004 12ZM7.70041 5C7.70041 6.04934 6.84936 6.90039 5.80002 6.90039C4.75068 6.90039 3.89963 6.04934 3.89963 5C3.89963 3.95066 4.75068 3.09961 5.80002 3.09961C6.84936 3.09961 7.70041 3.95066 7.70041 5ZM14.7004 5C14.7004 6.04934 13.8494 6.90039 12.8 6.90039C11.7507 6.90039 10.8996 6.04934 10.8996 5C10.8996 3.95066 11.7507 3.09961 12.8 3.09961C13.8494 3.09961 14.7004 3.95066 14.7004 5ZM21.7004 5C21.7004 6.04934 20.8494 6.90039 19.8 6.90039C18.7507 6.90039 17.8996 6.04934 17.8996 5C17.8996 3.95066 18.7507 3.09961 19.8 3.09961C20.8494 3.09961 21.7004 3.95066 21.7004 5Z" fill="#121212"/>
</svg>
