<svg width="24" height="24" viewBox="0 0 24 24" fill="none" xmlns="http://www.w3.org/2000/svg">
<path fill-rule="evenodd" clip-rule="evenodd" d="M12 3.1001C12.4971 3.1001 12.9 3.50304 12.9 4.0001V17.8273L17.3636 13.3637C17.7151 13.0122 18.2849 13.0122 18.6364 13.3637C18.9879 13.7152 18.9879 14.285 18.6364 14.6365L12.6364 20.6365C12.4676 20.8053 12.2387 20.9001 12 20.9001C11.7613 20.9001 11.5324 20.8053 11.3636 20.6365L5.36361 14.6365C5.01214 14.285 5.01214 13.7152 5.36361 13.3637C5.71508 13.0122 6.28493 13.0122 6.6364 13.3637L11.1 17.8273V4.0001C11.1 3.50304 11.503 3.1001 12 3.1001Z" fill="#121212"/>
</svg>
