<svg width="25" height="24" viewBox="0 0 25 24" fill="none" xmlns="http://www.w3.org/2000/svg">
<path fill-rule="evenodd" clip-rule="evenodd" d="M7.8823 5.1001H3.4C2.90294 5.1001 2.5 5.50304 2.5 6.0001C2.5 6.49715 2.90294 6.9001 3.4 6.9001H4.558L5.37753 19.193C5.47909 20.7164 6.74436 21.9001 8.27111 21.9001H16.5289C18.0556 21.9001 19.3209 20.7164 19.4225 19.193L20.242 6.9001H21.4C21.8971 6.9001 22.3 6.49715 22.3 6.0001C22.3 5.50304 21.8971 5.1001 21.4 5.1001H16.9177C16.1757 3.33789 14.4333 2.1001 12.4 2.1001C10.3667 2.1001 8.62435 3.33789 7.8823 5.1001ZM9.95011 5.1001H14.8499C14.2825 4.36978 13.3956 3.9001 12.4 3.9001C11.4045 3.9001 10.5175 4.36978 9.95011 5.1001ZM16.2537 6.9001H6.362L7.17354 19.0733C7.21206 19.6511 7.692 20.1001 8.27111 20.1001H16.5289C17.108 20.1001 17.5879 19.6511 17.6265 19.0733L18.438 6.9001H16.2931C16.2799 6.90039 16.2668 6.90039 16.2537 6.9001Z" fill="#121212"/>
<path fill-rule="evenodd" clip-rule="evenodd" d="M9.64233 10.2426C9.9938 9.89114 10.5636 9.89114 10.9151 10.2426L12.4001 11.7275L13.885 10.2426C14.2364 9.89116 14.8063 9.89116 15.1578 10.2426C15.5092 10.5941 15.5092 11.164 15.1578 11.5154L13.6728 13.0003L15.1578 14.4852C15.5092 14.8367 15.5092 15.4066 15.1578 15.758C14.8063 16.1095 14.2364 16.1095 13.885 15.758L12.4001 14.2731L10.9151 15.7581C10.5636 16.1095 9.9938 16.1095 9.64233 15.7581C9.29086 15.4066 9.29086 14.8367 9.64233 14.4853L11.1273 13.0003L9.64233 11.5154C9.29086 11.1639 9.29086 10.5941 9.64233 10.2426Z" fill="#121212"/>
</svg>
