<svg width="25" height="24" viewBox="0 0 25 24" fill="none" xmlns="http://www.w3.org/2000/svg">
<path fill-rule="evenodd" clip-rule="evenodd" d="M14.6 4.9001C14.103 4.9001 13.7 4.49715 13.7 4.0001C13.7 3.50304 14.103 3.1001 14.6 3.1001H20.6C21.0971 3.1001 21.5 3.50304 21.5 4.0001V10.0001C21.5 10.4972 21.0971 10.9001 20.6 10.9001C20.103 10.9001 19.7 10.4972 19.7 10.0001V6.17289L12.2364 13.6365C11.8849 13.988 11.3151 13.988 10.9636 13.6365C10.6121 13.285 10.6121 12.7152 10.9636 12.3637L18.4272 4.9001H14.6ZM7.76461 5.1001L9.60001 5.1001C10.0971 5.1001 10.5 5.50304 10.5 6.0001C10.5 6.49715 10.0971 6.9001 9.60001 6.9001H7.80001C7.22511 6.9001 6.84806 6.9008 6.55971 6.92436C6.28186 6.94706 6.16651 6.98642 6.10062 7.01999C5.89365 7.12545 5.72537 7.29373 5.61991 7.50071C5.58633 7.5666 5.54697 7.68194 5.52427 7.95979C5.50071 8.24814 5.50001 8.62519 5.50001 9.2001V16.8001C5.50001 17.375 5.50071 17.7521 5.52427 18.0404C5.54697 18.3183 5.58633 18.4336 5.61991 18.4995C5.72537 18.7065 5.89365 18.8747 6.10062 18.9802C6.16651 19.0138 6.28186 19.0531 6.55971 19.0758C6.84806 19.0994 7.22511 19.1001 7.80001 19.1001H15.4C15.9749 19.1001 16.352 19.0994 16.6403 19.0758C16.9182 19.0531 17.0335 19.0138 17.0994 18.9802C17.3064 18.8747 17.4747 18.7065 17.5801 18.4995C17.6137 18.4336 17.6531 18.3183 17.6758 18.0404C17.6993 17.7521 17.7 17.375 17.7 16.8001V15.0001C17.7 14.503 18.103 14.1001 18.6 14.1001C19.0971 14.1001 19.5 14.503 19.5 15.0001V16.8355C19.5 17.3654 19.5 17.8166 19.4698 18.187C19.438 18.5761 19.3683 18.9547 19.1839 19.3167C18.9059 19.8623 18.4623 20.306 17.9166 20.584C17.5547 20.7684 17.1761 20.8381 16.7869 20.8699C16.4165 20.9001 15.9653 20.9001 15.4354 20.9001H7.76461C7.23474 20.9001 6.78356 20.9001 6.41313 20.8699C6.02397 20.8381 5.64537 20.7684 5.28344 20.584C4.73777 20.306 4.29413 19.8623 4.01609 19.3167C3.83168 18.9547 3.76205 18.5761 3.73025 18.187C3.69999 17.8166 3.7 17.3654 3.70001 16.8355V9.16469C3.7 8.63483 3.69999 8.18364 3.73025 7.81321C3.76205 7.42405 3.83168 7.04546 4.01609 6.68353C4.29413 6.13786 4.73777 5.69421 5.28344 5.41618C5.64537 5.23176 6.02397 5.16213 6.41313 5.13033C6.78356 5.10007 7.23474 5.10008 7.76461 5.1001Z" fill="#121212"/>
</svg>
