<svg width="25" height="24" viewBox="0 0 25 24" fill="none" xmlns="http://www.w3.org/2000/svg">
<path fill-rule="evenodd" clip-rule="evenodd" d="M12.8 5.89998C9.63178 5.9 6.36196 7.71485 4.07594 11.5551C3.91293 11.8289 3.91294 12.1711 4.07594 12.445C6.36195 16.2852 9.63177 18.1 12.8 18.1C15.9683 18.1 19.2381 16.2851 21.5241 12.4449C21.6871 12.171 21.6871 11.8288 21.5241 11.555C19.2381 7.71476 15.9683 5.89995 12.8 5.89998ZM12.8 4.09998C16.7105 4.09995 20.5194 6.34822 23.0708 10.6343C23.5716 11.4754 23.5716 12.5244 23.0708 13.3656C20.5194 17.6516 16.7105 19.8999 12.8 19.9C8.88955 19.9 5.08064 17.6517 2.52924 13.3657C2.0285 12.5245 2.0285 11.4755 2.52924 10.6344C5.08064 6.34832 8.88954 4.1 12.8 4.09998ZM12.8 9.89997C11.6402 9.89997 10.7 10.8402 10.7 12C10.7 13.1598 11.6402 14.1 12.8 14.1C13.9598 14.1 14.9 13.1598 14.9 12C14.9 10.8402 13.9598 9.89997 12.8 9.89997ZM8.90003 12C8.90003 9.84606 10.6461 8.09998 12.8 8.09998C14.9539 8.09998 16.7 9.84606 16.7 12C16.7 14.1539 14.9539 15.9 12.8 15.9C10.6461 15.9 8.90003 14.1539 8.90003 12Z" fill="#121212"/>
</svg>
