<svg width="25" height="24" viewBox="0 0 25 24" fill="none" xmlns="http://www.w3.org/2000/svg">
<path fill-rule="evenodd" clip-rule="evenodd" d="M3.90002 5.99998C3.90002 4.39835 5.1984 3.09998 6.80002 3.09998H8.80002C9.29708 3.09998 9.70002 3.50292 9.70002 3.99998C9.70002 4.49703 9.29708 4.89998 8.80002 4.89998H6.80002C6.19251 4.89998 5.70002 5.39246 5.70002 5.99998V7.99998C5.70002 8.49703 5.29708 8.89998 4.80002 8.89998C4.30297 8.89998 3.90002 8.49703 3.90002 7.99998V5.99998ZM15.9 3.99998C15.9 3.50292 16.303 3.09998 16.8 3.09998H18.8C20.4016 3.09998 21.7 4.39835 21.7 5.99998V7.99998C21.7 8.49703 21.2971 8.89998 20.8 8.89998C20.303 8.89998 19.9 8.49703 19.9 7.99998V5.99998C19.9 5.39246 19.4075 4.89998 18.8 4.89998H16.8C16.303 4.89998 15.9 4.49703 15.9 3.99998ZM13.3 7.84998C13.7971 7.84998 14.2 8.25292 14.2 8.74998V11C14.2 12.3525 13.275 13.4867 12.0244 13.8086C11.543 13.9325 11.0523 13.6427 10.9284 13.1613C10.8045 12.6799 11.0943 12.1893 11.5757 12.0654C12.0503 11.9432 12.4 11.5113 12.4 11V8.74998C12.4 8.25292 12.803 7.84998 13.3 7.84998ZM8.80002 8.09998C9.29708 8.09998 9.70002 8.50292 9.70002 8.99998V9.99998C9.70002 10.497 9.29708 10.9 8.80002 10.9C8.30297 10.9 7.90002 10.497 7.90002 9.99998V8.99998C7.90002 8.50292 8.30297 8.09998 8.80002 8.09998ZM16.8 8.09998C17.2971 8.09998 17.7 8.50292 17.7 8.99998V9.99998C17.7 10.497 17.2971 10.9 16.8 10.9C16.303 10.9 15.9 10.497 15.9 9.99998V8.99998C15.9 8.50292 16.303 8.09998 16.8 8.09998ZM9.02098 15.2466C9.26987 14.8164 9.82042 14.6694 10.2507 14.9183C10.9999 15.3517 11.8696 15.6 12.8 15.6C13.7305 15.6 14.6001 15.3517 15.3494 14.9183C15.7796 14.6694 16.3302 14.8164 16.5791 15.2466C16.828 15.6769 16.6809 16.2275 16.2507 16.4763C15.2349 17.064 14.0553 17.4 12.8 17.4C11.5447 17.4 10.3652 17.064 9.34937 16.4763C8.91912 16.2275 8.77209 15.6769 9.02098 15.2466ZM4.80002 15.1C5.29708 15.1 5.70002 15.5029 5.70002 16V18C5.70002 18.6075 6.19251 19.1 6.80002 19.1H8.80002C9.29708 19.1 9.70002 19.5029 9.70002 20C9.70002 20.497 9.29708 20.9 8.80002 20.9H6.80002C5.1984 20.9 3.90002 19.6016 3.90002 18V16C3.90002 15.5029 4.30297 15.1 4.80002 15.1ZM20.8 15.1C21.2971 15.1 21.7 15.5029 21.7 16V18C21.7 19.6016 20.4016 20.9 18.8 20.9H16.8C16.303 20.9 15.9 20.497 15.9 20C15.9 19.5029 16.303 19.1 16.8 19.1H18.8C19.4075 19.1 19.9 18.6075 19.9 18V16C19.9 15.5029 20.303 15.1 20.8 15.1Z" fill="#121212"/>
</svg>
