<svg width="24" height="24" viewBox="0 0 24 24" fill="none" xmlns="http://www.w3.org/2000/svg">
<path fill-rule="evenodd" clip-rule="evenodd" d="M18.0022 4.9001L6.0022 4.90012C5.39469 4.90012 4.9022 5.39261 4.9022 6.00012V16.0359C4.9022 16.6434 5.39469 17.1359 6.0022 17.1359H8.65182C9.09819 17.1359 9.53031 17.293 9.87239 17.5798L12.0013 19.3643L14.1638 17.5728C14.5046 17.2904 14.9333 17.1359 15.3759 17.1359L18.0022 17.1359C18.6097 17.1358 19.1022 16.6434 19.1022 16.0359V6.0001C19.1022 5.39258 18.6097 4.9001 18.0022 4.9001ZM6.0022 3.10012L18.0022 3.1001C19.6038 3.10009 20.9022 4.39847 20.9022 6.0001V16.0359C20.9022 17.6375 19.6038 18.9358 18.0022 18.9359L15.3759 18.9359C15.3526 18.9359 15.3301 18.944 15.3121 18.9589L12.5721 21.2289C12.2375 21.5061 11.7527 21.5047 11.4198 21.2256L8.71606 18.9592C8.69806 18.9441 8.67532 18.9359 8.65182 18.9359H6.0022C4.40058 18.9359 3.1022 17.6375 3.1022 16.0359V6.00012C3.1022 4.3985 4.40057 3.10012 6.0022 3.10012Z" fill="#121212"/>
<path d="M7.75001 11.7501C7.47386 11.7501 7.25001 11.5262 7.25001 11.2501C7.25001 10.974 7.47386 10.7501 7.75001 10.7501C8.02615 10.7501 8.25001 10.974 8.25001 11.2501C8.25001 11.5262 8.02615 11.7501 7.75001 11.7501Z" fill="#121212"/>
<path d="M12 11.7501C11.7239 11.7501 11.5 11.5262 11.5 11.2501C11.5 10.974 11.7239 10.7501 12 10.7501C12.2761 10.7501 12.5 10.974 12.5 11.2501C12.5 11.5262 12.2761 11.7501 12 11.7501Z" fill="#121212"/>
<path d="M16.25 11.7501C15.9739 11.7501 15.75 11.5262 15.75 11.2501C15.75 10.974 15.9739 10.7501 16.25 10.7501C16.5261 10.7501 16.75 10.974 16.75 11.2501C16.75 11.5262 16.5261 11.7501 16.25 11.7501Z" fill="#121212"/>
<path fill-rule="evenodd" clip-rule="evenodd" d="M7.75001 12.5001C7.05965 12.5001 6.50001 11.9405 6.50001 11.2501C6.50001 10.5597 7.05965 10.0001 7.75001 10.0001C8.44036 10.0001 9.00001 10.5597 9.00001 11.2501C9.00001 11.9405 8.44036 12.5001 7.75001 12.5001ZM12 12.5001C11.3097 12.5001 10.75 11.9405 10.75 11.2501C10.75 10.5597 11.3097 10.0001 12 10.0001C12.6904 10.0001 13.25 10.5597 13.25 11.2501C13.25 11.9405 12.6904 12.5001 12 12.5001ZM16.25 12.5001C15.5596 12.5001 15 11.9405 15 11.2501C15 10.5597 15.5596 10.0001 16.25 10.0001C16.9404 10.0001 17.5 10.5597 17.5 11.2501C17.5 11.9405 16.9404 12.5001 16.25 12.5001ZM7.75001 11.7501C7.47386 11.7501 7.25001 11.5262 7.25001 11.2501C7.25001 10.974 7.47386 10.7501 7.75001 10.7501C8.02615 10.7501 8.25001 10.974 8.25001 11.2501C8.25001 11.5262 8.02615 11.7501 7.75001 11.7501ZM12 11.7501C11.7239 11.7501 11.5 11.5262 11.5 11.2501C11.5 10.974 11.7239 10.7501 12 10.7501C12.2761 10.7501 12.5 10.974 12.5 11.2501C12.5 11.5262 12.2761 11.7501 12 11.7501ZM15.75 11.2501C15.75 11.5262 15.9739 11.7501 16.25 11.7501C16.5261 11.7501 16.75 11.5262 16.75 11.2501C16.75 10.974 16.5261 10.7501 16.25 10.7501C15.9739 10.7501 15.75 10.974 15.75 11.2501Z" fill="#121212"/>
</svg>
