<svg width="24" height="24" viewBox="0 0 24 24" fill="none" xmlns="http://www.w3.org/2000/svg">
<path fill-rule="evenodd" clip-rule="evenodd" d="M5.90704 4.58517C5.90445 4.59004 5.90001 4.6013 5.90001 4.61933V13.6694C5.92279 13.6616 5.9458 13.6539 5.96904 13.6462C6.76438 13.3814 7.86801 13.1001 9.00001 13.1001C10.2106 13.1001 11.3781 13.6834 12.313 14.1504C12.3429 14.1653 12.3724 14.1801 12.4018 14.1948C13.457 14.7212 14.2579 15.1001 15 15.1001C16.1681 15.1001 17.3893 14.6975 18.093 14.415C18.0956 14.4102 18.1 14.3989 18.1 14.3809V5.615C18.1 5.58618 18.0882 5.53572 18.012 5.48455C17.9309 5.43015 17.8344 5.41796 17.7601 5.44084C16.9988 5.67544 16.0119 5.9001 15 5.9001C13.7894 5.9001 12.6219 5.31681 11.687 4.84976C11.6572 4.83486 11.6276 4.82008 11.5982 4.80543C10.543 4.27899 9.74207 3.9001 9.00001 3.9001C7.8319 3.9001 6.61067 4.30274 5.90704 4.58517ZM5.90001 15.588C6.07665 15.5169 6.29272 15.4355 6.53751 15.354C7.24434 15.1188 8.14071 14.9001 9.00001 14.9001C9.74207 14.9001 10.543 15.279 11.5982 15.8054C11.6276 15.8201 11.6572 15.8349 11.687 15.8498C12.6219 16.3168 13.7894 16.9001 15 16.9001C16.5182 16.9001 17.9988 16.3929 18.7694 16.0831C19.4924 15.7925 19.9 15.0943 19.9 14.3809V5.615C19.9 4.17811 18.4311 3.35058 17.2301 3.72065C16.5608 3.92688 15.7645 4.1001 15 4.1001C14.2579 4.1001 13.457 3.7212 12.4018 3.19476C12.3724 3.18012 12.3428 3.16533 12.313 3.15043C11.3781 2.68338 10.2106 2.1001 9.00001 2.1001C7.48183 2.1001 6.00117 2.60734 5.23057 2.91711C4.50762 3.20773 4.10001 3.90592 4.10001 4.61933V21.0001C4.10001 21.4972 4.50295 21.9001 5.00001 21.9001C5.49706 21.9001 5.90001 21.4972 5.90001 21.0001V15.588Z" fill="#121212"/>
</svg>
