<svg width="25" height="24" viewBox="0 0 25 24" fill="none" xmlns="http://www.w3.org/2000/svg">
<path fill-rule="evenodd" clip-rule="evenodd" d="M4.94947 11.1H8.11896C8.21323 8.86856 8.65547 6.83133 9.34918 5.27049C9.45009 5.04344 9.55749 4.82384 9.67141 4.61333C7.11843 5.76557 5.26978 8.20246 4.94947 11.1ZM13 2.09998C7.53242 2.09998 3.10004 6.53236 3.10004 12C3.10004 17.4676 7.53242 21.9 13 21.9C18.4677 21.9 22.9 17.4676 22.9 12C22.9 6.53236 18.4677 2.09998 13 2.09998ZM13 3.89998C12.7406 3.89998 12.4257 4.01453 12.0635 4.3592C11.6967 4.70828 11.3254 5.25594 10.994 6.00154C10.4167 7.30065 10.014 9.08019 9.92069 11.1H16.0794C15.9861 9.08019 15.5834 7.30065 15.006 6.00154C14.6747 5.25594 14.3034 4.70828 13.9366 4.3592C13.5744 4.01453 13.2595 3.89998 13 3.89998ZM17.8811 11.1C17.7868 8.86856 17.3446 6.83133 16.6509 5.27049C16.55 5.04344 16.4426 4.82384 16.3287 4.61333C18.8816 5.76557 20.7303 8.20246 21.0506 11.1H17.8811ZM16.0794 12.9H9.92069C10.014 14.9198 10.4167 16.6993 10.994 17.9984C11.3254 18.744 11.6967 19.2917 12.0635 19.6408C12.4257 19.9854 12.7406 20.1 13 20.1C13.2595 20.1 13.5744 19.9854 13.9366 19.6408C14.3034 19.2917 14.6747 18.744 15.006 17.9984C15.5834 16.6993 15.9861 14.9198 16.0794 12.9ZM16.3287 19.3866C16.4426 19.1761 16.55 18.9565 16.6509 18.7295C17.3446 17.1686 17.7868 15.1314 17.8811 12.9H21.0506C20.7303 15.7975 18.8816 18.2344 16.3287 19.3866ZM9.67141 19.3866C9.55749 19.1761 9.45009 18.9565 9.34918 18.7295C8.65547 17.1686 8.21323 15.1314 8.11896 12.9H4.94947C5.26978 15.7975 7.11843 18.2344 9.67141 19.3866Z" fill="#121212"/>
</svg>
