<svg width="25" height="24" viewBox="0 0 25 24" fill="none" xmlns="http://www.w3.org/2000/svg">
<path d="M17.5114 3.10736C18.0045 3.169 18.3541 3.61814 18.2926 4.11127L17.9196 7.09955H20.4C20.8971 7.09955 21.3004 7.50288 21.3004 7.99994C21.3004 8.49699 20.8971 8.90033 20.4 8.90033H17.694L16.9196 15.0995H20.4C20.8971 15.0995 21.3004 15.5029 21.3004 15.9999C21.3004 16.497 20.8971 16.9003 20.4 16.9003H16.694L16.2926 20.1113C16.231 20.6044 15.7818 20.954 15.2887 20.8925C14.7956 20.8309 14.4459 20.3817 14.5074 19.8886L14.8805 16.9003H8.69397L8.2926 20.1113C8.23096 20.6044 7.78182 20.954 7.2887 20.8925C6.79556 20.8309 6.44594 20.3817 6.50745 19.8886L6.88049 16.9003H4.40002C3.90297 16.9003 3.49963 16.497 3.49963 15.9999C3.49963 15.5029 3.90297 15.0995 4.40002 15.0995H7.10608L7.88049 8.90033H4.40002C3.90297 8.90033 3.49963 8.49699 3.49963 7.99994C3.49963 7.50288 3.90297 7.09955 4.40002 7.09955H8.10608L8.50745 3.88861C8.56909 3.39547 9.01823 3.04585 9.51135 3.10736C10.0045 3.169 10.3541 3.61814 10.2926 4.11127L9.91956 7.09955H16.1061L16.5074 3.88861C16.5691 3.39547 17.0182 3.04585 17.5114 3.10736ZM8.91956 15.0995H15.1061L15.8805 8.90033H9.69397L8.91956 15.0995Z" fill="#121212"/>
</svg>
