<svg width="25" height="24" viewBox="0 0 25 24" fill="none" xmlns="http://www.w3.org/2000/svg">
<path fill-rule="evenodd" clip-rule="evenodd" d="M4.89111 4.49112C5.46176 3.92047 6.23572 3.59989 7.04274 3.59989H9.18559C9.68265 3.59989 10.0856 4.00283 10.0856 4.49989C10.0856 4.99694 9.68265 5.39989 9.18559 5.39989H7.04274C6.71311 5.39989 6.39698 5.53083 6.1639 5.76391C5.93082 5.99699 5.79988 6.31312 5.79988 6.64275V19.4999C5.79988 19.8295 5.93082 20.1456 6.1639 20.3787C6.39698 20.6118 6.71311 20.7427 7.04274 20.7427H17.757C18.0866 20.7427 18.4028 20.6118 18.6359 20.3787C18.8689 20.1456 18.9999 19.8295 18.9999 19.4999V6.64275C18.9999 6.31312 18.8689 5.99699 18.6359 5.76391C18.4028 5.53083 18.0866 5.39989 17.757 5.39989H15.6142C15.1171 5.39989 14.7142 4.99694 14.7142 4.49989C14.7142 4.00283 15.1171 3.59989 15.6142 3.59989H17.757C18.564 3.59989 19.338 3.92047 19.9086 4.49112C20.4793 5.06177 20.7999 5.83573 20.7999 6.64275V19.4999C20.7999 20.3069 20.4793 21.0809 19.9086 21.6515C19.338 22.2222 18.564 22.5427 17.757 22.5427H7.04274C6.23572 22.5427 5.46176 22.2222 4.89111 21.6515C4.32046 21.0809 3.99988 20.3069 3.99988 19.4999V6.64275C3.99988 5.83573 4.32046 5.06177 4.89111 4.49112Z" fill="#121212"/>
<path fill-rule="evenodd" clip-rule="evenodd" d="M11.3284 3.25703C10.9988 3.25703 10.6827 3.38797 10.4496 3.62106C10.2165 3.85414 10.0856 4.17026 10.0856 4.49989C10.0856 4.82951 10.2165 5.14564 10.4496 5.37872C10.6827 5.6118 10.9988 5.74275 11.3284 5.74275H13.4713C13.8009 5.74275 14.1171 5.6118 14.3501 5.37872C14.5832 5.14564 14.7142 4.82951 14.7142 4.49989C14.7142 4.17026 14.5832 3.85414 14.3501 3.62106C14.1171 3.38797 13.8009 3.25703 13.4713 3.25703H11.3284ZM9.17682 2.34826C9.74747 1.77762 10.5214 1.45703 11.3284 1.45703H13.4713C14.2783 1.45703 15.0523 1.77762 15.6229 2.34826C16.1936 2.91891 16.5142 3.69287 16.5142 4.49989C16.5142 5.3069 16.1936 6.08087 15.6229 6.65151C15.0523 7.22216 14.2783 7.54275 13.4713 7.54275H11.3284C10.5214 7.54275 9.74747 7.22216 9.17682 6.65151C8.60618 6.08087 8.28559 5.3069 8.28559 4.49989C8.28559 3.69287 8.60618 2.91891 9.17682 2.34826Z" fill="#121212"/>
<path fill-rule="evenodd" clip-rule="evenodd" d="M9.35702 14.1427C9.35702 13.6457 9.75996 13.2427 10.257 13.2427H14.5427C15.0398 13.2427 15.4427 13.6457 15.4427 14.1427C15.4427 14.6398 15.0398 15.0427 14.5427 15.0427H10.257C9.75996 15.0427 9.35702 14.6398 9.35702 14.1427Z" fill="#121212"/>
<path fill-rule="evenodd" clip-rule="evenodd" d="M12.3999 11.0999C12.8969 11.0999 13.2999 11.5028 13.2999 11.9999V16.2856C13.2999 16.7827 12.8969 17.1856 12.3999 17.1856C11.9028 17.1856 11.4999 16.7827 11.4999 16.2856V11.9999C11.4999 11.5028 11.9028 11.0999 12.3999 11.0999Z" fill="#121212"/>
</svg>
