<svg width="24" height="24" viewBox="0 0 24 24" fill="none" xmlns="http://www.w3.org/2000/svg">
<path fill-rule="evenodd" clip-rule="evenodd" d="M12.3638 2.17236C12.1258 2.10573 11.8741 2.10573 11.6361 2.17236C11.5461 2.19754 11.4265 2.25065 11.2109 2.40086C10.986 2.55756 10.7122 2.77925 10.2973 3.11631L4.89735 7.50382C4.37036 7.93199 4.24171 8.04612 4.15273 8.17024C4.05931 8.30056 3.98985 8.44649 3.94762 8.60117C3.90739 8.7485 3.89995 8.92031 3.89995 9.59932V17.5046C3.89995 18.1495 3.90065 18.579 3.92761 18.9091C3.95372 19.2286 3.99989 19.3748 4.04709 19.4675C4.17652 19.7215 4.38304 19.928 4.63706 20.0574C4.72969 20.1046 4.8759 20.1508 5.19544 20.1769C5.52548 20.2039 5.95504 20.2046 6.59995 20.2046H17.3999C18.0449 20.2046 18.4744 20.2039 18.8045 20.1769C19.124 20.1508 19.2702 20.1046 19.3628 20.0574C19.6169 19.928 19.8234 19.7215 19.9528 19.4675C20 19.3748 20.0462 19.2286 20.0723 18.9091C20.0992 18.579 20.0999 18.1495 20.0999 17.5046V9.59932C20.0999 8.92031 20.0925 8.7485 20.0523 8.60117C20.01 8.44649 19.9406 8.30056 19.8472 8.17024C19.7582 8.04612 19.6295 7.93199 19.1025 7.50382L13.7025 3.11632C13.2877 2.77926 13.0139 2.55756 12.789 2.40086C12.5734 2.25065 12.4538 2.19754 12.3638 2.17236ZM11.1509 0.438981C11.7062 0.283523 12.2936 0.283523 12.849 0.438981C13.2089 0.53971 13.5165 0.713921 13.8179 0.923935C14.104 1.12321 14.4293 1.38758 14.813 1.69931L20.2376 6.10681C20.263 6.12743 20.2881 6.14779 20.3129 6.16791C20.728 6.50467 21.0624 6.77598 21.3101 7.12154C21.5281 7.42563 21.6902 7.76612 21.7887 8.12706C21.9007 8.53722 21.9004 8.96785 21.9 9.50237C21.9 9.53431 21.8999 9.56662 21.8999 9.59932V17.5407C21.9 18.14 21.9 18.6436 21.8663 19.0557C21.8311 19.4865 21.7547 19.896 21.5566 20.2846C21.2546 20.8774 20.7727 21.3592 20.18 21.6612C19.7913 21.8593 19.3819 21.9357 18.951 21.9709C18.5389 22.0046 18.0354 22.0046 17.4361 22.0046H6.5638C5.96452 22.0046 5.46095 22.0046 5.04886 21.9709C4.61801 21.9357 4.20855 21.8593 3.81988 21.6612C3.22716 21.3592 2.74528 20.8774 2.44328 20.2846C2.24524 19.896 2.16879 19.4865 2.13359 19.0557C2.09992 18.6436 2.09993 18.14 2.09995 17.5407L2.09995 9.59932C2.09995 9.56662 2.09992 9.53431 2.0999 9.50237C2.09951 8.96785 2.09919 8.53722 2.21118 8.12706C2.30973 7.76612 2.4718 7.42563 2.68978 7.12154C2.93749 6.77598 3.27191 6.50467 3.687 6.16791C3.71181 6.14779 3.7369 6.12743 3.76228 6.10681L9.18686 1.69934C9.57053 1.38759 9.8959 1.12322 10.1819 0.923935C10.4834 0.713921 10.791 0.53971 11.1509 0.438981ZM6.59995 16.6046C6.59995 16.1075 7.00289 15.7046 7.49995 15.7046H16.4999C16.997 15.7046 17.3999 16.1075 17.3999 16.6046C17.3999 17.1016 16.997 17.5046 16.4999 17.5046H7.49995C7.00289 17.5046 6.59995 17.1016 6.59995 16.6046Z" fill="#121212"/>
</svg>
