<svg width="24" height="24" viewBox="0 0 24 24" fill="none" xmlns="http://www.w3.org/2000/svg">
<path fill-rule="evenodd" clip-rule="evenodd" d="M0.199951 13.1435C0.199951 12.6464 0.602895 12.2435 1.09995 12.2435H3.42428C3.92134 12.2435 4.32428 12.6464 4.32428 13.1435C4.32428 13.6405 3.92134 14.0435 3.42428 14.0435H1.09995C0.602895 14.0435 0.199951 13.6405 0.199951 13.1435Z" fill="#121212"/>
<path fill-rule="evenodd" clip-rule="evenodd" d="M2.78789 6.69623C3.13936 6.34476 3.70921 6.34476 4.06068 6.69623L5.80393 8.43948C6.1554 8.79095 6.1554 9.3608 5.80393 9.71227C5.45246 10.0637 4.88261 10.0637 4.53113 9.71227L2.78789 7.96902C2.43641 7.61755 2.43641 7.0477 2.78789 6.69623Z" fill="#121212"/>
<path fill-rule="evenodd" clip-rule="evenodd" d="M15.8622 2.91941C17.016 1.76563 18.8866 1.76563 20.0404 2.91941C21.1942 4.07319 21.1942 5.94384 20.0404 7.09762L18.3525 8.78555L23.2363 13.6694C23.5878 14.0209 23.5878 14.5908 23.2363 14.9422C22.8849 15.2937 22.315 15.2937 21.9636 14.9422L17.0797 10.0583L15.3917 11.7463C14.2379 12.9001 12.3673 12.9001 11.2135 11.7463C10.0597 10.5925 10.0597 8.72185 11.2135 7.56807L15.8622 2.91941ZM18.7676 4.1922C18.3168 3.74137 17.5858 3.74137 17.135 4.1922L12.4863 8.84087C12.0355 9.2917 12.0355 10.0227 12.4863 10.4735C12.9372 10.9243 13.6681 10.9243 14.1189 10.4735L18.7676 5.82483C19.2184 5.37399 19.2184 4.64304 18.7676 4.1922Z" fill="#121212"/>
<path fill-rule="evenodd" clip-rule="evenodd" d="M3.20286 19.0968C3.64174 17.7802 4.87388 16.8921 6.26173 16.8921H13.3707C14.7585 16.8921 15.9906 17.7802 16.4295 19.0968L16.8568 20.3786H17.3703C17.8673 20.3786 18.2703 20.7816 18.2703 21.2786C18.2703 21.7757 17.8673 22.1786 17.3703 22.1786H2.26212C1.76506 22.1786 1.36212 21.7757 1.36212 21.2786C1.36212 20.7816 1.76506 20.3786 2.26212 20.3786H2.7756L3.20286 19.0968ZM4.67297 20.3786H14.9594L14.7219 19.666C14.528 19.0844 13.9837 18.6921 13.3707 18.6921H6.26173C5.64865 18.6921 5.10436 19.0844 4.91049 19.666L4.67297 20.3786Z" fill="#121212"/>
</svg>
