<svg width="25" height="24" viewBox="0 0 25 24" fill="none" xmlns="http://www.w3.org/2000/svg">
<path d="M3.69965 18V6C3.69965 4.39837 4.99841 3.09961 6.60004 3.09961H11.85L11.9418 3.10449C12.3958 3.15047 12.7504 3.53393 12.7504 4C12.7504 4.46607 12.3958 4.84953 11.9418 4.89551L11.85 4.90039H6.60004C5.99252 4.90039 5.50043 5.39249 5.50043 6V18L5.50531 18.1123C5.56155 18.6671 6.03042 19.0996 6.60004 19.0996H11.85L11.9418 19.1045C12.3958 19.1505 12.7504 19.5339 12.7504 20C12.7504 20.4661 12.3958 20.8495 11.9418 20.8955L11.85 20.9004H6.60004C5.04852 20.9004 3.78131 19.6816 3.70355 18.1494L3.69965 18ZM15.4633 6.86328C15.7929 6.53373 16.3149 6.51331 16.6684 6.80176L16.7368 6.86328L21.2368 11.3633L21.2983 11.4316C21.5867 11.7851 21.5663 12.3072 21.2368 12.6367L16.7368 17.1367C16.3853 17.4882 15.8148 17.4882 15.4633 17.1367C15.1118 16.7852 15.1118 16.2148 15.4633 15.8633L18.4262 12.9004H9.35004C8.85298 12.9004 8.44965 12.4971 8.44965 12C8.44965 11.5029 8.85298 11.0996 9.35004 11.0996H18.4262L15.4633 8.13672L15.4018 8.06836C15.1133 7.71486 15.1338 7.19284 15.4633 6.86328Z" fill="#121212"/>
</svg>
