<svg width="24" height="24" viewBox="0 0 24 24" fill="none" xmlns="http://www.w3.org/2000/svg">
<path fill-rule="evenodd" clip-rule="evenodd" d="M3.10001 6.0001C3.10001 4.39847 4.39838 3.1001 6.00001 3.1001H18C19.6016 3.1001 20.9 4.39847 20.9 6.0001V10.0001C20.9 10.4972 20.4971 10.9001 20 10.9001C19.5029 10.9001 19.1 10.4972 19.1 10.0001V6.0001C19.1 5.39258 18.6075 4.9001 18 4.9001H6.00001C5.39249 4.9001 4.90001 5.39258 4.90001 6.0001V18.0001C4.90001 18.6076 5.39249 19.1001 6.00001 19.1001H11C11.4971 19.1001 11.9 19.503 11.9 20.0001C11.9 20.4972 11.4971 20.9001 11 20.9001H6.00001C4.39838 20.9001 3.10001 19.6017 3.10001 18.0001V6.0001ZM11.0796 7.03236C11.4772 7.33059 11.5578 7.89471 11.2596 8.29236L9.38796 10.7879C9.10136 11.17 8.56617 11.2617 8.16873 10.9967L7.04373 10.2467C6.63015 9.97099 6.5184 9.41221 6.79411 8.99864C7.06983 8.58506 7.62861 8.4733 8.04219 8.74902L8.45879 9.02676L9.81959 7.21236C10.1178 6.81471 10.6819 6.73412 11.0796 7.03236ZM13.1579 9.00011C13.1579 8.50306 13.5609 8.10011 14.0579 8.10011H16.0579C16.555 8.10011 16.9579 8.50306 16.9579 9.00011C16.9579 9.49717 16.555 9.90011 16.0579 9.90011H14.0579C13.5609 9.90011 13.1579 9.49717 13.1579 9.00011ZM11.0796 13.0335C11.4772 13.3317 11.5578 13.8958 11.2596 14.2935L9.38796 16.789C9.10136 17.1711 8.56617 17.2628 8.16873 16.9978L7.04373 16.2478C6.63015 15.9721 6.5184 15.4133 6.79411 14.9998C7.06983 14.5862 7.62861 14.4744 8.04219 14.7501L8.45879 15.0279L9.81959 13.2135C10.1178 12.8158 10.6819 12.7353 11.0796 13.0335ZM14.1 17.0001C14.1 14.8462 15.8461 13.1001 18 13.1001C20.1539 13.1001 21.9 14.8462 21.9 17.0001V20.0001C21.9 20.4972 21.4971 20.9001 21 20.9001H19.6737C19.3529 21.4955 18.7237 21.9001 18 21.9001C17.2763 21.9001 16.6471 21.4955 16.3263 20.9001H15C14.5029 20.9001 14.1 20.4972 14.1 20.0001V17.0001ZM15.9 19.1001V17.0001C15.9 15.8403 16.8402 14.9001 18 14.9001C19.1598 14.9001 20.1 15.8403 20.1 17.0001V19.1001H15.9Z" fill="#121212"/>
</svg>
