<svg width="25" height="24" viewBox="0 0 25 24" fill="none" xmlns="http://www.w3.org/2000/svg">
<path fill-rule="evenodd" clip-rule="evenodd" d="M12.8106 2.58038C12.9853 2.88145 12.9708 3.2563 12.7733 3.54294C12.0963 4.5252 11.7 5.71484 11.7 6.99974C11.7 10.3687 14.4311 13.0997 17.8 13.0997C19.085 13.0997 20.2747 12.7034 21.257 12.0264C21.5436 11.8288 21.9185 11.8143 22.2195 11.9891C22.5206 12.1638 22.6939 12.4965 22.6645 12.8434C22.235 17.9147 17.984 21.896 12.8021 21.896C7.33547 21.896 2.90393 17.4645 2.90393 11.9979C2.90393 6.81609 6.8851 2.56511 11.9562 2.13543C12.3031 2.10604 12.6358 2.27932 12.8106 2.58038ZM10.386 4.2661C7.09388 5.2937 4.70393 8.36703 4.70393 11.9979C4.70393 16.4703 8.32959 20.096 12.8021 20.096C16.433 20.096 19.5064 17.7059 20.5339 14.4136C19.6816 14.728 18.7604 14.8997 17.8 14.8997C13.437 14.8997 9.90002 11.3628 9.90002 6.99974C9.90002 6.03944 10.0717 5.11833 10.386 4.2661Z" fill="#121212"/>
</svg>
