<svg width="25" height="24" viewBox="0 0 25 24" fill="none" xmlns="http://www.w3.org/2000/svg">
<path fill-rule="evenodd" clip-rule="evenodd" d="M4.4 11.9C4.34477 11.9 4.3 11.9447 4.3 12C4.3 12.0552 4.34477 12.1 4.4 12.1C4.45523 12.1 4.5 12.0552 4.5 12C4.5 11.9447 4.45523 11.9 4.4 11.9ZM2.5 12C2.5 10.9506 3.35066 10.1 4.4 10.1C5.44934 10.1 6.3 10.9506 6.3 12C6.3 13.0493 5.44934 13.9 4.4 13.9C3.35066 13.9 2.5 13.0493 2.5 12ZM12.4 11.9C12.3448 11.9 12.3 11.9447 12.3 12C12.3 12.0552 12.3448 12.1 12.4 12.1C12.4552 12.1 12.5 12.0552 12.5 12C12.5 11.9447 12.4552 11.9 12.4 11.9ZM10.5 12C10.5 10.9506 11.3507 10.1 12.4 10.1C13.4493 10.1 14.3 10.9506 14.3 12C14.3 13.0493 13.4493 13.9 12.4 13.9C11.3507 13.9 10.5 13.0493 10.5 12ZM20.4 11.9C20.3448 11.9 20.3 11.9447 20.3 12C20.3 12.0552 20.3448 12.1 20.4 12.1C20.4552 12.1 20.5 12.0552 20.5 12C20.5 11.9447 20.4552 11.9 20.4 11.9ZM18.5 12C18.5 10.9506 19.3507 10.1 20.4 10.1C21.4493 10.1 22.3 10.9506 22.3 12C22.3 13.0493 21.4493 13.9 20.4 13.9C19.3507 13.9 18.5 13.0493 18.5 12Z" fill="#121212"/>
</svg>
