<svg width="25" height="24" viewBox="0 0 25 24" fill="none" xmlns="http://www.w3.org/2000/svg">
<path fill-rule="evenodd" clip-rule="evenodd" d="M7.79999 3.9001C7.19248 3.9001 6.69999 4.39258 6.69999 5.0001V19.0001C6.69999 19.6076 7.19248 20.1001 7.79999 20.1001H9.79999C10.2971 20.1001 10.7 20.503 10.7 21.0001C10.7 21.4972 10.2971 21.9001 9.79999 21.9001H7.79999C6.19837 21.9001 4.89999 20.6017 4.89999 19.0001V5.0001C4.89999 3.39847 6.19837 2.1001 7.79999 2.1001H17.8C19.4016 2.1001 20.7 3.39847 20.7 5.0001V10.5001C20.7 10.9972 20.297 11.4001 19.8 11.4001C19.3029 11.4001 18.9 10.9972 18.9 10.5001V5.0001C18.9 4.39259 18.4075 3.9001 17.8 3.9001H7.79999ZM8.89999 7.0001C8.89999 6.50304 9.30294 6.1001 9.79999 6.1001H15.8C16.297 6.1001 16.7 6.50304 16.7 7.0001C16.7 7.49715 16.297 7.9001 15.8 7.9001H9.79999C9.30294 7.9001 8.89999 7.49715 8.89999 7.0001ZM8.89999 11.0001C8.89999 10.503 9.30294 10.1001 9.79999 10.1001H11.8C12.2971 10.1001 12.7 10.503 12.7 11.0001C12.7 11.4972 12.2971 11.9001 11.8 11.9001H9.79999C9.30294 11.9001 8.89999 11.4972 8.89999 11.0001Z" fill="#121212"/>
<path fill-rule="evenodd" clip-rule="evenodd" d="M14.6891 17.5326C14.6891 17.2013 14.9578 16.9326 15.2891 16.9326H15.2942C15.6256 16.9326 15.8942 17.2013 15.8942 17.5326C15.8942 17.864 15.6256 18.1326 15.2942 18.1326H15.2891C14.9578 18.1326 14.6891 17.864 14.6891 17.5326Z" fill="#121212"/>
<path fill-rule="evenodd" clip-rule="evenodd" d="M17.7108 17.5326C17.7108 17.2013 17.9795 16.9326 18.3108 16.9326H18.3159C18.6472 16.9326 18.9159 17.2013 18.9159 17.5326C18.9159 17.864 18.6472 18.1326 18.3159 18.1326H18.3108C17.9795 18.1326 17.7108 17.864 17.7108 17.5326Z" fill="#121212"/>
<path fill-rule="evenodd" clip-rule="evenodd" d="M15.2783 19.2384C15.4488 18.9542 15.8173 18.8621 16.1015 19.0326C16.2486 19.1209 16.4917 19.1989 16.8 19.1989C17.1083 19.1989 17.3514 19.1209 17.4985 19.0326C17.7827 18.8621 18.1512 18.9542 18.3217 19.2384C18.4922 19.5225 18.4001 19.8911 18.1159 20.0616C17.7594 20.2755 17.2975 20.3989 16.8 20.3989C16.3025 20.3989 15.8405 20.2755 15.4841 20.0616C15.1999 19.8911 15.1078 19.5225 15.2783 19.2384Z" fill="#121212"/>
<path fill-rule="evenodd" clip-rule="evenodd" d="M16.7986 12.3001L16.8 12.3001C17.426 12.3001 18.0158 12.4715 18.468 12.7971C18.9238 13.1253 19.2626 13.6346 19.2626 14.2591C19.2626 15.2019 18.6297 16.2182 17.5554 16.2182C17.2473 16.2182 16.922 16.1428 16.6508 15.9702C16.3752 15.7949 16.1 15.4728 16.1 15.0146C16.1 14.628 16.4134 14.3146 16.8 14.3146C17.1156 14.3146 17.3824 14.5234 17.4698 14.8105C17.4944 14.8151 17.5234 14.8182 17.5554 14.8182C17.5853 14.8182 17.6481 14.8052 17.7216 14.7139C17.7963 14.6213 17.8626 14.4646 17.8626 14.2591C17.8626 14.1786 17.8238 14.0584 17.65 13.9333C17.4729 13.8057 17.1815 13.7002 16.8007 13.7001C15.9189 13.702 15.0647 14.008 14.3822 14.5664C13.6996 15.125 13.2304 15.9019 13.054 16.7661C13.0104 16.9799 12.8696 17.161 12.6733 17.2561C12.6214 17.2813 12.5776 17.3206 12.5469 17.3695C12.5163 17.4184 12.5 17.4749 12.5 17.5326C12.5 17.5903 12.5163 17.6469 12.5469 17.6958C12.5776 17.7447 12.6214 17.784 12.6733 17.8091C12.8675 17.9032 13.0074 18.0815 13.0526 18.2924C13.2365 19.1498 13.7088 19.9182 14.3907 20.4695C15.0727 21.0207 15.9231 21.3215 16.8 21.3215C17.6769 21.3215 18.5273 21.0207 19.2092 20.4695C19.8912 19.9182 20.3635 19.1498 20.5474 18.2924C20.5926 18.0815 20.7325 17.9032 20.9267 17.8091C20.9786 17.784 21.0224 17.7447 21.0531 17.6958C21.0837 17.6469 21.1 17.5903 21.1 17.5326C21.1 17.4749 21.0837 17.4184 21.0531 17.3695C21.0224 17.3206 20.9786 17.2813 20.9267 17.2561C20.7282 17.16 20.5866 16.9759 20.5446 16.7593C20.4269 16.152 20.1639 15.5822 19.7781 15.0986C19.537 14.7963 19.5865 14.3559 19.8888 14.1148C20.191 13.8737 20.6314 13.9233 20.8725 14.2255C21.3354 14.8057 21.6687 15.4768 21.8518 16.1936C22.004 16.314 22.1353 16.46 22.2393 16.6259C22.4097 16.8977 22.5 17.2119 22.5 17.5326C22.5 17.8533 22.4097 18.1676 22.2393 18.4393C22.1338 18.6077 22.0001 18.7556 21.8451 18.877C21.5554 19.93 20.9425 20.8686 20.0893 21.5583C19.1582 22.3109 17.9972 22.7215 16.8 22.7215C15.6028 22.7215 14.4417 22.3109 13.5107 21.5583C12.6575 20.8686 12.0446 19.93 11.7549 18.877C11.5999 18.7556 11.4662 18.6077 11.3607 18.4393C11.1903 18.1676 11.1 17.8533 11.1 17.5326C11.1 17.2119 11.1903 16.8977 11.3607 16.6259C11.4655 16.4588 11.5979 16.3118 11.7515 16.1909C12.033 15.1298 12.6421 14.1813 13.4957 13.4829C14.4278 12.7203 15.5943 12.3025 16.7986 12.3001Z" fill="#121212"/>
</svg>
