<svg width="25" height="24" viewBox="0 0 25 24" fill="none" xmlns="http://www.w3.org/2000/svg">
<path fill-rule="evenodd" clip-rule="evenodd" d="M7.79996 3.9001C7.19245 3.9001 6.69996 4.39258 6.69996 5.0001V19.0001C6.69996 19.6076 7.19245 20.1001 7.79996 20.1001H12.8C13.297 20.1001 13.7 20.503 13.7 21.0001C13.7 21.4972 13.297 21.9001 12.8 21.9001H7.79996C6.19834 21.9001 4.89996 20.6017 4.89996 19.0001V5.0001C4.89996 3.39847 6.19834 2.1001 7.79996 2.1001H17.8C19.4016 2.1001 20.7 3.39847 20.7 5.0001V10.5001C20.7 10.9972 20.297 11.4001 19.8 11.4001C19.3029 11.4001 18.9 10.9972 18.9 10.5001V5.0001C18.9 4.39259 18.4075 3.9001 17.8 3.9001H7.79996ZM8.89996 7.0001C8.89996 6.50304 9.30291 6.1001 9.79996 6.1001H15.8C16.297 6.1001 16.7 6.50304 16.7 7.0001C16.7 7.49715 16.297 7.9001 15.8 7.9001H9.79996C9.30291 7.9001 8.89996 7.49715 8.89996 7.0001ZM8.89996 11.0001C8.89996 10.503 9.30291 10.1001 9.79996 10.1001H11.8C12.297 10.1001 12.7 10.503 12.7 11.0001C12.7 11.4972 12.297 11.9001 11.8 11.9001H9.79996C9.30291 11.9001 8.89996 11.4972 8.89996 11.0001Z" fill="#121212"/>
<path fill-rule="evenodd" clip-rule="evenodd" d="M18.2 21.4001C18.697 21.4001 19.1 20.9972 19.1 20.5001V16.6729L19.9636 17.5365C20.315 17.888 20.8849 17.888 21.2364 17.5365C21.5878 17.185 21.5878 16.6152 21.2364 16.2637L18.8364 13.8637C18.4849 13.5122 17.915 13.5122 17.5636 13.8637L15.1636 16.2637C14.8121 16.6152 14.8121 17.185 15.1636 17.5365C15.515 17.888 16.0849 17.888 16.4364 17.5365L17.3 16.6729V20.5001C17.3 20.9972 17.7029 21.4001 18.2 21.4001Z" fill="#121212"/>
</svg>
