<svg width="25" height="24" viewBox="0 0 25 24" fill="none" xmlns="http://www.w3.org/2000/svg">
<path fill-rule="evenodd" clip-rule="evenodd" d="M3.89999 3.99992C3.89999 2.2405 5.32629 0.814209 7.08571 0.814209H18.5143C20.2737 0.814209 21.7 2.2405 21.7 3.99992V19.9999C21.7 21.7593 20.2737 23.1856 18.5143 23.1856H7.08571C5.32629 23.1856 3.89999 21.7593 3.89999 19.9999V3.99992ZM7.08571 2.61421C6.3204 2.61421 5.69999 3.23461 5.69999 3.99992V19.9999C5.69999 20.7652 6.3204 21.3856 7.08571 21.3856H18.5143C19.2796 21.3856 19.9 20.7652 19.9 19.9999V3.99992C19.9 3.23461 19.2796 2.61421 18.5143 2.61421H7.08571Z" fill="#121212"/>
<path fill-rule="evenodd" clip-rule="evenodd" d="M9.12501 8.74992H10.0757C10.1315 7.94457 10.2764 7.19067 10.4955 6.54135C9.8037 7.08099 9.30606 7.85798 9.12501 8.74992ZM12.8 4.24992C9.9005 4.24992 7.54999 6.60043 7.54999 9.49992C7.54999 12.3994 9.9005 14.7499 12.8 14.7499C15.6995 14.7499 18.05 12.3994 18.05 9.49992C18.05 6.60043 15.6995 4.24992 12.8 4.24992ZM12.8 5.74992C12.7679 5.74992 12.6808 5.76144 12.5385 5.89685C12.3924 6.03594 12.2266 6.27266 12.0711 6.62255C11.8297 7.1657 11.6484 7.90195 11.5799 8.74992H14.0201C13.9516 7.90195 13.7702 7.1657 13.5288 6.62255C13.3733 6.27266 13.2076 6.03594 13.0614 5.89685C12.9192 5.76144 12.8321 5.74992 12.8 5.74992ZM15.5243 8.74992C15.4685 7.94457 15.3236 7.19067 15.1045 6.54135C15.7963 7.08099 16.2939 7.85798 16.475 8.74992H15.5243ZM14.0201 10.2499H11.5799C11.6484 11.0979 11.8297 11.8341 12.0711 12.3773C12.2266 12.7272 12.3924 12.9639 12.5385 13.103C12.6808 13.2384 12.7679 13.2499 12.8 13.2499C12.8321 13.2499 12.9192 13.2384 13.0614 13.103C13.2076 12.9639 13.3733 12.7272 13.5288 12.3773C13.7702 11.8341 13.9516 11.0979 14.0201 10.2499ZM15.1045 12.4585C15.3236 11.8092 15.4685 11.0553 15.5243 10.2499H16.475C16.2939 11.1419 15.7963 11.9189 15.1045 12.4585ZM10.4955 12.4585C10.2764 11.8092 10.1315 11.0553 10.0757 10.2499H9.12501C9.30606 11.1419 9.8037 11.9189 10.4955 12.4585Z" fill="#121212"/>
<path fill-rule="evenodd" clip-rule="evenodd" d="M8.54999 17.4999C8.54999 17.0857 8.88578 16.7499 9.29999 16.7499H16.3C16.7142 16.7499 17.05 17.0857 17.05 17.4999C17.05 17.9141 16.7142 18.2499 16.3 18.2499H9.29999C8.88578 18.2499 8.54999 17.9141 8.54999 17.4999Z" fill="#121212"/>
</svg>
