<svg width="24" height="24" viewBox="0 0 24 24" fill="none" xmlns="http://www.w3.org/2000/svg">
<path fill-rule="evenodd" clip-rule="evenodd" d="M9.00001 3.9001C7.56407 3.9001 6.40001 5.06416 6.40001 6.5001C6.40001 7.93604 7.56406 9.1001 9.00001 9.1001C10.4359 9.1001 11.6 7.93604 11.6 6.5001C11.6 5.06416 10.4359 3.9001 9.00001 3.9001ZM4.60001 6.5001C4.60001 4.07004 6.56995 2.1001 9.00001 2.1001C11.4301 2.1001 13.4 4.07005 13.4 6.5001C13.4 8.93015 11.4301 10.9001 9.00001 10.9001C6.56995 10.9001 4.60001 8.93015 4.60001 6.5001ZM14.1 3.0001C14.1 2.50304 14.5029 2.1001 15 2.1001C17.4301 2.1001 19.4 4.07005 19.4 6.5001C19.4 8.93015 17.4301 10.9001 15 10.9001C14.5029 10.9001 14.1 10.4972 14.1 10.0001C14.1 9.50304 14.5029 9.1001 15 9.1001C16.4359 9.1001 17.6 7.93604 17.6 6.5001C17.6 5.06416 16.4359 3.9001 15 3.9001C14.5029 3.9001 14.1 3.49715 14.1 3.0001ZM9.00001 13.9001C5.69309 13.9001 3.00499 15.8279 2.17349 18.3192C2.11195 18.5036 2.15106 18.6614 2.28235 18.8067C2.42918 18.9692 2.68971 19.1001 3.00001 19.1001H15C15.3103 19.1001 15.5708 18.9692 15.7177 18.8067C15.849 18.6614 15.8881 18.5036 15.8265 18.3192C14.995 15.8279 12.3069 13.9001 9.00001 13.9001ZM0.46608 17.7493C1.57641 14.4226 5.03036 12.1001 9.00001 12.1001C12.9697 12.1001 16.4236 14.4226 17.5339 17.7493C17.8221 18.6127 17.5734 19.4378 17.0533 20.0134C16.5487 20.5719 15.7943 20.9001 15 20.9001H3.00001C2.20573 20.9001 1.4513 20.5719 0.946738 20.0134C0.426641 19.4378 0.177923 18.6127 0.46608 17.7493ZM17.1516 13.2084C17.3176 12.7399 17.832 12.4946 18.3005 12.6605C20.7773 13.5378 22.7472 15.392 23.534 17.7494C23.8221 18.6128 23.5734 19.4379 23.0532 20.0135C22.5487 20.5719 21.7942 20.9001 21 20.9001H20.5C20.0029 20.9001 19.6 20.4971 19.6 20.0001C19.6 19.503 20.0029 19.1001 20.5 19.1001H21C21.3103 19.1001 21.5709 18.9692 21.7177 18.8067C21.849 18.6614 21.8881 18.5037 21.8266 18.3193C21.2378 16.5551 19.7242 15.0744 17.6995 14.3572C17.231 14.1913 16.9857 13.6769 17.1516 13.2084Z" fill="#121212"/>
</svg>
