<svg width="25" height="24" viewBox="0 0 25 24" fill="none" xmlns="http://www.w3.org/2000/svg">
<path fill-rule="evenodd" clip-rule="evenodd" d="M5.70001 3.99998C5.70001 2.39835 6.99839 1.09998 8.60001 1.09998H16.6C18.2016 1.09998 19.5 2.39835 19.5 3.99998V20C19.5 21.6016 18.2016 22.9 16.6 22.9H8.60001C6.99839 22.9 5.70001 21.6016 5.70001 20V3.99998ZM8.60001 2.89998C7.9925 2.89998 7.50001 3.39246 7.50001 3.99998V20C7.50001 20.6075 7.9925 21.1 8.60001 21.1H16.6C17.2075 21.1 17.7 20.6075 17.7 20V3.99998C17.7 3.39246 17.2075 2.89998 16.6 2.89998H8.60001ZM10.7 4.99998C10.7 4.50292 11.103 4.09998 11.6 4.09998H13.6C14.0971 4.09998 14.5 4.50292 14.5 4.99998C14.5 5.49703 14.0971 5.89998 13.6 5.89998H11.6C11.103 5.89998 10.7 5.49703 10.7 4.99998Z" fill="#121212"/>
</svg>
