<svg width="24" height="24" viewBox="0 0 24 24" fill="none" xmlns="http://www.w3.org/2000/svg">
<path fill-rule="evenodd" clip-rule="evenodd" d="M6.9146 2.84998H17.0854C17.6153 2.84996 18.0665 2.84995 18.4369 2.88021C18.8261 2.91201 19.2046 2.98164 19.5666 3.16606C20.1122 3.44409 20.5559 3.88773 20.8339 4.43341C21.0183 4.79534 21.088 5.17393 21.1198 5.56309C21.15 5.93352 21.15 6.3847 21.15 6.91457V17.0854C21.15 17.6152 21.15 18.0664 21.1198 18.4369C21.088 18.826 21.0183 19.2046 20.8339 19.5665C20.5559 20.1122 20.1122 20.5559 19.5666 20.8339C19.2046 21.0183 18.8261 21.0879 18.4369 21.1197C18.0665 21.15 17.6153 21.15 17.0854 21.15H6.9146C6.38473 21.15 5.93355 21.15 5.56312 21.1197C5.17396 21.0879 4.79537 21.0183 4.43344 20.8339C3.88776 20.5559 3.44412 20.1122 3.16609 19.5665C2.98167 19.2046 2.91204 18.826 2.88024 18.4369C2.84998 18.0664 2.84999 17.6152 2.85001 17.0854V6.91457C2.84999 6.38471 2.84998 5.93352 2.88024 5.56309C2.91204 5.17393 2.98167 4.79534 3.16609 4.4334C3.44412 3.88773 3.88776 3.44409 4.43343 3.16606C4.79537 2.98164 5.17396 2.91201 5.56312 2.88021C5.93355 2.84995 6.38474 2.84996 6.9146 2.84998ZM5.7097 4.67424C5.43185 4.69694 5.31651 4.7363 5.25062 4.76987C5.04364 4.87533 4.87536 5.04361 4.7699 5.25059C4.73633 5.31648 4.69697 5.43182 4.67427 5.70967C4.65071 5.99802 4.65001 6.37507 4.65001 6.94998V17.05C4.65001 17.6249 4.65071 18.0019 4.67427 18.2903C4.69697 18.5681 4.73633 18.6835 4.7699 18.7494C4.87536 18.9563 5.04364 19.1246 5.25062 19.2301C5.31651 19.2637 5.43185 19.303 5.7097 19.3257C5.99805 19.3493 6.3751 19.35 6.95001 19.35H17.05C17.6249 19.35 18.002 19.3493 18.2903 19.3257C18.5682 19.303 18.6835 19.2637 18.7494 19.2301C18.9564 19.1246 19.1247 18.9563 19.2301 18.7494C19.2637 18.6835 19.303 18.5681 19.3257 18.2903C19.3493 18.0019 19.35 17.6249 19.35 17.05V6.94998C19.35 6.37507 19.3493 5.99802 19.3257 5.70967C19.303 5.43182 19.2637 5.31648 19.2301 5.25059C19.1247 5.04361 18.9564 4.87533 18.7494 4.76987C18.6835 4.7363 18.5682 4.69694 18.2903 4.67424C18.002 4.65068 17.6249 4.64998 17.05 4.64998H6.95001C6.3751 4.64998 5.99805 4.65068 5.7097 4.67424ZM16.25 7.84998C16.7471 7.84998 17.15 8.25292 17.15 8.74998V15.25C17.15 15.747 16.7471 16.15 16.25 16.15C15.753 16.15 15.35 15.747 15.35 15.25V8.74998C15.35 8.25292 15.753 7.84998 16.25 7.84998Z" fill="#121212"/>
<path d="M8.50001 12C8.50001 12.2761 8.27615 12.5 8.00001 12.5C7.72387 12.5 7.50001 12.2761 7.50001 12C7.50001 11.7238 7.72387 11.5 8.00001 11.5C8.27615 11.5 8.50001 11.7238 8.50001 12Z" fill="#121212"/>
<path d="M12.5 12C12.5 12.2761 12.2761 12.5 12 12.5C11.7239 12.5 11.5 12.2761 11.5 12C11.5 11.7238 11.7239 11.5 12 11.5C12.2761 11.5 12.5 11.7238 12.5 12Z" fill="#121212"/>
<path fill-rule="evenodd" clip-rule="evenodd" d="M9.00001 12C9.00001 12.5523 8.55229 13 8.00001 13C7.44772 13 7.00001 12.5523 7.00001 12C7.00001 11.4477 7.44772 11 8.00001 11C8.55229 11 9.00001 11.4477 9.00001 12ZM13 12C13 12.5523 12.5523 13 12 13C11.4477 13 11 12.5523 11 12C11 11.4477 11.4477 11 12 11C12.5523 11 13 11.4477 13 12ZM8.00001 12.5C8.27615 12.5 8.50001 12.2761 8.50001 12C8.50001 11.7238 8.27615 11.5 8.00001 11.5C7.72387 11.5 7.50001 11.7238 7.50001 12C7.50001 12.2761 7.72387 12.5 8.00001 12.5ZM12 12.5C12.2761 12.5 12.5 12.2761 12.5 12C12.5 11.7238 12.2761 11.5 12 11.5C11.7239 11.5 11.5 11.7238 11.5 12C11.5 12.2761 11.7239 12.5 12 12.5Z" fill="#121212"/>
</svg>
