<svg width="25" height="24" viewBox="0 0 25 24" fill="none" xmlns="http://www.w3.org/2000/svg">
<path fill-rule="evenodd" clip-rule="evenodd" d="M12.4 2.90002C12.8695 2.90002 13.25 3.28058 13.25 3.75002V11.15H20.65C21.1195 11.15 21.5 11.5306 21.5 12C21.5 12.4695 21.1195 12.85 20.65 12.85H13.25V20.25C13.25 20.7195 12.8695 21.1 12.4 21.1C11.9306 21.1 11.55 20.7195 11.55 20.25V12.85H4.15005C3.68061 12.85 3.30005 12.4695 3.30005 12C3.30005 11.5306 3.68061 11.15 4.15005 11.15H11.55V3.75002C11.55 3.28058 11.9306 2.90002 12.4 2.90002Z" fill="#121212"/>
</svg>
