<svg width="24" height="24" viewBox="0 0 24 24" fill="none" xmlns="http://www.w3.org/2000/svg">
<path fill-rule="evenodd" clip-rule="evenodd" d="M3.10001 5.99998C3.10001 4.39835 4.39838 3.09998 6.00001 3.09998H8.00001C9.60163 3.09998 10.9 4.39835 10.9 5.99998V7.99998C10.9 9.6016 9.60163 10.9 8.00001 10.9H6.00001C4.39838 10.9 3.10001 9.6016 3.10001 7.99998V5.99998ZM6.00001 4.89998C5.39249 4.89998 4.90001 5.39246 4.90001 5.99998V7.99998C4.90001 8.60749 5.39249 9.09998 6.00001 9.09998H8.00001C8.60752 9.09998 9.10001 8.60749 9.10001 7.99998V5.99998C9.10001 5.39246 8.60752 4.89998 8.00001 4.89998H6.00001ZM13.1 5.99998C13.1 4.39835 14.3984 3.09998 16 3.09998H18C19.6016 3.09998 20.9 4.39835 20.9 5.99998V7.99998C20.9 9.6016 19.6016 10.9 18 10.9H16C14.3984 10.9 13.1 9.6016 13.1 7.99998V5.99998ZM16 4.89998C15.3925 4.89998 14.9 5.39246 14.9 5.99998V7.99998C14.9 8.60749 15.3925 9.09998 16 9.09998H18C18.6075 9.09998 19.1 8.60749 19.1 7.99998V5.99998C19.1 5.39246 18.6075 4.89998 18 4.89998H16ZM3.10001 16C3.10001 14.3983 4.39838 13.1 6.00001 13.1H8.00001C9.60163 13.1 10.9 14.3983 10.9 16V18C10.9 19.6016 9.60163 20.9 8.00001 20.9H6.00001C4.39838 20.9 3.10001 19.6016 3.10001 18V16ZM6.00001 14.9C5.39249 14.9 4.90001 15.3925 4.90001 16V18C4.90001 18.6075 5.39249 19.1 6.00001 19.1H8.00001C8.60752 19.1 9.10001 18.6075 9.10001 18V16C9.10001 15.3925 8.60752 14.9 8.00001 14.9H6.00001ZM14 13.1C14.4971 13.1 14.9 13.5029 14.9 14V15.1H16C16.4971 15.1 16.9 15.5029 16.9 16C16.9 16.497 16.4971 16.9 16 16.9H14C13.5029 16.9 13.1 16.497 13.1 16V14C13.1 13.5029 13.5029 13.1 14 13.1ZM17.1 14C17.1 13.5029 17.5029 13.1 18 13.1H20C20.4971 13.1 20.9 13.5029 20.9 14C20.9 14.497 20.4971 14.9 20 14.9H18C17.5029 14.9 17.1 14.497 17.1 14ZM17.1 18C17.1 17.5029 17.5029 17.1 18 17.1H20C20.4971 17.1 20.9 17.5029 20.9 18C20.9 18.497 20.4971 18.9 20 18.9H18.9V20C18.9 20.497 18.4971 20.9 18 20.9C17.5029 20.9 17.1 20.497 17.1 20V18ZM14 19.09C14.4971 19.09 14.9 19.4929 14.9 19.99V20C14.9 20.497 14.4971 20.9 14 20.9C13.5029 20.9 13.1 20.497 13.1 20V19.99C13.1 19.4929 13.5029 19.09 14 19.09Z" fill="#121212"/>
</svg>
