<svg width="25" height="24" viewBox="0 0 25 24" fill="none" xmlns="http://www.w3.org/2000/svg">
<path fill-rule="evenodd" clip-rule="evenodd" d="M4.06575 2.16434C4.52725 1.97974 5.05103 2.20421 5.23563 2.66572L5.66344 3.73525C6.08395 4.78652 6.3 5.90838 6.3 7.04063V19.0432L7.14762 18.3166C7.48466 18.0277 7.98201 18.0277 8.31905 18.3166L10.0667 19.8146L11.8143 18.3166C12.1513 18.0277 12.6487 18.0277 12.9857 18.3166L14.7333 19.8146L16.481 18.3166C16.818 18.0277 17.3153 18.0277 17.6524 18.3166L18.5 19.0432V7.04063C18.5 5.90838 18.716 4.78652 19.1366 3.73525L19.5644 2.66572C19.749 2.20421 20.2727 1.97974 20.7343 2.16434C21.1958 2.34894 21.4202 2.87272 21.2356 3.33422L20.8078 4.40376C20.4724 5.24241 20.3 6.13737 20.3 7.04063V21C20.3 21.3514 20.0954 21.6708 19.7761 21.8176C19.4567 21.9645 19.0811 21.912 18.8143 21.6833L17.0667 20.1853L15.319 21.6833C14.982 21.9722 14.4847 21.9722 14.1476 21.6833L12.4 20.1853L10.6524 21.6833C10.3153 21.9722 9.818 21.9722 9.48095 21.6833L7.73333 20.1853L5.98571 21.6833C5.71885 21.912 5.34325 21.9645 5.02393 21.8176C4.70461 21.6708 4.5 21.3514 4.5 21V7.04063C4.5 6.13737 4.32765 5.24241 3.99218 4.40376L3.56437 3.33422C3.37977 2.87272 3.60424 2.34894 4.06575 2.16434ZM8.5 7.99997C8.5 7.50291 8.90294 7.09997 9.4 7.09997H15.4C15.8971 7.09997 16.3 7.50291 16.3 7.99997C16.3 8.49703 15.8971 8.89997 15.4 8.89997H9.4C8.90294 8.89997 8.5 8.49703 8.5 7.99997ZM8.5 12C8.5 11.5029 8.90294 11.1 9.4 11.1H12.4C12.8971 11.1 13.3 11.5029 13.3 12C13.3 12.497 12.8971 12.9 12.4 12.9H9.4C8.90294 12.9 8.5 12.497 8.5 12Z" fill="#121212"/>
<path fill-rule="evenodd" clip-rule="evenodd" d="M1.5 2.99997C1.5 2.50291 1.90294 2.09997 2.4 2.09997H22.4C22.8971 2.09997 23.3 2.50291 23.3 2.99997C23.3 3.49703 22.8971 3.89997 22.4 3.89997H2.4C1.90294 3.89997 1.5 3.49703 1.5 2.99997Z" fill="#121212"/>
</svg>
