<svg width="25" height="24" viewBox="0 0 25 24" fill="none" xmlns="http://www.w3.org/2000/svg">
<path fill-rule="evenodd" clip-rule="evenodd" d="M4.37071 18.3434C3.62871 17.6014 3.62871 16.3984 4.37071 15.6564L7.6636 12.3635C8.01507 12.012 8.58492 12.012 8.93639 12.3635C9.28786 12.715 9.28786 13.2848 8.93639 13.6363L6.47279 16.0999H20.8C21.2971 16.0999 21.7 16.5028 21.7 16.9999C21.7 17.497 21.2971 17.8999 20.8 17.8999H6.47279L8.93639 20.3635C9.28786 20.715 9.28786 21.2848 8.93639 21.6363C8.58492 21.9878 8.01507 21.9878 7.6636 21.6363L4.37071 18.3434L5.0071 17.707L4.37071 18.3434ZM3.9 6.9999C3.9 6.50285 4.30294 6.0999 4.8 6.0999L19.1272 6.0999L16.6636 3.6363C16.3121 3.28483 16.3121 2.71498 16.6636 2.36351C17.0151 2.01204 17.5849 2.01204 17.9364 2.36351L21.2293 5.6564C21.9713 6.39839 21.9713 7.60141 21.2293 8.3434L17.9364 11.6363C17.5849 11.9878 17.0151 11.9878 16.6636 11.6363C16.3121 11.2848 16.3121 10.715 16.6636 10.3635L19.1272 7.8999L4.8 7.8999C4.30294 7.8999 3.9 7.49696 3.9 6.9999Z" fill="#121212"/>
</svg>
