<svg width="25" height="24" viewBox="0 0 25 24" fill="none" xmlns="http://www.w3.org/2000/svg">
<path d="M13.8 15.0001V12.7072C13.8 12.2618 14.3386 12.0387 14.6535 12.3537L17.4464 15.1465C17.7614 15.4615 17.5383 16.0001 17.0929 16.0001H14.8C14.2477 16.0001 13.8 15.5524 13.8 15.0001Z" fill="#121212"/>
<path d="M21.8 19.0001V21.293C21.8 21.7384 21.2614 21.9615 20.9464 21.6465L18.1535 18.8536C17.8386 18.5387 18.0616 18.0001 18.5071 18.0001H20.8C21.3523 18.0001 21.8 18.4478 21.8 19.0001Z" fill="#121212"/>
<path fill-rule="evenodd" clip-rule="evenodd" d="M8.79996 2.1001C9.29702 2.1001 9.69996 2.50304 9.69996 3.0001V4.1001H15.9V3.0001C15.9 2.50304 16.3029 2.1001 16.8 2.1001C17.297 2.1001 17.7 2.50304 17.7 3.0001V4.1001H18.8C20.4016 4.1001 21.7 5.39847 21.7 7.0001V9.0001C21.7 9.49715 21.297 9.9001 20.8 9.9001H5.69996V18.0001C5.69996 18.6076 6.19245 19.1001 6.79996 19.1001H10.8C11.297 19.1001 11.7 19.503 11.7 20.0001C11.7 20.4972 11.297 20.9001 10.8 20.9001H6.79996C5.19834 20.9001 3.89996 19.6017 3.89996 18.0001V7.0001C3.89996 5.39847 5.19834 4.1001 6.79996 4.1001H7.89996V3.0001C7.89996 2.50304 8.30291 2.1001 8.79996 2.1001ZM6.79996 5.9001C6.19245 5.9001 5.69996 6.39258 5.69996 7.0001V8.1001H19.9V7.0001C19.9 6.39258 19.4075 5.9001 18.8 5.9001H6.79996ZM17.8 14.2751C17.0293 14.2751 16.318 14.5937 15.8138 15.1058C15.4651 15.46 14.8953 15.4645 14.5411 15.1157C14.1868 14.767 14.1824 14.1972 14.5311 13.843C15.362 12.999 16.5307 12.4751 17.8 12.4751C19.8674 12.4751 21.6088 13.8608 22.1505 15.7523C22.2873 16.2302 22.0109 16.7285 21.5331 16.8653C21.0552 17.0022 20.5569 16.7257 20.4201 16.2479C20.0936 15.108 19.0429 14.2751 17.8 14.2751ZM14.0669 17.1349C14.5447 16.998 15.043 17.2745 15.1799 17.7523C15.5063 18.8922 16.557 19.7251 17.8 19.7251C18.4944 19.7251 19.1408 19.4665 19.6314 19.0398C20.0065 18.7136 20.575 18.7532 20.9012 19.1282C21.2274 19.5032 21.1878 20.0717 20.8128 20.3979C20.0065 21.0992 18.9442 21.5251 17.8 21.5251C15.7326 21.5251 13.9911 20.1394 13.4494 18.2479C13.3126 17.77 13.589 17.2717 14.0669 17.1349Z" fill="#121212"/>
</svg>
