<svg width="25" height="24" viewBox="0 0 25 24" fill="none" xmlns="http://www.w3.org/2000/svg">
<path fill-rule="evenodd" clip-rule="evenodd" d="M11.6 4.85002C8.20345 4.85002 5.45 7.60347 5.45 11C5.45 14.3966 8.20345 17.15 11.6 17.15C14.9966 17.15 17.75 14.3966 17.75 11C17.75 7.60347 14.9966 4.85002 11.6 4.85002ZM3.75 11C3.75 6.66459 7.26456 3.15002 11.6 3.15002C15.9354 3.15002 19.45 6.66459 19.45 11C19.45 12.8615 18.8021 14.5717 17.7194 15.9173L21.201 19.399C21.533 19.7309 21.533 20.2691 21.201 20.6011C20.8691 20.933 20.3309 20.933 19.9989 20.6011L16.5173 17.1194C15.1717 18.2021 13.4615 18.85 11.6 18.85C7.26456 18.85 3.75 15.3355 3.75 11Z" fill="#121212"/>
</svg>
