<svg width="25" height="24" viewBox="0 0 25 24" fill="none" xmlns="http://www.w3.org/2000/svg">
<path fill-rule="evenodd" clip-rule="evenodd" d="M7.96462 3.1001L10.8 3.1001C11.2971 3.1001 11.7 3.50304 11.7 4.0001V10.0001C11.7 10.4972 11.2971 10.9001 10.8 10.9001H4.80003C4.30297 10.9001 3.90003 10.4972 3.90003 10.0001L3.90003 7.1647C3.90001 6.63483 3.9 6.18365 3.93026 5.81321C3.96206 5.42405 4.03169 5.04546 4.21611 4.68353C4.49414 4.13786 4.93778 3.69421 5.48345 3.41618C5.84539 3.23177 6.22398 3.16213 6.61314 3.13034C6.98357 3.10007 7.43475 3.10008 7.96462 3.1001ZM6.75972 4.92436C6.48187 4.94706 6.36653 4.98642 6.30064 5.01999C6.09366 5.12545 5.92538 5.29373 5.81992 5.50071C5.78635 5.5666 5.74699 5.68194 5.72429 5.95979C5.70073 6.24815 5.70003 6.6252 5.70003 7.2001V9.1001H9.90003V4.9001H8.00003C7.42512 4.9001 7.04807 4.9008 6.75972 4.92436ZM18.8403 4.92436C18.552 4.9008 18.1749 4.9001 17.6 4.9001H15.7V9.1001H19.9V7.2001C19.9 6.6252 19.8993 6.24815 19.8758 5.95979C19.8531 5.68194 19.8137 5.5666 19.7801 5.50071C19.6747 5.29373 19.5064 5.12545 19.2994 5.01999C19.2335 4.98642 19.1182 4.94706 18.8403 4.92436ZM18.9869 3.13034C19.3761 3.16213 19.7547 3.23177 20.1166 3.41618C20.6623 3.69421 21.1059 4.13786 21.3839 4.68353C21.5684 5.04546 21.638 5.42405 21.6698 5.81321C21.7001 6.18365 21.7 6.63483 21.7 7.16469V10.0001C21.7 10.4972 21.2971 10.9001 20.8 10.9001H14.8C14.303 10.9001 13.9 10.4972 13.9 10.0001V4.0001C13.9 3.50304 14.303 3.1001 14.8 3.1001L17.6354 3.1001C18.1653 3.10008 18.6165 3.10007 18.9869 3.13034ZM3.90003 14.0001C3.90003 13.503 4.30297 13.1001 4.80003 13.1001H10.8C11.2971 13.1001 11.7 13.503 11.7 14.0001V20.0001C11.7 20.4972 11.2971 20.9001 10.8 20.9001H7.96462C7.43475 20.9001 6.98357 20.9001 6.61314 20.8699C6.22398 20.8381 5.84539 20.7684 5.48345 20.584C4.93778 20.306 4.49414 19.8623 4.21611 19.3167C4.03169 18.9547 3.96206 18.5761 3.93026 18.187C3.9 17.8166 3.90001 17.3654 3.90003 16.8355L3.90003 14.0001ZM5.70003 14.9001V16.8001C5.70003 17.375 5.70073 17.7521 5.72429 18.0404C5.74699 18.3183 5.78635 18.4336 5.81992 18.4995C5.92538 18.7065 6.09366 18.8747 6.30064 18.9802C6.36653 19.0138 6.48187 19.0531 6.75972 19.0758C7.04807 19.0994 7.42512 19.1001 8.00003 19.1001H9.90003V14.9001H5.70003ZM13.9 14.0001C13.9 13.503 14.303 13.1001 14.8 13.1001H20.8C21.2971 13.1001 21.7 13.503 21.7 14.0001V16.8355C21.7 17.3654 21.7001 17.8166 21.6698 18.187C21.638 18.5761 21.5684 18.9547 21.3839 19.3167C21.1059 19.8623 20.6623 20.306 20.1166 20.584C19.7547 20.7684 19.3761 20.8381 18.9869 20.8699C18.6165 20.9001 18.1653 20.9001 17.6354 20.9001H14.8C14.303 20.9001 13.9 20.4972 13.9 20.0001V14.0001ZM15.7 14.9001V19.1001H17.6C18.1749 19.1001 18.552 19.0994 18.8403 19.0758C19.1182 19.0531 19.2335 19.0138 19.2994 18.9802C19.5064 18.8747 19.6747 18.7065 19.7801 18.4995C19.8137 18.4336 19.8531 18.3183 19.8758 18.0404C19.8993 17.7521 19.9 17.375 19.9 16.8001V14.9001H15.7Z" fill="#121212"/>
</svg>
