<svg width="25" height="24" viewBox="0 0 25 24" fill="none" xmlns="http://www.w3.org/2000/svg">
<path fill-rule="evenodd" clip-rule="evenodd" d="M12.6 3.89998C12.3387 3.89998 12.0946 4.03059 11.9496 4.24805L11.395 5.08006L10.6984 4.61566L11.395 5.08006C10.7383 6.06503 9.54051 6.54067 8.38704 6.27448L7.70279 6.11658C7.42652 6.05282 7.13689 6.13589 6.93641 6.33637C6.73592 6.53686 6.65286 6.82648 6.71661 7.10275L6.87452 7.78701C7.1407 8.94048 6.66507 10.1383 5.6801 10.7949L4.84809 11.3496C4.63063 11.4946 4.50001 11.7386 4.50001 12C4.50001 12.2613 4.63063 12.5054 4.84809 12.6504L5.6801 13.205C6.66507 13.8617 7.1407 15.0595 6.87452 16.2129L6.71661 16.8972C6.65286 17.1735 6.73592 17.4631 6.93641 17.6636C7.13689 17.8641 7.42652 17.9471 7.70279 17.8834L8.38704 17.7255C9.54051 17.4593 10.7383 17.9349 11.395 18.9199L11.9496 19.7519C12.0946 19.9694 12.3387 20.1 12.6 20.1C12.8614 20.1 13.1054 19.9694 13.2504 19.7519L13.8051 18.9199C14.4617 17.9349 15.6595 17.4593 16.813 17.7255L17.4972 17.8834C17.7735 17.9471 18.0631 17.8641 18.2636 17.6636C18.4641 17.4631 18.5472 17.1735 18.4834 16.8972L18.3255 16.2129C18.0593 15.0595 18.535 13.8617 19.5199 13.205L20.3519 12.6504C20.5694 12.5054 20.7 12.2613 20.7 12C20.7 11.7386 20.5694 11.4946 20.3519 11.3496L19.5199 10.7949C18.535 10.1383 18.0593 8.94048 18.3255 7.78701L18.4834 7.10275C18.5472 6.82648 18.4641 6.53686 18.2636 6.33637C18.0631 6.13589 17.7735 6.05282 17.4972 6.11658L16.813 6.27448C15.6595 6.54067 14.4617 6.06503 13.8051 5.08006L13.2504 4.24805L13.9771 3.76355L13.2504 4.24805C13.1054 4.03059 12.8614 3.89998 12.6 3.89998ZM10.4519 3.24959C10.9307 2.53138 11.7368 2.09998 12.6 2.09998C13.4632 2.09998 14.2693 2.53137 14.7481 3.24959L15.3028 4.0816C15.5441 4.4436 15.9843 4.61841 16.4082 4.52058L17.0925 4.36267C17.9735 4.15937 18.8971 4.42425 19.5364 5.06358C20.1757 5.70291 20.4406 6.6265 20.2373 7.5075L20.0794 8.19175C19.9816 8.61568 20.1564 9.05589 20.5184 9.29722L21.3504 9.8519C22.0686 10.3307 22.5 11.1368 22.5 12C22.5 12.8632 22.0686 13.6692 21.3504 14.148L20.5184 14.7027C20.1564 14.9441 19.9816 15.3843 20.0794 15.8082L20.2373 16.4925C20.4406 17.3735 20.1757 18.297 19.5364 18.9364C18.8971 19.5757 17.9735 19.8406 17.0925 19.6373L16.4082 19.4794C15.9843 19.3815 15.5441 19.5563 15.3028 19.9183L14.7481 20.7504C14.2693 21.4686 13.4632 21.9 12.6 21.9C11.7368 21.9 10.9307 21.4686 10.4519 20.7504L9.89726 19.9183C9.65593 19.5563 9.21571 19.3815 8.79179 19.4794L8.10753 19.6373C7.22653 19.8406 6.30295 19.5757 5.66362 18.9364C5.02428 18.297 4.7594 17.3735 4.96271 16.4925L5.12062 15.8082C5.21844 15.3843 5.04364 14.9441 4.68164 14.7027L3.84963 14.1481C3.13141 13.6692 2.70001 12.8632 2.70001 12C2.70001 11.1368 3.13141 10.3307 3.84963 9.8519L4.68164 9.29722C5.04364 9.05589 5.21844 8.61568 5.12062 8.19175L4.96271 7.5075C4.7594 6.6265 5.02428 5.70291 5.66362 5.06358C6.30295 4.42425 7.22654 4.15937 8.10753 4.36267L8.79179 4.52058C9.21571 4.61841 9.65593 4.4436 9.89726 4.0816L10.6461 4.58083L9.89726 4.0816L10.4519 3.24959L11.0894 3.67458L10.4519 3.24959ZM8.70001 12C8.70001 9.84606 10.4461 8.09998 12.6 8.09998C14.7539 8.09998 16.5 9.84606 16.5 12C16.5 14.1539 14.7539 15.9 12.6 15.9C10.4461 15.9 8.70001 14.1539 8.70001 12ZM12.6 9.89998C11.4402 9.89998 10.5 10.8402 10.5 12C10.5 13.1598 11.4402 14.1 12.6 14.1C13.7598 14.1 14.7 13.1598 14.7 12C14.7 10.8402 13.7598 9.89998 12.6 9.89998Z" fill="#121212"/>
</svg>
