<svg width="25" height="24" viewBox="0 0 25 24" fill="none" xmlns="http://www.w3.org/2000/svg">
<path fill-rule="evenodd" clip-rule="evenodd" d="M5.74938 8.94949C6.29324 8.40563 7.03087 8.1001 7.79999 8.1001H8.79999C9.29705 8.1001 9.69999 8.50304 9.69999 9.0001C9.69999 9.49715 9.29705 9.9001 8.79999 9.9001H7.79999C7.50826 9.9001 7.22847 10.016 7.02218 10.2223C6.81589 10.4286 6.69999 10.7084 6.69999 11.0001V19.0001C6.69999 19.2918 6.81589 19.5716 7.02218 19.7779C7.22847 19.9842 7.50826 20.1001 7.79999 20.1001H17.8C18.0917 20.1001 18.3715 19.9842 18.5778 19.7779C18.7841 19.5716 18.9 19.2918 18.9 19.0001V11.0001C18.9 10.7084 18.7841 10.4286 18.5778 10.2223C18.3715 10.016 18.0917 9.9001 17.8 9.9001H16.8C16.3029 9.9001 15.9 9.49715 15.9 9.0001C15.9 8.50304 16.3029 8.1001 16.8 8.1001H17.8C18.5691 8.1001 19.3067 8.40563 19.8506 8.94949C20.3945 9.49334 20.7 10.231 20.7 11.0001V19.0001C20.7 19.7692 20.3945 20.5069 19.8506 21.0507C19.3067 21.5946 18.5691 21.9001 17.8 21.9001H7.79999C7.03087 21.9001 6.29324 21.5946 5.74938 21.0507C5.20553 20.5069 4.89999 19.7692 4.89999 19.0001V11.0001C4.89999 10.231 5.20553 9.49334 5.74938 8.94949Z" fill="#121212"/>
<path fill-rule="evenodd" clip-rule="evenodd" d="M12.8 2.1001C13.2971 2.1001 13.7 2.50304 13.7 3.0001V14.0001C13.7 14.4972 13.2971 14.9001 12.8 14.9001C12.3029 14.9001 11.9 14.4972 11.9 14.0001V3.0001C11.9 2.50304 12.3029 2.1001 12.8 2.1001Z" fill="#121212"/>
<path fill-rule="evenodd" clip-rule="evenodd" d="M12.1636 2.3637C12.5151 2.01223 13.0849 2.01223 13.4364 2.3637L16.4364 5.3637C16.7879 5.71517 16.7879 6.28502 16.4364 6.63649C16.0849 6.98797 15.5151 6.98797 15.1636 6.63649L12.8 4.27289L10.4364 6.63649C10.0849 6.98797 9.51507 6.98797 9.1636 6.63649C8.81213 6.28502 8.81213 5.71517 9.1636 5.3637L12.1636 2.3637Z" fill="#121212"/>
</svg>
