<svg width="25" height="24" viewBox="0 0 25 24" fill="none" xmlns="http://www.w3.org/2000/svg">
<path fill-rule="evenodd" clip-rule="evenodd" d="M13.2409 3.67531C12.9598 3.55234 12.6401 3.55234 12.3591 3.67531L6.35906 6.30031C5.95868 6.47548 5.69996 6.87105 5.69996 7.30808V13C5.69996 16.9213 8.87874 20.1 12.8 20.1C16.7212 20.1 19.9 16.9213 19.9 13V7.30808C19.9 6.87105 19.6412 6.47548 19.2409 6.30031L13.2409 3.67531ZM11.6376 2.02622C12.3786 1.70203 13.2213 1.70203 13.9623 2.02622L19.9623 4.65122C21.0179 5.11303 21.7 6.15592 21.7 7.30808V13C21.7 17.9154 17.7153 21.9 12.8 21.9C7.88463 21.9 3.89996 17.9154 3.89996 13V7.30808C3.89996 6.15592 4.58203 5.11303 5.63759 4.65122L11.6376 2.02622Z" fill="#121212"/>
<path fill-rule="evenodd" clip-rule="evenodd" d="M10.7499 9.25005C10.7499 8.11787 11.6678 7.20005 12.7999 7.20005C13.9321 7.20005 14.8499 8.11787 14.8499 9.25005C14.8499 10.3822 13.9321 11.3 12.7999 11.3C11.6678 11.3 10.7499 10.3822 10.7499 9.25005ZM15.5999 15.2C16.5999 15.2 16.5999 15.1981 16.5999 15.1981L16.5999 15.1961L16.5999 15.1919L16.5998 15.1832L16.5993 15.1638C16.5989 15.1501 16.5982 15.1347 16.597 15.1178C16.5948 15.0841 16.5909 15.044 16.5844 14.9985C16.5715 14.9076 16.5478 14.7938 16.5049 14.6651C16.4179 14.4041 16.2542 14.0901 15.9571 13.7929C15.3534 13.1893 14.3541 12.8 12.7999 12.8C11.2458 12.8 10.2465 13.1893 9.64284 13.7929C9.34568 14.0901 9.182 14.4041 9.09501 14.6651C9.0521 14.7938 9.02844 14.9076 9.01547 14.9985C9.00897 15.044 9.00509 15.0841 9.00284 15.1178C9.00172 15.1347 9.00099 15.1501 9.00055 15.1638L9.00008 15.1832L8.99998 15.1919L8.99995 15.1961L8.99995 15.1981C8.99995 15.1981 8.99995 15.2 9.99995 15.2H8.99995V16.2H16.5999V15.2H15.5999Z" fill="#121212"/>
</svg>
