<svg width="25" height="24" viewBox="0 0 25 24" fill="none" xmlns="http://www.w3.org/2000/svg">
<path fill-rule="evenodd" clip-rule="evenodd" d="M11.8573 2.37235C12.4682 2.16234 13.1318 2.16234 13.7428 2.37235L19.7428 4.43485C20.9138 4.83739 21.7 5.93906 21.7 7.17734V11.9123C21.7 14.687 20.566 16.6846 18.9188 18.2441C17.3562 19.7235 15.3065 20.8288 13.3794 21.868C13.3286 21.8954 13.2779 21.9227 13.2273 21.95C12.9606 22.0939 12.6394 22.0939 12.3727 21.95C12.3221 21.9227 12.2714 21.8953 12.2206 21.868C10.2935 20.8288 8.24389 19.7235 6.68127 18.2441C5.03404 16.6846 3.90002 14.687 3.90002 11.9123V7.17734C3.90002 5.93906 4.68627 4.83739 5.85729 4.43485L11.8573 2.37235ZM13.1576 4.07459C12.9259 3.99493 12.6742 3.99493 12.4424 4.07459L6.44244 6.13709C5.99826 6.28978 5.70002 6.70765 5.70002 7.17734V11.9123C5.70002 14.1101 6.56601 15.6563 7.91877 16.937C9.21645 18.1655 10.9348 19.1267 12.8 20.1351C14.6652 19.1267 16.3836 18.1655 17.6813 16.937C19.034 15.6563 19.9 14.1101 19.9 11.9123V7.17734C19.9 6.70765 19.6018 6.28978 19.1576 6.13709L13.1576 4.07459ZM10.4 10.5C10.4 9.17449 11.4745 8.09998 12.8 8.09998C14.1255 8.09998 15.2 9.17449 15.2 10.5C15.2 11.5072 14.5796 12.3695 13.7 12.7255V15C13.7 15.497 13.2971 15.9 12.8 15.9C12.303 15.9 11.9 15.497 11.9 15V12.7255C11.0205 12.3695 10.4 11.5072 10.4 10.5Z" fill="#121212"/>
</svg>
