<svg width="24" height="24" viewBox="0 0 24 24" fill="none" xmlns="http://www.w3.org/2000/svg">
<path fill-rule="evenodd" clip-rule="evenodd" d="M11.0573 2.37235C11.6682 2.16234 12.3318 2.16234 12.9427 2.37235L18.9427 4.43485C20.1138 4.83739 20.9 5.93906 20.9 7.17734V11.9123C20.9 14.687 19.766 16.6846 18.1188 18.2441C16.5561 19.7235 14.5065 20.8288 12.5794 21.868C12.5286 21.8954 12.4779 21.9227 12.4273 21.95C12.1606 22.0939 11.8394 22.0939 11.5727 21.95C11.5221 21.9227 11.4714 21.8953 11.4206 21.868C9.49348 20.8288 7.44388 19.7235 5.88126 18.2441C4.23402 16.6846 3.10001 14.687 3.10001 11.9123V7.17734C3.10001 5.93906 3.88625 4.83739 5.05727 4.43485L11.0573 2.37235ZM12.3576 4.07459C12.1259 3.99493 11.8742 3.99493 11.6424 4.07459L5.64242 6.13709C5.19824 6.28978 4.90001 6.70765 4.90001 7.17734V11.9123C4.90001 14.1101 5.76599 15.6563 7.11876 16.937C8.41643 18.1655 10.1348 19.1267 12 20.1351C13.8652 19.1267 15.5836 18.1655 16.8813 16.937C18.234 15.6563 19.1 14.1101 19.1 11.9123V7.17734C19.1 6.70765 18.8018 6.28978 18.3576 6.13709L12.3576 4.07459Z" fill="#121212"/>
</svg>
