<svg width="25" height="24" viewBox="0 0 25 24" fill="none" xmlns="http://www.w3.org/2000/svg">
<path fill-rule="evenodd" clip-rule="evenodd" d="M15.5494 3.52786C16.6819 2.39534 18.5181 2.39533 19.6506 3.52786L20.0722 3.94943C21.2047 5.08195 21.2047 6.91813 20.0722 8.05065L7.8222 20.3006C7.27834 20.8445 6.54071 21.15 5.77158 21.15H3.35001C2.85296 21.15 2.45001 20.7471 2.45001 20.25V17.8285C2.45001 17.0593 2.75555 16.3217 3.2994 15.7779L15.5494 3.52786ZM18.3778 4.80065C17.9483 4.37107 17.2518 4.37107 16.8222 4.80065L4.57219 17.0506C4.3659 17.2569 4.25001 17.5367 4.25001 17.8285V19.35H5.77158C6.06332 19.35 6.34311 19.2341 6.5494 19.0279L18.7994 6.77786C19.229 6.34828 19.229 5.6518 18.7994 5.22222L18.3778 4.80065ZM20.9192 17.4114C21.2442 17.0355 21.8123 16.9941 22.1883 17.3189C22.5645 17.6438 22.606 18.2122 22.2811 18.5883L21.6 18C22.2811 18.5883 22.2813 18.5881 22.2811 18.5883L22.2796 18.5901L22.2775 18.5924L22.272 18.5988L22.2549 18.618C22.241 18.6336 22.2218 18.6547 22.1978 18.6804C22.1498 18.7319 22.0819 18.8024 21.9964 18.8857C21.8265 19.0514 21.582 19.2726 21.2814 19.4953C20.7065 19.9214 19.8053 20.4444 18.7661 20.4444C17.786 20.4444 16.9336 19.9912 16.3053 19.6572C16.2847 19.6462 16.2643 19.6354 16.2442 19.6247C15.5259 19.2435 15.0588 19.0151 14.5866 19.0151C13.483 19.0151 12.8511 19.4708 12.0045 20.3678C11.6633 20.7293 11.0937 20.7457 10.7323 20.4045C10.3708 20.0634 10.3543 19.4938 10.6955 19.1323C11.6686 18.1013 12.7447 17.2151 14.5866 17.2151C15.5477 17.2151 16.3908 17.6637 17.0125 17.9946C17.0381 18.0082 17.0633 18.0216 17.0881 18.0348C17.801 18.4131 18.2783 18.6444 18.7661 18.6444C19.2269 18.6444 19.7426 18.3953 20.2097 18.0491C20.4301 17.8858 20.6128 17.7208 20.7398 17.597C20.8029 17.5355 20.8509 17.4854 20.8817 17.4524C20.8971 17.4359 20.9081 17.4238 20.9144 17.4168L20.9192 17.4114C20.9193 17.4113 20.9191 17.4115 20.9192 17.4114Z" fill="#121212"/>
</svg>
