<svg width="25" height="24" viewBox="0 0 25 24" fill="none" xmlns="http://www.w3.org/2000/svg">
<path fill-rule="evenodd" clip-rule="evenodd" d="M5.87866 8.01497C5.65177 8.03247 5.47165 8.14094 5.36364 8.35529C3.83279 11.3932 4.33735 15.1926 6.87243 17.7277C9.40751 20.2627 13.2069 20.7673 16.2448 19.2365C16.4592 19.1284 16.5676 18.9483 16.5851 18.7214C16.6039 18.4775 16.5107 18.1836 16.2798 17.9527L6.64738 8.32028C6.41647 8.08937 6.12258 7.99616 5.87866 8.01497ZM5.74026 6.2203C6.52108 6.16009 7.32684 6.45416 7.92017 7.04749L17.5526 16.6799C18.1459 17.2733 18.44 18.079 18.3798 18.8598C18.3183 19.6577 17.8814 20.4274 17.0548 20.8439C13.3438 22.7139 8.70024 22.1011 5.59964 19.0005C2.49904 15.8999 1.88619 11.2563 3.75619 7.54528C4.17273 6.71868 4.94242 6.28183 5.74026 6.2203Z" fill="#121212"/>
<path fill-rule="evenodd" clip-rule="evenodd" d="M11.7 3.0001C11.7 2.50304 12.1029 2.1001 12.6 2.1001C18.0676 2.1001 22.5 6.53248 22.5 12.0001C22.5 12.4972 22.097 12.9001 21.6 12.9001C21.1029 12.9001 20.7 12.4972 20.7 12.0001C20.7 7.52659 17.0735 3.9001 12.6 3.9001C12.1029 3.9001 11.7 3.49715 11.7 3.0001Z" fill="#121212"/>
<path fill-rule="evenodd" clip-rule="evenodd" d="M11.7 6.0001C11.7 5.50304 12.1029 5.1001 12.6 5.1001C16.4108 5.1001 19.5 8.18933 19.5 12.0001C19.5 12.4972 19.0971 12.9001 18.6 12.9001C18.1029 12.9001 17.7 12.4972 17.7 12.0001C17.7 9.18344 15.4166 6.9001 12.6 6.9001C12.1029 6.9001 11.7 6.49715 11.7 6.0001Z" fill="#121212"/>
<path fill-rule="evenodd" clip-rule="evenodd" d="M14.2364 10.3637C14.5879 10.7152 14.5879 11.285 14.2364 11.6365L13.2364 12.6365C12.8849 12.988 12.3151 12.988 11.9636 12.6365C11.6121 12.285 11.6121 11.7152 11.9636 11.3637L12.9636 10.3637C13.3151 10.0122 13.8849 10.0122 14.2364 10.3637Z" fill="#121212"/>
</svg>
