<svg width="25" height="24" viewBox="0 0 25 24" fill="none" xmlns="http://www.w3.org/2000/svg">
<path fill-rule="evenodd" clip-rule="evenodd" d="M5.60004 21.0001C5.60004 20.503 6.00299 20.1001 6.50004 20.1001H19.1C19.5971 20.1001 20 20.503 20 21.0001C20 21.4972 19.5971 21.9001 19.1 21.9001H6.50004C6.00299 21.9001 5.60004 21.4972 5.60004 21.0001Z" fill="#121212"/>
<path fill-rule="evenodd" clip-rule="evenodd" d="M17.7493 12.0001C18.1629 11.9995 18.5727 12.0803 18.9551 12.238C19.3378 12.3959 19.6856 12.6276 19.9786 12.9199L19.9794 12.9207C20.5739 13.5152 20.9 14.3212 20.9 15.1501V16.5001C20.9 16.9775 20.7104 17.4353 20.3728 17.7729C20.0353 18.1105 19.5774 18.3001 19.1 18.3001H6.50004C6.02265 18.3001 5.56482 18.1105 5.22725 17.7729C4.88969 17.4353 4.70004 16.9775 4.70004 16.5001V15.1501C4.70004 14.3147 5.03192 13.5135 5.62266 12.9227C6.2134 12.332 7.01461 12.0001 7.85004 12.0001H17.7493ZM18.2688 13.9021C18.1048 13.8344 17.9291 13.7998 17.7516 13.8001L7.85004 13.8001C7.492 13.8001 7.14862 13.9423 6.89545 14.1955C6.64227 14.4487 6.50004 14.7921 6.50004 15.1501V16.5001H19.1V15.1501C19.1 14.7911 18.9583 14.4453 18.7069 14.1938C18.5815 14.0688 18.4326 13.9696 18.2688 13.9021Z" fill="#121212"/>
<path fill-rule="evenodd" clip-rule="evenodd" d="M10.2798 3.01331C10.9679 2.37912 11.8774 2.1001 12.8 2.1001C13.7548 2.1001 14.6705 2.47938 15.3456 3.15451C16.0208 3.82964 16.4 4.74532 16.4 5.7001C16.4 6.8015 16.1084 7.40566 15.8315 7.89037C15.816 7.91746 15.8011 7.94339 15.7868 7.96833C15.5893 8.312 15.5 8.46737 15.5 8.8501V12.9001C15.5 13.3972 15.0971 13.8001 14.6 13.8001C14.103 13.8001 13.7 13.3972 13.7 12.9001V8.8501C13.7 7.97822 13.9992 7.46242 14.2191 7.0832C14.2361 7.05378 14.2527 7.02519 14.2686 6.99732C14.4416 6.69453 14.6 6.3987 14.6 5.7001C14.6 5.22271 14.4104 4.76487 14.0728 4.42731C13.7353 4.08974 13.2774 3.9001 12.8 3.9001C12.2287 3.9001 11.7881 4.07108 11.4997 4.33689C11.2234 4.59161 11 5.01231 11 5.7001C11 6.3987 11.1584 6.69453 11.3315 6.99732C11.3474 7.02519 11.364 7.05378 11.381 7.0832C11.6009 7.46242 11.9 7.97822 11.9 8.8501V12.9001C11.9 13.3972 11.4971 13.8001 11 13.8001C10.503 13.8001 10.1 13.3972 10.1 12.9001V8.8501C10.1 8.46737 10.0108 8.312 9.81333 7.96833C9.799 7.94339 9.7841 7.91746 9.76862 7.89037C9.49165 7.40566 9.20004 6.8015 9.20004 5.7001C9.20004 4.58789 9.57973 3.65858 10.2798 3.01331Z" fill="#121212"/>
</svg>
