<svg width="25" height="24" viewBox="0 0 25 24" fill="none" xmlns="http://www.w3.org/2000/svg">
<path fill-rule="evenodd" clip-rule="evenodd" d="M11.1111 4.37227C10.5649 4.37227 10.1222 4.81501 10.1222 5.36115V6.35004H15.8778V5.36115C15.8778 4.81501 15.435 4.37227 14.8889 4.37227H11.1111ZM17.6778 6.35004V5.36115C17.6778 3.82089 16.4291 2.57227 14.8889 2.57227H11.1111C9.57083 2.57227 8.3222 3.82089 8.3222 5.36115V6.35004H6.38886C4.8486 6.35004 3.59998 7.59867 3.59998 9.13893V17.6389C3.59998 19.1792 4.84861 20.4278 6.38887 20.4278H19.6111C21.1513 20.4278 22.4 19.1792 22.4 17.6389V9.13893C22.4 7.59867 21.1513 6.35004 19.6111 6.35004H17.6778ZM6.38886 8.15004C5.84272 8.15004 5.39998 8.59278 5.39998 9.13893V17.6389C5.39998 18.1851 5.84272 18.6278 6.38887 18.6278H19.6111C20.1572 18.6278 20.6 18.1851 20.6 17.6389V9.13893C20.6 8.59278 20.1572 8.15004 19.6111 8.15004H6.38886Z" fill="#121212"/>
</svg>
