<svg width="25" height="24" viewBox="0 0 25 24" fill="none" xmlns="http://www.w3.org/2000/svg">
<path fill-rule="evenodd" clip-rule="evenodd" d="M5.40019 7.9001C5.10846 7.9001 4.82867 8.01599 4.62238 8.22228C4.41609 8.42857 4.30019 8.70836 4.30019 9.0001V18.0001C4.30019 18.2918 4.41609 18.5716 4.62238 18.7779C4.82867 18.9842 5.10846 19.1001 5.40019 19.1001H19.4002C19.6919 19.1001 19.9717 18.9842 20.178 18.7779C20.3843 18.5716 20.5002 18.2918 20.5002 18.0001V9.0001C20.5002 8.70836 20.3843 8.42857 20.178 8.22228C19.9717 8.01599 19.6919 7.9001 19.4002 7.9001H5.40019ZM3.34958 6.94949C3.89344 6.40563 4.63107 6.1001 5.40019 6.1001H19.4002C20.1693 6.1001 20.9069 6.40563 21.4508 6.94949C21.9947 7.49334 22.3002 8.23097 22.3002 9.0001V18.0001C22.3002 18.7692 21.9947 19.5069 21.4508 20.0507C20.9069 20.5946 20.1693 20.9001 19.4002 20.9001H5.40019C4.63107 20.9001 3.89344 20.5946 3.34958 20.0507C2.80573 19.5069 2.50019 18.7692 2.50019 18.0001V9.0001C2.50019 8.23097 2.80573 7.49334 3.34958 6.94949Z" fill="#121212"/>
<path fill-rule="evenodd" clip-rule="evenodd" d="M10.4002 3.9001C10.1085 3.9001 9.82867 4.01599 9.62238 4.22228C9.41609 4.42857 9.30019 4.70836 9.30019 5.0001V7.0001C9.30019 7.49715 8.89725 7.9001 8.40019 7.9001C7.90314 7.9001 7.50019 7.49715 7.50019 7.0001V5.0001C7.50019 4.23097 7.80573 3.49334 8.34959 2.94949C8.89344 2.40563 9.63107 2.1001 10.4002 2.1001H14.4002C15.1693 2.1001 15.9069 2.40563 16.4508 2.94949C16.9947 3.49334 17.3002 4.23097 17.3002 5.0001V7.0001C17.3002 7.49715 16.8973 7.9001 16.4002 7.9001C15.9031 7.9001 15.5002 7.49715 15.5002 7.0001V5.0001C15.5002 4.70836 15.3843 4.42857 15.178 4.22228C14.9717 4.01599 14.6919 3.9001 14.4002 3.9001H10.4002Z" fill="#121212"/>
<path fill-rule="evenodd" clip-rule="evenodd" d="M12.4002 11.1001C12.8973 11.1001 13.3002 11.503 13.3002 12.0001V12.0101C13.3002 12.5072 12.8973 12.9101 12.4002 12.9101C11.9031 12.9101 11.5002 12.5072 11.5002 12.0101V12.0001C11.5002 11.503 11.9031 11.1001 12.4002 11.1001Z" fill="#121212"/>
<path fill-rule="evenodd" clip-rule="evenodd" d="M2.59647 12.5951C2.82014 12.1512 3.36131 11.9727 3.80519 12.1964C6.47115 13.5398 9.41489 14.2395 12.4002 14.2395C15.3855 14.2395 18.3292 13.5398 20.9952 12.1964C21.4391 11.9727 21.9802 12.1512 22.2039 12.5951C22.4276 13.039 22.2491 13.5801 21.8052 13.8038C18.888 15.2738 15.6668 16.0395 12.4002 16.0395C9.13356 16.0395 5.9124 15.2738 2.99519 13.8038C2.55131 13.5801 2.37279 13.039 2.59647 12.5951Z" fill="#121212"/>
</svg>
