<svg width="25" height="24" viewBox="0 0 25 24" fill="none" xmlns="http://www.w3.org/2000/svg">
<path fill-rule="evenodd" clip-rule="evenodd" d="M11.2055 6.82181H19.6744C20.135 6.82179 20.5338 6.82178 20.8626 6.84864C21.2101 6.87703 21.5578 6.93985 21.893 7.11064C22.3917 7.36471 22.7971 7.77011 23.0511 8.26874C23.2219 8.60393 23.2847 8.95165 23.3131 9.29913C23.34 9.62791 23.34 10.0267 23.34 10.4873V18.9563C23.34 19.4169 23.34 19.8157 23.3131 20.1445C23.2847 20.492 23.2219 20.8397 23.0511 21.1749C22.7971 21.6735 22.3917 22.0789 21.893 22.333C21.5578 22.5038 21.2101 22.5666 20.8626 22.595C20.5338 22.6219 20.135 22.6219 19.6744 22.6218H11.2055C10.7449 22.6219 10.3461 22.6219 10.0173 22.595C9.66979 22.5666 9.32207 22.5038 8.98688 22.333C8.48825 22.0789 8.08285 21.6735 7.82878 21.1749C7.65799 20.8397 7.59517 20.492 7.56678 20.1445C7.53992 19.8157 7.53993 19.4169 7.53995 18.9563V10.4873C7.53993 10.0267 7.53992 9.62792 7.56678 9.29913C7.59517 8.95165 7.65799 8.60393 7.82878 8.26874C8.08285 7.77011 8.48825 7.36471 8.98688 7.11064C9.32207 6.93985 9.66979 6.87703 10.0173 6.84864C10.3461 6.82178 10.7449 6.82179 11.2055 6.82181ZM10.1638 8.64266C9.92768 8.66196 9.84321 8.6945 9.80406 8.71445C9.64412 8.79595 9.51409 8.92598 9.4326 9.08592C9.41265 9.12507 9.3801 9.20954 9.3608 9.4457C9.34065 9.69237 9.33995 10.0169 9.33995 10.5218V18.9218C9.33995 19.4267 9.34065 19.7513 9.3608 19.9979C9.3801 20.2341 9.41265 20.3186 9.4326 20.3577C9.51409 20.5177 9.64412 20.6477 9.80406 20.7292C9.84321 20.7492 9.92768 20.7817 10.1638 20.801C10.4105 20.8211 10.7351 20.8218 11.24 20.8218H19.64C20.1448 20.8218 20.4694 20.8211 20.7161 20.801C20.9522 20.7817 21.0367 20.7492 21.0758 20.7292C21.2358 20.6477 21.3658 20.5177 21.4473 20.3577C21.4673 20.3186 21.4998 20.2341 21.5191 19.9979C21.5393 19.7513 21.54 19.4267 21.54 18.9218V10.5218C21.54 10.0169 21.5393 9.69237 21.5191 9.44571C21.4998 9.20955 21.4673 9.12507 21.4473 9.08592C21.3658 8.92598 21.2358 8.79595 21.0758 8.71445C21.0367 8.6945 20.9522 8.66196 20.7161 8.64266C20.4694 8.62251 20.1448 8.62181 19.64 8.62181H11.24C10.7351 8.62181 10.4105 8.62251 10.1638 8.64266ZM15.44 11.197C15.937 11.197 16.34 11.6 16.34 12.097L16.34 13.822L18.065 13.822C18.5621 13.822 18.965 14.225 18.965 14.7221C18.965 15.2191 18.562 15.622 18.0649 15.622L16.34 15.622L16.34 17.3468C16.3399 17.8439 15.937 18.2468 15.4399 18.2468C14.9429 18.2468 14.5399 17.8439 14.54 17.3468L14.54 15.6219L12.8149 15.6218C12.3179 15.6218 11.9149 15.2188 11.915 14.7218C11.915 14.2247 12.3179 13.8218 12.815 13.8218L14.54 13.8219L14.54 12.097C14.54 11.5999 14.9429 11.197 15.44 11.197Z" fill="#121212"/>
<path fill-rule="evenodd" clip-rule="evenodd" d="M5.04812 3.19426C5.05906 3.19176 5.07004 3.18926 5.08106 3.18674L12.5586 1.47867C12.9647 1.38588 13.3211 1.30447 13.6213 1.26123C13.94 1.21532 14.2728 1.19928 14.6191 1.28647C15.1292 1.41491 15.5856 1.70155 15.9228 2.10529C16.1517 2.37938 16.2818 2.68619 16.3788 2.99324C16.4702 3.28244 16.5516 3.63878 16.6443 4.04492L16.6518 4.07786C16.7625 4.56244 16.4594 5.04499 15.9749 5.15568C15.4903 5.26637 15.0077 4.96328 14.897 4.47871C14.7945 4.02992 14.729 3.74625 14.6625 3.53565C14.5991 3.33509 14.5571 3.27818 14.5412 3.25911C14.4477 3.14712 14.3211 3.06762 14.1796 3.03199C14.1555 3.02592 14.086 3.01286 13.8779 3.04284C13.6593 3.07433 13.3753 3.13848 12.9265 3.241L5.4819 4.94154C5.03312 5.04405 4.74945 5.10957 4.53885 5.17613C4.33829 5.23951 4.28138 5.28145 4.26231 5.29737C4.15032 5.3909 4.07082 5.51748 4.03519 5.65897C4.02913 5.68306 4.01606 5.75254 4.04605 5.96072C4.07753 6.17934 4.14168 6.46332 4.2442 6.9121L5.94474 14.3567C6.05543 14.8413 5.75233 15.3238 5.26776 15.4345C4.78318 15.5452 4.30063 15.2421 4.18994 14.7576L2.4894 7.31295C2.48688 7.30193 2.48437 7.29095 2.48187 7.28001C2.38908 6.87387 2.30767 6.51754 2.26443 6.21734C2.21852 5.89861 2.20248 5.56575 2.28968 5.21946C2.41812 4.70935 2.70475 4.253 3.10849 3.91581C3.38258 3.68691 3.68939 3.55683 3.99644 3.45979C4.28564 3.3684 4.64198 3.28702 5.04812 3.19426Z" fill="#121212"/>
</svg>
