<svg width="25" height="24" viewBox="0 0 25 24" fill="none" xmlns="http://www.w3.org/2000/svg">
<path fill-rule="evenodd" clip-rule="evenodd" d="M12.8 3.9001C8.8788 3.9001 5.70002 7.07888 5.70002 11.0001C5.70002 14.6164 8.40373 17.6013 11.9 18.0436V15.3729L10.1636 13.6365C9.81216 13.285 9.81216 12.7152 10.1636 12.3637C10.5151 12.0122 11.0849 12.0122 11.4364 12.3637L12.8 13.7273L15.1636 11.3637C15.5151 11.0122 16.0849 11.0122 16.4364 11.3637C16.7879 11.7152 16.7879 12.285 16.4364 12.6365L13.7 15.3729V18.0436C17.1963 17.6013 19.9 14.6164 19.9 11.0001C19.9 7.07888 16.7212 3.9001 12.8 3.9001ZM13.7 19.8552C18.1927 19.404 21.7 15.6116 21.7 11.0001C21.7 6.08476 17.7154 2.1001 12.8 2.1001C7.88469 2.1001 3.90002 6.08476 3.90002 11.0001C3.90002 15.6116 7.40736 19.404 11.9 19.8552V21.0001C11.9 21.4972 12.303 21.9001 12.8 21.9001C13.2971 21.9001 13.7 21.4972 13.7 21.0001V19.8552Z" fill="#121212"/>
</svg>
