<svg width="25" height="24" viewBox="0 0 25 24" fill="none" xmlns="http://www.w3.org/2000/svg">
<path fill-rule="evenodd" clip-rule="evenodd" d="M2.54993 7.00002C2.54993 5.42601 3.82592 4.15002 5.39993 4.15002H19.3999C20.9739 4.15002 22.2499 5.42601 22.2499 7.00002V17C22.2499 18.574 20.9739 19.85 19.3999 19.85H5.39993C3.82592 19.85 2.54993 18.574 2.54993 17V7.00002ZM5.39993 5.85002C4.7648 5.85002 4.24993 6.3649 4.24993 7.00002V10.15H5.54993V8.50002C5.54993 7.75444 6.15434 7.15002 6.89993 7.15002H17.8999C18.6455 7.15002 19.2499 7.75444 19.2499 8.50002V10.15H20.5499V7.00002C20.5499 6.3649 20.0351 5.85002 19.3999 5.85002H5.39993ZM20.5499 11.85H17.2284C16.9234 11.85 16.6308 11.9712 16.4152 12.1869L15.5868 13.0153C15.0523 13.5498 14.3274 13.85 13.5715 13.85H11.2284C10.4725 13.85 9.74758 13.5498 9.2131 13.0153L8.38467 12.1869C8.169 11.9712 7.8765 11.85 7.5715 11.85H4.24993V17C4.24993 17.6352 4.7648 18.15 5.39993 18.15H19.3999C20.0351 18.15 20.5499 17.6352 20.5499 17V11.85ZM17.5499 10.15V8.85002H7.24993V10.15H7.5715C8.32737 10.15 9.05227 10.4503 9.58675 10.9848L10.4152 11.8132C10.6308 12.0289 10.9234 12.15 11.2284 12.15H13.5715C13.8765 12.15 14.169 12.0289 14.3847 11.8132L15.2131 10.9848C15.7476 10.4503 16.4725 10.15 17.2284 10.15H17.5499Z" fill="#121212"/>
</svg>
