<svg width="25" height="24" viewBox="0 0 25 24" fill="none" xmlns="http://www.w3.org/2000/svg">
<path d="M21.4 4.09961L21.4918 4.10449C21.9458 4.15047 22.3004 4.53393 22.3004 5V9.25C22.3004 9.61801 22.0757 9.94926 21.734 10.0859C19.9888 10.7843 19.9888 13.2157 21.734 13.9141L21.8571 13.9746C22.1286 14.1346 22.3004 14.4281 22.3004 14.75V19C22.3004 19.4971 21.8971 19.9004 21.4 19.9004H3.40002C2.90297 19.9004 2.49963 19.4971 2.49963 19V14.75L2.51038 14.6143C2.55787 14.3024 2.76699 14.0337 3.06604 13.9141L3.22424 13.8438C4.7585 13.0907 4.7585 10.9093 3.22424 10.1562L3.06604 10.0859C2.72435 9.94926 2.49963 9.61801 2.49963 9.25V5L2.50452 4.9082C2.5505 4.45426 2.93395 4.09961 3.40002 4.09961H21.4ZM4.30042 8.69141C6.79989 10.1641 6.7996 13.8347 4.30042 15.3076V18.0996H20.4996V15.3076C18.0004 13.8347 18.0002 10.1641 20.4996 8.69141V5.90039H4.30042V8.69141ZM14.4996 15.5098V15.5C14.4996 15.0029 14.903 14.5996 15.4 14.5996C15.8971 14.5996 16.3004 15.0029 16.3004 15.5V15.5098C16.3004 16.0068 15.8971 16.4102 15.4 16.4102C14.903 16.4102 14.4996 16.0068 14.4996 15.5098ZM14.4996 12.0098V12C14.4996 11.5029 14.903 11.0996 15.4 11.0996C15.8971 11.0996 16.3004 11.5029 16.3004 12V12.0098C16.3004 12.5068 15.8971 12.9102 15.4 12.9102C14.903 12.9102 14.4996 12.5068 14.4996 12.0098ZM14.4996 8.50977V8.5C14.4996 8.00294 14.903 7.59961 15.4 7.59961C15.8971 7.59961 16.3004 8.00294 16.3004 8.5V8.50977C16.3004 9.00682 15.8971 9.41016 15.4 9.41016C14.903 9.41016 14.4996 9.00682 14.4996 8.50977Z" fill="#121212"/>
</svg>
