<svg width="25" height="24" viewBox="0 0 25 24" fill="none" xmlns="http://www.w3.org/2000/svg">
<path fill-rule="evenodd" clip-rule="evenodd" d="M2.19995 5.46873C2.19995 3.33207 3.93205 1.59998 6.0687 1.59998H15.6735C17.0964 1.59998 18.25 2.7535 18.25 4.17645V7.53748H19.725C21.5337 7.53748 23 9.00374 23 10.8125V19.125C23 20.9337 21.5337 22.4 19.725 22.4H6.66245C4.19788 22.4 2.19995 20.402 2.19995 17.9375V5.46873ZM3.99995 8.73849V17.9375C3.99995 19.4079 5.19199 20.6 6.66245 20.6H19.725C20.5396 20.6 21.2 19.9396 21.2 19.125V10.8125C21.2 9.99786 20.5396 9.33748 19.725 9.33748H6.0687C5.30783 9.33748 4.59827 9.11783 3.99995 8.73849ZM3.99995 5.46873C3.99995 6.61126 4.92616 7.53748 6.0687 7.53748H16.45V4.17645C16.45 3.74761 16.1023 3.39998 15.6735 3.39998H6.0687C4.92616 3.39998 3.99995 4.32619 3.99995 5.46873Z" fill="#121212"/>
<path d="M16.5999 14.5C16.5999 14.7761 16.376 15 16.0999 15C15.8237 15 15.5999 14.7761 15.5999 14.5C15.5999 14.2238 15.8237 14 16.0999 14C16.376 14 16.5999 14.2238 16.5999 14.5Z" fill="#121212"/>
<path fill-rule="evenodd" clip-rule="evenodd" d="M17.3499 14.5C17.3499 15.1903 16.7902 15.75 16.0999 15.75C15.4095 15.75 14.8499 15.1903 14.8499 14.5C14.8499 13.8096 15.4095 13.25 16.0999 13.25C16.7902 13.25 17.3499 13.8096 17.3499 14.5ZM16.0999 15C16.376 15 16.5999 14.7761 16.5999 14.5C16.5999 14.2238 16.376 14 16.0999 14C15.8237 14 15.5999 14.2238 15.5999 14.5C15.5999 14.7761 15.8237 15 16.0999 15Z" fill="#121212"/>
</svg>
