<svg width="24" height="24" viewBox="0 0 24 24" fill="none" xmlns="http://www.w3.org/2000/svg">
<path fill-rule="evenodd" clip-rule="evenodd" d="M12.3449 9.38245C12.8173 9.53691 13.0751 10.0451 12.9207 10.5176L11.9893 13.3664C11.7328 14.2307 12.3804 15.1001 13.2836 15.1001H16.4384C18.3251 15.1001 19.7094 16.8731 19.2518 18.7034L18.8731 20.2184C18.7525 20.7006 18.2639 20.9938 17.7817 20.8732C17.2995 20.7526 17.0063 20.264 17.1268 19.7818L17.5056 18.2669C17.6791 17.5726 17.154 16.9001 16.4384 16.9001H13.2836C11.1696 16.9001 9.65562 14.8588 10.2692 12.8358L10.275 12.8173L11.2098 9.95822C11.3642 9.48577 11.8724 9.22799 12.3449 9.38245Z" fill="#121212"/>
<path fill-rule="evenodd" clip-rule="evenodd" d="M13.5 3.9001C12.8925 3.9001 12.4 4.39258 12.4 5.0001C12.4 5.60761 12.8925 6.1001 13.5 6.1001C14.1075 6.1001 14.6 5.60761 14.6 5.0001C14.6 4.39258 14.1075 3.9001 13.5 3.9001ZM10.6 5.0001C10.6 3.39847 11.8984 2.1001 13.5 2.1001C15.1016 2.1001 16.4 3.39847 16.4 5.0001C16.4 6.60172 15.1016 7.9001 13.5 7.9001C11.8984 7.9001 10.6 6.60172 10.6 5.0001Z" fill="#121212"/>
<path fill-rule="evenodd" clip-rule="evenodd" d="M10.85 12.0001C10.85 11.503 11.253 11.1001 11.75 11.1001H16C16.4971 11.1001 16.9 11.503 16.9 12.0001C16.9 12.4972 16.4971 12.9001 16 12.9001H11.75C11.253 12.9001 10.85 12.4972 10.85 12.0001Z" fill="#121212"/>
<path fill-rule="evenodd" clip-rule="evenodd" d="M9.33835 10.0476C9.51916 10.5106 9.2904 11.0326 8.8274 11.2134C7.11242 11.8831 5.90001 13.5511 5.90001 15.5001C5.90001 18.0406 7.9595 20.1001 10.5 20.1001C11.7228 20.1001 12.8325 19.6242 13.6571 18.8457C14.0185 18.5044 14.5882 18.5208 14.9294 18.8823C15.2706 19.2437 15.2542 19.8133 14.8928 20.1545C13.7474 21.2359 12.2003 21.9001 10.5 21.9001C6.96538 21.9001 4.10001 19.0347 4.10001 15.5001C4.10001 12.7851 5.79024 10.4671 8.17261 9.5367C8.63561 9.35588 9.15753 9.58464 9.33835 10.0476Z" fill="#121212"/>
</svg>
