<svg width="36" height="35" viewBox="0 0 36 35" fill="none" xmlns="http://www.w3.org/2000/svg">
<g clip-path="url(#clip0_6021_15825)">
<path d="M29.3373 18.8686L29.2607 18.9926C29.2607 15.3333 29.2607 20.9107 29.2607 12.0753V8.79375C29.2371 6.89918 28.506 5.23479 26.6899 4.4262C25.9352 4.88066 25.0744 5.48858 24.3963 6.06698L24.1959 6.24404C24.3197 6.52144 24.4966 7.33003 24.3728 7.90843C24.3492 7.98516 24.3492 8.00877 24.3197 8.0855C23.335 8.18583 22.4506 8.89408 21.5426 9.24821C21.2891 9.34855 21.065 9.42527 20.8115 9.47839C20.4341 9.07705 20.3044 8.49274 20.2042 8.03828C20.1039 7.50709 20.1275 6.9523 20.1039 6.32077C20.2572 5.68925 20.3575 5.13445 20.2277 4.67999C20.3044 4.67999 20.381 4.75672 20.5049 4.85705C20.4518 4.50293 20.328 4.30226 20.1511 4.02486C20.2749 4.02486 20.381 4.04846 20.552 4.10158C20.4754 3.72385 20.3987 3.64712 20.1511 3.39333C20.3516 3.31661 20.4813 3.19266 20.5284 3.06282C19.9506 3.08642 19.5674 2.83263 19.0662 2.43129C18.736 2.1775 18.2113 2.00044 17.8044 1.95322C17.2502 1.9001 16.1653 1.92961 16.2891 2.7382C16.0356 2.63786 15.6818 2.56114 15.5049 2.61426C15.3811 2.63786 15.2514 2.71459 15.2042 2.76771V2.18931H15.5816C15.7349 2.18931 15.8823 2.24242 16.012 2.36637C16.0886 2.26603 16.1358 2.11258 16.1358 1.93552C16.1358 1.78206 16.0827 1.63451 16.012 1.50466C15.8882 1.62861 15.7349 1.65812 15.5816 1.68173H15.2042V1.30399C15.2042 1.15054 15.2573 1.00298 15.3575 0.84953C15.2573 0.772803 15.104 0.725586 14.9566 0.725586C14.8092 0.725586 14.6559 0.778705 14.5556 0.84953C14.6794 0.973474 14.7089 1.12693 14.7325 1.30399V1.68173H14.3552C14.2019 1.68173 14.0545 1.62861 13.9247 1.50466C13.8481 1.605 13.8009 1.75845 13.8009 1.93552C13.8009 2.08897 13.854 2.23652 13.9247 2.36637C14.0486 2.24242 14.2019 2.21291 14.3552 2.18931H14.7325V2.36637V4.38488C14.7325 4.48522 14.6323 4.58556 14.5792 4.66228C14.7325 4.76262 14.9094 4.9928 15.0096 5.19347C15.1099 4.9928 15.2867 4.79213 15.4401 4.66228C15.3634 4.58556 15.2867 4.48522 15.2867 4.38488V3.77697C15.6641 3.97764 16.5485 4.53244 16.6488 4.91607C16.749 5.31742 16.6252 5.8486 16.6252 6.43291C16.6016 7.16477 16.1181 8.82916 15.2632 9.4902C14.078 9.28953 13.0403 8.22715 11.8316 8.1032L11.808 8.00287C11.6311 7.42446 11.8316 6.58637 11.9613 6.26175L11.7608 6.08469C11.1064 5.50628 10.2219 4.89837 9.46723 4.44391C7.59814 5.2761 6.86702 6.94639 6.84343 8.81146V17.1452C6.79037 17.1452 6.7432 17.1452 6.69013 17.1688C6.63707 17.1924 6.61348 17.2219 6.5899 17.2692L6.25971 17.2455C6.61348 16.7911 6.76678 16.313 6.35995 15.4277C6.18306 15.6048 6.05924 15.7818 5.95901 16.0356C5.70547 15.5044 5.07458 15.227 4.99793 15.2034C4.97435 15.2802 4.8977 15.9589 5.09817 16.4429C4.86822 16.3897 4.64416 16.4193 4.39062 16.4429C4.86821 17.2751 5.1984 17.4285 5.90594 17.4521L5.72906 17.7059C5.67599 17.7059 5.62882 17.7059 5.57576 17.7295C5.45194 17.7826 5.39887 17.9597 5.47552 18.0836C5.52859 18.2076 5.67599 18.2607 5.80571 18.2076C5.93542 18.1545 5.98259 17.9774 5.90594 17.8535C5.90594 17.8299 5.88236 17.8299 5.88236 17.8003L5.98259 17.6233L6.48966 18.6561C6.13589 18.3551 5.75854 18.2784 5.38118 18.3551C5.505 18.5558 5.61113 18.7329 5.73495 18.8863C5.53448 18.8863 5.33401 18.9099 5.15713 18.9631C5.68778 19.7953 6.24202 20.1258 6.81985 20.1494V20.657C6.79626 20.7101 6.79626 20.7809 6.81985 20.8576V21.3121C6.71961 21.3121 6.5899 21.3357 6.48966 21.3652C6.5899 21.5659 6.71961 21.7193 6.81985 21.8433V21.9672C6.71961 21.9908 6.64296 22.0203 6.54273 22.0439C6.64296 22.1679 6.71961 22.2977 6.81985 22.4217V28.0051C6.81985 28.3061 6.81985 28.9671 6.69603 29.2681C7.52739 28.8373 8.41181 28.0582 8.742 27.1729V27.4739C9.01912 27.2968 9.49671 26.4882 9.77383 26.1105C9.89765 26.1105 9.92713 26.0869 10.0509 26.0574L9.95071 26.2108C9.89765 26.2108 9.85048 26.2108 9.79741 26.2344C9.67359 26.2876 9.62053 26.4646 9.69718 26.5886C9.75024 26.7125 9.89765 26.7656 10.0274 26.7125C10.1512 26.6358 10.2043 26.4823 10.1512 26.3584C10.1512 26.3348 10.1276 26.3348 10.1276 26.3053L10.2278 26.1282L10.4283 26.5591L10.2514 26.7125C10.0509 26.866 9.9743 27.0135 10.0215 27.167C9.821 27.3676 10.0215 27.7985 10.1984 27.9519C10.1984 27.8988 10.1984 27.8516 10.2219 27.828C10.1689 27.9283 10.3458 28.1821 10.4519 28.1821C10.3988 28.3592 10.7054 28.6366 10.8057 28.5835C10.7821 28.7074 11.0356 28.9376 11.183 28.8373L11.4365 28.6071C11.4896 28.8078 11.5132 29.0851 11.4365 29.4393C11.7137 29.4924 12.0439 29.6695 12.2443 29.7934C12.2443 29.5396 12.321 29.1383 12.4448 28.9081C12.1677 28.8078 11.9672 28.6307 11.7608 28.3769L11.7373 28.3002C11.9908 28.1467 12.038 28.0228 12.091 27.7926C12.1677 27.5152 12.2679 27.4621 12.3917 27.285C12.8988 26.6004 13.4766 25.9747 14.0073 25.3432L14.0839 25.5439C14.3611 25.0363 14.8917 24.5346 15.3457 24.1805C15.499 24.2572 15.6759 24.3045 15.8233 24.3812C16.0002 24.4579 16.2007 24.5346 16.3775 24.635C16.0238 26.984 14.308 28.855 12.8693 30.6197C13.5769 30.8735 14.2313 31.1509 14.8386 31.4755C15.5226 30.6905 16.1476 29.6813 16.6547 28.7723C16.3245 29.8052 15.8469 30.9974 15.4165 31.8001C16.5249 32.4552 17.5332 33.3642 18.0638 34.1728C18.5945 33.3642 19.6027 32.4552 20.7112 31.8001C20.2808 30.9915 19.8032 29.8052 19.473 28.7723C19.9506 29.7049 20.611 30.6905 21.2891 31.4755C21.8964 31.145 22.5508 30.8676 23.2584 30.6197C21.8728 28.8786 20.1039 26.9604 19.7502 24.6114C19.927 24.5346 20.0803 24.4579 20.2572 24.3812C20.4341 24.3045 20.6346 24.2277 20.8115 24.151C21.2655 24.5051 21.7961 25.0068 22.0732 25.5144L22.1499 25.3137C22.7041 25.9688 23.2584 26.6004 23.7654 27.2555C23.8893 27.4326 23.9659 27.4857 24.0662 27.7631C24.1192 27.9933 24.1664 28.1172 24.3963 28.2707C24.2961 28.2943 24.1959 28.3474 24.1428 28.4477C24.0897 28.5481 24.0897 28.6248 24.1192 28.7251C23.9423 28.7487 23.8893 28.9022 23.9187 29.0792C23.9954 29.3566 23.9954 29.5573 23.9423 29.7875C24.0956 29.6104 24.2725 29.5101 24.5496 29.4334C24.7029 29.3803 24.8032 29.2327 24.7265 29.0792C24.8268 29.0556 24.9034 29.0025 24.9565 28.9022C24.9801 28.8491 24.9801 28.8255 24.9801 28.7782H25.0036C25.1569 28.9022 25.4046 28.6543 25.381 28.5245C25.4812 28.5776 25.7819 28.2943 25.7348 28.1231C25.835 28.1231 26.0119 27.8693 25.9647 27.769C25.9883 27.7926 25.9883 27.8457 25.9883 27.8929C26.1652 27.7159 26.3657 27.3145 26.1652 27.1079C26.1888 26.9545 26.1121 26.8069 25.9352 26.6535C26.0591 26.6535 26.1888 26.5768 26.2654 26.4528C26.3185 26.3525 26.3185 26.2226 26.2654 26.0987H26.3657C26.6428 26.4764 27.1204 27.2378 27.3975 27.3853V27.0843C27.7277 27.9697 28.6357 28.7487 29.4435 29.1796C29.3432 28.9022 29.3196 28.2175 29.3196 27.9165V20.2674L29.9505 19.0811C30.0036 18.9808 30.0743 18.904 30.1805 18.8509C30.2335 18.7742 30.2571 18.6975 30.2335 18.5971C30.3102 18.6207 30.3868 18.6207 30.4635 18.6207C30.5401 18.2902 30.9942 17.2574 31.6015 17.4816C31.625 17.1275 31.5779 16.8737 31.3008 16.5491C31.5012 16.4724 31.5543 16.2481 31.4541 16.071C31.5307 16.0474 31.5779 16.0179 31.6309 15.9943C31.5307 15.7936 31.4776 15.6166 31.5307 15.3864C31.3538 15.5635 31.2005 15.6166 30.9765 15.6402C30.9765 15.7169 30.9765 15.7641 31 15.8408C30.7996 15.8645 30.6463 16.0179 30.6993 16.2422C30.2689 16.1891 30.0449 16.3189 29.7677 16.5196C30.2984 16.8973 29.6911 17.8594 29.467 18.1132C29.5201 18.1899 29.5437 18.2371 29.6203 18.2902C29.5437 18.3138 29.4965 18.3906 29.4435 18.4909C29.467 18.668 29.4199 18.7683 29.3668 18.8686M5.77623 18.06C5.69957 18.0836 5.62292 18.06 5.57576 17.9833C5.55217 17.9066 5.57576 17.8299 5.65241 17.7826C5.72906 17.759 5.80571 17.7826 5.85288 17.8594C5.87646 17.9361 5.85288 18.0128 5.77623 18.06ZM5.82339 17.2514C5.42245 17.3046 4.99203 17.1511 4.66185 16.5668C5.09227 16.5137 5.51679 16.6671 5.82339 17.2514ZM5.9767 17.1039C5.77623 16.8501 5.57576 16.6258 5.26915 16.4724C5.14534 16.195 5.09227 15.894 5.14534 15.4631C5.52269 15.6933 5.75264 15.9176 5.90004 16.1714C5.84698 16.5019 5.90004 16.856 5.9767 17.1039ZM30.6993 16.5196C30.546 16.5727 30.3692 16.6199 30.2984 16.7498C30.4517 17.0803 30.1982 17.582 29.8208 18.2371C29.7677 18.2371 29.7206 18.2135 29.697 18.1604C30.0979 17.582 30.3043 16.797 29.9977 16.6199C30.1746 16.4665 30.4517 16.4665 30.7052 16.5196M31.23 15.9648C31.1769 15.9412 31.1298 15.8881 31.1062 15.8408C31.23 15.8172 31.3361 15.7405 31.3833 15.6638C31.3597 15.7641 31.3302 15.8645 31.3833 15.9943C31.3597 16.0179 31.3066 16.0179 31.23 15.9707M31 16.4193C30.8762 16.3661 30.8232 16.2422 30.8762 16.1419C30.9293 16.0651 31.0531 16.0415 31.1769 16.0887C31.3008 16.1419 31.3538 16.2658 31.3008 16.3661C31.2241 16.4665 31.1003 16.4901 31 16.4193ZM30.1451 18.4437C30.4753 17.7354 30.7524 17.2574 31.1062 17.2042C31.1592 17.0803 31.1062 16.9032 31.0531 16.7498H31.0767C31.2536 16.9268 31.4069 17.1511 31.3774 17.4049C31.0472 17.2514 30.546 17.8594 30.2925 18.5145C30.2394 18.5145 30.1923 18.4909 30.1392 18.4378M30.0685 18.3906C30.0154 18.3906 29.9918 18.3669 29.9682 18.3669C29.9446 18.3433 29.9152 18.3433 29.8916 18.3138C30.1687 17.883 30.546 17.1275 30.4458 16.8501C30.546 16.673 30.776 16.673 30.8762 16.6494C30.9529 16.7498 31.0531 16.9504 30.9765 17.1275C30.6758 17.1806 30.2689 17.9125 30.0685 18.3906ZM27.5449 26.2935V23.5903L28.0991 22.5279C28.223 22.5279 28.3291 22.4748 28.3998 22.3509C28.4529 22.2741 28.4529 22.1974 28.4234 22.0971C28.5237 22.0735 28.6239 22.0203 28.677 21.92C28.73 21.8197 28.73 21.6898 28.677 21.5659C28.7536 21.5423 28.8008 21.4892 28.8538 21.4419V28.0582C28.0225 27.4798 27.5449 26.8955 27.5449 26.2876M27.9517 21.5482C28.0048 21.4478 28.1817 21.4242 28.3291 21.4951C28.4765 21.5659 28.559 21.7252 28.506 21.8256C28.4529 21.9259 28.276 21.9495 28.1286 21.8787C27.9812 21.8079 27.8987 21.6485 27.9517 21.5482ZM28.0755 21.979C28.1994 22.0558 28.276 22.1797 28.2524 22.2564C28.1994 22.3332 28.052 22.3568 27.9222 22.28C27.7984 22.2033 27.7218 22.0794 27.7454 22.0026C27.7689 21.9259 27.9222 21.9259 28.0755 21.979ZM28.2524 21.1173C28.3055 21.0406 28.4293 21.0406 28.5296 21.0937C28.6534 21.1704 28.7064 21.2708 28.6829 21.3475C28.6298 21.4242 28.506 21.4242 28.4057 21.3711C28.2819 21.2944 28.2053 21.194 28.2524 21.1173ZM26.7607 25.839C26.8845 25.6088 26.914 25.2842 26.9376 25.0304C26.9612 24.877 26.9612 24.6999 27.0378 24.5759L27.1911 24.2749V26.3938C27.0909 26.3171 26.8609 26.0397 26.7607 25.839ZM25.9824 25.9393C25.7525 25.8154 25.6817 25.538 25.8055 25.3078C25.8055 25.3078 25.8055 25.2842 25.8291 25.2842C25.9529 25.0068 26.5131 24.753 26.7135 24.3989L27.7984 22.3509C27.8515 22.404 27.8987 22.4276 27.9753 22.4512L26.8904 24.4992C26.7135 24.8533 26.7902 25.4849 26.6369 25.7387V25.7623C26.4836 25.9629 26.2065 26.0397 25.9824 25.9393ZM28.0755 8.9472V10.9421L27.5449 10.4876V9.70267L28.0755 8.9472ZM27.5449 8.9472V7.2533C27.822 7.63104 27.9458 7.90843 28.052 8.28617L27.5449 8.9413V8.9472ZM27.5449 22.3036V22.2269C27.5449 22.2269 27.5685 22.2505 27.5685 22.28L27.5449 22.3036ZM26.4836 8.99442V10.9362L26.006 10.5349V9.502L26.4836 8.99442ZM25.9588 9.02393V7.58382C26.1121 7.78449 26.3126 8.0914 26.4895 8.29207L25.9588 9.02393ZM26.6133 11.7979C26.8138 11.6209 27.0142 11.2667 27.1911 11.0897V12.0989V22.9824L26.5072 24.2926C26.4305 24.4166 26.3067 24.5464 26.177 24.6468C26.1239 24.6999 26.0767 24.7471 26.0237 24.7707V12.0694V11.0838L26.6015 11.792L26.6133 11.7979ZM26.7371 10.9657V9.09476L27.2147 9.74989V10.5821L26.7371 10.9598V10.9657ZM26.6899 8.23895C26.9199 7.93794 27.0673 7.40676 27.1439 7.12936L27.2442 9.02393L26.6899 8.23895ZM25.7053 26.4705C25.552 26.3938 25.4753 26.2403 25.552 26.14C25.6051 26.0397 25.7819 26.0161 25.9058 26.0869C26.0591 26.1636 26.1357 26.3171 26.0591 26.4174C26.006 26.5413 25.8291 26.5709 25.7053 26.4705ZM24.697 20.7868V11.0365L25.1275 11.615L25.6581 10.9067V12.0694V24.3399C24.5968 23.6552 24.5968 22.3686 24.5968 21.3829C24.6735 21.2059 24.697 21.0052 24.697 20.775M23.5119 24.7058C23.282 24.2513 23.0048 23.8205 22.9341 23.2893L22.9105 23.189C23.3881 22.9116 23.8421 22.581 24.1723 22.1561C24.2253 23.2421 24.7029 24.5051 25.6581 25.0835C25.6345 25.1366 25.6051 25.1839 25.5815 25.237C25.5284 25.3609 25.5048 25.5144 25.5579 25.6678C25.5815 25.721 25.5815 25.7682 25.6109 25.8213C25.5107 25.8449 25.4105 25.898 25.3338 26.022C25.3102 26.0987 25.2808 26.1754 25.2808 26.2521H25.2572C25.0036 26.1282 24.6027 26.199 24.4022 26.0751C24.3492 26.0515 24.302 25.9747 24.2784 25.9511C24.2018 25.8744 24.1546 25.7741 24.0779 25.6973C23.8244 25.3963 23.5237 24.9655 23.2702 24.6645L23.5237 24.7176L23.5119 24.7058ZM25.2513 10.8654V9.09476L25.6522 9.54922V10.5113L25.2513 10.8654ZM25.0213 8.06189C25.2985 7.83171 25.4989 7.55431 25.6522 7.27691V8.99442C25.3987 8.6639 25.2218 8.28617 25.0213 8.06189ZM25.9058 27.3322C25.9588 27.3322 25.9824 27.3086 26.0296 27.2555C26.0532 27.2555 26.0826 27.2791 26.0826 27.3322C26.1062 27.4857 26.0826 27.6627 25.9824 27.7631C26.006 27.6391 25.9588 27.4621 25.9058 27.3322ZM25.5284 28.011L24.9977 27.5329C24.8739 27.4326 24.9977 27.2555 25.151 27.3558C25.3279 27.5093 25.552 27.6096 25.7289 27.7572C25.7819 27.8103 25.7819 27.8811 25.7525 27.9106L25.6994 27.9874C25.6463 28.0405 25.5756 28.0405 25.5225 28.011M25.4753 27.3558C25.4911 27.3204 25.5087 27.287 25.5284 27.2555C25.6817 27.409 25.7584 27.5093 25.7819 27.6568C25.7053 27.5565 25.5815 27.4562 25.4812 27.3558M25.3751 27.3027C25.322 27.2496 25.2749 27.226 25.1982 27.2024L25.2985 27.0017C25.3751 27.0253 25.4223 27.0548 25.4753 27.102L25.3751 27.3027ZM24.7973 27.9106C24.6735 27.7867 24.8209 27.6096 24.9506 27.71L25.4812 28.1113C25.5343 28.1644 25.5343 28.2352 25.5048 28.2884L25.4282 28.3651C25.4046 28.4182 25.3043 28.4182 25.2513 28.3651L24.7973 27.9106ZM24.8444 27.409C24.7442 27.3853 24.6911 27.2555 24.6911 27.2083C24.7914 27.1847 24.8916 27.2083 24.9447 27.2614C24.8916 27.2614 24.8444 27.3381 24.8444 27.4149M24.5437 28.2884C24.4435 28.188 24.5673 28.011 24.697 28.1113L25.1275 28.4418C25.1805 28.4949 25.2041 28.5422 25.151 28.5953L25.098 28.672C25.0744 28.7251 24.9977 28.7251 24.9447 28.672L24.5437 28.2943V28.2884ZM24.6204 27.7867C24.5202 27.71 24.4966 27.586 24.4966 27.5329C24.5732 27.5329 24.697 27.5565 24.7501 27.6096C24.697 27.6332 24.6263 27.71 24.6263 27.7867M24.3433 29.0497C24.3963 29.0733 24.6204 29.1737 24.4966 29.2799C24.3728 29.3566 24.243 29.3803 24.0956 29.5337C24.1192 29.3566 24.0956 29.2032 24.0956 29.0556C24.072 28.9022 24.2961 29.032 24.3492 29.0556M24.5968 28.5658C24.7206 28.6425 24.7737 28.7664 24.7501 28.8432C24.697 28.9435 24.5496 28.9435 24.4494 28.8963C24.3256 28.8196 24.2489 28.6956 24.2961 28.6189C24.3492 28.5185 24.473 28.4949 24.5968 28.5658ZM24.2136 27.9106C24.3374 27.887 24.4435 27.9638 24.4907 27.9874C24.4376 28.011 24.414 28.0641 24.414 28.1408C24.3138 28.1172 24.2371 27.9638 24.2136 27.9106ZM22.1735 25.0835L22.1971 24.8061L22.6511 25.0068L22.7277 24.4992L22.9813 24.5996C23.3114 25.0009 23.6121 25.4318 23.9423 25.839C24.1959 26.0692 24.243 26.3466 24.5732 26.3171C24.6263 26.3171 25.1275 26.3702 25.2572 26.4174C25.4576 26.5177 25.6109 26.7479 25.7348 26.8187C25.8114 26.8424 25.9883 26.9427 26.0119 27.0489C26.0355 27.1552 25.9588 27.226 25.835 27.226C25.6817 27.0489 25.4576 26.9722 25.3279 26.9486C24.9506 26.8719 24.7501 26.8483 24.4966 26.7479C24.697 26.9014 24.8739 26.9486 25.0272 27.1257C24.9034 27.102 24.6735 27.0725 24.5496 27.102C24.5732 27.226 24.6499 27.3794 24.7501 27.4798C24.6735 27.4562 24.5202 27.4267 24.3963 27.4562C24.4199 27.5565 24.4494 27.71 24.4966 27.887C24.3728 27.8103 24.2961 27.7867 24.1959 27.8103C24.1428 27.4798 24.0426 27.3027 23.9187 27.1788C23.3645 26.4469 22.7572 25.7918 22.1794 25.0835M21.0591 24.0979C21.1593 24.0448 21.2891 23.9975 21.3893 23.9739C21.7902 23.7969 22.2442 23.5962 22.6982 23.3424C22.7513 23.6729 22.8751 24.0507 23.0284 24.3517L22.5214 24.151L22.4447 24.6586L21.9907 24.4579L21.9376 24.8888L21.0532 24.1038L21.0591 24.0979ZM16.6723 24.7825C17.2797 25.1366 17.7042 25.6147 18.058 26.199C18.4117 25.6206 18.8421 25.1366 19.4436 24.7825C19.7737 26.8778 21.4365 29.0733 22.6747 30.4898C22.4211 30.5666 21.8433 30.7672 21.3893 30.9679C20.1511 29.6045 19.0957 27.4857 18.6417 26.5C18.7419 27.8634 19.6263 30.5666 20.0273 31.5758C19.3728 31.9536 18.8186 32.4316 18.058 33.0632C17.3032 32.4552 16.749 31.9536 16.0886 31.5758C16.4896 30.5666 17.374 27.8634 17.4742 26.5C17.0438 27.4857 15.9884 29.6045 14.7266 30.9679C14.2726 30.7672 13.6948 30.5666 13.4412 30.4898C14.6794 29.0497 16.3186 26.8778 16.6723 24.7825ZM13.6476 24.6527L13.571 24.1451L13.0639 24.3458C13.2172 24.0448 13.341 23.6611 13.3941 23.3365C13.8481 23.5903 14.3021 23.791 14.703 23.968C14.8033 24.0212 14.933 24.0684 15.0332 24.092L14.1488 24.877L14.0957 24.4461L13.6417 24.6468L13.6476 24.6527ZM10.4401 8.99442V7.27691C10.617 7.55431 10.8175 7.83171 11.071 8.06189C10.8941 8.29207 10.7172 8.66981 10.4401 8.99442ZM10.8469 9.07115V10.8418L10.446 10.4876V9.52561L10.8469 9.07115ZM11.4248 11.0661V20.8163C11.4248 21.0465 11.4483 21.2472 11.525 21.4478C11.525 22.103 11.525 22.8348 11.1712 23.7201C11.1476 23.6434 11.1182 23.5962 11.0946 23.5195C10.9708 23.5962 10.8646 23.6965 10.7644 23.7969C10.7408 23.5667 10.6642 23.3424 10.5639 23.065C10.5109 23.0886 10.4873 23.1181 10.4637 23.1653V10.9421L10.9943 11.6504L11.4248 11.072V11.0661ZM10.9943 23.8441C11.1948 24.5996 10.9413 25.2075 10.387 25.6383C10.2337 24.9065 10.5875 24.2513 10.9943 23.8441ZM11.9318 22.2033C12.262 22.6046 12.716 22.9588 13.2172 23.2362L13.1936 23.3365C13.117 23.8441 12.8634 24.2985 12.6158 24.753L12.8457 24.6999C12.6158 25.0009 12.2915 25.4318 12.038 25.7328C11.9613 25.8095 11.8847 25.8862 11.8375 25.9865C11.8139 26.0397 11.7608 26.0869 11.7137 26.1105C11.5132 26.2344 11.1064 26.1636 10.8587 26.2876C10.8351 26.2876 10.8057 26.3112 10.7821 26.3112L10.729 26.3348V26.3112L10.5757 25.9806H10.7762C10.7762 25.9806 10.7762 26.0043 10.7998 26.0338C10.8528 26.1577 11.0002 26.2108 11.1299 26.1577C11.2538 26.081 11.3068 25.9275 11.2302 25.8036C11.1771 25.6796 11.0297 25.6265 10.9 25.6796C10.8469 25.7032 10.8233 25.7564 10.7998 25.78H10.6229C11.0533 25.4022 11.3068 24.9242 11.3068 24.2926C11.6842 23.6375 11.9141 22.9529 11.9377 22.1974M10.8941 25.8154C10.9708 25.7918 11.0474 25.8154 11.0946 25.8921C11.1182 25.9688 11.0946 26.0456 11.0179 26.0928C10.9413 26.14 10.8646 26.0928 10.8175 26.0161C10.7939 25.9157 10.8175 25.839 10.8941 25.8154ZM11.7255 28.1644C11.7255 28.0877 11.6724 28.0405 11.6488 28.011C11.7019 27.9874 11.7726 27.9106 11.9259 27.9342C11.8729 27.9874 11.8257 28.1113 11.7255 28.1644ZM11.525 28.5422L11.6252 28.4418L11.6783 28.5422C11.8316 28.7959 12.0321 28.9435 12.2561 29.0497C12.1559 29.2268 12.1323 29.3803 12.1323 29.6045C11.9554 29.4806 11.8021 29.4039 11.6016 29.3744C11.6547 29.0733 11.6252 28.8196 11.5486 28.5894L11.525 28.5363V28.5422ZM11.5014 27.8103C11.5014 27.7336 11.4248 27.6568 11.3776 27.6332C11.4307 27.5801 11.5545 27.5565 11.6311 27.5565C11.6311 27.6096 11.6075 27.7336 11.5073 27.8103M10.9943 28.4418L11.4248 28.1113C11.5486 28.011 11.6783 28.188 11.5781 28.2884L11.1771 28.6661C11.1241 28.7192 11.0533 28.6897 11.0238 28.6661L10.9708 28.5894C10.9177 28.5658 10.9472 28.489 10.9943 28.4359M10.6406 28.1408L11.1712 27.7395C11.295 27.6391 11.4483 27.8162 11.3245 27.9401L10.8175 28.3946C10.7644 28.4477 10.6936 28.4182 10.6406 28.3946L10.5639 28.3179C10.5639 28.2648 10.5875 28.1939 10.6406 28.1408ZM11.3009 27.409C11.3009 27.3322 11.2479 27.2555 11.2007 27.2319C11.2538 27.2083 11.354 27.1788 11.4542 27.1788C11.4307 27.2555 11.4012 27.3794 11.3009 27.409ZM10.3929 27.7572C10.5698 27.6037 10.7703 27.4798 10.9708 27.3558C11.1241 27.2555 11.2479 27.4326 11.1241 27.5329L10.5934 28.011C10.5403 28.0641 10.4696 28.0346 10.4401 28.011L10.387 27.9342C10.334 27.8811 10.334 27.8103 10.387 27.7572M10.8705 27.2024L10.7939 27.0489L10.9177 27.0253L10.9708 27.1257L10.8705 27.2024ZM10.3399 27.6568C10.3634 27.4562 10.5403 27.2791 10.6936 27.1257C10.7172 27.1788 10.7467 27.2024 10.7467 27.2496C10.67 27.3263 10.446 27.5506 10.3458 27.6509M10.2396 27.3558C10.1866 27.4798 10.1394 27.6568 10.1394 27.7867C10.0627 27.6864 10.0156 27.5093 10.0392 27.3558C10.0392 27.3027 10.0627 27.2791 10.0922 27.2791C10.1453 27.3027 10.1925 27.3558 10.2455 27.3558M10.8941 26.4233C10.9943 26.3702 11.5014 26.323 11.5781 26.323C11.9082 26.3466 11.979 26.0928 12.2089 25.8449C12.5391 25.4436 12.8398 25.0127 13.17 24.6055L13.4236 24.5051L13.5002 25.0127L13.9778 24.812L14.0014 25.0894C13.4236 25.7977 12.8163 26.4528 12.262 27.1847C12.1618 27.3086 12.0615 27.4857 11.9849 27.8162C11.8611 27.7631 11.808 27.8162 11.6842 27.8929C11.7373 27.7159 11.7844 27.5624 11.7844 27.4621C11.6606 27.4621 11.5073 27.4621 11.4307 27.4857C11.5309 27.3617 11.6075 27.2319 11.6311 27.1079C11.4778 27.0843 11.2774 27.1079 11.1535 27.1316C11.2774 26.9545 11.4542 26.8778 11.6842 26.7538C11.4307 26.8305 11.2302 26.8778 10.8528 26.9545C10.729 26.9781 10.5226 27.0548 10.3458 27.2319C10.2219 27.2319 10.1689 27.1316 10.1689 27.0548C10.1925 26.9545 10.3458 26.8542 10.446 26.8246C10.5462 26.7479 10.6995 26.4941 10.9 26.4233M10.2868 25.9925C10.3399 25.9688 10.3634 25.9688 10.4106 25.9393L10.6406 26.3938L10.5403 26.4941L10.2868 25.9865V25.9925ZM10.0392 24.9301C9.91534 24.576 10.0156 23.791 10.4696 23.4427C10.67 24.0212 10.3929 24.6822 10.0392 24.9301ZM8.57691 9.70267V10.4876L8.04625 10.9421V8.9472L8.57691 9.70267ZM8.04625 8.31568C8.1229 8.06189 8.2762 7.68416 8.55332 7.28281V8.97671L8.04625 8.32158V8.31568ZM7.31513 20.6393C7.31513 20.6393 7.29154 20.6156 7.29154 20.5861L7.39178 20.4091L7.99908 21.619C7.76913 21.4419 7.54508 21.318 7.26796 21.2885V20.9107C7.34461 20.834 7.34461 20.7337 7.32102 20.6334M7.94602 21.2944L7.59225 20.5625C7.5156 20.3855 7.41536 20.2851 7.41536 20.0845C7.56866 20.2084 7.61583 20.3382 7.69248 20.5153L8.04625 21.2472C8.19955 21.5246 8.29979 21.7252 8.37644 22.0321C8.19955 21.7784 8.09932 21.5541 7.94602 21.3003M7.8163 18.0128C8.09342 18.7683 7.89295 19.3526 7.46253 19.6772C7.23258 18.9454 7.40946 18.3374 7.8163 18.0128ZM7.49201 18.0128C7.43895 17.8358 7.39178 17.6351 7.29154 17.4049V11.0424L7.94602 11.7979L8.57691 11.0424V20.6156C8.42361 20.8694 8.32337 21.1704 8.34696 21.501L7.73965 20.291L7.94012 20.3146C7.94012 20.3146 7.94012 20.3382 7.9637 20.3678C8.01677 20.4917 8.16417 20.5448 8.29389 20.4917C8.42361 20.4386 8.47078 20.2615 8.39413 20.1376C8.34106 20.0136 8.19366 19.9605 8.06394 20.0136C8.01087 20.0372 7.98729 20.0904 7.9637 20.114L7.63352 20.0904L7.58045 19.9664C8.11111 19.4883 8.31158 18.727 7.91064 17.5938C7.73375 17.7177 7.58045 17.8476 7.48022 18.0246M8.06984 20.0845C8.14649 20.0608 8.22314 20.0845 8.27031 20.1612C8.29389 20.2379 8.27031 20.3146 8.19366 20.3619C8.11701 20.3855 8.04036 20.3619 7.99319 20.2851C7.9696 20.2084 8.01677 20.1081 8.06984 20.0845ZM8.92478 20.5389C9.12525 21.0937 8.9012 21.7252 8.59459 21.9554C8.44129 21.6249 8.51794 20.8458 8.92478 20.5389ZM9.37879 20.9403C9.60874 21.6957 9.37879 22.28 8.9012 22.6578C8.7479 21.9259 9.0545 21.318 9.37879 20.9403ZM9.48492 24.6763C9.30803 24.5228 9.13115 24.4225 8.93068 24.3753V23.5195L9.48492 24.6822V24.6763ZM8.92478 23.1122C9.07808 23.2893 9.17832 23.4664 9.27855 23.667L9.5085 24.1215C9.6618 24.3989 9.78562 24.6527 9.86227 24.9773C9.6618 24.7235 9.53209 24.4697 9.40827 24.1923L9.17832 23.7142C9.0545 23.5372 8.97785 23.3365 8.92478 23.1063M9.70897 25.1071C9.27855 25.2311 8.60049 25.054 8.27031 24.5523C8.82455 24.3989 9.5085 24.8061 9.70897 25.1071ZM8.57691 23.6965C8.50026 23.7201 8.42361 23.6965 8.37644 23.6198C8.35285 23.5431 8.37644 23.4664 8.45309 23.4191C8.52974 23.3955 8.60639 23.4191 8.65356 23.4959C8.67714 23.5726 8.62997 23.6729 8.57691 23.6965ZM8.9012 9.72628L9.37879 9.07115V10.9421L8.9012 10.5408V9.73218V9.72628ZM8.85403 9.02393L8.95426 7.12936C9.03091 7.40676 9.2078 7.91434 9.40827 8.23895L8.85403 9.02393ZM9.5085 11.7979L10.0863 11.0897V23.5667C9.90944 23.8441 9.80921 24.1451 9.80921 24.5287L9.12525 23.1122L9.32572 23.1358C9.32572 23.1358 9.32572 23.1594 9.34931 23.189C9.40237 23.3129 9.54977 23.366 9.67949 23.3129C9.80921 23.2598 9.85638 23.0827 9.80331 22.9588C9.75025 22.8348 9.57336 22.7817 9.47312 22.8348C9.42006 22.8584 9.39647 22.888 9.37289 22.9352L9.0427 22.9116C9.65001 22.404 9.89765 21.6721 9.52029 20.5861C9.42006 20.6629 9.31982 20.7632 9.21959 20.8399C9.196 20.6097 9.11935 20.3855 9.01912 20.1081L8.94247 20.1848V11.0956C9.09577 11.249 9.29624 11.6268 9.49671 11.8038M9.48492 22.9116C9.56157 22.8879 9.63822 22.9116 9.68539 22.9883C9.70897 23.065 9.68539 23.1417 9.60874 23.189C9.53209 23.2126 9.45544 23.189 9.40827 23.1122C9.38468 23.0355 9.40827 22.9588 9.48492 22.9116ZM9.60874 10.9657V9.02393L10.0863 9.53151V10.5644L9.60874 10.9657ZM9.60874 8.29207C9.78562 8.0914 9.98609 7.814 10.1394 7.58382V9.02393L9.60874 8.29207ZM10.0627 26.3938C10.0863 26.4705 10.0627 26.5472 9.98609 26.5945C9.90944 26.6181 9.83279 26.5945 9.78562 26.5177C9.76204 26.441 9.78562 26.3643 9.86227 26.3171C9.93892 26.2935 10.0156 26.3171 10.0627 26.3938ZM8.9012 25.9925C8.95426 26.0161 9.13115 26.0692 9.2019 26.0692C9.10167 26.1695 9.0486 26.2698 8.9012 26.3702V25.9925ZM8.27031 25.2075C8.82455 25.1307 9.55567 25.2311 10.0392 25.8154C9.40827 25.9925 8.75379 25.8154 8.27031 25.2075ZM7.26206 22.8112C7.663 23.0886 8.11701 23.1653 8.54743 23.0886V23.2657L8.49436 23.3424C8.4413 23.3424 8.39413 23.3424 8.34106 23.366C8.21724 23.4191 8.16417 23.5962 8.21724 23.7201C8.27031 23.8441 8.41771 23.8972 8.54743 23.8441V24.3517C8.31747 24.3517 8.09342 24.3753 7.86347 24.4284C7.98729 24.6822 8.14059 24.8829 8.31748 25.0363C8.19366 25.0599 8.04035 25.0894 7.88705 25.1366C8.08752 25.4377 8.31748 25.6678 8.54153 25.8213V26.3289C8.54153 26.9073 8.06394 27.4916 7.25616 28.0995V22.823L7.26206 22.8112ZM6.96136 22.1797C7.46843 22.1266 8.1229 22.28 8.60049 22.8348C7.99319 22.9883 7.41536 22.8112 6.96136 22.1797ZM6.90829 21.5482C7.38588 21.4242 8.04625 21.8256 8.21724 22.1266C7.86347 22.2269 7.23258 22.0499 6.90829 21.5482ZM7.16183 20.8635C7.08518 20.8871 7.00853 20.8635 6.96136 20.7868C6.93777 20.7101 6.96136 20.6334 7.03801 20.5861C7.11466 20.5625 7.19131 20.5861 7.23848 20.6629C7.26206 20.7396 7.23848 20.8163 7.16183 20.8635ZM7.10876 19.8307C6.60169 20.0077 6.02386 19.7775 5.56986 19.1224C6.07693 19.0221 6.65475 19.2227 7.10876 19.8307ZM6.75499 19.0988C6.37763 19.1755 6.00028 18.9985 5.72316 18.4909C6.10051 18.4378 6.55452 18.7919 6.75499 19.0988ZM6.15358 17.0803C5.92363 16.4488 6.05335 16.0179 6.33047 15.7405C6.56042 16.372 6.4307 16.8029 6.15358 17.0803ZM6.83164 17.6587V18.4673L6.32457 17.458L6.52504 17.4816C6.52504 17.4816 6.52504 17.5052 6.54862 17.5347C6.60169 17.6115 6.72551 17.6587 6.82574 17.6587M6.83164 17.5347C6.75499 17.5584 6.67834 17.5347 6.63117 17.458C6.60759 17.3813 6.63117 17.3046 6.70782 17.2574C6.78447 17.2337 6.86112 17.2574 6.90829 17.3341C6.93187 17.4108 6.90829 17.5111 6.83164 17.5347ZM6.96136 19.0988C6.78447 18.8686 6.68424 18.668 6.56042 18.4142L6.30688 17.9066C6.20665 17.7059 6.13 17.5761 6.10641 17.3754C6.25971 17.5288 6.33636 17.6764 6.40712 17.8535L6.66065 18.361C6.78447 18.6384 6.8906 18.8155 6.96136 19.0929M7.23848 17.759C7.46843 18.2666 7.3623 18.6916 7.08518 18.9454C6.96136 18.5912 6.96136 18.0128 7.23848 17.759ZM7.26206 9.57873L7.79272 8.84687V10.9421L7.26206 10.4876V9.57873ZM7.49201 7.22969C7.5156 7.48348 7.61583 7.83761 7.8222 8.33929L7.29154 8.79375C7.26796 8.10911 7.31513 7.55431 7.49201 7.22969ZM11.4248 6.36799C11.3009 6.82245 11.2715 7.50709 11.3245 7.90843C10.6936 7.40085 10.617 7.07624 10.5698 6.56866C10.5698 6.54505 10.5934 6.3916 10.5462 6.36799C10.4932 6.36799 10.4224 6.52144 10.3693 6.66899C10.216 7.17657 9.89175 7.57792 9.63822 7.8081C9.23728 7.07624 9.16063 6.52144 9.28445 5.99025C9.28445 5.96665 9.30803 5.91353 9.30803 5.88992C9.30803 5.86631 9.28445 5.78958 9.23138 5.78958C9.17832 5.78958 9.0545 5.96665 9.0545 6.01976C8.70073 6.57456 8.19955 7.22969 7.91654 7.83761C7.76324 7.43627 7.68658 6.92869 7.68658 6.77523C8.08752 6.06698 8.59459 5.2879 9.40237 4.93378C10.2337 5.48858 10.9943 5.99616 11.4189 6.37389M12.2325 9.85613H11.1476L11.2243 9.98007C11.3245 10.1571 11.3776 10.3106 11.3776 10.4876L11.0769 10.765V8.79375L11.3068 8.28617C11.5604 8.86457 11.9141 9.47249 12.2384 9.85022M13.0403 8.91769C12.6865 9.04164 12.433 9.27182 12.2856 9.4961C12.0556 9.14197 11.9082 8.78785 11.8847 8.53406C12.3151 8.58718 12.7927 8.73473 13.0462 8.91179M13.117 9.17148C13.1405 9.32494 13.2938 9.57283 13.5179 9.82662H12.4566C12.6335 9.54922 12.9106 9.31903 13.1111 9.17148M13.9955 9.34855C13.8422 9.40166 13.7184 9.47249 13.6417 9.60234C13.5179 9.44888 13.4118 9.24821 13.3882 9.04754L13.9955 9.34855ZM14.9566 9.72628C14.8799 9.7794 14.8327 9.80301 14.7561 9.85022H13.7714C13.8717 9.69677 14.0486 9.54922 14.2254 9.47249C14.4023 9.54922 14.5556 9.62594 14.9566 9.72628ZM15.4342 3.67073C15.7349 3.69434 16.2655 3.82419 16.5721 4.00125C16.4483 4.02486 16.3422 4.12519 16.295 4.25504C16.0415 4.00125 15.611 3.74746 15.4401 3.67663M15.2337 3.31661C15.611 3.19266 16.065 3.5704 16.2655 3.74746C15.9648 3.67073 15.4577 3.51728 15.2337 3.64712V3.31661ZM14.7325 4.62687C14.7856 4.57375 14.8327 4.4262 14.8563 4.34947V3.46416C14.933 3.41104 15.0332 3.36382 15.1099 3.34021V4.34947C15.1099 4.4262 15.1629 4.55014 15.2101 4.62687C15.1334 4.7036 15.0332 4.78032 14.9566 4.90427C14.933 4.80393 14.8327 4.7036 14.7266 4.62687M15.1099 2.02405V2.80903C15.0096 2.88575 14.9094 3.0097 14.8563 3.13954V2.30735V2.00634H14.4023C14.3021 2.00634 14.0721 2.02995 13.9719 2.13028C13.9483 2.05356 13.9188 1.97683 13.9188 1.87649C13.9188 1.79977 13.9188 1.69943 13.9719 1.6227C14.0721 1.72304 14.3021 1.74665 14.4023 1.74665H14.8563V1.26858C14.8563 1.16824 14.8327 0.914453 14.7325 0.814117C14.8092 0.790509 14.8858 0.760998 14.986 0.760998C15.0627 0.760998 15.1629 0.760998 15.2396 0.814117C15.1393 0.914453 15.1158 1.16824 15.1158 1.26858V1.34531V1.72304H15.5698C15.67 1.72304 15.9 1.69943 16.0002 1.5991C16.0238 1.67582 16.0533 1.75255 16.0533 1.85289C16.0533 1.92961 16.0533 2.02995 16.0002 2.10668C15.9 2.00634 15.67 1.98273 15.5698 1.98273L15.1158 2.03585L15.1099 2.02405ZM16.8728 3.81828C16.5426 3.5881 15.9648 3.13364 15.4106 3.08642C15.3339 3.08642 15.157 3.13954 15.0568 3.18676C15.1334 3.08642 15.2101 2.95658 15.3339 2.88575C15.4872 2.76181 15.6346 2.7323 15.8646 2.80903C16.065 2.86214 16.2655 2.88575 16.4188 2.98609C16.4188 3.26349 16.7195 3.51728 16.8728 3.81828ZM20.6051 9.65546C20.2042 9.53151 19.5969 9.10066 19.4966 8.54586C19.4966 8.26846 19.4436 7.35954 19.42 7.08214C19.42 6.80474 19.3964 6.57456 19.3964 6.29716C19.3433 6.17322 19.2961 6.09649 19.2726 6.06698C19.2195 6.14371 19.1723 6.22044 19.1487 6.29716C19.1487 6.65129 19.2254 7.78449 19.2254 8.49274C19.2254 9.07115 19.4023 9.27772 19.5261 9.52561C19.1487 9.29543 18.7183 9.01803 18.7183 8.43962V6.26765C18.6947 6.16732 18.6417 6.09059 18.5945 6.03747C18.5179 6.1142 18.4943 6.19092 18.4707 6.26765V8.69341C18.4707 8.97081 18.3704 9.30133 18.17 9.44888C18.0167 9.29543 17.9164 9.04754 17.8929 8.69341C17.8693 7.88483 17.9164 7.07624 17.9164 6.26765C17.8929 6.21453 17.8398 6.09059 17.7926 6.03747C17.7396 6.09059 17.6924 6.19092 17.6688 6.26765V6.89918C17.6688 7.12936 17.6452 8.20944 17.6452 8.43962C17.6452 8.81736 17.3445 9.14787 16.9141 9.44888C17.0674 9.11836 17.144 8.89408 17.1912 8.51635C17.2914 7.88483 17.2679 6.95229 17.315 6.26765C17.2914 6.19092 17.262 6.1142 17.2148 6.03747C17.1617 6.1142 17.1381 6.19092 17.1146 6.26765C17.091 6.64539 17.091 7.12346 17.0615 7.78449C16.9613 8.84687 16.2537 9.37806 15.4695 9.65546C15.8469 9.32494 16.124 8.77014 16.4011 8.26846C16.6311 7.814 16.7785 7.15887 16.8551 6.35028C16.8551 6.27355 16.8551 6.17322 16.8787 6.07288C16.9318 5.46497 16.9554 4.68589 16.5014 4.40849C16.578 4.13109 16.8315 4.03076 17.032 4.13109C17.1323 4.18421 17.3327 4.23143 17.486 4.20782C17.0556 3.72975 16.8315 3.42284 16.6311 2.96838C16.6547 2.89165 16.8846 2.94477 17.0851 2.99199C17.1853 3.0156 17.262 3.09233 17.3858 3.11593C17.2856 3.19266 17.1853 3.23988 17.032 3.39333C17.1853 3.47006 17.3091 3.64712 17.5627 3.67073C17.8162 3.69434 17.9164 3.49367 18.1169 3.36972C18.0403 3.26939 17.8634 3.16905 17.6865 3.09233C17.887 3.03921 18.2171 2.89165 18.5179 2.93887C18.7478 2.99199 18.848 3.13954 19.0485 3.23988H19.1016C19.1016 3.23988 19.1252 3.21627 19.1016 3.18676C18.9247 2.98609 18.8245 2.90936 18.624 2.78542C18.4707 2.70869 18.17 2.70869 18.0167 2.7323C17.8634 2.75591 17.6393 2.80903 17.4389 2.80903C17.0851 2.80903 16.8846 2.60835 16.5544 2.68508C16.354 2.05356 17.2856 2.02995 17.94 2.15389C18.3704 2.25423 18.7242 2.43129 18.8716 2.53163C19.1723 2.76181 19.6794 3.03921 20.0568 3.16315C19.9801 3.21627 19.8799 3.23988 19.756 3.23988C20.0096 3.41694 20.1865 3.64122 20.2867 3.77107C20.2101 3.74746 20.0862 3.74746 19.8563 3.74746C20.0332 4.00125 20.2101 4.27865 20.2572 4.40259C20.1806 4.37898 20.0568 4.34947 19.9801 4.32586C20.1039 4.72721 20.0568 5.53579 19.8799 5.94304C19.8032 6.1201 19.8268 6.29716 19.8268 6.47423C19.8799 7.68415 19.7737 8.77014 20.611 9.65546M17.4801 3.41694C17.4801 3.51728 17.5332 3.594 17.6039 3.61761C17.4801 3.61761 17.4035 3.51728 17.4035 3.41694C17.4035 3.31661 17.5037 3.23988 17.6039 3.21627C17.5273 3.23988 17.4801 3.31661 17.4801 3.41694ZM17.7337 3.41694C17.7337 3.31661 17.6806 3.23988 17.6098 3.21627C17.7337 3.21627 17.8398 3.293 17.8398 3.41694C17.8398 3.51728 17.7396 3.61761 17.6098 3.61761C17.6865 3.61761 17.7337 3.51728 17.7337 3.41694ZM16.7726 9.20099C16.6959 9.47839 16.5721 9.67906 16.4955 9.85613H15.7408C16.1712 9.70267 16.3952 9.57873 16.7726 9.20099ZM17.7042 9.09476C17.7808 9.27182 17.9577 9.64955 18.1818 9.85022H16.8964C17.3268 9.59643 17.5804 9.27182 17.7042 9.09476ZM18.6417 9.07115C18.9424 9.42527 19.249 9.67906 19.6027 9.85613H18.1641C18.394 9.62595 18.5945 9.42527 18.6417 9.07115ZM20.5343 9.85613H19.9801C19.8799 9.70267 19.8563 9.57873 19.7796 9.37806C19.9035 9.53151 20.1806 9.70857 20.5343 9.85613ZM21.8964 9.47839C22.0732 9.57873 22.2265 9.70857 22.3504 9.85613H21.3657C21.3126 9.80301 21.2419 9.7794 21.1652 9.73218C21.5662 9.63185 21.7195 9.55512 21.8964 9.47839ZM22.7041 9.04754C22.7041 9.2246 22.5803 9.44888 22.4506 9.60234C22.3504 9.47839 22.2206 9.40166 22.0968 9.34855L22.7041 9.04754ZM23.0048 9.17148C23.2348 9.29543 23.4824 9.54922 23.6593 9.82662H22.598C22.7985 9.57283 22.9518 9.34855 22.9989 9.17148M24.243 8.53996C24.19 8.79375 24.0426 9.14787 23.8421 9.502C23.7183 9.27182 23.4412 9.02393 23.0874 8.92359C23.3409 8.74653 23.8185 8.59308 24.2489 8.54586M24.7678 8.29207L24.9977 8.79965V10.771L24.697 10.4936C24.7206 10.3165 24.7501 10.163 24.8503 9.98597L24.927 9.86203H23.8421C24.2194 9.48429 24.5496 8.87638 24.7737 8.29797M28.4529 6.79884C28.4529 6.9523 28.3763 7.45397 28.2229 7.86122C27.9694 7.28281 27.4388 6.62178 27.085 6.04337C27.0614 6.01976 26.9612 5.81319 26.9081 5.81319C26.855 5.81319 26.8315 5.88992 26.8315 5.91353C26.8315 5.93714 26.8315 5.99025 26.855 6.01386C27.0083 6.54505 26.9081 7.07624 26.5013 7.83171C26.2477 7.63104 25.9234 7.22379 25.7701 6.6926C25.7171 6.53915 25.6463 6.36209 25.5933 6.3916C25.5402 6.3916 25.5697 6.54505 25.5697 6.59227C25.5461 7.07034 25.4694 7.40085 24.815 7.93204C24.868 7.5307 24.8385 6.82245 24.7147 6.3916C25.1451 6.01386 25.8999 5.50628 26.7607 4.97509C27.5449 5.30561 28.0461 6.08469 28.4529 6.79294M28.8303 8.79375L28.2996 8.33929C28.4765 7.8081 28.6003 7.48348 28.6298 7.22969C28.8067 7.56021 28.8303 8.11501 28.8303 8.79375ZM28.8303 10.4876L28.2996 10.9421V8.84687L28.8303 9.57873V10.4876ZM28.8303 12.0517V19.8071L28.3527 20.7396C28.276 20.8635 28.1227 20.893 28.052 21.017C27.9989 21.0937 27.9989 21.1704 28.0284 21.2472C27.9046 21.2708 27.7984 21.3239 27.7513 21.4478C27.6982 21.5482 27.6982 21.6485 27.7277 21.7488C27.651 21.7725 27.5744 21.8256 27.5508 21.9023V11.0188L28.1817 11.7743L28.8362 11.0188V12.0517H28.8303ZM29.5378 18.969C29.6144 18.8155 29.6616 18.668 29.638 18.5676C29.6616 18.5145 29.7619 18.544 29.868 18.5912C29.9682 18.6443 30.0449 18.7152 30.0213 18.7683C29.9446 18.7919 29.8208 18.9217 29.7442 19.0693L28.7595 20.9639C28.7359 21.017 28.7359 21.0406 28.7359 21.0878C28.6593 21.0111 28.5826 20.9639 28.4588 20.9344C28.4824 20.9107 28.5354 20.8812 28.559 20.834L29.5437 18.9631L29.5378 18.969ZM24.1369 10.4109V20.7927C24.1369 20.9462 24.1133 21.1232 24.0603 21.2708C23.7065 22.3568 22.1204 23.0414 21.1593 23.4427C20.5284 23.7201 19.874 23.9739 19.2667 24.2749C18.7891 24.5287 18.3056 24.7825 18.058 25.2842C17.7808 24.8061 17.3268 24.5287 16.8492 24.2749C16.2419 23.9444 15.5875 23.6965 14.9566 23.4427C13.9955 23.0414 12.4094 22.3332 12.0556 21.2708C12.0026 21.1173 11.979 20.9698 11.979 20.7927V10.4109H24.1369ZM19.5733 12.7363L18.9188 12.3586L19.1193 11.6504L18.4117 11.851L18.058 11.1959L17.6806 11.851L16.9731 11.6504L17.1735 12.3822L16.5426 12.7363L17.1971 13.1141L16.9966 13.8223L17.7042 13.6217L18.058 14.2768L18.4353 13.6217L19.1428 13.8223L18.9424 13.0905L19.5733 12.7363ZM18.6653 12.459L19.1428 12.7363L18.6888 12.9901L18.8421 13.5213L18.3351 13.3679L18.058 13.8459L17.8044 13.3915L17.2738 13.5449L17.4271 13.0374L16.9495 12.76L17.4035 12.5062L17.2502 11.975L17.7572 12.1284L18.0344 11.6504L18.2879 12.1048L18.8186 11.9514L18.6653 12.459ZM13.795 15.8172C13.2879 16.3484 12.6099 16.7498 11.9554 17.0567C12.6099 17.3341 13.2938 17.7649 13.795 18.2961C14.3021 17.7649 14.933 17.3636 15.5875 17.0567C14.933 16.7557 14.3021 16.3484 13.795 15.8172ZM13.795 16.2717H13.8186C14.1724 16.6022 14.5497 16.8029 14.9566 17.0272L14.9801 17.0508L14.9566 17.0744C14.5556 17.3046 14.1488 17.5052 13.8186 17.8299L13.795 17.8535L13.7714 17.8299C13.4177 17.4993 13.0403 17.2987 12.6335 17.0744L12.6099 17.0508L12.6335 17.0272C13.0639 16.797 13.4412 16.5963 13.795 16.2717ZM14.1252 19.3526C13.6948 19.3526 13.3941 19.7303 13.5179 20.1081C13.2172 19.8779 12.7632 20.0313 12.6335 20.4622C12.5038 20.893 12.7573 21.2708 13.1641 21.2708C12.8339 21.501 12.8634 21.979 13.2172 22.2328C13.571 22.4866 14.025 22.3568 14.1488 21.979C14.2726 22.3568 14.703 22.4866 15.0804 22.2328C15.4342 21.979 15.4577 21.501 15.1334 21.2708C15.5108 21.2708 15.7879 20.893 15.6641 20.4622C15.5403 20.0313 15.0863 19.8838 14.7797 20.1081C14.8563 19.7303 14.5792 19.3526 14.1252 19.3526ZM14.7561 21.0937C14.7797 20.9934 14.7797 20.8635 14.7325 20.7632C14.7089 20.6629 14.6323 20.5625 14.5556 20.4858C14.8092 20.1081 15.2101 20.0549 15.387 20.5625C15.5403 21.017 15.1865 21.2472 14.7561 21.0937ZM14.2019 21.5718C14.3021 21.5718 14.4318 21.5187 14.5026 21.4478C14.6028 21.3711 14.6794 21.2944 14.703 21.194C15.1334 21.318 15.3103 21.7016 14.8799 22.0026C14.479 22.3036 14.1724 22.0262 14.196 21.5718M13.6712 21.0937C13.5945 20.8399 13.7243 20.5625 13.9719 20.4622C14.2019 20.3855 14.4495 20.4858 14.5792 20.716C14.5792 20.7396 14.6028 20.7691 14.6028 20.7927C14.6794 21.0465 14.5497 21.3239 14.3021 21.4242C14.025 21.501 13.7478 21.3475 13.6712 21.0937ZM13.5415 21.194C13.5945 21.2944 13.6653 21.3947 13.742 21.4478C13.8422 21.5246 13.9424 21.5482 14.0427 21.5718C14.0662 22.0262 13.742 22.3036 13.3351 22.0026C12.9578 21.7016 13.1052 21.318 13.5356 21.194M13.7184 20.4622C13.6417 20.5389 13.5651 20.6393 13.5415 20.7396C13.5179 20.8635 13.4884 20.9698 13.5179 21.0701C13.0875 21.2236 12.7337 21.017 12.887 20.5153C13.0639 20.0372 13.4648 20.0845 13.7184 20.4622ZM14.1252 19.63C14.6323 19.63 14.7325 20.0313 14.4554 20.3855C14.3552 20.3323 14.2549 20.2851 14.1252 20.2851C13.9955 20.2851 13.8953 20.3087 13.795 20.3855C13.5179 20.0313 13.6181 19.63 14.1252 19.63ZM16.295 18.4673L15.7408 19.0221L16.295 19.5769L16.8492 19.0221L16.295 18.4673ZM16.0415 19.0221L16.295 18.7683L16.5485 19.0221L16.295 19.2759L16.0415 19.0221ZM16.749 19.7008C16.4188 19.7008 16.0945 19.6772 15.7643 19.6477C15.9176 20.3323 16.0945 21.0111 16.2419 21.6957C16.2655 21.8492 16.3186 21.9967 16.295 22.1738C16.5957 22.0499 16.9023 21.619 16.8492 21.1114L16.749 19.6949V19.7008ZM16.6488 21.1409C16.6723 21.318 16.6252 21.5954 16.4955 21.7725C16.4955 21.7961 16.4719 21.7961 16.4424 21.7961C16.4129 21.7961 16.4188 21.7725 16.4188 21.7725C16.4188 21.6957 16.3952 21.5954 16.3657 21.4951C16.2655 20.9639 16.1122 20.4091 15.9884 19.8779C16.1653 19.8779 16.3422 19.9015 16.519 19.9015L16.6429 21.1409H16.6488ZM19.874 21.7016C20.0273 21.017 20.2042 20.3382 20.3516 19.6536C20.0214 19.6536 19.6971 19.6772 19.3669 19.7067L19.2667 21.1468C19.2136 21.6544 19.5202 22.0558 19.8209 22.2092C19.7973 22.0085 19.8209 21.8551 19.874 21.7016ZM20.0803 19.8779C19.9565 20.3855 19.8268 20.9639 19.703 21.4951C19.6794 21.5954 19.6794 21.6957 19.6499 21.7725C19.6499 21.7961 19.6263 21.7961 19.6263 21.7961C19.6263 21.7961 19.6086 21.7882 19.5733 21.7725C19.4494 21.5954 19.42 21.3416 19.42 21.1409L19.5202 19.8779H20.0744M19.8032 19.5769L20.3575 19.0221L19.8032 18.4673L19.249 19.0221L19.8032 19.5769ZM20.0803 19.0221L19.8268 19.2759L19.5733 19.0221L19.8268 18.7683L20.0803 19.0221ZM20.7112 20.2615C20.2572 21.1468 20.7112 22.1797 22.0202 22.6342C21.3362 21.2472 22.0202 20.0845 23.3291 20.1317C22.6747 19.5001 21.236 19.2227 20.7053 20.2556M20.9589 20.4858C21.236 19.9546 21.8433 19.63 22.6982 19.9782C22.2206 20.1317 21.8669 20.4327 21.6664 20.834C21.4895 21.2354 21.4659 21.7429 21.5898 22.221C20.8822 21.7134 20.6817 20.9816 20.9589 20.4799M22.3209 18.2902C22.828 17.759 23.506 17.3577 24.1605 17.0508C23.506 16.7498 22.8221 16.3425 22.3209 15.8113C21.8138 16.3425 21.1829 16.7439 20.5284 17.0508C21.1593 17.3282 21.7902 17.759 22.3209 18.2902ZM22.3209 17.8358H22.2973C21.9435 17.5052 21.5662 17.3046 21.1593 17.0803L21.1358 17.0567L21.1593 17.0331C21.5603 16.8029 21.9671 16.6022 22.2973 16.2776L22.3209 16.254L22.3445 16.2776C22.6982 16.6081 23.0756 16.8088 23.4824 17.0331L23.506 17.0567L23.4824 17.0803C23.052 17.3105 22.6747 17.4816 22.3209 17.8358ZM20.9117 17.8358L20.5108 17.0508L20.3869 16.797C22.1558 15.9117 23.111 14.0702 22.0025 12.4294C21.4482 11.5972 20.7407 11.19 19.8858 10.7355C20.1629 11.1369 20.4636 11.5677 20.7171 11.9986C21.3716 13.061 21.4718 14.324 20.2631 15.1562C19.9329 15.3864 19.7089 15.2329 19.4082 15.6343C19.2844 15.7877 19.0308 15.7346 18.9306 15.5812C18.8068 15.3805 18.5002 15.3805 18.3528 15.528C18.2997 15.5812 18.1228 15.7287 18.0521 15.7287C17.9813 15.7287 17.7985 15.5753 17.7513 15.528C17.598 15.3746 17.2973 15.3746 17.1735 15.5812C17.0733 15.7346 16.8198 15.7818 16.6959 15.6343C16.3952 15.2329 16.1653 15.3805 15.841 15.1562C14.6028 14.324 14.7325 13.061 15.387 11.9986C15.6641 11.5677 15.9412 11.1664 16.2183 10.7355C15.387 11.19 14.6559 11.5913 14.1016 12.4294C12.9931 14.0938 13.9778 15.9117 15.7172 16.797L15.5934 17.0508L15.1924 17.8358L15.4695 17.8889C16.3009 18.0423 17.032 18.5204 17.032 19.4293C17.0556 20.1376 17.0851 20.8694 17.0851 21.5777C17.0851 21.8079 17.0084 21.9554 16.8315 22.1089C16.6016 22.3095 16.3775 22.4866 16.1476 22.6873C15.9471 22.8407 15.9707 23.1653 16.0474 23.3719C16.124 23.549 16.3481 23.549 16.5249 23.6021C16.7785 23.6788 16.979 23.8028 17.1558 23.9562C17.3858 24.1569 17.7631 24.2572 18.0403 24.2572C18.341 24.2572 18.6947 24.1569 18.9247 23.9562C19.1016 23.7792 19.3256 23.6552 19.5556 23.6021C19.7089 23.549 19.9329 23.549 20.0332 23.3719C20.1334 23.1712 20.1334 22.8407 19.9329 22.6873C19.703 22.4866 19.4789 22.3095 19.249 22.1089C19.0721 21.9554 18.9954 21.8079 18.9954 21.5777C19.019 20.8694 19.0485 20.1376 19.0485 19.4293C19.0721 18.4968 19.7796 18.0423 20.611 17.8889L20.9412 17.8358H20.9117ZM20.5815 17.6587C19.6499 17.8358 18.8657 18.3906 18.8421 19.4293C18.8186 20.1376 18.7891 20.8694 18.7891 21.5777C18.7891 21.8787 18.8893 22.0853 19.1193 22.2859C19.3492 22.4866 19.5733 22.6637 19.8268 22.8643C19.927 22.9647 19.9035 23.1653 19.8504 23.2952C19.8268 23.3483 19.5968 23.3719 19.5202 23.3955C19.2431 23.4723 19.0131 23.5726 18.7891 23.7733C18.6122 23.9267 18.282 24.0271 18.058 24.0271C17.8044 24.0271 17.5037 23.9267 17.3268 23.7733C17.0969 23.5726 16.8728 23.4723 16.5957 23.3955C16.5426 23.3719 16.295 23.3424 16.2655 23.2952C16.2124 23.1949 16.1889 22.9647 16.2891 22.8643C16.519 22.6637 16.7667 22.4866 16.9966 22.2859C17.2266 22.0853 17.3268 21.8846 17.3268 21.5777C17.3032 20.8694 17.2738 20.1376 17.2738 19.4293C17.2502 18.3965 16.466 17.8358 15.5344 17.6587L16.012 16.6967H15.9884C15.0037 16.2658 14.0721 15.41 13.8953 14.2709C13.795 13.5862 13.9719 12.9311 14.3728 12.3763C14.6735 11.9455 15.1276 11.4674 15.5816 11.2136C15.6051 11.19 15.6582 11.2372 15.6346 11.2667C15.1806 11.8746 14.6735 12.6065 14.6264 13.3856C14.5733 14.1942 15.0568 14.8257 15.6877 15.3038C15.7879 15.3805 15.8646 15.4277 15.9884 15.4572C16.065 15.4808 16.1417 15.4808 16.2183 15.5103C16.3422 15.5339 16.4188 15.6107 16.4955 15.711C16.6959 15.9884 17.1499 15.9117 17.3268 15.6343C17.3799 15.5575 17.5273 15.5575 17.5804 15.6343C17.7042 15.7346 17.8575 15.9117 18.0344 15.9117C18.2113 15.9117 18.3646 15.7582 18.4884 15.6343C18.5414 15.5812 18.6888 15.5575 18.7419 15.6343C18.9188 15.9117 19.3728 15.9648 19.5733 15.711C19.6499 15.6107 19.7266 15.5339 19.8504 15.5103C19.927 15.4867 20.0037 15.4867 20.0803 15.4572C20.1806 15.4336 20.2808 15.3805 20.381 15.3038C20.9883 14.8257 21.4659 14.2178 21.4424 13.3856C21.4188 12.8072 21.1122 12.2229 20.7879 11.7448C20.6876 11.5677 20.5579 11.4143 20.4341 11.2667C20.4105 11.2431 20.4577 11.19 20.4872 11.2136C20.9412 11.4674 21.3952 11.9455 21.6959 12.3763C22.0968 12.9311 22.2737 13.5862 22.1735 14.2709C21.9966 15.3805 21.0886 16.2422 20.0803 16.6967H20.0568L20.5874 17.6587H20.5815ZM18.7183 22.8879C18.6181 22.8879 18.5179 22.9883 18.5179 23.0886C18.5179 23.189 18.6181 23.2893 18.7183 23.2893C18.8421 23.2893 19.4259 23.189 19.4259 23.0355C19.4494 22.882 18.848 22.882 18.7183 22.882M17.5804 23.0886C17.5804 22.9883 17.4801 22.8879 17.3799 22.8879C17.2561 22.8879 16.6723 22.888 16.6723 23.0414C16.6723 23.1949 17.2797 23.2952 17.3799 23.2952C17.5037 23.2952 17.5804 23.1949 17.5804 23.0945M16.2714 3.13954C16.2478 3.06282 15.9943 3.03921 15.9176 3.06282C15.9943 3.08642 16.1181 3.16315 16.2183 3.23988C16.2419 3.23988 16.295 3.21627 16.2714 3.13954Z" fill="#070707"/>
</g>
<defs>
<clipPath id="clip0_6021_15825">
<rect width="34.9938" height="42.56" fill="white" transform="translate(0.5)"/>
</clipPath>
</defs>
</svg>
