<svg width="40" height="40" viewBox="0 0 40 40" fill="none" xmlns="http://www.w3.org/2000/svg">
<mask id="mask0_5602_18549" style="mask-type:alpha" maskUnits="userSpaceOnUse" x="0" y="0" width="41" height="40">
<path d="M20.013 40C28.7762 40 33.6569 40 36.8294 36.8275C40.0019 33.655 40.0019 28.7743 40.0019 20.0111C40.0019 11.2479 40.0019 6.36717 36.8294 3.19468C33.6347 0 28.7762 0 20.013 0C11.2499 0 6.36911 0 3.17444 3.17249C0.00195312 6.36717 0.00195312 11.2479 0.00195312 20.0111C0.00195312 28.7743 0.00195312 33.655 3.17444 36.8275C6.36911 40 11.2499 40 20.013 40Z" fill="white"/>
</mask>
<g mask="url(#mask0_5602_18549)">
<path d="M-15.2546 48.0756L-20.9975 45.8152C-19.8592 43.7531 -18.7038 41.7419 -17.5313 39.7761C-10.0809 27.307 -1.74835 16.7641 10.1358 7.41081L6.63546 17.7895C-2.64763 26.6272 -9.2101 36.4506 -15.2546 48.0756ZM-24.9191 48.0756L-30.6562 45.8662C-20.7642 27.1824 -7.67905 8.48154 14.5127 -5.5625L11.5929 3.0826C-5.56175 15.5234 -16.171 31.3916 -24.9191 48.0756Z" fill="url(#paint0_linear_5602_18549)"/>
<path fill-rule="evenodd" clip-rule="evenodd" d="M66.8407 32.9257C66.9091 32.7349 67.1143 32.5777 67.3081 32.5777C67.5019 32.5777 67.6045 32.7349 67.5418 32.9257C67.4791 33.1165 67.2682 33.2681 67.0687 33.2681C66.8692 33.2681 66.7723 33.1109 66.8407 32.9257ZM64.5037 32.9482C64.6006 32.6675 64.9141 32.4374 65.1991 32.4374C65.4841 32.4374 65.638 32.6675 65.5468 32.9482C65.4499 33.2344 65.1364 33.4589 64.8457 33.4589C64.555 33.4589 64.4067 33.2288 64.498 32.9482H64.5037ZM62.2464 32.8303C62.3718 32.4542 62.7936 32.1455 63.1698 32.1455C63.5461 32.1455 63.7627 32.4542 63.6316 32.8303C63.5062 33.2064 63.0844 33.5095 62.7025 33.5095C62.3206 33.5095 62.1153 33.2007 62.2464 32.8303ZM60.5706 33.6947C60.3312 33.6666 60.1602 33.5207 60.1089 33.313C59.9835 33.4982 59.8125 33.6554 59.6187 33.7677C59.7156 33.8631 59.7783 33.9922 59.7954 34.1381C59.9949 33.9024 60.2913 33.7284 60.5763 33.6891L60.5706 33.6947ZM66.2935 34.5367C66.3619 34.3514 66.5671 34.1943 66.7609 34.1943C66.9547 34.1943 67.0573 34.3514 66.9946 34.5367C66.9319 34.7275 66.721 34.8791 66.5272 34.8791C66.3334 34.8791 66.2308 34.7219 66.2935 34.5367ZM63.9678 34.5086C64.0648 34.2279 64.3783 33.9978 64.6633 33.9978C64.9483 33.9978 65.1079 34.2336 65.011 34.5086C64.9141 34.7949 64.6006 35.025 64.3156 35.025C64.0306 35.025 63.8709 34.7949 63.9678 34.5086ZM61.6878 34.4581C61.8132 34.082 62.235 33.7733 62.6112 33.7733C62.9874 33.7733 63.204 34.082 63.0729 34.4581C62.9418 34.8342 62.5257 35.1429 62.1438 35.1429C61.7619 35.1429 61.5567 34.8342 61.6878 34.4581ZM59.9664 35.2608C59.7498 35.2158 59.6016 35.0699 59.5617 34.8678C59.4306 35.0418 59.2539 35.1934 59.0601 35.3057C59.1684 35.4011 59.2368 35.5414 59.2596 35.693C59.442 35.4741 59.7042 35.3113 59.9664 35.2608ZM65.7064 36.2487C65.7691 36.0578 65.98 35.9006 66.1738 35.9006C66.3676 35.9006 66.4702 36.0578 66.4018 36.2487C66.3391 36.4339 66.1282 36.5911 65.9344 36.5911C65.7406 36.5911 65.638 36.4339 65.7007 36.2487H65.7064ZM63.4264 36.1252C63.5233 35.8445 63.8368 35.6144 64.1218 35.6144C64.4068 35.6144 64.5664 35.8445 64.4695 36.1252C64.3726 36.4058 64.0591 36.636 63.7741 36.636C63.4891 36.636 63.3352 36.4058 63.4264 36.1252ZM61.1463 36.0522C61.2717 35.6761 61.6935 35.3674 62.0697 35.3674C62.4459 35.3674 62.6569 35.6761 62.5315 36.0522C62.4004 36.4283 61.99 36.7314 61.608 36.7314C61.2261 36.7314 61.0209 36.4283 61.152 36.0522H61.1463ZM59.4648 36.8156C59.2425 36.7707 59.0829 36.6191 59.043 36.4171C58.9233 36.5742 58.7751 36.7145 58.6041 36.8156C58.701 36.9222 58.758 37.0569 58.7637 37.2141C58.9461 37.0064 59.2083 36.8549 59.4648 36.8156ZM65.1706 37.8203C65.2333 37.6295 65.4442 37.4779 65.638 37.4779C65.8318 37.4779 65.9401 37.6351 65.8717 37.8203C65.8033 38.0112 65.5981 38.1683 65.3986 38.1683C65.1991 38.1683 65.1022 38.0112 65.1649 37.8203H65.1706ZM62.8848 37.7137C62.9817 37.433 63.2895 37.1973 63.5802 37.1973C63.8709 37.1973 64.0248 37.433 63.9279 37.7137C63.831 37.9943 63.5175 38.2245 63.2325 38.2245C62.9475 38.2245 62.7936 37.9943 62.8905 37.7137H62.8848ZM60.6048 37.6575C60.7359 37.2815 61.152 36.9728 61.5339 36.9728C61.9158 36.9728 62.1267 37.2815 61.9956 37.6575C61.8702 38.028 61.4484 38.3367 61.0665 38.3367C60.6846 38.3367 60.4794 38.028 60.6048 37.6575ZM52.9117 38.5051L48.574 32.0837H59.214L59.1855 32.1623C59.328 32.1062 59.4705 32.0781 59.613 32.0781C59.9892 32.0781 60.24 32.2914 60.2856 32.6058C60.5079 32.3195 60.8613 32.123 61.1919 32.123C61.6308 32.123 61.8759 32.4823 61.7277 32.9145C61.5909 33.3186 61.1634 33.6554 60.7473 33.7003C61.1292 33.7452 61.3287 34.082 61.1919 34.4861C61.0608 34.8622 60.6789 35.1878 60.2913 35.2608C60.6276 35.3393 60.7929 35.6593 60.6618 36.0354C60.5307 36.4227 60.1317 36.7482 59.7384 36.8156C60.0861 36.8886 60.2628 37.2085 60.1317 37.6014C59.9835 38.0336 59.499 38.3929 59.0544 38.3929C58.7409 38.3929 58.5243 38.2076 58.4844 37.9438C58.2222 38.275 57.8061 38.5051 57.4185 38.5051C57.2817 38.5051 57.162 38.4771 57.0651 38.4265L57.0366 38.5107H52.9003L52.9117 38.5051ZM68.3693 42.468C68.432 42.2771 68.6372 42.12 68.8367 42.12C69.0362 42.12 69.1388 42.2771 69.0704 42.468C69.0077 42.6588 68.7968 42.8104 68.603 42.8104C68.4092 42.8104 68.3066 42.6532 68.375 42.468H68.3693ZM66.0266 42.4848C66.1235 42.2042 66.437 41.974 66.722 41.974C67.007 41.974 67.1666 42.2042 67.0697 42.4848C66.9728 42.7711 66.6593 43.0012 66.3743 43.0012C66.0893 43.0012 65.9297 42.7711 66.0266 42.4848ZM63.7694 42.3726C63.8948 41.9965 64.3166 41.6878 64.6928 41.6878C65.069 41.6878 65.2856 41.9965 65.1602 42.3726C65.0291 42.743 64.613 43.0517 64.2311 43.0517C63.8492 43.0517 63.644 42.743 63.7694 42.3726ZM62.0936 43.237C61.8542 43.2145 61.6889 43.063 61.6319 42.8609C61.5065 43.0461 61.3298 43.2033 61.136 43.3156C61.2329 43.411 61.2956 43.5401 61.3127 43.686C61.5122 43.4503 61.8086 43.2763 62.0879 43.237H62.0936ZM67.8164 44.0733C67.8791 43.8825 68.0843 43.7309 68.2838 43.7309C68.4833 43.7309 68.5802 43.8881 68.5175 44.0733C68.4548 44.2642 68.2382 44.4213 68.0444 44.4213C67.8506 44.4213 67.748 44.2642 67.8164 44.0733ZM65.4965 44.0453C65.5934 43.7646 65.9069 43.5289 66.1919 43.5289C66.4769 43.5289 66.6365 43.7646 66.5396 44.0453C66.4427 44.3259 66.1292 44.5561 65.8442 44.5561C65.5592 44.5561 65.3996 44.3259 65.4965 44.0453ZM63.2165 44.0004C63.3419 43.6299 63.7637 43.3156 64.1399 43.3156C64.5161 43.3156 64.727 43.6243 64.6016 44.0004C64.4705 44.3764 64.0544 44.6851 63.6725 44.6851C63.2906 44.6851 63.0854 44.382 63.2165 44.0004ZM61.4951 44.7974C61.2785 44.7525 61.1303 44.601 61.0847 44.4101C60.9593 44.5841 60.7826 44.7357 60.5831 44.8423C60.6914 44.9377 60.7598 45.0781 60.7826 45.2352C60.965 45.0163 61.2272 44.8535 61.4894 44.7974H61.4951ZM67.235 45.7853C67.2977 45.5945 67.5086 45.4373 67.7024 45.4373C67.8962 45.4373 67.9988 45.5945 67.9361 45.7853C67.8734 45.9762 67.6625 46.1277 67.4687 46.1277C67.2749 46.1277 67.1723 45.9705 67.235 45.7853ZM64.9493 45.6618C65.0462 45.3812 65.3597 45.1454 65.6447 45.1454C65.9297 45.1454 66.0836 45.3756 65.9924 45.6618C65.8955 45.9425 65.5877 46.1726 65.297 46.1726C65.0063 46.1726 64.8581 45.9369 64.955 45.6618H64.9493ZM62.6693 45.5889C62.8004 45.2128 63.2165 44.9041 63.5927 44.9041C63.9689 44.9041 64.1855 45.2128 64.0544 45.5889C63.929 45.9649 63.5072 46.268 63.131 46.268C62.7548 46.268 62.5382 45.9649 62.6693 45.5889ZM60.9821 46.3579C60.7598 46.313 60.6059 46.1614 60.5603 45.9593C60.4406 46.1165 60.2924 46.2568 60.1271 46.3579C60.224 46.4645 60.281 46.5992 60.2867 46.7564C60.4748 46.5487 60.7313 46.3971 60.9878 46.3579H60.9821ZM66.6935 47.3626C66.7619 47.1718 66.9728 47.0202 67.1609 47.0202C67.349 47.0202 67.463 47.1718 67.4003 47.3626C67.3376 47.5534 67.121 47.705 66.9272 47.705C66.7334 47.705 66.6308 47.5534 66.6935 47.3626ZM64.4078 47.2503C64.5047 46.9697 64.8125 46.7395 65.1032 46.7395C65.3939 46.7395 65.5421 46.9697 65.4509 47.2503C65.354 47.5366 65.0405 47.7667 64.7555 47.7667C64.4705 47.7667 64.3109 47.5366 64.4135 47.2503H64.4078ZM62.1278 47.1942C62.2532 46.8181 62.675 46.5094 63.0569 46.5094C63.4388 46.5094 63.644 46.8181 63.5129 47.1942C63.3875 47.5647 62.9657 47.8734 62.5895 47.8734C62.2133 47.8734 62.0024 47.5647 62.1278 47.1942ZM58.9871 48.0755L34.8361 47.9744L30.5098 41.6765L60.8453 41.6541C60.9422 41.626 61.0448 41.6092 61.1474 41.6092C61.5236 41.6092 61.7744 41.8225 61.8257 42.1368C62.048 41.8561 62.4014 41.6541 62.732 41.6541C63.1709 41.6541 63.416 42.0133 63.2678 42.4455C63.131 42.8497 62.7035 43.1865 62.2874 43.2314C62.6693 43.2819 62.8688 43.6131 62.7263 44.0172C62.5952 44.3933 62.2133 44.7132 61.8257 44.7918C62.162 44.8704 62.333 45.1903 62.2019 45.5664C62.0651 45.9593 61.6718 46.2849 61.2728 46.3522C61.6205 46.4196 61.7972 46.7452 61.6661 47.1325C61.5179 47.5647 61.0334 47.9183 60.5945 47.9183C60.281 47.9183 60.0644 47.7331 60.0245 47.4692C59.7737 47.7836 59.3747 48.0137 59.0042 48.0306L58.9928 48.0755H58.9871Z" fill="url(#paint1_linear_5602_18549)"/>
<path d="M17.9743 18.4463L25.0446 -2.39215L30.5099 0.5616L27.0623 10.7263C23.9143 13.1094 20.8793 15.6772 17.9743 18.4463ZM2.2793 37.724L17.2904 -6.50391L22.7557 -3.55016L13.758 22.9553C9.6492 27.4139 5.81731 32.3256 2.2793 37.724Z" fill="url(#paint2_linear_5602_18549)"/>
<path fill-rule="evenodd" clip-rule="evenodd" d="M15.1806 48.0251L9.14668 46.5781C15.5912 34.105 25.2524 23.7575 37.7765 15.6309L34.7367 24.5259C26.3132 31.0877 19.8116 38.9227 15.1749 48.0251H15.1806ZM5.50237 48.0756L-0.542969 46.6286C7.34449 31.1718 21.4199 15.2215 40.0977 4.76183C40.1547 4.72818 40.2118 4.70013 40.2688 4.67209C40.7079 4.43093 41.244 4.13929 41.8029 3.84766L39.0996 11.7555C23.7296 21.2001 12.1579 34.8285 5.50237 48.0756Z" fill="url(#paint3_linear_5602_18549)"/>
<path d="M42.8048 30.7888L50.661 7.26764L55.9173 10.9716L49.2986 30.7945H42.7992L42.8048 30.7888ZM30.5098 40.541L43.4009 1.96484L48.6572 5.66883L37.0092 40.5467H30.5154L30.5098 40.541Z" fill="url(#paint4_linear_5602_18549)"/>
</g>
<defs>
<linearGradient id="paint0_linear_5602_18549" x1="-29.3018" y1="1.21083" x2="13.593" y2="31.3189" gradientUnits="userSpaceOnUse">
<stop stop-color="#1AA4C9"/>
<stop offset="1" stop-color="#1CA7C1"/>
</linearGradient>
<linearGradient id="paint1_linear_5602_18549" x1="69.2798" y1="42.6697" x2="175.785" y2="41.6126" gradientUnits="userSpaceOnUse">
<stop stop-color="#0084F0"/>
<stop offset="1" stop-color="#24478C"/>
</linearGradient>
<linearGradient id="paint2_linear_5602_18549" x1="23.2404" y1="37.8454" x2="14.9225" y2="5.91022" gradientUnits="userSpaceOnUse">
<stop stop-color="#1CA9BD"/>
<stop offset="1" stop-color="#1FB0AC"/>
</linearGradient>
<linearGradient id="paint3_linear_5602_18549" x1="3.24399" y1="5.64065" x2="45.7231" y2="44.0386" gradientUnits="userSpaceOnUse">
<stop stop-color="#1FAFB0"/>
<stop offset="1" stop-color="#20B2A9"/>
</linearGradient>
<linearGradient id="paint4_linear_5602_18549" x1="48.2897" y1="41.6473" x2="40.761" y2="4.85347" gradientUnits="userSpaceOnUse">
<stop stop-color="#1EB8A2"/>
<stop offset="1" stop-color="#1DBC9D"/>
</linearGradient>
</defs>
</svg>
