<svg xmlns="http://www.w3.org/2000/svg" width="24" height="24" viewBox="0 0 24 24" fill="none">
  <path d="M12.0066 24C17.2645 24 20.193 24 22.0965 22.0965C24 20.193 24 17.2646 24 12.0067C24 6.74875 24 3.8203 22.0965 1.91681C20.1797 0 17.2645 0 12.0066 0C6.74874 0 3.82029 0 1.90349 1.90349C0 3.8203 0 6.74875 0 12.0067C0 17.2646 0 20.193 1.90349 22.0965C3.82029 24 6.74874 24 12.0066 24Z" fill="#F5F5F5"/>
  <mask id="mask0_9164_791" style="mask-type:alpha" maskUnits="userSpaceOnUse" x="0" y="0" width="25" height="24">
    <path d="M12.0076 24C17.2655 24 20.1939 24 22.0974 22.0965C24.0009 20.193 24.0009 17.2646 24.0009 12.0067C24.0009 6.74875 24.0009 3.8203 22.0974 1.91681C20.1806 0 17.2655 0 12.0076 0C6.74971 0 3.82127 0 1.90447 1.90349C0.000976562 3.8203 0.000976562 6.74875 0.000976562 12.0067C0.000976562 17.2646 0.000976562 20.193 1.90447 22.0965C3.82127 24 6.74971 24 12.0076 24Z" fill="white"/>
  </mask>
  <g mask="url(#mask0_9164_791)">
    <path d="M-9.15271 28.8452L-12.5984 27.489C-11.9154 26.2517 -11.2222 25.045 -10.5187 23.8655C-6.04848 16.3841 -1.04893 10.0583 6.08157 4.44634L3.98135 10.6735C-1.5885 15.9762 -5.52599 21.8702 -9.15271 28.8452ZM-14.9514 28.8452L-18.3937 27.5196C-12.4584 16.3093 -4.60736 5.08878 8.7077 -3.33765L6.95581 1.84941C-3.33698 9.31388 -9.70252 18.8348 -14.9514 28.8452Z" fill="url(#paint0_linear_9164_791)"/>
    <path fill-rule="evenodd" clip-rule="evenodd" d="M40.1046 19.7553C40.1456 19.6407 40.2687 19.5464 40.385 19.5464C40.5013 19.5464 40.5629 19.6407 40.5252 19.7553C40.4876 19.8698 40.3611 19.9607 40.2414 19.9607C40.1217 19.9607 40.0635 19.8664 40.1046 19.7553ZM38.7024 19.7687C38.7605 19.6003 38.9486 19.4622 39.1196 19.4622C39.2906 19.4622 39.3829 19.6003 39.3282 19.7687C39.2701 19.9405 39.082 20.0752 38.9076 20.0752C38.7331 20.0752 38.6442 19.9371 38.6989 19.7687H38.7024ZM37.348 19.698C37.4233 19.4724 37.6764 19.2871 37.9021 19.2871C38.1278 19.2871 38.2578 19.4724 38.1791 19.698C38.1039 19.9236 37.8508 20.1055 37.6216 20.1055C37.3925 20.1055 37.2694 19.9203 37.348 19.698ZM36.3426 20.2166C36.1989 20.1998 36.0963 20.1122 36.0655 19.9876C35.9903 20.0988 35.8877 20.1931 35.7714 20.2604C35.8296 20.3177 35.8672 20.3951 35.8774 20.4827C35.9971 20.3413 36.175 20.2369 36.346 20.2133L36.3426 20.2166ZM39.7762 20.7218C39.8173 20.6107 39.9404 20.5164 40.0567 20.5164C40.173 20.5164 40.2345 20.6107 40.1969 20.7218C40.1593 20.8363 40.0328 20.9273 39.9165 20.9273C39.8002 20.9273 39.7386 20.833 39.7762 20.7218ZM38.3809 20.705C38.439 20.5366 38.6271 20.3985 38.7981 20.3985C38.9691 20.3985 39.0649 20.54 39.0067 20.705C38.9486 20.8767 38.7605 21.0148 38.5895 21.0148C38.4185 21.0148 38.3227 20.8767 38.3809 20.705ZM37.0129 20.6747C37.0881 20.449 37.3412 20.2638 37.5669 20.2638C37.7926 20.2638 37.9226 20.449 37.8439 20.6747C37.7653 20.9003 37.5156 21.0856 37.2865 21.0856C37.0573 21.0856 36.9342 20.9003 37.0129 20.6747ZM35.98 21.1563C35.8501 21.1293 35.7612 21.0418 35.7372 20.9205C35.6586 21.0249 35.5525 21.1159 35.4362 21.1832C35.5012 21.2405 35.5423 21.3247 35.556 21.4156C35.6654 21.2843 35.8227 21.1866 35.98 21.1563ZM39.424 21.749C39.4616 21.6345 39.5881 21.5402 39.7044 21.5402C39.8207 21.5402 39.8823 21.6345 39.8412 21.749C39.8036 21.8602 39.6771 21.9545 39.5608 21.9545C39.4445 21.9545 39.3829 21.8602 39.4206 21.749H39.424ZM38.056 21.6749C38.1141 21.5065 38.3022 21.3685 38.4732 21.3685C38.6442 21.3685 38.74 21.5065 38.6818 21.6749C38.6237 21.8433 38.4356 21.9814 38.2646 21.9814C38.0936 21.9814 38.0013 21.8433 38.056 21.6749ZM36.688 21.6312C36.7632 21.4055 37.0163 21.2203 37.242 21.2203C37.4677 21.2203 37.5943 21.4055 37.519 21.6312C37.4404 21.8568 37.1941 22.0387 36.965 22.0387C36.7359 22.0387 36.6127 21.8568 36.6914 21.6312H36.688ZM35.6791 22.0892C35.5457 22.0622 35.4499 21.9713 35.426 21.8501C35.3542 21.9444 35.2652 22.0286 35.1626 22.0892C35.2208 22.1532 35.255 22.234 35.2584 22.3283C35.3678 22.2037 35.5252 22.1128 35.6791 22.0892ZM39.1025 22.692C39.1401 22.5775 39.2667 22.4866 39.3829 22.4866C39.4992 22.4866 39.5642 22.5809 39.5232 22.692C39.4821 22.8065 39.359 22.9008 39.2393 22.9008C39.1196 22.9008 39.0615 22.8065 39.0991 22.692H39.1025ZM37.7311 22.628C37.7892 22.4596 37.9739 22.3182 38.1483 22.3182C38.3227 22.3182 38.4151 22.4596 38.3569 22.628C38.2988 22.7964 38.1107 22.9345 37.9397 22.9345C37.7687 22.9345 37.6764 22.7964 37.7345 22.628H37.7311ZM36.3631 22.5944C36.4417 22.3687 36.6914 22.1835 36.9205 22.1835C37.1497 22.1835 37.2762 22.3687 37.1976 22.5944C37.1223 22.8166 36.8692 23.0019 36.6401 23.0019C36.411 23.0019 36.2878 22.8166 36.3631 22.5944ZM31.7472 23.1029L29.1446 19.2501H35.5286L35.5115 19.2972C35.597 19.2635 35.6825 19.2467 35.768 19.2467C35.9937 19.2467 36.1442 19.3747 36.1715 19.5633C36.3049 19.3915 36.517 19.2736 36.7153 19.2736C36.9787 19.2736 37.1257 19.4892 37.0368 19.7485C36.9547 19.991 36.6982 20.1931 36.4486 20.22C36.6777 20.247 36.7974 20.449 36.7153 20.6915C36.6367 20.9172 36.4075 21.1125 36.175 21.1563C36.3768 21.2034 36.4759 21.3954 36.3973 21.621C36.3186 21.8534 36.0792 22.0488 35.8432 22.0892C36.0519 22.133 36.1579 22.3249 36.0792 22.5607C35.9903 22.82 35.6996 23.0355 35.4328 23.0355C35.2447 23.0355 35.1148 22.9244 35.0908 22.7661C34.9335 22.9648 34.6838 23.1029 34.4513 23.1029C34.3692 23.1029 34.2974 23.0861 34.2392 23.0558L34.2221 23.1063H31.7404L31.7472 23.1029ZM41.0218 25.4806C41.0594 25.3661 41.1825 25.2718 41.3022 25.2718C41.4219 25.2718 41.4835 25.3661 41.4424 25.4806C41.4048 25.5951 41.2783 25.6861 41.162 25.6861C41.0457 25.6861 40.9841 25.5918 41.0252 25.4806H41.0218ZM39.6161 25.4907C39.6743 25.3223 39.8624 25.1842 40.0334 25.1842C40.2044 25.1842 40.3001 25.3223 40.242 25.4907C40.1839 25.6625 39.9958 25.8006 39.8248 25.8006C39.6538 25.8006 39.558 25.6625 39.6161 25.4907ZM38.2618 25.4234C38.3371 25.1977 38.5901 25.0125 38.8159 25.0125C39.0416 25.0125 39.1715 25.1977 39.0963 25.4234C39.0176 25.6456 38.768 25.8309 38.5388 25.8309C38.3097 25.8309 38.1866 25.6456 38.2618 25.4234ZM37.2563 25.942C37.1127 25.9285 37.0135 25.8376 36.9793 25.7164C36.9041 25.8275 36.798 25.9218 36.6818 25.9892C36.7399 26.0464 36.7775 26.1239 36.7878 26.2114C36.9075 26.07 37.0853 25.9656 37.2529 25.942H37.2563ZM40.69 26.4438C40.7276 26.3293 40.8508 26.2384 40.9705 26.2384C41.0902 26.2384 41.1483 26.3327 41.1107 26.4438C41.0731 26.5583 40.9431 26.6526 40.8268 26.6526C40.7106 26.6526 40.649 26.5583 40.69 26.4438ZM39.2981 26.427C39.3562 26.2586 39.5443 26.1171 39.7153 26.1171C39.8863 26.1171 39.9821 26.2586 39.9239 26.427C39.8658 26.5954 39.6777 26.7335 39.5067 26.7335C39.3357 26.7335 39.2399 26.5954 39.2981 26.427ZM37.9301 26.4C38.0053 26.1778 38.2584 25.9892 38.4841 25.9892C38.7098 25.9892 38.8364 26.1744 38.7611 26.4C38.6825 26.6257 38.4328 26.8109 38.2037 26.8109C37.9745 26.8109 37.8514 26.6291 37.9301 26.4ZM36.8972 26.8783C36.7673 26.8513 36.6784 26.7604 36.651 26.6459C36.5758 26.7503 36.4697 26.8412 36.35 26.9052C36.415 26.9625 36.4561 27.0467 36.4697 27.141C36.5792 27.0096 36.7365 26.912 36.8938 26.8783H36.8972ZM40.3412 27.471C40.3788 27.3565 40.5053 27.2622 40.6216 27.2622C40.7379 27.2622 40.7995 27.3565 40.7618 27.471C40.7242 27.5855 40.5977 27.6765 40.4814 27.6765C40.3651 27.6765 40.3036 27.5822 40.3412 27.471ZM38.9698 27.3969C39.0279 27.2285 39.216 27.0871 39.387 27.0871C39.558 27.0871 39.6503 27.2252 39.5956 27.3969C39.5375 27.5653 39.3528 27.7034 39.1784 27.7034C39.004 27.7034 38.915 27.562 38.9732 27.3969H38.9698ZM37.6018 27.3531C37.6804 27.1275 37.9301 26.9423 38.1558 26.9423C38.3815 26.9423 38.5115 27.1275 38.4328 27.3531C38.3576 27.5788 38.1045 27.7607 37.8788 27.7607C37.6531 27.7607 37.5231 27.5788 37.6018 27.3531ZM36.5894 27.8145C36.456 27.7876 36.3637 27.6967 36.3363 27.5754C36.2645 27.6697 36.1756 27.7539 36.0764 27.8145C36.1346 27.8785 36.1688 27.9594 36.1722 28.0537C36.285 27.9291 36.4389 27.8381 36.5928 27.8145H36.5894ZM40.0163 28.4174C40.0573 28.3029 40.1839 28.212 40.2967 28.212C40.4096 28.212 40.478 28.3029 40.4404 28.4174C40.4027 28.5319 40.2728 28.6228 40.1565 28.6228C40.0402 28.6228 39.9787 28.5319 40.0163 28.4174ZM38.6449 28.35C38.703 28.1816 38.8877 28.0436 39.0621 28.0436C39.2365 28.0436 39.3254 28.1816 39.2707 28.35C39.2126 28.5218 39.0245 28.6599 38.8535 28.6599C38.6825 28.6599 38.5867 28.5218 38.6483 28.35H38.6449ZM37.2769 28.3164C37.3521 28.0907 37.6052 27.9055 37.8343 27.9055C38.0635 27.9055 38.1866 28.0907 38.1079 28.3164C38.0327 28.5386 37.7796 28.7239 37.5539 28.7239C37.3281 28.7239 37.2016 28.5386 37.2769 28.3164ZM35.3924 28.8451L20.9018 28.7845L18.306 25.0057L36.5073 24.9923C36.5655 24.9754 36.627 24.9653 36.6886 24.9653C36.9143 24.9653 37.0648 25.0933 37.0956 25.2819C37.229 25.1135 37.441 24.9923 37.6394 24.9923C37.9027 24.9923 38.0498 25.2078 37.9609 25.4671C37.8788 25.7096 37.6223 25.9117 37.3726 25.9386C37.6018 25.969 37.7215 26.1677 37.636 26.4101C37.5573 26.6358 37.3282 26.8278 37.0956 26.8749C37.2974 26.9221 37.4 27.114 37.3213 27.3397C37.2392 27.5754 37.0033 27.7708 36.7639 27.8112C36.9725 27.8516 37.0785 28.0469 36.9998 28.2793C36.9109 28.5386 36.6202 28.7508 36.3569 28.7508C36.1688 28.7508 36.0388 28.6397 36.0149 28.4814C35.8644 28.67 35.625 28.8081 35.4027 28.8182L35.3958 28.8451H35.3924Z" fill="url(#paint1_linear_9164_791)"/>
    <path d="M10.7848 11.0678L15.0271 -1.43529L18.3062 0.33696L16.2377 6.43578C14.3488 7.86567 12.5278 9.40632 10.7848 11.0678ZM1.36786 22.6344L10.3745 -3.90234L13.6537 -2.13009L8.25511 13.7732C5.7898 16.4483 3.49066 19.3954 1.36786 22.6344Z" fill="url(#paint2_linear_9164_791)"/>
    <path fill-rule="evenodd" clip-rule="evenodd" d="M9.10786 28.815L5.4875 27.9468C9.35423 20.4629 15.1509 14.2544 22.6654 9.37844L20.8415 14.7154C15.7874 18.6525 11.8864 23.3535 9.10444 28.815H9.10786ZM3.30091 28.8452L-0.326294 27.9771C4.40618 18.703 12.8514 9.13279 24.0581 2.85697C24.0923 2.83678 24.1265 2.81996 24.1608 2.80313C24.4242 2.65844 24.7459 2.48345 25.0812 2.30847L23.4593 7.05319C14.2373 12.7199 7.29426 20.897 3.30091 28.8452Z" fill="url(#paint3_linear_9164_791)"/>
    <path d="M25.6831 18.4736L30.3968 4.36088L33.5506 6.58327L29.5793 18.477H25.6797L25.6831 18.4736ZM18.306 24.3249L26.0407 1.1792L29.1945 3.40159L22.2057 24.3283H18.3094L18.306 24.3249Z" fill="url(#paint4_linear_9164_791)"/>
  </g>
  <path d="M12.0069 0.5C14.65 0.5 16.6506 0.501368 18.2315 0.734375C19.7952 0.96485 20.8873 1.41461 21.7432 2.27051C22.5915 3.11893 23.0386 4.21002 23.2676 5.77637C23.4991 7.35935 23.5001 9.36382 23.5001 12.0068C23.5001 14.6499 23.4991 16.6543 23.2676 18.2373C23.0386 19.8037 22.5916 20.8947 21.7432 21.7432C20.8948 22.5916 19.8038 23.0385 18.2374 23.2676C16.6544 23.499 14.6499 23.5 12.0069 23.5C9.36381 23.5 7.3592 23.4991 5.77448 23.2676C4.30439 23.0528 3.24994 22.6464 2.41901 21.8965L2.25592 21.7422C1.40813 20.8939 0.961445 19.8031 0.732483 18.2373C0.501025 16.6543 0.500061 14.6499 0.500061 12.0068C0.500061 9.36374 0.501009 7.35914 0.732483 5.77441C0.961333 4.20767 1.40781 3.11297 2.25592 2.25781C3.11136 1.40844 4.20654 0.961447 5.77448 0.732422C7.3592 0.500949 9.36381 0.5 12.0069 0.5Z" stroke="white"/>
  <defs>
    <linearGradient id="paint0_linear_9164_791" x1="-13.0309" y1="29.7852" x2="3.47422" y2="-0.729703" gradientUnits="userSpaceOnUse">
      <stop stop-color="#1AA2C2"/>
      <stop offset="1" stop-color="#00728D"/>
    </linearGradient>
    <linearGradient id="paint1_linear_9164_791" x1="41.568" y1="25.6017" x2="105.471" y2="24.9674" gradientUnits="userSpaceOnUse">
      <stop stop-color="#0084F0"/>
      <stop offset="1" stop-color="#24478C"/>
    </linearGradient>
    <linearGradient id="paint2_linear_9164_791" x1="14.0182" y1="-0.708861" x2="10.6333" y2="9.01776" gradientUnits="userSpaceOnUse">
      <stop stop-color="#1AA2C2"/>
      <stop offset="1" stop-color="#00728D"/>
    </linearGradient>
    <linearGradient id="paint3_linear_9164_791" x1="4.76717" y1="29.3764" x2="20.7442" y2="4.33107" gradientUnits="userSpaceOnUse">
      <stop stop-color="#1AA2C2"/>
      <stop offset="1" stop-color="#00728D"/>
    </linearGradient>
    <linearGradient id="paint4_linear_9164_791" x1="29.7114" y1="3.87206" x2="24.5621" y2="19.537" gradientUnits="userSpaceOnUse">
      <stop stop-color="#1AA2C2"/>
      <stop offset="1" stop-color="#00728D"/>
    </linearGradient>
  </defs>
</svg>