<svg xmlns="http://www.w3.org/2000/svg" width="24" height="24" viewBox="0 0 24 24" fill="none">
  <path d="M12.0066 24C17.2645 24 20.193 24 22.0965 22.0965C24 20.193 24 17.2646 24 12.0067C24 6.74875 24 3.8203 22.0965 1.91681C20.1797 0 17.2645 0 12.0066 0C6.74874 0 3.82029 0 1.90349 1.90349C0 3.8203 0 6.74875 0 12.0067C0 17.2646 0 20.193 1.90349 22.0965C3.82029 24 6.74874 24 12.0066 24Z" fill="#F5F5F5"/>
  <mask id="mask0_9164_3520" style="mask-type:alpha" maskUnits="userSpaceOnUse" x="0" y="0" width="25" height="24">
    <path d="M12.0076 24C17.2655 24 20.194 24 22.0975 22.0965C24.0009 20.193 24.0009 17.2646 24.0009 12.0067C24.0009 6.74875 24.0009 3.8203 22.0975 1.91681C20.1807 0 17.2655 0 12.0076 0C6.74973 0 3.82128 0 1.90448 1.90349C0.000991821 3.8203 0.000991821 6.74875 0.000991821 12.0067C0.000991821 17.2646 0.000991821 20.193 1.90448 22.0965C3.82128 24 6.74973 24 12.0076 24Z" fill="white"/>
  </mask>
  <g mask="url(#mask0_9164_3520)">
    <path d="M-9.15266 28.8454L-12.5984 27.4891C-11.9154 26.2518 -11.2221 25.0451 -10.5187 23.8656C-6.04844 16.3842 -1.04889 10.0584 6.08161 4.44646L3.98139 10.6737C-1.58846 15.9763 -5.52594 21.8704 -9.15266 28.8454ZM-14.9513 28.8454L-18.3936 27.5197C-12.4584 16.3094 -4.60731 5.0889 8.70774 -3.33752L6.95585 1.84954C-3.33693 9.31401 -9.70248 18.8349 -14.9513 28.8454Z" fill="url(#paint0_linear_9164_3520)"/>
    <path fill-rule="evenodd" clip-rule="evenodd" d="M40.1046 19.7555C40.1456 19.641 40.2687 19.5467 40.385 19.5467C40.5013 19.5467 40.5629 19.641 40.5252 19.7555C40.4876 19.87 40.3611 19.9609 40.2414 19.9609C40.1217 19.9609 40.0635 19.8666 40.1046 19.7555ZM38.7024 19.769C38.7605 19.6006 38.9486 19.4625 39.1196 19.4625C39.2906 19.4625 39.383 19.6006 39.3282 19.769C39.2701 19.9407 39.082 20.0754 38.9076 20.0754C38.7332 20.0754 38.6442 19.9374 38.699 19.769H38.7024ZM37.3481 19.6982C37.4233 19.4726 37.6764 19.2874 37.9021 19.2874C38.1278 19.2874 38.2578 19.4726 38.1791 19.6982C38.1039 19.9239 37.8508 20.1058 37.6217 20.1058C37.3925 20.1058 37.2694 19.9205 37.3481 19.6982ZM36.3426 20.2169C36.1989 20.2001 36.0963 20.1125 36.0655 19.9879C35.9903 20.099 35.8877 20.1933 35.7714 20.2607C35.8296 20.3179 35.8672 20.3954 35.8774 20.483C35.9971 20.3415 36.175 20.2371 36.346 20.2135L36.3426 20.2169ZM39.7763 20.7221C39.8173 20.6109 39.9404 20.5166 40.0567 20.5166C40.173 20.5166 40.2345 20.6109 40.1969 20.7221C40.1593 20.8366 40.0328 20.9275 39.9165 20.9275C39.8002 20.9275 39.7386 20.8332 39.7763 20.7221ZM38.3809 20.7052C38.439 20.5368 38.6271 20.3988 38.7981 20.3988C38.9691 20.3988 39.0649 20.5402 39.0068 20.7052C38.9486 20.877 38.7605 21.0151 38.5895 21.0151C38.4185 21.0151 38.3228 20.877 38.3809 20.7052ZM37.0129 20.6749C37.0881 20.4493 37.3412 20.264 37.5669 20.264C37.7927 20.264 37.9226 20.4493 37.844 20.6749C37.7653 20.9006 37.5156 21.0858 37.2865 21.0858C37.0574 21.0858 36.9342 20.9006 37.0129 20.6749ZM35.98 21.1565C35.8501 21.1296 35.7612 21.042 35.7372 20.9208C35.6586 21.0252 35.5525 21.1161 35.4363 21.1835C35.5012 21.2407 35.5423 21.3249 35.556 21.4159C35.6654 21.2845 35.8227 21.1868 35.98 21.1565ZM39.424 21.7493C39.4616 21.6348 39.5882 21.5405 39.7044 21.5405C39.8207 21.5405 39.8823 21.6348 39.8412 21.7493C39.8036 21.8604 39.6771 21.9547 39.5608 21.9547C39.4445 21.9547 39.383 21.8604 39.4206 21.7493H39.424ZM38.056 21.6752C38.1141 21.5068 38.3022 21.3687 38.4732 21.3687C38.6442 21.3687 38.74 21.5068 38.6819 21.6752C38.6237 21.8436 38.4356 21.9817 38.2646 21.9817C38.0936 21.9817 38.0013 21.8436 38.056 21.6752ZM36.688 21.6314C36.7632 21.4057 37.0163 21.2205 37.242 21.2205C37.4678 21.2205 37.5943 21.4057 37.5191 21.6314C37.4404 21.857 37.1942 22.0389 36.965 22.0389C36.7359 22.0389 36.6127 21.857 36.6914 21.6314H36.688ZM35.6791 22.0894C35.5457 22.0625 35.4499 21.9715 35.426 21.8503C35.3542 21.9446 35.2653 22.0288 35.1627 22.0894C35.2208 22.1534 35.255 22.2342 35.2584 22.3285C35.3679 22.2039 35.5252 22.113 35.6791 22.0894ZM39.1025 22.6923C39.1401 22.5778 39.2667 22.4868 39.383 22.4868C39.4992 22.4868 39.5642 22.5811 39.5232 22.6923C39.4821 22.8068 39.359 22.9011 39.2393 22.9011C39.1196 22.9011 39.0615 22.8068 39.0991 22.6923H39.1025ZM37.7311 22.6283C37.7892 22.4599 37.9739 22.3184 38.1483 22.3184C38.3228 22.3184 38.4151 22.4599 38.357 22.6283C38.2988 22.7967 38.1107 22.9348 37.9397 22.9348C37.7687 22.9348 37.6764 22.7967 37.7345 22.6283H37.7311ZM36.3631 22.5946C36.4417 22.369 36.6914 22.1837 36.9205 22.1837C37.1497 22.1837 37.2762 22.369 37.1976 22.5946C37.1223 22.8169 36.8693 23.0021 36.6401 23.0021C36.411 23.0021 36.2878 22.8169 36.3631 22.5946ZM31.7472 23.1032L29.1446 19.2503H35.5286L35.5115 19.2975C35.597 19.2638 35.6825 19.2469 35.768 19.2469C35.9937 19.2469 36.1442 19.3749 36.1716 19.5635C36.3049 19.3918 36.517 19.2739 36.7154 19.2739C36.9787 19.2739 37.1257 19.4894 37.0368 19.7488C36.9547 19.9912 36.6982 20.1933 36.4486 20.2203C36.6777 20.2472 36.7974 20.4493 36.7154 20.6918C36.6367 20.9174 36.4076 21.1127 36.175 21.1565C36.3768 21.2037 36.476 21.3956 36.3973 21.6213C36.3186 21.8537 36.0792 22.049 35.8432 22.0894C36.0519 22.1332 36.1579 22.3252 36.0792 22.5609C35.9903 22.8203 35.6996 23.0358 35.4328 23.0358C35.2447 23.0358 35.1148 22.9247 35.0908 22.7664C34.9335 22.9651 34.6839 23.1032 34.4513 23.1032C34.3692 23.1032 34.2974 23.0863 34.2393 23.056L34.2222 23.1065H31.7404L31.7472 23.1032ZM41.0218 25.4809C41.0594 25.3664 41.1825 25.2721 41.3022 25.2721C41.4219 25.2721 41.4835 25.3664 41.4424 25.4809C41.4048 25.5954 41.2783 25.6863 41.162 25.6863C41.0457 25.6863 40.9842 25.592 41.0252 25.4809H41.0218ZM39.6162 25.491C39.6743 25.3226 39.8624 25.1845 40.0334 25.1845C40.2044 25.1845 40.3002 25.3226 40.242 25.491C40.1839 25.6627 39.9958 25.8008 39.8248 25.8008C39.6538 25.8008 39.558 25.6627 39.6162 25.491ZM38.2618 25.4236C38.3371 25.198 38.5902 25.0127 38.8159 25.0127C39.0416 25.0127 39.1716 25.198 39.0963 25.4236C39.0177 25.6459 38.768 25.8311 38.5389 25.8311C38.3097 25.8311 38.1866 25.6459 38.2618 25.4236ZM37.2563 25.9423C37.1127 25.9288 37.0135 25.8379 36.9793 25.7166C36.9041 25.8277 36.7981 25.922 36.6818 25.9894C36.7399 26.0467 36.7775 26.1241 36.7878 26.2117C36.9075 26.0702 37.0853 25.9658 37.2529 25.9423H37.2563ZM40.69 26.4441C40.7277 26.3296 40.8508 26.2386 40.9705 26.2386C41.0902 26.2386 41.1483 26.3329 41.1107 26.4441C41.0731 26.5586 40.9431 26.6529 40.8268 26.6529C40.7106 26.6529 40.649 26.5586 40.69 26.4441ZM39.2981 26.4272C39.3562 26.2588 39.5443 26.1174 39.7153 26.1174C39.8863 26.1174 39.9821 26.2588 39.924 26.4272C39.8658 26.5956 39.6777 26.7337 39.5067 26.7337C39.3357 26.7337 39.24 26.5956 39.2981 26.4272ZM37.9301 26.4003C38.0053 26.178 38.2584 25.9894 38.4841 25.9894C38.7099 25.9894 38.8364 26.1746 38.7612 26.4003C38.6825 26.6259 38.4328 26.8112 38.2037 26.8112C37.9745 26.8112 37.8514 26.6293 37.9301 26.4003ZM36.8972 26.8785C36.7673 26.8516 36.6784 26.7606 36.651 26.6461C36.5758 26.7505 36.4697 26.8415 36.35 26.9055C36.415 26.9627 36.4561 27.0469 36.4697 27.1412C36.5792 27.0099 36.7365 26.9122 36.8938 26.8785H36.8972ZM40.3412 27.4713C40.3788 27.3568 40.5054 27.2625 40.6216 27.2625C40.7379 27.2625 40.7995 27.3568 40.7619 27.4713C40.7242 27.5858 40.5977 27.6767 40.4814 27.6767C40.3651 27.6767 40.3036 27.5824 40.3412 27.4713ZM38.9698 27.3972C39.0279 27.2288 39.216 27.0873 39.387 27.0873C39.558 27.0873 39.6504 27.2254 39.5956 27.3972C39.5375 27.5656 39.3528 27.7036 39.1784 27.7036C39.004 27.7036 38.9151 27.5622 38.9732 27.3972H38.9698ZM37.6018 27.3534C37.6804 27.1277 37.9301 26.9425 38.1558 26.9425C38.3815 26.9425 38.5115 27.1277 38.4328 27.3534C38.3576 27.579 38.1045 27.7609 37.8788 27.7609C37.6531 27.7609 37.5231 27.579 37.6018 27.3534ZM36.5894 27.8148C36.4561 27.7878 36.3637 27.6969 36.3364 27.5757C36.2645 27.67 36.1756 27.7542 36.0764 27.8148C36.1346 27.8788 36.1688 27.9596 36.1722 28.0539C36.2851 27.9293 36.439 27.8384 36.5929 27.8148H36.5894ZM40.0163 28.4176C40.0573 28.3031 40.1839 28.2122 40.2967 28.2122C40.4096 28.2122 40.478 28.3031 40.4404 28.4176C40.4028 28.5321 40.2728 28.6231 40.1565 28.6231C40.0402 28.6231 39.9787 28.5321 40.0163 28.4176ZM38.6449 28.3503C38.703 28.1819 38.8877 28.0438 39.0621 28.0438C39.2365 28.0438 39.3255 28.1819 39.2707 28.3503C39.2126 28.522 39.0245 28.6601 38.8535 28.6601C38.6825 28.6601 38.5867 28.522 38.6483 28.3503H38.6449ZM37.2769 28.3166C37.3521 28.091 37.6052 27.9057 37.8343 27.9057C38.0635 27.9057 38.1866 28.091 38.1079 28.3166C38.0327 28.5389 37.7796 28.7241 37.5539 28.7241C37.3282 28.7241 37.2016 28.5389 37.2769 28.3166ZM35.3924 28.8454L20.9018 28.7847L18.306 25.006L36.5074 24.9925C36.5655 24.9757 36.6271 24.9656 36.6886 24.9656C36.9143 24.9656 37.0648 25.0936 37.0956 25.2822C37.229 25.1138 37.441 24.9925 37.6394 24.9925C37.9027 24.9925 38.0498 25.2081 37.9609 25.4674C37.8788 25.7099 37.6223 25.9119 37.3726 25.9389C37.6018 25.9692 37.7215 26.1679 37.636 26.4104C37.5573 26.636 37.3282 26.828 37.0956 26.8752C37.2974 26.9223 37.4 27.1143 37.3213 27.3399C37.2392 27.5757 37.0033 27.771 36.7639 27.8114C36.9725 27.8518 37.0785 28.0472 36.9998 28.2796C36.9109 28.5389 36.6202 28.7511 36.3569 28.7511C36.1688 28.7511 36.0388 28.6399 36.0149 28.4816C35.8644 28.6702 35.625 28.8083 35.4027 28.8184L35.3959 28.8454H35.3924Z" fill="url(#paint1_linear_9164_3520)"/>
    <path d="M10.7849 11.0679L15.0271 -1.43517L18.3062 0.337082L16.2377 6.43591C14.3489 7.86579 12.5279 9.40644 10.7849 11.0679ZM1.36789 22.6345L10.3746 -3.90222L13.6537 -2.12997L8.25514 13.7733C5.78983 16.4485 3.49069 19.3955 1.36789 22.6345Z" fill="url(#paint2_linear_9164_3520)"/>
    <path fill-rule="evenodd" clip-rule="evenodd" d="M9.1079 28.815L5.48754 27.9468C9.35428 20.4629 15.151 14.2544 22.6654 9.37844L20.8416 14.7154C15.7874 18.6525 11.8865 23.3535 9.10448 28.815H9.1079ZM3.30096 28.8452L-0.326248 27.9771C4.40623 18.703 12.8515 9.13279 24.0581 2.85697C24.0924 2.83678 24.1266 2.81996 24.1608 2.80313C24.4243 2.65844 24.7459 2.48345 25.0813 2.30847L23.4593 7.05319C14.2373 12.7199 7.2943 20.897 3.30096 28.8452Z" fill="url(#paint3_linear_9164_3520)"/>
    <path d="M25.6831 18.4737L30.3968 4.361L33.5506 6.58339L29.5794 18.4771H25.6797L25.6831 18.4737ZM18.306 24.325L26.0407 1.17932L29.1945 3.40172L22.2057 24.3284H18.3095L18.306 24.325Z" fill="url(#paint4_linear_9164_3520)"/>
  </g>
  <path d="M12.0069 0.5C14.6501 0.5 16.6506 0.501368 18.2316 0.734375C19.7953 0.96485 20.8874 1.41461 21.7433 2.27051C22.5916 3.11893 23.0387 4.21002 23.2677 5.77637C23.4991 7.35935 23.5001 9.36382 23.5001 12.0068C23.5001 14.6499 23.4991 16.6543 23.2677 18.2373C23.0386 19.8037 22.5917 20.8947 21.7433 21.7432C20.8949 22.5916 19.8038 23.0385 18.2374 23.2676C16.6544 23.499 14.65 23.5 12.0069 23.5C9.36385 23.5 7.35924 23.4991 5.77452 23.2676C4.30443 23.0528 3.24999 22.6464 2.41905 21.8965L2.25597 21.7422C1.40817 20.8939 0.96149 19.8031 0.732529 18.2373C0.501071 16.6543 0.500107 14.6499 0.500107 12.0068C0.500107 9.36374 0.501055 7.35914 0.732529 5.77441C0.961378 4.20767 1.40786 3.11297 2.25597 2.25781C3.1114 1.40844 4.20659 0.961447 5.77452 0.732422C7.35924 0.500949 9.36385 0.5 12.0069 0.5Z" stroke="white"/>
  <defs>
    <linearGradient id="paint0_linear_9164_3520" x1="-14.3042" y1="12.211" x2="6.60213" y2="12.1047" gradientUnits="userSpaceOnUse">
      <stop stop-color="#006FC9"/>
      <stop offset="0.54" stop-color="#0A6FCB"/>
      <stop offset="1" stop-color="#003763"/>
    </linearGradient>
    <linearGradient id="paint1_linear_9164_3520" x1="41.568" y1="25.6019" x2="105.471" y2="24.9676" gradientUnits="userSpaceOnUse">
      <stop stop-color="#0084F0"/>
      <stop offset="1" stop-color="#24478C"/>
    </linearGradient>
    <linearGradient id="paint2_linear_9164_3520" x1="9.61363" y1="8.44788" x2="11.3176" y2="11.9573" gradientUnits="userSpaceOnUse">
      <stop stop-color="#007FE4"/>
      <stop offset="0.68" stop-color="#006FC9"/>
      <stop offset="1" stop-color="#006FC9"/>
    </linearGradient>
    <linearGradient id="paint3_linear_9164_3520" x1="7.78232" y1="14.0553" x2="23.5528" y2="14.2288" gradientUnits="userSpaceOnUse">
      <stop stop-color="#006FC9"/>
      <stop offset="0.45" stop-color="#0068BE"/>
      <stop offset="1" stop-color="#003763"/>
    </linearGradient>
    <linearGradient id="paint4_linear_9164_3520" x1="25.8669" y1="14.6111" x2="27.0578" y2="25.7103" gradientUnits="userSpaceOnUse">
      <stop stop-color="#0084F0"/>
      <stop offset="1" stop-color="#005AA3"/>
    </linearGradient>
  </defs>
</svg>