<svg preserveAspectRatio="none" overflow="visible" style="display: block;" width="24.0009" height="24" viewBox="0 0 24.0009 24" fill="none" xmlns="http://www.w3.org/2000/svg">
<g id="UNDA-ICO">
<path id="Vector" d="M12.0066 24C17.2645 24 20.193 24 22.0965 22.0965C24 20.193 24 17.2646 24 12.0067C24 6.74875 24 3.8203 22.0965 1.91681C20.1797 0 17.2645 0 12.0066 0C6.74874 0 3.82029 0 1.90349 1.90349C0 3.8203 0 6.74875 0 12.0067C0 17.2646 0 20.193 1.90349 22.0965C3.82029 24 6.74874 24 12.0066 24Z" fill="#F5F5F5"/>
<g id="Icon Container">
<mask id="mask0_0_38" style="mask-type:alpha" maskUnits="userSpaceOnUse" x="0" y="0" width="25" height="24">
<path id="Vector_2" d="M12.0076 24C17.2655 24 20.194 24 22.0975 22.0965C24.0009 20.193 24.0009 17.2646 24.0009 12.0067C24.0009 6.74875 24.0009 3.8203 22.0975 1.91681C20.1807 0 17.2655 0 12.0076 0C6.74973 0 3.82128 0 1.90448 1.90349C0.00099144 3.8203 0.00099144 6.74875 0.00099144 12.0067C0.00099144 17.2646 0.00099144 20.193 1.90448 22.0965C3.82128 24 6.74973 24 12.0076 24Z" fill="white"/>
</mask>
<g mask="url(#mask0_0_38)">
<g id="Icon Background">
<path id="Vector_3" d="M-9.15266 28.8453L-12.5984 27.489C-11.9154 26.2518 -11.2221 25.0451 -10.5187 23.8656C-6.04844 16.3841 -1.04889 10.0583 6.08161 4.44639L3.98139 10.6736C-1.58846 15.9762 -5.52594 21.8703 -9.15266 28.8453ZM-14.9513 28.8453L-18.3936 27.5196C-12.4584 16.3093 -4.60731 5.08883 8.70774 -3.3376L6.95585 1.84946C-3.33693 9.31393 -9.70248 18.8349 -14.9513 28.8453Z" fill="url(#paint0_linear_0_38)"/>
<path id="Vector_4" fill-rule="evenodd" clip-rule="evenodd" d="M40.1046 19.7553C40.1456 19.6408 40.2688 19.5465 40.385 19.5465C40.5013 19.5465 40.5629 19.6408 40.5253 19.7553C40.4876 19.8698 40.3611 19.9608 40.2414 19.9608C40.1217 19.9608 40.0635 19.8665 40.1046 19.7553ZM38.7024 19.7688C38.7605 19.6004 38.9486 19.4623 39.1196 19.4623C39.2906 19.4623 39.383 19.6004 39.3282 19.7688C39.2701 19.9406 39.082 20.0753 38.9076 20.0753C38.7332 20.0753 38.6442 19.9372 38.699 19.7688H38.7024ZM37.3481 19.6981C37.4233 19.4724 37.6764 19.2872 37.9021 19.2872C38.1278 19.2872 38.2578 19.4724 38.1791 19.6981C38.1039 19.9237 37.8508 20.1056 37.6217 20.1056C37.3925 20.1056 37.2694 19.9204 37.3481 19.6981ZM36.3426 20.2167C36.1989 20.1999 36.0963 20.1123 36.0655 19.9877C35.9903 20.0988 35.8877 20.1931 35.7714 20.2605C35.8296 20.3178 35.8672 20.3952 35.8774 20.4828C35.9971 20.3413 36.175 20.2369 36.346 20.2134L36.3426 20.2167ZM39.7763 20.7219C39.8173 20.6108 39.9404 20.5165 40.0567 20.5165C40.173 20.5165 40.2345 20.6108 40.1969 20.7219C40.1593 20.8364 40.0328 20.9273 39.9165 20.9273C39.8002 20.9273 39.7386 20.833 39.7763 20.7219ZM38.3809 20.7051C38.439 20.5367 38.6271 20.3986 38.7981 20.3986C38.9691 20.3986 39.0649 20.54 39.0068 20.7051C38.9486 20.8768 38.7605 21.0149 38.5895 21.0149C38.4185 21.0149 38.3228 20.8768 38.3809 20.7051ZM37.0129 20.6748C37.0881 20.4491 37.3412 20.2639 37.5669 20.2639C37.7927 20.2639 37.9226 20.4491 37.844 20.6748C37.7653 20.9004 37.5156 21.0856 37.2865 21.0856C37.0574 21.0856 36.9342 20.9004 37.0129 20.6748ZM35.9801 21.1564C35.8501 21.1294 35.7612 21.0418 35.7372 20.9206C35.6586 21.025 35.5525 21.1159 35.4363 21.1833C35.5012 21.2406 35.5423 21.3247 35.556 21.4157C35.6654 21.2843 35.8227 21.1867 35.9801 21.1564ZM39.424 21.7491C39.4616 21.6346 39.5882 21.5403 39.7044 21.5403C39.8207 21.5403 39.8823 21.6346 39.8412 21.7491C39.8036 21.8602 39.6771 21.9545 39.5608 21.9545C39.4445 21.9545 39.383 21.8602 39.4206 21.7491H39.424ZM38.056 21.675C38.1141 21.5066 38.3022 21.3685 38.4732 21.3685C38.6442 21.3685 38.74 21.5066 38.6819 21.675C38.6237 21.8434 38.4356 21.9815 38.2646 21.9815C38.0936 21.9815 38.0013 21.8434 38.056 21.675ZM36.688 21.6312C36.7632 21.4056 37.0163 21.2203 37.242 21.2203C37.4678 21.2203 37.5943 21.4056 37.5191 21.6312C37.4404 21.8569 37.1942 22.0387 36.965 22.0387C36.7359 22.0387 36.6128 21.8569 36.6914 21.6312H36.688ZM35.6791 22.0893C35.5457 22.0623 35.45 21.9714 35.426 21.8501C35.3542 21.9444 35.2653 22.0286 35.1627 22.0893C35.2208 22.1532 35.255 22.2341 35.2584 22.3284C35.3679 22.2038 35.5252 22.1128 35.6791 22.0893ZM39.1025 22.6921C39.1401 22.5776 39.2667 22.4867 39.383 22.4867C39.4992 22.4867 39.5642 22.581 39.5232 22.6921C39.4821 22.8066 39.359 22.9009 39.2393 22.9009C39.1196 22.9009 39.0615 22.8066 39.0991 22.6921H39.1025ZM37.7311 22.6281C37.7892 22.4597 37.9739 22.3183 38.1483 22.3183C38.3228 22.3183 38.4151 22.4597 38.357 22.6281C38.2988 22.7965 38.1107 22.9346 37.9397 22.9346C37.7687 22.9346 37.6764 22.7965 37.7345 22.6281H37.7311ZM36.3631 22.5944C36.4418 22.3688 36.6914 22.1836 36.9206 22.1836C37.1497 22.1836 37.2762 22.3688 37.1976 22.5944C37.1223 22.8167 36.8693 23.0019 36.6401 23.0019C36.411 23.0019 36.2878 22.8167 36.3631 22.5944ZM31.7472 23.103L29.1446 19.2501H35.5286L35.5115 19.2973C35.597 19.2636 35.6825 19.2468 35.768 19.2468C35.9937 19.2468 36.1442 19.3748 36.1716 19.5634C36.3049 19.3916 36.517 19.2737 36.7154 19.2737C36.9787 19.2737 37.1258 19.4893 37.0368 19.7486C36.9548 19.9911 36.6983 20.1931 36.4486 20.2201C36.6777 20.247 36.7974 20.4491 36.7154 20.6916C36.6367 20.9172 36.4076 21.1126 36.175 21.1564C36.3768 21.2035 36.476 21.3955 36.3973 21.6211C36.3186 21.8535 36.0792 22.0488 35.8433 22.0893C36.0519 22.133 36.1579 22.325 36.0792 22.5608C35.9903 22.8201 35.6996 23.0356 35.4328 23.0356C35.2447 23.0356 35.1148 22.9245 35.0909 22.7662C34.9335 22.9649 34.6839 23.103 34.4513 23.103C34.3692 23.103 34.2974 23.0861 34.2393 23.0558L34.2222 23.1063H31.7404L31.7472 23.103ZM41.0218 25.4807C41.0594 25.3662 41.1825 25.2719 41.3022 25.2719C41.4219 25.2719 41.4835 25.3662 41.4424 25.4807C41.4048 25.5952 41.2783 25.6861 41.162 25.6861C41.0457 25.6861 40.9842 25.5918 41.0252 25.4807H41.0218ZM39.6162 25.4908C39.6743 25.3224 39.8624 25.1843 40.0334 25.1843C40.2044 25.1843 40.3002 25.3224 40.242 25.4908C40.1839 25.6626 39.9958 25.8006 39.8248 25.8006C39.6538 25.8006 39.558 25.6626 39.6162 25.4908ZM38.2618 25.4234C38.3371 25.1978 38.5902 25.0126 38.8159 25.0126C39.0416 25.0126 39.1716 25.1978 39.0963 25.4234C39.0177 25.6457 38.768 25.8309 38.5389 25.8309C38.3097 25.8309 38.1866 25.6457 38.2618 25.4234ZM37.2564 25.9421C37.1127 25.9286 37.0135 25.8377 36.9793 25.7164C36.9041 25.8276 36.7981 25.9219 36.6818 25.9892C36.7399 26.0465 36.7775 26.124 36.7878 26.2115C36.9075 26.0701 37.0853 25.9657 37.2529 25.9421H37.2564ZM40.69 26.4439C40.7277 26.3294 40.8508 26.2385 40.9705 26.2385C41.0902 26.2385 41.1483 26.3328 41.1107 26.4439C41.0731 26.5584 40.9431 26.6527 40.8268 26.6527C40.7106 26.6527 40.649 26.5584 40.69 26.4439ZM39.2981 26.4271C39.3562 26.2587 39.5443 26.1172 39.7153 26.1172C39.8863 26.1172 39.9821 26.2587 39.924 26.4271C39.8658 26.5955 39.6777 26.7335 39.5067 26.7335C39.3357 26.7335 39.24 26.5955 39.2981 26.4271ZM37.9301 26.4001C38.0053 26.1778 38.2584 25.9892 38.4841 25.9892C38.7099 25.9892 38.8364 26.1745 38.7612 26.4001C38.6825 26.6258 38.4328 26.811 38.2037 26.811C37.9745 26.811 37.8514 26.6291 37.9301 26.4001ZM36.8972 26.8784C36.7673 26.8514 36.6784 26.7605 36.651 26.646C36.5758 26.7504 36.4697 26.8413 36.35 26.9053C36.415 26.9625 36.4561 27.0467 36.4697 27.141C36.5792 27.0097 36.7365 26.912 36.8938 26.8784H36.8972ZM40.3412 27.4711C40.3788 27.3566 40.5054 27.2623 40.6216 27.2623C40.7379 27.2623 40.7995 27.3566 40.7619 27.4711C40.7242 27.5856 40.5977 27.6765 40.4814 27.6765C40.3651 27.6765 40.3036 27.5822 40.3412 27.4711ZM38.9698 27.397C39.0279 27.2286 39.216 27.0872 39.387 27.0872C39.558 27.0872 39.6504 27.2252 39.5956 27.397C39.5375 27.5654 39.3528 27.7035 39.1784 27.7035C39.004 27.7035 38.9151 27.562 38.9732 27.397H38.9698ZM37.6018 27.3532C37.6804 27.1276 37.9301 26.9423 38.1558 26.9423C38.3815 26.9423 38.5115 27.1276 38.4328 27.3532C38.3576 27.5789 38.1045 27.7607 37.8788 27.7607C37.6531 27.7607 37.5231 27.5789 37.6018 27.3532ZM36.5894 27.8146C36.4561 27.7877 36.3637 27.6967 36.3364 27.5755C36.2645 27.6698 36.1756 27.754 36.0764 27.8146C36.1346 27.8786 36.1688 27.9594 36.1722 28.0537C36.2851 27.9291 36.439 27.8382 36.5929 27.8146H36.5894ZM40.0163 28.4175C40.0573 28.303 40.1839 28.212 40.2967 28.212C40.4096 28.212 40.478 28.303 40.4404 28.4175C40.4028 28.532 40.2728 28.6229 40.1565 28.6229C40.0402 28.6229 39.9787 28.532 40.0163 28.4175ZM38.6449 28.3501C38.703 28.1817 38.8877 28.0436 39.0621 28.0436C39.2365 28.0436 39.3255 28.1817 39.2707 28.3501C39.2126 28.5219 39.0245 28.66 38.8535 28.66C38.6825 28.66 38.5867 28.5219 38.6483 28.3501H38.6449ZM37.2769 28.3164C37.3521 28.0908 37.6052 27.9055 37.8343 27.9055C38.0635 27.9055 38.1866 28.0908 38.1079 28.3164C38.0327 28.5387 37.7796 28.7239 37.5539 28.7239C37.3282 28.7239 37.2016 28.5387 37.2769 28.3164ZM35.3924 28.8452L20.9018 28.7846L18.306 25.0058L36.5074 24.9923C36.5655 24.9755 36.6271 24.9654 36.6886 24.9654C36.9143 24.9654 37.0648 25.0934 37.0956 25.282C37.229 25.1136 37.441 24.9923 37.6394 24.9923C37.9027 24.9923 38.0498 25.2079 37.9609 25.4672C37.8788 25.7097 37.6223 25.9118 37.3726 25.9387C37.6018 25.969 37.7215 26.1677 37.636 26.4102C37.5573 26.6359 37.3282 26.8278 37.0956 26.875C37.2974 26.9221 37.4 27.1141 37.3213 27.3397C37.2393 27.5755 37.0033 27.7708 36.7639 27.8112C36.9725 27.8517 37.0785 28.047 36.9999 28.2794C36.9109 28.5387 36.6202 28.7509 36.3569 28.7509C36.1688 28.7509 36.0388 28.6397 36.0149 28.4815C35.8644 28.6701 35.625 28.8081 35.4027 28.8182L35.3959 28.8452H35.3924Z" fill="url(#paint1_linear_0_38)"/>
<path id="Vector_5" d="M10.7849 11.0679L15.0271 -1.43524L18.3062 0.337008L16.2377 6.43583C14.3489 7.86572 12.5279 9.40637 10.7849 11.0679ZM1.36788 22.6345L10.3745 -3.9023L13.6537 -2.13004L8.25513 13.7732C5.78982 16.4484 3.49068 19.3954 1.36788 22.6345Z" fill="url(#paint2_linear_0_38)"/>
<path id="Vector_6" fill-rule="evenodd" clip-rule="evenodd" d="M9.1079 28.815L5.48754 27.9468C9.35428 20.4629 15.151 14.2544 22.6654 9.37846L20.8416 14.7154C15.7874 18.6525 11.8865 23.3535 9.10448 28.815H9.1079ZM3.30096 28.8453L-0.326248 27.9771C4.40623 18.703 12.8515 9.13281 24.0581 2.857C24.0924 2.83681 24.1266 2.81998 24.1608 2.80316C24.4243 2.65846 24.7459 2.48348 25.0813 2.3085L23.4593 7.05321C14.2373 12.72 7.2943 20.897 3.30096 28.8453Z" fill="url(#paint3_linear_0_38)"/>
<path id="Vector_7" d="M25.6831 18.4736L30.3968 4.36093L33.5506 6.58332L29.5794 18.4771H25.6797L25.6831 18.4736ZM18.306 24.3249L26.0407 1.17925L29.1945 3.40164L22.2057 24.3283H18.3095L18.306 24.3249Z" fill="url(#paint4_linear_0_38)"/>
<path id="Vector_8" fill-rule="evenodd" clip-rule="evenodd" d="M28.7781 23.1991L26.2105 19.2468H32.9859V23.1991H28.7781Z" fill="url(#paint5_linear_0_38)"/>
<path id="Vector_9" fill-rule="evenodd" clip-rule="evenodd" d="M20.9302 28.8453L18.306 24.893H32.9722L32.986 28.8453H20.9302Z" fill="url(#paint6_linear_0_38)"/>
</g>
</g>
</g>
<path id="Vector_10" d="M12.0069 0.5C14.6501 0.5 16.6506 0.501368 18.2316 0.734375C19.7953 0.96485 20.8874 1.41461 21.7433 2.27051C22.5916 3.11893 23.0387 4.21002 23.2677 5.77637C23.4991 7.35935 23.5001 9.36382 23.5001 12.0068C23.5001 14.6499 23.4991 16.6543 23.2677 18.2373C23.0386 19.8037 22.5917 20.8947 21.7433 21.7432C20.8949 22.5916 19.8038 23.0385 18.2374 23.2676C16.6544 23.499 14.65 23.5 12.0069 23.5C9.36386 23.5 7.35925 23.4991 5.77453 23.2676C4.30444 23.0528 3.25 22.6464 2.41906 21.8965L2.25597 21.7422C1.40818 20.8939 0.961496 19.8031 0.732534 18.2373C0.501076 16.6543 0.500113 14.6499 0.500113 12.0068C0.500113 9.36374 0.501061 7.35914 0.732534 5.77441C0.961384 4.20767 1.40786 3.11297 2.25597 2.25781C3.11141 1.40844 4.20659 0.961447 5.77453 0.732422C7.35925 0.500949 9.36386 0.5 12.0069 0.5Z" stroke="white"/>
</g>
<defs>
<linearGradient id="paint0_linear_0_38" x1="-12.9586" y1="-4.32141" x2="-6.52793" y2="7.57463" gradientUnits="userSpaceOnUse">
<stop stop-color="#5000B3"/>
<stop offset="1" stop-color="#22004D"/>
</linearGradient>
<linearGradient id="paint1_linear_0_38" x1="41.5681" y1="25.6017" x2="105.471" y2="24.9675" gradientUnits="userSpaceOnUse">
<stop stop-color="#0084F0"/>
<stop offset="1" stop-color="#24478C"/>
</linearGradient>
<linearGradient id="paint2_linear_0_38" x1="13.5475" y1="19.618" x2="10.1638" y2="9.89047" gradientUnits="userSpaceOnUse">
<stop stop-color="#40008F"/>
<stop offset="1" stop-color="#22004D"/>
</linearGradient>
<linearGradient id="paint3_linear_0_38" x1="4.59946" y1="1.87831" x2="12.2696" y2="13.899" gradientUnits="userSpaceOnUse">
<stop stop-color="#40008F"/>
<stop offset="1" stop-color="#22004D"/>
</linearGradient>
<linearGradient id="paint4_linear_0_38" x1="30.1468" y1="21.4969" x2="24.9971" y2="5.82926" gradientUnits="userSpaceOnUse">
<stop stop-color="#5000B3"/>
<stop offset="1" stop-color="#22004D"/>
</linearGradient>
<linearGradient id="paint5_linear_0_38" x1="28.6045" y1="22.6647" x2="33.0317" y2="20.4826" gradientUnits="userSpaceOnUse">
<stop stop-color="#006FC9"/>
<stop offset="0.46" stop-color="#0078DB"/>
<stop offset="1" stop-color="#0084F0"/>
</linearGradient>
<linearGradient id="paint6_linear_0_38" x1="18.5714" y1="26.2471" x2="22.8989" y2="26.2042" gradientUnits="userSpaceOnUse">
<stop stop-color="#0070C9"/>
<stop offset="1" stop-color="#0084F0"/>
</linearGradient>
</defs>
</svg>
