<svg width="121" height="40" viewBox="0 0 121 40" fill="none" xmlns="http://www.w3.org/2000/svg">
<path d="M57.9455 10.0229L60.6155 2.95295H61.9855L64.6455 10.0229H63.5055L62.9855 8.60295H59.6055L59.0855 10.0229H57.9455ZM59.9555 7.65295H62.6355L61.2955 3.96295L59.9555 7.65295ZM67.7114 12.4129C67.3381 12.4129 66.9914 12.3529 66.6714 12.2329C66.3514 12.1196 66.0781 11.9363 65.8514 11.6829C65.6314 11.4363 65.4814 11.1196 65.4014 10.7329H66.4714C66.5181 10.9129 66.6081 11.0563 66.7414 11.1629C66.8748 11.2763 67.0314 11.3563 67.2114 11.4029C67.3914 11.4496 67.5714 11.4729 67.7514 11.4729C68.0914 11.4729 68.3648 11.4029 68.5714 11.2629C68.7781 11.1229 68.9248 10.9329 69.0114 10.6929C69.1048 10.4596 69.1514 10.1929 69.1514 9.89295V9.28295C69.0381 9.47628 68.8881 9.63295 68.7014 9.75295C68.5148 9.87295 68.3148 9.95962 68.1014 10.0129C67.8948 10.0596 67.6814 10.0829 67.4614 10.0829C66.9214 10.0829 66.4814 9.96295 66.1414 9.72295C65.8014 9.48295 65.5481 9.16295 65.3814 8.76295C65.2214 8.35628 65.1414 7.90628 65.1414 7.41295C65.1414 6.90628 65.2248 6.44628 65.3914 6.03295C65.5648 5.61962 65.8281 5.29295 66.1814 5.05295C66.5348 4.80628 66.9814 4.68295 67.5214 4.68295C67.8348 4.68295 68.1381 4.73962 68.4314 4.85295C68.7248 4.95962 68.9681 5.13295 69.1614 5.37295L69.2214 4.75295H70.1914V9.77295C70.1914 10.3129 70.1048 10.7796 69.9314 11.1729C69.7581 11.5729 69.4881 11.8796 69.1214 12.0929C68.7548 12.3063 68.2848 12.4129 67.7114 12.4129ZM67.6514 9.16295C67.9848 9.16295 68.2614 9.08295 68.4814 8.92295C68.7081 8.75628 68.8781 8.53628 68.9914 8.26295C69.1048 7.98962 69.1614 7.68962 69.1614 7.36295C69.1614 7.02962 69.1048 6.73295 68.9914 6.47295C68.8781 6.20628 68.7114 5.99628 68.4914 5.84295C68.2714 5.68962 67.9881 5.61295 67.6414 5.61295C67.2814 5.61295 66.9948 5.69628 66.7814 5.86295C66.5681 6.02295 66.4114 6.23962 66.3114 6.51295C66.2181 6.77962 66.1714 7.07628 66.1714 7.40295C66.1714 7.73628 66.2214 8.03628 66.3214 8.30295C66.4214 8.56962 66.5781 8.77962 66.7914 8.93295C67.0114 9.08628 67.2981 9.16295 67.6514 9.16295ZM73.7747 10.0829C73.2214 10.0829 72.758 9.96962 72.3847 9.74295C72.0114 9.51628 71.728 9.20295 71.5347 8.80295C71.348 8.39628 71.2547 7.92962 71.2547 7.40295C71.2547 6.86962 71.3514 6.39962 71.5447 5.99295C71.7447 5.58628 72.0314 5.26628 72.4047 5.03295C72.7847 4.79962 73.2414 4.68295 73.7747 4.68295C74.1814 4.68295 74.5347 4.75962 74.8347 4.91295C75.1347 5.05962 75.3814 5.25962 75.5747 5.51295C75.7747 5.76628 75.9214 6.04962 76.0147 6.36295C76.108 6.66962 76.148 6.98962 76.1347 7.32295C76.1347 7.39628 76.1314 7.46628 76.1247 7.53295C76.118 7.59962 76.1114 7.66962 76.1047 7.74295H72.2947C72.3147 8.00962 72.3814 8.25295 72.4947 8.47295C72.6147 8.69295 72.7814 8.86962 72.9947 9.00295C73.208 9.12962 73.4714 9.19295 73.7847 9.19295C73.958 9.19295 74.1247 9.17295 74.2847 9.13295C74.4514 9.08628 74.598 9.01628 74.7247 8.92295C74.858 8.82295 74.9514 8.69628 75.0047 8.54295H76.0447C75.958 8.89628 75.8014 9.18962 75.5747 9.42295C75.3547 9.64962 75.0847 9.81628 74.7647 9.92295C74.4514 10.0296 74.1214 10.0829 73.7747 10.0829ZM72.3147 6.92295H75.1147C75.108 6.66295 75.048 6.43295 74.9347 6.23295C74.8214 6.02628 74.6647 5.86628 74.4647 5.75295C74.2647 5.63295 74.0247 5.57295 73.7447 5.57295C73.438 5.57295 73.1814 5.63628 72.9747 5.76295C72.7747 5.88962 72.618 6.05628 72.5047 6.26295C72.398 6.46295 72.3347 6.68295 72.3147 6.92295ZM77.1969 10.0229V4.75295H78.1769L78.2269 5.49295C78.3602 5.29962 78.5202 5.14628 78.7069 5.03295C78.8936 4.91295 79.0936 4.82628 79.3069 4.77295C79.5202 4.71295 79.7269 4.68295 79.9269 4.68295C80.4336 4.68295 80.8302 4.79295 81.1169 5.01295C81.4102 5.22628 81.6169 5.51628 81.7369 5.88295C81.8636 6.24295 81.9269 6.65295 81.9269 7.11295V10.0229H80.8869V7.32295C80.8869 7.10962 80.8736 6.89962 80.8469 6.69295C80.8202 6.48628 80.7636 6.30295 80.6769 6.14295C80.5969 5.97628 80.4802 5.84628 80.3269 5.75295C80.1736 5.65295 79.9669 5.60295 79.7069 5.60295C79.3869 5.60295 79.1169 5.68962 78.8969 5.86295C78.6769 6.03628 78.5102 6.26962 78.3969 6.56295C78.2836 6.85628 78.2269 7.18628 78.2269 7.55295V10.0229H77.1969ZM85.3739 10.0229C84.9606 10.0229 84.6239 9.96628 84.3639 9.85295C84.1039 9.73295 83.9106 9.54628 83.7839 9.29295C83.6639 9.03962 83.6039 8.70962 83.6039 8.30295V5.67295H82.7739V4.75295H83.6039V3.23295H84.6339V4.75295H85.9639V5.67295H84.6339V8.17295C84.6339 8.48628 84.6906 8.72295 84.8039 8.88295C84.9173 9.03628 85.1539 9.11295 85.5139 9.11295H85.9239V10.0229H85.3739ZM84.2939 12.9629L84.0239 12.5829C84.1106 12.5229 84.1973 12.4463 84.2839 12.3529C84.3773 12.2663 84.4573 12.1696 84.5239 12.0629C84.5973 11.9629 84.6473 11.8663 84.6739 11.7729C84.5006 11.7596 84.3573 11.6996 84.2439 11.5929C84.1306 11.4929 84.0739 11.3529 84.0739 11.1729C84.0739 10.9729 84.1373 10.8196 84.2639 10.7129C84.3906 10.6129 84.5406 10.5629 84.7139 10.5629C84.9473 10.5629 85.1173 10.6463 85.2239 10.8129C85.3373 10.9796 85.3906 11.1763 85.3839 11.4029C85.3839 11.6296 85.3306 11.8496 85.2239 12.0629C85.1239 12.2763 84.9906 12.4629 84.8239 12.6229C84.6639 12.7829 84.4873 12.8963 84.2939 12.9629ZM86.8453 10.0229V4.75295H87.8753V10.0229H86.8453ZM87.3553 4.05295C87.1553 4.05295 86.992 3.99295 86.8653 3.87295C86.7453 3.74628 86.6853 3.58628 86.6853 3.39295C86.6853 3.19962 86.7487 3.04295 86.8753 2.92295C87.002 2.79628 87.162 2.73295 87.3553 2.73295C87.5353 2.73295 87.692 2.79628 87.8253 2.92295C87.9653 3.04295 88.0353 3.19962 88.0353 3.39295C88.0353 3.58628 87.9687 3.74628 87.8353 3.87295C87.7087 3.99295 87.5487 4.05295 87.3553 4.05295ZM90.83 10.0829C90.59 10.0829 90.3567 10.0529 90.13 9.99295C89.91 9.92628 89.7134 9.82962 89.54 9.70295C89.3667 9.56962 89.2267 9.40628 89.12 9.21295C89.02 9.01295 88.97 8.77962 88.97 8.51295C88.97 8.19295 89.03 7.92962 89.15 7.72295C89.2767 7.50962 89.4434 7.34628 89.65 7.23295C89.8567 7.11295 90.0934 7.02962 90.36 6.98295C90.6334 6.92962 90.9167 6.90295 91.21 6.90295H92.5C92.5 6.64295 92.46 6.41628 92.38 6.22295C92.3 6.02295 92.1734 5.86962 92 5.76295C91.8334 5.64962 91.61 5.59295 91.33 5.59295C91.1634 5.59295 91.0034 5.61295 90.85 5.65295C90.7034 5.68628 90.5767 5.74295 90.47 5.82295C90.3634 5.90295 90.29 6.00962 90.25 6.14295H89.17C89.21 5.88962 89.3 5.67295 89.44 5.49295C89.58 5.30628 89.7534 5.15295 89.96 5.03295C90.1667 4.91295 90.3867 4.82628 90.62 4.77295C90.86 4.71295 91.1034 4.68295 91.35 4.68295C92.11 4.68295 92.6567 4.90628 92.99 5.35295C93.33 5.79295 93.5 6.39962 93.5 7.17295V10.0229H92.61L92.57 9.35295C92.4167 9.55962 92.2334 9.71628 92.02 9.82295C91.8134 9.92962 91.6067 9.99962 91.4 10.0329C91.1934 10.0663 91.0034 10.0829 90.83 10.0829ZM90.99 9.21295C91.29 9.21295 91.5534 9.16295 91.78 9.06295C92.0067 8.95628 92.1834 8.80628 92.31 8.61295C92.4367 8.41295 92.5 8.17962 92.5 7.91295V7.69295H91.56C91.3667 7.69295 91.1767 7.69962 90.99 7.71295C90.81 7.71962 90.6434 7.74628 90.49 7.79295C90.3434 7.83295 90.2234 7.90295 90.13 8.00295C90.0434 8.10295 90 8.24628 90 8.43295C90 8.61295 90.0467 8.75962 90.14 8.87295C90.2334 8.98628 90.3567 9.07295 90.51 9.13295C90.6634 9.18628 90.8234 9.21295 90.99 9.21295ZM99.6101 10.0829C99.0834 10.0829 98.6468 9.96628 98.3001 9.73295C97.9601 9.49295 97.7034 9.16962 97.5301 8.76295C97.3634 8.35628 97.2801 7.89962 97.2801 7.39295C97.2801 6.87962 97.3668 6.41962 97.5401 6.01295C97.7134 5.59962 97.9768 5.27628 98.3301 5.04295C98.6834 4.80295 99.1301 4.68295 99.6701 4.68295C99.8701 4.68295 100.07 4.70628 100.27 4.75295C100.477 4.79962 100.667 4.87295 100.84 4.97295C101.02 5.06628 101.173 5.19295 101.3 5.35295V2.95295H102.33V10.0229H101.34L101.3 9.30295C101.18 9.48295 101.03 9.63295 100.85 9.75295C100.677 9.86628 100.483 9.94962 100.27 10.0029C100.057 10.0563 99.8368 10.0829 99.6101 10.0829ZM99.7801 9.16295C100.12 9.16295 100.4 9.07962 100.62 8.91295C100.847 8.74628 101.017 8.52628 101.13 8.25295C101.243 7.97962 101.3 7.68295 101.3 7.36295C101.3 7.03628 101.243 6.74295 101.13 6.48295C101.023 6.21628 100.857 6.00628 100.63 5.85295C100.41 5.69295 100.127 5.61295 99.7801 5.61295C99.4201 5.61295 99.1334 5.69628 98.9201 5.86295C98.7068 6.02295 98.5501 6.23962 98.4501 6.51295C98.3568 6.78628 98.3101 7.08628 98.3101 7.41295C98.3101 7.65295 98.3368 7.87962 98.3901 8.09295C98.4434 8.29962 98.5268 8.48628 98.6401 8.65295C98.7601 8.81295 98.9134 8.93962 99.1001 9.03295C99.2868 9.11962 99.5134 9.16295 99.7801 9.16295ZM105.913 10.0829C105.36 10.0829 104.897 9.96962 104.523 9.74295C104.15 9.51628 103.867 9.20295 103.673 8.80295C103.487 8.39628 103.393 7.92962 103.393 7.40295C103.393 6.86962 103.49 6.39962 103.683 5.99295C103.883 5.58628 104.17 5.26628 104.543 5.03295C104.923 4.79962 105.38 4.68295 105.913 4.68295C106.32 4.68295 106.673 4.75962 106.973 4.91295C107.273 5.05962 107.52 5.25962 107.713 5.51295C107.913 5.76628 108.06 6.04962 108.153 6.36295C108.247 6.66962 108.287 6.98962 108.273 7.32295C108.273 7.39628 108.27 7.46628 108.263 7.53295C108.257 7.59962 108.25 7.66962 108.243 7.74295H104.433C104.453 8.00962 104.52 8.25295 104.633 8.47295C104.753 8.69295 104.92 8.86962 105.133 9.00295C105.347 9.12962 105.61 9.19295 105.923 9.19295C106.097 9.19295 106.263 9.17295 106.423 9.13295C106.59 9.08628 106.737 9.01628 106.863 8.92295C106.997 8.82295 107.09 8.69628 107.143 8.54295H108.183C108.097 8.89628 107.94 9.18962 107.713 9.42295C107.493 9.64962 107.223 9.81628 106.903 9.92295C106.59 10.0296 106.26 10.0829 105.913 10.0829ZM104.453 6.92295H107.253C107.247 6.66295 107.187 6.43295 107.073 6.23295C106.96 6.02628 106.803 5.86628 106.603 5.75295C106.403 5.63295 106.163 5.57295 105.883 5.57295C105.577 5.57295 105.32 5.63628 105.113 5.76295C104.913 5.88962 104.757 6.05628 104.643 6.26295C104.537 6.46295 104.473 6.68295 104.453 6.92295ZM61.6255 22.1029C60.8922 22.1029 60.2788 21.9496 59.7855 21.6429C59.2988 21.3363 58.9322 20.9129 58.6855 20.3729C58.4388 19.8263 58.3155 19.2029 58.3155 18.5029C58.3155 17.9763 58.3822 17.4929 58.5155 17.0529C58.6555 16.6063 58.8622 16.2196 59.1355 15.8929C59.4088 15.5663 59.7488 15.3163 60.1555 15.1429C60.5688 14.9629 61.0455 14.8729 61.5855 14.8729C62.1122 14.8729 62.5755 14.9563 62.9755 15.1229C63.3755 15.2829 63.7055 15.5163 63.9655 15.8229C64.2322 16.1296 64.4122 16.4996 64.5055 16.9329H63.3855C63.3255 16.6996 63.2122 16.5029 63.0455 16.3429C62.8855 16.1829 62.6822 16.0596 62.4355 15.9729C62.1955 15.8863 61.9222 15.8429 61.6155 15.8429C61.2155 15.8429 60.8755 15.9129 60.5955 16.0529C60.3155 16.1929 60.0855 16.3863 59.9055 16.6329C59.7322 16.8729 59.6055 17.1529 59.5255 17.4729C59.4455 17.7929 59.4055 18.1329 59.4055 18.4929C59.4055 18.9729 59.4822 19.4129 59.6355 19.8129C59.7888 20.2129 60.0288 20.5329 60.3555 20.7729C60.6822 21.0129 61.1088 21.1329 61.6355 21.1329C62.0422 21.1329 62.3922 21.0629 62.6855 20.9229C62.9788 20.7763 63.2088 20.5696 63.3755 20.3029C63.5422 20.0296 63.6288 19.6996 63.6355 19.3129H61.4455V18.3829H64.6755V18.9029C64.6755 19.5496 64.5555 20.1129 64.3155 20.5929C64.0755 21.0729 63.7288 21.4463 63.2755 21.7129C62.8222 21.9729 62.2722 22.1029 61.6255 22.1029ZM68.0018 22.0829C67.2618 22.0829 66.6951 21.8896 66.3018 21.5029C65.9151 21.1096 65.7218 20.5129 65.7218 19.7129V16.7529H66.7518V19.6529C66.7518 19.9663 66.7951 20.2363 66.8818 20.4629C66.9751 20.6896 67.1151 20.8629 67.3018 20.9829C67.4885 21.1029 67.7251 21.1629 68.0118 21.1629C68.3118 21.1629 68.5518 21.1029 68.7318 20.9829C68.9185 20.8563 69.0518 20.6796 69.1318 20.4529C69.2185 20.2263 69.2618 19.9596 69.2618 19.6529V16.7529H70.2918V19.7129C70.2918 20.5263 70.0918 21.1263 69.6918 21.5129C69.2985 21.8929 68.7351 22.0829 68.0018 22.0829ZM72.9228 22.0229L70.9528 16.7529H72.1028L73.6228 21.0929L75.1328 16.7529H76.2928L74.3228 22.0229H72.9228ZM79.2825 22.0829C78.7292 22.0829 78.2659 21.9696 77.8925 21.7429C77.5192 21.5163 77.2359 21.2029 77.0425 20.8029C76.8559 20.3963 76.7625 19.9296 76.7625 19.4029C76.7625 18.8696 76.8592 18.3996 77.0525 17.9929C77.2525 17.5863 77.5392 17.2663 77.9125 17.0329C78.2925 16.7996 78.7492 16.6829 79.2825 16.6829C79.6892 16.6829 80.0425 16.7596 80.3425 16.9129C80.6425 17.0596 80.8892 17.2596 81.0825 17.5129C81.2825 17.7663 81.4292 18.0496 81.5225 18.3629C81.6159 18.6696 81.6559 18.9896 81.6425 19.3229C81.6425 19.3963 81.6392 19.4663 81.6325 19.5329C81.6259 19.5996 81.6192 19.6696 81.6125 19.7429H77.8025C77.8225 20.0096 77.8892 20.2529 78.0025 20.4729C78.1225 20.6929 78.2892 20.8696 78.5025 21.0029C78.7159 21.1296 78.9792 21.1929 79.2925 21.1929C79.4659 21.1929 79.6325 21.1729 79.7925 21.1329C79.9592 21.0863 80.1059 21.0163 80.2325 20.9229C80.3659 20.8229 80.4592 20.6963 80.5125 20.5429H81.5525C81.4659 20.8963 81.3092 21.1896 81.0825 21.4229C80.8625 21.6496 80.5925 21.8163 80.2725 21.9229C79.9592 22.0296 79.6292 22.0829 79.2825 22.0829ZM77.8225 18.9229H80.6225C80.6159 18.6629 80.5559 18.4329 80.4425 18.2329C80.3292 18.0263 80.1725 17.8663 79.9725 17.7529C79.7725 17.6329 79.5325 17.5729 79.2525 17.5729C78.9459 17.5729 78.6892 17.6363 78.4825 17.7629C78.2825 17.8896 78.1259 18.0563 78.0125 18.2629C77.9059 18.4629 77.8425 18.6829 77.8225 18.9229ZM82.7047 22.0229V16.7529H83.6747L83.7247 17.5129C83.858 17.3063 84.0114 17.1429 84.1847 17.0229C84.358 16.9029 84.548 16.8163 84.7547 16.7629C84.9614 16.7096 85.178 16.6829 85.4047 16.6829C85.4647 16.6829 85.5214 16.6829 85.5747 16.6829C85.628 16.6829 85.678 16.6829 85.7247 16.6829V17.6729H85.4047C85.0247 17.6729 84.708 17.7496 84.4547 17.9029C84.208 18.0563 84.0247 18.2696 83.9047 18.5429C83.7914 18.8163 83.7347 19.1296 83.7347 19.4829V22.0229H82.7047ZM86.5035 22.0229V16.7529H87.4835L87.5335 17.4929C87.6669 17.2996 87.8269 17.1463 88.0135 17.0329C88.2002 16.9129 88.4002 16.8263 88.6135 16.7729C88.8269 16.7129 89.0335 16.6829 89.2335 16.6829C89.7402 16.6829 90.1369 16.7929 90.4235 17.0129C90.7169 17.2263 90.9235 17.5163 91.0435 17.8829C91.1702 18.2429 91.2335 18.6529 91.2335 19.1129V22.0229H90.1935V19.3229C90.1935 19.1096 90.1802 18.8996 90.1535 18.6929C90.1269 18.4863 90.0702 18.3029 89.9835 18.1429C89.9035 17.9763 89.7869 17.8463 89.6335 17.7529C89.4802 17.6529 89.2735 17.6029 89.0135 17.6029C88.6935 17.6029 88.4235 17.6896 88.2035 17.8629C87.9835 18.0363 87.8169 18.2696 87.7035 18.5629C87.5902 18.8563 87.5335 19.1863 87.5335 19.5529V22.0229H86.5035ZM94.1406 22.0829C93.9006 22.0829 93.6672 22.0529 93.4406 21.9929C93.2206 21.9263 93.0239 21.8296 92.8506 21.7029C92.6772 21.5696 92.5372 21.4063 92.4306 21.2129C92.3306 21.0129 92.2806 20.7796 92.2806 20.5129C92.2806 20.1929 92.3406 19.9296 92.4606 19.7229C92.5872 19.5096 92.7539 19.3463 92.9606 19.2329C93.1672 19.1129 93.4039 19.0296 93.6706 18.9829C93.9439 18.9296 94.2272 18.9029 94.5206 18.9029H95.8106C95.8106 18.6429 95.7706 18.4163 95.6906 18.2229C95.6106 18.0229 95.4839 17.8696 95.3106 17.7629C95.1439 17.6496 94.9206 17.5929 94.6406 17.5929C94.4739 17.5929 94.3139 17.6129 94.1606 17.6529C94.0139 17.6863 93.8872 17.7429 93.7806 17.8229C93.6739 17.9029 93.6006 18.0096 93.5606 18.1429H92.4806C92.5206 17.8896 92.6106 17.6729 92.7506 17.4929C92.8906 17.3063 93.0639 17.1529 93.2706 17.0329C93.4772 16.9129 93.6972 16.8263 93.9306 16.7729C94.1706 16.7129 94.4139 16.6829 94.6606 16.6829C95.4206 16.6829 95.9672 16.9063 96.3006 17.3529C96.6406 17.7929 96.8106 18.3996 96.8106 19.1729V22.0229H95.9206L95.8806 21.3529C95.7272 21.5596 95.5439 21.7163 95.3306 21.8229C95.1239 21.9296 94.9172 21.9996 94.7106 22.0329C94.5039 22.0663 94.3139 22.0829 94.1406 22.0829ZM94.3006 21.2129C94.6006 21.2129 94.8639 21.1629 95.0906 21.0629C95.3172 20.9563 95.4939 20.8063 95.6206 20.6129C95.7472 20.4129 95.8106 20.1796 95.8106 19.9129V19.6929H94.8706C94.6772 19.6929 94.4872 19.6996 94.3006 19.7129C94.1206 19.7196 93.9539 19.7463 93.8006 19.7929C93.6539 19.8329 93.5339 19.9029 93.4406 20.0029C93.3539 20.1029 93.3106 20.2463 93.3106 20.4329C93.3106 20.6129 93.3572 20.7596 93.4506 20.8729C93.5439 20.9863 93.6672 21.0729 93.8206 21.1329C93.9739 21.1863 94.1339 21.2129 94.3006 21.2129ZM98.0465 22.0229V16.7529H99.0165L99.0665 17.5129C99.1998 17.3063 99.3532 17.1429 99.5265 17.0229C99.6998 16.9029 99.8898 16.8163 100.097 16.7629C100.303 16.7096 100.52 16.6829 100.747 16.6829C100.807 16.6829 100.863 16.6829 100.917 16.6829C100.97 16.6829 101.02 16.6829 101.067 16.6829V17.6729H100.747C100.367 17.6729 100.05 17.7496 99.7965 17.9029C99.5498 18.0563 99.3665 18.2696 99.2465 18.5429C99.1332 18.8163 99.0765 19.1296 99.0765 19.4829V22.0229H98.0465ZM104.068 22.0829C103.514 22.0829 103.051 21.9696 102.678 21.7429C102.304 21.5163 102.021 21.2029 101.828 20.8029C101.641 20.3963 101.548 19.9296 101.548 19.4029C101.548 18.8696 101.644 18.3996 101.838 17.9929C102.038 17.5863 102.324 17.2663 102.698 17.0329C103.078 16.7996 103.534 16.6829 104.068 16.6829C104.474 16.6829 104.828 16.7596 105.128 16.9129C105.428 17.0596 105.674 17.2596 105.868 17.5129C106.068 17.7663 106.214 18.0496 106.308 18.3629C106.401 18.6696 106.441 18.9896 106.428 19.3229C106.428 19.3963 106.424 19.4663 106.418 19.5329C106.411 19.5996 106.404 19.6696 106.398 19.7429H102.588C102.608 20.0096 102.674 20.2529 102.788 20.4729C102.908 20.6929 103.074 20.8696 103.288 21.0029C103.501 21.1296 103.764 21.1929 104.078 21.1929C104.251 21.1929 104.418 21.1729 104.578 21.1329C104.744 21.0863 104.891 21.0163 105.018 20.9229C105.151 20.8229 105.244 20.6963 105.298 20.5429H106.338C106.251 20.8963 106.094 21.1896 105.868 21.4229C105.648 21.6496 105.378 21.8163 105.058 21.9229C104.744 22.0296 104.414 22.0829 104.068 22.0829ZM102.608 18.9229H105.408C105.401 18.6629 105.341 18.4329 105.228 18.2329C105.114 18.0263 104.958 17.8663 104.758 17.7529C104.558 17.6329 104.318 17.5729 104.038 17.5729C103.731 17.5729 103.474 17.6363 103.268 17.7629C103.068 17.8896 102.911 18.0563 102.798 18.2629C102.691 18.4629 102.628 18.6829 102.608 18.9229ZM58.7055 34.0229V26.9529H63.5755V27.9229H59.7655V30.0429H63.1355V31.0029H59.7655V33.0529H63.5755V34.0229H58.7055ZM64.6481 34.0229V26.9529H65.6781V34.0229H64.6481ZM69.2728 34.0829C68.7194 34.0829 68.2561 33.9696 67.8828 33.7429C67.5094 33.5163 67.2261 33.2029 67.0328 32.8029C66.8461 32.3963 66.7528 31.9296 66.7528 31.4029C66.7528 30.8696 66.8494 30.3996 67.0428 29.9929C67.2428 29.5863 67.5294 29.2663 67.9028 29.0329C68.2828 28.7996 68.7394 28.6829 69.2728 28.6829C69.6794 28.6829 70.0328 28.7596 70.3328 28.9129C70.6328 29.0596 70.8794 29.2596 71.0728 29.5129C71.2728 29.7663 71.4194 30.0496 71.5128 30.3629C71.6061 30.6696 71.6461 30.9896 71.6328 31.3229C71.6328 31.3963 71.6294 31.4663 71.6228 31.5329C71.6161 31.5996 71.6094 31.6696 71.6028 31.7429H67.7928C67.8128 32.0096 67.8794 32.2529 67.9928 32.4729C68.1128 32.6929 68.2794 32.8696 68.4928 33.0029C68.7061 33.1296 68.9694 33.1929 69.2828 33.1929C69.4561 33.1929 69.6228 33.1729 69.7828 33.1329C69.9494 33.0863 70.0961 33.0163 70.2228 32.9229C70.3561 32.8229 70.4494 32.6963 70.5028 32.5429H71.5428C71.4561 32.8963 71.2994 33.1896 71.0728 33.4229C70.8528 33.6496 70.5828 33.8163 70.2628 33.9229C69.9494 34.0296 69.6194 34.0829 69.2728 34.0829ZM67.8128 30.9229H70.6128C70.6061 30.6629 70.5461 30.4329 70.4328 30.2329C70.3194 30.0263 70.1628 29.8663 69.9628 29.7529C69.7628 29.6329 69.5228 29.5729 69.2428 29.5729C68.9361 29.5729 68.6794 29.6363 68.4728 29.7629C68.2728 29.8896 68.1161 30.0563 68.0028 30.2629C67.8961 30.4629 67.8328 30.6829 67.8128 30.9229ZM75.0826 34.0829C74.5293 34.0829 74.0659 33.9696 73.6926 33.7429C73.3259 33.5163 73.0493 33.2029 72.8626 32.8029C72.6826 32.3963 72.5926 31.9296 72.5926 31.4029C72.5926 30.8829 72.6859 30.4196 72.8726 30.0129C73.0659 29.5996 73.3526 29.2763 73.7326 29.0429C74.1193 28.8029 74.5959 28.6829 75.1626 28.6829C75.5493 28.6829 75.8926 28.7496 76.1926 28.8829C76.4926 29.0096 76.7359 29.1996 76.9226 29.4529C77.1159 29.6996 77.2426 30.0096 77.3026 30.3829H76.2726C76.1859 30.1096 76.0393 29.9129 75.8326 29.7929C75.6326 29.6729 75.3959 29.6129 75.1226 29.6129C74.7559 29.6129 74.4626 29.6996 74.2426 29.8729C74.0293 30.0463 73.8726 30.2696 73.7726 30.5429C73.6726 30.8163 73.6226 31.1029 73.6226 31.4029C73.6226 31.7163 73.6726 32.0063 73.7726 32.2729C73.8793 32.5396 74.0393 32.7563 74.2526 32.9229C74.4726 33.0829 74.7593 33.1629 75.1126 33.1629C75.3793 33.1629 75.6259 33.1063 75.8526 32.9929C76.0793 32.8729 76.2259 32.6729 76.2926 32.3929H77.3526C77.2926 32.7796 77.1526 33.0996 76.9326 33.3529C76.7126 33.5996 76.4393 33.7829 76.1126 33.9029C75.7926 34.0229 75.4493 34.0829 75.0826 34.0829ZM80.5692 34.0229C80.1559 34.0229 79.8192 33.9663 79.5592 33.8529C79.2992 33.7329 79.1059 33.5463 78.9792 33.2929C78.8592 33.0396 78.7992 32.7096 78.7992 32.3029V29.6729H77.9692V28.7529H78.7992V27.2329H79.8292V28.7529H81.1592V29.6729H79.8292V32.1729C79.8292 32.4863 79.8859 32.7229 79.9992 32.8829C80.1126 33.0363 80.3492 33.1129 80.7092 33.1129H81.1192V34.0229H80.5692ZM82.0406 34.0229V28.7529H83.0106L83.0606 29.5129C83.194 29.3063 83.3473 29.1429 83.5206 29.0229C83.694 28.9029 83.884 28.8163 84.0906 28.7629C84.2973 28.7096 84.514 28.6829 84.7406 28.6829C84.8006 28.6829 84.8573 28.6829 84.9106 28.6829C84.964 28.6829 85.014 28.6829 85.0606 28.6829V29.6729H84.7406C84.3606 29.6729 84.044 29.7496 83.7906 29.9029C83.544 30.0563 83.3606 30.2696 83.2406 30.5429C83.1273 30.8163 83.0706 31.1296 83.0706 31.4829V34.0229H82.0406ZM88.0918 34.0829C87.5451 34.0829 87.0818 33.9729 86.7018 33.7529C86.3218 33.5263 86.0318 33.2096 85.8318 32.8029C85.6385 32.3963 85.5418 31.9263 85.5418 31.3929C85.5418 30.8529 85.6418 30.3829 85.8418 29.9829C86.0418 29.5763 86.3318 29.2596 86.7118 29.0329C87.0918 28.7996 87.5551 28.6829 88.1018 28.6829C88.6485 28.6829 89.1118 28.7996 89.4918 29.0329C89.8718 29.2596 90.1585 29.5763 90.3518 29.9829C90.5452 30.3896 90.6418 30.8629 90.6418 31.4029C90.6418 31.9296 90.5418 32.3963 90.3418 32.8029C90.1485 33.2096 89.8618 33.5263 89.4818 33.7529C89.1085 33.9729 88.6451 34.0829 88.0918 34.0829ZM88.0918 33.1629C88.4518 33.1629 88.7418 33.0829 88.9618 32.9229C89.1885 32.7629 89.3552 32.5496 89.4618 32.2829C89.5685 32.0096 89.6218 31.7129 89.6218 31.3929C89.6218 31.0729 89.5685 30.7796 89.4618 30.5129C89.3552 30.2463 89.1885 30.0329 88.9618 29.8729C88.7418 29.7063 88.4518 29.6229 88.0918 29.6229C87.7385 29.6229 87.4485 29.7063 87.2218 29.8729C86.9951 30.0329 86.8285 30.2463 86.7218 30.5129C86.6218 30.7796 86.5718 31.0729 86.5718 31.3929C86.5718 31.7196 86.6218 32.0163 86.7218 32.2829C86.8285 32.5496 86.9951 32.7629 87.2218 32.9229C87.4485 33.0829 87.7385 33.1629 88.0918 33.1629ZM91.6988 34.0229V28.7529H92.6788L92.7288 29.4929C92.8622 29.2996 93.0222 29.1463 93.2088 29.0329C93.3955 28.9129 93.5955 28.8263 93.8088 28.7729C94.0222 28.7129 94.2288 28.6829 94.4288 28.6829C94.9355 28.6829 95.3322 28.7929 95.6188 29.0129C95.9122 29.2263 96.1188 29.5163 96.2388 29.8829C96.3655 30.2429 96.4288 30.6529 96.4288 31.1129V34.0229H95.3888V31.3229C95.3888 31.1096 95.3755 30.8996 95.3488 30.6929C95.3222 30.4863 95.2655 30.3029 95.1788 30.1429C95.0988 29.9763 94.9822 29.8463 94.8288 29.7529C94.6755 29.6529 94.4688 29.6029 94.2088 29.6029C93.8888 29.6029 93.6188 29.6896 93.3988 29.8629C93.1788 30.0363 93.0122 30.2696 92.8988 30.5629C92.7855 30.8563 92.7288 31.1863 92.7288 31.5529V34.0229H91.6988ZM97.6559 34.0229V28.7529H98.6859V34.0229H97.6559ZM98.1659 28.0529C97.9659 28.0529 97.8025 27.9929 97.6759 27.8729C97.5559 27.7463 97.4959 27.5863 97.4959 27.3929C97.4959 27.1996 97.5592 27.0429 97.6859 26.9229C97.8125 26.7963 97.9725 26.7329 98.1659 26.7329C98.3459 26.7329 98.5025 26.7963 98.6359 26.9229C98.7759 27.0429 98.8459 27.1996 98.8459 27.3929C98.8459 27.5863 98.7792 27.7463 98.6459 27.8729C98.5192 27.9929 98.3592 28.0529 98.1659 28.0529ZM102.251 34.0829C101.697 34.0829 101.234 33.9696 100.861 33.7429C100.494 33.5163 100.217 33.2029 100.031 32.8029C99.8506 32.3963 99.7606 31.9296 99.7606 31.4029C99.7606 30.8829 99.8539 30.4196 100.041 30.0129C100.234 29.5996 100.521 29.2763 100.901 29.0429C101.287 28.8029 101.764 28.6829 102.331 28.6829C102.717 28.6829 103.061 28.7496 103.361 28.8829C103.661 29.0096 103.904 29.1996 104.091 29.4529C104.284 29.6996 104.411 30.0096 104.471 30.3829H103.441C103.354 30.1096 103.207 29.9129 103.001 29.7929C102.801 29.6729 102.564 29.6129 102.291 29.6129C101.924 29.6129 101.631 29.6996 101.411 29.8729C101.197 30.0463 101.041 30.2696 100.941 30.5429C100.841 30.8163 100.791 31.1029 100.791 31.4029C100.791 31.7163 100.841 32.0063 100.941 32.2729C101.047 32.5396 101.207 32.7563 101.421 32.9229C101.641 33.0829 101.927 33.1629 102.281 33.1629C102.547 33.1629 102.794 33.1063 103.021 32.9929C103.247 32.8729 103.394 32.6729 103.461 32.3929H104.521C104.461 32.7796 104.321 33.0996 104.101 33.3529C103.881 33.5996 103.607 33.7829 103.281 33.9029C102.961 34.0229 102.617 34.0829 102.251 34.0829ZM107.197 34.0829C106.957 34.0829 106.724 34.0529 106.497 33.9929C106.277 33.9263 106.081 33.8296 105.907 33.7029C105.734 33.5696 105.594 33.4063 105.487 33.2129C105.387 33.0129 105.337 32.7796 105.337 32.5129C105.337 32.1929 105.397 31.9296 105.517 31.7229C105.644 31.5096 105.811 31.3463 106.017 31.2329C106.224 31.1129 106.461 31.0296 106.727 30.9829C107.001 30.9296 107.284 30.9029 107.577 30.9029H108.867C108.867 30.6429 108.827 30.4163 108.747 30.2229C108.667 30.0229 108.541 29.8696 108.367 29.7629C108.201 29.6496 107.977 29.5929 107.697 29.5929C107.531 29.5929 107.371 29.6129 107.217 29.6529C107.071 29.6863 106.944 29.7429 106.837 29.8229C106.731 29.9029 106.657 30.0096 106.617 30.1429H105.537C105.577 29.8896 105.667 29.6729 105.807 29.4929C105.947 29.3063 106.121 29.1529 106.327 29.0329C106.534 28.9129 106.754 28.8263 106.987 28.7729C107.227 28.7129 107.471 28.6829 107.717 28.6829C108.477 28.6829 109.024 28.9063 109.357 29.3529C109.697 29.7929 109.867 30.3996 109.867 31.1729V34.0229H108.977L108.937 33.3529C108.784 33.5596 108.601 33.7163 108.387 33.8229C108.181 33.9296 107.974 33.9996 107.767 34.0329C107.561 34.0663 107.371 34.0829 107.197 34.0829ZM107.357 33.2129C107.657 33.2129 107.921 33.1629 108.147 33.0629C108.374 32.9563 108.551 32.8063 108.677 32.6129C108.804 32.4129 108.867 32.1796 108.867 31.9129V31.6929H107.927C107.734 31.6929 107.544 31.6996 107.357 31.7129C107.177 31.7196 107.011 31.7463 106.857 31.7929C106.711 31.8329 106.591 31.9029 106.497 32.0029C106.411 32.1029 106.367 32.2463 106.367 32.4329C106.367 32.6129 106.414 32.7596 106.507 32.8729C106.601 32.9863 106.724 33.0729 106.877 33.1329C107.031 33.1863 107.191 33.2129 107.357 33.2129ZM107.737 28.0229C107.191 28.0229 106.761 27.9029 106.447 27.6629C106.141 27.4163 105.984 27.0529 105.977 26.5729H106.877C106.891 26.8129 106.974 26.9863 107.127 27.0929C107.281 27.1996 107.487 27.2529 107.747 27.2529C108.007 27.2529 108.214 27.1996 108.367 27.0929C108.521 26.9863 108.604 26.8129 108.617 26.5729H109.517C109.517 26.8863 109.444 27.1529 109.297 27.3729C109.151 27.5863 108.944 27.7496 108.677 27.8629C108.417 27.9696 108.104 28.0229 107.737 28.0229Z" fill="#121212"/>
<path d="M28.862 2.68456C21.4176 3.03698 15.8047 7.51782 12.9548 12.9827H16.8917C18.9742 9.88868 22.2077 7.39424 26.2953 6.46054C29.5562 5.7145 34.3334 5.86554 36.0506 6.19966C39.074 6.79008 41.2251 9.78341 41.1885 13.1154C41.152 16.5161 38.6675 20.4019 30.8532 20.2555H5.93797L4.50391 23.6561H30.8258C40.1838 23.8301 44.5225 18.7451 44.5819 13.1566C44.6321 8.44236 41.426 3.40314 36.1967 2.78067C35.1509 2.6571 33.6985 2.61133 32.2782 2.61133C30.9994 2.61133 29.7526 2.64794 28.8666 2.68914" fill="#121212"/>
<path d="M37.9899 33.9086C38.0949 34.0138 38.2365 34.0733 38.3918 34.0733C38.2365 34.0733 38.0949 34.1374 37.9899 34.2427V33.9086ZM37.9899 32.7735C38.0949 32.8787 38.2365 32.9428 38.3918 32.9428C38.2365 32.9428 38.0949 33.0069 37.9899 33.1076V32.7735ZM11.2238 24.9103C12.3747 29.4048 15.7589 33.2083 21.7692 34.6729C22.6278 34.8834 24.5414 35.1626 27.4096 35.1626C32.1593 35.1626 37.9853 35.181 37.9853 35.181V35.0436C38.0904 35.1443 38.2319 35.2084 38.3872 35.2084C38.643 35.2084 38.8576 35.0391 38.9307 34.8056C38.9718 35.0528 39.1865 35.2404 39.4468 35.2404C39.7345 35.2404 39.9674 35.007 39.9674 34.7141C39.9674 34.4212 39.7345 34.1923 39.4468 34.1923C39.2139 34.1923 39.0175 34.3434 38.949 34.5539C38.9079 34.2793 38.675 34.0688 38.3872 34.0688C38.6567 34.0688 38.885 33.8765 38.9398 33.6248C38.9992 33.8491 39.2047 34.0138 39.4468 34.0138C39.7345 34.0138 39.9674 33.7804 39.9674 33.4921C39.9674 33.2037 39.7345 32.9703 39.4468 32.9703C39.2002 32.9703 38.9946 33.1396 38.9398 33.3731C38.8805 33.1259 38.6521 32.9428 38.3918 32.9428C38.6704 32.9428 38.9033 32.7369 38.949 32.4714C39.0129 32.6865 39.2139 32.8421 39.4468 32.8421C39.7345 32.8421 39.9674 32.6087 39.9674 32.3204C39.9674 32.032 39.7345 31.7986 39.4468 31.7986C39.191 31.7986 38.9764 31.9817 38.9307 32.2242C38.8622 31.9862 38.643 31.8123 38.3872 31.8123C38.2319 31.8123 38.0904 31.8764 37.9853 31.9817V31.7894C37.9853 31.7894 31.4743 31.7711 26.4961 31.7711C23.6965 31.7711 21.2075 31.0114 20.3443 30.6406C17.4122 29.3911 15.6128 27.3315 14.7542 24.9149H11.2192L11.2238 24.9103Z" fill="#121212"/>
<path d="M28.1469 8.61178C24.58 9.09694 21.7439 10.7813 19.7709 12.9828H25.3016C27.5121 11.4312 33.1068 11.7607 33.7416 11.898C34.3399 12.0262 34.5317 12.4885 34.4723 12.9965C34.413 13.5412 33.9562 14.3238 32.5222 14.3192H8.14127L6.70264 17.7108H32.513C35.6232 17.7291 37.5734 15.7015 37.8383 13.3855C38.094 11.1703 36.7011 8.79486 33.9014 8.4882C33.125 8.40124 32.3669 8.36462 31.627 8.36462C30.435 8.36462 29.2795 8.46074 28.1423 8.61636" fill="#121212"/>
<path d="M26.2816 29.4827C21.9703 29.4323 19.1661 27.542 17.8142 24.9103H17.8188H22.1484C23.1166 25.6197 24.4776 26.0637 26.2953 26.082L44.4119 26.0774C44.6631 26.0866 44.8686 26.2559 44.9371 26.4893C44.9827 26.2467 45.1928 26.0637 45.4486 26.0637C45.7363 26.0637 45.9692 26.2971 45.9692 26.5854C45.9692 26.8738 45.7363 27.1072 45.4486 27.1072C45.2157 27.1072 45.0147 26.9562 44.9508 26.7411C44.9051 27.0019 44.6813 27.2033 44.4073 27.2125C44.6676 27.2216 44.8823 27.4047 44.9416 27.6427C44.9965 27.4139 45.202 27.2399 45.4486 27.2399C45.7363 27.2399 45.9692 27.4688 45.9692 27.7617C45.9692 28.0546 45.7363 28.2881 45.4486 28.2881C45.2111 28.2881 45.0056 28.1233 44.9462 27.899C44.896 28.1462 44.6768 28.3338 44.4119 28.343C44.6905 28.3521 44.9142 28.5581 44.9554 28.8281C45.0239 28.6176 45.2202 28.4666 45.4532 28.4666C45.7409 28.4666 45.9738 28.7 45.9738 28.9883C45.9738 29.2767 45.7409 29.5101 45.4532 29.5101C45.1928 29.5101 44.9782 29.3225 44.9371 29.0753C44.864 29.3087 44.6494 29.4781 44.3936 29.4781C44.3662 29.4781 44.3388 29.4735 44.3114 29.4735L26.2816 29.4827Z" fill="#121212"/>
<g opacity="0.8">
<path d="M46.5265 29.4689C46.2845 29.4689 46.0835 29.2721 46.0835 29.0249C46.0835 28.7823 46.2845 28.5809 46.5265 28.5809C46.7686 28.5809 46.9695 28.7777 46.9695 29.0249C46.9695 29.2721 46.7686 29.4689 46.5265 29.4689Z" fill="#121212"/>
<path d="M46.5265 28.2102C46.2845 28.2102 46.0835 28.0134 46.0835 27.7662C46.0835 27.5191 46.2845 27.3223 46.5265 27.3223C46.7686 27.3223 46.9695 27.5191 46.9695 27.7662C46.9695 28.0134 46.7686 28.2102 46.5265 28.2102Z" fill="#121212"/>
<path d="M46.5265 27.0248C46.2845 27.0248 46.0835 26.828 46.0835 26.5808C46.0835 26.3337 46.2799 26.1368 46.5265 26.1368C46.7731 26.1368 46.9695 26.3337 46.9695 26.5808C46.9695 26.828 46.7686 27.0248 46.5265 27.0248Z" fill="#121212"/>
</g>
<g opacity="0.5">
<path d="M47.7366 29.4048C47.531 29.4048 47.3666 29.24 47.3666 29.0341C47.3666 28.8281 47.531 28.6633 47.7366 28.6633C47.9421 28.6633 48.1065 28.8281 48.1065 29.0341C48.1065 29.24 47.9421 29.4048 47.7366 29.4048Z" fill="#121212"/>
<path d="M47.7366 28.1416C47.531 28.1416 47.3666 27.9722 47.3666 27.7708C47.3666 27.5649 47.531 27.4001 47.7366 27.4001C47.9421 27.4001 48.1065 27.5649 48.1065 27.7708C48.1065 27.9768 47.9421 28.1416 47.7366 28.1416Z" fill="#121212"/>
<path d="M47.732 26.9424C47.5265 26.9424 47.3621 26.7776 47.3621 26.5717C47.3621 26.3657 47.5265 26.2009 47.732 26.2009C47.9375 26.2009 48.1019 26.3657 48.1019 26.5717C48.1019 26.7776 47.9375 26.9424 47.732 26.9424Z" fill="#121212"/>
</g>
<g opacity="0.3">
<path d="M49.2665 29.3178C49.1066 29.3178 48.9788 29.1896 48.9788 29.0294C48.9788 28.8692 49.1112 28.7365 49.2665 28.7365C49.4218 28.7365 49.5542 28.8738 49.5542 29.0294C49.5542 29.1851 49.4263 29.3178 49.2665 29.3178Z" fill="#121212"/>
<path d="M49.2665 28.0729C49.1112 28.0729 48.9788 27.9401 48.9788 27.7799C48.9788 27.6243 49.1066 27.4916 49.2665 27.4916C49.4263 27.4916 49.5542 27.6197 49.5542 27.7799C49.5542 27.9401 49.4218 28.0729 49.2665 28.0729Z" fill="#121212"/>
<path d="M49.2665 26.9332C49.1066 26.9332 48.9788 26.8005 48.9788 26.6403C48.9788 26.4801 49.1112 26.3519 49.2665 26.3519C49.4218 26.3519 49.5542 26.4801 49.5542 26.6403C49.5542 26.8005 49.4263 26.9332 49.2665 26.9332Z" fill="#121212"/>
</g>
<g opacity="0.1">
<path d="M50.8422 29.2444C50.7097 29.2444 50.6001 29.1392 50.6001 29.0064C50.6001 28.8737 50.7097 28.7684 50.8422 28.7684C50.9746 28.7684 51.0796 28.8783 51.0796 29.0064C51.0796 29.1346 50.9746 29.2444 50.8422 29.2444Z" fill="#121212"/>
<path d="M50.8376 28.0636C50.7051 28.0636 50.6001 27.9583 50.6001 27.8256C50.6001 27.6974 50.7097 27.5876 50.8376 27.5876C50.9655 27.5876 51.0751 27.6929 51.0751 27.8256C51.0751 27.9583 50.97 28.0636 50.8376 28.0636Z" fill="#121212"/>
<path d="M50.8422 26.8827C50.7097 26.8827 50.6001 26.7775 50.6001 26.6447C50.6001 26.512 50.7097 26.4067 50.8422 26.4067C50.9746 26.4067 51.0796 26.5166 51.0796 26.6447C51.0796 26.7729 50.9746 26.8827 50.8422 26.8827Z" fill="#121212"/>
</g>
<g opacity="0.8">
<path d="M46.5265 29.4689C46.2845 29.4689 46.0835 29.2721 46.0835 29.0249C46.0835 28.7823 46.2845 28.5809 46.5265 28.5809C46.7686 28.5809 46.9695 28.7777 46.9695 29.0249C46.9695 29.2721 46.7686 29.4689 46.5265 29.4689Z" fill="#121212"/>
<path d="M46.5265 28.2102C46.2845 28.2102 46.0835 28.0134 46.0835 27.7662C46.0835 27.5191 46.2845 27.3223 46.5265 27.3223C46.7686 27.3223 46.9695 27.5191 46.9695 27.7662C46.9695 28.0134 46.7686 28.2102 46.5265 28.2102Z" fill="#121212"/>
<path d="M46.5265 27.0248C46.2845 27.0248 46.0835 26.828 46.0835 26.5808C46.0835 26.3337 46.2799 26.1368 46.5265 26.1368C46.7731 26.1368 46.9695 26.3337 46.9695 26.5808C46.9695 26.828 46.7686 27.0248 46.5265 27.0248Z" fill="#121212"/>
</g>
<g opacity="0.5">
<path d="M47.7366 29.4048C47.531 29.4048 47.3666 29.24 47.3666 29.0341C47.3666 28.8281 47.531 28.6633 47.7366 28.6633C47.9421 28.6633 48.1065 28.8281 48.1065 29.0341C48.1065 29.24 47.9421 29.4048 47.7366 29.4048Z" fill="#121212"/>
<path d="M47.7366 28.1416C47.531 28.1416 47.3666 27.9722 47.3666 27.7708C47.3666 27.5649 47.531 27.4001 47.7366 27.4001C47.9421 27.4001 48.1065 27.5649 48.1065 27.7708C48.1065 27.9768 47.9421 28.1416 47.7366 28.1416Z" fill="#121212"/>
<path d="M47.732 26.9424C47.5265 26.9424 47.3621 26.7776 47.3621 26.5717C47.3621 26.3657 47.5265 26.2009 47.732 26.2009C47.9375 26.2009 48.1019 26.3657 48.1019 26.5717C48.1019 26.7776 47.9375 26.9424 47.732 26.9424Z" fill="#121212"/>
</g>
<g opacity="0.3">
<path d="M49.2665 29.3178C49.1066 29.3178 48.9788 29.1896 48.9788 29.0294C48.9788 28.8692 49.1112 28.7365 49.2665 28.7365C49.4218 28.7365 49.5542 28.8738 49.5542 29.0294C49.5542 29.1851 49.4263 29.3178 49.2665 29.3178Z" fill="#121212"/>
<path d="M49.2665 28.0729C49.1112 28.0729 48.9788 27.9401 48.9788 27.7799C48.9788 27.6243 49.1066 27.4916 49.2665 27.4916C49.4263 27.4916 49.5542 27.6197 49.5542 27.7799C49.5542 27.9401 49.4218 28.0729 49.2665 28.0729Z" fill="#121212"/>
<path d="M49.2665 26.9332C49.1066 26.9332 48.9788 26.8005 48.9788 26.6403C48.9788 26.4801 49.1112 26.3519 49.2665 26.3519C49.4218 26.3519 49.5542 26.4801 49.5542 26.6403C49.5542 26.8005 49.4263 26.9332 49.2665 26.9332Z" fill="#121212"/>
</g>
<g opacity="0.1">
<path d="M50.8422 29.2444C50.7097 29.2444 50.6001 29.1392 50.6001 29.0064C50.6001 28.8737 50.7097 28.7684 50.8422 28.7684C50.9746 28.7684 51.0796 28.8783 51.0796 29.0064C51.0796 29.1346 50.9746 29.2444 50.8422 29.2444Z" fill="#121212"/>
<path d="M50.8376 28.0636C50.7051 28.0636 50.6001 27.9583 50.6001 27.8256C50.6001 27.6974 50.7097 27.5876 50.8376 27.5876C50.9655 27.5876 51.0751 27.6929 51.0751 27.8256C51.0751 27.9583 50.97 28.0636 50.8376 28.0636Z" fill="#121212"/>
<path d="M50.8422 26.8827C50.7097 26.8827 50.6001 26.7775 50.6001 26.6447C50.6001 26.512 50.7097 26.4067 50.8422 26.4067C50.9746 26.4067 51.0796 26.5166 51.0796 26.6447C51.0796 26.7729 50.9746 26.8827 50.8422 26.8827Z" fill="#121212"/>
</g>
<g opacity="0.8">
<path d="M40.528 35.1708C40.2859 35.1708 40.085 34.974 40.085 34.7268C40.085 34.4842 40.2859 34.2828 40.528 34.2828C40.77 34.2828 40.971 34.4796 40.971 34.7268C40.971 34.974 40.77 35.1708 40.528 35.1708Z" fill="#121212"/>
<path d="M40.528 33.9121C40.2859 33.9121 40.085 33.7153 40.085 33.4681C40.085 33.221 40.2859 33.0242 40.528 33.0242C40.77 33.0242 40.971 33.221 40.971 33.4681C40.971 33.7153 40.77 33.9121 40.528 33.9121Z" fill="#121212"/>
<path d="M40.528 32.7267C40.2859 32.7267 40.085 32.5299 40.085 32.2827C40.085 32.0356 40.2814 31.8387 40.528 31.8387C40.7746 31.8387 40.971 32.0356 40.971 32.2827C40.971 32.5299 40.77 32.7267 40.528 32.7267Z" fill="#121212"/>
</g>
<g opacity="0.5">
<path d="M41.7383 35.1066C41.5327 35.1066 41.3683 34.9418 41.3683 34.7358C41.3683 34.5299 41.5327 34.3651 41.7383 34.3651C41.9438 34.3651 42.1082 34.5299 42.1082 34.7358C42.1082 34.9418 41.9438 35.1066 41.7383 35.1066Z" fill="#121212"/>
<path d="M41.7383 33.8433C41.5327 33.8433 41.3683 33.674 41.3683 33.4726C41.3683 33.2666 41.5327 33.1019 41.7383 33.1019C41.9438 33.1019 42.1082 33.2666 42.1082 33.4726C42.1082 33.6786 41.9438 33.8433 41.7383 33.8433Z" fill="#121212"/>
<path d="M41.7337 32.6442C41.5282 32.6442 41.3638 32.4794 41.3638 32.2734C41.3638 32.0675 41.5282 31.9027 41.7337 31.9027C41.9392 31.9027 42.1036 32.0675 42.1036 32.2734C42.1036 32.4794 41.9392 32.6442 41.7337 32.6442Z" fill="#121212"/>
</g>
<g opacity="0.3">
<path d="M43.2682 35.0196C43.1084 35.0196 42.9805 34.8914 42.9805 34.7312C42.9805 34.571 43.1129 34.4383 43.2682 34.4383C43.4235 34.4383 43.5559 34.5756 43.5559 34.7312C43.5559 34.8868 43.428 35.0196 43.2682 35.0196Z" fill="#121212"/>
<path d="M43.2682 33.7746C43.1129 33.7746 42.9805 33.6419 42.9805 33.4817C42.9805 33.3261 43.1084 33.1934 43.2682 33.1934C43.428 33.1934 43.5559 33.3215 43.5559 33.4817C43.5559 33.6419 43.4235 33.7746 43.2682 33.7746Z" fill="#121212"/>
<path d="M43.2682 32.635C43.1084 32.635 42.9805 32.5023 42.9805 32.3421C42.9805 32.1819 43.1129 32.0537 43.2682 32.0537C43.4235 32.0537 43.5559 32.1819 43.5559 32.3421C43.5559 32.5023 43.428 32.635 43.2682 32.635Z" fill="#121212"/>
</g>
<g opacity="0.1">
<path d="M44.8439 34.9463C44.7114 34.9463 44.6018 34.8411 44.6018 34.7083C44.6018 34.5756 44.7114 34.4703 44.8439 34.4703C44.9763 34.4703 45.0813 34.5802 45.0813 34.7083C45.0813 34.8365 44.9763 34.9463 44.8439 34.9463Z" fill="#121212"/>
<path d="M44.8393 33.7655C44.7068 33.7655 44.6018 33.6602 44.6018 33.5275C44.6018 33.3993 44.7114 33.2895 44.8393 33.2895C44.9672 33.2895 45.0768 33.3948 45.0768 33.5275C45.0768 33.6602 44.9717 33.7655 44.8393 33.7655Z" fill="#121212"/>
<path d="M44.8439 32.5846C44.7114 32.5846 44.6018 32.4794 44.6018 32.3466C44.6018 32.2139 44.7114 32.1086 44.8439 32.1086C44.9763 32.1086 45.0813 32.2185 45.0813 32.3466C45.0813 32.4748 44.9763 32.5846 44.8439 32.5846Z" fill="#121212"/>
</g>
</svg>
