<svg preserveAspectRatio="none" width="100%" height="100%" overflow="visible" style="display: block;" viewBox="0 0 34.125 40.9534" fill="none" xmlns="http://www.w3.org/2000/svg">
<path id="Vector" d="M34.125 20.4767C34.125 9.18406 26.4716 0 17.0609 0C7.65013 0 0 9.18406 0 20.4767C0 31.7694 7.65343 40.9534 17.0609 40.9534C26.4683 40.9534 34.1217 31.7694 34.1217 20.4767M33.8013 20.4767C33.8013 31.5845 26.2932 40.618 17.0609 40.618C7.8285 40.618 0.320407 31.5811 0.320407 20.4767C0.320407 9.37233 7.83181 0.332036 17.0609 0.332036C26.2899 0.332036 33.8013 9.3689 33.8013 20.4733M32.7839 19.5422C32.7707 19.3916 32.7476 19.2307 32.7476 19.1999C32.741 19.1109 32.7377 18.9843 32.7311 18.8918C32.7311 18.861 32.7212 18.8439 32.698 18.8439C32.6815 18.8439 32.6749 18.8542 32.6782 18.8884V18.9329C32.6881 19.0219 32.6551 19.0527 32.6022 19.0561C32.5692 19.0561 32.4998 19.0527 32.4239 19.0288L32.0044 18.909C31.9879 18.9055 31.9812 18.8987 31.9779 18.885L31.9251 18.238C31.9251 18.238 31.9284 18.2141 31.9416 18.2072L32.5263 17.9197C32.5593 17.9026 32.5857 17.9197 32.5923 17.9402C32.5989 17.9676 32.6055 17.9813 32.6221 17.9779C32.6419 17.9779 32.6386 17.9402 32.6386 17.8889C32.6254 17.6561 32.6055 17.4439 32.5989 17.3378C32.589 17.2317 32.5824 17.2043 32.5593 17.2077C32.5395 17.2077 32.5395 17.2248 32.5395 17.2488C32.5395 17.283 32.5428 17.3275 32.5395 17.372C32.5296 17.4336 32.4965 17.5226 32.2521 17.6561C31.8359 17.882 30.7128 18.4503 30.5642 18.5358C30.5014 18.5701 30.4783 18.5906 30.4783 18.618C30.4783 18.6454 30.5146 18.6625 30.5972 18.6899L32.4437 19.2581C32.5923 19.3026 32.6914 19.3505 32.7212 19.4806C32.7278 19.5046 32.7311 19.5456 32.7344 19.5696C32.7344 19.5936 32.7443 19.6038 32.7608 19.6038C32.7839 19.6038 32.7872 19.5833 32.7839 19.5456M31.8326 18.8439C31.8326 18.8439 31.826 18.8576 31.8128 18.8576L31.0894 18.6522C31.0894 18.6522 31.063 18.6454 31.063 18.6351C31.063 18.6283 31.0762 18.6214 31.0861 18.618L31.7665 18.2928C31.7665 18.2928 31.7831 18.2928 31.7864 18.3065L31.8326 18.8405V18.8439ZM31.6708 13.4458L31.1654 13.1445L31.3239 12.5729L30.7657 12.7338L30.4915 12.2135L30.2041 12.7406L29.6591 12.5729L29.8111 13.1582L29.3123 13.4458L29.8177 13.747L29.6591 14.3186L30.2174 14.1578L30.4915 14.6781L30.7789 14.1509L31.3239 14.3186L31.172 13.7333L31.6708 13.4492V13.4458ZM30.9804 13.2233L31.347 13.4423L30.987 13.6477L31.0993 14.0722L30.7062 13.9524L30.4981 14.3358L30.2999 13.9592L29.8936 14.0756L30.0093 13.6648L29.6426 13.4458L30.0027 13.2404L29.8903 12.8159L30.2834 12.9357L30.4915 12.5523L30.6897 12.9289L31.096 12.8125L30.9804 13.2233ZM28.7276 7.7806C28.7276 7.7806 28.7342 7.74637 28.7111 7.71557C28.6417 7.62657 28.5096 7.46568 28.4667 7.41091C28.4204 7.3493 28.318 7.19868 28.2355 7.09257C28.209 7.05834 28.1925 7.04465 28.176 7.05834C28.1595 7.07203 28.1661 7.08915 28.1859 7.11311C28.209 7.14392 28.2256 7.1713 28.2355 7.19526C28.2784 7.28426 28.2553 7.33218 28.1826 7.39722C28.1132 7.45884 28.0538 7.51361 27.7136 7.79087L27.3205 8.11606C27.1157 8.28379 26.9373 8.43098 26.8349 8.49602C26.7622 8.54052 26.7061 8.56791 26.6598 8.53025C26.64 8.51314 26.6136 8.48918 26.5872 8.45495C26.5674 8.42756 26.5508 8.42414 26.5409 8.43441C26.5244 8.4481 26.531 8.46864 26.5541 8.49945C26.6235 8.59187 26.7424 8.72879 26.7821 8.78014C26.9241 8.96498 27.0265 9.12586 27.2775 9.4579C27.3667 9.57771 27.3898 9.57771 27.4493 9.55375C27.5286 9.51952 27.707 9.39629 27.7334 9.37575C27.7598 9.35521 27.7697 9.34152 27.7565 9.32782C27.7433 9.31071 27.7268 9.31756 27.7037 9.32782C27.6574 9.35863 27.5748 9.38259 27.5253 9.37917C27.4196 9.37233 27.3502 9.28333 27.2577 9.16352C27.1223 8.98552 27.0926 8.91364 27.0959 8.84517C27.0992 8.76302 27.2544 8.63637 27.5418 8.4036L27.9349 8.08183C28.2751 7.80114 28.3379 7.7498 28.4138 7.69845C28.4964 7.64026 28.5493 7.62657 28.6054 7.67791C28.6318 7.70187 28.6616 7.7361 28.6814 7.76007C28.7012 7.78745 28.7177 7.79772 28.7342 7.78403M27.0463 5.68227C27.0463 5.68227 27.0463 5.64804 27.0166 5.62408C26.9307 5.5522 26.7887 5.44266 26.7622 5.4187C26.7622 5.4187 26.6268 5.29204 26.5178 5.19962C26.4881 5.17566 26.4683 5.16539 26.4551 5.18251C26.4418 5.19962 26.4551 5.21331 26.4749 5.23385C26.498 5.25439 26.5343 5.28862 26.5475 5.30574C26.607 5.38447 26.5938 5.43581 26.5376 5.51454C26.4848 5.58985 26.4319 5.65489 26.1578 6.00404L25.9332 6.29158C25.7482 6.52777 25.5797 6.72973 25.3584 6.75369C25.1998 6.7708 25.0545 6.70577 24.9587 6.62361C24.886 6.562 24.7903 6.46615 24.7605 6.29842C24.7242 6.117 24.7737 5.92189 25.0347 5.58985L25.289 5.26808C25.5632 4.91893 25.6127 4.85389 25.6755 4.78543C25.7416 4.71012 25.7911 4.68616 25.8605 4.72382C25.8902 4.74093 25.9067 4.7512 25.9299 4.77174C25.953 4.78885 25.9695 4.7957 25.9794 4.78201C25.9926 4.76489 25.9794 4.74778 25.9464 4.72039C25.8671 4.65193 25.7251 4.54582 25.6722 4.50132C25.6061 4.44655 25.474 4.32332 25.3584 4.22405C25.3254 4.19667 25.3056 4.18982 25.2923 4.20351C25.2791 4.22063 25.289 4.23432 25.3122 4.25486C25.3419 4.28224 25.3782 4.31305 25.3914 4.33359C25.4509 4.41232 25.4377 4.46366 25.3815 4.54239C25.3287 4.62112 25.2791 4.68274 25.005 5.03189L24.7407 5.36735C24.4798 5.69939 24.4269 5.939 24.4566 6.13754C24.4963 6.42507 24.7011 6.6065 24.8167 6.70577C24.9587 6.82557 25.1338 6.93511 25.4013 6.92484C25.7151 6.91457 25.953 6.66469 26.1512 6.41138L26.3427 6.16492C26.6169 5.81577 26.6665 5.75416 26.7292 5.68227C26.7953 5.60696 26.8448 5.583 26.9142 5.62066C26.9439 5.63777 26.9571 5.64804 26.9836 5.66858C27.01 5.69254 27.0265 5.69596 27.0397 5.68227M23.7002 3.1629C23.7101 3.14236 23.6837 3.12525 23.6507 3.11156C23.5251 3.05337 23.4227 3.01913 23.393 3.00544C23.3402 2.98148 23.2179 2.91644 23.0825 2.85825C23.0429 2.84114 23.0132 2.83087 23.0065 2.8514C22.9999 2.86852 23.0065 2.87879 23.0363 2.89248C23.0726 2.9096 23.1354 2.93698 23.1651 2.97121C23.2146 3.02598 23.2179 3.0876 23.1519 3.25533L22.6696 4.48763L22.6564 4.48078C22.63 4.41916 22.445 3.87148 22.3459 3.6079C22.1312 3.04652 21.9231 2.42695 21.9066 2.37902C21.8835 2.31056 21.8736 2.26606 21.8471 2.25237C21.8207 2.2421 21.7976 2.27633 21.7745 2.3311L21.0808 3.92967C20.9784 4.16586 20.9355 4.23774 20.8595 4.2309C20.8199 4.22405 20.7703 4.20693 20.7373 4.19324C20.7108 4.18297 20.6943 4.17955 20.6877 4.19324C20.6778 4.2172 20.7009 4.2309 20.734 4.24459C20.8694 4.3062 20.9949 4.3507 21.018 4.36097C21.0676 4.38151 21.1667 4.43628 21.3351 4.51159C21.3715 4.5287 21.3979 4.53213 21.4045 4.51159C21.4111 4.49447 21.3979 4.48078 21.3682 4.47051C21.3252 4.45339 21.279 4.42601 21.2427 4.39178C21.1997 4.3507 21.1931 4.26513 21.279 4.04947L21.7249 2.8959H21.7315C21.758 2.97121 21.9033 3.44017 22.0618 3.85778C22.2138 4.25828 22.3955 4.76147 22.4913 4.99766C22.5078 5.03874 22.5243 5.08324 22.554 5.09693C22.5771 5.1072 22.597 5.08666 22.6234 5.02847L23.3666 3.32721C23.4327 3.1766 23.4756 3.12867 23.5582 3.13894C23.5912 3.14579 23.6143 3.15263 23.6408 3.16633C23.6705 3.18002 23.6903 3.18002 23.6969 3.1629M19.7595 3.86121C19.7595 3.86121 19.7529 3.83724 19.7298 3.83382C19.7067 3.83382 19.6836 3.82698 19.6505 3.81671C19.6109 3.80301 19.4986 3.76878 19.3599 3.58052C19.2145 3.37856 19.0527 3.09444 18.8413 2.73502C19.1518 2.52964 19.2608 2.33795 19.2839 2.12229C19.307 1.92376 19.2112 1.76287 19.1385 1.69784C18.9998 1.57118 18.8148 1.53011 18.6398 1.50957C18.5539 1.4993 18.3392 1.48218 18.2434 1.47191C18.1839 1.46507 18.0089 1.43426 17.8602 1.41714C17.8173 1.41372 17.7975 1.41714 17.7975 1.43768C17.7975 1.45822 17.8107 1.46507 17.8404 1.46849C17.88 1.47191 17.9263 1.48218 17.9494 1.48903C18.0386 1.51984 18.0551 1.57118 18.0518 1.67045C18.0485 1.7663 18.0386 1.84845 17.9857 2.29345L17.9263 2.81033C17.8966 3.08075 17.8701 3.31352 17.8404 3.43332C17.8206 3.51548 17.7975 3.58052 17.7413 3.58394C17.7149 3.58394 17.6818 3.58736 17.6389 3.58394C17.6059 3.58052 17.5927 3.58736 17.5927 3.60105C17.5927 3.62159 17.6092 3.63186 17.6455 3.63871C17.7578 3.6524 17.9362 3.66609 17.989 3.67294C18.032 3.67636 18.2368 3.71059 18.3986 3.73113C18.435 3.73455 18.4548 3.73113 18.4581 3.70717C18.4581 3.69348 18.4482 3.68321 18.4284 3.67978C18.3953 3.67636 18.3326 3.66267 18.2929 3.6524C18.2104 3.63186 18.2004 3.5634 18.2037 3.47782C18.2037 3.35117 18.2302 3.12183 18.2599 2.84798V2.80691C18.2665 2.78979 18.2764 2.78294 18.2896 2.78637L18.5308 2.8206C18.5506 2.8206 18.5671 2.82744 18.577 2.84798C18.61 2.8959 18.7157 3.11156 18.8082 3.28613C18.9404 3.52917 19.0295 3.68321 19.1418 3.76536C19.2112 3.81671 19.2773 3.83724 19.4358 3.85778L19.7001 3.88859C19.7331 3.89201 19.7529 3.88859 19.7562 3.86463M18.719 2.64944C18.6629 2.68025 18.6266 2.6871 18.5142 2.67683C18.4449 2.66998 18.3623 2.64944 18.3061 2.62206C18.2863 2.61179 18.283 2.5981 18.2863 2.56729L18.3854 1.67387C18.3854 1.64991 18.3953 1.63964 18.4151 1.63622C18.4449 1.62937 18.4944 1.63622 18.5638 1.64307C18.7289 1.6636 18.9767 1.81422 18.9304 2.23183C18.904 2.47145 18.8082 2.5981 18.7157 2.65287M17.0509 4.73751C13.837 4.73751 10.7782 6.29842 8.44289 9.12929C5.96552 12.1313 4.60131 16.1637 4.60131 20.4836C4.60131 24.8035 5.96552 28.8324 8.44289 31.8378C10.7782 34.6687 13.837 36.2296 17.0509 36.2296C20.2649 36.2296 23.3237 34.6687 25.659 31.8378C28.1364 28.8324 29.5006 24.8035 29.5006 20.4836C29.5006 16.1637 28.1364 12.1347 25.659 9.12929C23.3237 6.29842 20.2649 4.73751 17.0509 4.73751M25.4278 9.33467C27.8589 12.2819 29.1967 16.239 29.1967 20.4836C29.1967 24.7281 27.8589 28.6852 25.4278 31.6325C23.1519 34.3914 20.1757 35.9113 17.0509 35.9113C13.9261 35.9113 10.9533 34.3914 8.67742 31.629C6.24629 28.6818 4.9085 24.7247 4.9085 20.4836C4.9085 16.2424 6.24629 12.2819 8.67742 9.33467C10.9533 6.57569 13.9294 5.05585 17.0509 5.05585C20.1724 5.05585 23.1486 6.57569 25.4278 9.33467M25.4674 21.8049L25.4179 21.9041C25.4179 19.087 25.4179 23.3863 25.4179 16.5607V14.0482C25.398 12.59 24.853 11.3064 23.4954 10.6731C22.9306 11.0291 22.2865 11.4912 21.7877 11.9396L21.6456 12.0697C21.7348 12.2922 21.8736 12.9083 21.7745 13.3499C21.7613 13.4115 21.7513 13.4252 21.7348 13.4868C20.9982 13.569 20.3541 14.103 19.6637 14.3803C19.4755 14.4556 19.3004 14.5138 19.1154 14.5548C18.828 14.2433 18.7356 13.7983 18.6695 13.4458C18.5968 13.0418 18.6166 12.6037 18.5968 12.1279C18.6992 11.6315 18.7851 11.2071 18.6959 10.8614C18.7488 10.8716 18.8148 10.9127 18.9073 10.9949C18.8644 10.7279 18.7785 10.5704 18.6497 10.3513C18.7389 10.3513 18.8214 10.3684 18.9404 10.4129C18.8776 10.1117 18.8214 10.0569 18.6332 9.87551C18.7752 9.8139 18.8677 9.7249 18.9139 9.61194C18.4812 9.62221 18.1938 9.43052 17.8239 9.13271C17.5861 8.94102 17.1864 8.79383 16.8891 8.7596C16.4729 8.7151 15.6636 8.73221 15.766 9.35863C15.5777 9.29017 15.3168 9.22856 15.178 9.26621C15.0823 9.29359 14.9931 9.33809 14.9435 9.38259V8.92048H15.221C15.3399 8.9239 15.4522 8.95813 15.548 9.05056C15.6108 8.9684 15.6405 8.8486 15.6372 8.72537C15.6372 8.60556 15.6075 8.48233 15.548 8.40018C15.4489 8.48918 15.3366 8.52341 15.221 8.52683H14.9435V8.23587C14.9468 8.11264 14.9799 7.99626 15.0657 7.89356C14.9865 7.82853 14.8709 7.7943 14.7552 7.79772C14.6396 7.79772 14.524 7.82853 14.4447 7.89356C14.5306 7.99626 14.5637 8.11264 14.567 8.23587V8.52683H14.2895C14.1706 8.52341 14.0583 8.48918 13.9625 8.40018C13.8997 8.48233 13.87 8.60214 13.87 8.72537C13.87 8.84517 13.8997 8.9684 13.9625 9.05056C14.0616 8.96156 14.1706 8.92733 14.2895 8.92048H14.567V9.04713C14.567 9.58798 14.567 10.0638 14.567 10.6149C14.567 10.6902 14.4943 10.7724 14.4447 10.8203C14.5571 10.9059 14.6859 11.0736 14.7552 11.231C14.8246 11.0667 14.96 10.9093 15.0657 10.8203C15.0162 10.7689 14.9435 10.6902 14.9435 10.6149C14.9435 10.4848 14.9435 10.2794 14.9435 10.1528C15.2276 10.3068 15.875 10.7381 15.9609 11.0222C16.0402 11.3303 15.951 11.7479 15.9411 12.1998C15.9279 12.7646 15.5579 14.0414 14.9336 14.5651C14.0517 14.4111 13.2787 13.593 12.3737 13.4971L12.3538 13.4218C12.225 12.9802 12.3637 12.3264 12.4628 12.08L12.3208 11.9499C11.8253 11.5015 11.1779 11.0394 10.6131 10.6834C9.25547 11.3132 8.71045 12.6003 8.69063 14.0585V20.4938C8.65099 20.487 8.60805 20.4938 8.56841 20.5109C8.53208 20.5281 8.50235 20.5589 8.48583 20.5931L8.2447 20.5794C8.51226 20.2371 8.62457 19.8606 8.32398 19.1657C8.19846 19.3026 8.10267 19.4464 8.02339 19.6244C7.8285 19.2205 7.36276 18.9945 7.31651 18.9808C7.29669 19.0288 7.24384 19.5628 7.38588 19.9324C7.21081 19.9016 7.05226 19.9085 6.86728 19.9324C7.22072 20.5657 7.47837 20.6958 8.00027 20.7095L7.86484 20.9114C7.8285 20.9046 7.78886 20.9114 7.74923 20.9286C7.65674 20.9765 7.6171 21.0963 7.66334 21.1921C7.70959 21.288 7.8219 21.3291 7.91769 21.2811C8.01018 21.2332 8.04981 21.1134 8.00357 21.0176C7.99696 21.0073 7.99366 20.997 7.98705 20.9868L8.06963 20.8533L8.44619 21.644C8.18524 21.4112 7.90778 21.3599 7.62371 21.4078C7.70959 21.5721 7.79547 21.709 7.88466 21.822C7.73932 21.8151 7.59398 21.8357 7.44864 21.8802C7.83511 22.5134 8.26452 22.7804 8.69393 22.8044V23.198C8.67411 23.246 8.67411 23.2973 8.69393 23.3452V23.6944C8.61466 23.7012 8.53208 23.7149 8.4495 23.7355C8.52877 23.8827 8.61135 24.0059 8.69393 24.1086V24.2147C8.62457 24.2284 8.5552 24.2489 8.48583 24.2695C8.5519 24.3756 8.62126 24.468 8.69393 24.5536V28.8598C8.69393 29.0891 8.68733 29.6026 8.59484 29.8285C9.21914 29.4896 9.86325 28.894 10.1077 28.2128V28.4456C10.3224 28.3121 10.6758 27.6891 10.8806 27.3981C10.9698 27.3947 10.9896 27.3879 11.0788 27.3673L10.9995 27.4906C10.9632 27.4837 10.9236 27.4906 10.8872 27.5077C10.7947 27.5556 10.7551 27.6754 10.8014 27.7712C10.8476 27.8671 10.9599 27.9082 11.0524 27.8602C11.1449 27.8123 11.1845 27.6925 11.1383 27.5967C11.1317 27.5864 11.1251 27.5761 11.1218 27.5659L11.2043 27.4324L11.3596 27.761L11.2176 27.8774C11.0755 27.9869 11.0194 28.1033 11.0392 28.2231C10.8971 28.3771 11.0425 28.7092 11.1812 28.8358C11.1812 28.805 11.1911 28.7537 11.201 28.7365C11.1647 28.8119 11.3001 29.0104 11.3662 29.0035C11.3332 29.1473 11.5512 29.3527 11.6304 29.315C11.6172 29.404 11.7923 29.5855 11.9046 29.5102H11.9112L12.1028 29.339C12.1424 29.5033 12.1623 29.7018 12.1127 29.9894C12.3274 30.0236 12.5652 30.1537 12.7139 30.2667C12.7139 30.0784 12.77 29.7532 12.8691 29.5889C12.661 29.5102 12.5058 29.3664 12.3704 29.1781L12.3439 29.1234H12.3538C12.5421 28.9933 12.5785 28.9043 12.6181 28.7229C12.6775 28.5106 12.7469 28.4627 12.8328 28.3292C13.216 27.8089 13.6322 27.3194 14.0418 26.8196L14.0946 26.9839C14.3027 26.5903 14.6958 26.2035 15.0261 25.9228C15.145 25.9707 15.2639 26.0221 15.3828 26.07C15.5249 26.1282 15.6636 26.1898 15.8023 26.2617C15.548 28.0827 14.2532 29.5136 13.1961 30.8828C13.718 31.0711 14.2069 31.2901 14.6528 31.5366C15.1615 30.9341 15.6339 30.1605 15.9972 29.4485C15.7495 30.2393 15.3894 31.1635 15.0723 31.7831C15.8948 32.2999 16.6513 32.9948 17.0509 33.6178C17.4506 32.9948 18.2037 32.2999 19.0295 31.7831C18.7124 31.1601 18.3557 30.2393 18.1047 29.4485C18.4713 30.1605 18.9404 30.9307 19.4523 31.5366C19.8983 31.2901 20.3871 31.0711 20.909 30.8828C19.8751 29.5375 18.5539 28.0554 18.3028 26.2548C18.4284 26.1932 18.5539 26.1384 18.6827 26.0837C18.8214 26.0255 18.9602 25.9707 19.0956 25.9159C19.4259 26.1966 19.819 26.58 20.0271 26.9771L20.0766 26.8128C20.4862 27.3091 20.9024 27.7986 21.2856 28.3224C21.3715 28.4559 21.4442 28.5072 21.5036 28.716C21.5399 28.894 21.5763 28.983 21.7513 29.1028C21.6754 29.1165 21.606 29.161 21.5631 29.2432C21.5267 29.3116 21.5234 29.3869 21.5465 29.4588C21.4243 29.4828 21.3715 29.5992 21.4045 29.7224C21.4574 29.9449 21.4706 30.0921 21.4309 30.2667C21.5432 30.1332 21.6721 30.0613 21.8769 29.986C21.9925 29.9449 22.0552 29.8319 22.0057 29.7155C22.0751 29.695 22.1312 29.6505 22.1675 29.582C22.1808 29.5512 22.1907 29.5239 22.194 29.493L22.2072 29.5033C22.3195 29.5923 22.4979 29.404 22.488 29.315C22.5639 29.3561 22.7819 29.1473 22.7489 29.0035C22.8183 29.0104 22.9504 28.8119 22.9141 28.7365C22.9273 28.7537 22.9306 28.8016 22.9339 28.8358C23.0726 28.7092 23.218 28.3771 23.0759 28.2231C23.099 28.1033 23.0429 27.9869 22.9008 27.8774C22.9999 27.8739 23.0957 27.826 23.1486 27.7233C23.1915 27.6343 23.1882 27.5419 23.1486 27.4563C23.1783 27.4563 23.2047 27.4529 23.2312 27.4461C23.436 27.737 23.7927 28.3258 23.9909 28.449V28.2162C24.2386 28.8974 24.9059 29.5102 25.507 29.8319C25.4311 29.6128 25.4079 29.0891 25.4079 28.8632V22.9619L25.877 22.0411C25.9199 21.9589 25.9629 21.8973 26.0521 21.8699C26.0818 21.8083 26.1115 21.7467 26.095 21.6748C26.1512 21.6885 26.2106 21.6885 26.2701 21.6885C26.3196 21.4386 26.6698 20.6273 27.1157 20.8088C27.1355 20.5452 27.0992 20.3432 26.8977 20.0865C27.0496 20.0283 27.0893 19.8537 27.0133 19.7134C27.0628 19.6997 27.1025 19.6757 27.1421 19.6483C27.0562 19.484 27.0298 19.3574 27.0694 19.1725C26.9439 19.3095 26.8283 19.3574 26.6532 19.3745C26.6532 19.4258 26.6532 19.4738 26.6731 19.5217C26.5178 19.532 26.4022 19.6655 26.4418 19.8298C26.128 19.7955 25.9464 19.8777 25.7482 20.0454C26.1413 20.3329 25.6953 21.086 25.5236 21.2709C25.5566 21.3188 25.5896 21.3736 25.6326 21.4146C25.5698 21.4386 25.5335 21.5002 25.5037 21.5618C25.5302 21.6542 25.5037 21.7261 25.4641 21.8083M7.90448 21.1853C7.85162 21.2127 7.78886 21.1887 7.76244 21.1374C7.73601 21.0826 7.75914 21.0141 7.80868 20.9902C7.86153 20.9628 7.92429 20.9868 7.95072 21.0381C7.97714 21.0929 7.95733 21.1613 7.90448 21.1853ZM7.95072 20.5554C7.65013 20.5999 7.33303 20.4733 7.08529 20.0351C7.38918 20.0009 7.70959 20.1139 7.95072 20.5554ZM8.05972 20.4493C7.90117 20.2542 7.75253 20.0728 7.52791 19.9598C7.43212 19.7476 7.39909 19.5183 7.43212 19.1896C7.70629 19.3608 7.88796 19.5354 7.99366 19.7408C7.96063 19.9701 8.00357 20.2439 8.05642 20.4493M26.4716 20.0078C26.3593 20.0386 26.2337 20.0899 26.1743 20.1789C26.2932 20.4356 26.1016 20.8122 25.8175 21.3325C25.7746 21.3325 25.7383 21.3119 25.7151 21.2743C26.0091 20.8327 26.1611 20.2303 25.9398 20.0899C26.0785 19.9496 26.2833 19.9633 26.4683 19.9941C26.4683 19.9975 26.4716 20.0043 26.4749 20.0078M26.8746 19.5765C26.8283 19.5491 26.7953 19.5148 26.7887 19.4772C26.8878 19.4498 26.9505 19.395 27.0001 19.3368C26.9803 19.4087 26.9703 19.4943 27.0067 19.597C26.9703 19.6141 26.9241 19.6038 26.8779 19.5765M26.7028 19.9222C26.6169 19.8743 26.574 19.7818 26.6103 19.7134C26.6466 19.6449 26.7424 19.6278 26.8283 19.6757C26.9142 19.7236 26.9571 19.8161 26.9208 19.8845C26.8878 19.953 26.7887 19.9701 26.7028 19.9222ZM26.0752 21.4728C26.3262 20.932 26.5211 20.5589 26.7887 20.5178C26.825 20.4151 26.7953 20.2782 26.7589 20.1618C26.7656 20.1618 26.7689 20.1618 26.7755 20.1618C26.901 20.3056 27.0265 20.4733 26.9935 20.6718C26.7556 20.5623 26.3659 21.0313 26.1809 21.531C26.138 21.531 26.1049 21.5105 26.0785 21.4728M26.0157 21.4386C25.9827 21.4317 25.9629 21.4249 25.9464 21.4146C25.9265 21.4044 25.91 21.3907 25.8869 21.3667C26.0884 21.0381 26.3857 20.4562 26.2932 20.2337C26.3659 20.1002 26.531 20.0899 26.6169 20.0865C26.6665 20.1652 26.749 20.3124 26.683 20.4493C26.4584 20.4973 26.1611 21.0757 26.0124 21.4386M24.1362 27.5453V25.4538L24.5491 24.6392C24.6416 24.6357 24.7242 24.5946 24.7704 24.5056C24.8035 24.444 24.8068 24.379 24.787 24.3174C24.8662 24.3003 24.929 24.2523 24.9686 24.1736C25.0149 24.0846 25.0083 23.9922 24.9686 23.91C25.0215 23.8929 25.0644 23.8553 25.0942 23.8039V28.9043C24.493 28.449 24.1329 28.0006 24.1329 27.5453M24.4203 23.869C24.4599 23.7868 24.5888 23.7765 24.7011 23.8382C24.8167 23.9032 24.8761 24.0196 24.8332 24.0983C24.7936 24.177 24.6647 24.1907 24.5524 24.1291C24.4368 24.0641 24.3774 23.9477 24.4203 23.869ZM24.5128 24.2113C24.6152 24.2695 24.668 24.3653 24.635 24.4303C24.602 24.4954 24.493 24.5022 24.3906 24.4475C24.2882 24.3893 24.2353 24.2934 24.2684 24.2284C24.3014 24.1633 24.4104 24.1565 24.5128 24.2113ZM24.6482 23.5438C24.678 23.4856 24.7737 23.4787 24.8596 23.5301C24.9455 23.578 24.9951 23.667 24.9653 23.7218C24.9356 23.78 24.8398 23.7868 24.7539 23.7355C24.6647 23.6875 24.6185 23.602 24.6482 23.5438ZM23.545 27.1928C23.6308 27.0113 23.6507 26.7683 23.6705 26.5629C23.6804 26.4499 23.6969 26.3096 23.7465 26.2103L23.8687 25.9707V27.6035C23.7861 27.5522 23.6275 27.3502 23.545 27.1928M22.9636 27.2544C22.7984 27.1619 22.7357 26.9429 22.8249 26.7683C22.8282 26.7614 22.8315 26.7546 22.8348 26.7478C22.9372 26.5389 23.3468 26.3336 23.4855 26.0631L24.2915 24.4783C24.3278 24.5159 24.3741 24.5365 24.4203 24.5502L23.6143 26.135C23.4756 26.4089 23.545 26.8881 23.4327 27.0866C23.4327 27.0901 23.4294 27.0935 23.426 27.1003C23.3369 27.2749 23.1288 27.3434 22.9636 27.2509M24.526 14.1543V15.6981L24.1329 15.3421V14.7431L24.526 14.1543ZM24.1329 14.1543V12.8501C24.3311 13.1411 24.4302 13.367 24.5128 13.6511L24.1329 14.1543V14.1543ZM24.1329 24.4475V24.3824C24.1329 24.3824 24.1428 24.403 24.1494 24.4167L24.1329 24.4509V24.4475ZM23.3435 14.1954V15.6981L22.9933 15.3798V14.5891L23.3435 14.1954ZM22.9504 14.2159V13.1069C23.0594 13.2712 23.2047 13.4971 23.3435 13.6443L22.9504 14.2125V14.2159ZM23.4327 16.3451C23.578 16.2116 23.7233 15.9275 23.872 15.794V16.5779V24.9678L23.3534 25.9878C23.3038 26.0871 23.2014 26.1795 23.1156 26.2514C23.0759 26.2856 23.0363 26.3199 22.9933 26.3575V16.5539V15.794L23.4327 16.3451ZM23.5218 15.6981V14.2468L23.872 14.7431V15.3798L23.5218 15.6981ZM23.4954 13.6135C23.6573 13.3705 23.7828 12.9768 23.8356 12.7611L23.9149 14.2159L23.4954 13.6135ZM22.7489 27.6788C22.6399 27.6172 22.5837 27.5042 22.6267 27.4221C22.6663 27.3399 22.7885 27.3228 22.8975 27.3844C23.0065 27.4461 23.0594 27.559 23.0198 27.6412C22.9801 27.7233 22.8579 27.7404 22.7489 27.6788ZM22.0024 23.2939V15.7734L22.3294 16.2184L22.7225 15.681V16.5813V26.0426C21.9396 25.5257 21.9231 24.5228 21.933 23.7663C21.9793 23.6122 22.0024 23.4513 22.0024 23.2905M21.1171 26.313C20.9388 25.9673 20.7373 25.625 20.6877 25.2313L20.6778 25.156C21.0379 24.937 21.3748 24.6802 21.6192 24.3653C21.6522 25.204 22.0222 26.1795 22.7258 26.6279C22.7027 26.6656 22.6861 26.7101 22.6696 26.7512C22.6267 26.8504 22.6102 26.96 22.6465 27.0764C22.6564 27.1174 22.6696 27.1585 22.6927 27.1996C22.6102 27.2167 22.5375 27.2646 22.4946 27.3468C22.4648 27.4016 22.4582 27.4597 22.4648 27.5145C22.4648 27.5145 22.4582 27.5145 22.4549 27.5111C22.2633 27.4187 21.9561 27.4803 21.8075 27.381C21.7712 27.3571 21.7348 27.3091 21.7084 27.2749C21.6556 27.2064 21.6093 27.1414 21.5499 27.0798C21.3649 26.8402 21.1304 26.5184 20.952 26.2788L21.1171 26.313V26.313ZM22.4219 15.6194V14.2468L22.7291 14.6028V15.3456L22.4219 15.6228V15.6194ZM22.2534 13.4629C22.4549 13.2849 22.6036 13.0692 22.7291 12.8604V14.1783C22.5243 13.925 22.3889 13.634 22.2534 13.4629ZM22.9008 28.3361C22.9372 28.3361 22.9669 28.3121 22.9933 28.2847C23.0099 28.2813 23.0231 28.2984 23.033 28.3429C23.0561 28.4559 23.0264 28.5962 22.9669 28.6715C22.9834 28.5585 22.9405 28.4216 22.9008 28.3326M22.63 28.8427L22.2336 28.473C22.1444 28.3874 22.2336 28.2539 22.3426 28.3361C22.4846 28.4456 22.6399 28.5312 22.7753 28.6544C22.8117 28.6886 22.8183 28.7468 22.7951 28.7776L22.7489 28.8358C22.7258 28.8666 22.6696 28.8769 22.63 28.8427ZM22.5837 28.3463C22.6003 28.3155 22.6102 28.2984 22.63 28.2676C22.7456 28.3771 22.7951 28.4661 22.8183 28.5757C22.7456 28.5038 22.6564 28.4182 22.5837 28.3463ZM22.5045 28.3189C22.4681 28.2813 22.4219 28.2607 22.3723 28.247L22.4483 28.0999C22.4979 28.117 22.5408 28.1444 22.5771 28.1717L22.5012 28.3189H22.5045ZM22.0751 28.781C21.9793 28.6886 22.0916 28.5483 22.194 28.627L22.5937 28.9419C22.6333 28.9727 22.6399 29.0378 22.6135 29.072L22.5672 29.1336C22.5408 29.1644 22.4813 29.1747 22.445 29.1405L22.0751 28.7845V28.781ZM22.1114 28.384C22.0321 28.3566 22.0057 28.2676 21.9925 28.2231C22.0618 28.2094 22.1444 28.2265 22.1841 28.2539C22.151 28.271 22.1114 28.3292 22.1081 28.384M21.8934 29.072C21.8108 28.9933 21.9066 28.8495 22.0057 28.9282L22.3327 29.185C22.3723 29.2158 22.3823 29.2705 22.3558 29.3014L22.3096 29.3595C22.2832 29.3903 22.2303 29.3972 22.1907 29.3664L21.8934 29.072V29.072ZM21.9462 28.6818C21.8736 28.6304 21.8504 28.5346 21.8438 28.4901C21.9066 28.4901 21.9991 28.5106 22.0354 28.5449C22.0024 28.5585 21.9528 28.6304 21.9462 28.6818ZM21.7381 29.6573C21.7811 29.6813 21.9396 29.7635 21.8471 29.8319C21.7447 29.8935 21.6589 29.9107 21.5465 30.0339C21.5697 29.8935 21.5465 29.7806 21.5399 29.6573C21.5399 29.5375 21.6952 29.63 21.7381 29.6573M21.933 29.274C22.0255 29.3253 22.0751 29.4246 22.0387 29.4965C22.0024 29.5683 21.8967 29.582 21.8042 29.5307C21.7084 29.4793 21.6622 29.3801 21.6985 29.3082C21.7348 29.2363 21.8405 29.2226 21.933 29.274ZM21.6523 28.781C21.7546 28.7674 21.8174 28.8119 21.857 28.8392C21.824 28.8564 21.7943 28.9077 21.7943 28.959C21.715 28.9282 21.6655 28.8221 21.6523 28.7776M20.1196 26.5903L20.146 26.3712L20.4928 26.5218L20.5424 26.1316L20.7208 26.2103C20.9619 26.5253 21.1865 26.8504 21.4276 27.1619C21.6093 27.3468 21.6589 27.5556 21.9 27.5282C21.9429 27.5248 22.3228 27.5693 22.4021 27.6104C22.5441 27.6822 22.6597 27.8705 22.7654 27.915C22.8282 27.9287 22.957 28.0211 22.9669 28.093C22.9768 28.1615 22.9306 28.2231 22.8447 28.2334C22.7225 28.0964 22.5705 28.0348 22.4747 28.0109C22.1874 27.9527 22.0387 27.9287 21.8504 27.8602C22.009 27.9732 22.1378 28.0177 22.2369 28.1615C22.1345 28.1478 21.9793 28.1307 21.8703 28.1478C21.8967 28.2539 21.9429 28.3566 22.0222 28.4456C21.9661 28.4216 21.857 28.4114 21.7546 28.4182C21.7646 28.4969 21.791 28.6065 21.8339 28.7468C21.7348 28.6955 21.6919 28.6647 21.6027 28.6955C21.5565 28.4456 21.4838 28.3052 21.4045 28.2094C20.9949 27.6514 20.5457 27.1311 20.1064 26.5937M19.2773 25.8304C19.3599 25.7961 19.4391 25.7619 19.5217 25.7243C19.819 25.5908 20.1658 25.4333 20.4994 25.245C20.5424 25.4915 20.6316 25.7961 20.7538 26.0255L20.3805 25.8646L20.331 26.2548L19.9842 26.1042L19.9412 26.4431L19.2773 25.8304V25.8304ZM16.0038 26.3507C16.4498 26.6279 16.7702 26.9942 17.041 27.4495C17.3119 26.9942 17.6323 26.6279 18.0782 26.3507C18.326 27.9698 19.558 29.6573 20.4763 30.763C20.2847 30.8315 19.8586 30.9821 19.5151 31.143C18.5902 30.0989 17.7975 28.4559 17.477 27.6994C17.5431 28.7434 18.2137 30.8315 18.5076 31.6119C18.0254 31.8994 17.5993 32.2794 17.041 32.7552C16.4795 32.2794 16.0534 31.9029 15.5744 31.6119C15.8684 30.8349 16.539 28.7434 16.605 27.6994C16.2813 28.4559 15.4918 30.0989 14.5637 31.143C14.2234 30.9821 13.7973 30.8315 13.6024 30.763C14.524 29.6573 15.7528 27.9698 16.0005 26.3507M13.7445 26.2548L13.6949 25.8646L13.3217 26.0255C13.4439 25.7961 13.5331 25.4915 13.576 25.245C13.9129 25.4367 14.2565 25.5908 14.5537 25.7243C14.633 25.7619 14.7156 25.7961 14.7982 25.8304L14.1342 26.4431L14.0913 26.1042L13.7445 26.2548V26.2548ZM11.3629 14.1749V12.857C11.4917 13.0658 11.6371 13.2849 11.8385 13.4595C11.6998 13.6306 11.5644 13.9216 11.3629 14.1749M11.6701 14.2433V15.616L11.3629 15.3387V14.5959L11.6701 14.2399V14.2433ZM12.0863 15.7734V23.287C12.0863 23.4616 12.1127 23.6259 12.159 23.7765C12.1689 24.2832 12.1656 24.8411 11.898 25.5326C11.8848 25.4812 11.8683 25.4265 11.8518 25.3717C11.7626 25.4367 11.6767 25.5052 11.6007 25.5839C11.5842 25.4128 11.5347 25.2279 11.4488 25.0225C11.419 25.0465 11.3926 25.0705 11.3662 25.0944V15.6707L11.7626 16.2082L12.0863 15.7666V15.7734ZM11.7659 25.6387C11.9211 26.2206 11.7262 26.6998 11.3233 27.0147C11.2142 26.4499 11.4686 25.9468 11.7659 25.6387ZM12.4761 24.3687C12.7238 24.6871 13.0673 24.9438 13.4307 25.1629L13.4208 25.2348C13.3712 25.6318 13.1664 25.9707 12.988 26.3164L13.1532 26.2822C12.9748 26.5253 12.7403 26.847 12.5553 27.0832C12.4959 27.1448 12.4496 27.2099 12.3968 27.2783C12.3704 27.3126 12.334 27.3605 12.301 27.3844C12.149 27.4803 11.8452 27.4187 11.6536 27.5145C11.6371 27.5214 11.6205 27.5316 11.604 27.5419L11.571 27.5693C11.571 27.5693 11.5677 27.559 11.5644 27.5522L11.4422 27.2954L11.5941 27.3057C11.5941 27.3057 11.6007 27.3297 11.6073 27.3399C11.6536 27.4392 11.7659 27.4769 11.8584 27.4289C11.9509 27.381 11.9905 27.2612 11.9442 27.1654C11.898 27.0661 11.7857 27.0284 11.6932 27.0764C11.6569 27.0969 11.6271 27.1243 11.6106 27.1585L11.4686 27.1482C11.789 26.8573 11.9806 26.4773 11.9674 25.9878C12.2878 25.4915 12.4562 24.9541 12.4761 24.3653M11.7031 27.1482C11.756 27.1209 11.8187 27.1448 11.8452 27.1996C11.8716 27.2544 11.8518 27.3194 11.7989 27.3468C11.7461 27.3742 11.6833 27.3502 11.6569 27.2954C11.6304 27.2407 11.6536 27.1756 11.7064 27.1482M12.3175 28.9693C12.3175 28.9145 12.2878 28.8666 12.2547 28.8495C12.2944 28.8221 12.3571 28.7742 12.4595 28.7913C12.4463 28.8358 12.3968 28.9419 12.3175 28.9727M12.1755 29.2637L12.2481 29.185L12.2845 29.2569C12.4001 29.4485 12.552 29.5752 12.7238 29.6402C12.6544 29.7737 12.6214 29.897 12.6247 30.0784C12.4893 29.9791 12.377 29.9312 12.2283 29.897C12.268 29.6642 12.2448 29.4725 12.192 29.2979L12.1722 29.2603L12.1755 29.2637ZM12.1623 28.6955C12.1556 28.6407 12.1061 28.5722 12.0731 28.5585C12.1094 28.5243 12.2019 28.5038 12.2647 28.5038C12.2547 28.5483 12.2349 28.6441 12.1623 28.6955M11.7758 29.1987L12.0995 28.9419C12.1986 28.8632 12.2944 29.0035 12.2118 29.0857L11.9145 29.3801C11.8782 29.4143 11.822 29.404 11.7956 29.3732L11.7494 29.315C11.7229 29.2842 11.7328 29.2295 11.7725 29.1987M11.5082 28.9556L11.9079 28.6407C12.0103 28.562 12.1226 28.7023 12.0268 28.7947L11.6569 29.1507C11.6172 29.185 11.5578 29.1781 11.5314 29.1439L11.4851 29.0823C11.4587 29.048 11.4653 28.9864 11.5049 28.9522M11.9905 28.3942C11.9905 28.3395 11.9475 28.2847 11.9145 28.2642C11.9542 28.2368 12.0367 28.2197 12.1061 28.2334C12.0929 28.2744 12.0698 28.3669 11.9872 28.3942M11.3233 28.6647C11.4587 28.5449 11.6139 28.4559 11.756 28.3463C11.8617 28.2642 11.9575 28.4011 11.865 28.4832L11.4686 28.8529C11.4323 28.8872 11.3761 28.8769 11.353 28.8461L11.3067 28.7879C11.2836 28.7571 11.2869 28.6955 11.3266 28.6647M11.68 28.2368L11.6271 28.1272L11.7163 28.0999L11.756 28.182L11.68 28.2368V28.2368ZM11.2836 28.5894C11.31 28.4387 11.4389 28.2881 11.5545 28.1786C11.5743 28.2128 11.5842 28.2368 11.6007 28.2676C11.528 28.3395 11.3563 28.5175 11.2836 28.5894ZM11.201 28.3463C11.1581 28.4353 11.1185 28.5722 11.135 28.6852C11.0755 28.6099 11.0458 28.4695 11.0689 28.3566C11.0788 28.3121 11.092 28.295 11.1085 28.2984C11.135 28.3258 11.1647 28.3497 11.201 28.3497M11.6932 27.6275C11.7725 27.5898 12.1523 27.5419 12.1953 27.5453C12.4364 27.5693 12.4893 27.3639 12.6676 27.1791C12.9088 26.8676 13.1334 26.5424 13.3745 26.2274L13.5529 26.1487L13.6024 26.5389L13.9493 26.3883L13.9757 26.6074C13.5364 27.1448 13.0871 27.6651 12.6809 28.2231C12.6016 28.3189 12.5289 28.4593 12.4827 28.7092C12.3935 28.6784 12.3505 28.7092 12.2514 28.7605C12.2977 28.6202 12.3208 28.5106 12.3307 28.4319C12.2283 28.425 12.1193 28.4319 12.0632 28.4593C12.1457 28.3703 12.192 28.2676 12.2151 28.1615C12.1061 28.1444 11.9509 28.1615 11.8485 28.1752C11.9509 28.0314 12.0797 27.9869 12.2382 27.8739C12.0499 27.9424 11.9013 27.9664 11.6139 28.0246C11.5181 28.0485 11.3662 28.1101 11.244 28.247C11.1581 28.2368 11.1118 28.1752 11.1218 28.1067C11.135 28.0382 11.2605 27.9424 11.3233 27.9287C11.429 27.8842 11.5446 27.6925 11.6866 27.6241M11.2275 27.3057C11.2638 27.2954 11.2869 27.2852 11.3133 27.2646L11.4818 27.6206L11.4091 27.6891L11.2275 27.3057ZM11.059 26.4876C10.9665 26.2206 11.0458 25.6045 11.3761 25.3409C11.5247 25.7722 11.3166 26.2788 11.059 26.4876ZM9.94914 14.7431V15.3421L9.55606 15.6981V14.1543L9.94914 14.7431ZM9.56927 13.6546C9.63533 13.4526 9.73113 13.1685 9.94583 12.8536V14.1578L9.56927 13.6546V13.6546ZM9.00773 23.1741C9.00773 23.1741 8.99782 23.1535 8.98791 23.1433L9.07049 23.0098L9.51972 23.9511C9.35126 23.8073 9.17289 23.7252 8.98461 23.6944V23.3863C9.03086 23.3281 9.04076 23.246 9.00773 23.1741M9.4966 23.667L9.23235 23.1125C9.16629 22.9755 9.10352 22.89 9.10352 22.7325C9.21253 22.8284 9.24886 22.9345 9.31162 23.068L9.57918 23.6293C9.68488 23.8484 9.76085 23.9956 9.81701 24.2318C9.67828 24.0504 9.59239 23.8758 9.4966 23.667M9.3876 21.1374C9.58579 21.7159 9.45036 22.178 9.12004 22.421C8.95819 21.8528 9.09692 21.3941 9.3876 21.1374ZM9.14316 21.1374C9.11013 20.9936 9.06058 20.8396 8.98461 20.6684V15.7529L9.46687 16.3417L9.94583 15.7529V23.133C9.83022 23.3315 9.76416 23.554 9.77407 23.8176L9.32484 22.8763L9.47678 22.8865C9.47678 22.8865 9.48339 22.9105 9.48999 22.9208C9.53624 23.02 9.64855 23.0577 9.74434 23.0098C9.83683 22.9619 9.87647 22.842 9.83022 22.7462C9.78398 22.6469 9.67167 22.6093 9.57588 22.6572C9.53954 22.6777 9.51312 22.7051 9.4933 22.7394L9.25547 22.7222L9.21253 22.6332C9.60561 22.2601 9.76086 21.6748 9.45036 20.8053C9.32814 20.8978 9.22574 21.0073 9.14316 21.1339M9.58909 22.7291C9.64194 22.7017 9.7047 22.7257 9.73113 22.7804C9.75755 22.8352 9.73443 22.9002 9.68158 22.9276C9.62873 22.955 9.56597 22.931 9.53954 22.8797C9.51312 22.8249 9.53624 22.7599 9.58579 22.7291M10.2101 23.0851C10.3587 23.5164 10.187 23.9956 9.95904 24.1805C9.86656 23.9135 9.91941 23.3213 10.2101 23.0851ZM10.5635 23.3932C10.732 23.9682 10.5701 24.4303 10.2167 24.7213C10.0945 24.1633 10.3059 23.6841 10.5635 23.3932ZM10.623 26.2754C10.4909 26.1624 10.3521 26.0905 10.2035 26.046V25.3922L10.623 26.2754ZM10.2167 25.0773C10.3356 25.2074 10.3984 25.358 10.4743 25.5155L10.6428 25.8715C10.7485 26.094 10.8476 26.2822 10.9071 26.5253C10.7617 26.3336 10.6725 26.1453 10.5668 25.9262L10.3885 25.5531C10.3125 25.3956 10.2431 25.2553 10.2167 25.0773ZM10.7947 26.6108C10.4809 26.6998 9.96895 26.5698 9.72782 26.1829C10.1275 26.0666 10.6461 26.3712 10.7947 26.6108ZM9.94253 25.5189C9.88968 25.5463 9.82692 25.5223 9.80049 25.4675C9.77407 25.4128 9.79719 25.3477 9.84674 25.3203C9.89959 25.293 9.96235 25.3169 9.98877 25.3717C10.0152 25.4265 9.99208 25.4915 9.94253 25.5189ZM10.2035 14.7363L10.5536 14.2399V15.6913L10.2035 15.3729V14.7363ZM10.1605 14.2091L10.2398 12.7543C10.296 12.97 10.4182 13.3636 10.58 13.6066L10.1605 14.2091ZM10.6428 16.3382L11.0821 15.7871V16.0165V25.4093C10.9434 25.6216 10.8674 25.8612 10.8773 26.1384L10.362 25.0533L10.514 25.0636C10.514 25.0636 10.5206 25.0876 10.5272 25.0978C10.5734 25.1937 10.6857 25.2348 10.7815 25.1868C10.874 25.1389 10.9137 25.0191 10.8674 24.9233C10.8212 24.8274 10.7089 24.7863 10.6131 24.8343C10.5767 24.8514 10.547 24.8822 10.5305 24.9164L10.2927 24.8993V24.8925C10.732 24.5091 10.9302 23.9306 10.6527 23.109C10.5701 23.1707 10.4942 23.2357 10.4248 23.311C10.4017 23.1399 10.3521 22.955 10.2662 22.7565C10.2464 22.7736 10.2299 22.7907 10.2101 22.8078V15.7837C10.3554 15.9172 10.5041 16.2013 10.6494 16.3348M10.6329 24.913C10.6857 24.8856 10.7485 24.9061 10.7749 24.9609C10.8014 25.0157 10.7782 25.0807 10.7287 25.1081C10.6758 25.1355 10.6131 25.115 10.5866 25.0602C10.5602 25.0054 10.58 24.9404 10.6329 24.913ZM10.7386 15.6879V14.1851L11.0887 14.5788V15.3695L10.7386 15.6879ZM10.7386 13.6375C10.8773 13.4903 11.026 13.2643 11.135 13.1V14.2091L10.7386 13.6409V13.6375ZM11.0623 27.5967C11.0887 27.6514 11.0656 27.7165 11.0161 27.7439C10.9632 27.7712 10.9004 27.7473 10.874 27.6925C10.8476 27.6377 10.8674 27.5727 10.9203 27.5453C10.9731 27.5179 11.0359 27.5419 11.0623 27.5967ZM10.2134 27.2886C10.253 27.3057 10.3885 27.3365 10.4314 27.3502C10.3653 27.4358 10.3158 27.5077 10.2134 27.5932V27.2886ZM9.74434 26.6793C10.1605 26.6177 10.6957 26.7067 11.0623 27.138C10.58 27.2852 10.0945 27.1585 9.74434 26.6793ZM8.99122 24.8377C9.29511 25.0533 9.62212 25.1081 9.95244 25.0465V25.1834L9.9128 25.245C9.87647 25.2382 9.83683 25.245 9.80049 25.2621C9.708 25.3101 9.66837 25.4299 9.71461 25.5257C9.75755 25.6181 9.86325 25.6592 9.95244 25.6216V26.0015C9.79058 25.9947 9.62212 26.0152 9.44705 26.0597C9.54945 26.2514 9.66176 26.4054 9.78398 26.5253C9.68158 26.5424 9.57588 26.5698 9.47348 26.6074C9.62212 26.8368 9.78398 27.0113 9.95574 27.138V27.5316C9.95574 27.9869 9.5957 28.4387 8.99452 28.8906V24.8377H8.99122ZM8.75339 24.3413C9.12995 24.3003 9.62212 24.4132 9.97556 24.8514C9.53954 24.9712 9.09362 24.8274 8.75339 24.3413ZM8.73027 23.8621C9.08371 23.7628 9.56927 24.0778 9.71791 24.314C9.44045 24.3927 8.9714 24.2455 8.73027 23.8621ZM8.90533 23.3315C8.85248 23.3589 8.78972 23.3384 8.7633 23.2802C8.73687 23.2254 8.75669 23.1604 8.80954 23.133C8.86239 23.1056 8.92515 23.1296 8.95158 23.1844C8.978 23.2391 8.95819 23.3042 8.90533 23.3315ZM8.87561 22.5477C8.49244 22.6777 8.05972 22.51 7.73601 21.9966C8.10597 21.911 8.54199 22.0684 8.87561 22.5477ZM8.60475 21.9794C8.32398 22.0411 8.0366 21.9007 7.83841 21.5207C8.11918 21.4591 8.45941 21.7398 8.60475 21.9794ZM8.14891 20.4151C7.97054 19.9324 8.07294 19.6004 8.27443 19.3848C8.4561 19.8674 8.35701 20.1994 8.14891 20.4151ZM8.67081 20.8567V21.4865L8.30085 20.7095L8.4528 20.7198C8.4528 20.7198 8.45941 20.7437 8.46601 20.754C8.50565 20.8361 8.59153 20.8772 8.67411 20.8601M8.6642 20.7745C8.61135 20.8019 8.54859 20.7779 8.52217 20.7232C8.49574 20.6684 8.51886 20.6034 8.56841 20.576C8.62126 20.5486 8.68402 20.5726 8.71045 20.6273C8.73687 20.6821 8.71375 20.7471 8.6642 20.7745ZM8.75339 21.9794C8.62457 21.8117 8.54529 21.6508 8.4561 21.4626L8.26782 21.0689C8.19846 20.9217 8.1357 20.8224 8.12248 20.6547C8.23479 20.7711 8.28434 20.8841 8.35371 21.0313L8.54199 21.4249C8.63778 21.6303 8.70384 21.7604 8.75669 21.9794M8.978 20.9388C9.14647 21.3325 9.0804 21.6577 8.8657 21.8562C8.7699 21.5926 8.7633 21.1374 8.978 20.9388ZM8.99782 14.637L9.3909 14.0756V15.6981L8.99782 15.3421V14.637ZM9.15637 12.8262C9.17619 13.0247 9.25877 13.2883 9.3909 13.6888L8.99782 14.0414C8.99782 13.5074 9.02425 13.0761 9.15637 12.8262M12.0896 12.169C11.9971 12.5113 11.974 13.0487 12.0136 13.3602C11.538 12.9631 11.4818 12.7098 11.4554 12.3367C11.4554 12.3093 11.4719 12.1963 11.429 12.1895C11.3827 12.1792 11.3332 12.3025 11.2968 12.4291C11.1779 12.8228 10.9335 13.1343 10.7419 13.2951C10.4512 12.7235 10.3785 12.3025 10.4842 11.8985C10.4876 11.8814 10.4975 11.8403 10.4975 11.8267C10.4975 11.8095 10.4776 11.7445 10.4413 11.7445C10.4017 11.7377 10.3191 11.8883 10.3059 11.9122C10.0383 12.3435 9.65846 12.8536 9.46357 13.3088C9.34466 13.0008 9.29841 12.6071 9.29511 12.4942C9.58909 11.9499 9.96895 11.3406 10.5701 11.0804C11.2142 11.4878 11.7692 11.8848 12.0896 12.1724M12.704 14.8526H11.9013L11.9608 14.9553C12.04 15.0991 12.0731 15.2086 12.083 15.349L11.8617 15.5612V14.0414L12.0334 13.6511C12.1953 14.0927 12.4463 14.5685 12.704 14.8492M13.2985 14.1269C13.031 14.2159 12.8394 14.4042 12.737 14.5822C12.5752 14.3186 12.4595 14.0345 12.4298 13.8394C12.7568 13.8771 13.1136 14.0037 13.2985 14.1269ZM13.3547 14.3358C13.3811 14.4624 13.4901 14.6438 13.6553 14.8492H12.8625C12.998 14.6233 13.1928 14.4384 13.358 14.3358M14.0186 14.459C13.9096 14.5001 13.8204 14.5617 13.7577 14.6609C13.6685 14.5411 13.5793 14.3803 13.5727 14.2331L14.0186 14.459ZM14.7222 14.7534C14.6694 14.7876 14.6198 14.8218 14.5736 14.8526H13.837C13.9195 14.726 14.0385 14.6199 14.1706 14.5617C14.3192 14.6233 14.4282 14.6746 14.7222 14.7568M15.0823 10.0946C15.3102 10.1049 15.6933 10.2144 15.9213 10.341C15.8321 10.3684 15.7594 10.43 15.7231 10.5259C15.5249 10.341 15.2111 10.1425 15.079 10.0946M14.9237 9.80705C15.1979 9.71121 15.5447 9.99874 15.7032 10.1357C15.4687 10.0706 15.0988 9.96109 14.9237 10.0467C14.9237 9.95424 14.9237 9.89947 14.9237 9.80705ZM14.5571 10.8203C14.5967 10.7792 14.6429 10.6697 14.6429 10.6149C14.6429 10.365 14.6429 10.1836 14.6429 9.93371C14.6925 9.89263 14.7718 9.84813 14.8345 9.83101C14.8345 10.0877 14.8345 10.3582 14.8345 10.6183C14.8345 10.6765 14.8808 10.7826 14.9204 10.8237C14.8576 10.8785 14.7916 10.9332 14.7387 11.0325C14.6991 10.964 14.6363 10.8819 14.5571 10.8237M14.8345 8.83148V9.44763C14.7652 9.50582 14.6793 9.60852 14.6429 9.70436V9.0574V8.8486V8.83148H14.2994C14.2234 8.82806 14.0484 8.84517 13.9724 8.92048C13.9493 8.86229 13.9394 8.79725 13.9427 8.72879C13.9427 8.66033 13.9493 8.59529 13.9724 8.5371C14.0484 8.61241 14.2234 8.62952 14.2994 8.6261H14.3589H14.6429V8.26668C14.6462 8.18795 14.6297 8.0031 14.5571 7.92437C14.6099 7.90041 14.676 7.89014 14.7387 7.89356C14.8048 7.89356 14.8675 7.90041 14.9204 7.92437C14.8477 8.0031 14.8312 8.18795 14.8345 8.26668V8.32829V8.6261H15.1186H15.178C15.254 8.62952 15.4291 8.61241 15.5051 8.5371C15.5282 8.59187 15.5348 8.66033 15.5348 8.72879C15.5348 8.79725 15.5282 8.86229 15.5051 8.92048C15.4291 8.84517 15.254 8.82464 15.178 8.83148H14.8312H14.8345ZM16.1426 10.2076C15.8948 10.0296 15.4654 9.67698 15.0459 9.65302C14.9931 9.65302 14.8576 9.68725 14.7751 9.7249C14.8246 9.65302 14.8907 9.55375 14.9865 9.48186C15.1054 9.38944 15.2078 9.3689 15.3762 9.41682C15.5282 9.4579 15.6702 9.48186 15.7825 9.56059C15.8222 9.78651 16.0402 9.97136 16.1426 10.2076ZM18.9404 14.702C18.6332 14.6028 18.1905 14.2673 18.108 13.8463C18.098 13.634 18.0683 12.9323 18.0584 12.7235C18.0485 12.5147 18.0452 12.3401 18.0452 12.1176C18.0023 12.0149 17.9659 11.9636 17.9527 11.9396C17.9164 11.9944 17.8833 12.0663 17.8668 12.1176C17.8668 12.3983 17.9296 13.2746 17.9296 13.8086C17.9296 14.2639 18.0551 14.4179 18.1542 14.613C17.8668 14.435 17.5464 14.2296 17.5497 13.7812C17.5497 13.5587 17.5464 12.9768 17.5398 12.7543C17.5365 12.5318 17.5365 12.347 17.5365 12.1176C17.5101 12.0389 17.477 11.9875 17.4374 11.9396C17.3879 11.9944 17.3647 12.0492 17.3416 12.1142V13.9866C17.3515 14.2057 17.269 14.4487 17.1203 14.5788C17.0014 14.459 16.9287 14.2604 16.9155 13.9866C16.8891 13.3636 16.932 12.7475 16.932 12.1176C16.9155 12.0731 16.8693 11.9773 16.8395 11.9396C16.8032 11.9773 16.7636 12.0594 16.747 12.1176C16.7371 12.3127 16.747 12.4188 16.7371 12.6037C16.7272 12.7885 16.7239 13.6135 16.7239 13.7983C16.7338 14.0859 16.5059 14.346 16.1723 14.5754C16.2945 14.3323 16.3441 14.1372 16.387 13.8497C16.463 13.3636 16.4432 12.6482 16.4795 12.121C16.4663 12.0663 16.4332 11.9978 16.4002 11.943C16.3606 12.0047 16.3375 12.056 16.3143 12.121C16.2978 12.4188 16.3044 12.7885 16.278 13.2849C16.2086 14.1098 15.6801 14.5138 15.0889 14.7226C15.363 14.4761 15.5777 14.0414 15.7759 13.6477C15.9543 13.2917 16.0666 12.7988 16.1095 12.1587C16.1128 12.0902 16.1194 12.0218 16.1228 11.9533C16.1657 11.4843 16.1789 10.8853 15.8453 10.6662C15.9014 10.4437 16.0831 10.3753 16.2483 10.4609C16.3309 10.5019 16.4663 10.5396 16.5885 10.519C16.2681 10.1562 16.0996 9.91317 15.9543 9.56059C15.9774 9.50925 16.1459 9.53321 16.2879 9.58798C16.3606 9.61536 16.4233 9.67698 16.5191 9.69067C16.4399 9.74201 16.3639 9.77967 16.2648 9.90974C16.3837 9.96109 16.4795 10.1083 16.6645 10.1254C16.8494 10.1425 16.9287 9.98163 17.0873 9.89263C17.0377 9.82417 16.9089 9.73859 16.7768 9.68725C16.9221 9.63932 17.1666 9.52294 17.3912 9.57086C17.553 9.61878 17.6422 9.72148 17.7809 9.80363C17.7908 9.81048 17.8041 9.80705 17.8107 9.79678C17.8173 9.78651 17.8206 9.77282 17.8107 9.76598C17.6719 9.60852 17.6125 9.54348 17.4473 9.44763C17.335 9.38944 17.117 9.38944 16.9882 9.4134C16.866 9.43736 16.7074 9.46475 16.5621 9.46817C16.2978 9.47502 16.1459 9.31756 15.9113 9.36548C15.7594 8.87598 16.4663 8.85544 16.9386 8.95813C17.2623 9.0266 17.5167 9.17379 17.6257 9.25936C17.8569 9.43736 18.2203 9.65301 18.5043 9.74201C18.4482 9.77624 18.3656 9.81048 18.2764 9.81048C18.4746 9.94397 18.6034 10.122 18.6629 10.2178C18.6034 10.2007 18.5109 10.1904 18.3491 10.1904C18.4845 10.3855 18.61 10.608 18.6431 10.697C18.5902 10.6799 18.4977 10.656 18.4449 10.6457C18.5473 10.9538 18.4944 11.5802 18.3755 11.8951C18.3227 12.0286 18.3293 12.1621 18.3359 12.3025C18.3689 13.1959 18.2896 14.0243 18.9238 14.7089M16.5852 9.90974C16.5852 9.98848 16.6215 10.0501 16.6711 10.0569C16.5852 10.0501 16.5158 9.98505 16.5158 9.90974C16.5158 9.83444 16.5852 9.7694 16.6711 9.76255C16.6248 9.7694 16.5852 9.83444 16.5852 9.90974ZM16.7735 9.90974C16.7735 9.83101 16.7338 9.76255 16.681 9.76255H16.6876C16.7834 9.76255 16.8594 9.82759 16.8594 9.90974C16.8594 9.9919 16.7834 10.0569 16.6876 10.0569H16.681C16.7305 10.0569 16.7735 9.98848 16.7735 9.90974ZM16.06 14.37C16.0104 14.5856 15.918 14.7431 15.8453 14.8698H15.2837C15.6141 14.7602 15.7891 14.6507 16.06 14.37ZM16.7537 14.2776C16.8032 14.4213 16.9419 14.6986 17.1038 14.8698H16.1492C16.4828 14.6781 16.6546 14.4179 16.7537 14.2776ZM17.4506 14.2707C17.6719 14.5377 17.9098 14.7328 18.1707 14.8663H17.1071C17.2756 14.6952 17.4209 14.5309 17.4506 14.2707ZM18.8545 14.8663H18.4548C18.3755 14.7499 18.3557 14.6438 18.2995 14.5001C18.3986 14.6096 18.5935 14.7568 18.8545 14.8663ZM19.8818 14.5754C20.004 14.6438 20.1295 14.7465 20.2154 14.8663H19.4821C19.4358 14.8355 19.3863 14.8047 19.3334 14.7671C19.6274 14.6952 19.743 14.6404 19.8851 14.5719M20.4862 14.2468C20.4796 14.3905 20.3904 14.5548 20.3013 14.6746C20.2253 14.5788 20.1328 14.5206 20.0403 14.4727L20.4862 14.2468ZM20.7009 14.3494C20.8628 14.4521 21.061 14.6404 21.1964 14.8629H20.4037C20.5688 14.6575 20.6778 14.4727 20.7042 14.3494M21.6324 13.8531C21.6027 14.0482 21.4871 14.3289 21.3252 14.5959C21.2228 14.4213 21.0313 14.2296 20.7637 14.1406C20.952 14.0174 21.3087 13.8908 21.6324 13.8531M22.0288 13.6648L22.2006 14.0551V15.5749L21.976 15.3592C21.9859 15.2189 22.0189 15.1094 22.0982 14.969L22.1576 14.8663H21.3583C21.6159 14.5856 21.867 14.1098 22.0288 13.6683M24.7671 12.5078C24.7671 12.6208 24.7176 13.0145 24.5987 13.3225C24.4038 12.8673 24.0239 12.3607 23.7564 11.9259C23.7432 11.9054 23.6606 11.7513 23.6209 11.7582C23.5813 11.7582 23.5648 11.8232 23.5648 11.8403C23.5648 11.854 23.5714 11.8951 23.578 11.9122C23.6837 12.3162 23.611 12.7372 23.3203 13.3088C23.1288 13.1445 22.8843 12.8365 22.7654 12.4428C22.7291 12.3196 22.6762 12.1963 22.6333 12.2032C22.587 12.2135 22.6069 12.323 22.6069 12.3504C22.5804 12.7235 22.5243 12.9802 22.0486 13.3739C22.0883 13.0624 22.0651 12.525 21.9727 12.1827C22.2931 11.8951 22.848 11.498 23.4921 11.0907C24.0966 11.3509 24.4732 11.9602 24.7671 12.5044M25.0644 14.0551L24.6713 13.7025C24.8035 13.302 24.8894 13.0384 24.9059 12.8399C25.038 13.0898 25.0644 13.5211 25.0644 14.0551M25.0644 15.3592L24.6713 15.7152V14.0927L25.0644 14.6541V15.3592ZM25.0644 16.571V22.5477L24.7011 23.2665C24.6515 23.3624 24.5359 23.3897 24.4864 23.4787C24.4566 23.5369 24.4533 23.5985 24.4699 23.6567C24.3807 23.6704 24.3047 23.7183 24.2584 23.8039C24.2188 23.8827 24.2188 23.9648 24.2485 24.0435C24.1891 24.0641 24.1395 24.1052 24.1065 24.1668V16.5984V15.7769L24.5855 16.3656L25.0644 15.7769V16.5744V16.571ZM25.5731 21.8939C25.6326 21.7775 25.659 21.6542 25.6425 21.5892C25.659 21.555 25.7383 21.5618 25.8175 21.6063C25.8968 21.6508 25.9464 21.7124 25.9299 21.7467C25.8671 21.7672 25.7878 21.8596 25.7284 21.976L24.9884 23.4308C24.9719 23.4616 24.9686 23.4993 24.9686 23.5369C24.9158 23.4822 24.8497 23.4445 24.7638 23.424C24.7903 23.4034 24.82 23.3795 24.8398 23.3452L25.5797 21.8904L25.5731 21.8939ZM21.5664 15.2942C21.5664 17.0023 21.5664 18.7104 21.5664 20.4185C21.5664 21.3804 21.5664 22.3457 21.5664 23.3076C21.5664 23.4308 21.5466 23.554 21.5102 23.6704C21.2493 24.4988 20.0601 25.0328 19.3466 25.3511C18.8743 25.5634 18.392 25.7585 17.9296 26.0015C17.5761 26.1898 17.2227 26.3986 17.0245 26.7717C16.8263 26.3986 16.4729 26.1864 16.1228 26.0015C15.6636 25.7585 15.1813 25.5634 14.7057 25.3511C13.9955 25.0328 12.8031 24.5022 12.5421 23.6704C12.5058 23.554 12.486 23.4308 12.486 23.3076V15.2942H21.5631H21.5664ZM18.1509 17.0776L17.6686 16.7901L17.8206 16.2458L17.2888 16.3999L17.0278 15.9035L16.7537 16.4067L16.2318 16.2492L16.3771 16.8072L15.9014 17.081L16.3837 17.3686L16.2318 17.9128L16.7636 17.7588L17.0245 18.2552L17.2987 17.752L17.8206 17.9128L17.6752 17.3549L18.1509 17.081V17.0776ZM17.4903 16.8688L17.8404 17.0776L17.4969 17.2762L17.6026 17.6801L17.226 17.5671L17.0278 17.9334L16.8395 17.574L16.4531 17.6869L16.5621 17.2933L16.2119 17.0845L16.5555 16.8894L16.4498 16.4854L16.8263 16.5984L17.0245 16.2321L17.2128 16.5915L17.5993 16.4786L17.4903 16.8722V16.8688ZM13.8568 19.4669C13.4835 19.8708 12.9781 20.1926 12.4893 20.4185C12.9715 20.641 13.4769 20.9594 13.8568 21.3701C14.2366 20.9594 14.709 20.641 15.1913 20.4185C14.6991 20.1892 14.2333 19.8708 13.8568 19.4669ZM13.8469 19.8229L13.8568 19.8126L13.8667 19.8229C14.1243 20.0796 14.4084 20.2234 14.7156 20.4048L14.7387 20.4185L14.7156 20.4322C14.4084 20.6136 14.121 20.7608 13.8667 21.0141L13.8568 21.0244L13.8469 21.0141C13.5892 20.7574 13.3052 20.6136 12.998 20.4322L12.9748 20.4185L12.998 20.4048C13.3052 20.2234 13.5892 20.0762 13.8469 19.8229ZM14.1045 22.1985C13.7775 22.1985 13.5628 22.4895 13.6586 22.777C13.4274 22.5956 13.0971 22.7188 12.9947 23.044C12.8923 23.3692 13.0937 23.6704 13.3811 23.667C13.1433 23.8416 13.1532 24.2078 13.4175 24.4098C13.6817 24.6118 14.0186 24.5057 14.1045 24.2181C14.1904 24.5091 14.5273 24.6118 14.7916 24.4098C15.0558 24.2078 15.0657 23.8416 14.8279 23.667C15.1186 23.6704 15.3168 23.3692 15.2144 23.044C15.112 22.7188 14.7817 22.5956 14.5504 22.777C14.6429 22.4895 14.4315 22.1985 14.1045 22.1985ZM14.5637 23.5301C14.5835 23.4479 14.5802 23.3555 14.5537 23.2699C14.5273 23.1809 14.4778 23.109 14.415 23.0509C14.6033 22.7599 14.9105 22.7291 15.0261 23.109C15.145 23.4856 14.8775 23.6533 14.5637 23.5301ZM14.1475 23.9135C14.23 23.9066 14.3093 23.8758 14.382 23.821C14.4547 23.7663 14.5075 23.6944 14.5372 23.6157C14.8609 23.7115 14.9832 24.0093 14.676 24.2421C14.3688 24.4748 14.1342 24.2626 14.1475 23.9135M13.7577 23.5438C13.6949 23.3452 13.7973 23.1262 13.9889 23.0611C14.164 22.9995 14.3523 23.0851 14.4315 23.2528C14.4381 23.2699 14.4447 23.287 14.4513 23.3007C14.5141 23.5027 14.4117 23.7184 14.2201 23.7834C14.0285 23.8484 13.8204 23.7423 13.7577 23.5403M13.6718 23.6157C13.7048 23.6944 13.7577 23.7663 13.8271 23.821C13.8964 23.8758 13.979 23.9066 14.0616 23.9135C14.0748 24.266 13.8436 24.4783 13.5331 24.2421C13.2259 24.0093 13.3481 23.7115 13.6718 23.6157M13.794 23.0509C13.7313 23.109 13.685 23.1809 13.6553 23.2699C13.6289 23.3589 13.6256 23.4479 13.6421 23.5301C13.3283 23.6499 13.0607 23.4856 13.1796 23.109C13.2985 22.7291 13.6057 22.7599 13.7907 23.0509M14.1012 22.4073C14.4811 22.4073 14.5504 22.7222 14.3423 22.9995C14.273 22.955 14.1904 22.931 14.1012 22.931C14.012 22.931 13.9294 22.955 13.8601 22.9995C13.652 22.7222 13.7213 22.4073 14.1012 22.4073ZM15.7198 21.5173L15.3102 21.9452L15.7198 22.3731L16.1294 21.9452L15.7198 21.5173V21.5173ZM15.5249 21.9452L15.7198 21.7398L15.9147 21.9452L15.7198 22.1506L15.5249 21.9452ZM16.0468 22.4621C15.799 22.4518 15.5645 22.4381 15.3168 22.4313C15.4357 22.9584 15.5546 23.4822 15.6735 24.0093C15.6999 24.1257 15.7297 24.2455 15.7132 24.3858C15.9411 24.2797 16.1591 23.9614 16.1294 23.578L16.0468 22.4655V22.4621ZM15.9774 23.5883C15.9873 23.732 15.9576 23.934 15.8684 24.0709C15.8618 24.0812 15.8486 24.088 15.8354 24.0846C15.8222 24.0846 15.8156 24.0709 15.8123 24.0572C15.8089 23.9888 15.7957 23.9135 15.7825 23.8416C15.6999 23.4308 15.6009 22.9995 15.5084 22.599C15.6405 22.6059 15.7726 22.6127 15.9047 22.6161L15.9774 23.5883V23.5883ZM18.3755 24.0093C18.4944 23.4822 18.6133 22.9584 18.7323 22.4313C18.4845 22.4381 18.25 22.4552 18.0023 22.4621L17.9197 23.5746C17.8899 23.9614 18.108 24.2763 18.3359 24.3824C18.3194 24.2421 18.3491 24.1223 18.3755 24.0059M18.5374 22.5956C18.4482 22.9961 18.3458 23.4274 18.2632 23.8382C18.25 23.91 18.2368 23.9853 18.2335 24.0538C18.2335 24.0675 18.2236 24.0778 18.2104 24.0812C18.1971 24.0846 18.1839 24.0812 18.1773 24.0675C18.0881 23.9306 18.0551 23.732 18.0683 23.5848L18.141 22.6127C18.2731 22.6059 18.4052 22.599 18.5374 22.5956M18.326 22.3731L18.7356 21.9452L18.326 21.5173L17.9164 21.9452L18.326 22.3731ZM18.5208 21.9452L18.326 22.1506L18.1311 21.9452L18.326 21.7398L18.5208 21.9452ZM18.9998 22.9002C18.6629 23.5917 18.9998 24.3756 19.9676 24.7247C19.4689 23.6602 19.9742 22.7633 20.9454 22.7941C20.4532 22.3183 19.3896 22.0958 18.9965 22.9002M19.1815 23.068C19.383 22.664 19.8355 22.4142 20.4796 22.6709C20.1229 22.7907 19.852 23.02 19.7133 23.3247C19.5746 23.6328 19.568 24.0196 19.6505 24.3893C19.122 24.0333 18.9866 23.4616 19.1815 23.0645M20.1923 21.3701C20.5688 20.9594 21.0742 20.641 21.5565 20.4185C21.0676 20.1926 20.5655 19.8708 20.1923 19.4669C19.8157 19.8743 19.3466 20.1892 18.8545 20.4185C19.3367 20.641 19.8124 20.9594 20.1923 21.3701M20.2022 21.0141L20.1923 21.0244L20.1823 21.0141C19.9247 20.7574 19.6406 20.6136 19.3334 20.4322L19.3103 20.4185L19.3334 20.4048C19.6406 20.2234 19.928 20.0762 20.1823 19.8229L20.1923 19.8126L20.2022 19.8229C20.4598 20.0796 20.7439 20.2234 21.0511 20.4048L21.0742 20.4185L21.0511 20.4322C20.7439 20.6136 20.4598 20.7608 20.2022 21.0141ZM19.1518 21.021L18.8545 20.4185L18.762 20.2268C20.0733 19.5388 20.7934 18.1251 19.9742 16.8483C19.5613 16.2082 19.0262 15.8898 18.3986 15.5441C18.61 15.8659 18.8247 16.1842 19.0229 16.5128C19.5118 17.3275 19.5911 18.2997 18.6794 18.9466C18.4284 19.1246 18.2632 19.0082 18.0386 19.3129C17.9494 19.4327 17.7578 19.3882 17.6851 19.2752C17.5927 19.128 17.3647 19.1212 17.2458 19.2376C17.1996 19.2821 17.084 19.4019 17.0179 19.4019C16.9518 19.4019 16.8362 19.2821 16.79 19.2376C16.6711 19.1212 16.4432 19.128 16.3507 19.2752C16.278 19.3916 16.0864 19.4327 15.9972 19.3129C15.7726 19.0116 15.6075 19.1246 15.3597 18.9466C14.4447 18.2997 14.5273 17.3241 15.0162 16.5128C15.2144 16.1842 15.4291 15.8659 15.6405 15.5441C15.0129 15.8898 14.4778 16.2082 14.0649 16.8483C13.2424 18.1251 13.9658 19.5422 15.2771 20.2268L15.1847 20.4185L14.8874 21.021L15.0889 21.0586C15.7099 21.175 16.245 21.5413 16.2615 22.2533C16.2714 22.8044 16.2912 23.3589 16.3077 23.91C16.3077 24.088 16.2582 24.2044 16.1228 24.3242C15.9543 24.4748 15.7792 24.6186 15.6075 24.7658C15.4621 24.889 15.4687 25.1321 15.5381 25.2964C15.5942 25.4333 15.766 25.4401 15.8882 25.4744C16.0699 25.5257 16.2218 25.6216 16.3639 25.7516C16.529 25.9057 16.8098 25.9878 17.0245 25.9844C17.2392 25.9844 17.52 25.9023 17.6851 25.7516C17.8272 25.6216 17.9758 25.5257 18.1608 25.4744C18.283 25.4401 18.4515 25.4333 18.5109 25.2964C18.5803 25.1321 18.5869 24.889 18.4416 24.7658C18.2698 24.6186 18.0947 24.4748 17.9263 24.3242C17.7909 24.2044 17.7413 24.0915 17.7413 23.91C17.7578 23.3589 17.7743 22.8078 17.7875 22.2533C17.8041 21.5413 18.3392 21.1784 18.9602 21.0586L19.1617 21.021H19.1518ZM18.9007 20.8909C18.2137 21.0278 17.629 21.4557 17.6125 22.2533C17.5993 22.8044 17.5828 23.3589 17.5662 23.91C17.5596 24.1462 17.6389 24.3037 17.8074 24.4577C17.9791 24.6083 18.1542 24.7521 18.326 24.8993C18.4085 24.9678 18.3854 25.1389 18.3491 25.2245C18.3293 25.2724 18.1509 25.293 18.108 25.3066C17.8999 25.3648 17.7281 25.4504 17.5662 25.601C17.4275 25.7174 17.1963 25.7927 17.0146 25.7893C16.8362 25.7893 16.605 25.7174 16.463 25.5976C16.3011 25.4504 16.1294 25.3648 15.9213 25.3032C15.8783 25.2895 15.6999 25.2724 15.6801 25.2211C15.6438 25.1321 15.6207 24.9643 15.7032 24.8959C15.875 24.7487 16.0534 24.6049 16.2218 24.4543C16.3903 24.3037 16.4696 24.1428 16.463 23.9066C16.4465 23.3555 16.4299 22.8044 16.4167 22.2499C16.4002 21.4523 15.8156 21.0244 15.1285 20.8875L15.4952 20.1413L15.4786 20.1344C14.742 19.7955 14.0583 19.1383 13.9261 18.2723C13.8469 17.7451 13.9922 17.2454 14.2862 16.814C14.5141 16.482 14.8411 16.1192 15.1847 15.9241C15.2111 15.9069 15.2507 15.9377 15.2276 15.9651C14.8841 16.4307 14.5075 17.0057 14.4745 17.6082C14.4381 18.238 14.7949 18.7207 15.254 19.0835C15.3201 19.1383 15.3928 19.1794 15.472 19.2068C15.5282 19.2239 15.5876 19.2341 15.6438 19.2547C15.7363 19.2821 15.7957 19.3334 15.8552 19.4156C16.0137 19.6278 16.3441 19.5799 16.4795 19.3676C16.5158 19.3095 16.6248 19.3197 16.6678 19.3608C16.7603 19.4464 16.8759 19.5696 17.008 19.5696C17.1401 19.5696 17.2557 19.4464 17.3482 19.3608C17.3912 19.3163 17.5002 19.3095 17.5365 19.3676C17.6719 19.5833 18.0023 19.6312 18.1608 19.4156C18.2203 19.3368 18.2797 19.2855 18.3722 19.2547C18.4284 19.2376 18.4878 19.2273 18.544 19.2068C18.6232 19.1794 18.6959 19.1383 18.762 19.0835C19.2211 18.7173 19.5779 18.238 19.5415 17.6082C19.5151 17.1529 19.2938 16.7148 19.0527 16.3451C18.9668 16.215 18.8776 16.0884 18.7884 15.9651C18.7653 15.9377 18.8049 15.9069 18.8313 15.9241C19.1749 16.1192 19.5052 16.482 19.7298 16.814C20.0238 17.2454 20.1691 17.7417 20.0899 18.2723C19.9577 19.1383 19.274 19.7955 18.5374 20.1344L18.5242 20.1413L18.8908 20.8875L18.9007 20.8909ZM17.5167 24.9164C17.4308 24.9164 17.3647 24.9849 17.3647 25.0705C17.3647 25.156 17.4341 25.2245 17.5167 25.2245C17.5993 25.2245 18.0518 25.1458 18.0518 25.0328C18.0518 24.9198 17.6026 24.913 17.5167 24.913M16.6744 25.067C16.6744 24.9815 16.605 24.913 16.5224 24.913C16.4399 24.913 15.9873 24.9198 15.9873 25.0328C15.9873 25.1458 16.4366 25.2245 16.5224 25.2245C16.6083 25.2245 16.6744 25.156 16.6744 25.0705M15.69 9.67698C15.6735 9.61194 15.4852 9.60167 15.4324 9.60852C15.4918 9.6359 15.5843 9.69409 15.6471 9.74201C15.6768 9.76598 15.7032 9.73517 15.69 9.67355M15.9906 3.62159C15.9972 3.55998 15.9906 3.35802 15.9807 3.29298C15.9774 3.26559 15.9741 3.24163 15.951 3.24506C15.9312 3.24506 15.9279 3.26217 15.9246 3.29298C15.9246 3.41621 15.8981 3.48125 15.8288 3.52917C15.7627 3.57709 15.6438 3.59078 15.5711 3.60448C15.2871 3.64555 15.2375 3.6079 15.2012 3.40936C15.188 3.32379 15.1516 3.05337 15.1384 2.95752L15.1054 2.72475C15.1054 2.70764 15.1054 2.69394 15.1186 2.69394C15.1847 2.68368 15.4621 2.64602 15.515 2.6426C15.6207 2.63918 15.6636 2.67683 15.6867 2.73502C15.6999 2.77267 15.7066 2.81033 15.7132 2.83771C15.7132 2.8514 15.7231 2.86167 15.7429 2.86167C15.7693 2.86167 15.7627 2.82744 15.7594 2.80348C15.7594 2.78294 15.7462 2.66656 15.7429 2.60494C15.7297 2.45433 15.7396 2.40641 15.7363 2.38929C15.7363 2.37218 15.7231 2.36533 15.7132 2.36875C15.6999 2.36875 15.69 2.38587 15.6735 2.41325C15.6537 2.44748 15.6108 2.46118 15.5447 2.47829C15.4819 2.49198 15.1615 2.53991 15.0988 2.55018C15.0823 2.55018 15.079 2.53991 15.0756 2.51937L14.9733 1.77999C14.9733 1.75945 14.9733 1.74918 14.9898 1.74918C15.0459 1.74234 15.3399 1.70126 15.3861 1.70126C15.5282 1.70126 15.5612 1.72864 15.5876 1.77999C15.6075 1.81422 15.6174 1.86214 15.6207 1.88268C15.624 1.91006 15.6306 1.92376 15.6504 1.92033C15.6702 1.92033 15.6735 1.8998 15.6735 1.88268C15.6735 1.84503 15.6603 1.71837 15.6603 1.68757C15.6504 1.55064 15.6603 1.51299 15.657 1.49245C15.657 1.47876 15.6504 1.46849 15.6372 1.46849C15.624 1.46849 15.6075 1.48218 15.5942 1.48561C15.5711 1.49588 15.5282 1.50614 15.4753 1.51984C15.4225 1.53011 14.8675 1.61226 14.7784 1.62595C14.6991 1.63622 14.524 1.65334 14.3754 1.6773C14.3324 1.68414 14.3159 1.69099 14.3159 1.71153C14.3159 1.73207 14.3357 1.73549 14.3655 1.73207C14.4051 1.72522 14.4513 1.7218 14.4745 1.72522C14.5703 1.73207 14.5967 1.77657 14.6165 1.87583C14.6363 1.96826 14.6462 2.05041 14.709 2.49541L14.7817 3.01229C14.818 3.28271 14.851 3.51205 14.8543 3.63871C14.8543 3.72428 14.851 3.79275 14.7949 3.81328C14.7718 3.82355 14.7387 3.83382 14.6958 3.84067C14.6628 3.84751 14.6528 3.85778 14.6561 3.87148C14.6561 3.89201 14.6793 3.89886 14.7156 3.89201C14.8279 3.8749 14.9997 3.84067 15.0657 3.8304C15.2309 3.80644 15.4192 3.79617 15.8387 3.73113C15.9444 3.71401 15.9708 3.71059 15.9774 3.63186M12.6875 2.12229C12.6809 2.10176 12.6577 2.10518 12.6214 2.12229C12.5421 2.15652 12.4232 2.21814 12.3803 2.23526C12.3472 2.24895 12.2349 2.29002 12.1028 2.34479C12.0533 2.36533 12.0334 2.38245 12.04 2.40298C12.0466 2.42352 12.0698 2.41668 12.0929 2.40298C12.1259 2.38929 12.1656 2.3756 12.2019 2.37218C12.2283 2.37218 12.2481 2.38929 12.258 2.40983C12.268 2.43379 12.2746 2.47829 12.2746 2.51937C12.2845 2.72817 12.301 3.75167 12.3109 4.10082H12.301L11.353 3.06021C11.277 2.97806 11.2242 2.9096 11.2076 2.87537C11.1977 2.8514 11.1977 2.82744 11.2076 2.80691C11.2209 2.78294 11.2605 2.76241 11.3001 2.74529C11.3233 2.73502 11.3365 2.72133 11.3299 2.70421C11.3233 2.6871 11.2902 2.69052 11.2605 2.70421C11.1317 2.76241 11.0095 2.82402 10.9434 2.8514C10.8509 2.88906 10.7023 2.94725 10.5635 3.00544C10.5239 3.02256 10.4975 3.03625 10.5074 3.06021C10.514 3.07733 10.5239 3.08075 10.547 3.07048C10.5668 3.06021 10.6098 3.0431 10.6527 3.03625C10.7584 3.02256 10.8146 3.03625 10.9335 3.15948L12.2614 4.54239C12.3637 4.64851 12.3935 4.67932 12.4265 4.66562C12.4628 4.64851 12.4595 4.60059 12.4661 4.41232C12.4661 4.25143 12.4695 3.90228 12.4761 3.4299C12.4794 3.03283 12.4926 2.85483 12.4893 2.5536C12.4893 2.34822 12.5091 2.2866 12.5322 2.24552C12.5652 2.19418 12.6214 2.17022 12.6478 2.15652C12.6742 2.14626 12.6875 2.13256 12.6809 2.11545M9.96235 5.87396C10.0251 5.55562 9.84674 5.25781 9.65515 4.99766L9.47018 4.74778C9.20592 4.39178 9.15968 4.32332 9.10683 4.24459C9.05067 4.15901 9.04076 4.10424 9.09031 4.04605C9.11343 4.01867 9.12665 4.0084 9.14977 3.98786C9.17619 3.96732 9.1861 3.95021 9.17619 3.93651C9.16298 3.9194 9.14316 3.92624 9.11343 3.95363C9.02755 4.02209 8.88882 4.1419 8.86239 4.16243C8.86239 4.16243 8.71375 4.26855 8.60144 4.35755C8.56841 4.38151 8.5585 4.39863 8.56841 4.41574C8.58162 4.43286 8.59814 4.42601 8.62126 4.40547C8.64769 4.38493 8.68733 4.35755 8.70714 4.34728C8.79303 4.3062 8.83927 4.33016 8.90203 4.40547C8.96149 4.47736 9.01104 4.54239 9.27199 4.90181L9.48669 5.1962C9.66506 5.43923 9.8137 5.65489 9.78728 5.88081C9.76746 6.04512 9.67167 6.17519 9.57257 6.2505C9.4966 6.31211 9.3876 6.384 9.22244 6.37373C9.04407 6.36688 8.8723 6.27446 8.62126 5.93215L8.38013 5.60354C8.11588 5.24754 8.06963 5.17908 8.01678 5.10035C7.96063 5.01478 7.94742 4.96001 8.00027 4.90181C8.02339 4.87785 8.0366 4.86416 8.05972 4.84362C8.08285 4.82651 8.09276 4.80939 8.07954 4.79228C8.06633 4.77516 8.04651 4.78543 8.01348 4.80939C7.9342 4.87101 7.79877 4.99081 7.74262 5.03189C7.67656 5.08324 7.52791 5.18935 7.409 5.28177C7.37597 5.30916 7.36276 5.32627 7.37597 5.34339C7.38918 5.3605 7.4057 5.35366 7.42882 5.33312C7.45855 5.30916 7.49819 5.28177 7.52131 5.2715C7.60719 5.23043 7.65344 5.25439 7.7162 5.3297C7.77565 5.40158 7.8252 5.46662 8.08615 5.82604L8.34049 6.16835C8.59153 6.51065 8.80294 6.61676 8.99782 6.63388C9.27529 6.66126 9.4966 6.49696 9.61551 6.40454C9.76085 6.28815 9.90289 6.13754 9.95574 5.86712M7.43212 8.23587L7.18769 8.03391C7.07538 7.94149 6.98619 7.86618 6.92343 7.81141C6.84746 7.74295 6.82764 7.6916 6.86398 7.61972C6.88049 7.58891 6.8904 7.5718 6.90362 7.55126C6.91683 7.53414 6.92343 7.51703 6.91022 7.50676C6.89371 7.49307 6.87719 7.50676 6.85407 7.53414C6.79792 7.60945 6.70873 7.7361 6.65588 7.80457C6.60303 7.87303 6.48411 8.00995 6.39493 8.12976C6.37181 8.16056 6.3619 8.1811 6.38172 8.19479C6.39493 8.20506 6.41144 8.19479 6.42466 8.17426C6.44778 8.14345 6.48081 8.10579 6.50063 8.0921C6.5733 8.03049 6.62615 8.03733 6.70212 8.09895C6.77149 8.15029 6.85407 8.22218 6.96638 8.3146L7.17448 8.48918C7.21411 8.51998 7.23393 8.55421 7.22402 8.59871C7.20751 8.67402 7.14475 8.75275 7.0985 8.81094C6.72855 9.29017 6.12737 9.30729 5.64841 8.91021C5.37425 8.68429 5.27185 8.46179 5.26525 8.24614C5.25864 7.97914 5.37755 7.80457 5.47665 7.68134C5.67484 7.42461 5.91927 7.32534 6.04149 7.31849C6.15049 7.31165 6.22977 7.35957 6.28592 7.3938C6.30574 7.40749 6.31896 7.41091 6.33217 7.3938C6.34538 7.37668 6.33877 7.35957 6.30574 7.32876C6.02828 7.09942 5.97873 7.03096 5.9523 7.01042C5.93579 6.99672 5.92588 6.9933 5.90276 7.02069C5.85982 7.07203 5.78384 7.14049 5.7409 7.18157C5.69796 7.21922 5.51629 7.39722 5.39407 7.55468C5.24543 7.74637 5.10669 7.96203 5.06706 8.28722C5.03072 8.59529 5.13312 8.99236 5.48986 9.28675C6.10425 9.79678 6.74506 9.51609 7.17448 8.95813C7.30991 8.78014 7.45855 8.5371 7.49819 8.32487C7.50479 8.28379 7.49819 8.27695 7.44203 8.22902M4.73674 13.4492L4.23136 13.148L4.38991 12.5763L3.83167 12.7372L3.55751 12.2169L3.27013 12.744L2.72511 12.5763L2.87706 13.1616L2.37828 13.4492L2.88366 13.7504L2.72511 14.3221L3.28335 14.1612L3.55751 14.6815L3.84488 14.1543L4.38991 14.3221L4.23466 13.7367L4.73344 13.4526L4.73674 13.4492ZM4.04638 13.2267L4.41303 13.4458L4.05298 13.6511L4.16529 14.0756L3.77222 13.9558L3.56412 14.3392L3.36593 13.9626L2.95964 14.079L3.07525 13.6683L2.7086 13.4492L3.06864 13.2438L2.95633 12.8193L3.34941 12.9391L3.55751 12.5558L3.7557 12.9323L4.16199 12.8159L4.04638 13.2267ZM2.77136 17.7588L2.27258 17.7109C2.01163 17.6869 1.78701 17.663 1.6681 17.639C1.58552 17.6185 1.52606 17.5979 1.51946 17.5397C1.51946 17.5124 1.51285 17.4781 1.51946 17.4336C1.51946 17.3994 1.51615 17.3857 1.49964 17.3857C1.47982 17.3857 1.46991 17.4028 1.46661 17.4405C1.4567 17.5569 1.44679 17.7417 1.44348 17.7965C1.44018 17.841 1.41045 18.0532 1.39724 18.2209C1.39394 18.2586 1.40054 18.2791 1.42036 18.2825C1.43357 18.2825 1.44348 18.2723 1.44679 18.2517C1.44679 18.2175 1.46 18.1525 1.46991 18.1114C1.48973 18.0258 1.55249 18.0121 1.63507 18.0121C1.75728 18.0121 1.9786 18.0327 2.24285 18.0566H2.28249C2.299 18.0635 2.30561 18.0703 2.30231 18.084L2.27258 18.3373C2.27258 18.3578 2.26597 18.375 2.24946 18.3887C2.20321 18.4229 1.99842 18.5358 1.82995 18.6385C1.59543 18.7789 1.45339 18.8781 1.37742 18.9945C1.33118 19.0664 1.31136 19.1383 1.29484 19.2992L1.26842 19.5765C1.26511 19.6107 1.26842 19.6312 1.29154 19.6346C1.30475 19.6346 1.31466 19.6244 1.31796 19.6004C1.31796 19.5765 1.32457 19.5525 1.33448 19.5183C1.34769 19.4772 1.37742 19.3574 1.55579 19.2136C1.74737 19.0596 2.01823 18.885 2.35846 18.6556C2.56326 18.9706 2.74823 19.0801 2.95964 19.1006C3.15122 19.1178 3.30647 19.0185 3.36593 18.9398C3.48484 18.7926 3.52117 18.6009 3.53769 18.416C3.5443 18.327 3.55751 18.1045 3.56742 18.0053C3.57403 17.9437 3.59715 17.7622 3.61036 17.6082C3.61366 17.5637 3.61036 17.5432 3.59054 17.5432C3.57072 17.5432 3.56412 17.5568 3.56081 17.5911C3.55751 17.6322 3.5509 17.6801 3.54099 17.704C3.51127 17.7965 3.46502 17.817 3.36923 17.8136C3.27674 17.8136 3.19746 17.8033 2.76805 17.7622M2.51371 18.084L3.37584 18.1696C3.39896 18.1696 3.40887 18.1798 3.41217 18.2004C3.41878 18.2312 3.41547 18.2825 3.41217 18.3544C3.39565 18.5256 3.25692 18.7891 2.85063 18.7481C2.61941 18.7241 2.49389 18.6283 2.44104 18.5358C2.40801 18.4811 2.4014 18.44 2.41131 18.3236C2.41792 18.2517 2.43443 18.1662 2.46086 18.1045C2.47077 18.084 2.48398 18.0806 2.51371 18.084M1.29484 21.11C1.30145 21.2264 1.32127 21.4112 1.32457 21.4762C1.33448 21.6474 1.32787 21.8459 1.3543 22.2841C1.3609 22.3936 1.3609 22.421 1.43688 22.4347C1.49633 22.445 1.69122 22.4587 1.75398 22.4518C1.78371 22.4518 1.80683 22.4518 1.80353 22.4244C1.80353 22.4039 1.79032 22.397 1.76059 22.3936C1.64167 22.3799 1.57891 22.3491 1.54258 22.2772C1.50294 22.2019 1.49633 22.0821 1.49303 22.0068C1.47651 21.709 1.51615 21.6611 1.71104 21.644C1.79362 21.6371 2.05457 21.6234 2.15366 21.6166L2.37828 21.6029C2.39479 21.6029 2.40801 21.6029 2.40801 21.62C2.41131 21.6885 2.42452 21.9794 2.42452 22.0342C2.41792 22.1437 2.37828 22.1848 2.32213 22.2054C2.28579 22.2156 2.24946 22.2191 2.21973 22.2225C2.20651 22.2225 2.1933 22.2293 2.19661 22.2499C2.19661 22.2772 2.22964 22.2738 2.25276 22.2738C2.27258 22.2738 2.38819 22.2738 2.44434 22.2738C2.58968 22.2738 2.63593 22.2841 2.65244 22.2841C2.66896 22.2841 2.67556 22.2738 2.67556 22.2636C2.67556 22.2499 2.65905 22.2396 2.63593 22.2191C2.6062 22.1951 2.59629 22.1506 2.58638 22.0821C2.57647 22.0171 2.55665 21.6816 2.55335 21.6166C2.55335 21.5995 2.56326 21.5961 2.58308 21.5926L3.30317 21.5481C3.32298 21.5481 3.33289 21.5516 3.33289 21.5652C3.3362 21.6234 3.34941 21.9281 3.34611 21.9794C3.3362 22.1266 3.30647 22.1574 3.25362 22.1814C3.22059 22.1985 3.17104 22.2054 3.15122 22.2054C3.12479 22.2054 3.11158 22.2156 3.11158 22.2327C3.11158 22.2533 3.1314 22.2567 3.14461 22.2601C3.18095 22.2635 3.30647 22.2601 3.33289 22.2601C3.46502 22.2601 3.49805 22.2738 3.52117 22.2704C3.53439 22.2704 3.5476 22.267 3.5443 22.2499C3.5443 22.2362 3.53439 22.2191 3.53108 22.2054C3.52448 22.1814 3.51457 22.1369 3.50796 22.0821C3.50136 22.0274 3.46832 21.4489 3.46502 21.353C3.46172 21.2709 3.45841 21.0894 3.4485 20.932C3.4485 20.8875 3.4386 20.8669 3.41878 20.8704C3.39896 20.8704 3.39565 20.8909 3.39565 20.9217C3.39565 20.9628 3.39565 21.0141 3.39565 21.0347C3.38244 21.1305 3.3362 21.1579 3.24041 21.1682C3.15122 21.1784 3.06864 21.1853 2.63593 21.2127L2.13385 21.2435C1.87289 21.2606 1.64498 21.2743 1.52606 21.2674C1.44348 21.2606 1.38072 21.2503 1.36421 21.1921C1.3576 21.1647 1.35099 21.1305 1.34769 21.0894C1.34769 21.0552 1.33778 21.0449 1.32127 21.0449C1.30145 21.0449 1.29484 21.0655 1.29484 21.1031M1.64498 24.3448C1.62516 24.3482 1.62185 24.3722 1.62846 24.4064C1.65158 24.5193 1.69783 24.6973 1.71104 24.7658C1.72756 24.8411 1.75398 25.0225 1.79362 25.2108C1.80023 25.2416 1.81344 25.2621 1.83326 25.2587C1.84647 25.2587 1.85308 25.2382 1.84647 25.2074C1.83656 25.1663 1.82995 25.1013 1.82665 25.0602C1.82004 24.9712 1.8795 24.9404 1.95547 24.9164C2.07108 24.8753 2.2924 24.8274 2.55004 24.7692L3.66651 24.5228C3.69624 24.5159 3.71606 24.5228 3.72267 24.533C3.73588 24.557 3.74909 24.5981 3.7557 24.6426C3.76891 24.7076 3.77552 24.8274 3.70615 24.9506C3.60045 25.1423 3.41547 25.1903 3.32298 25.2108C3.03891 25.2724 2.8176 25.091 2.78457 24.9301C2.77136 24.8719 2.75814 24.8514 2.73832 24.8582C2.71851 24.8617 2.72181 24.8822 2.72181 24.8993C2.72181 24.913 2.72841 24.9438 2.73172 24.9609C2.8143 25.3648 3.15452 25.601 3.5509 25.512C3.69955 25.4778 3.80855 25.3717 3.85479 25.2964C3.88783 25.2416 3.97701 25.0876 3.90434 24.7316C3.87792 24.6015 3.83498 24.4372 3.81185 24.3208C3.79534 24.2421 3.76561 24.0607 3.73588 23.91C3.72597 23.869 3.71606 23.8484 3.69955 23.8518C3.67973 23.8553 3.67642 23.8758 3.68303 23.9066C3.68964 23.9477 3.69955 23.9956 3.69624 24.0196C3.69624 24.1188 3.6566 24.1497 3.56412 24.177C3.47493 24.201 3.39896 24.2181 2.97285 24.314L2.48068 24.4235C2.22303 24.4817 2.00502 24.5296 1.8828 24.5399C1.80023 24.5467 1.73416 24.5467 1.71104 24.492C1.70113 24.468 1.68792 24.4338 1.67801 24.3927C1.6714 24.3585 1.66149 24.3482 1.64498 24.3516M2.72511 27.9698C2.62602 28.2402 2.72181 28.5038 2.77796 28.6475C2.84733 28.8255 2.95303 29.007 3.18755 29.1302C3.46832 29.2774 3.79203 29.1747 4.08271 29.0515L4.36679 28.9317C4.76977 28.7639 4.84244 28.7331 4.92832 28.7023C5.02411 28.6681 5.07697 28.6715 5.11991 28.74C5.13642 28.7708 5.14633 28.7845 5.15954 28.8153C5.17276 28.8495 5.18267 28.8632 5.20249 28.8529C5.2223 28.8461 5.219 28.8255 5.20249 28.7879C5.16285 28.6818 5.08688 28.514 5.07366 28.4832C5.07366 28.4832 5.01421 28.3052 4.96135 28.1683C4.94814 28.1307 4.93493 28.1136 4.91511 28.1204C4.89529 28.1272 4.89859 28.1478 4.9085 28.1752C4.92172 28.206 4.93493 28.2505 4.93823 28.2744C4.95475 28.3703 4.92172 28.4114 4.83253 28.4524C4.74995 28.4935 4.67728 28.5243 4.2743 28.692L3.94398 28.829C3.66982 28.9419 3.42869 29.0344 3.22719 28.9488C3.07855 28.8837 2.98606 28.7537 2.93982 28.6339C2.90348 28.5414 2.86715 28.4148 2.9167 28.2505C2.96955 28.0725 3.10167 27.9287 3.48484 27.7678L3.85479 27.6138C4.25778 27.4461 4.33045 27.4152 4.41633 27.3844C4.51212 27.3502 4.56497 27.3536 4.60461 27.4221C4.62113 27.4529 4.63104 27.4666 4.64425 27.4974C4.65416 27.5248 4.66737 27.5385 4.68389 27.5316C4.70371 27.5248 4.7004 27.5042 4.68389 27.4632C4.64755 27.3673 4.57158 27.1996 4.54516 27.1346C4.51212 27.0524 4.45597 26.8813 4.39982 26.7375C4.3833 26.6964 4.37009 26.6793 4.35357 26.6896C4.33375 26.6964 4.33706 26.7169 4.34697 26.7443C4.36348 26.782 4.37669 26.8299 4.38 26.8539C4.39651 26.9497 4.36348 26.9908 4.2743 27.0319C4.19172 27.0729 4.11905 27.1037 3.71606 27.2715L3.32959 27.4324C2.94642 27.5932 2.79117 27.7781 2.72181 27.9664M4.09593 31.2936C4.07941 31.3038 4.08271 31.3278 4.10253 31.3586C4.16199 31.4579 4.26769 31.6051 4.30072 31.6633C4.34697 31.7351 4.47249 31.9679 4.50882 32.0295C4.78959 32.4814 5.18267 32.5053 5.44031 32.3342C5.72108 32.1459 5.7376 31.7865 5.67814 31.54C5.86973 31.6051 6.05801 31.6393 6.25289 31.5092C6.38172 31.4236 6.56339 31.1909 6.28592 30.7459C6.23307 30.6637 6.16701 30.5713 6.09104 30.4515C6.06131 30.4036 5.97212 30.2427 5.88954 30.1126C5.86642 30.075 5.84991 30.0613 5.83339 30.075C5.81687 30.0852 5.82018 30.1023 5.83669 30.1297C5.85651 30.164 5.88294 30.2085 5.88954 30.229C5.92258 30.3214 5.89615 30.3659 5.82018 30.4241C5.74751 30.4823 5.67814 30.5268 5.31479 30.7698L4.89199 31.054C4.67068 31.2011 4.4824 31.3278 4.37339 31.386C4.29742 31.4236 4.23796 31.4442 4.19832 31.4031C4.1785 31.3826 4.15538 31.3586 4.13226 31.321C4.11244 31.2901 4.09923 31.2867 4.08932 31.2936M5.50638 31.2456C5.47004 31.1909 5.45022 31.1498 5.44031 31.1258C5.43701 31.1156 5.43701 31.1053 5.45683 31.0916L6.0481 30.6945C6.07452 30.6774 6.08773 30.674 6.10425 30.6877C6.12407 30.7082 6.13728 30.7322 6.1604 30.7664C6.29253 30.9786 6.14058 31.2148 5.98203 31.321C5.86312 31.3997 5.75411 31.4202 5.66493 31.3928C5.60217 31.3757 5.55923 31.3278 5.50968 31.2456M4.74335 31.5708L5.31149 31.1909C5.31149 31.1909 5.33131 31.184 5.33792 31.1943C5.36104 31.232 5.37755 31.2559 5.40068 31.3004C5.45683 31.3997 5.47335 31.4681 5.47004 31.5435C5.46013 31.8139 5.28837 32.0021 5.14303 32.1014C4.89529 32.2691 4.72022 32.1219 4.65086 32.009C4.61452 31.9542 4.58149 31.896 4.56828 31.8105C4.55176 31.7112 4.5881 31.677 4.74335 31.5708M6.12737 34.1895C6.12737 34.1895 6.12077 34.2237 6.14389 34.2511C6.22316 34.3367 6.34868 34.4633 6.39493 34.5112C6.55348 34.6824 6.66909 34.833 6.94656 35.1377C7.04896 35.2472 7.06877 35.2472 7.12493 35.2164C7.2009 35.1753 7.36936 35.035 7.39248 35.0144C7.41891 34.9905 7.42552 34.9768 7.4123 34.9631C7.39579 34.946 7.37927 34.9528 7.35945 34.9699C7.31651 35.0042 7.23393 35.035 7.18439 35.0384C7.07868 35.0384 7.00271 34.9597 6.90031 34.8467C6.74837 34.6824 6.71203 34.6139 6.71203 34.5455C6.71203 34.4633 6.85077 34.323 7.11502 34.0628L7.47837 33.7034C7.79217 33.3919 7.85162 33.3371 7.92099 33.2755C7.99696 33.2071 8.04651 33.1899 8.10927 33.2379C8.1357 33.2584 8.16873 33.2892 8.19185 33.3132C8.21497 33.3371 8.23149 33.3474 8.2447 33.3337C8.25791 33.32 8.25131 33.2995 8.22158 33.2721C8.14561 33.1899 7.99696 33.0428 7.95072 32.9914C7.89787 32.9332 7.78226 32.7963 7.68977 32.697C7.66004 32.6662 7.64353 32.6559 7.62701 32.6696C7.6138 32.6833 7.6204 32.7004 7.64022 32.7244C7.66665 32.7518 7.68647 32.7792 7.69638 32.7997C7.74592 32.8819 7.72941 32.9332 7.66334 33.0085C7.60058 33.077 7.54443 33.1352 7.23063 33.4467L6.86728 33.8061C6.6757 33.9944 6.51384 34.1552 6.41805 34.2306C6.35199 34.2819 6.29583 34.3161 6.24959 34.2819C6.22647 34.2682 6.20004 34.2442 6.17031 34.2134C6.14719 34.1895 6.13398 34.1861 6.12407 34.1963M8.43959 36.4316C8.43959 36.4316 8.43959 36.4658 8.46932 36.4898C8.56181 36.5582 8.71045 36.6575 8.76 36.6986C8.82276 36.7431 8.96149 36.8595 9.11013 36.9724C9.13656 36.993 9.15968 36.9964 9.16959 36.9827C9.1795 36.969 9.16959 36.9553 9.14647 36.9348C9.11343 36.9108 9.06719 36.8663 9.03746 36.8389C8.9747 36.7773 8.99122 36.7225 9.02755 36.6541C9.09031 36.5445 9.22244 36.3563 9.38429 36.1235L9.67827 35.7025C9.93262 35.3396 9.97886 35.2712 10.0383 35.1993C10.1011 35.1205 10.1473 35.0932 10.2167 35.1274C10.2464 35.1445 10.2662 35.1548 10.2894 35.1719C10.3125 35.189 10.329 35.1959 10.3422 35.1753C10.3521 35.1616 10.3389 35.1411 10.3092 35.1205C10.2233 35.0555 10.0846 34.9631 10.0251 34.9186C9.95904 34.8707 9.82031 34.7543 9.73443 34.6892C9.69809 34.6619 9.67497 34.6516 9.66506 34.6653C9.65185 34.6858 9.66176 34.6995 9.68488 34.7166C9.71131 34.7372 9.74103 34.7611 9.76085 34.7885C9.80379 34.8364 9.79719 34.8946 9.74434 34.9802C9.69479 35.0589 9.64855 35.1274 9.3942 35.4902L9.10022 35.9113C8.93837 36.144 8.80624 36.3323 8.72366 36.4247C8.66751 36.4898 8.62787 36.5206 8.57502 36.4932C8.5519 36.4829 8.52217 36.4658 8.48583 36.4418C8.45941 36.4213 8.44619 36.4213 8.43629 36.435M11.1251 36.9245C11.0161 37.1881 10.9566 37.5235 11.1118 37.8693C11.2572 38.1876 11.5214 38.4033 11.8749 38.5607C12.04 38.636 12.2448 38.7045 12.3671 38.7079C12.4199 38.7079 12.4364 38.7011 12.4661 38.66C12.5289 38.5778 12.661 38.3553 12.6742 38.3245C12.6842 38.304 12.6875 38.28 12.6676 38.2732C12.6478 38.2629 12.6379 38.2732 12.6115 38.3108C12.5818 38.3553 12.5157 38.4204 12.4496 38.4512C12.2944 38.5299 12.1424 38.4957 11.9145 38.393C11.5677 38.2389 11.2341 37.7084 11.5049 37.0614C11.6139 36.7978 11.7725 36.5617 12.0367 36.4658C12.1953 36.4076 12.3671 36.4145 12.5917 36.5137C12.8295 36.6198 13.0013 36.7842 13.0475 36.9177C13.0838 37.0169 13.0772 37.1265 13.0442 37.212C13.0277 37.2497 13.0244 37.2736 13.0442 37.2839C13.0673 37.2942 13.0805 37.2736 13.1004 37.236C13.1268 37.1846 13.1862 37.034 13.2292 36.945C13.2754 36.8526 13.2952 36.8218 13.3052 36.8013C13.3118 36.7841 13.3052 36.767 13.2787 36.7499C13.2061 36.7088 13.1334 36.6472 13.0409 36.589C12.9286 36.5206 12.8394 36.4658 12.6775 36.3939C12.2911 36.2228 12.0004 36.2193 11.7428 36.3152C11.3959 36.4418 11.2076 36.7396 11.1284 36.9245M14.3357 39.2556C14.3357 39.2761 14.3523 39.2898 14.3853 39.2932C14.4976 39.3138 14.6727 39.3343 14.7354 39.3446C14.8114 39.3583 14.9832 39.3959 15.1681 39.4302C15.1979 39.437 15.221 39.4302 15.2243 39.4096C15.2243 39.3959 15.2144 39.3823 15.1847 39.3788C15.1417 39.372 15.0823 39.3549 15.0459 39.3412C14.9633 39.3138 14.9534 39.259 14.96 39.1803C14.9699 39.0536 15.0063 38.8243 15.0525 38.5402L15.1351 38.0267C15.2078 37.5851 15.221 37.503 15.2408 37.4106C15.2639 37.3113 15.2937 37.2634 15.3696 37.2634C15.4027 37.2634 15.4258 37.2634 15.4555 37.2702C15.4819 37.2736 15.5018 37.2702 15.5051 37.2497C15.5051 37.2326 15.4852 37.2223 15.4522 37.2155C15.3465 37.1983 15.1813 37.1778 15.112 37.1641C15.0327 37.1504 14.8576 37.1128 14.7519 37.0922C14.709 37.0854 14.6859 37.0888 14.6826 37.1059C14.6793 37.1299 14.6958 37.1367 14.7222 37.1436C14.7552 37.1504 14.7916 37.1573 14.8213 37.1744C14.8808 37.1983 14.9006 37.2531 14.8907 37.3524C14.8808 37.4448 14.8675 37.527 14.7949 37.9719L14.7123 38.4854C14.6661 38.7695 14.6297 38.9989 14.5967 39.1187C14.5736 39.2008 14.5504 39.2488 14.491 39.2522C14.4646 39.2522 14.4315 39.2522 14.3886 39.2453C14.3556 39.2385 14.3423 39.2453 14.339 39.2624M16.9981 37.3558C16.9981 37.3798 17.0146 37.3832 17.0443 37.3832C17.0774 37.3832 17.1137 37.3832 17.1467 37.39C17.2095 37.4037 17.2392 37.4516 17.2491 37.5509C17.259 37.6468 17.2623 37.7289 17.2756 38.1773L17.2954 38.6976C17.3053 38.9852 17.3152 39.2179 17.3053 39.3412C17.2987 39.4267 17.2855 39.4781 17.2293 39.4918C17.2029 39.4986 17.1699 39.5055 17.1269 39.5089C17.0939 39.5089 17.0807 39.5192 17.084 39.5329C17.084 39.5534 17.1038 39.5602 17.1401 39.5602C17.2524 39.5568 17.4308 39.5397 17.4936 39.5363C17.5695 39.5363 17.7479 39.5363 17.9329 39.5294C17.9626 39.5294 17.9857 39.5192 17.9857 39.4986C17.9857 39.4849 17.9692 39.4747 17.9395 39.4781C17.8966 39.4781 17.8338 39.4781 17.7975 39.4712C17.7116 39.4644 17.6918 39.4096 17.6785 39.3309C17.662 39.2043 17.6554 38.9715 17.6455 38.6839L17.6257 38.1636C17.6092 37.7152 17.6059 37.6296 17.6092 37.5372C17.6092 37.4345 17.6323 37.3832 17.7083 37.3661C17.7413 37.3592 17.7644 37.3558 17.7942 37.3524C17.8206 37.3524 17.8404 37.3455 17.8371 37.3216C17.8371 37.3045 17.814 37.2976 17.7776 37.301C17.6719 37.3045 17.5068 37.3216 17.4341 37.3216C17.3515 37.3216 17.1732 37.3216 17.0675 37.3284C17.0212 37.3284 17.0014 37.3387 17.0014 37.3558M21.0808 36.5035C21.061 36.5137 21.0544 36.5445 21.0676 36.5959L21.6027 38.4649C21.6291 38.5607 21.6589 38.6771 21.5928 38.7284C21.5598 38.7558 21.5399 38.7627 21.5201 38.7729C21.4937 38.7866 21.4805 38.7969 21.4871 38.8106C21.497 38.8346 21.5201 38.8311 21.5465 38.8174C21.6291 38.7798 21.748 38.7113 21.7943 38.6874C21.8405 38.6668 21.9594 38.6189 22.0651 38.5641C22.1048 38.547 22.1246 38.5299 22.1114 38.5059C22.1048 38.4923 22.085 38.4957 22.0651 38.5059C22.0387 38.5196 22.0024 38.5333 21.9528 38.5436C21.9033 38.5539 21.8603 38.5436 21.8372 38.4957C21.8174 38.4512 21.8042 38.4169 21.7877 38.3656L21.4409 37.236H21.4508C21.6291 37.39 21.9363 37.6502 21.9859 37.6981C22.0486 37.7597 22.4351 38.0712 22.554 38.1636C22.63 38.2253 22.6795 38.2663 22.7027 38.2526C22.7258 38.2424 22.7291 38.2116 22.7291 38.0575L22.7357 36.5719H22.7456L23.4294 37.6707C23.4723 37.7426 23.4822 37.7803 23.469 37.794C23.4558 37.8111 23.4492 37.8248 23.4525 37.8385C23.4591 37.8556 23.4789 37.8556 23.5384 37.8316C23.6441 37.7905 24.0008 37.6262 24.0636 37.5954C24.0999 37.5783 24.1263 37.5543 24.1164 37.5338C24.1098 37.5167 24.09 37.5235 24.0669 37.5338C24.0338 37.5509 23.981 37.5715 23.8951 37.5851C23.8092 37.5988 23.7465 37.5338 23.6474 37.3763L22.6663 35.8325C22.6333 35.7812 22.6069 35.7607 22.5837 35.7709C22.5606 35.7812 22.554 35.812 22.5573 35.8633V37.7289L21.1766 36.5548C21.1105 36.5 21.0907 36.4932 21.0709 36.5035M24.8332 35.6819C25.1668 36.0756 25.8175 36.3255 26.4253 35.7709C26.9604 35.2814 26.9571 34.5694 26.5244 34.0628C26.0917 33.5562 25.4905 33.5322 24.9653 34.0149C24.3344 34.5934 24.5128 35.302 24.8365 35.6819M24.9951 34.1792C25.3419 33.8643 25.877 33.9225 26.2998 34.4188C26.8448 35.0589 26.5674 35.4457 26.422 35.5827C26.0157 35.9523 25.4641 35.8086 25.071 35.3499C24.602 34.7988 24.7539 34.4017 24.9984 34.1826M26.8646 32.0946C26.9373 32.0295 26.9869 32.0398 27.0661 32.0946C27.1421 32.1459 27.2082 32.1938 27.5583 32.4608L27.9613 32.7689C28.1727 32.9298 28.3544 33.0701 28.4436 33.1557C28.503 33.2173 28.546 33.2652 28.5228 33.32C28.5129 33.344 28.4964 33.3782 28.4733 33.4124C28.4535 33.4398 28.4535 33.4535 28.4634 33.4638C28.4799 33.4775 28.4997 33.4638 28.5195 33.4364C28.5856 33.344 28.6847 33.1899 28.7243 33.1352C28.8598 32.9469 28.9853 32.7997 29.2231 32.4643C29.309 32.341 29.3057 32.3205 29.266 32.2691C29.2132 32.2007 29.0513 32.0501 29.0282 32.0329C29.0018 32.0124 28.9886 32.0056 28.9754 32.0227C28.9622 32.0432 28.9754 32.0569 28.9919 32.074C29.0315 32.1117 29.0778 32.1904 29.0877 32.2418C29.1075 32.3479 29.0447 32.4403 28.9556 32.5669C28.8234 32.7518 28.764 32.7997 28.7012 32.8134C28.6252 32.8305 28.4667 32.7107 28.1727 32.4848L27.7697 32.1767C27.4196 31.9097 27.3568 31.8618 27.2875 31.8002C27.2115 31.7351 27.1851 31.6838 27.2181 31.6119C27.2346 31.5811 27.2577 31.54 27.2775 31.5161C27.2974 31.4887 27.304 31.4716 27.2875 31.4579C27.2709 31.4442 27.2544 31.4579 27.2313 31.4921C27.1652 31.5845 27.0529 31.7591 27.01 31.8173C26.9637 31.8823 26.8514 32.0227 26.7755 32.1322C26.749 32.1664 26.7424 32.187 26.7589 32.2007C26.7755 32.2144 26.7887 32.2007 26.8085 32.1767C26.8316 32.1459 26.8514 32.1185 26.8713 32.1048M29.1637 29.9312L29.6162 30.1537C29.854 30.2701 30.0588 30.3693 30.1612 30.4378C30.2306 30.4857 30.2801 30.5268 30.2669 30.585C30.2603 30.6124 30.2537 30.6466 30.2339 30.6843C30.2207 30.7151 30.2207 30.7288 30.2339 30.7356C30.2504 30.7459 30.2669 30.7288 30.2834 30.6945C30.333 30.5884 30.399 30.4207 30.4288 30.3591C30.4882 30.2256 30.627 30.0065 30.7161 29.8114C30.9374 29.3219 30.8813 28.959 30.8152 28.7776C30.736 28.5585 30.551 28.2984 30.2273 28.1375C29.9201 27.9869 29.6492 28.0074 29.4543 28.0725C29.0282 28.2162 28.83 28.6544 28.6781 28.9864C28.6054 29.1439 28.536 29.315 28.4997 29.3972C28.4667 29.4691 28.3841 29.6334 28.318 29.7737C28.3015 29.8148 28.2949 29.8353 28.3147 29.8422C28.3313 29.8525 28.3445 29.8388 28.3577 29.808C28.3742 29.7703 28.3973 29.7258 28.4138 29.7087C28.47 29.63 28.5228 29.63 28.612 29.6676C28.6979 29.7018 28.7706 29.7395 29.1603 29.9312M29.2694 29.582C29.0646 29.4828 28.8399 29.3732 28.7541 29.3253C28.7243 29.3116 28.7177 29.2979 28.7177 29.2671C28.7177 29.2397 28.7541 29.1405 28.7772 29.0857C28.8697 28.8803 29.0381 28.5928 29.3784 28.4627C29.5369 28.4011 29.8111 28.3634 30.1381 28.5243C30.4056 28.6544 30.6137 28.8221 30.6798 29.0617C30.7426 29.2842 30.7128 29.4896 30.5906 29.76C30.4948 29.9688 30.3957 30.0442 30.3297 30.0544C30.29 30.0613 30.1876 30.0168 30.1216 29.986C30.072 29.9654 29.8705 29.8696 29.5997 29.7361L29.276 29.5752L29.2694 29.582ZM30.7756 26.5971C31.2678 26.7204 31.9383 26.5424 32.1299 25.7277C32.2984 25.0088 31.9053 24.4269 31.2678 24.2695C30.6336 24.1086 30.1282 24.4475 29.963 25.1526C29.7615 26.0015 30.2999 26.4773 30.7756 26.5971M30.7822 26.1829C30.0918 26.0084 30.0027 25.5942 30.0786 25.2656C30.1876 24.8 30.66 24.533 31.281 24.6905C32.0836 24.8925 32.0671 25.3751 32.0209 25.5736C31.8921 26.1179 31.3603 26.3267 30.7822 26.1829M30.736 22.5511L32.5197 21.9281C32.6584 21.8802 32.698 21.8665 32.7013 21.8288C32.7013 21.7877 32.6584 21.7672 32.4998 21.6816C32.3611 21.6097 32.0572 21.4523 31.6542 21.2401C31.314 21.0621 31.1654 20.9731 30.9044 20.8396C30.726 20.7506 30.6798 20.7026 30.6567 20.6616C30.627 20.6068 30.6303 20.5452 30.6303 20.5178C30.6303 20.4904 30.6303 20.4699 30.6071 20.4699C30.5873 20.4699 30.5807 20.4904 30.5774 20.5281C30.5708 20.6171 30.5741 20.754 30.5708 20.8019C30.5708 20.8396 30.5543 20.9594 30.5444 21.1066C30.5444 21.1613 30.5444 21.1887 30.5675 21.1887C30.5873 21.1887 30.5906 21.1682 30.5939 21.1408C30.5939 21.1031 30.6005 21.0586 30.617 21.0244C30.627 21.0004 30.6501 20.9902 30.6732 20.9902C30.6996 20.9902 30.7393 21.0073 30.7789 21.0244C30.9639 21.1066 31.8557 21.5447 32.1629 21.6885V21.6987L30.8384 22.1164C30.7327 22.1506 30.6534 22.1711 30.6137 22.1677C30.5873 22.1677 30.5675 22.1574 30.5543 22.1335C30.5378 22.1095 30.5378 22.065 30.5411 22.0205C30.5411 21.9931 30.5411 21.976 30.5179 21.976C30.4981 21.976 30.4915 22.0068 30.4882 22.0411C30.4783 22.1882 30.4783 22.3286 30.475 22.4005C30.4684 22.5032 30.4519 22.6675 30.442 22.8215C30.442 22.866 30.442 22.8968 30.4618 22.9002C30.4783 22.9002 30.4882 22.8934 30.4882 22.866C30.4882 22.842 30.4915 22.7975 30.508 22.753C30.5411 22.6504 30.5774 22.6024 30.7393 22.5442" fill="var(--fill-0, white)"/>
</svg>
