<svg width="40" height="40" viewBox="0 0 40 40" fill="none" xmlns="http://www.w3.org/2000/svg">
<path d="M20.0111 40C28.7742 40 33.655 40 36.8274 36.8275C39.9999 33.655 39.9999 28.7743 39.9999 20.0111C39.9999 11.2479 39.9999 6.36717 36.8274 3.19468C33.6328 0 28.7742 0 20.0111 0C11.2479 0 6.36715 0 3.17248 3.17249C0 6.36717 0 11.2479 0 20.0111C0 28.7743 0 33.655 3.17248 36.8275C6.36715 40 11.2479 40 20.0111 40Z" fill="black"/>
<g clip-path="url(#clip0_644_4640)">
<mask id="mask0_644_4640" style="mask-type:alpha" maskUnits="userSpaceOnUse" x="6" y="6" width="28" height="28">
<path d="M20 6.09766C27.678 6.09767 33.9023 12.322 33.9023 20C33.9023 27.6781 27.678 33.9023 20 33.9023C12.322 33.9023 6.09766 27.6781 6.09766 20C6.09767 12.3219 12.322 6.09766 20 6.09766ZM20 11.3936C15.2469 11.3936 11.3936 15.2469 11.3936 20C11.3936 24.7531 15.2469 28.6064 20 28.6064C24.753 28.6064 28.6064 24.753 28.6064 20C28.6064 15.2469 24.753 11.3936 20 11.3936Z" fill="#01574D"/>
</mask>
<g mask="url(#mask0_644_4640)">
<rect x="20" y="20" width="13.9023" height="13.9024" fill="#006369"/>
<rect x="20" y="6.09766" width="13.9023" height="13.9024" fill="#7E37F9"/>
<rect x="6.09766" y="20" width="13.9023" height="13.9024" fill="#0058D2"/>
<rect x="6.09766" y="6.09766" width="13.9023" height="13.9024" fill="#561FE5"/>
</g>
</g>
<path d="M31.2543 17.3525L20 17.3525L20 22.6487L31.2543 22.6487L31.2543 17.3525Z" fill="#AA18CE"/>
<path d="M19.9996 33.9026C21.4621 33.9026 22.6477 32.717 22.6477 31.2545C22.6477 29.792 21.4621 28.6064 19.9996 28.6064C18.5371 28.6064 17.3516 29.792 17.3516 31.2545C17.3516 32.717 18.5371 33.9026 19.9996 33.9026Z" fill="#0093B8"/>
<path d="M8.74572 22.6487C10.2082 22.6487 11.3938 21.4631 11.3938 20.0006C11.3938 18.5381 10.2082 17.3525 8.74572 17.3525C7.28323 17.3525 6.09766 18.5381 6.09766 20.0006C6.09766 21.4631 7.28323 22.6487 8.74572 22.6487Z" fill="#5690FF"/>
<path d="M19.9996 11.3938C21.4621 11.3938 22.6477 10.2082 22.6477 8.74573C22.6477 7.28324 21.4621 6.09766 19.9996 6.09766C18.5371 6.09766 17.3516 7.28324 17.3516 8.74573C17.3516 10.2082 18.5371 11.3938 19.9996 11.3938Z" fill="#8774FF"/>
<path d="M17.3523 20.0006C17.3523 21.4631 18.5379 22.6487 20.0004 22.6487C21.4629 22.6487 22.6484 21.4631 22.6484 20.0006C22.6484 18.5381 21.4629 17.3525 20.0004 17.3525C18.5379 17.3525 17.3523 18.5381 17.3523 20.0006Z" fill="#E176FF"/>
<path d="M31.2545 22.6487C32.717 22.6487 33.9026 21.4631 33.9026 20.0006C33.9026 18.5381 32.717 17.3525 31.2545 17.3525C29.792 17.3525 28.6064 18.5381 28.6064 20.0006C28.6064 21.4631 29.792 22.6487 31.2545 22.6487Z" fill="#B56BFF"/>
<defs>
<clipPath id="clip0_644_4640">
<rect width="27.8047" height="27.8047" fill="white" transform="translate(6.09766 6.09766)"/>
</clipPath>
</defs>
</svg>
