<svg version="1.2" xmlns="http://www.w3.org/2000/svg" viewBox="0 0 93 48" width="93" height="48">
	<style>
		.s0 { fill: #000000 } 
	</style>
	<path fill-rule="evenodd" class="s0" d="m57.64 9.83c0 4.61-3.76 8.37-8.42 8.37-4.66 0-8.43-3.74-8.43-8.37 0-4.63 3.77-8.35 8.41-8.35 4.64 0 8.42 3.74 8.42 8.37zm-8.44 5.09c-2.84 0-5.13-2.28-5.13-5.09 0-2.81 2.29-5.09 5.13-5.09 2.83 0 5.13 2.28 5.13 5.09 0 2.81-2.3 5.09-5.13 5.09z"/>
	<path fill-rule="evenodd" class="s0" d="m37.62 6.55v-3.27h-3.32v-3.28h-8.6v6.55h-3.29v3.28c0 4.61 3.78 8.37 8.42 8.37 4.64 0 8.42-3.74 8.42-8.37v-3.28zm-11.91 3.28v-3.28h3.32v-3.27h5.28v3.27h1.66v3.28c0 2.82-2.3 5.09-5.13 5.09-2.83 0-5.13-2.27-5.13-5.09z"/>
	<path class="s0" d="m17.28 18.22h3.34v-16.75h-6.63v3.27h3.29z"/>
	<path fill-rule="evenodd" class="s0" d="m77.74 16.56c-1.5 1.23-3.7 1.02-4.93-0.46-1.23-1.49-1.03-3.69 0.47-4.9 1.5-1.21 3.7-1.02 4.93 0.46 1.23 1.49 1.03 3.68-0.47 4.9zm-1.01-3.68c-0.57-0.68-1.56-0.77-2.24-0.22-0.69 0.56-0.78 1.55-0.22 2.22 0.57 0.68 1.56 0.77 2.24 0.21 0.69-0.56 0.78-1.54 0.22-2.21z"/>
	<path fill-rule="evenodd" class="s0" d="m62.49 6.3c-1.22-1.48-1.03-3.68 0.47-4.89 1.5-1.24 3.71-1.02 4.94 0.46 1.22 1.48 1.03 3.68-0.47 4.9-1.5 1.21-3.71 1.02-4.94-0.47zm1.49-1.21c0.56 0.67 1.56 0.77 2.24 0.21 0.68-0.56 0.78-1.54 0.21-2.22-0.56-0.67-1.56-0.77-2.24-0.21-0.68 0.56-0.78 1.54-0.21 2.22z"/>
	<path class="s0" d="m77.23 0.6h-2.74l-10.86 16.77h2.74z"/>
	<path class="s0" d="m17.49 32.73c0 6.5-4.51 10.6-10.96 10.6h-6.53v-11.22h3.29v7.68h3.22c4.14 0 6.81-2.63 6.81-7.1 0-4.47-2.67-7.05-6.81-7.05h-6.51v-3.51h6.53c6.47 0 10.96 4.11 10.96 10.6z"/>
	<path class="s0" d="m23.14 27.22v15.8h-3.33v-15.8z"/>
	<path class="s0" d="m59.7 23.11l-3.33 0.02v4.61h-3.3v3.28h3.3v12h7.19v-2.91h-3.86z"/>
	<path class="s0" d="m89.02 40.15v-18.64h-3.33v21.55h7.31v-2.91z"/>
	<path class="s0" d="m81.15 24.67v3.28h-3.3v-3.28z"/>
	<path class="s0" d="m85.69 18.22v3.27h-3.34v-3.27z"/>
	<path fill-rule="evenodd" class="s0" d="m80.33 31.03c0.53 1.1 0.84 2.34 0.84 3.65v8.36h-3.3-0.04v-1.7c-1.42 1.06-3.18 1.7-5.09 1.7-4.66 0-8.42-3.74-8.42-8.36q0.01-1.47 0.47-2.77c1.13-3.3 4.26-5.67 7.95-5.67 3.35 0 6.24 1.95 7.59 4.79zm-2.51 3.05c-0.31-2.53-2.47-4.49-5.1-4.49-1.83 0-3.45 0.96-4.35 2.4-0.47 0.78-0.74 1.68-0.74 2.65 0 2.82 2.29 5.1 5.11 5.1 2.68 0 4.88-2.06 5.09-4.68v-0.4h0.02v-0.02q0-0.29-0.03-0.56z"/>
	<path class="s0" d="m23.12 22.13v3.28h-3.29v-3.28z"/>
	<path class="s0" d="m50.69 27.74v15.81h-3.33v-15.81z"/>
	<path class="s0" d="m50.67 22.63v3.28h-3.29v-3.28z"/>
	<path class="s0" d="m43.36 24.87v3.27h-3.29v-3.27z"/>
	<path class="s0" d="m40.05 44.86v3.27h-10.24v-3.27z"/>
	<path class="s0" d="m43.36 41.58v3.28h-3.29v-3.28z"/>
	<path fill-rule="evenodd" class="s0" d="m34.95 43.23c-4.63 0-8.38-3.74-8.38-8.37 0-4.63 3.75-8.38 8.38-8.38 4.63 0 8.37 3.75 8.37 8.38 0 4.63-3.74 8.37-8.37 8.37zm0-3.28c-2.82 0-5.09-2.28-5.09-5.09 0-2.82 2.27-5.09 5.09-5.09 2.81 0 5.09 2.27 5.09 5.09 0 2.81-2.28 5.09-5.09 5.09z"/>
	<g id="Layer 1">
	</g>
</svg>