<svg width="29" height="20" viewBox="0 0 29 20" fill="none" xmlns="http://www.w3.org/2000/svg">
<rect width="29" height="20" rx="2" fill="white"/>
<path d="M18.8806 3.74059C22.3803 3.74059 25.2175 6.50696 25.2175 9.9193C25.2175 13.3316 22.3803 16.098 18.8806 16.098C17.3114 16.098 15.8761 15.5407 14.7693 14.6195C13.6627 15.5401 12.2286 16.098 10.6599 16.098C7.16023 16.098 4.32307 13.3316 4.323 9.9193C4.323 6.50696 7.16019 3.74059 10.6599 3.74059C12.2284 3.74061 13.6627 4.29765 14.7693 5.21812C15.876 4.29709 17.3115 3.74059 18.8806 3.74059Z" fill="#ED0006"/>
<path d="M18.8804 3.74059C22.3801 3.74059 25.2173 6.50696 25.2173 9.9193C25.2172 13.3316 22.38 16.098 18.8804 16.098C17.3114 16.098 15.8767 15.5404 14.77 14.6195C16.1319 13.4863 16.9965 11.8018 16.9966 9.9193C16.9966 8.03659 16.1321 6.35139 14.77 5.21812C15.8766 4.29736 17.3116 3.74061 18.8804 3.74059Z" fill="#F9A000"/>
<path d="M14.7693 5.21884C16.1314 6.35206 16.9968 8.03635 16.9968 9.91904C16.9968 11.8017 16.1313 13.486 14.7693 14.6192C13.4078 13.486 12.5437 11.8013 12.5437 9.91904C12.5438 8.03681 13.4078 6.35206 14.7693 5.21884Z" fill="#FF5E00"/>
</svg>
