<svg xmlns="http://www.w3.org/2000/svg" width="29" height="20" viewBox="0 0 29 20" fill="none">
<rect width="29" height="20" rx="2" fill="white"/>
<path fill-rule="evenodd" clip-rule="evenodd" d="M8.85793 13.5487H7.10109L5.78368 8.49383C5.72115 8.26131 5.58838 8.05574 5.39308 7.95886C4.90569 7.71538 4.36861 7.52161 3.78271 7.42388V7.22927H6.61284C7.00344 7.22927 7.29639 7.52161 7.34522 7.86113L8.02876 11.5074L9.78474 7.22927H11.4928L8.85793 13.5487ZM12.4693 13.5487H10.8101L12.1763 7.22927H13.8355L12.4693 13.5487ZM15.982 8.97991C16.0308 8.63955 16.3238 8.44494 16.6655 8.44494C17.2026 8.39607 17.7876 8.4938 18.2759 8.73644L18.5688 7.37583C18.0806 7.18121 17.5435 7.08349 17.0561 7.08349C15.4458 7.08349 14.274 7.95883 14.274 9.17369C14.274 10.0979 15.104 10.5832 15.6899 10.8755C16.3238 11.167 16.5679 11.3616 16.5191 11.6531C16.5191 12.0904 16.0308 12.285 15.5434 12.285C14.9575 12.285 14.3716 12.1392 13.8354 11.8957L13.5425 13.2572C14.1284 13.4998 14.7622 13.5976 15.3481 13.5976C17.1538 13.6456 18.2759 12.7711 18.2759 11.4585C18.2759 9.80555 15.982 9.70866 15.982 8.97991ZM24.0828 13.5487L22.7654 7.22927H21.3503C21.0574 7.22927 20.7644 7.42388 20.6668 7.71538L18.2272 13.5487H19.9353L20.2762 12.6254H22.3748L22.5701 13.5487H24.0828ZM21.5943 8.93109L22.0817 11.3128H20.7155L21.5943 8.93109Z" fill="#172B85"/>
</svg>