<svg xmlns="http://www.w3.org/2000/svg" width="29" height="20" viewBox="0 0 29 20" fill="none">
<rect width="29" height="20" rx="2" fill="white"/>
<path d="M18.8806 3.74072C22.3803 3.74072 25.2175 6.5071 25.2175 9.91943C25.2175 13.3317 22.3803 16.0981 18.8806 16.0981C17.3114 16.0981 15.8761 15.5408 14.7693 14.6196C13.6627 15.5403 12.2286 16.0981 10.6599 16.0981C7.16023 16.0981 4.32307 13.3317 4.323 9.91943C4.323 6.5071 7.16019 3.74072 10.6599 3.74072C12.2284 3.74075 13.6627 4.29779 14.7693 5.21826C15.876 4.29722 17.3115 3.74072 18.8806 3.74072Z" fill="#ED0006"/>
<path d="M18.8804 3.74072C22.3801 3.74072 25.2173 6.5071 25.2173 9.91943C25.2172 13.3317 22.38 16.0981 18.8804 16.0981C17.3114 16.0981 15.8767 15.5406 14.77 14.6196C16.1319 13.4864 16.9965 11.8019 16.9966 9.91943C16.9966 8.03672 16.1321 6.35152 14.77 5.21826C15.8766 4.2975 17.3116 3.74075 18.8804 3.74072Z" fill="#F9A000"/>
<path d="M14.7693 5.21875C16.1314 6.35197 16.9968 8.03626 16.9968 9.91895C16.9968 11.8016 16.1313 13.4859 14.7693 14.6191C13.4078 13.4859 12.5437 11.8012 12.5437 9.91895C12.5438 8.03671 13.4078 6.35196 14.7693 5.21875Z" fill="#FF5E00"/>
</svg>