<svg width="136" height="40" viewBox="0 0 136 40" fill="none" xmlns="http://www.w3.org/2000/svg">
<g clip-path="url(#clip0_3582_22907)">
<path d="M130.664 0H5.6637C2.90227 0 0.663696 2.23858 0.663696 5V35C0.663696 37.7614 2.90227 40 5.6637 40H130.664C133.425 40 135.664 37.7614 135.664 35V5C135.664 2.23858 133.425 0 130.664 0Z" fill="black"/>
<path d="M130.664 0.8C132.984 0.8 134.864 2.68 134.864 5V35C134.864 37.32 132.984 39.2 130.664 39.2H5.6637C3.3437 39.2 1.4637 37.32 1.4637 35V5C1.4637 2.68 3.3437 0.8 5.6637 0.8H130.664ZM130.664 0H5.6637C2.9137 0 0.663696 2.25 0.663696 5V35C0.663696 37.75 2.9137 40 5.6637 40H130.664C133.414 40 135.664 37.75 135.664 35V5C135.664 2.25 133.414 0 130.664 0Z" fill="#A6A6A6"/>
<path d="M68.8037 21.7498C66.4537 21.7498 64.5337 23.5398 64.5337 25.9998C64.5337 28.4598 66.4537 30.2498 68.8037 30.2498C71.1537 30.2498 73.0737 28.4498 73.0737 25.9998C73.0737 23.5498 71.1537 21.7498 68.8037 21.7498ZM68.8037 28.5798C67.5137 28.5798 66.4037 27.5198 66.4037 25.9998C66.4037 24.4798 67.5137 23.4198 68.8037 23.4198C70.0937 23.4198 71.2037 24.4698 71.2037 25.9998C71.2037 27.5298 70.0937 28.5798 68.8037 28.5798ZM59.4837 21.7498C57.1337 21.7498 55.2137 23.5398 55.2137 25.9998C55.2137 28.4598 57.1337 30.2498 59.4837 30.2498C61.8337 30.2498 63.7537 28.4498 63.7537 25.9998C63.7537 23.5498 61.8337 21.7498 59.4837 21.7498ZM59.4837 28.5798C58.1937 28.5798 57.0837 27.5198 57.0837 25.9998C57.0837 24.4798 58.1937 23.4198 59.4837 23.4198C60.7737 23.4198 61.8837 24.4698 61.8837 25.9998C61.8837 27.5298 60.7737 28.5798 59.4837 28.5798ZM48.4037 23.0598V24.8598H52.7237C52.5937 25.8798 52.2537 26.6198 51.7437 27.1298C51.1137 27.7598 50.1337 28.4498 48.4137 28.4498C45.7537 28.4498 43.6737 26.3098 43.6737 23.6498C43.6737 20.9898 45.7537 18.8498 48.4137 18.8498C49.8437 18.8498 50.8937 19.4098 51.6637 20.1398L52.9337 18.8698C51.8537 17.8398 50.4237 17.0498 48.4037 17.0498C44.7637 17.0498 41.7037 20.0098 41.7037 23.6598C41.7037 27.3098 44.7637 30.2698 48.4037 30.2698C50.3737 30.2698 51.8537 29.6298 53.0137 28.4198C54.2037 27.2298 54.5737 25.5498 54.5737 24.1998C54.5737 23.7798 54.5437 23.3898 54.4737 23.0698H48.4037V23.0598ZM93.7137 24.4598C93.3637 23.5098 92.2837 21.7498 90.0737 21.7498C87.8637 21.7498 86.0637 23.4698 86.0637 25.9998C86.0637 28.3798 87.8637 30.2498 90.2837 30.2498C92.2337 30.2498 93.3637 29.0598 93.8237 28.3698L92.3737 27.3998C91.8937 28.1098 91.2337 28.5798 90.2837 28.5798C89.3337 28.5798 88.6537 28.1398 88.2237 27.2898L93.9137 24.9398L93.7237 24.4598H93.7137ZM87.9137 25.8798C87.8637 24.2398 89.1837 23.3998 90.1337 23.3998C90.8737 23.3998 91.5037 23.7698 91.7137 24.2998L87.9137 25.8798ZM83.2937 29.9998H85.1637V17.4998H83.2937V29.9998ZM80.2337 22.6998H80.1737C79.7537 22.1998 78.9537 21.7498 77.9337 21.7498C75.8037 21.7498 73.8537 23.6198 73.8537 26.0198C73.8537 28.4198 75.8037 30.2598 77.9337 30.2598C78.9537 30.2598 79.7537 29.8098 80.1737 29.2898H80.2337V29.8998C80.2337 31.5298 79.3637 32.3998 77.9637 32.3998C76.8237 32.3998 76.1137 31.5798 75.8237 30.8898L74.1937 31.5698C74.6637 32.6998 75.9037 34.0798 77.9637 34.0798C80.1537 34.0798 82.0037 32.7898 82.0037 29.6498V22.0098H80.2337V22.6998ZM78.0837 28.5798C76.7937 28.5798 75.7137 27.4998 75.7137 26.0198C75.7137 24.5398 76.7937 23.4298 78.0837 23.4298C79.3737 23.4298 80.3537 24.5298 80.3537 26.0198C80.3537 27.5098 79.3537 28.5798 78.0837 28.5798ZM102.474 17.4998H98.0037V29.9998H99.8737V25.2598H102.484C104.554 25.2598 106.584 23.7598 106.584 21.3798C106.584 18.9998 104.554 17.4998 102.484 17.4998H102.474ZM102.514 23.5198H99.8637V19.2298H102.514C103.914 19.2298 104.704 20.3898 104.704 21.3698C104.704 22.3498 103.914 23.5098 102.514 23.5098V23.5198ZM114.054 21.7298C112.704 21.7298 111.304 22.3298 110.724 23.6398L112.384 24.3298C112.734 23.6398 113.394 23.4098 114.084 23.4098C115.044 23.4098 116.034 23.9898 116.044 25.0198V25.1498C115.704 24.9598 114.984 24.6698 114.094 24.6698C112.304 24.6698 110.494 25.6498 110.494 27.4798C110.494 29.1498 111.954 30.2298 113.594 30.2298C114.844 30.2298 115.544 29.6698 115.974 29.0098H116.034V29.9798H117.834V25.1898C117.834 22.9698 116.174 21.7298 114.034 21.7298H114.054ZM113.824 28.5798C113.214 28.5798 112.364 28.2698 112.364 27.5198C112.364 26.5598 113.424 26.1898 114.344 26.1898C115.164 26.1898 115.554 26.3698 116.044 26.6098C115.904 27.7698 114.904 28.5898 113.824 28.5898V28.5798ZM124.404 21.9998L122.264 27.4198H122.204L119.984 21.9998H117.974L121.304 29.5798L119.404 33.7898H121.354L126.484 21.9998H124.414H124.404ZM107.604 29.9998H109.474V17.4998H107.604V29.9998Z" fill="white"/>
<path d="M21.3838 19.4202L10.7338 30.7202C11.0638 31.9502 12.1838 32.8502 13.5138 32.8502C14.0438 32.8502 14.5438 32.7102 14.9738 32.4502L15.0038 32.4302L26.9838 25.5202L21.3738 19.4102L21.3838 19.4202Z" fill="#EA4335"/>
<path d="M32.1539 17.4993H32.1439L26.9739 14.4893L21.1439 19.6793L26.9939 25.5293L32.1439 22.5593C33.0439 22.0693 33.6539 21.1193 33.6539 20.0293C33.6539 18.9393 33.0539 17.9893 32.1539 17.5093V17.4993Z" fill="#FBBC04"/>
<path d="M10.7337 9.2793C10.6737 9.5193 10.6337 9.7593 10.6337 10.0193V29.9893C10.6337 30.2493 10.6637 30.4893 10.7337 30.7293L21.7437 19.7193L10.7337 9.2793Z" fill="#4285F4"/>
<path d="M21.4638 19.9996L26.9738 14.4896L15.0038 7.54965C14.5738 7.28965 14.0638 7.13965 13.5138 7.13965C12.1838 7.13965 11.0638 8.04965 10.7338 9.26965L21.4638 19.9896V19.9996Z" fill="#34A853"/>
<path d="M47.0938 10.2189C47.0938 10.8589 46.9738 11.3989 46.7338 11.8289C46.4938 12.2589 46.1538 12.5889 45.7038 12.7989C45.2538 13.0089 44.7138 13.1289 44.0738 13.1289H42.5038V7.41895H44.2438C44.8238 7.41895 45.3338 7.52894 45.7538 7.73894C46.1738 7.94894 46.5038 8.26895 46.7338 8.67895C46.9638 9.08895 47.0838 9.60895 47.0838 10.2189H47.0938ZM46.2538 10.2489C46.2538 9.75894 46.1738 9.35894 46.0138 9.03894C45.8538 8.71895 45.6238 8.48895 45.3138 8.32894C45.0038 8.16895 44.6338 8.09895 44.1838 8.09895H43.3038V12.4589H44.0438C44.7838 12.4589 45.3338 12.2689 45.7038 11.9089C46.0738 11.5489 46.2538 10.9889 46.2538 10.2589V10.2489Z" fill="white"/>
<path d="M51.6836 13.1289H48.4736V7.41895H51.6836V8.10894H49.2736V9.80895H51.5336V10.4889H49.2736V12.4389H51.6836V13.1289Z" fill="white"/>
<path d="M56.3938 11.6001C56.3938 11.9401 56.3138 12.2301 56.1438 12.4701C55.9738 12.7101 55.7438 12.9001 55.4338 13.0201C55.1238 13.1401 54.7638 13.2101 54.3438 13.2101C54.1338 13.2101 53.9338 13.2001 53.7438 13.1801C53.5538 13.1601 53.3738 13.1301 53.2138 13.0801C53.0538 13.0301 52.9038 12.9901 52.7638 12.9201V12.1601C52.9838 12.2501 53.2338 12.3301 53.5138 12.4101C53.7938 12.4901 54.0938 12.5301 54.3938 12.5301C54.6538 12.5301 54.8738 12.4901 55.0538 12.4201C55.2338 12.3501 55.3638 12.2501 55.4538 12.1201C55.5438 11.9901 55.5938 11.8301 55.5938 11.6501C55.5938 11.4701 55.5538 11.3101 55.4638 11.1901C55.3738 11.0701 55.2338 10.9501 55.0438 10.8501C54.8538 10.7501 54.6038 10.6401 54.2938 10.5201C54.0738 10.4401 53.8838 10.3501 53.7038 10.2501C53.5238 10.1501 53.3738 10.0301 53.2438 9.90008C53.1138 9.77008 53.0138 9.62008 52.9438 9.44008C52.8738 9.26008 52.8338 9.06008 52.8338 8.83008C52.8338 8.52008 52.9138 8.25008 53.0638 8.02008C53.2138 7.79008 53.4338 7.62008 53.7138 7.51008C53.9938 7.40008 54.3138 7.33008 54.6838 7.33008C54.9838 7.33008 55.2638 7.36008 55.5338 7.42008C55.8038 7.48008 56.0438 7.56008 56.2838 7.67008L56.0338 8.33008C55.8138 8.24008 55.5938 8.16008 55.3638 8.11008C55.1338 8.06008 54.9038 8.02008 54.6638 8.02008C54.4438 8.02008 54.2538 8.05008 54.1038 8.12008C53.9538 8.19008 53.8338 8.28008 53.7538 8.40008C53.6738 8.52008 53.6338 8.66008 53.6338 8.83008C53.6338 9.02008 53.6738 9.17008 53.7538 9.29008C53.8338 9.41008 53.9638 9.52008 54.1438 9.62008C54.3238 9.72008 54.5538 9.82008 54.8438 9.94008C55.1738 10.0601 55.4438 10.2001 55.6738 10.3401C55.9038 10.4801 56.0738 10.6501 56.1938 10.8501C56.3138 11.0501 56.3738 11.3001 56.3738 11.6001H56.3938Z" fill="white"/>
<path d="M60.1239 8.02984C59.8339 8.02984 59.5639 8.07984 59.3339 8.17984C59.1039 8.27984 58.9039 8.42984 58.7439 8.62984C58.5839 8.82984 58.4539 9.05984 58.3739 9.33984C58.2939 9.61984 58.2439 9.92984 58.2439 10.2698C58.2439 10.7298 58.3139 11.1298 58.4539 11.4698C58.5939 11.8098 58.7939 12.0698 59.0739 12.2498C59.3539 12.4298 59.6939 12.5198 60.1139 12.5198C60.3639 12.5198 60.6039 12.4998 60.8339 12.4498C61.0639 12.3998 61.2939 12.3498 61.5139 12.2698V12.9598C61.2939 13.0398 61.0739 13.1098 60.8339 13.1498C60.5939 13.1898 60.3239 13.2098 60.0139 13.2098C59.4339 13.2098 58.9439 13.0898 58.5539 12.8498C58.1639 12.6098 57.8839 12.2698 57.6839 11.8298C57.4839 11.3898 57.3939 10.8698 57.3939 10.2798C57.3939 9.84984 57.4539 9.44984 57.5739 9.08984C57.6939 8.72984 57.8739 8.41984 58.1039 8.15984C58.3339 7.89984 58.6239 7.69984 58.9539 7.54984C59.2839 7.39984 59.6839 7.33984 60.1239 7.33984C60.4139 7.33984 60.6939 7.36984 60.9639 7.42984C61.2339 7.48984 61.4839 7.57984 61.7139 7.68984L61.4139 8.35984C61.2239 8.26984 61.0239 8.19984 60.8039 8.12984C60.5839 8.05984 60.3539 8.02984 60.1139 8.02984H60.1239Z" fill="white"/>
<path d="M66.684 13.1294L66.054 11.4294H63.814L63.194 13.1294H62.364L64.544 7.39941H65.364L67.534 13.1294H66.694H66.684ZM65.824 10.7394L65.224 9.05941C65.204 8.99941 65.174 8.91941 65.144 8.79941C65.114 8.67941 65.064 8.56941 65.034 8.43941C65.004 8.30941 64.964 8.21941 64.944 8.13941C64.914 8.24941 64.884 8.35941 64.854 8.47941C64.824 8.59941 64.784 8.70941 64.754 8.80941C64.724 8.90941 64.694 8.99941 64.674 9.05941L64.064 10.7394H65.834H65.824Z" fill="white"/>
<path d="M70.1141 7.41895C70.5941 7.41895 70.9941 7.47895 71.3041 7.59895C71.6141 7.71895 71.8541 7.89895 72.0041 8.13895C72.1541 8.37895 72.2341 8.68895 72.2341 9.05895C72.2341 9.34895 72.1841 9.59895 72.0741 9.79895C71.9641 9.99895 71.8241 10.1589 71.6541 10.2889C71.4841 10.4189 71.2941 10.5189 71.0941 10.5889L72.6941 13.1389H71.7741L70.3841 10.7989H69.3341V13.1389H68.5341V7.42895H70.1041L70.1141 7.41895ZM70.0641 8.09895H69.3441V10.1289H70.1241C70.5741 10.1289 70.9041 10.0389 71.1141 9.86894C71.3241 9.69895 71.4241 9.42895 71.4241 9.08895C71.4241 8.74895 71.3141 8.47895 71.0941 8.32895C70.8741 8.17895 70.5341 8.10894 70.0741 8.10894L70.0641 8.09895Z" fill="white"/>
<path d="M76.084 8.02984C75.794 8.02984 75.524 8.07984 75.294 8.17984C75.064 8.27984 74.864 8.42984 74.704 8.62984C74.544 8.82984 74.414 9.05984 74.334 9.33984C74.254 9.61984 74.204 9.92984 74.204 10.2698C74.204 10.7298 74.274 11.1298 74.414 11.4698C74.554 11.8098 74.754 12.0698 75.034 12.2498C75.314 12.4298 75.654 12.5198 76.074 12.5198C76.324 12.5198 76.564 12.4998 76.794 12.4498C77.024 12.3998 77.254 12.3498 77.474 12.2698V12.9598C77.254 13.0398 77.034 13.1098 76.794 13.1498C76.554 13.1898 76.284 13.2098 75.974 13.2098C75.394 13.2098 74.904 13.0898 74.514 12.8498C74.124 12.6098 73.844 12.2698 73.644 11.8298C73.444 11.3898 73.354 10.8698 73.354 10.2798C73.354 9.84984 73.414 9.44984 73.534 9.08984C73.654 8.72984 73.834 8.41984 74.064 8.15984C74.294 7.89984 74.584 7.69984 74.914 7.54984C75.244 7.39984 75.644 7.33984 76.084 7.33984C76.374 7.33984 76.654 7.36984 76.924 7.42984C77.194 7.48984 77.444 7.57984 77.674 7.68984L77.374 8.35984C77.184 8.26984 76.984 8.19984 76.764 8.12984C76.544 8.05984 76.314 8.02984 76.074 8.02984H76.084Z" fill="white"/>
<path d="M82.6435 13.1293L82.0135 11.4293H79.7735L79.1535 13.1293H78.3235L80.5035 7.39926H81.3235L83.4935 13.1293H82.6535H82.6435ZM82.2235 5.74926C82.2035 5.96926 82.1435 6.16926 82.0335 6.32926C81.9235 6.48926 81.7735 6.62926 81.5835 6.71926C81.3935 6.80926 81.1635 6.85926 80.9035 6.85926C80.5035 6.85926 80.1935 6.75926 79.9835 6.55926C79.7735 6.35926 79.6535 6.07926 79.6335 5.73926H80.1035C80.1135 5.88926 80.1535 5.99926 80.2235 6.06926C80.2935 6.13926 80.3835 6.18926 80.5035 6.21926C80.6235 6.24926 80.7535 6.25926 80.9135 6.25926C81.0535 6.25926 81.1835 6.24926 81.3035 6.21926C81.4235 6.18926 81.5135 6.13926 81.5935 6.06926C81.6735 5.99926 81.7135 5.88926 81.7335 5.74926H82.2135H82.2235ZM81.7835 10.7393L81.1835 9.05926C81.1635 8.99926 81.1335 8.91926 81.1035 8.79926C81.0735 8.67926 81.0235 8.56926 80.9935 8.43926C80.9635 8.30926 80.9235 8.21926 80.9035 8.13926C80.8735 8.24926 80.8435 8.35926 80.8135 8.47926C80.7835 8.59926 80.7435 8.70926 80.7135 8.80926C80.6835 8.90926 80.6535 8.99926 80.6335 9.05926L80.0235 10.7393H81.7935H81.7835Z" fill="white"/>
<path d="M90.914 10.2189C90.914 10.8589 90.794 11.3989 90.554 11.8289C90.314 12.2589 89.974 12.5889 89.524 12.7989C89.074 13.0089 88.534 13.1289 87.894 13.1289H86.324V7.41895H88.064C88.644 7.41895 89.154 7.52894 89.574 7.73894C89.994 7.94894 90.324 8.26895 90.554 8.67895C90.784 9.08895 90.904 9.60895 90.904 10.2189H90.914ZM90.074 10.2489C90.074 9.75894 89.994 9.35894 89.834 9.03894C89.674 8.71895 89.444 8.48895 89.134 8.32894C88.824 8.16895 88.454 8.09895 88.004 8.09895H87.124V12.4589H87.864C88.604 12.4589 89.154 12.2689 89.524 11.9089C89.894 11.5489 90.074 10.9889 90.074 10.2589V10.2489Z" fill="white"/>
<path d="M95.5136 13.1289H92.3036V7.41895H95.5136V8.10894H93.1036V9.80895H95.3636V10.4889H93.1036V12.4389H95.5136V13.1289Z" fill="white"/>
<path d="M100.404 7.41895C101.144 7.41895 101.684 7.56895 102.024 7.85895C102.364 8.14895 102.534 8.56894 102.534 9.10894C102.534 9.34894 102.494 9.58895 102.414 9.80895C102.334 10.0289 102.204 10.2189 102.034 10.3889C101.864 10.5589 101.624 10.6889 101.344 10.7889C101.064 10.8889 100.704 10.9389 100.294 10.9389H99.6435V13.1289H98.8435V7.41895H100.414H100.404ZM100.344 8.08895H99.6335V10.2589H100.204C100.534 10.2589 100.814 10.2189 101.034 10.1489C101.254 10.0789 101.424 9.95894 101.544 9.78894C101.664 9.61894 101.714 9.40895 101.714 9.13895C101.714 8.78895 101.604 8.51895 101.384 8.34895C101.164 8.17895 100.814 8.08895 100.344 8.08895Z" fill="white"/>
<path d="M106.974 13.1289H103.764V7.41895H106.974V8.10894H104.564V9.80895H106.824V10.4889H104.564V12.4389H106.974V13.1289Z" fill="white"/>
</g>
<defs>
<clipPath id="clip0_3582_22907">
<rect width="135" height="40" fill="white" transform="translate(0.663696)"/>
</clipPath>
</defs>
</svg>
