<svg preserveAspectRatio="none" width="100%" height="100%" overflow="visible" style="display:block" viewBox="0 0 20 20" fill="none" xmlns="http://www.w3.org/2000/svg">
  <path d="M6.45833 3.125V6.04167C6.45833 6.5019 6.83143 6.875 7.29167 6.875H12.7083C13.1686 6.875 13.5417 6.5019 13.5417 6.04167V3.125M16.875 6.31536V15.2083C16.875 16.1288 16.1288 16.875 15.2083 16.875H4.79167C3.87119 16.875 3.125 16.1288 3.125 15.2083V4.79167C3.125 3.87119 3.87119 3.125 4.79167 3.125H13.6846C14.1267 3.125 14.5506 3.30059 14.8632 3.61316L16.3868 5.13684C16.6994 5.44941 16.875 5.87333 16.875 6.31536ZM6.45833 11.4583V16.0417C6.45833 16.5019 6.83143 16.875 7.29167 16.875H12.7083C13.1686 16.875 13.5417 16.5019 13.5417 16.0417V11.4583C13.5417 10.9981 13.1686 10.625 12.7083 10.625H7.29167C6.83143 10.625 6.45833 10.9981 6.45833 11.4583Z" stroke="#121212" stroke-width="1.5" stroke-linecap="round" stroke-linejoin="round"/>
</svg>
