<svg width="20" height="20" viewBox="0 0 20 20" fill="none" xmlns="http://www.w3.org/2000/svg">
  <path d="M12.8028 11.9694C13.0957 11.6765 13.5711 11.6765 13.864 11.9694C14.1568 12.2623 14.1569 12.7377 13.864 13.0306L11.1199 15.7739C10.5402 16.3536 9.62262 16.3902 9.00073 15.883L8.88028 15.7739L6.13614 13.0306L6.08487 12.9736C5.84445 12.6791 5.86155 12.2441 6.13614 11.9694C6.41079 11.6948 6.84579 11.6777 7.14037 11.9181L7.19734 11.9694L9.94148 14.7136L9.96834 14.7323C9.99842 14.7446 10.0342 14.7379 10.0587 14.7136L12.8028 11.9694ZM9.00073 4.11704C9.62262 3.6097 10.5401 3.64555 11.1199 4.22527L13.864 6.96942L13.9153 7.02638C14.1556 7.32096 14.1386 7.75601 13.864 8.03061C13.5894 8.30516 13.1543 8.32219 12.8598 8.08188L12.8028 8.03061L10.0587 5.28647C10.0342 5.26198 9.99849 5.25539 9.96834 5.26776L9.94148 5.28647L7.19734 8.03061C6.90446 8.32342 6.42902 8.32342 6.13614 8.03061C5.84327 7.73774 5.84331 7.26231 6.13614 6.96942L8.88028 4.22527L9.00073 4.11704Z" fill="#121212"/>
</svg>
