<svg preserveAspectRatio="none" width="100%" height="100%" overflow="visible" style="display: block;" viewBox="0 0 17.2623 14.4167" fill="none" xmlns="http://www.w3.org/2000/svg">
<path id="vector" d="M15.3333 6.58333V4.91667C15.3333 3.99619 14.5871 3.25 13.6667 3.25H8.90432C8.62569 3.25 8.3655 3.11075 8.21094 2.87892L7.28644 1.49217C6.97733 1.0285 6.45695 0.75 5.89969 0.75H2.41667C1.49619 0.75 0.75 1.49619 0.75 2.41667V12.3558C0.75 13.0798 1.33688 13.6667 2.06084 13.6667M15.3333 6.58333H6.37206C5.63272 6.58333 4.98174 7.07042 4.77312 7.77972L3.31842 12.7257C3.15434 13.2836 2.64235 13.6667 2.06084 13.6667M15.3333 6.58333H15.6779C16.2343 6.58333 16.6344 7.11807 16.4774 7.65181L15.0602 12.4703C14.8516 13.1796 14.2006 13.6667 13.4613 13.6667H2.06084" stroke="#121212" stroke-width="1.5" stroke-linecap="round" stroke-linejoin="round"/>
</svg>
