<svg preserveAspectRatio="none" width="100%" height="100%" overflow="visible" style="display: block;" viewBox="0 0 18.5833 13.5833" fill="none" xmlns="http://www.w3.org/2000/svg">
<path id="vector" d="M0.75 12.8333H1.58333M17.8333 12.8333H17M17 12.8333V6.08333C17 4.97876 16.1046 4.08333 15 4.08333H13.6667M17 12.8333H13.6667M13.6667 4.08333V12.8333M13.6667 4.08333V2.75C13.6667 1.64543 12.7712 0.75 11.6667 0.75H6.91667C5.8121 0.75 4.91667 1.64543 4.91667 2.75V4.08333M13.6667 12.8333H11.1667M4.91667 12.8333V4.08333M4.91667 12.8333H1.58333M4.91667 12.8333H7.41667M4.91667 4.08333H3.58333C2.47876 4.08333 1.58333 4.97876 1.58333 6.08333V12.8333M7.41667 12.8333V10.9583C7.41667 9.9228 8.25613 9.08333 9.29167 9.08333C10.3272 9.08333 11.1667 9.9228 11.1667 10.9583V12.8333M7.41667 12.8333H11.1667" stroke="#121212" stroke-width="1.5" stroke-linecap="round" stroke-linejoin="round"/>
</svg>
