<svg width="25" height="24" viewBox="0 0 25 24" fill="none" xmlns="http://www.w3.org/2000/svg">
<path fill-rule="evenodd" clip-rule="evenodd" d="M11.0364 5.36358C11.3879 5.71505 11.3879 6.2849 11.0364 6.63637L6.5728 11.1H20.4C20.8971 11.1 21.3 11.5029 21.3 12C21.3 12.497 20.8971 12.9 20.4 12.9H6.57279L11.0364 17.3636C11.3879 17.7151 11.3879 18.2849 11.0364 18.6364C10.6849 18.9878 10.1151 18.9878 9.7636 18.6364L3.7636 12.6364C3.59482 12.4676 3.5 12.2387 3.5 12C3.5 11.7613 3.59482 11.5323 3.7636 11.3636L9.76361 5.36358C10.1151 5.01211 10.6849 5.01211 11.0364 5.36358Z" fill="#121212"/>
</svg>
