<svg width="21" height="20" viewBox="0 0 21 20" fill="none" xmlns="http://www.w3.org/2000/svg">
<path fill-rule="evenodd" clip-rule="evenodd" d="M15.9302 8.86383C15.6373 9.15672 15.1625 9.15672 14.8696 8.86383L11.1499 5.14416V16.6668C11.1499 17.081 10.8141 17.4168 10.3999 17.4168C9.9857 17.4168 9.64992 17.081 9.64992 16.6668V5.14415L5.93023 8.86383C5.63734 9.15672 5.16246 9.15672 4.86957 8.86383C4.57668 8.57093 4.57668 8.09606 4.86957 7.80316L9.86959 2.80317C10.0102 2.66251 10.201 2.5835 10.3999 2.5835C10.5988 2.5835 10.7896 2.66251 10.9302 2.80317L15.9302 7.80317C16.2231 8.09606 16.2231 8.57093 15.9302 8.86383Z" fill="#121212"/>
</svg>
