<svg width="21" height="20" viewBox="0 0 21 20" fill="none" xmlns="http://www.w3.org/2000/svg">
<path fill-rule="evenodd" clip-rule="evenodd" d="M5.06965 11.1362C5.36254 10.8433 5.83741 10.8433 6.13031 11.1362L9.84996 14.8558V3.33317C9.84996 2.91896 10.1857 2.58317 10.6 2.58317C11.0142 2.58317 11.35 2.91896 11.35 3.33317V14.8558L15.0696 11.1362C15.3625 10.8433 15.8374 10.8433 16.1303 11.1362C16.4232 11.4291 16.4232 11.9039 16.1303 12.1968L11.1303 17.1968C10.9896 17.3375 10.7989 17.4165 10.6 17.4165C10.401 17.4165 10.2103 17.3375 10.0696 17.1968L5.06964 12.1968C4.77675 11.9039 4.77675 11.4291 5.06965 11.1362Z" fill="#121212"/>
</svg>
