<svg width="12" height="12" viewBox="0 0 12 12" fill="none" xmlns="http://www.w3.org/2000/svg">
<path fill-rule="evenodd" clip-rule="evenodd" d="M5.999 1.5C6.35404 1.5 6.64185 1.78782 6.64185 2.14286V4.88637L9.01765 3.5147C9.32513 3.33718 9.71829 3.44253 9.89581 3.75C10.0733 4.05747 9.96798 4.45064 9.66051 4.62816L7.28456 5.99991L9.66081 7.37184C9.96828 7.54936 10.0736 7.94253 9.89611 8.25C9.71859 8.55747 9.32542 8.66282 9.01795 8.4853L6.64185 7.11346V9.85714C6.64185 10.2122 6.35404 10.5 5.999 10.5C5.64396 10.5 5.35614 10.2122 5.35614 9.85714V7.11329L2.97974 8.4853C2.67227 8.66282 2.2791 8.55747 2.10158 8.25C1.92406 7.94253 2.02941 7.54936 2.33689 7.37184L4.71313 5.99991L2.33718 4.62816C2.02971 4.45064 1.92436 4.05747 2.10188 3.75C2.2794 3.44253 2.67257 3.33718 2.98004 3.5147L5.35614 4.88654V2.14286C5.35614 1.78782 5.64396 1.5 5.999 1.5Z" fill="#121212"/>
</svg>
