<svg width="25" height="24" viewBox="0 0 25 24" fill="none" xmlns="http://www.w3.org/2000/svg">
<path fill-rule="evenodd" clip-rule="evenodd" d="M10.0334 7.33328C10.0334 4.77437 12.1078 2.69995 14.6667 2.69995C17.2257 2.69995 19.3001 4.77437 19.3001 7.33328V14.8C19.3001 18.3898 16.3899 21.3 12.8001 21.3C9.21023 21.3 6.30008 18.3898 6.30008 14.8V11.0666C6.30008 10.5696 6.70302 10.1666 7.20008 10.1666C7.69714 10.1666 8.10008 10.5696 8.10008 11.0666V14.8C8.10008 17.3957 10.2043 19.5 12.8001 19.5C15.3958 19.5 17.5001 17.3957 17.5001 14.8V7.33328C17.5001 5.76848 16.2316 4.49995 14.6667 4.49995C13.1019 4.49995 11.8334 5.76848 11.8334 7.33328V14.8C11.8334 15.3338 12.2662 15.7666 12.8001 15.7666C13.334 15.7666 13.7667 15.3338 13.7667 14.8V7.33328C13.7667 6.83623 14.1697 6.43328 14.6667 6.43328C15.1638 6.43328 15.5667 6.83623 15.5667 7.33328V14.8C15.5667 16.3279 14.3281 17.5666 12.8001 17.5666C11.2721 17.5666 10.0334 16.3279 10.0334 14.8V7.33328Z" fill="#121212"/>
</svg>
