<svg width="25" height="24" viewBox="0 0 25 24" fill="none" xmlns="http://www.w3.org/2000/svg">
<path fill-rule="evenodd" clip-rule="evenodd" d="M2.5 7.0001C2.5 5.39847 3.79837 4.1001 5.4 4.1001H19.4C21.0016 4.1001 22.3 5.39847 22.3 7.0001V11.0001C22.3 12.6017 21.0016 13.9001 19.4 13.9001H5.4C3.79837 13.9001 2.5 12.6017 2.5 11.0001V7.0001ZM5.4 5.9001C4.79249 5.9001 4.3 6.39258 4.3 7.0001V11.0001C4.3 11.6076 4.79249 12.1001 5.4 12.1001H19.4C20.0075 12.1001 20.5 11.6076 20.5 11.0001V7.0001C20.5 6.39258 20.0075 5.9001 19.4 5.9001H5.4Z" fill="#121212"/>
<path fill-rule="evenodd" clip-rule="evenodd" d="M7.4 12.1001C7.89706 12.1001 8.3 12.503 8.3 13.0001V20.1001H8.4C8.89706 20.1001 9.3 20.503 9.3 21.0001C9.3 21.4972 8.89706 21.9001 8.4 21.9001H6.4C5.90294 21.9001 5.5 21.4972 5.5 21.0001C5.5 20.503 5.90294 20.1001 6.4 20.1001H6.5V13.0001C6.5 12.503 6.90294 12.1001 7.4 12.1001Z" fill="#121212"/>
<path fill-rule="evenodd" clip-rule="evenodd" d="M17.4 12.1001C17.8971 12.1001 18.3 12.503 18.3 13.0001V20.1001H18.4C18.8971 20.1001 19.3 20.503 19.3 21.0001C19.3 21.4972 18.8971 21.9001 18.4 21.9001H16.4C15.9029 21.9001 15.5 21.4972 15.5 21.0001C15.5 20.503 15.9029 20.1001 16.4 20.1001H16.5V13.0001C16.5 12.503 16.9029 12.1001 17.4 12.1001Z" fill="#121212"/>
<path fill-rule="evenodd" clip-rule="evenodd" d="M7.4 2.1001C7.89706 2.1001 8.3 2.50304 8.3 3.0001V4.0001C8.3 4.49715 7.89706 4.9001 7.4 4.9001C6.90294 4.9001 6.5 4.49715 6.5 4.0001V3.0001C6.5 2.50304 6.90294 2.1001 7.4 2.1001Z" fill="#121212"/>
<path fill-rule="evenodd" clip-rule="evenodd" d="M17.4 2.1001C17.8971 2.1001 18.3 2.50304 18.3 3.0001V4.0001C18.3 4.49715 17.8971 4.9001 17.4 4.9001C16.9029 4.9001 16.5 4.49715 16.5 4.0001V3.0001C16.5 2.50304 16.9029 2.1001 17.4 2.1001Z" fill="#121212"/>
<path fill-rule="evenodd" clip-rule="evenodd" d="M9.25453 4.67287C9.71139 4.86867 9.92303 5.39776 9.72723 5.85462L6.72723 12.8546C6.53143 13.3115 6.00234 13.5231 5.54547 13.3273C5.08861 13.1315 4.87697 12.6024 5.07277 12.1456L8.07277 5.14557C8.26857 4.6887 8.79766 4.47707 9.25453 4.67287Z" fill="#121212"/>
<path fill-rule="evenodd" clip-rule="evenodd" d="M19.2545 4.67287C19.7114 4.86867 19.923 5.39776 19.7272 5.85462L16.7272 12.8546C16.5314 13.3115 16.0023 13.5231 15.5455 13.3273C15.0886 13.1315 14.877 12.6024 15.0728 12.1456L18.0728 5.14557C18.2686 4.6887 18.7977 4.47707 19.2545 4.67287Z" fill="#121212"/>
<path fill-rule="evenodd" clip-rule="evenodd" d="M14.2545 4.67287C14.7114 4.86867 14.923 5.39776 14.7272 5.85462L11.7272 12.8546C11.5314 13.3115 11.0023 13.5231 10.5455 13.3273C10.0886 13.1315 9.87697 12.6024 10.0728 12.1456L13.0728 5.14557C13.2686 4.6887 13.7977 4.47707 14.2545 4.67287Z" fill="#121212"/>
</svg>
