<svg width="25" height="24" viewBox="0 0 25 24" fill="none" xmlns="http://www.w3.org/2000/svg">
<path fill-rule="evenodd" clip-rule="evenodd" d="M7.90003 18.6943C6.47818 18.6943 5.08138 19.0686 3.85003 19.7795C3.41956 20.028 2.86913 19.8805 2.62061 19.4501C2.37208 19.0196 2.51956 18.4692 2.95003 18.2206C4.45502 17.3517 6.16222 16.8943 7.90003 16.8943C9.46683 16.8943 11.0088 17.2661 12.4 17.9761C13.7913 17.2661 15.3332 16.8943 16.9 16.8943C18.6378 16.8943 20.345 17.3517 21.85 18.2206C22.2805 18.4692 22.428 19.0196 22.1795 19.4501C21.9309 19.8805 21.3805 20.028 20.95 19.7795C19.7187 19.0686 18.3219 18.6943 16.9 18.6943C15.4782 18.6943 14.0814 19.0686 12.85 19.7795C12.5716 19.9403 12.2285 19.9403 11.95 19.7795C10.7187 19.0686 9.32188 18.6943 7.90003 18.6943Z" fill="#121212"/>
<path fill-rule="evenodd" clip-rule="evenodd" d="M7.90003 5.69429C6.47818 5.69429 5.08138 6.06856 3.85003 6.77948C3.41956 7.02801 2.86913 6.88052 2.62061 6.45006C2.37208 6.0196 2.51956 5.46916 2.95003 5.22064C4.45502 4.35173 6.16222 3.89429 7.90003 3.89429C9.46683 3.89429 11.0088 4.26613 12.4 4.97612C13.7913 4.26613 15.3332 3.89429 16.9 3.89429C18.6378 3.89429 20.345 4.35173 21.85 5.22064C22.2805 5.46916 22.428 6.0196 22.1795 6.45006C21.9309 6.88052 21.3805 7.02801 20.95 6.77948C19.7187 6.06856 18.3219 5.69429 16.9 5.69429C15.4782 5.69429 14.0814 6.06856 12.85 6.77948C12.5716 6.94025 12.2285 6.94025 11.95 6.77948C10.7187 6.06856 9.32188 5.69429 7.90003 5.69429Z" fill="#121212"/>
<path fill-rule="evenodd" clip-rule="evenodd" d="M3.40003 5.10006C3.89708 5.10006 4.30003 5.503 4.30003 6.00006V19.0001C4.30003 19.4971 3.89708 19.9001 3.40003 19.9001C2.90297 19.9001 2.50003 19.4971 2.50003 19.0001V6.00006C2.50003 5.503 2.90297 5.10006 3.40003 5.10006Z" fill="#121212"/>
<path fill-rule="evenodd" clip-rule="evenodd" d="M12.4 5.10006C12.8971 5.10006 13.3 5.503 13.3 6.00006V19.0001C13.3 19.4971 12.8971 19.9001 12.4 19.9001C11.903 19.9001 11.5 19.4971 11.5 19.0001V6.00006C11.5 5.503 11.903 5.10006 12.4 5.10006Z" fill="#121212"/>
<path fill-rule="evenodd" clip-rule="evenodd" d="M21.4 5.10006C21.8971 5.10006 22.3 5.503 22.3 6.00006V19.0001C22.3 19.4971 21.8971 19.9001 21.4 19.9001C20.903 19.9001 20.5 19.4971 20.5 19.0001V6.00006C20.5 5.503 20.903 5.10006 21.4 5.10006Z" fill="#121212"/>
</svg>
