<svg width="24" height="24" viewBox="0 0 24 24" fill="none" xmlns="http://www.w3.org/2000/svg">
<path fill-rule="evenodd" clip-rule="evenodd" d="M18.0022 4.89998L6.0022 4.9C5.39469 4.9 4.9022 5.39248 4.9022 6V16.0357C4.9022 16.6433 5.39469 17.1357 6.0022 17.1357H8.65182C9.09819 17.1357 9.53031 17.2929 9.87239 17.5796L12.0013 19.3642L14.1638 17.5726C14.5046 17.2903 14.9333 17.1357 15.3759 17.1357L18.0022 17.1357C18.6097 17.1357 19.1022 16.6432 19.1022 16.0357V5.99998C19.1022 5.39246 18.6097 4.89997 18.0022 4.89998ZM6.0022 3.1L18.0022 3.09998C19.6038 3.09997 20.9022 4.39835 20.9022 5.99998V16.0357C20.9022 17.6373 19.6038 18.9357 18.0022 18.9357L15.3759 18.9357C15.3526 18.9357 15.3301 18.9439 15.3121 18.9587L12.5721 21.2288C12.2375 21.506 11.7527 21.5046 11.4198 21.2255L8.71606 18.9591C8.69806 18.944 8.67532 18.9357 8.65182 18.9357H6.0022C4.40058 18.9357 3.1022 17.6374 3.1022 16.0357V6C3.1022 4.39837 4.40057 3.1 6.0022 3.1ZM12 7.0569C12.4971 7.0569 12.9 7.45984 12.9 7.9569V10.5C12.9 10.997 12.4971 11.4 12 11.4C11.5029 11.4 11.1 10.997 11.1 10.5V7.9569C11.1 7.45984 11.5029 7.0569 12 7.0569Z" fill="#121212"/>
<path fill-rule="evenodd" clip-rule="evenodd" d="M11.05 13.5C11.05 12.9753 11.4753 12.55 12 12.55C12.5247 12.55 12.95 12.9753 12.95 13.5C12.95 14.0246 12.5247 14.45 12 14.45C11.4753 14.45 11.05 14.0246 11.05 13.5Z" fill="#121212"/>
</svg>
