<svg width="25" height="24" viewBox="0 0 25 24" fill="none" xmlns="http://www.w3.org/2000/svg">
<path fill-rule="evenodd" clip-rule="evenodd" d="M4.60004 4.9C4.60004 3.29837 5.89841 2 7.50004 2H17.5C19.1017 2 20.4 3.29837 20.4 4.9V18.9C20.4 20.5016 19.1017 21.8 17.5 21.8H7.50004C5.89841 21.8 4.60004 20.5016 4.60004 18.9V4.9ZM7.50004 3.8C6.89252 3.8 6.40004 4.29249 6.40004 4.9V7H18.6V4.9C18.6 4.29249 18.1075 3.8 17.5 3.8H7.50004ZM18.6 8.8H6.40004V18.9C6.40004 19.5075 6.89252 20 7.50004 20H17.5C18.1075 20 18.6 19.5075 18.6 18.9V8.8Z" fill="#121212"/>
<path d="M10.85 12.25C10.85 12.5261 10.6262 12.75 10.35 12.75C10.0739 12.75 9.85004 12.5261 9.85004 12.25C9.85004 11.9739 10.0739 11.75 10.35 11.75C10.6262 11.75 10.85 11.9739 10.85 12.25Z" fill="#121212"/>
<path d="M10.85 16.75C10.85 17.0261 10.6262 17.25 10.35 17.25C10.0739 17.25 9.85004 17.0261 9.85004 16.75C9.85004 16.4739 10.0739 16.25 10.35 16.25C10.6262 16.25 10.85 16.4739 10.85 16.75Z" fill="#121212"/>
<path d="M15.35 12.25C15.35 12.5261 15.1262 12.75 14.85 12.75C14.5739 12.75 14.35 12.5261 14.35 12.25C14.35 11.9739 14.5739 11.75 14.85 11.75C15.1262 11.75 15.35 11.9739 15.35 12.25Z" fill="#121212"/>
<path d="M15.35 16.75C15.35 17.0261 15.1262 17.25 14.85 17.25C14.5739 17.25 14.35 17.0261 14.35 16.75C14.35 16.4739 14.5739 16.25 14.85 16.25C15.1262 16.25 15.35 16.4739 15.35 16.75Z" fill="#121212"/>
<path fill-rule="evenodd" clip-rule="evenodd" d="M11.6 12.25C11.6 12.9404 11.0404 13.5 10.35 13.5C9.65968 13.5 9.10004 12.9404 9.10004 12.25C9.10004 11.5596 9.65968 11 10.35 11C11.0404 11 11.6 11.5596 11.6 12.25ZM11.6 16.75C11.6 17.4404 11.0404 18 10.35 18C9.65968 18 9.10004 17.4404 9.10004 16.75C9.10004 16.0596 9.65968 15.5 10.35 15.5C11.0404 15.5 11.6 16.0596 11.6 16.75ZM16.1 12.25C16.1 12.9404 15.5404 13.5 14.85 13.5C14.1597 13.5 13.6 12.9404 13.6 12.25C13.6 11.5596 14.1597 11 14.85 11C15.5404 11 16.1 11.5596 16.1 12.25ZM16.1 16.75C16.1 17.4404 15.5404 18 14.85 18C14.1597 18 13.6 17.4404 13.6 16.75C13.6 16.0596 14.1597 15.5 14.85 15.5C15.5404 15.5 16.1 16.0596 16.1 16.75ZM10.35 12.75C10.6262 12.75 10.85 12.5261 10.85 12.25C10.85 11.9739 10.6262 11.75 10.35 11.75C10.0739 11.75 9.85004 11.9739 9.85004 12.25C9.85004 12.5261 10.0739 12.75 10.35 12.75ZM10.35 17.25C10.6262 17.25 10.85 17.0261 10.85 16.75C10.85 16.4739 10.6262 16.25 10.35 16.25C10.0739 16.25 9.85004 16.4739 9.85004 16.75C9.85004 17.0261 10.0739 17.25 10.35 17.25ZM15.35 12.25C15.35 12.5261 15.1262 12.75 14.85 12.75C14.5739 12.75 14.35 12.5261 14.35 12.25C14.35 11.9739 14.5739 11.75 14.85 11.75C15.1262 11.75 15.35 11.9739 15.35 12.25ZM14.85 17.25C15.1262 17.25 15.35 17.0261 15.35 16.75C15.35 16.4739 15.1262 16.25 14.85 16.25C14.5739 16.25 14.35 16.4739 14.35 16.75C14.35 17.0261 14.5739 17.25 14.85 17.25Z" fill="#121212"/>
</svg>
