<svg width="25" height="24" viewBox="0 0 25 24" fill="none" xmlns="http://www.w3.org/2000/svg">
<path fill-rule="evenodd" clip-rule="evenodd" d="M8.59995 2.1001C9.09701 2.1001 9.49995 2.50304 9.49995 3.0001V4.1001H15.7V3.0001C15.7 2.50304 16.1029 2.1001 16.6 2.1001C17.097 2.1001 17.5 2.50304 17.5 3.0001V4.1001H18.6C20.2016 4.1001 21.5 5.39847 21.5 7.0001V11.0001C21.5 11.4972 21.097 11.9001 20.6 11.9001C20.1029 11.9001 19.7 11.4972 19.7 11.0001V9.9001H5.49995V18.0001C5.49995 18.6076 5.99244 19.1001 6.59995 19.1001H11.6C12.097 19.1001 12.5 19.503 12.5 20.0001C12.5 20.4972 12.097 20.9001 11.6 20.9001H6.59995C4.99833 20.9001 3.69995 19.6017 3.69995 18.0001V7.0001C3.69995 5.39847 4.99833 4.1001 6.59995 4.1001H7.69995V3.0001C7.69995 2.50304 8.10289 2.1001 8.59995 2.1001ZM6.59995 5.9001C5.99244 5.9001 5.49995 6.39258 5.49995 7.0001V8.1001H19.7V7.0001C19.7 6.39258 19.2075 5.9001 18.6 5.9001H6.59995ZM18.6 14.1001C19.097 14.1001 19.5 14.503 19.5 15.0001V17.1001H21.6C22.097 17.1001 22.5 17.503 22.5 18.0001C22.5 18.4972 22.097 18.9001 21.6 18.9001H19.5V21.0001C19.5 21.4972 19.097 21.9001 18.6 21.9001C18.1029 21.9001 17.7 21.4972 17.7 21.0001V18.9001H15.6C15.1029 18.9001 14.7 18.4972 14.7 18.0001C14.7 17.503 15.1029 17.1001 15.6 17.1001H17.7V15.0001C17.7 14.503 18.1029 14.1001 18.6 14.1001Z" fill="#121212"/>
</svg>
