<svg width="25" height="24" viewBox="0 0 25 24" fill="none" xmlns="http://www.w3.org/2000/svg">
<path fill-rule="evenodd" clip-rule="evenodd" d="M8.60001 2.09998C9.09707 2.09998 9.50001 2.50292 9.50001 2.99998V4.09998H15.7V2.99998C15.7 2.50292 16.103 2.09998 16.6 2.09998C17.0971 2.09998 17.5 2.50292 17.5 2.99998V4.09998H18.6C20.2016 4.09998 21.5 5.39835 21.5 6.99998V11C21.5 11.497 21.0971 11.9 20.6 11.9C20.103 11.9 19.7 11.497 19.7 11V9.89998H5.50001V18C5.50001 18.6075 5.9925 19.1 6.60001 19.1H11.6C12.0971 19.1 12.5 19.5029 12.5 20C12.5 20.497 12.0971 20.9 11.6 20.9H6.60001C4.99839 20.9 3.70001 19.6016 3.70001 18V6.99998C3.70001 5.39835 4.99839 4.09998 6.60001 4.09998H7.70001V2.99998C7.70001 2.50292 8.10296 2.09998 8.60001 2.09998ZM6.60001 5.89998C5.9925 5.89998 5.50001 6.39246 5.50001 6.99998V8.09998H19.7V6.99998C19.7 6.39246 19.2075 5.89998 18.6 5.89998H6.60001ZM15.9637 16.6364C15.6122 16.285 15.6121 15.7151 15.9636 15.3636C16.315 15.0121 16.8849 15.0121 17.2364 15.3635L18.6002 16.7272L19.9636 15.3636C20.315 15.0121 20.8849 15.0121 21.2364 15.3635C21.5879 15.715 21.5879 16.2848 21.2364 16.6363L19.873 18L21.2364 19.3636C21.5879 19.7151 21.5879 20.285 21.2364 20.6364C20.8849 20.9879 20.315 20.9878 19.9636 20.6363L18.6002 19.2728L17.2364 20.6364C16.8849 20.9879 16.315 20.9878 15.9636 20.6363C15.6121 20.2848 15.6122 19.715 15.9637 19.3635L17.3274 18L15.9637 16.6364Z" fill="#121212"/>
</svg>
