<svg width="25" height="24" viewBox="0 0 25 24" fill="none" xmlns="http://www.w3.org/2000/svg">
<path fill-rule="evenodd" clip-rule="evenodd" d="M7.64488 6.21821C7.32204 6.21821 7.01868 6.37269 6.8288 6.63379L6.10093 6.10443L6.82879 6.63379L3.75455 10.8609V16.7728C3.75455 17.3301 4.20633 17.7818 4.76364 17.7818C5.32094 17.7818 5.77273 17.3301 5.77273 16.7728C5.77273 16.2757 6.17567 15.8728 6.67273 15.8728H18.1273C18.6243 15.8728 19.0273 16.2757 19.0273 16.7728C19.0273 17.3301 19.4791 17.7819 20.0364 17.7819C20.5937 17.7819 21.0455 17.3301 21.0455 16.7728V11.0304L17.9615 6.64668C17.7725 6.37806 17.4646 6.21821 17.1362 6.21821H7.64488ZM22.8455 11.6455V16.7728C22.8455 18.3242 21.5878 19.5819 20.0364 19.5819C18.7997 19.5819 17.7497 18.7828 17.3745 17.6728H7.42546C7.05028 18.7828 6.00028 19.5818 4.76364 19.5818C3.21222 19.5818 1.95455 18.3242 1.95455 16.7728V11.4682H1.9C1.40294 11.4682 1 11.0653 1 10.5682C1 10.0712 1.40294 9.66821 1.9 9.66821H2.39624L5.37307 5.57508C5.90168 4.84824 6.74615 4.41821 7.64488 4.41821H17.1362C18.0505 4.41821 18.9076 4.86319 19.4336 5.61098L22.4127 9.84549H22.9C23.3971 9.84549 23.8 10.2484 23.8 10.7455C23.8 11.2425 23.3971 11.6455 22.9 11.6455H22.8455ZM5.77273 12.9546C5.77273 12.4575 6.17567 12.0546 6.67273 12.0546H8.58182C9.07887 12.0546 9.48182 12.4575 9.48182 12.9546C9.48182 13.4516 9.07887 13.8546 8.58182 13.8546H6.67273C6.17567 13.8546 5.77273 13.4516 5.77273 12.9546ZM15.3182 12.9546C15.3182 12.4575 15.7211 12.0546 16.2182 12.0546H18.1273C18.6243 12.0546 19.0273 12.4575 19.0273 12.9546C19.0273 13.4516 18.6243 13.8546 18.1273 13.8546H16.2182C15.7211 13.8546 15.3182 13.4516 15.3182 12.9546Z" fill="#121212"/>
</svg>
