<svg width="25" height="24" viewBox="0 0 25 24" fill="none" xmlns="http://www.w3.org/2000/svg">
<path fill-rule="evenodd" clip-rule="evenodd" d="M10.3332 4.99443C11.0275 4.82086 11.7 5.34596 11.7 6.06158V17.9385C11.7 18.6541 11.0275 19.1792 10.3332 19.0056L6.33321 18.0056C5.84353 17.8832 5.5 17.4432 5.5 16.9385V7.06158C5.5 6.55683 5.84353 6.11685 6.33321 5.99443L10.3332 4.99443ZM13.5 6.06158C13.5 4.17493 11.727 2.79059 9.89665 3.24817L5.89665 4.24817C4.60566 4.57092 3.7 5.73087 3.7 7.06158V16.9385C3.7 18.2692 4.60566 19.4291 5.89665 19.7519L9.89665 20.7519C11.727 21.2095 13.5 19.8251 13.5 17.9385V6.06158ZM16.6 4.10003C16.1029 4.10003 15.7 4.50298 15.7 5.00003V19C15.7 19.4971 16.1029 19.9 16.6 19.9C17.0971 19.9 17.5 19.4971 17.5 19V5.00003C17.5 4.50298 17.0971 4.10003 16.6 4.10003ZM20.6 5.10003C20.1029 5.10003 19.7 5.50298 19.7 6.00003V18C19.7 18.4971 20.1029 18.9 20.6 18.9C21.0971 18.9 21.5 18.4971 21.5 18V6.00003C21.5 5.50298 21.0971 5.10003 20.6 5.10003Z" fill="#121212"/>
</svg>
