<svg width="25" height="24" viewBox="0 0 25 24" fill="none" xmlns="http://www.w3.org/2000/svg">
<path fill-rule="evenodd" clip-rule="evenodd" d="M10.3001 3.1001C10.7971 3.1001 11.2001 3.50304 11.2001 4.0001V12.0001C11.2001 12.4972 10.7971 12.9001 10.3001 12.9001C9.803 12.9001 9.40005 12.4972 9.40005 12.0001V4.0001C9.40005 3.50304 9.803 3.1001 10.3001 3.1001ZM4.80005 7.1001C5.29711 7.1001 5.70005 7.50304 5.70005 8.0001V16.0001C5.70005 16.4972 5.29711 16.9001 4.80005 16.9001C4.303 16.9001 3.90005 16.4972 3.90005 16.0001V8.0001C3.90005 7.50304 4.303 7.1001 4.80005 7.1001ZM20.8001 7.1001C21.2971 7.1001 21.7001 7.50304 21.7001 8.0001V16.0001C21.7001 16.4972 21.2971 16.9001 20.8001 16.9001C20.303 16.9001 19.9001 16.4972 19.9001 16.0001V8.0001C19.9001 7.50304 20.303 7.1001 20.8001 7.1001ZM15.3001 11.1001C15.7971 11.1001 16.2001 11.503 16.2001 12.0001V20.0001C16.2001 20.4972 15.7971 20.9001 15.3001 20.9001C14.803 20.9001 14.4001 20.4972 14.4001 20.0001V12.0001C14.4001 11.503 14.803 11.1001 15.3001 11.1001Z" fill="#121212"/>
</svg>
