<svg width="25" height="24" viewBox="0 0 25 24" fill="none" xmlns="http://www.w3.org/2000/svg">
<path fill-rule="evenodd" clip-rule="evenodd" d="M9.43997 5.27991C9.83762 5.57814 9.91821 6.14226 9.61997 6.53991L6.61997 10.5399C6.33338 10.922 5.79818 11.0137 5.40074 10.7488L3.90074 9.74875C3.48717 9.47303 3.37541 8.91425 3.65113 8.50068C3.92685 8.0871 4.48563 7.97534 4.8992 8.25106L5.69081 8.7788L8.17997 5.45991C8.47821 5.06226 9.04233 4.98167 9.43997 5.27991ZM12.5 7.99991C12.5 7.50285 12.9029 7.09991 13.4 7.09991H20.4C20.897 7.09991 21.3 7.50285 21.3 7.99991C21.3 8.49696 20.897 8.89991 20.4 8.89991H13.4C12.9029 8.89991 12.5 8.49696 12.5 7.99991ZM9.43997 13.2799C9.83762 13.5781 9.91821 14.1423 9.61997 14.5399L6.61997 18.5399C6.33338 18.922 5.79818 19.0137 5.40074 18.7488L3.90074 17.7488C3.48717 17.473 3.37541 16.9143 3.65113 16.5007C3.92685 16.0871 4.48563 15.9753 4.8992 16.2511L5.69081 16.7788L8.17997 13.4599C8.47821 13.0623 9.04233 12.9817 9.43997 13.2799ZM12.5 15.9999C12.5 15.5029 12.9029 15.0999 13.4 15.0999H20.4C20.897 15.0999 21.3 15.5029 21.3 15.9999C21.3 16.497 20.897 16.8999 20.4 16.8999H13.4C12.9029 16.8999 12.5 16.497 12.5 15.9999Z" fill="#121212"/>
</svg>
