<svg width="25" height="24" viewBox="0 0 25 24" fill="none" xmlns="http://www.w3.org/2000/svg">
<path fill-rule="evenodd" clip-rule="evenodd" d="M12.8 3.89998C8.32649 3.89998 4.69999 7.52647 4.69999 12C4.69999 16.4735 8.32649 20.1 12.8 20.1C17.2735 20.1 20.9 16.4735 20.9 12C20.9 7.52647 17.2735 3.89998 12.8 3.89998ZM2.89999 12C2.89999 6.53236 7.33237 2.09998 12.8 2.09998C18.2676 2.09998 22.7 6.53236 22.7 12C22.7 17.4676 18.2676 21.9 12.8 21.9C7.33237 21.9 2.89999 17.4676 2.89999 12ZM10.9 11C10.9 10.5029 11.3029 10.1 11.8 10.1H12.8C13.297 10.1 13.7 10.5029 13.7 11V16C13.7 16.497 13.297 16.9 12.8 16.9C12.3029 16.9 11.9 16.497 11.9 16V11.9H11.8C11.3029 11.9 10.9 11.497 10.9 11Z" fill="#121212"/>
<path d="M12.3 7.99998C12.3 7.72383 12.5239 7.49998 12.8 7.49998C13.0761 7.49998 13.3 7.72383 13.3 7.99998C13.3 8.27612 13.0761 8.49998 12.8 8.49998C12.5239 8.49998 12.3 8.27612 12.3 7.99998Z" fill="#121212"/>
<path fill-rule="evenodd" clip-rule="evenodd" d="M12.8 8.99998C12.2477 8.99998 11.8 8.55226 11.8 7.99998C11.8 7.44769 12.2477 6.99998 12.8 6.99998C13.3523 6.99998 13.8 7.44769 13.8 7.99998C13.8 8.55226 13.3523 8.99998 12.8 8.99998ZM12.8 7.49998C12.5239 7.49998 12.3 7.72383 12.3 7.99998C12.3 8.27612 12.5239 8.49998 12.8 8.49998C13.0761 8.49998 13.3 8.27612 13.3 7.99998C13.3 7.72383 13.0761 7.49998 12.8 7.49998Z" fill="#121212"/>
</svg>
