<svg width="25" height="24" viewBox="0 0 25 24" fill="none" xmlns="http://www.w3.org/2000/svg">
<path fill-rule="evenodd" clip-rule="evenodd" d="M12.6 3.9001C8.12651 3.9001 4.50001 7.52659 4.50001 12.0001C4.50001 16.4736 8.12651 20.1001 12.6 20.1001C17.0735 20.1001 20.7 16.4736 20.7 12.0001C20.7 7.52659 17.0735 3.9001 12.6 3.9001ZM2.70001 12.0001C2.70001 6.53248 7.13239 2.1001 12.6 2.1001C18.0676 2.1001 22.5 6.53248 22.5 12.0001C22.5 17.4677 18.0676 21.9001 12.6 21.9001C7.13239 21.9001 2.70001 17.4677 2.70001 12.0001ZM12.6 7.1001C13.0971 7.1001 13.5 7.50304 13.5 8.0001V10.8273L13.9636 10.3637C14.3151 10.0122 14.8849 10.0122 15.2364 10.3637C15.5879 10.7152 15.5879 11.285 15.2364 11.6365L13.2364 13.6365C12.8849 13.988 12.3151 13.988 11.9636 13.6365L9.96362 11.6365C9.61214 11.285 9.61214 10.7152 9.96362 10.3637C10.3151 10.0122 10.8849 10.0122 11.2364 10.3637L11.7 10.8273V8.0001C11.7 7.50304 12.103 7.1001 12.6 7.1001ZM8.70001 16.0001C8.70001 15.503 9.10296 15.1001 9.60001 15.1001H15.6C16.0971 15.1001 16.5 15.503 16.5 16.0001C16.5 16.4972 16.0971 16.9001 15.6 16.9001H9.60001C9.10296 16.9001 8.70001 16.4972 8.70001 16.0001Z" fill="#121212"/>
</svg>
