<svg width="25" height="24" viewBox="0 0 25 24" fill="none" xmlns="http://www.w3.org/2000/svg">
<path fill-rule="evenodd" clip-rule="evenodd" d="M12.8 3.9001C8.32652 3.9001 4.70002 7.52659 4.70002 12.0001C4.70002 16.4736 8.32652 20.1001 12.8 20.1001C17.2735 20.1001 20.9 16.4736 20.9 12.0001C20.9 7.52659 17.2735 3.9001 12.8 3.9001ZM2.90002 12.0001C2.90002 6.53248 7.33241 2.1001 12.8 2.1001C18.2676 2.1001 22.7 6.53248 22.7 12.0001C22.7 17.4677 18.2676 21.9001 12.8 21.9001C7.33241 21.9001 2.90002 17.4677 2.90002 12.0001ZM12.8 7.1001C13.2971 7.1001 13.7 7.50304 13.7 8.0001V11.6273L15.9364 13.8637C16.2879 14.2152 16.2879 14.785 15.9364 15.1365C15.5849 15.488 15.0151 15.488 14.6636 15.1365L12.1636 12.6365C11.9948 12.4677 11.9 12.2388 11.9 12.0001V8.0001C11.9 7.50304 12.303 7.1001 12.8 7.1001Z" fill="#121212"/>
</svg>
