<svg width="24" height="24" viewBox="0 0 24 24" fill="none" xmlns="http://www.w3.org/2000/svg">
<path fill-rule="evenodd" clip-rule="evenodd" d="M5.00001 5.9001C4.39249 5.9001 3.90001 6.39258 3.90001 7.0001V9.1001H20.1V6.99985C20.1 6.39248 19.6077 5.9001 19 5.9001H5.00001ZM20.1 10.9001H3.90001V17.0001C3.90001 17.6076 4.39249 18.1001 5.00001 18.1001H19C19.6075 18.1001 20.1 17.6076 20.1 17.0001V10.9001ZM2.10001 7.0001C2.10001 5.39847 3.39838 4.1001 5.00001 4.1001H19C20.6015 4.1001 21.9 5.39808 21.9 6.99985V17.0001C21.9 18.6017 20.6016 19.9001 19 19.9001H5.00001C3.39838 19.9001 2.10001 18.6017 2.10001 17.0001V7.0001ZM6.10001 14.0001C6.10001 13.503 6.50295 13.1001 7.00001 13.1001H10C10.4971 13.1001 10.9 13.503 10.9 14.0001C10.9 14.4972 10.4971 14.9001 10 14.9001H7.00001C6.50295 14.9001 6.10001 14.4972 6.10001 14.0001Z" fill="#121212"/>
</svg>
