<svg width="25" height="24" viewBox="0 0 25 24" fill="none" xmlns="http://www.w3.org/2000/svg">
<path fill-rule="evenodd" clip-rule="evenodd" d="M7.59995 3.89998C6.99244 3.89998 6.49995 4.39246 6.49995 4.99998V19C6.49995 19.6075 6.99244 20.1 7.59995 20.1H10.1C10.597 20.1 11 20.5029 11 21C11 21.497 10.597 21.9 10.1 21.9H7.59995C5.99833 21.9 4.69995 20.6016 4.69995 19V4.99998C4.69995 3.39835 5.99833 2.09998 7.59995 2.09998H17.6C19.2016 2.09998 20.5 3.39835 20.5 4.99998V9.99998C20.5 10.497 20.097 10.9 19.6 10.9C19.1029 10.9 18.7 10.497 18.7 9.99998V4.99998C18.7 4.39246 18.2075 3.89998 17.6 3.89998H7.59995ZM8.69995 6.99998C8.69995 6.50292 9.10289 6.09998 9.59995 6.09998H15.6C16.097 6.09998 16.5 6.50292 16.5 6.99998C16.5 7.49703 16.097 7.89998 15.6 7.89998H9.59995C9.10289 7.89998 8.69995 7.49703 8.69995 6.99998ZM8.69995 11C8.69995 10.5029 9.10289 10.1 9.59995 10.1H12.6C13.097 10.1 13.5 10.5029 13.5 11C13.5 11.497 13.097 11.9 12.6 11.9H9.59995C9.10289 11.9 8.69995 11.497 8.69995 11Z" fill="#121212"/>
<path fill-rule="evenodd" clip-rule="evenodd" d="M17.1999 13.1999C19.0386 13.1999 20.8247 14.2572 22.0187 16.2629C22.2604 16.6689 22.2604 17.1753 22.0187 17.5813C20.8247 19.587 19.0386 20.6443 17.2 20.6443C15.3613 20.6443 13.5752 19.5871 12.3812 17.5814C12.1395 17.1753 12.1395 16.669 12.3812 16.2629C13.5752 14.2572 15.3613 13.1999 17.1999 13.1999ZM15.5715 16.9221C15.5715 16.0228 16.3006 15.2937 17.2 15.2937C18.0993 15.2937 18.8284 16.0228 18.8284 16.9221C18.8284 17.8215 18.0993 18.5506 17.2 18.5506C16.3006 18.5506 15.5715 17.8215 15.5715 16.9221Z" fill="#121212"/>
</svg>
