<svg width="24" height="24" viewBox="0 0 24 24" fill="none" xmlns="http://www.w3.org/2000/svg">
<path fill-rule="evenodd" clip-rule="evenodd" d="M8.20437 5.09998H4.00001C3.50295 5.09998 3.10001 5.50292 3.10001 5.99998C3.10001 6.49703 3.50295 6.89998 4.00001 6.89998H5.10001V19C5.10001 20.6016 6.39838 21.9 8.00001 21.9H16C17.6016 21.9 18.9 20.6016 18.9 19V6.89998H20C20.4971 6.89998 20.9 6.49703 20.9 5.99998C20.9 5.50292 20.4971 5.09998 20 5.09998H15.7956C15.3893 3.37996 13.8442 2.09998 12 2.09998C10.1559 2.09998 8.61066 3.37996 8.20437 5.09998ZM10.1021 5.09998H13.8979C13.5609 4.39049 12.8377 3.89998 12 3.89998C11.1623 3.89998 10.4391 4.39049 10.1021 5.09998ZM6.90001 6.89998V19C6.90001 19.6075 7.39249 20.1 8.00001 20.1H16C16.6075 20.1 17.1 19.6075 17.1 19V6.89998H6.90001ZM10 10.1C10.4971 10.1 10.9 10.5029 10.9 11V16C10.9 16.497 10.4971 16.9 10 16.9C9.50295 16.9 9.10001 16.497 9.10001 16V11C9.10001 10.5029 9.50295 10.1 10 10.1ZM14 10.1C14.4971 10.1 14.9 10.5029 14.9 11V16C14.9 16.497 14.4971 16.9 14 16.9C13.5029 16.9 13.1 16.497 13.1 16V11C13.1 10.5029 13.5029 10.1 14 10.1Z" fill="#121212"/>
</svg>
