<svg width="25" height="24" viewBox="0 0 25 24" fill="none" xmlns="http://www.w3.org/2000/svg">
<path fill-rule="evenodd" clip-rule="evenodd" d="M19.0372 2.97688C20.5058 2.51036 21.8897 3.89427 21.4232 5.36292L16.3052 21.4752C15.7286 23.2906 13.1367 23.2227 12.6559 21.3796L10.6772 13.7944C10.668 13.7594 10.6407 13.7321 10.6057 13.7229L3.02053 11.7442C1.17743 11.2634 1.1095 8.67155 2.92492 8.09489L19.0372 2.97688ZM19.6362 4.68861C19.6257 4.68584 19.6097 4.68364 19.5821 4.69241L3.46985 9.81042C3.445 9.81831 3.43269 9.82647 3.42758 9.83033C3.42222 9.83437 3.41864 9.83834 3.41556 9.84298C3.40855 9.85354 3.39932 9.87607 3.40017 9.90834C3.40101 9.94061 3.41141 9.96262 3.41897 9.97281C3.42229 9.97728 3.42606 9.98105 3.43163 9.98481C3.43693 9.9884 3.44966 9.9959 3.47489 10.0025L11.06 11.9812C11.7255 12.1548 12.2453 12.6746 12.4189 13.3401L14.3976 20.9252C14.4042 20.9504 14.4117 20.9632 14.4153 20.9685C14.419 20.974 14.4228 20.9778 14.4273 20.9811C14.4375 20.9887 14.4595 20.9991 14.4918 20.9999C14.524 21.0008 14.5466 20.9915 14.5571 20.9845C14.5618 20.9814 14.5657 20.9779 14.5698 20.9725C14.5736 20.9674 14.5818 20.9551 14.5897 20.9302L19.7077 4.81799C19.7165 4.79039 19.7143 4.7744 19.7115 4.76392C19.7078 4.75013 19.699 4.73293 19.6831 4.717C19.6672 4.70107 19.65 4.69226 19.6362 4.68861Z" fill="#121212"/>
</svg>
