<svg width="24" height="24" viewBox="0 0 24 24" fill="none" xmlns="http://www.w3.org/2000/svg">
<path fill-rule="evenodd" clip-rule="evenodd" d="M9.00001 4.89998C8.94478 4.89998 8.90001 4.94475 8.90001 4.99998C8.90001 5.0552 8.94478 5.09998 9.00001 5.09998C9.05523 5.09998 9.10001 5.0552 9.10001 4.99998C9.10001 4.94475 9.05523 4.89998 9.00001 4.89998ZM7.10001 4.99998C7.10001 3.95063 7.95066 3.09998 9.00001 3.09998C10.0493 3.09998 10.9 3.95063 10.9 4.99998C10.9 6.04932 10.0493 6.89998 9.00001 6.89998C7.95066 6.89998 7.10001 6.04932 7.10001 4.99998ZM15 4.89998C14.9448 4.89998 14.9 4.94475 14.9 4.99998C14.9 5.0552 14.9448 5.09998 15 5.09998C15.0552 5.09998 15.1 5.0552 15.1 4.99998C15.1 4.94475 15.0552 4.89998 15 4.89998ZM13.1 4.99998C13.1 3.95063 13.9507 3.09998 15 3.09998C16.0493 3.09998 16.9 3.95063 16.9 4.99998C16.9 6.04932 16.0493 6.89998 15 6.89998C13.9507 6.89998 13.1 6.04932 13.1 4.99998ZM9.00001 11.9C8.94478 11.9 8.90001 11.9447 8.90001 12C8.90001 12.0552 8.94478 12.1 9.00001 12.1C9.05523 12.1 9.10001 12.0552 9.10001 12C9.10001 11.9447 9.05523 11.9 9.00001 11.9ZM7.10001 12C7.10001 10.9506 7.95066 10.1 9.00001 10.1C10.0493 10.1 10.9 10.9506 10.9 12C10.9 13.0493 10.0493 13.9 9.00001 13.9C7.95066 13.9 7.10001 13.0493 7.10001 12ZM15 11.9C14.9448 11.9 14.9 11.9447 14.9 12C14.9 12.0552 14.9448 12.1 15 12.1C15.0552 12.1 15.1 12.0552 15.1 12C15.1 11.9447 15.0552 11.9 15 11.9ZM13.1 12C13.1 10.9506 13.9507 10.1 15 10.1C16.0493 10.1 16.9 10.9506 16.9 12C16.9 13.0493 16.0493 13.9 15 13.9C13.9507 13.9 13.1 13.0493 13.1 12ZM9.00001 18.9C8.94478 18.9 8.90001 18.9447 8.90001 19C8.90001 19.0552 8.94478 19.1 9.00001 19.1C9.05523 19.1 9.10001 19.0552 9.10001 19C9.10001 18.9447 9.05523 18.9 9.00001 18.9ZM7.10001 19C7.10001 17.9506 7.95066 17.1 9.00001 17.1C10.0493 17.1 10.9 17.9506 10.9 19C10.9 20.0493 10.0493 20.9 9.00001 20.9C7.95066 20.9 7.10001 20.0493 7.10001 19ZM15 18.9C14.9448 18.9 14.9 18.9447 14.9 19C14.9 19.0552 14.9448 19.1 15 19.1C15.0552 19.1 15.1 19.0552 15.1 19C15.1 18.9447 15.0552 18.9 15 18.9ZM13.1 19C13.1 17.9506 13.9507 17.1 15 17.1C16.0493 17.1 16.9 17.9506 16.9 19C16.9 20.0493 16.0493 20.9 15 20.9C13.9507 20.9 13.1 20.0493 13.1 19Z" fill="#121212"/>
</svg>
