<svg width="25" height="24" viewBox="0 0 25 24" fill="none" xmlns="http://www.w3.org/2000/svg">
<path fill-rule="evenodd" clip-rule="evenodd" d="M15.5946 4.05814C16.6533 2.9995 18.3697 2.9995 19.4283 4.05814L20.9418 5.5716C22.0004 6.63024 22.0004 8.34663 20.9418 9.40527L9.81169 20.5354C9.4731 20.8739 9.01389 21.0642 8.53507 21.0642H4.83576C4.3387 21.0642 3.93576 20.6612 3.93576 20.1642V16.4649C3.93576 15.986 4.12597 15.5268 4.46455 15.1882L15.5946 4.05814ZM18.1555 5.33093C17.7998 4.97524 17.2231 4.97524 16.8674 5.33093L15.6153 6.58303L18.4169 9.38457L19.669 8.13248C20.0247 7.77678 20.0247 7.20009 19.669 6.84439L18.1555 5.33093ZM17.1441 10.6574L14.3426 7.85582L5.73734 16.461C5.73633 16.462 5.73576 16.4634 5.73576 16.4649V19.2642H8.53507C8.5365 19.2642 8.53788 19.2636 8.53889 19.2626L17.1441 10.6574Z" fill="#121212"/>
</svg>
