<svg width="25" height="24" viewBox="0 0 25 24" fill="none" xmlns="http://www.w3.org/2000/svg">
<g clip-path="url(#clip0_145_600)">
<path fill-rule="evenodd" clip-rule="evenodd" d="M12.2276 3.18077C12.4642 3.07321 12.7358 3.07321 12.9724 3.18077L23.9724 8.18077C24.2937 8.32681 24.5 8.64717 24.5 9.0001V16.0001C24.5 16.4972 24.0971 16.9001 23.6 16.9001C23.103 16.9001 22.7 16.4972 22.7 16.0001V10.3978L20.5 11.3978V15.3026C20.5 16.3717 19.9118 17.3541 18.9695 17.8589L13.9695 20.5375C13.114 20.9958 12.086 20.9958 11.2306 20.5375L6.23057 17.8589C5.2882 17.3541 4.70001 16.3717 4.70001 15.3026V11.3978L1.22759 9.81943C0.906295 9.67338 0.700012 9.35303 0.700012 9.0001C0.700012 8.64717 0.906295 8.32681 1.22759 8.18077L12.2276 3.18077ZM6.50001 12.216V15.3026C6.50001 15.7081 6.72312 16.0808 7.08057 16.2722L12.0806 18.9508C12.4051 19.1246 12.795 19.1246 13.1195 18.9508L18.1195 16.2722C18.4769 16.0808 18.7 15.7081 18.7 15.3026V12.216L12.9724 14.8194C12.7358 14.927 12.4642 14.927 12.2276 14.8194L6.50001 12.216ZM21.4251 9.0001L12.6 13.0115L3.77496 9.0001L12.6 4.98871L21.4251 9.0001Z" fill="#121212"/>
</g>
<defs>
<clipPath id="clip0_145_600">
<rect width="24" height="24" fill="white" transform="translate(0.600037)"/>
</clipPath>
</defs>
</svg>
