<svg width="25" height="24" viewBox="0 0 25 24" fill="none" xmlns="http://www.w3.org/2000/svg">
<path fill-rule="evenodd" clip-rule="evenodd" d="M6.3146 3.84998H18.4854C19.0153 3.84996 19.4665 3.84995 19.8369 3.88021C20.226 3.91201 20.6046 3.98164 20.9666 4.16606C21.5122 4.44409 21.9559 4.88773 22.2339 5.43341C22.4183 5.79534 22.488 6.17393 22.5198 6.56309C22.55 6.93352 22.55 7.3847 22.55 7.91457V16.0854C22.55 16.6153 22.55 17.0664 22.5198 17.4369C22.488 17.826 22.4183 18.2046 22.2339 18.5666C21.9559 19.1122 21.5122 19.5559 20.9666 19.8339C20.6046 20.0183 20.226 20.0879 19.8369 20.1197C19.4665 20.15 19.0153 20.15 18.4854 20.15H6.3146C5.78473 20.15 5.33355 20.15 4.96312 20.1197C4.57396 20.0879 4.19536 20.0183 3.83343 19.8339C3.28776 19.5559 2.84412 19.1122 2.56608 18.5666C2.38167 18.2046 2.31203 17.826 2.28024 17.4369C2.24997 17.0664 2.24999 16.6152 2.25 16.0854V7.91457C2.24999 7.38471 2.24997 6.93352 2.28024 6.56309C2.31203 6.17393 2.38167 5.79534 2.56608 5.4334C2.84412 4.88773 3.28776 4.44409 3.83343 4.16606C4.19536 3.98164 4.57396 3.91201 4.96312 3.88021C5.33355 3.84995 5.78473 3.84996 6.3146 3.84998ZM4.89783 5.69898L11.7034 11.2672C12.1086 11.5987 12.6914 11.5987 13.0966 11.2672L19.9022 5.69898C19.8445 5.68961 19.7749 5.68115 19.6903 5.67424C19.402 5.65068 19.0249 5.64998 18.45 5.64998H6.35C5.7751 5.64998 5.39805 5.65068 5.10969 5.67424C5.02506 5.68115 4.9555 5.68961 4.89783 5.69898ZM20.7481 7.33258L14.2364 12.6603C13.1681 13.5344 11.6319 13.5344 10.5636 12.6603L4.05191 7.33258C4.05012 7.50989 4.05 7.71314 4.05 7.94998V16.05C4.05 16.6249 4.0507 17.0019 4.07426 17.2903C4.09696 17.5681 4.13632 17.6835 4.16989 17.7494C4.27535 17.9563 4.44363 18.1246 4.65061 18.2301C4.7165 18.2637 4.83185 18.303 5.10969 18.3257C5.39805 18.3493 5.7751 18.35 6.35 18.35H18.45C19.0249 18.35 19.402 18.3493 19.6903 18.3257C19.9682 18.303 20.0835 18.2637 20.1494 18.2301C20.3564 18.1246 20.5246 17.9563 20.6301 17.7494C20.6637 17.6835 20.703 17.5681 20.7257 17.2903C20.7493 17.0019 20.75 16.6249 20.75 16.05V7.94998C20.75 7.71314 20.7499 7.50989 20.7481 7.33258Z" fill="#121212"/>
</svg>
