<svg width="25" height="24" viewBox="0 0 25 24" fill="none" xmlns="http://www.w3.org/2000/svg">
<path fill-rule="evenodd" clip-rule="evenodd" d="M13.8043 6.1001C14.2104 4.37971 15.7552 3.1001 17.6 3.1001C19.7546 3.1001 21.5 4.84554 21.5 7.0001C21.5 9.15465 19.7546 10.9001 17.6 10.9001C15.7552 10.9001 14.2104 9.62049 13.8043 7.9001H4.60001C4.10296 7.9001 3.70001 7.49715 3.70001 7.0001C3.70001 6.50304 4.10296 6.1001 4.60001 6.1001H13.8043ZM17.6 4.9001C16.4396 4.9001 15.5 5.83965 15.5 7.0001C15.5 8.16054 16.4396 9.1001 17.6 9.1001C18.7605 9.1001 19.7 8.16054 19.7 7.0001C19.7 5.83965 18.7605 4.9001 17.6 4.9001ZM5.80429 16.1001C6.21039 14.3797 7.75524 13.1001 9.60001 13.1001C11.4448 13.1001 12.9896 14.3797 13.3957 16.1001H20.6C21.0971 16.1001 21.5 16.503 21.5 17.0001C21.5 17.4972 21.0971 17.9001 20.6 17.9001H13.3957C12.9896 19.6205 11.4448 20.9001 9.60001 20.9001C7.75524 20.9001 6.21039 19.6205 5.80429 17.9001H4.60001C4.10296 17.9001 3.70001 17.4972 3.70001 17.0001C3.70001 16.503 4.10296 16.1001 4.60001 16.1001H5.80429ZM9.60001 14.9001C8.43957 14.9001 7.50001 15.8397 7.50001 17.0001C7.50001 18.1605 8.43957 19.1001 9.60001 19.1001C10.7605 19.1001 11.7 18.1605 11.7 17.0001C11.7 15.8397 10.7605 14.9001 9.60001 14.9001Z" fill="#121212"/>
</svg>
