<svg width="24" height="24" viewBox="0 0 24 24" fill="none" xmlns="http://www.w3.org/2000/svg">
<path fill-rule="evenodd" clip-rule="evenodd" d="M7.99999 4.9001C6.8402 4.9001 5.89999 5.8403 5.89999 7.0001C5.89999 8.1599 6.8402 9.1001 7.99999 9.1001C9.15979 9.1001 10.1 8.1599 10.1 7.0001C10.1 5.8403 9.15979 4.9001 7.99999 4.9001ZM4.09999 7.0001C4.09999 4.84619 5.84608 3.1001 7.99999 3.1001C10.1539 3.1001 11.9 4.84619 11.9 7.0001C11.9 9.15401 10.1539 10.9001 7.99999 10.9001C5.84608 10.9001 4.09999 9.15401 4.09999 7.0001ZM17 5.9001C16.1163 5.9001 15.4 6.61644 15.4 7.5001C15.4 8.38375 16.1163 9.1001 17 9.1001C17.8836 9.1001 18.6 8.38375 18.6 7.5001C18.6 6.61644 17.8836 5.9001 17 5.9001ZM13.6 7.5001C13.6 5.62233 15.1222 4.1001 17 4.1001C18.8778 4.1001 20.4 5.62233 20.4 7.5001C20.4 9.37787 18.8778 10.9001 17 10.9001C15.1222 10.9001 13.6 9.37787 13.6 7.5001ZM21.1249 18.084C20.505 14.724 18.1187 13.5481 16.203 13.9917C15.7187 14.1038 15.2353 13.8021 15.1232 13.3178C15.0111 12.8336 15.3128 12.3501 15.797 12.238C18.8734 11.5258 22.1271 13.5595 22.8978 17.7724C23.1158 18.9641 22.1426 19.9001 21.0725 19.9001H17.9999C17.5029 19.9001 17.0999 19.4972 17.0999 19.0001C17.0999 18.503 17.5029 18.1001 17.9999 18.1001H21.0725C21.0983 18.1001 21.1156 18.0914 21.1249 18.084ZM3.0131 19.0755L3.01485 19.0776C3.02422 19.088 3.04357 19.1001 3.07297 19.1001H12.927C12.9564 19.1001 12.9758 19.088 12.9851 19.0776L12.9869 19.0755C12.3906 15.483 10.0975 13.9001 7.99999 13.9001C5.90246 13.9001 3.60937 15.483 3.0131 19.0755ZM7.99999 12.1001C11.1218 12.1001 14.0479 14.47 14.7629 18.7829C14.9576 19.9568 14.0073 20.9001 12.927 20.9001H3.07297C1.99268 20.9001 1.04241 19.9569 1.23704 18.7829C1.95207 14.47 4.87822 12.1001 7.99999 12.1001Z" fill="#121212"/>
</svg>
