<svg width="25" height="24" viewBox="0 0 25 24" fill="none" xmlns="http://www.w3.org/2000/svg">
<path fill-rule="evenodd" clip-rule="evenodd" d="M6.2713 6.94406C5.16284 8.32976 4.50001 10.0875 4.50001 12C4.50001 13.9125 5.16284 15.6702 6.2713 17.0559L8.55741 14.7698C8.01652 13.9819 7.70001 13.0279 7.70001 12C7.70001 10.9721 8.01652 10.0181 8.55741 9.23016L6.2713 6.94406ZM7.5441 5.67127L9.8302 7.95737C10.6181 7.41649 11.5721 7.09998 12.6 7.09998C13.6279 7.09998 14.5819 7.41649 15.3698 7.95737L17.6559 5.67127C16.2702 4.5628 14.5125 3.89998 12.6 3.89998C10.6875 3.89998 8.9298 4.5628 7.5441 5.67127ZM18.9287 6.94406L16.6426 9.23016C17.1835 10.0181 17.5 10.9721 17.5 12C17.5 13.0279 17.1835 13.9819 16.6426 14.7698L18.9287 17.0559C20.0372 15.6702 20.7 13.9125 20.7 12C20.7 10.0875 20.0372 8.32976 18.9287 6.94406ZM17.6559 18.3287L15.3698 16.0426C14.5819 16.5835 13.6279 16.9 12.6 16.9C11.5721 16.9 10.6181 16.5835 9.8302 16.0426L7.5441 18.3287C8.9298 19.4371 10.6875 20.1 12.6 20.1C14.5125 20.1 16.2702 19.4371 17.6559 18.3287ZM2.70001 12C2.70001 6.53236 7.13239 2.09998 12.6 2.09998C18.0676 2.09998 22.5 6.53236 22.5 12C22.5 17.4676 18.0676 21.9 12.6 21.9C7.13239 21.9 2.70001 17.4676 2.70001 12ZM12.6 8.89998C10.8879 8.89998 9.50001 10.2879 9.50001 12C9.50001 13.7121 10.8879 15.1 12.6 15.1C14.3121 15.1 15.7 13.7121 15.7 12C15.7 10.2879 14.3121 8.89998 12.6 8.89998Z" fill="#121212"/>
</svg>
