<svg width="25" height="24" viewBox="0 0 25 24" fill="none" xmlns="http://www.w3.org/2000/svg">
<path fill-rule="evenodd" clip-rule="evenodd" d="M12.4 6.99998C12.8142 6.99998 13.15 7.33576 13.15 7.74998V11.6893L16.4304 14.9696C16.7232 15.2625 16.7232 15.7374 16.4304 16.0303C16.1375 16.3232 15.6626 16.3232 15.3697 16.0303L11.8697 12.5303C11.729 12.3897 11.65 12.1989 11.65 12V7.74998C11.65 7.33576 11.9858 6.99998 12.4 6.99998Z" fill="#121212"/>
<path fill-rule="evenodd" clip-rule="evenodd" d="M3.15002 3.99998C3.56424 3.99998 3.90002 4.33576 3.90002 4.74998V7.99998H7.15002C7.56424 7.99998 7.90002 8.33576 7.90002 8.74998C7.90002 9.16419 7.56424 9.49998 7.15002 9.49998H3.15002C2.73581 9.49998 2.40002 9.16419 2.40002 8.74998V4.74998C2.40002 4.33576 2.73581 3.99998 3.15002 3.99998Z" fill="#121212"/>
<path fill-rule="evenodd" clip-rule="evenodd" d="M12.3865 3.64998C8.92167 3.64998 5.94771 5.75348 4.67835 8.75346C4.48466 9.21123 3.95655 9.4253 3.49878 9.23161C3.04102 9.03792 2.82694 8.50981 3.02064 8.05204C4.56227 4.40859 8.17455 1.84998 12.3865 1.84998C17.9984 1.84998 22.55 6.39304 22.55 12C22.55 17.6069 17.9984 22.15 12.3865 22.15C7.96061 22.15 4.19676 19.3251 2.80161 15.3836C2.63575 14.9151 2.88114 14.4007 3.34971 14.2349C3.81828 14.069 4.33258 14.3144 4.49844 14.783C5.64667 18.0269 8.7455 20.35 12.3865 20.35C17.0068 20.35 20.75 16.6103 20.75 12C20.75 7.38964 17.0068 3.64998 12.3865 3.64998Z" fill="#121212"/>
</svg>
