<svg width="25" height="24" viewBox="0 0 25 24" fill="none" xmlns="http://www.w3.org/2000/svg">
<path fill-rule="evenodd" clip-rule="evenodd" d="M12.6001 4.3804C12.5928 4.38443 12.5826 4.39035 12.569 4.39872C12.5004 4.44107 12.4102 4.50501 12.2416 4.6257L6.86851 8.47239V16.8095C6.86851 17.355 6.86921 17.7099 6.89134 17.9807C6.9126 18.241 6.94909 18.3434 6.97693 18.398C7.0723 18.5852 7.22447 18.7373 7.41164 18.8327C7.46628 18.8605 7.56862 18.897 7.82892 18.9183C8.09972 18.9404 8.45466 18.9411 9.00009 18.9411H16.2001C16.7455 18.9411 17.1004 18.9404 17.3712 18.9183C17.6315 18.897 17.7339 18.8605 17.7885 18.8327C17.9757 18.7373 18.1279 18.5852 18.2232 18.398C18.2511 18.3434 18.2876 18.241 18.3088 17.9807C18.331 17.7099 18.3317 17.355 18.3317 16.8095V8.47239L12.9585 4.6257C12.79 4.50501 12.6998 4.44107 12.6312 4.39872C12.6176 4.39035 12.6074 4.38443 12.6001 4.3804ZM20.1316 9.76104L21.0762 10.4372C21.4803 10.7266 22.0425 10.6335 22.3319 10.2293C22.6212 9.82519 22.5281 9.26299 22.124 8.97365L14.0063 3.1621C13.9846 3.1465 13.9623 3.13044 13.9396 3.11404C13.6961 2.93823 13.3998 2.72435 13.0545 2.63672C12.7563 2.56104 12.4439 2.56104 12.1457 2.63672C11.8004 2.72435 11.5041 2.93823 11.2606 3.11404C11.2379 3.13044 11.2156 3.1465 11.1938 3.1621L3.07618 8.97365C2.67202 9.26299 2.57894 9.82519 2.86829 10.2293C3.15763 10.6335 3.71983 10.7266 4.12399 10.4372L5.06851 9.76104L5.06851 16.8446C5.0685 17.3453 5.06848 17.7744 5.09731 18.1273C5.12768 18.4989 5.19444 18.8645 5.37312 19.2152C5.64106 19.741 6.0686 20.1686 6.59446 20.4365C6.94514 20.6152 7.31073 20.682 7.68234 20.7123C8.03523 20.7412 8.46436 20.7411 8.96504 20.7411H16.2351C16.7358 20.7411 17.1649 20.7412 17.5178 20.7123C17.8894 20.682 18.255 20.6152 18.6057 20.4365C19.1316 20.1686 19.5591 19.741 19.827 19.2152C20.0057 18.8645 20.0725 18.4989 20.1028 18.1273C20.1317 17.7744 20.1317 17.3453 20.1316 16.8446V9.76104Z" fill="#121212"/>
</svg>
