<svg width="25" height="24" viewBox="0 0 25 24" fill="none" xmlns="http://www.w3.org/2000/svg">
<g clip-path="url(#clip0_145_19)">
<path fill-rule="evenodd" clip-rule="evenodd" d="M1.5 5.53912C1.5 3.85624 2.86424 2.492 4.54711 2.492H21.0529C22.7358 2.492 24.1 3.85624 24.1 5.53912V18.4699C24.1 20.1528 22.7358 21.517 21.0529 21.517H4.54711C2.86424 21.517 1.5 20.1528 1.5 18.4699V5.53912ZM4.54711 4.03291C3.71526 4.03291 3.04091 4.70726 3.04091 5.53912V18.4699C3.04091 19.3018 3.71526 19.9761 4.54711 19.9761H21.0529C21.8847 19.9761 22.5591 19.3018 22.5591 18.4699V5.53912C22.5591 4.70726 21.8847 4.03291 21.0529 4.03291H4.54711ZM6.05332 9.98138C6.05332 9.55587 6.39826 9.21092 6.82377 9.21092H11.9463C12.3718 9.21092 12.7167 9.55587 12.7167 9.98138C12.7167 10.4069 12.3718 10.7518 11.9463 10.7518H6.82377C6.39826 10.7518 6.05332 10.4069 6.05332 9.98138ZM6.05332 13.3964C6.05332 12.9709 6.39826 12.6259 6.82377 12.6259H9.69236C10.1179 12.6259 10.4628 12.9709 10.4628 13.3964C10.4628 13.8219 10.1179 14.1668 9.69236 14.1668H6.82377C6.39826 14.1668 6.05332 13.8219 6.05332 13.3964Z" fill="#121212"/>
<path d="M16.9702 12.8606C15.356 12.8606 15.356 13.6678 15.356 13.6678H18.5845C18.5845 13.6678 18.5845 12.8606 16.9702 12.8606Z" fill="#121212"/>
<path d="M17.5756 10.2374C17.5756 10.5717 17.3046 10.8428 16.9702 10.8428C16.6359 10.8428 16.3649 10.5717 16.3649 10.2374C16.3649 9.90307 16.6359 9.63204 16.9702 9.63204C17.3046 9.63204 17.5756 9.90307 17.5756 10.2374Z" fill="#121212"/>
<path fill-rule="evenodd" clip-rule="evenodd" d="M15.5577 10.2374C15.5577 9.45729 16.1901 8.8249 16.9702 8.8249C17.7503 8.8249 18.3827 9.45729 18.3827 10.2374C18.3827 11.0175 17.7503 11.6499 16.9702 11.6499C16.1901 11.6499 15.5577 11.0175 15.5577 10.2374ZM18.5845 13.6678C19.3917 13.6678 19.3917 13.6662 19.3917 13.6662L19.3917 13.6645L19.3916 13.6613L19.3916 13.6544L19.3912 13.6394C19.3909 13.6289 19.3903 13.6175 19.3895 13.605C19.3878 13.5801 19.385 13.5512 19.3804 13.5189C19.3712 13.4544 19.3546 13.3752 19.325 13.2864C19.2649 13.106 19.153 12.8929 18.9535 12.6934C18.5469 12.2869 17.9018 12.0535 16.9702 12.0535C16.0387 12.0535 15.3935 12.2869 14.987 12.6934C14.7875 12.8929 14.6756 13.106 14.6155 13.2864C14.5859 13.3752 14.5693 13.4544 14.5601 13.5189C14.5555 13.5512 14.5527 13.5801 14.551 13.605C14.5502 13.6175 14.5496 13.6289 14.5493 13.6394L14.5489 13.6544L14.5488 13.6613L14.5488 13.6645L14.5488 13.6662C14.5488 13.6662 14.5488 13.6678 15.356 13.6678H14.5488V14.4749H19.3917V13.6678H18.5845Z" fill="#121212"/>
<path fill-rule="evenodd" clip-rule="evenodd" d="M1.8 5.71076C1.8 4.07257 3.12802 2.74455 4.76622 2.74455H20.8338C22.472 2.74455 23.8 4.07257 23.8 5.71076V18.2983C23.8 19.9365 22.472 21.2645 20.8338 21.2645H4.76622C3.12802 21.2645 1.8 19.9365 1.8 18.2983V5.71076ZM4.76622 4.24455C3.95645 4.24455 3.3 4.901 3.3 5.71076V18.2983C3.3 19.108 3.95645 19.7645 4.76622 19.7645H20.8338C21.6436 19.7645 22.3 19.108 22.3 18.2983V5.71076C22.3 4.901 21.6436 4.24455 20.8338 4.24455H4.76622ZM6.23243 10.0351C6.23243 9.62088 6.56822 9.28509 6.98243 9.28509H11.9689C12.3831 9.28509 12.7189 9.62088 12.7189 10.0351C12.7189 10.4493 12.3831 10.7851 11.9689 10.7851H6.98243C6.56822 10.7851 6.23243 10.4493 6.23243 10.0351ZM6.23243 13.3594C6.23243 12.9452 6.56822 12.6094 6.98243 12.6094H9.77487C10.1891 12.6094 10.5249 12.9452 10.5249 13.3594C10.5249 13.7736 10.1891 14.1094 9.77487 14.1094H6.98243C6.56822 14.1094 6.23243 13.7736 6.23243 13.3594Z" fill="#121212"/>
<path d="M16.8595 12.8379C15.2881 12.8379 15.2881 13.6236 15.2881 13.6236H18.431C18.431 13.6236 18.431 12.8379 16.8595 12.8379Z" fill="#121212"/>
<path d="M17.4488 10.2843C17.4488 10.6098 17.185 10.8736 16.8595 10.8736C16.5341 10.8736 16.2702 10.6098 16.2702 10.2843C16.2702 9.95886 16.5341 9.69502 16.8595 9.69502C17.185 9.69502 17.4488 9.95886 17.4488 10.2843Z" fill="#121212"/>
<path fill-rule="evenodd" clip-rule="evenodd" d="M15.4845 10.2843C15.4845 9.52492 16.1001 8.90931 16.8595 8.90931C17.6189 8.90931 18.2345 9.52492 18.2345 10.2843C18.2345 11.0437 17.6189 11.6593 16.8595 11.6593C16.1001 11.6593 15.4845 11.0437 15.4845 10.2843ZM18.431 13.6236C19.2167 13.6236 19.2167 13.622 19.2167 13.622L19.2167 13.6205L19.2166 13.6173L19.2166 13.6106L19.2162 13.596C19.2159 13.5858 19.2154 13.5746 19.2145 13.5625C19.2129 13.5383 19.2102 13.5102 19.2057 13.4787C19.1967 13.4159 19.1806 13.3388 19.1518 13.2524C19.0933 13.0768 18.9843 12.8694 18.7901 12.6752C18.3944 12.2794 17.7664 12.0522 16.8595 12.0522C15.9527 12.0522 15.3247 12.2794 14.9289 12.6752C14.7347 12.8694 14.6258 13.0768 14.5673 13.2524C14.5384 13.3388 14.5223 13.4159 14.5133 13.4787C14.5089 13.5102 14.5061 13.5383 14.5045 13.5625C14.5037 13.5746 14.5032 13.5858 14.5028 13.596L14.5025 13.6106L14.5024 13.6173L14.5024 13.6205L14.5024 13.622C14.5024 13.622 14.5024 13.6236 15.2881 13.6236H14.5024V14.4093H19.2167V13.6236H18.431Z" fill="#121212"/>
</g>
<defs>
<clipPath id="clip0_145_19">
<rect width="24" height="24" fill="white" transform="translate(0.799988)"/>
</clipPath>
</defs>
</svg>
