<svg width="25" height="24" viewBox="0 0 25 24" fill="none" xmlns="http://www.w3.org/2000/svg">
<path fill-rule="evenodd" clip-rule="evenodd" d="M7.59995 3.89998C6.99244 3.89998 6.49995 4.39246 6.49995 4.99998V19C6.49995 19.6075 6.99244 20.1 7.59995 20.1H9.59995C10.097 20.1 10.5 20.5029 10.5 21C10.5 21.497 10.097 21.9 9.59995 21.9H7.59995C5.99833 21.9 4.69995 20.6016 4.69995 19V4.99998C4.69995 3.39835 5.99833 2.09998 7.59995 2.09998H17.6C19.2016 2.09998 20.5 3.39835 20.5 4.99998V10.5C20.5 10.997 20.097 11.4 19.6 11.4C19.1029 11.4 18.7 10.997 18.7 10.5V4.99998C18.7 4.39246 18.2075 3.89998 17.6 3.89998H7.59995ZM8.69995 6.99998C8.69995 6.50292 9.10289 6.09998 9.59995 6.09998H15.6C16.097 6.09998 16.5 6.50292 16.5 6.99998C16.5 7.49703 16.097 7.89998 15.6 7.89998H9.59995C9.10289 7.89998 8.69995 7.49703 8.69995 6.99998ZM8.69995 11C8.69995 10.5029 9.10289 10.1 9.59995 10.1H11.6C12.097 10.1 12.5 10.5029 12.5 11C12.5 11.497 12.097 11.9 11.6 11.9H9.59995C9.10289 11.9 8.69995 11.497 8.69995 11Z" fill="#121212"/>
<path fill-rule="evenodd" clip-rule="evenodd" d="M14.8999 15.9C14.8999 14.7402 15.8401 13.8 16.9999 13.8C18.1597 13.8 19.0999 14.7402 19.0999 15.9C19.0999 17.0598 18.1597 18 16.9999 18C15.8401 18 14.8999 17.0598 14.8999 15.9ZM19.3999 21C20.5999 21 20.5999 20.9976 20.5999 20.9976L20.5999 20.9952L20.5999 20.9903L20.5998 20.9801L20.5992 20.9578C20.5987 20.9423 20.5979 20.9252 20.5967 20.9067C20.5942 20.8697 20.59 20.8267 20.5832 20.7787C20.5695 20.6828 20.5448 20.565 20.5008 20.433C20.4115 20.1649 20.2451 19.848 19.9485 19.5514C19.344 18.947 18.3849 18.6 16.9999 18.6C15.615 18.6 14.6558 18.947 14.0514 19.5514C13.7548 19.848 13.5884 20.1649 13.499 20.433C13.455 20.565 13.4304 20.6828 13.4167 20.7787C13.4098 20.8267 13.4056 20.8697 13.4032 20.9067C13.4019 20.9252 13.4011 20.9423 13.4006 20.9578L13.4001 20.9801L13.4 20.9903L13.3999 20.9952L13.3999 20.9976C13.3999 20.9976 13.3999 21 14.5999 21H13.3999V22.2H20.5999V21H19.3999Z" fill="#121212"/>
</svg>
