<svg width="24" height="24" viewBox="0 0 24 24" fill="none" xmlns="http://www.w3.org/2000/svg">
<path fill-rule="evenodd" clip-rule="evenodd" d="M3.10001 5.99998C3.10001 4.39835 4.39838 3.09998 6.00001 3.09998H18C19.6016 3.09998 20.9 4.39835 20.9 5.99998V18C20.9 19.6016 19.6016 20.9 18 20.9H6.00001C4.39838 20.9 3.10001 19.6016 3.10001 18V5.99998ZM6.00001 4.89998C5.39249 4.89998 4.90001 5.39246 4.90001 5.99998V13.8272L5.9494 12.7778C7.08192 11.6453 8.9181 11.6453 10.0506 12.7778L16.3728 19.1H18C18.6075 19.1 19.1 18.6075 19.1 18V5.99998C19.1 5.39246 18.6075 4.89998 18 4.89998H6.00001ZM13.8272 19.1L8.77782 14.0506C8.34825 13.621 7.65177 13.621 7.22219 14.0506L4.90001 16.3728V18C4.90001 18.6075 5.39249 19.1 6.00001 19.1H13.8272ZM14.5 8.39998C13.8925 8.39998 13.4 8.89246 13.4 9.49998C13.4 10.1075 13.8925 10.6 14.5 10.6C15.1075 10.6 15.6 10.1075 15.6 9.49998C15.6 8.89246 15.1075 8.39998 14.5 8.39998ZM11.6 9.49998C11.6 7.89835 12.8984 6.59998 14.5 6.59998C16.1016 6.59998 17.4 7.89835 17.4 9.49998C17.4 11.1016 16.1016 12.4 14.5 12.4C12.8984 12.4 11.6 11.1016 11.6 9.49998Z" fill="#121212"/>
</svg>
