<svg width="25" height="24" viewBox="0 0 25 24" fill="none" xmlns="http://www.w3.org/2000/svg">
<path fill-rule="evenodd" clip-rule="evenodd" d="M12.4 3.89998C9.03106 3.89998 6.3 6.63104 6.3 9.99998C6.3 12.2178 7.48309 14.1603 9.25691 15.2291L9.30025 15.255C9.86656 15.5898 10.3 16.2104 10.3 16.9584V17.1H14.5V16.9584C14.5 16.2104 14.9334 15.5898 15.4998 15.255L15.5431 15.2291C17.3169 14.1603 18.5 12.2178 18.5 9.99998C18.5 6.63104 15.7689 3.89998 12.4 3.89998ZM14.5 18.9H10.3V19C10.3 20.1598 11.2402 21.1 12.4 21.1C13.5598 21.1 14.5 20.1598 14.5 19V18.9ZM4.5 9.99998C4.5 5.63693 8.03695 2.09998 12.4 2.09998C16.7631 2.09998 20.3 5.63693 20.3 9.99998C20.3 12.8748 18.7639 15.3899 16.4721 16.7708L16.4159 16.8044C16.3177 16.8625 16.3 16.9343 16.3 16.9584V19C16.3 21.1539 14.5539 22.9 12.4 22.9C10.2461 22.9 8.5 21.1539 8.5 19V16.9584C8.5 16.9343 8.48233 16.8625 8.38405 16.8044L8.32792 16.7708C6.03608 15.3899 4.5 12.8748 4.5 9.99998Z" fill="#121212"/>
</svg>
