<svg width="24" height="24" viewBox="0 0 24 24" fill="none" xmlns="http://www.w3.org/2000/svg">
<path fill-rule="evenodd" clip-rule="evenodd" d="M7.10001 6.99998C7.10001 4.29378 9.29381 2.09998 12 2.09998C14.7062 2.09998 16.9 4.29378 16.9 6.99998V9.09998H17C18.6016 9.09998 19.9 10.3983 19.9 12V19C19.9 20.6016 18.6016 21.9 17 21.9H7.00001C5.39838 21.9 4.10001 20.6016 4.10001 19V12C4.10001 10.3983 5.39838 9.09998 7.00001 9.09998H7.10001V6.99998ZM7.00001 10.9C6.39249 10.9 5.90001 11.3925 5.90001 12V19C5.90001 19.6075 6.39249 20.1 7.00001 20.1H17C17.6075 20.1 18.1 19.6075 18.1 19V12C18.1 11.3925 17.6075 10.9 17 10.9H7.00001ZM15.1 9.09998H8.90001V6.99998C8.90001 5.28789 10.2879 3.89998 12 3.89998C13.7121 3.89998 15.1 5.28789 15.1 6.99998V9.09998ZM12 13.1C12.4971 13.1 12.9 13.5029 12.9 14V17C12.9 17.497 12.4971 17.9 12 17.9C11.5029 17.9 11.1 17.497 11.1 17V14C11.1 13.5029 11.5029 13.1 12 13.1Z" fill="#121212"/>
</svg>
