<svg width="24" height="24" viewBox="0 0 24 24" fill="none" xmlns="http://www.w3.org/2000/svg">
<path fill-rule="evenodd" clip-rule="evenodd" d="M12 3.9001C8.63107 3.9001 5.90001 6.63116 5.90001 10.0001C5.90001 11.9254 6.76104 13.8281 7.92967 15.51C9.09143 17.182 10.4996 18.5528 11.4604 19.3953C11.7774 19.6732 12.2226 19.6732 12.5396 19.3953C13.5004 18.5528 14.9086 17.182 16.0703 15.51C17.239 13.8281 18.1 11.9254 18.1 10.0001C18.1 6.63116 15.3689 3.9001 12 3.9001ZM4.10001 10.0001C4.10001 5.63705 7.63696 2.1001 12 2.1001C16.3631 2.1001 19.9 5.63705 19.9 10.0001C19.9 12.4454 18.8181 14.7099 17.5485 16.5371C16.2721 18.3741 14.7467 19.854 13.7262 20.7487C12.7302 21.622 11.2698 21.622 10.2738 20.7487C9.25332 19.854 7.72794 18.3741 6.45148 16.5371C5.18187 14.7099 4.10001 12.4454 4.10001 10.0001ZM11.9978 8.4001C11.1142 8.4001 10.3978 9.11644 10.3978 10.0001C10.3978 10.8838 11.1142 11.6001 11.9978 11.6001C12.8815 11.6001 13.5978 10.8838 13.5978 10.0001C13.5978 9.11644 12.8815 8.4001 11.9978 8.4001ZM8.59781 10.0001C8.59781 8.12233 10.12 6.6001 11.9978 6.6001C13.8756 6.6001 15.3978 8.12233 15.3978 10.0001C15.3978 11.8779 13.8756 13.4001 11.9978 13.4001C10.12 13.4001 8.59781 11.8779 8.59781 10.0001Z" fill="#121212"/>
</svg>
