<svg width="25" height="24" viewBox="0 0 25 24" fill="none" xmlns="http://www.w3.org/2000/svg">
<path fill-rule="evenodd" clip-rule="evenodd" d="M12.7001 20.0001C12.7001 20.0554 12.7448 20.1001 12.8001 20.1001C12.8553 20.1001 12.9001 20.0554 12.9001 20.0001C12.9001 19.9449 12.8553 19.9001 12.8001 19.9001C12.7448 19.9001 12.7001 19.9449 12.7001 20.0001ZM12.8001 21.9001C11.7507 21.9001 10.9001 21.0495 10.9001 20.0001C10.9001 18.9508 11.7507 18.1001 12.8001 18.1001C13.8494 18.1001 14.7001 18.9508 14.7001 20.0001C14.7001 21.0495 13.8494 21.9001 12.8001 21.9001ZM12.7001 12.0001C12.7001 12.0554 12.7448 12.1001 12.8001 12.1001C12.8553 12.1001 12.9001 12.0554 12.9001 12.0001C12.9001 11.9449 12.8553 11.9001 12.8001 11.9001C12.7448 11.9001 12.7001 11.9449 12.7001 12.0001ZM12.8001 13.9001C11.7507 13.9001 10.9001 13.0495 10.9001 12.0001C10.9001 10.9508 11.7507 10.1001 12.8001 10.1001C13.8494 10.1001 14.7001 10.9508 14.7001 12.0001C14.7001 13.0495 13.8494 13.9001 12.8001 13.9001ZM12.7001 4.00015C12.7001 4.05538 12.7448 4.10015 12.8001 4.10015C12.8553 4.10015 12.9001 4.05538 12.9001 4.00015C12.9001 3.94492 12.8553 3.90015 12.8001 3.90015C12.7448 3.90015 12.7001 3.94492 12.7001 4.00015ZM12.8001 5.90015C11.7507 5.90015 10.9001 5.04949 10.9001 4.00015C10.9001 2.95081 11.7507 2.10015 12.8001 2.10015C13.8494 2.10015 14.7001 2.95081 14.7001 4.00015C14.7001 5.04949 13.8494 5.90015 12.8001 5.90015Z" fill="#121212"/>
</svg>
