<svg width="24" height="24" viewBox="0 0 24 24" fill="none" xmlns="http://www.w3.org/2000/svg">
<path fill-rule="evenodd" clip-rule="evenodd" d="M4.8015 8.94755C4.9933 5.11165 8.15932 2.09998 12 2.09998C15.8407 2.09998 19.0067 5.11165 19.1985 8.94755L19.3779 12.5359C19.3855 12.6879 19.4246 12.8367 19.4927 12.9729L20.7196 15.4267C20.8382 15.664 20.9 15.9256 20.9 16.191C20.9 17.1348 20.1349 17.9 19.191 17.9H16.8175C16.3949 20.1763 14.3988 21.9 12 21.9C9.60124 21.9 7.60507 20.1763 7.18248 17.9H4.80902C3.86516 17.9 3.10001 17.1348 3.10001 16.191C3.10001 15.9256 3.16178 15.664 3.28043 15.4267L4.50733 12.9729C4.57541 12.8367 4.61449 12.6879 4.62209 12.5359L4.8015 8.94755ZM9.03267 17.9C9.41832 19.1731 10.6009 20.1 12 20.1C13.3991 20.1 14.5817 19.1731 14.9673 17.9H9.03267ZM12 3.89998C9.11849 3.89998 6.74315 6.15951 6.59926 9.03743L6.41984 12.6258C6.3998 13.0266 6.29678 13.4189 6.1173 13.7779L4.95624 16.1H19.0438L17.8827 13.7779C17.7032 13.4189 17.6002 13.0266 17.5802 12.6258L17.4008 9.03743C17.2569 6.15951 14.8815 3.89998 12 3.89998Z" fill="#121212"/>
</svg>
