<svg width="25" height="24" viewBox="0 0 25 24" fill="none" xmlns="http://www.w3.org/2000/svg">
<path fill-rule="evenodd" clip-rule="evenodd" d="M4.90002 4.99998C4.90002 3.39835 6.1984 2.09998 7.80002 2.09998H17.8C19.4016 2.09998 20.7 3.39835 20.7 4.99998V19C20.7 20.6016 19.4016 21.9 17.8 21.9H7.80002C6.1984 21.9 4.90002 20.6016 4.90002 19V4.99998ZM7.80002 3.89998C7.19251 3.89998 6.70002 4.39246 6.70002 4.99998V19C6.70002 19.6075 7.19251 20.1 7.80002 20.1H17.8C18.4075 20.1 18.9 19.6075 18.9 19V4.99998C18.9 4.39246 18.4075 3.89998 17.8 3.89998H7.80002ZM8.90002 6.99998C8.90002 6.50292 9.30297 6.09998 9.80002 6.09998H15.8C16.2971 6.09998 16.7 6.50292 16.7 6.99998C16.7 7.49703 16.2971 7.89998 15.8 7.89998H9.80002C9.30297 7.89998 8.90002 7.49703 8.90002 6.99998ZM8.90002 11C8.90002 10.5029 9.30297 10.1 9.80002 10.1H15.8C16.2971 10.1 16.7 10.5029 16.7 11C16.7 11.497 16.2971 11.9 15.8 11.9H9.80002C9.30297 11.9 8.90002 11.497 8.90002 11ZM8.90002 15C8.90002 14.5029 9.30297 14.1 9.80002 14.1H11.8C12.2971 14.1 12.7 14.5029 12.7 15C12.7 15.497 12.2971 15.9 11.8 15.9H9.80002C9.30297 15.9 8.90002 15.497 8.90002 15Z" fill="#121212"/>
</svg>
