<svg width="24" height="24" viewBox="0 0 24 24" fill="none" xmlns="http://www.w3.org/2000/svg">
<path fill-rule="evenodd" clip-rule="evenodd" d="M7.0001 3.9001C6.39258 3.9001 5.9001 4.39258 5.9001 5.0001V19.0001C5.9001 19.6076 6.39258 20.1001 7.0001 20.1001H11.0001C11.4972 20.1001 11.9001 20.503 11.9001 21.0001C11.9001 21.4972 11.4972 21.9001 11.0001 21.9001H7.0001C5.39847 21.9001 4.1001 20.6017 4.1001 19.0001V5.0001C4.1001 3.39847 5.39847 2.1001 7.0001 2.1001H17.0001C18.6017 2.1001 19.9001 3.39847 19.9001 5.0001V10.5001C19.9001 10.9972 19.4972 11.4001 19.0001 11.4001C18.503 11.4001 18.1001 10.9972 18.1001 10.5001V5.0001C18.1001 4.39259 17.6076 3.9001 17.0001 3.9001H7.0001ZM8.1001 7.0001C8.1001 6.50304 8.50304 6.1001 9.0001 6.1001H15.0001C15.4972 6.1001 15.9001 6.50304 15.9001 7.0001C15.9001 7.49715 15.4972 7.9001 15.0001 7.9001H9.0001C8.50304 7.9001 8.1001 7.49715 8.1001 7.0001ZM8.1001 11.0001C8.1001 10.503 8.50304 10.1001 9.0001 10.1001H11.0001C11.4972 10.1001 11.9001 10.503 11.9001 11.0001C11.9001 11.4972 11.4972 11.9001 11.0001 11.9001H9.0001C8.50304 11.9001 8.1001 11.4972 8.1001 11.0001Z" fill="#121212"/>
<path fill-rule="evenodd" clip-rule="evenodd" d="M17.09 13.285C17.3582 13.2099 17.642 13.2099 17.9102 13.285C18.1008 13.3383 18.2526 13.4281 18.3756 13.5138C18.4856 13.5904 18.6063 13.6885 18.7269 13.7866C18.7324 13.791 18.7378 13.7954 18.7433 13.7999L20.5433 15.2624C20.5543 15.2714 20.5658 15.2806 20.5775 15.2901C20.7036 15.3918 20.865 15.5222 20.9866 15.6918C21.0919 15.8387 21.1702 16.0032 21.2178 16.1775C21.2728 16.3789 21.2721 16.5863 21.2716 16.7483C21.2716 16.7634 21.2715 16.7781 21.2715 16.7924L21.2715 19.4519C21.2716 19.6407 21.2716 19.8259 21.2587 19.9829C21.2446 20.1557 21.2112 20.3611 21.1057 20.5682C20.9598 20.8545 20.7271 21.0872 20.4408 21.2331C20.2337 21.3386 20.0283 21.372 19.8555 21.3861C19.6985 21.399 19.5133 21.3989 19.3245 21.3989H15.6757C15.4869 21.3989 15.3017 21.399 15.1447 21.3861C14.9719 21.372 14.7665 21.3386 14.5594 21.2331C14.2731 21.0872 14.0404 20.8545 13.8945 20.5682C13.789 20.3611 13.7556 20.1557 13.7414 19.9829C13.7286 19.8259 13.7286 19.6407 13.7287 19.4519C13.7287 19.4437 13.7287 19.4356 13.7287 19.4275V16.7924C13.7287 16.7781 13.7286 16.7634 13.7286 16.7483C13.7281 16.5863 13.7274 16.3789 13.7824 16.1775C13.83 16.0032 13.9083 15.8387 14.0136 15.6918C14.1352 15.5222 14.2966 15.3918 14.4227 15.2901C14.4344 15.2806 14.4459 15.2714 14.4569 15.2624L16.2569 13.7999C16.2624 13.7954 16.2678 13.791 16.2733 13.7866C16.3939 13.6885 16.5146 13.5905 16.6246 13.5138C16.7476 13.4281 16.8994 13.3383 17.09 13.285ZM17.5001 14.7843C17.4435 14.8243 17.3682 14.8849 17.2298 14.9973L15.4298 16.4598C15.3466 16.5275 15.3034 16.5628 15.2736 16.5894C15.2717 16.6293 15.2715 16.6851 15.2715 16.7924V19.4275C15.2715 19.6433 15.2721 19.7633 15.2785 19.8491C15.3643 19.8555 15.4843 19.8561 15.7001 19.8561H19.3001C19.5159 19.8561 19.6359 19.8555 19.7217 19.8491C19.7281 19.7633 19.7287 19.6433 19.7287 19.4275V16.7924C19.7287 16.6851 19.7285 16.6293 19.7266 16.5894C19.6968 16.5628 19.6536 16.5275 19.5704 16.4598L17.7704 14.9973C17.632 14.8849 17.5567 14.8243 17.5001 14.7843Z" fill="#121212"/>
</svg>
