<svg width="25" height="24" viewBox="0 0 25 24" fill="none" xmlns="http://www.w3.org/2000/svg">
<path d="M6.3 5.0001C6.3 4.39258 6.79249 3.9001 7.4 3.9001H17.4C18.0075 3.9001 18.5 4.39259 18.5 5.0001V10.5001C18.5 10.9972 18.9029 11.4001 19.4 11.4001C19.8971 11.4001 20.3 10.9972 20.3 10.5001V5.0001C20.3 3.39847 19.0016 2.1001 17.4 2.1001H7.4C5.79837 2.1001 4.5 3.39847 4.5 5.0001V19.0001C4.5 20.6017 5.79837 21.9001 7.4 21.9001H12.4C12.8971 21.9001 13.3 21.4972 13.3 21.0001C13.3 20.503 12.8971 20.1001 12.4 20.1001H7.4C6.79249 20.1001 6.3 19.6076 6.3 19.0001V5.0001Z" fill="#121212"/>
<path d="M9.4 6.1001C8.90294 6.1001 8.5 6.50304 8.5 7.0001C8.5 7.49715 8.90294 7.9001 9.4 7.9001H15.4C15.8971 7.9001 16.3 7.49715 16.3 7.0001C16.3 6.50304 15.8971 6.1001 15.4 6.1001H9.4Z" fill="#121212"/>
<path d="M9.4 10.1001C8.90294 10.1001 8.5 10.503 8.5 11.0001C8.5 11.4972 8.90294 11.9001 9.4 11.9001H11.4C11.8971 11.9001 12.3 11.4972 12.3 11.0001C12.3 10.503 11.8971 10.1001 11.4 10.1001H9.4Z" fill="#121212"/>
<path d="M19.1001 14.7002C19.1001 14.2031 18.6972 13.8002 18.2001 13.8002C17.7031 13.8002 17.3001 14.2031 17.3001 14.7002V16.8002H15.2001C14.7031 16.8002 14.3001 17.2031 14.3001 17.7002C14.3001 18.1972 14.7031 18.6002 15.2001 18.6002H17.3001V20.7002C17.3001 21.1972 17.7031 21.6002 18.2001 21.6002C18.6972 21.6002 19.1001 21.1972 19.1001 20.7002V18.6002H21.2001C21.6972 18.6002 22.1001 18.1972 22.1001 17.7002C22.1001 17.2031 21.6972 16.8002 21.2001 16.8002H19.1001V14.7002Z" fill="#121212"/>
</svg>
