<svg width="25" height="24" viewBox="0 0 25 24" fill="none" xmlns="http://www.w3.org/2000/svg">
<path fill-rule="evenodd" clip-rule="evenodd" d="M7.60001 3.89998C6.9925 3.89998 6.50001 4.39246 6.50001 4.99998V19C6.50001 19.6075 6.9925 20.1 7.60001 20.1H10.6C11.0971 20.1 11.5 20.5029 11.5 21C11.5 21.497 11.0971 21.9 10.6 21.9H7.60001C5.99839 21.9 4.70001 20.6016 4.70001 19V4.99998C4.70001 3.39835 5.99839 2.09998 7.60001 2.09998H17.6C19.2016 2.09998 20.5 3.39835 20.5 4.99998V9.99998C20.5 10.497 20.0971 10.9 19.6 10.9C19.103 10.9 18.7 10.497 18.7 9.99998V4.99998C18.7 4.39246 18.2075 3.89998 17.6 3.89998H7.60001ZM8.70001 6.99998C8.70001 6.50292 9.10296 6.09998 9.60001 6.09998H15.6C16.0971 6.09998 16.5 6.50292 16.5 6.99998C16.5 7.49703 16.0971 7.89998 15.6 7.89998H9.60001C9.10296 7.89998 8.70001 7.49703 8.70001 6.99998ZM8.70001 11C8.70001 10.5029 9.10296 10.1 9.60001 10.1H12.6C13.0971 10.1 13.5 10.5029 13.5 11C13.5 11.497 13.0971 11.9 12.6 11.9H9.60001C9.10296 11.9 8.70001 11.497 8.70001 11ZM14.7 16C14.7 14.3983 15.9984 13.1 17.6 13.1C19.2016 13.1 20.5 14.3983 20.5 16V16.3262C21.0954 16.6471 21.5 17.2763 21.5 18V20C21.5 21.0493 20.6494 21.9 19.6 21.9H15.6C14.5507 21.9 13.7 21.0493 13.7 20V18C13.7 17.2763 14.1046 16.6471 14.7 16.3262V16ZM16.5 16.1H18.7V16C18.7 15.3925 18.2075 14.9 17.6 14.9C16.9925 14.9 16.5 15.3925 16.5 16V16.1ZM15.6 17.9C15.5448 17.9 15.5 17.9447 15.5 18V20C15.5 20.0552 15.5448 20.1 15.6 20.1H19.6C19.6552 20.1 19.7 20.0552 19.7 20V18C19.7 17.9447 19.6552 17.9 19.6 17.9H15.6Z" fill="#121212"/>
</svg>
