<svg width="25" height="24" viewBox="0 0 25 24" fill="none" xmlns="http://www.w3.org/2000/svg">
<path fill-rule="evenodd" clip-rule="evenodd" d="M7.4 3.89998C6.79249 3.89998 6.3 4.39246 6.3 4.99998V19C6.3 19.6075 6.79249 20.1 7.4 20.1H11.4C11.8971 20.1 12.3 20.5029 12.3 21C12.3 21.497 11.8971 21.9 11.4 21.9H7.4C5.79837 21.9 4.5 20.6016 4.5 19V4.99998C4.5 3.39835 5.79837 2.09998 7.4 2.09998H17.4C19.0016 2.09998 20.3 3.39835 20.3 4.99998V10.5C20.3 10.997 19.8971 11.4 19.4 11.4C18.9029 11.4 18.5 10.997 18.5 10.5V4.99998C18.5 4.39246 18.0075 3.89998 17.4 3.89998H7.4ZM8.5 6.99998C8.5 6.50292 8.90294 6.09998 9.4 6.09998H15.4C15.8971 6.09998 16.3 6.50292 16.3 6.99998C16.3 7.49703 15.8971 7.89998 15.4 7.89998H9.4C8.90294 7.89998 8.5 7.49703 8.5 6.99998ZM8.5 11C8.5 10.5029 8.90294 10.1 9.4 10.1H11.4C11.8971 10.1 12.3 10.5029 12.3 11C12.3 11.497 11.8971 11.9 11.4 11.9H9.4C8.90294 11.9 8.5 11.497 8.5 11Z" fill="#121212"/>
<path fill-rule="evenodd" clip-rule="evenodd" d="M20.9622 14.2972C21.3504 14.6077 21.4133 15.1741 21.1028 15.5622L17.1028 20.5622C16.9429 20.7621 16.7054 20.8844 16.4498 20.8986C16.1942 20.9128 15.9446 20.8174 15.7636 20.6364L13.7636 18.6364C13.4121 18.2849 13.4121 17.7151 13.7636 17.3636C14.1151 17.0121 14.6849 17.0121 15.0364 17.3636L16.3254 18.6526L19.6972 14.4377C20.0077 14.0496 20.5741 13.9867 20.9622 14.2972Z" fill="#121212"/>
</svg>
