<svg width="24" height="24" viewBox="0 0 24 24" fill="none" xmlns="http://www.w3.org/2000/svg">
<path fill-rule="evenodd" clip-rule="evenodd" d="M12 3.9001C10.0118 3.9001 8.39999 5.51187 8.39999 7.5001C8.39999 9.48832 10.0118 11.1001 12 11.1001C13.9882 11.1001 15.6 9.48832 15.6 7.5001C15.6 5.51187 13.9882 3.9001 12 3.9001ZM6.59999 7.5001C6.59999 4.51776 9.01765 2.1001 12 2.1001C14.9823 2.1001 17.4 4.51776 17.4 7.5001C17.4 10.4824 14.9823 12.9001 12 12.9001C9.01765 12.9001 6.59999 10.4824 6.59999 7.5001ZM7.99999 15.9001C6.28791 15.9001 4.89999 17.288 4.89999 19.0001V20.0001C4.89999 20.4972 4.49705 20.9001 3.99999 20.9001C3.50293 20.9001 3.09999 20.4972 3.09999 20.0001V19.0001C3.09999 16.2939 5.2938 14.1001 7.99999 14.1001H16C18.7062 14.1001 20.9 16.2939 20.9 19.0001V20.0001C20.9 20.4972 20.497 20.9001 20 20.9001C19.5029 20.9001 19.1 20.4972 19.1 20.0001V19.0001C19.1 17.288 17.7121 15.9001 16 15.9001H7.99999Z" fill="#121212"/>
</svg>
