<svg width="25" height="24" viewBox="0 0 25 24" fill="none" xmlns="http://www.w3.org/2000/svg">
<path fill-rule="evenodd" clip-rule="evenodd" d="M6.60003 4.9001C5.95829 4.9001 5.55617 5.40073 5.61643 5.88498C6.4666 12.7167 11.8835 18.1335 18.7151 18.9837C19.1994 19.044 19.7 18.6418 19.7 18.0001V16.6882C19.7 16.2024 19.3814 15.7741 18.9161 15.6345L16.9135 15.0338C16.8783 15.0232 16.8401 15.0328 16.8141 15.0588L16.5539 15.319C15.6962 16.1767 14.3093 16.4698 13.1826 15.7576C11.4333 14.6519 9.94826 13.1668 8.84255 11.4175C8.13033 10.2908 8.42343 8.9039 9.28108 8.04625L9.54128 7.78605C9.56729 7.76004 9.57692 7.72184 9.56635 7.68661L8.96557 5.68402C8.82599 5.21873 8.39774 4.9001 7.91197 4.9001H6.60003ZM3.83021 6.10727C3.61766 4.39929 5.03262 3.1001 6.60003 3.1001H7.91197C9.19263 3.1001 10.3217 3.94014 10.6897 5.16679L11.2904 7.16938C11.4913 7.83888 11.3083 8.56459 10.8141 9.05884L10.5539 9.31905C10.2044 9.66856 10.1641 10.1395 10.3641 10.4558C11.327 11.9792 12.6209 13.2731 14.1443 14.2361C14.4607 14.436 14.9316 14.3958 15.2811 14.0463L15.5413 13.7861C16.0355 13.2918 16.7612 13.1088 17.4307 13.3097L19.4333 13.9105C20.66 14.2785 21.5 15.4075 21.5 16.6882V18.0001C21.5 19.5675 20.2008 20.9825 18.4929 20.7699C10.8433 19.818 4.78216 13.7568 3.83021 6.10727Z" fill="#121212"/>
</svg>
