<svg width="25" height="24" viewBox="0 0 25 24" fill="none" xmlns="http://www.w3.org/2000/svg">
<path fill-rule="evenodd" clip-rule="evenodd" d="M12.8 6.09998C13.2971 6.09998 13.7 6.50292 13.7 6.99998V11.1H17.8C18.2971 11.1 18.7 11.5029 18.7 12C18.7 12.497 18.2971 12.9 17.8 12.9H13.7V17C13.7 17.497 13.2971 17.9 12.8 17.9C12.303 17.9 11.9 17.497 11.9 17V12.9H7.80002C7.30297 12.9 6.90002 12.497 6.90002 12C6.90002 11.5029 7.30297 11.1 7.80002 11.1H11.9V6.99998C11.9 6.50292 12.303 6.09998 12.8 6.09998Z" fill="#121212"/>
</svg>
