<svg width="25" height="24" viewBox="0 0 25 24" fill="none" xmlns="http://www.w3.org/2000/svg">
<path fill-rule="evenodd" clip-rule="evenodd" d="M4.60004 4.75C4.60004 3.23122 5.83125 2 7.35004 2H17.85C19.3688 2 20.6 3.23122 20.6 4.75V21.25C20.6 21.544 20.4283 21.8108 20.1607 21.9326C19.8932 22.0544 19.5791 22.0086 19.3575 21.8156L17.2925 20.017L15.454 21.7899C15.1634 22.07 14.7033 22.07 14.4128 21.7899L12.6 20.0419L10.7873 21.7899C10.4968 22.07 10.0366 22.07 9.7461 21.7899L7.90759 20.017L5.84262 21.8156C5.62094 22.0086 5.3069 22.0544 5.03934 21.9326C4.77178 21.8108 4.60004 21.544 4.60004 21.25V4.75ZM7.35004 3.5C6.65968 3.5 6.10004 4.05964 6.10004 4.75V19.6022L7.44078 18.4344C7.73408 18.179 8.17399 18.1901 8.45397 18.4601L10.2667 20.2081L12.0794 18.4601C12.37 18.18 12.8301 18.18 13.1206 18.4601L14.9334 20.2081L16.7461 18.4601C17.0261 18.1901 17.466 18.179 17.7593 18.4344L19.1 19.6022V4.75C19.1 4.05964 18.5404 3.5 17.85 3.5H7.35004ZM15.7554 7.38636C16.0483 7.67925 16.0483 8.15412 15.7554 8.44702L12.5887 11.6137C12.4481 11.7543 12.2573 11.8334 12.0584 11.8334C11.8595 11.8334 11.6687 11.7543 11.528 11.6137L9.94471 10.0303C9.65181 9.73745 9.65181 9.26258 9.94471 8.96968C10.2376 8.67679 10.7125 8.67679 11.0054 8.96968L12.0584 10.0227L14.6947 7.38636C14.9876 7.09346 15.4625 7.09346 15.7554 7.38636ZM8.60004 14.75C8.60004 14.3358 8.93582 14 9.35004 14H15.85C16.2642 14 16.6 14.3358 16.6 14.75C16.6 15.1642 16.2642 15.5 15.85 15.5H9.35004C8.93582 15.5 8.60004 15.1642 8.60004 14.75Z" fill="#121212"/>
</svg>
