<svg width="25" height="24" viewBox="0 0 25 24" fill="none" xmlns="http://www.w3.org/2000/svg">
<path fill-rule="evenodd" clip-rule="evenodd" d="M14.6932 20.7363C14.3417 20.3848 14.3417 19.815 14.6932 19.4635L19.8688 14.2879C20.2202 13.9364 20.7901 13.9364 21.1416 14.2879C21.493 14.6394 21.493 15.2092 21.1416 15.5607L15.966 20.7363C15.6145 21.0878 15.0446 21.0878 14.6932 20.7363Z" fill="#121212"/>
<path fill-rule="evenodd" clip-rule="evenodd" d="M9.06365 20.7363C8.71218 20.3848 8.71218 19.815 9.06365 19.4635L19.8637 8.66351C20.2151 8.31203 20.785 8.31203 21.1364 8.66351C21.4879 9.01498 21.4879 9.58483 21.1364 9.9363L10.3364 20.7363C9.98497 21.0878 9.41512 21.0878 9.06365 20.7363Z" fill="#121212"/>
</svg>
