<svg width="25" height="24" viewBox="0 0 25 24" fill="none" xmlns="http://www.w3.org/2000/svg">
<path fill-rule="evenodd" clip-rule="evenodd" d="M3.69995 12C3.69995 7.08464 7.68462 3.09998 12.6 3.09998C14.9363 3.09998 17.1015 4.00128 18.7118 5.47797V3.99998C18.7118 3.50292 19.1147 3.09998 19.6118 3.09998C20.1088 3.09998 20.5118 3.50292 20.5118 3.99998V7.24998C20.5118 8.16124 19.7731 8.89998 18.8618 8.89998H15.6118C15.1147 8.89998 14.7118 8.49703 14.7118 7.99998C14.7118 7.50292 15.1147 7.09998 15.6118 7.09998H17.7988C16.488 5.7459 14.6242 4.89998 12.6 4.89998C8.67873 4.89998 5.49995 8.07875 5.49995 12C5.49995 12.497 5.09701 12.9 4.59995 12.9C4.10289 12.9 3.69995 12.497 3.69995 12ZM20.6 11.1C21.097 11.1 21.5 11.5029 21.5 12C21.5 16.9153 17.5153 20.9 12.6 20.9C10.2693 20.9 8.10904 20.0031 6.49995 18.5328V20C6.49995 20.497 6.09701 20.9 5.59995 20.9C5.10289 20.9 4.69995 20.497 4.69995 20V16.75C4.69995 15.8387 5.43868 15.1 6.34995 15.1H9.34995C9.84701 15.1 10.25 15.5029 10.25 16C10.25 16.497 9.84701 16.9 9.34995 16.9H7.40109C8.71193 18.254 10.5757 19.1 12.6 19.1C16.5212 19.1 19.7 15.9212 19.7 12C19.7 11.5029 20.1029 11.1 20.6 11.1Z" fill="#121212"/>
</svg>
