<svg width="25" height="24" viewBox="0 0 25 24" fill="none" xmlns="http://www.w3.org/2000/svg">
<path fill-rule="evenodd" clip-rule="evenodd" d="M5.59995 3.89998C5.30821 3.89998 5.02842 4.01587 4.82213 4.22216C4.61584 4.42845 4.49995 4.70824 4.49995 4.99998V6.99998C4.49995 7.49703 4.09701 7.89998 3.59995 7.89998C3.10289 7.89998 2.69995 7.49703 2.69995 6.99998V4.99998C2.69995 4.23085 3.00549 3.49322 3.54934 2.94937C4.0932 2.40551 4.83082 2.09998 5.59995 2.09998H7.59995C8.09701 2.09998 8.49995 2.50292 8.49995 2.99998C8.49995 3.49703 8.09701 3.89998 7.59995 3.89998H5.59995Z" fill="#121212"/>
<path fill-rule="evenodd" clip-rule="evenodd" d="M16.7 2.99998C16.7 2.50292 17.1029 2.09998 17.6 2.09998H19.6C20.3691 2.09998 21.1067 2.40551 21.6506 2.94937C22.1944 3.49322 22.5 4.23085 22.5 4.99998V6.99998C22.5 7.49703 22.097 7.89998 21.6 7.89998C21.1029 7.89998 20.7 7.49703 20.7 6.99998V4.99998C20.7 4.70824 20.5841 4.42845 20.3778 4.22216C20.1715 4.01587 19.8917 3.89998 19.6 3.89998H17.6C17.1029 3.89998 16.7 3.49703 16.7 2.99998Z" fill="#121212"/>
<path fill-rule="evenodd" clip-rule="evenodd" d="M21.6 16.1C22.097 16.1 22.5 16.5029 22.5 17V19C22.5 19.7691 22.1944 20.5067 21.6506 21.0506C21.1067 21.5944 20.3691 21.9 19.6 21.9H17.6C17.1029 21.9 16.7 21.497 16.7 21C16.7 20.5029 17.1029 20.1 17.6 20.1H19.6C19.8917 20.1 20.1715 19.9841 20.3778 19.7778C20.5841 19.5715 20.7 19.2917 20.7 19V17C20.7 16.5029 21.1029 16.1 21.6 16.1Z" fill="#121212"/>
<path fill-rule="evenodd" clip-rule="evenodd" d="M3.59995 16.1C4.09701 16.1 4.49995 16.5029 4.49995 17V19C4.49995 19.2917 4.61584 19.5715 4.82213 19.7778C5.02842 19.9841 5.30821 20.1 5.59995 20.1H7.59995C8.09701 20.1 8.49995 20.5029 8.49995 21C8.49995 21.497 8.09701 21.9 7.59995 21.9H5.59995C4.83082 21.9 4.0932 21.5944 3.54934 21.0506C3.00549 20.5067 2.69995 19.7691 2.69995 19V17C2.69995 16.5029 3.10289 16.1 3.59995 16.1Z" fill="#121212"/>
<path fill-rule="evenodd" clip-rule="evenodd" d="M6.69995 12C6.69995 11.5029 7.10289 11.1 7.59995 11.1H17.6C18.097 11.1 18.5 11.5029 18.5 12C18.5 12.497 18.097 12.9 17.6 12.9H7.59995C7.10289 12.9 6.69995 12.497 6.69995 12Z" fill="#121212"/>
</svg>
