<svg width="25" height="24" viewBox="0 0 25 24" fill="none" xmlns="http://www.w3.org/2000/svg">
<path fill-rule="evenodd" clip-rule="evenodd" d="M17.6 3.9001C16.4402 3.9001 15.5 4.8403 15.5 6.0001C15.5 6.34994 15.5848 6.67733 15.7343 6.96535C16.0851 7.64142 16.7897 8.1001 17.6 8.1001C18.7598 8.1001 19.7 7.1599 19.7 6.0001C19.7 4.8403 18.7598 3.9001 17.6 3.9001ZM13.7 6.0001C13.7 3.84619 15.4461 2.1001 17.6 2.1001C19.7539 2.1001 21.5 3.84619 21.5 6.0001C21.5 8.15401 19.7539 9.9001 17.6 9.9001C16.4297 9.9001 15.3808 9.3845 14.6666 8.57004L10.3761 11.0218C10.457 11.3349 10.5 11.6628 10.5 12.0001C10.5 12.3374 10.457 12.6653 10.3761 12.9784L14.6666 15.4302C15.3808 14.6157 16.4297 14.1001 17.6 14.1001C19.7539 14.1001 21.5 15.8462 21.5 18.0001C21.5 20.154 19.7539 21.9001 17.6 21.9001C15.4461 21.9001 13.7 20.154 13.7 18.0001C13.7 17.6628 13.743 17.3349 13.824 17.0218L9.5334 14.57C8.81925 15.3845 7.7703 15.9001 6.60001 15.9001C4.4461 15.9001 2.70001 14.154 2.70001 12.0001C2.70001 9.84619 4.4461 8.1001 6.60001 8.1001C7.7703 8.1001 8.81925 8.61569 9.5334 9.43016L13.824 6.97841C13.743 6.66533 13.7 6.33737 13.7 6.0001ZM6.60001 9.9001C5.44021 9.9001 4.50001 10.8403 4.50001 12.0001C4.50001 13.1599 5.44021 14.1001 6.60001 14.1001C7.41029 14.1001 8.11494 13.6414 8.46573 12.9654C8.61517 12.6773 8.70001 12.3499 8.70001 12.0001C8.70001 11.6503 8.61517 11.3229 8.46573 11.0348C8.11494 10.3588 7.41029 9.9001 6.60001 9.9001ZM17.6 15.9001C16.7897 15.9001 16.0851 16.3588 15.7343 17.0348C15.5848 17.3229 15.5 17.6503 15.5 18.0001C15.5 19.1599 16.4402 20.1001 17.6 20.1001C18.7598 20.1001 19.7 19.1599 19.7 18.0001C19.7 16.8403 18.7598 15.9001 17.6 15.9001Z" fill="#121212"/>
</svg>
