<svg preserveAspectRatio="none" width="100%" height="100%" overflow="visible" style="display: block;" viewBox="0 0 20 20" fill="none" xmlns="http://www.w3.org/2000/svg">
<g id="printer, print">
<path id="vector" d="M7.70833 8.95833H5.625M14.375 11.4583V14.375H16.0417C16.9621 14.375 17.7083 13.6288 17.7083 12.7083V7.29167C17.7083 6.37119 16.9621 5.625 16.0417 5.625H3.95833C3.03786 5.625 2.29167 6.37119 2.29167 7.29167V12.7083C2.29167 13.6288 3.03786 14.375 3.95833 14.375H5.625V11.4583H14.375V16.0417C14.375 16.9621 13.6288 17.7083 12.7083 17.7083H7.29167C6.37119 17.7083 5.625 16.9621 5.625 16.0417V11.4583M7.29167 2.29167H12.7083C13.6288 2.29167 14.375 3.03786 14.375 3.95833V5.625H5.625V3.95833C5.625 3.03786 6.37119 2.29167 7.29167 2.29167Z" stroke="var(--stroke-0, #121212)" stroke-width="1.5" stroke-linecap="round" stroke-linejoin="round"/>
</g>
</svg>
