<svg width="24" height="24" viewBox="0 0 24 24" fill="none" xmlns="http://www.w3.org/2000/svg">
<path d="M19.0996 6C19.0996 5.39249 18.6075 4.90039 18 4.90039H6C5.39249 4.90039 4.90039 5.39249 4.90039 6V18L4.90527 18.1123C4.96151 18.6671 5.43039 19.0996 6 19.0996H18C18.6075 19.0996 19.0996 18.6075 19.0996 18V6ZM20.9004 18C20.9004 19.6016 19.6016 20.9004 18 20.9004H6C4.44848 20.9004 3.18127 19.6816 3.10352 18.1494L3.09961 18V6C3.09961 4.39837 4.39837 3.09961 6 3.09961H18C19.6016 3.09961 20.9004 4.39837 20.9004 6V18Z" fill="#121212"/>
<path d="M8.09961 19V5C8.09961 4.50294 8.50294 4.09961 9 4.09961C9.49706 4.09961 9.90039 4.50294 9.90039 5V19C9.90039 19.4971 9.49706 19.9004 9 19.9004C8.50294 19.9004 8.09961 19.4971 8.09961 19Z" fill="#121212"/>
</svg>
