<svg width="25" height="24" viewBox="0 0 25 24" fill="none" xmlns="http://www.w3.org/2000/svg">
<path fill-rule="evenodd" clip-rule="evenodd" d="M8.49988 5.6727V19.9999C8.49988 20.497 8.90282 20.8999 9.39988 20.8999C9.89693 20.8999 10.2999 20.497 10.2999 19.9999V4.57611C10.2999 4.2206 10.1827 3.80832 9.89568 3.50168C9.74357 3.3392 9.51227 3.17664 9.20317 3.12867C8.8818 3.0788 8.58697 3.1701 8.35671 3.32306C8.25105 3.39324 8.15093 3.47607 8.05638 3.57062L4.76348 6.86351C4.41201 7.21498 4.41201 7.78483 4.76348 8.1363C5.11495 8.48778 5.6848 8.48778 6.03627 8.1363L8.49988 5.6727Z" fill="#121212"/>
<path fill-rule="evenodd" clip-rule="evenodd" d="M16.2999 18.2843V3.95707C16.2999 3.46001 15.8969 3.05707 15.3999 3.05707C14.9028 3.05707 14.4999 3.46001 14.4999 3.95707V19.3809C14.4999 19.7364 14.617 20.1487 14.9041 20.4553C15.0562 20.6178 15.2875 20.7803 15.5966 20.8283C15.918 20.8782 16.2128 20.7869 16.443 20.6339C16.5487 20.5637 16.6488 20.4809 16.7434 20.3864L20.0363 17.0935C20.3877 16.742 20.3877 16.1721 20.0363 15.8207C19.6848 15.4692 19.115 15.4692 18.7635 15.8207L16.2999 18.2843Z" fill="#121212"/>
</svg>
