<svg width="25" height="24" viewBox="0 0 25 24" fill="none" xmlns="http://www.w3.org/2000/svg">
<path fill-rule="evenodd" clip-rule="evenodd" d="M3.60236 5.1351C3.9807 3.92442 5.10194 3.1001 6.37036 3.1001H18.4296C19.698 3.1001 20.8192 3.92442 21.1976 5.1351L22.0833 7.96933C22.5132 9.34517 22.123 10.7335 21.2432 11.6849C21.2799 11.783 21.3 11.8892 21.3 12.0001V18.0001C21.3 19.6017 20.0016 20.9001 18.4 20.9001H6.39997C4.79835 20.9001 3.49997 19.6017 3.49997 18.0001V12.0001C3.49997 11.8892 3.52003 11.783 3.55672 11.6849C2.6769 10.7335 2.28672 9.34517 2.71667 7.96933L3.60236 5.1351ZM5.29997 12.757V18.0001C5.29997 18.6076 5.79246 19.1001 6.39997 19.1001H18.4C19.0075 19.1001 19.5 18.6076 19.5 18.0001V12.757C19.1711 12.85 18.8221 12.9001 18.4582 12.9001C17.2573 12.9001 16.1743 12.3394 15.4748 11.4527C14.7471 12.3323 13.6468 12.9001 12.4 12.9001C11.1531 12.9001 10.0528 12.3323 9.32517 11.4527C8.62569 12.3394 7.54262 12.9001 6.34172 12.9001C5.97788 12.9001 5.62886 12.85 5.29997 12.757ZM14.5728 8.63876C14.5728 8.63863 14.5728 8.63888 14.5728 8.63876L14.1055 4.9001H10.6945L10.2271 8.63876C10.0638 9.94571 11.0829 11.1001 12.4 11.1001C13.717 11.1001 14.7359 9.94556 14.5728 8.63876ZM8.88047 4.9001H6.37036C5.88923 4.9001 5.46394 5.21277 5.32043 5.67199L4.43473 8.50622C4.03269 9.79276 4.99383 11.1001 6.34172 11.1001C7.34933 11.1001 8.19926 10.3498 8.32424 9.34997L8.88047 4.9001ZM15.9195 4.9001L16.3589 8.41549C16.3589 8.41532 16.3589 8.41567 16.3589 8.41549L16.4757 9.34997C16.6007 10.3498 17.4506 11.1001 18.4582 11.1001C19.8061 11.1001 20.7673 9.79276 20.3652 8.50622L19.4795 5.67199C19.336 5.21277 18.9107 4.9001 18.4296 4.9001H15.9195Z" fill="#121212"/>
</svg>
