<svg width="24" height="24" viewBox="0 0 24 24" fill="none" xmlns="http://www.w3.org/2000/svg">
<path fill-rule="evenodd" clip-rule="evenodd" d="M12 1.09998C12.4971 1.09998 12.9 1.50292 12.9 1.99998V2.99998C12.9 3.49703 12.4971 3.89998 12 3.89998C11.5029 3.89998 11.1 3.49703 11.1 2.99998V1.99998C11.1 1.50292 11.5029 1.09998 12 1.09998ZM4.29377 4.29363C4.64524 3.94216 5.21509 3.94216 5.56656 4.29363L6.27656 5.00363C6.62803 5.3551 6.62803 5.92495 6.27656 6.27642C5.92509 6.6279 5.35524 6.6279 5.00377 6.27642L4.29377 5.56642C3.94229 5.21495 3.94229 4.6451 4.29377 4.29363ZM19.7062 4.29363C20.0577 4.6451 20.0577 5.21495 19.7062 5.56642L18.9962 6.27642C18.6448 6.6279 18.0749 6.6279 17.7235 6.27643C17.372 5.92495 17.372 5.35511 17.7235 5.00363L18.4335 4.29363C18.7849 3.94216 19.3548 3.94216 19.7062 4.29363ZM9.10087 9.10084C7.49972 10.702 7.49972 13.298 9.10087 14.8991C10.702 16.5003 13.298 16.5003 14.8991 14.8991C16.5003 13.298 16.5003 10.702 14.8991 9.10084C13.298 7.49969 10.702 7.49969 9.10087 9.10084ZM7.82808 7.82804C10.1322 5.52395 13.8678 5.52395 16.1719 7.82804C18.476 10.1321 18.476 13.8678 16.1719 16.1719C13.8678 18.476 10.1322 18.476 7.82808 16.1719C5.52398 13.8678 5.52398 10.1321 7.82808 7.82804ZM1.10001 12C1.10001 11.5029 1.50295 11.1 2.00001 11.1H3.00001C3.49706 11.1 3.90001 11.5029 3.90001 12C3.90001 12.4971 3.49706 12.9 3.00001 12.9H2.00001C1.50295 12.9 1.10001 12.4971 1.10001 12ZM20.1 12C20.1 11.5029 20.5029 11.1 21 11.1H22C22.4971 11.1 22.9 11.5029 22.9 12C22.9 12.4971 22.4971 12.9 22 12.9H21C20.5029 12.9 20.1 12.4971 20.1 12ZM17.7235 17.7236C18.0749 17.3721 18.6448 17.3721 18.9962 17.7236L19.7062 18.4336C20.0577 18.785 20.0577 19.3549 19.7062 19.7064C19.3548 20.0578 18.7849 20.0578 18.4335 19.7064L17.7235 18.9964C17.372 18.6449 17.372 18.075 17.7235 17.7236ZM6.27656 17.7236C6.62803 18.075 6.62803 18.6449 6.27656 18.9964L5.56656 19.7064C5.21509 20.0578 4.64524 20.0578 4.29377 19.7064C3.94229 19.3549 3.94229 18.785 4.29377 18.4336L5.00377 17.7236C5.35524 17.3721 5.92509 17.3721 6.27656 17.7236ZM12 20.1C12.4971 20.1 12.9 20.5029 12.9 21V22C12.9 22.4971 12.4971 22.9 12 22.9C11.5029 22.9 11.1 22.4971 11.1 22V21C11.1 20.5029 11.5029 20.1 12 20.1Z" fill="#121212"/>
</svg>
