<svg width="25" height="24" viewBox="0 0 25 24" fill="none" xmlns="http://www.w3.org/2000/svg">
<path fill-rule="evenodd" clip-rule="evenodd" d="M12.4 2.1001C12.8971 2.1001 13.3 2.50304 13.3 3.0001V4.13342C16.986 4.40746 20.1811 6.35036 21.9186 9.1744L21.152 9.646L21.9186 9.1744C22.4621 10.0579 22.3539 11.0342 21.8497 11.755C21.3616 12.4528 20.5196 12.9001 19.5833 12.9001H5.21673C4.28051 12.9001 3.43851 12.4528 2.9504 11.755C2.44621 11.0342 2.33796 10.0579 2.88153 9.1744C4.61896 6.35036 7.81407 4.40746 11.5 4.13342V3.0001C11.5 2.50304 11.903 2.1001 12.4 2.1001ZM12.4 5.9001C8.92751 5.9001 5.94602 7.62845 4.41462 10.1176C4.27554 10.3437 4.30025 10.5444 4.42536 10.7233C4.56656 10.9251 4.85021 11.1001 5.21673 11.1001H19.5833C19.9499 11.1001 20.2335 10.9251 20.3747 10.7233C20.4998 10.5444 20.5245 10.3437 20.3855 10.1176C18.8541 7.62845 15.8726 5.9001 12.4 5.9001ZM12.4 15.1001C12.8971 15.1001 13.3 15.503 13.3 16.0001V19.0768C13.3 20.6361 12.036 21.9001 10.4768 21.9001C9.13095 21.9001 7.97223 20.9502 7.7083 19.6305L7.51752 18.6766C7.42004 18.1892 7.73613 17.7151 8.22354 17.6176C8.71094 17.5201 9.18508 17.8362 9.28256 18.3236L9.47334 19.2775C9.569 19.7558 9.98898 20.1001 10.4768 20.1001C11.0419 20.1001 11.5 19.642 11.5 19.0768V16.0001C11.5 15.503 11.903 15.1001 12.4 15.1001Z" fill="#121212"/>
</svg>
