<svg width="25" height="24" viewBox="0 0 25 24" fill="none" xmlns="http://www.w3.org/2000/svg">
<path fill-rule="evenodd" clip-rule="evenodd" d="M12.8 3.09998C13.0387 3.09998 13.2676 3.1948 13.4364 3.36358L17.9364 7.86358C18.2879 8.21505 18.2879 8.7849 17.9364 9.13637C17.5849 9.48784 17.0151 9.48784 16.6636 9.13637L13.7 6.17276V15.25C13.7 15.747 13.2971 16.15 12.8 16.15C12.303 16.15 11.9 15.747 11.9 15.25V6.17277L8.93642 9.13637C8.58495 9.48784 8.0151 9.48784 7.66363 9.13637C7.31216 8.7849 7.31216 8.21505 7.66363 7.86358L12.1636 3.36358C12.3324 3.1948 12.5613 3.09998 12.8 3.09998ZM4.80002 11.85C5.29708 11.85 5.70002 12.2529 5.70002 12.75V18C5.70002 18.6075 6.19251 19.1 6.80002 19.1H18.8C19.4075 19.1 19.9 18.6075 19.9 18V12.75C19.9 12.2529 20.303 11.85 20.8 11.85C21.2971 11.85 21.7 12.2529 21.7 12.75V18C21.7 19.6016 20.4016 20.9 18.8 20.9H6.80002C5.1984 20.9 3.90002 19.6016 3.90002 18V12.75C3.90002 12.2529 4.30297 11.85 4.80002 11.85Z" fill="#121212"/>
</svg>
