<svg width="25" height="24" viewBox="0 0 25 24" fill="none" xmlns="http://www.w3.org/2000/svg">
<path fill-rule="evenodd" clip-rule="evenodd" d="M12.3999 3.39998C7.65023 3.39998 3.79988 7.25033 3.79988 12C3.79988 14.2777 4.68449 16.348 6.13096 17.8874C7.68827 16.2961 9.85945 15.3222 12.3999 15.3222C14.9403 15.3222 17.1115 16.2961 18.6688 17.8874C20.1153 16.348 20.9999 14.2777 20.9999 12C20.9999 7.25033 17.1495 3.39998 12.3999 3.39998ZM17.3029 19.0665C16.0862 17.8641 14.4063 17.1222 12.3999 17.1222C10.3934 17.1222 8.71357 17.8641 7.49689 19.0665C8.8878 20.0336 10.5769 20.6 12.3999 20.6C14.2229 20.6 15.912 20.0336 17.3029 19.0665ZM1.99988 12C1.99988 6.25621 6.65612 1.59998 12.3999 1.59998C18.1436 1.59998 22.7999 6.25621 22.7999 12C22.7999 15.1445 21.4032 17.9637 19.1995 19.8694C17.3768 21.4456 14.9987 22.4 12.3999 22.4C9.80108 22.4 7.42293 21.4456 5.60023 19.8694C3.39652 17.9637 1.99988 15.1445 1.99988 12ZM12.3999 7.6222C11.148 7.6222 10.1332 8.63702 10.1332 9.88886C10.1332 11.1407 11.148 12.1555 12.3999 12.1555C13.6517 12.1555 14.6665 11.1407 14.6665 9.88886C14.6665 8.63702 13.6517 7.6222 12.3999 7.6222ZM8.33321 9.88886C8.33321 7.64291 10.1539 5.8222 12.3999 5.8222C14.6458 5.8222 16.4665 7.64291 16.4665 9.88886C16.4665 12.1348 14.6458 13.9555 12.3999 13.9555C10.1539 13.9555 8.33321 12.1348 8.33321 9.88886Z" fill="#121212"/>
</svg>
