<svg width="25" height="24" viewBox="0 0 25 24" fill="none" xmlns="http://www.w3.org/2000/svg">
<path fill-rule="evenodd" clip-rule="evenodd" d="M10.4 3.9001C9.79249 3.9001 9.3 4.39258 9.3 5.0001V6.1001H15.5V5.0001C15.5 4.39258 15.0075 3.9001 14.4 3.9001H10.4ZM17.3 6.1001V5.0001C17.3 3.39847 16.0016 2.1001 14.4 2.1001H10.4C8.79837 2.1001 7.5 3.39847 7.5 5.0001V6.1001H5.4C3.79837 6.1001 2.5 7.39847 2.5 9.0001V18.0001C2.5 19.6017 3.79837 20.9001 5.4 20.9001H19.4C21.0016 20.9001 22.3 19.6017 22.3 18.0001V9.0001C22.3 7.39847 21.0016 6.1001 19.4 6.1001H17.3ZM5.4 7.9001C4.79249 7.9001 4.3 8.39258 4.3 9.0001V18.0001C4.3 18.6076 4.79249 19.1001 5.4 19.1001H19.4C20.0075 19.1001 20.5 18.6076 20.5 18.0001V9.0001C20.5 8.39258 20.0075 7.9001 19.4 7.9001H5.4Z" fill="#121212"/>
<path d="M15.9 17.0001C17.1402 17.0001 18.1695 16.097 18.3661 14.9126C18.4096 14.651 18.2946 14.3948 18.1071 14.2072L16.1929 12.293C16.0054 12.1055 15.7491 11.9905 15.4875 12.034C14.3031 12.2306 13.4 13.2599 13.4 14.5001C13.4 15.8808 14.5193 17.0001 15.9 17.0001Z" fill="#121212"/>
<path d="M6.60548 12.8032C6.41658 12.2842 6.68417 11.7103 7.20315 11.5214L10.1886 10.4348C10.7076 10.2459 11.2815 10.5135 11.4703 11.0325L11.8531 12.0842C12.042 12.6032 11.7744 13.177 11.2555 13.3659L8.26998 14.4525C7.751 14.6414 7.17715 14.3738 6.98826 13.8549L6.60548 12.8032Z" fill="#121212"/>
</svg>
