<svg width="21" height="20" viewBox="0 0 21 20" fill="none" xmlns="http://www.w3.org/2000/svg">
<path d="M8.02511 2.85506C8.02511 2.41788 7.67071 2.06348 7.23353 2.06348C6.79635 2.06348 6.44195 2.41788 6.44195 2.85506V3.64663H4.85879C3.98444 3.64663 3.27563 4.35544 3.27563 5.22979V15.5203C3.27563 16.3947 3.98444 17.1035 4.85879 17.1035H9.60827C10.0454 17.1035 10.3998 16.7491 10.3998 16.3119C10.3998 15.8747 10.0454 15.5203 9.60827 15.5203H4.85879V8.39611H15.9409V9.18769C15.9409 9.62486 16.2953 9.97927 16.7325 9.97927C17.1697 9.97927 17.5241 9.62486 17.5241 9.18769V5.22979C17.5241 4.35544 16.8153 3.64663 15.9409 3.64663H14.3577V2.85506C14.3577 2.41788 14.0033 2.06348 13.5662 2.06348C13.129 2.06348 12.7746 2.41788 12.7746 2.85506V3.64663H8.02511V2.85506Z" fill="#121212"/>
<path d="M13.0064 12.5859C12.6973 12.895 12.6973 13.3962 13.0065 13.7053L14.03 14.7287L13.0065 15.7521C12.6973 16.0612 12.6973 16.5624 13.0064 16.8716C13.3155 17.1807 13.8167 17.1808 14.1259 16.8717L15.1494 15.8482L16.1727 16.8716C16.4818 17.1807 16.983 17.1808 17.2922 16.8717C17.6013 16.5625 17.6014 16.0613 17.2922 15.7522L16.2689 14.7287L17.2922 13.7053C17.6014 13.3961 17.6013 12.8949 17.2922 12.5858C16.983 12.2767 16.4818 12.2767 16.1727 12.5859L15.1494 13.6093L14.1259 12.5858C13.8167 12.2767 13.3155 12.2767 13.0064 12.5859Z" fill="#121212"/>
</svg>
