<svg width="20" height="20" viewBox="0 0 20 20" fill="none" xmlns="http://www.w3.org/2000/svg">
<path fill-rule="evenodd" clip-rule="evenodd" d="M10 1.6665C5.39766 1.6665 1.6667 5.39746 1.6667 9.99984C1.6667 14.6022 5.39766 18.3332 10 18.3332C14.6024 18.3332 18.3334 14.6022 18.3334 9.99984C18.3334 5.39746 14.6024 1.6665 10 1.6665ZM8.33337 9.1665C8.33337 8.70627 8.70646 8.33317 9.1667 8.33317H10C10.4603 8.33317 10.8334 8.70627 10.8334 9.1665V13.3332C10.8334 13.7934 10.4603 14.1665 10 14.1665C9.5398 14.1665 9.1667 13.7934 9.1667 13.3332V9.99984C8.70646 9.99984 8.33337 9.62674 8.33337 9.1665ZM10 5.83317C9.5398 5.83317 9.1667 6.20627 9.1667 6.6665C9.1667 7.12674 9.5398 7.49984 10 7.49984C10.4603 7.49984 10.8334 7.12674 10.8334 6.6665C10.8334 6.20627 10.4603 5.83317 10 5.83317Z" fill="#121212"/>
</svg>
