<svg width="21" height="20" viewBox="0 0 21 20" fill="none" xmlns="http://www.w3.org/2000/svg">
<path fill-rule="evenodd" clip-rule="evenodd" d="M10.8 1.6665C6.1976 1.6665 2.46664 5.39746 2.46664 9.99984C2.46664 14.6022 6.1976 18.3332 10.8 18.3332C15.4024 18.3332 19.1333 14.6022 19.1333 9.99984C19.1333 5.39746 15.4024 1.6665 10.8 1.6665ZM13.7837 8.31228C14.0023 8.04512 13.9629 7.65136 13.6958 7.43278C13.4286 7.2142 13.0348 7.25358 12.8163 7.52073L9.50358 11.5696L8.32525 10.3912C8.08117 10.1472 7.68545 10.1472 7.44137 10.3912C7.19729 10.6353 7.19729 11.031 7.44137 11.2751L9.10804 12.9418C9.2329 13.0666 9.40475 13.1329 9.58111 13.1241C9.75747 13.1153 9.92188 13.0323 10.0337 12.8956L13.7837 8.31228Z" fill="#121212"/>
</svg>
