<svg width="21" height="20" viewBox="0 0 21 20" fill="none" xmlns="http://www.w3.org/2000/svg">
<path fill-rule="evenodd" clip-rule="evenodd" d="M10.5999 18.3335C5.99756 18.3335 2.2666 14.6025 2.2666 10.0002C2.2666 5.39779 5.99756 1.66683 10.5999 1.66683C15.2023 1.66683 18.9333 5.39779 18.9333 10.0002C18.9333 14.6025 15.2023 18.3335 10.5999 18.3335ZM9.7666 10.8335C9.7666 10.8335 9.7666 10.8335 9.7666 10.8335C9.7666 11.2918 10.1833 11.6668 10.5999 11.6668C11.0166 11.6668 11.4333 11.2937 11.4333 10.8335V6.66683C11.4333 6.20659 11.0602 5.8335 10.5999 5.8335C10.1397 5.8335 9.7666 6.20659 9.7666 6.66683C9.7666 8.05572 9.7666 10.8335 9.7666 10.8335ZM10.5999 14.1668C10.1397 14.1668 9.7666 13.7937 9.7666 13.3335C9.7666 12.8733 10.1397 12.5002 10.5999 12.5002C11.0602 12.5002 11.4333 12.8733 11.4333 13.3335C11.4333 13.7937 11.0602 14.1668 10.5999 14.1668Z" fill="#121212"/>
</svg>
