<svg width="21" height="20" viewBox="0 0 21 20" fill="none" xmlns="http://www.w3.org/2000/svg">
<path fill-rule="evenodd" clip-rule="evenodd" d="M7.53374 4.45995C7.8852 3.09443 9.12477 2.08545 10.6 2.08545C12.0752 2.08545 13.3148 3.09443 13.6663 4.45995H16.932C17.3691 4.45995 17.7235 4.81432 17.7235 5.25145C17.7235 5.68858 17.3691 6.04295 16.932 6.04295H16.1405V16.3324C16.1405 17.2067 15.4318 17.9154 14.5575 17.9154H6.6425C5.76823 17.9154 5.0595 17.2067 5.0595 16.3324V6.04295H4.268C3.83087 6.04295 3.4765 5.68858 3.4765 5.25145C3.4765 4.81432 3.83087 4.45995 4.268 4.45995H7.53374ZM9.22878 4.45995C9.50249 3.98679 10.0141 3.66845 10.6 3.66845C11.1859 3.66845 11.6975 3.98679 11.9712 4.45995H9.22878ZM9.017 8.41745C9.45413 8.41745 9.8085 8.77182 9.8085 9.20895V13.1664C9.8085 13.6036 9.45413 13.9579 9.017 13.9579C8.57987 13.9579 8.2255 13.6036 8.2255 13.1664V9.20895C8.2255 8.77182 8.57987 8.41745 9.017 8.41745ZM12.183 8.41745C12.6201 8.41745 12.9745 8.77182 12.9745 9.20895V13.1664C12.9745 13.6036 12.6201 13.9579 12.183 13.9579C11.7459 13.9579 11.3915 13.6036 11.3915 13.1664V9.20895C11.3915 8.77182 11.7459 8.41745 12.183 8.41745Z" fill="#121212"/>
</svg>
