<svg width="21" height="20" viewBox="0 0 21 20" fill="none" xmlns="http://www.w3.org/2000/svg">
<path fill-rule="evenodd" clip-rule="evenodd" d="M10.4 2.09961H6.44996C5.14104 2.09961 4.07996 3.16069 4.07996 4.46961V15.5296C4.07996 16.8385 5.14104 17.8996 6.44996 17.8996H14.35C15.6589 17.8996 16.72 16.8385 16.72 15.5296V8.41961H12.77C11.461 8.41961 10.4 7.35852 10.4 6.04961V2.09961ZM7.23996 11.5796C7.23996 11.1433 7.59365 10.7896 8.02996 10.7896H10.4C10.8363 10.7896 11.19 11.1433 11.19 11.5796C11.19 12.0159 10.8363 12.3696 10.4 12.3696H8.02996C7.59365 12.3696 7.23996 12.0159 7.23996 11.5796ZM8.02996 13.9496C7.59365 13.9496 7.23996 14.3033 7.23996 14.7396C7.23996 15.1759 7.59365 15.5296 8.02996 15.5296H13.165C13.6013 15.5296 13.955 15.1759 13.955 14.7396C13.955 14.3033 13.6013 13.9496 13.165 13.9496H8.02996Z" fill="#121212"/>
<path d="M16.2572 6.83961L11.98 2.56238V6.04961C11.98 6.48591 12.3337 6.83961 12.77 6.83961H16.2572Z" fill="#121212"/>
</svg>
