<svg width="20" height="20" viewBox="0 0 20 20" fill="none" xmlns="http://www.w3.org/2000/svg">
<path d="M6.8361 2.875C5.0872 2.875 3.66943 4.29277 3.66943 6.04167C3.66943 7.79057 5.0872 9.20833 6.8361 9.20833C8.585 9.20833 10.0028 7.79057 10.0028 6.04167C10.0028 4.29277 8.585 2.875 6.8361 2.875Z" fill="#121212"/>
<path d="M13.9611 3.66667C12.4308 3.66667 11.1903 4.90721 11.1903 6.4375C11.1903 7.96779 12.4308 9.20833 13.9611 9.20833C15.4914 9.20833 16.7319 7.96779 16.7319 6.4375C16.7319 4.90721 15.4914 3.66667 13.9611 3.66667Z" fill="#121212"/>
<path d="M6.83599 10C9.35243 10 11.6968 11.9108 12.2681 15.3568C12.431 16.3391 11.6358 17.125 10.7366 17.125H2.93543C2.0362 17.125 1.24104 16.3391 1.40389 15.3568C1.97519 11.9108 4.31956 10 6.83599 10Z" fill="#121212"/>
<path d="M11.7396 10.6108C12.7801 11.7443 13.5278 13.274 13.8301 15.0978C13.9028 15.536 13.8841 15.9512 13.7928 16.3333H17.1828C18.0771 16.3333 18.8875 15.547 18.7052 14.5526C18.1705 11.6358 16.1467 10 13.9608 10C13.1795 10 12.4189 10.209 11.7396 10.6108Z" fill="#121212"/>
</svg>
