<svg width="21" height="20" viewBox="0 0 21 20" fill="none" xmlns="http://www.w3.org/2000/svg">
<path fill-rule="evenodd" clip-rule="evenodd" d="M4.13333 8.33317C4.13333 4.65127 7.1181 1.6665 10.8 1.6665C14.4819 1.6665 17.4667 4.65127 17.4667 8.33317C17.4667 10.395 16.5549 12.2989 15.4922 13.8282C14.4232 15.3667 13.1466 16.605 12.2935 17.353C11.432 18.1083 10.168 18.1083 9.30652 17.353C8.45339 16.605 7.17682 15.3667 6.10779 13.8282C5.04511 12.2989 4.13333 10.395 4.13333 8.33317ZM10.7982 10.4165C11.9488 10.4165 12.8815 9.48376 12.8815 8.33317C12.8815 7.18258 11.9488 6.24984 10.7982 6.24984C9.64757 6.24984 8.71483 7.18258 8.71483 8.33317C8.71483 9.48376 9.64757 10.4165 10.7982 10.4165Z" fill="#121212"/>
</svg>
