<svg width="20" height="20" viewBox="0 0 20 20" fill="none" xmlns="http://www.w3.org/2000/svg">
<path fill-rule="evenodd" clip-rule="evenodd" d="M3.33333 3.95817C3.33333 2.69252 4.35934 1.6665 5.62499 1.6665H14.375C15.6406 1.6665 16.6667 2.69252 16.6667 3.95817V17.7082C16.6667 17.9531 16.5235 18.1755 16.3006 18.277C16.0776 18.3785 15.8159 18.3404 15.6312 18.1795L13.9104 16.6807L12.3783 18.1581C12.1362 18.3915 11.7527 18.3915 11.5106 18.1581L9.99999 16.7014L8.48939 18.1581C8.24727 18.3915 7.86383 18.3915 7.62172 18.1581L6.08963 16.6807L4.36882 18.1795C4.18408 18.3404 3.92238 18.3785 3.69942 18.277C3.47645 18.1755 3.33333 17.9531 3.33333 17.7082V3.95817ZM12.6294 7.03902C12.8735 6.79494 12.8735 6.39921 12.6294 6.15513C12.3854 5.91106 11.9896 5.91106 11.7456 6.15513L9.54861 8.35208L8.6711 7.47457C8.42703 7.23049 8.0313 7.23049 7.78722 7.47457C7.54314 7.71865 7.54314 8.11438 7.78722 8.35846L9.10667 9.6779C9.22388 9.79511 9.38285 9.86096 9.54861 9.86096C9.71437 9.86096 9.87334 9.79511 9.99055 9.6779L12.6294 7.03902ZM7.29166 11.6665C6.94648 11.6665 6.66666 11.9463 6.66666 12.2915C6.66666 12.6367 6.94648 12.9165 7.29166 12.9165H12.7083C13.0535 12.9165 13.3333 12.6367 13.3333 12.2915C13.3333 11.9463 13.0535 11.6665 12.7083 11.6665H7.29166Z" fill="#121212"/>
</svg>
