<svg width="21" height="20" viewBox="0 0 21 20" fill="none" xmlns="http://www.w3.org/2000/svg">
<path fill-rule="evenodd" clip-rule="evenodd" d="M8.96394 2.46519C9.60836 1.36968 11.1926 1.36968 11.8371 2.46519L18.7134 14.1549C19.3669 15.266 18.5658 16.6666 17.2768 16.6666H3.52418C2.23515 16.6666 1.43406 15.266 2.08762 14.1549L8.96394 2.46519ZM10.3999 7.49988C10.8601 7.49988 11.2332 7.87297 11.2332 8.33321V9.99988C11.2332 10.4601 10.8601 10.8332 10.3999 10.8332C9.93966 10.8332 9.56657 10.4601 9.56657 9.99988V8.33321C9.56657 7.87297 9.93966 7.49988 10.3999 7.49988ZM9.35824 12.4999C9.35824 11.9246 9.82461 11.4582 10.3999 11.4582C10.9752 11.4582 11.4416 11.9246 11.4416 12.4999C11.4416 13.0752 10.9752 13.5415 10.3999 13.5415C9.82461 13.5415 9.35824 13.0752 9.35824 12.4999Z" fill="#121212"/>
</svg>
